<?xml version="1.0" encoding="UTF-8" standalone="no"?>
<svg width="583px" height="279px" viewBox="0 0 583 279" version="1.1" xmlns="http://www.w3.org/2000/svg" xmlns:xlink="http://www.w3.org/1999/xlink" xmlns:sketch="http://www.bohemiancoding.com/sketch/ns">
    <!-- Generator: Sketch 3.3.2 (12043) - http://www.bohemiancoding.com/sketch -->
    <title>404</title>
    <desc>Created with Sketch.</desc>
    <defs>
        <filter x="-50%" y="-50%" width="200%" height="200%" filterUnits="objectBoundingBox" id="filter-1">
            <feOffset dx="0" dy="0" in="SourceAlpha" result="shadowOffsetOuter1"></feOffset>
            <feGaussianBlur stdDeviation="15" in="shadowOffsetOuter1" result="shadowBlurOuter1"></feGaussianBlur>
            <feColorMatrix values="0 0 0 0 0   0 0 0 0 0   0 0 0 0 0  0 0 0 0.21 0" in="shadowBlurOuter1" type="matrix" result="shadowMatrixOuter1"></feColorMatrix>
            <feMerge>
                <feMergeNode in="shadowMatrixOuter1"></feMergeNode>
                <feMergeNode in="SourceGraphic"></feMergeNode>
            </feMerge>
        </filter>
    </defs>
    <g id="GdS-md" stroke="none" stroke-width="1" fill="none" fill-rule="evenodd" sketch:type="MSPage">
        <g id="404" sketch:type="MSArtboardGroup" transform="translate(-220.000000, -147.000000)">
            <g sketch:type="MSLayerGroup" transform="translate(245.000000, 167.000000)">
                <g id="logo" transform="translate(157.099526, 0.000000)" sketch:type="MSShapeGroup">
                    <path d="M27.4636335,38.3438908 L23.7551385,44.7797194 C13.1281394,63.225222 7.51146121,84.2479939 7.51146121,105.58992 C7.51146121,165.105477 50.148769,215.7595 108.888382,226.013827 L110.626383,226.320963 L112.366394,226.013827 C171.104668,215.7595 213.743315,165.105477 213.743315,105.58992 C213.743315,84.2333048 208.129317,63.2065268 197.509688,44.7797194 L193.795833,38.3398847 L186.529595,40.0030913 C181.103869,41.2449879 175.574962,41.8692746 170.094295,41.8692746 C150.271435,41.8692746 131.711539,34.0893935 117.826291,19.9504677 L110.636433,12.6319578 L103.444566,19.9504677 C89.5546275,34.0893935 70.985352,41.8692746 51.1598112,41.8692746 C45.6824947,41.8692746 40.1589476,41.2449879 34.7318817,40.0057621 L27.4636335,38.3438908" id="Fill-4" fill="#FFFFFF"></path>
                    <path d="M185.630444,52.5823019 C179.858994,53.9036531 173.868451,54.6280928 167.697006,54.6280928 C145.332805,54.6280928 125.130719,45.459424 110.632413,30.6962115 C96.1334373,45.4507441 75.9219719,54.6280928 53.5571003,54.6280928 C47.3923555,54.6280928 41.3991327,53.9036531 35.6323727,52.5849726 C26.5423723,68.3677422 21.330379,86.6436525 21.330379,106.146103 C21.330379,159.251203 59.8886772,203.378593 110.626383,212.241461 C161.366099,203.378593 199.924398,159.251203 199.924398,106.146103 C199.924398,86.6436525 194.721114,68.3650714 185.630444,52.5823019" id="Fill-5" fill="#1E88E5"></path>
                    <path d="M185.630444,52.5823019 C179.858994,53.9036531 173.868451,54.6280928 167.697006,54.6280928 C145.332805,54.6280928 125.130719,45.459424 110.632413,30.6962115 C108.553378,32.8161156 106.333641,34.8071563 104.028813,36.6846902 C113.321826,70.8535384 111.15368,168.36846 109.639461,212.041155 C109.970445,212.105921 110.294729,212.18404 110.626383,212.241461 C161.366099,203.378593 199.924398,159.251203 199.924398,106.146103 C199.924398,86.6436525 194.721114,68.3650714 185.630444,52.5823019" id="Fill-6" fill="#1976D2"></path>
                    <path d="M95.6027909,80.3827577 L125.652656,80.3827577 L125.652656,170.213277 L95.6027909,170.213277 L95.6027909,80.3827577 Z" id="Fill-7" fill="#FFFFFF"></path>
                    <path d="M65.5602961,110.331161 L155.695151,110.331161 L155.695151,140.267545 L65.5602961,140.267545 L65.5602961,110.331161 Z" id="Fill-8" fill="#FFFFFF"></path>
                    <path d="M110.626383,233.73829 L106.958089,233.095308 C45.0292368,222.273448 0.0810709844,168.880575 0.0810709844,106.146103 C0.0810709844,83.6510823 6.00394291,61.4872345 17.209829,42.0428731 L25.0455741,28.4447732 L40.3860804,31.9534649 C44.7397933,32.9483175 49.1739071,33.4510853 53.5571003,33.4510853 C69.4416532,33.4510853 84.3205239,27.2115565 95.4527091,15.8842579 L110.636433,0.429989999 L125.817478,15.888264 C136.942963,27.2115565 151.814463,33.4510853 167.697006,33.4510853 C172.08221,33.4510853 176.515653,32.9483175 180.876066,31.9514618 L196.218583,28.4407671 L204.057678,42.0395346 C215.253514,61.4725454 221.172366,83.6370609 221.172366,106.146103 C221.172366,168.880575 176.2242,222.273448 114.296688,233.095308 L110.626383,233.73829 L110.626383,233.73829 Z M30.8183642,41.6155538 L27.258611,47.7943232 C17.0590771,65.4893464 11.6702017,85.6694981 11.6702017,106.146103 C11.6702017,163.265333 52.5869286,211.864218 108.960073,221.721939 L110.626383,222.01038 L112.294704,221.721939 C168.667848,211.864218 209.584575,163.265333 209.584575,106.146103 C209.584575,85.6501352 204.19704,65.477328 194.005546,47.7943232 L190.443113,41.6115477 L183.468328,43.2066504 C178.263035,44.4004735 172.95523,45.0053973 167.697006,45.0053973 C148.673465,45.0053973 130.859959,37.5313165 117.538187,23.966601 L110.635093,16.9385346 L103.73334,23.966601 C90.4041978,37.5313165 72.5846614,45.0053973 53.5571003,45.0053973 C48.3008865,45.0053973 42.9984421,44.4004735 37.7951589,43.2099888 L30.8183642,41.6155538 L30.8183642,41.6155538 Z" id="Fill-9" fill="#1E88E5"></path>
                </g>
                <path d="M0.272,172.302 L0.272,157.047 L106.379,15.345 C107.509006,13.7629921 108.864992,12.2375073 110.447,10.7685 C112.029008,9.29949266 114.062988,8.565 116.549,8.565 C120.61702,8.565 123.893988,9.46899096 126.38,11.277 L126.38,155.352 L137.906,155.352 C143.330027,155.352 147.171989,156.538488 149.432,158.9115 C151.692011,161.284512 152.822,164.391981 152.822,168.234 C152.822,168.912003 152.765501,169.476998 152.6525,169.929 C152.539499,170.381002 152.483,170.832998 152.483,171.285 L152.483,172.302 L126.38,172.302 L126.38,234 L106.718,234 L106.718,172.302 L0.272,172.302 Z M106.718,155.352 L106.718,43.482 L22.307,155.352 L106.718,155.352 Z M382.392,172.302 L382.392,157.047 L488.499,15.345 C489.629006,13.7629921 490.984992,12.2375073 492.567,10.7685 C494.149008,9.29949266 496.182988,8.565 498.669,8.565 C502.73702,8.565 506.013988,9.46899096 508.5,11.277 L508.5,155.352 L520.026,155.352 C525.450027,155.352 529.291989,156.538488 531.552,158.9115 C533.812011,161.284512 534.942,164.391981 534.942,168.234 C534.942,168.912003 534.885501,169.476998 534.7725,169.929 C534.659499,170.381002 534.603,170.832998 534.603,171.285 L534.603,172.302 L508.5,172.302 L508.5,234 L488.838,234 L488.838,172.302 L382.392,172.302 Z M488.838,155.352 L488.838,43.482 L404.427,155.352 L488.838,155.352 Z" fill="#FFFFFF" filter="url(#filter-1)" sketch:type="MSShapeGroup"></path>
            </g>
        </g>
    </g>
</svg>