<svg width="44" height="36" viewBox="0 0 44 36" xmlns="http://www.w3.org/2000/svg"><title>btn_twitter</title><path d="M29.976 0c-4.906 0-8.883 4.014-8.883 8.965 0 .703.08 1.387.23 2.043-7.382-.374-13.928-3.943-18.31-9.367-.763 1.325-1.2 2.865-1.2 4.508 0 3.11 1.567 5.855 3.95 7.462-1.456-.046-2.826-.45-4.023-1.12v.112c0 4.344 3.06 7.967 7.125 8.79-.746.206-1.53.315-2.34.315-.573 0-1.13-.056-1.672-.16 1.13 3.56 4.41 6.153 8.298 6.226-3.04 2.404-6.87 3.838-11.03 3.838-.718 0-1.425-.042-2.12-.125 3.93 2.544 8.6 4.028 13.617 4.028 16.34 0 25.273-13.66 25.273-25.508 0-.39-.008-.776-.025-1.16 1.735-1.264 3.24-2.843 4.432-4.64-1.593.712-3.305 1.194-5.102 1.41C40.03 4.506 41.438 2.75 42.1.656c-1.715 1.028-3.616 1.774-5.64 2.176C34.84 1.09 32.53 0 29.976 0" fill="#5E9FCB" fill-rule="evenodd"/></svg>