<svg width="32" height="48" viewBox="0 0 32 48" xmlns="http://www.w3.org/2000/svg"><title>btn_google</title><path d="M25.16 27.107l-2.303-1.745c-.7-.564-1.66-1.314-1.66-2.686 0-1.375.96-2.253 1.79-3.064 2.68-2.058 5.362-4.248 5.362-8.87 0-4.75-2.91-7.042-4.378-8.23h3.784L31.89.003 18.58 0c-3.452 0-8.104.354-11.744 3.29-2.744 2.31-3.644 5.704-3.644 8.578 0 4.87 3.832 9.805 10.6 9.805.64 0 1.338-.062 2.043-.123-.318.75-.64 1.375-.64 2.436 0 1.935 1.022 3.12 1.917 4.246-2.872.19-8.24.5-12.194 2.874C1.146 33.296 0 36.478 0 38.728c0 4.625 4.286 8.98 13.546 8.98 10.98 0 16.975-5.98 16.975-11.85 0-4.313-2.552-6.438-5.36-8.75zm-8.366-7.024c-5.492 0-7.983-6.935-7.983-11.12 0-1.625.32-3.466 1.404-4.78 1.025-1.25 2.81-1.905 4.473-1.905 5.298 0 8.043 6.997 8.043 11.495 0 1.125-.127 2.964-1.595 4.404-1.025 1-2.745 1.906-4.34 1.906zm.055 24.958c-6.832 0-11.24-3.186-11.24-7.622 0-4.437 4.087-5.934 5.49-6.434 2.683-.875 6.133-1 6.71-1 .635 0 .954 0 1.463.063 4.857 3.375 6.964 5.056 6.964 8.248 0 3.867-3.26 6.746-9.388 6.746z" fill="#FFF" fill-rule="evenodd"/></svg>