<svg width="206" height="60" viewBox="0 0 206 60" xmlns="http://www.w3.org/2000/svg"><title>bttn_googleplay_hover</title><g fill="none" fill-rule="evenodd"><rect fill="#FFF" width="206" height="60" rx="12"/><path d="M136.43 35.915l-1.374 1.314c-.318.176-.633.382-.948.527-.955.44-1.925.55-2.788.55-.918 0-2.357-.06-3.824-1.137-2.04-1.456-2.93-3.96-2.93-6.14 0-4.515 3.625-6.73 6.583-6.73 1.033 0 2.094.262 2.958.816 1.435.962 1.806 2.213 2.012 2.882l-6.754 2.767-2.212.174c.716 3.702 3.187 5.855 5.917 5.855 1.365 0 2.378-.45 3.306-.917 0 0 .187-.098.054.037zm-4.075-7.365c.55-.202.834-.376.834-.782 0-1.164-1.3-2.507-2.85-2.507-1.147 0-3.302.907-3.302 4.054 0 .49.058 1.014.087 1.537l5.23-2.3zm-10.047 7.14c0 1.13.2 1.307 1.143 1.396.494.06.984.084 1.47.143l-1.063.64h-5.064c.665-.873.78-.96.78-1.542v-.65l-.012-17.317h-2.235l2.152-1.05h4.11c-.892.523-1.158.84-1.272 1.86l-.007 16.52zm-7.852-9.96c.66.55 2.036 1.716 2.036 3.93 0 2.156-1.2 3.173-2.41 4.135-.37.38-.805.79-.805 1.425 0 .645.435.994.747 1.255l1.038.812c1.262 1.08 2.412 2.07 2.412 4.08 0 2.74-2.616 5.503-7.558 5.503-4.163 0-6.176-2.01-6.176-4.165 0-1.05.515-2.534 2.214-3.552 1.782-1.104 4.194-1.25 5.487-1.338-.403-.528-.863-1.08-.863-1.984 0-.493.146-.787.287-1.134-.314.03-.63.06-.918.06-3.047 0-4.77-2.303-4.77-4.574 0-1.34.603-2.826 1.84-3.903 1.64-1.368 3.592-1.604 5.144-1.604h5.92l-1.84 1.053h-1.784zm-2.036 12.93c-.236-.032-.377-.032-.662-.032-.26 0-1.812.057-3.014.466-.636.236-2.475.932-2.475 3 0 2.066 1.984 3.555 5.054 3.555 2.76 0 4.223-1.342 4.223-3.146 0-1.486-.947-2.27-3.127-3.845zm.826-5.535c.664-.672.722-1.6.722-2.128 0-2.095-1.232-5.357-3.62-5.357-.745 0-1.552.378-2.01.964-.487.607-.632 1.394-.632 2.15 0 1.952 1.122 5.187 3.59 5.187.72 0 1.495-.354 1.95-.815zm-16.603 5.122c-4.567 0-7.01-3.605-7.01-6.87 0-3.814 3.07-7.077 7.44-7.077 4.224 0 6.87 3.352 6.87 6.872 0 3.438-2.615 7.075-7.3 7.075zm3.593-2.356c.694-.932.863-2.095.863-3.23 0-2.564-1.207-7.456-4.77-7.456-.947 0-1.902.375-2.59.988-1.122 1.02-1.322 2.3-1.322 3.557 0 2.876 1.403 7.622 4.885 7.622 1.124 0 2.27-.55 2.933-1.48zm-18.883 2.357c-4.568 0-7.007-3.605-7.007-6.87 0-3.814 3.072-7.077 7.44-7.077 4.22 0 6.864 3.352 6.864 6.872 0 3.438-2.61 7.075-7.297 7.075zm3.593-2.356c.69-.932.862-2.095.862-3.23 0-2.564-1.21-7.456-4.77-7.456-.95 0-1.894.375-2.584.988-1.123 1.02-1.323 2.3-1.323 3.557 0 2.876 1.41 7.622 4.887 7.622 1.12 0 2.266-.55 2.93-1.48zM72.52 37.237l-3.852.894c-1.56.25-2.962.47-4.446.47-7.43 0-10.26-5.545-10.26-9.884 0-5.298 4.01-10.21 10.88-10.21 1.453 0 2.85.216 4.124.568 2.02.575 2.963 1.283 3.553 1.7l-2.238 2.153-.944.214.673-1.086c-.91-.902-2.585-2.567-5.763-2.567-4.25 0-7.455 3.275-7.455 8.056 0 5.134 3.66 9.964 9.53 9.964 1.726 0 2.614-.35 3.42-.68v-4.4l-4.067.22 2.156-1.173h5.708l-.698.68c-.188.163-.213.22-.266.436-.028.25-.055 1.04-.055 1.317v3.33zm72.192-1.197v7.417h-1.454V24.58h1.454v2.15c.946-1.39 2.676-2.49 4.686-2.49 3.604 0 6.03 2.77 6.03 7.158 0 4.358-2.426 7.187-6.03 7.187-1.897 0-3.597-.992-4.686-2.546zm9.156-4.642c0-3.306-1.7-5.828-4.715-5.828-1.873 0-3.663 1.49-4.44 2.792v6.042c.777 1.304 2.567 2.85 4.44 2.85 3.014 0 4.715-2.544 4.715-5.856zm3.546-12.03h1.452v18.877h-1.452V19.368zm17.76 22.87c.31.14.84.226 1.177.226.89 0 1.51-.37 2.065-1.67l1.06-2.435-5.725-13.78h1.62l4.912 11.94 4.863-11.94h1.644l-6.983 16.67c-.725 1.718-1.865 2.544-3.43 2.544-.47 0-1.09-.085-1.453-.198l.25-1.36zm-4.245-4.034c-.098-.473-.172-.89-.225-1.24-.045-.348-.07-.703-.07-1.065-.498.74-1.204 1.358-2.106 1.844-.903.49-1.76.73-2.936.73-1.416 0-2.515-.354-3.3-1.07-.78-.716-1.174-1.685-1.174-2.912 0-1.224.57-2.22 1.705-2.98 1.136-.763 2.604-1.143 4.42-1.143h3.39V28.67c0-.978-.33-1.747-.985-2.305-.66-.558-1.584-.84-2.782-.84-1.096 0-1.985.258-2.662.76-.67.513-1.01 1.148-1.01 1.913h-1.486l-.03-.073c-.055-1.032.41-1.938 1.4-2.72.987-.78 2.28-1.173 3.868-1.173 1.585 0 2.867.386 3.833 1.158.967.764 1.45 1.868 1.45 3.31v6.74c0 .486.024.953.084 1.41.06.456.16.91.29 1.352h-1.675zm-5.158-1.073c1.234 0 2.12-.28 3.028-.832.9-.55 1.514-1.267 1.835-2.135V31.54h-3.406c-1.302 0-2.38.29-3.226.88-.85.586-1.28 1.296-1.28 2.122 0 .78.274 1.403.815 1.875.543.477 1.285.714 2.232.714zM18.737 43.398c-.467-.126-.772-.59-.772-1.31V18.32c0-.667.258-1.116.667-1.28l11.656 13.245-11.55 13.113zm1.605-.504l14.03-7.968-3.417-3.883-10.613 11.85zM34.47 25.538l-13.836-7.86 10.342 11.826 3.494-3.966zm.938.533l5.42 3.08c1.026.582 1.036 1.522 0 2.11l-5.557 3.156-3.623-4.145 3.76-4.2z" fill="#1976D2"/></g></svg>