<svg width="206" height="60" viewBox="0 0 206 60" xmlns="http://www.w3.org/2000/svg"><title>bttn_appstore_hover</title><g fill="none" fill-rule="evenodd"><rect fill="#FFF" width="206" height="60" rx="12"/><path d="M37.953 19.5c3.883 0 6.367 3.764 6.367 3.764s-3.79 2.06-3.79 6.533c0 5.31 4.76 6.854 4.76 6.854s-3.756 8.93-7.974 8.93c-2.372 0-2.53-1.366-5.682-1.366-2.737 0-3.66 1.367-5.746 1.367-3.98 0-9.12-8.704-9.12-15.783 0-7.354 5.205-10.298 8.467-10.298 2.866 0 4.06 1.688 6.367 1.688 1.942 0 3.47-1.69 6.35-1.69zm-.668-7.5c.572 3.604-2.69 8.062-6.59 7.917-.573-4.586 3.63-7.675 6.59-7.917zm29.44 9.377L59.712 39.43h2.45l2.018-5.437h7.62l1.968 5.436h2.65l-7.04-18.053h-2.65zm-1.79 10.593l3.053-8.42h.05l3.003 8.42h-6.105zm12.97-5.612v18.05h2.144v-6.724h.05c.235.388.526.712.87.974.345.26.71.467 1.098.62.387.15.778.26 1.174.328.395.067.752.1 1.072.1.992 0 1.863-.176 2.612-.53.748-.354 1.37-.84 1.867-1.454.496-.615.866-1.336 1.11-2.162.244-.825.366-1.702.366-2.63 0-.926-.127-1.802-.38-2.628-.252-.826-.626-1.555-1.122-2.187-.497-.632-1.12-1.134-1.868-1.505-.748-.37-1.627-.556-2.637-.556-.908 0-1.74.165-2.498.493-.757.33-1.312.856-1.665 1.58h-.05v-1.77h-2.145zm10.093 6.42c0 .642-.067 1.266-.202 1.872-.134.607-.353 1.146-.656 1.618-.303.472-.702.852-1.2 1.138-.495.287-1.113.43-1.853.43s-1.37-.14-1.893-.417c-.52-.28-.946-.646-1.274-1.1-.328-.456-.568-.983-.72-1.58-.15-.6-.226-1.22-.226-1.86 0-.606.07-1.205.214-1.795.143-.59.375-1.116.694-1.58.32-.463.732-.838 1.237-1.125.503-.286 1.117-.43 1.84-.43.69 0 1.292.135 1.805.405.513.27.934.632 1.262 1.087.328.455.57.973.73 1.555.16.582.24 1.176.24 1.782zm4.87-6.42v18.05h2.145v-6.724h.05c.236.388.526.712.87.974.346.26.712.467 1.1.62.386.15.777.26 1.172.328.395.067.753.1 1.072.1.993 0 1.863-.176 2.612-.53.748-.354 1.37-.84 1.866-1.454.497-.615.867-1.336 1.11-2.162.245-.825.367-1.702.367-2.63 0-.926-.127-1.802-.38-2.628-.25-.826-.626-1.555-1.122-2.187-.495-.632-1.118-1.134-1.866-1.505-.75-.37-1.628-.556-2.637-.556-.908 0-1.74.165-2.498.493-.758.33-1.313.856-1.667 1.58h-.05v-1.77h-2.145zm10.094 6.42c0 .642-.068 1.266-.202 1.872-.135.607-.354 1.146-.656 1.618-.303.472-.703.852-1.2 1.138-.495.287-1.114.43-1.854.43s-1.37-.14-1.892-.417c-.522-.28-.946-.646-1.274-1.1-.33-.456-.568-.983-.72-1.58-.15-.6-.227-1.22-.227-1.86 0-.606.072-1.205.215-1.795.143-.59.374-1.116.694-1.58.32-.463.73-.838 1.236-1.125.505-.286 1.12-.43 1.842-.43.69 0 1.29.135 1.804.405.513.27.934.632 1.262 1.087.328.455.572.973.732 1.555.16.582.24 1.176.24 1.782zm22.584-6.117h2.27c-.033-.993-.222-1.85-.567-2.565-.346-.716-.817-1.31-1.414-1.783-.598-.47-1.29-.817-2.082-1.036-.79-.22-1.65-.33-2.574-.33-.824 0-1.627.107-2.41.317-.782.21-1.48.53-2.094.96-.614.43-1.106.98-1.476 1.644-.37.666-.555 1.454-.555 2.364 0 .827.164 1.514.492 2.062.328.548.765.994 1.312 1.34.546.345 1.164.623 1.853.834.69.21 1.393.396 2.107.556.715.16 1.418.316 2.107.468.69.152 1.308.35 1.855.594.547.245.984.56 1.312.948.328.388.492.894.492 1.517 0 .657-.134 1.196-.403 1.617-.27.422-.623.755-1.06 1-.438.243-.93.416-1.476.517-.547.1-1.09.152-1.628.152-.674 0-1.33-.084-1.97-.253-.638-.168-1.198-.43-1.677-.784-.48-.355-.867-.805-1.16-1.353-.295-.548-.442-1.2-.442-1.96h-2.27c0 1.096.197 2.044.592 2.845.396.8.934 1.458 1.615 1.972.682.514 1.472.897 2.372 1.15.9.253 1.854.38 2.863.38.825 0 1.653-.098 2.486-.292.832-.193 1.584-.505 2.257-.935.673-.43 1.224-.986 1.653-1.67.43-.68.644-1.503.644-2.464 0-.893-.164-1.635-.493-2.225-.327-.59-.764-1.078-1.31-1.466-.547-.388-1.166-.695-1.855-.923-.69-.228-1.392-.426-2.107-.595-.715-.168-1.418-.324-2.107-.468-.69-.143-1.307-.324-1.854-.543-.547-.22-.984-.502-1.312-.847-.328-.346-.492-.797-.492-1.353 0-.59.113-1.083.34-1.48.228-.395.53-.71.91-.947.377-.236.81-.404 1.298-.506.488-.1.985-.15 1.49-.15 1.244 0 2.266.29 3.065.872.8.582 1.266 1.52 1.4 2.82zm8.554-.302v-3.92h-2.145v3.92h-2.22v1.896h2.22v8.318c0 .607.06 1.095.176 1.466.12.37.3.658.544.86.244.202.564.34.96.417.394.076.87.114 1.425.114h1.64v-1.897h-.985c-.337 0-.61-.013-.82-.038-.21-.026-.375-.08-.493-.165-.117-.084-.197-.202-.24-.354-.04-.15-.062-.354-.062-.606v-8.116h2.6v-1.896h-2.6zm4.264 6.548c0 .96.135 1.854.404 2.68.27.826.673 1.546 1.21 2.16.54.617 1.204 1.097 1.995 1.443.79.344 1.7.517 2.725.517 1.043 0 1.955-.173 2.738-.518.782-.347 1.442-.827 1.98-1.443.54-.615.942-1.335 1.212-2.16.27-.827.403-1.72.403-2.68 0-.962-.133-1.86-.402-2.694-.27-.834-.673-1.56-1.212-2.174-.538-.616-1.198-1.1-1.98-1.455-.783-.354-1.695-.53-2.738-.53-1.026 0-1.935.176-2.725.53-.79.354-1.456.84-1.994 1.454-.54.614-.943 1.34-1.212 2.173-.27.835-.404 1.732-.404 2.693zm2.27 0c0-.792.106-1.496.317-2.11.21-.616.5-1.135.87-1.556.37-.422.804-.742 1.3-.96.497-.22 1.023-.33 1.578-.33.555 0 1.08.11 1.577.33.496.218.93.538 1.3.96.37.42.66.94.87 1.555.21.615.315 1.32.315 2.11 0 .793-.105 1.497-.315 2.112-.21.615-.5 1.13-.87 1.542-.37.412-.804.728-1.3.947-.496.22-1.022.33-1.577.33-.555 0-1.08-.11-1.577-.33-.496-.22-.93-.535-1.3-.948-.37-.414-.66-.928-.87-1.543-.21-.615-.315-1.32-.315-2.11zm12.845-6.548v13.07h2.144v-5.814c0-.843.084-1.59.252-2.238.168-.65.438-1.2.808-1.656.37-.455.858-.8 1.463-1.036.606-.236 1.338-.354 2.196-.354v-2.276c-1.16-.033-2.12.203-2.877.708-.757.506-1.396 1.29-1.918 2.35h-.05V26.36h-2.02zm19.15 8.924h-2.118c-.185.86-.568 1.5-1.148 1.922-.58.42-1.325.632-2.234.632-.706 0-1.32-.118-1.842-.354-.52-.236-.95-.552-1.287-.948-.335-.396-.58-.85-.73-1.365-.152-.515-.22-1.06-.202-1.632h9.765c.034-.792-.038-1.627-.214-2.503-.178-.877-.498-1.686-.96-2.427-.463-.742-1.077-1.353-1.842-1.833-.766-.48-1.73-.72-2.89-.72-.89 0-1.71.168-2.46.505-.748.337-1.396.81-1.943 1.416-.547.607-.97 1.323-1.274 2.15-.302.825-.453 1.735-.453 2.73.033.994.18 1.912.44 2.755.262.844.653 1.57 1.175 2.175.52.607 1.165 1.08 1.93 1.416.765.338 1.67.507 2.713.507 1.48 0 2.708-.37 3.684-1.113.974-.74 1.605-1.845 1.89-3.312zm-2.068-3.64h-7.494c.033-.506.143-.982.328-1.43.185-.445.437-.837.757-1.174.32-.337.702-.603 1.148-.797.447-.193.947-.29 1.502-.29.54 0 1.03.097 1.476.29.446.195.833.456 1.16.785.33.33.59.72.783 1.176.195.456.308.936.342 1.442z" fill="#1976D2"/></g></svg>