<svg width="45" height="46" viewBox="0 0 45 46" xmlns="http://www.w3.org/2000/svg"><title>Mal</title><g fill="none" fill-rule="evenodd"><path d="M.957 22.98c0 11.913 9.692 21.605 21.605 21.605s21.605-9.692 21.605-21.605c0-11.912-9.692-21.604-21.605-21.604S.957 11.068.957 22.98z" fill="#DC1105"/><path d="M22.562 1.376v43.21c11.913 0 21.605-9.693 21.605-21.606 0-11.912-9.692-21.604-21.605-21.604" fill="#C81204"/><path d="M22.562 45.4C10.2 45.4.142 35.344.142 22.98.142 10.618 10.2.56 22.562.56c12.362 0 22.42 10.058 22.42 22.42 0 12.363-10.058 22.42-22.42 22.42zm0-42.544c-11.096 0-20.124 9.028-20.124 20.124 0 11.097 9.028 20.125 20.124 20.125 11.096 0 20.124-9.028 20.124-20.125 0-11.096-9.028-20.124-20.124-20.124z" fill="#FFF"/><path d="M34.454 32.696c-3.177-3.177-7.4-4.93-11.892-4.93-4.493 0-8.718 1.753-11.894 4.93-.54.54-.702 1.354-.41 2.06.293.704.983 1.167 1.747 1.167H33.12c.763 0 1.455-.463 1.746-1.17.29-.703.13-1.518-.412-2.057M30.317 21.527c1.034 0 1.876-.84 1.876-1.877v-.842l-3.75-2.022v2.864c0 1.036.84 1.877 1.874 1.877M14.807 21.527c1.033 0 1.873-.84 1.873-1.877v-2.864c0-.395-.122-.76-.33-1.058L12.933 17.7v1.95c0 1.036.838 1.877 1.875 1.877" fill="#797979"/></g></svg>