<svg width="20" height="24" viewBox="0 0 20 24" xmlns="http://www.w3.org/2000/svg"><title>icon_android</title><g fill="none" fill-rule="evenodd"><path d="M3.84 17.28c0 .528.432.96.96.96h.96v3.36c0 .797.643 1.44 1.44 1.44.797 0 1.44-.643 1.44-1.44v-3.36h1.92v3.36c0 .797.643 1.44 1.44 1.44.797 0 1.44-.643 1.44-1.44v-3.36h.96c.528 0 .96-.432.96-.96v-9.6H3.84v9.6zm-2.4-9.6C.643 7.68 0 8.323 0 9.12v6.72c0 .797.643 1.44 1.44 1.44.797 0 1.44-.643 1.44-1.44V9.12c0-.797-.643-1.44-1.44-1.44zm16.32 0c-.797 0-1.44.643-1.44 1.44v6.72c0 .797.643 1.44 1.44 1.44.797 0 1.44-.643 1.44-1.44V9.12c0-.797-.643-1.44-1.44-1.44zm-4.77-5.606L14.236.826c.192-.192.192-.49 0-.682-.192-.192-.49-.192-.682 0l-1.42 1.42C11.374 1.182 10.51.96 9.6.96c-.922 0-1.786.22-2.554.605L5.616.145c-.192-.193-.49-.193-.682 0-.192.19-.192.49 0 .68l1.258 1.258C4.772 3.13 3.84 4.81 3.84 6.72h11.52c0-1.91-.93-3.6-2.37-4.646zM6.72 3.84h.96v.96h-.96v-.96zm4.8 0h.96v.96h-.96v-.96z" fill="#A4C639"/><path d="M-2 0h24v24H-2z"/></g></svg>