<svg width="64" height="54" viewBox="0 0 64 54" xmlns="http://www.w3.org/2000/svg"><title>icon_emergency_selected</title><path d="M28.796 12.847h4.908V0h-4.908v12.847zm22.046 19.67l12.592-2.544-.97-4.806L49.87 27.71l.972 4.807zm4.742-21.42l-3.47-3.468-9.084 9.083 3.47 3.468 9.084-9.083zM13.564 27.71L.968 25.168 0 29.973l12.59 2.544.973-4.806zm34.583 17.474l-4.35-23.662c-.468-2.564-3.255-4.49-6.255-4.49H27.445c-3.002 0-5.783 1.926-6.25 4.49L16.84 45.184c-.03.17-.025.328-.045 2.448H10.88v5.53h43.227v-5.53h-5.915c-.02-2.12-.013-2.278-.045-2.448zm-16.25-.213V20.518h4.51c2.327 0 4.488 1.49 4.852 3.48l3.374 18.352c.027.134.02.267.034 2.62h-12.77zM20.403 16.714L11.318 7.63 7.85 11.096l9.083 9.084 3.47-3.467z" fill="#FFF" fill-rule="evenodd"/></svg>