<svg width="241" height="241" viewBox="0 0 241 241" xmlns="http://www.w3.org/2000/svg"><title>icon_good</title><g fill="none" fill-rule="evenodd"><path d="M120.317 6.357C59.43 6.357 9.89 55.893 9.89 116.78c0 60.89 49.54 110.428 110.427 110.428 60.888 0 110.423-49.538 110.423-110.427 0-60.887-49.535-110.423-110.423-110.423" fill="#C4D11C"/><path d="M120.317 6.357v220.85c60.888 0 110.423-49.537 110.423-110.426 0-60.887-49.535-110.423-110.423-110.423" fill="#BBBF10"/><path d="M120.317 231.373c-63.186 0-114.592-51.405-114.592-114.592C5.725 53.596 57.13 2.19 120.317 2.19c63.185 0 114.59 51.405 114.59 114.59 0 63.188-51.405 114.593-114.59 114.593zm0-217.448C63.6 13.925 17.46 60.065 17.46 116.78c0 56.717 46.14 102.86 102.857 102.86 56.714 0 102.855-46.143 102.855-102.86 0-56.714-46.14-102.855-102.855-102.855z" fill="#FFF"/><path d="M120.318 187.38c-22.8 0-44.235-8.878-60.357-25-2.743-2.742-3.565-6.87-2.08-10.454 1.488-3.584 4.985-5.923 8.866-5.923h107.146c3.88 0 7.376 2.34 8.858 5.92 1.488 3.588.667 7.715-2.08 10.455-16.12 16.124-37.554 25-60.352 25M169.185 99.89c0 5.256-4.258 9.516-9.51 9.516-5.253 0-9.514-4.26-9.514-9.516V85.352c0-5.254 4.262-9.512 9.516-9.512 5.25 0 9.51 4.258 9.51 9.512V99.89M90.47 99.89c0 5.256-4.257 9.516-9.513 9.516-5.252 0-9.51-4.26-9.51-9.516V85.352c0-5.254 4.258-9.512 9.51-9.512 5.256 0 9.514 4.258 9.514 9.512V99.89" fill="#797979"/></g></svg>