<svg width="34" height="34" viewBox="0 0 34 34" xmlns="http://www.w3.org/2000/svg"><title>Fill 10 Copy</title><path d="M24.747 21.037L32.9 29.21c.127.145.19.308.19.49 0 .18-.063.345-.19.49l-2.962 2.97c-.146.126-.308.19-.49.19-.18 0-.344-.064-.49-.19l-8.153-8.173c-2.156 1.416-4.52 2.125-7.094 2.125-3.624 0-6.722-1.29-9.294-3.87-2.573-2.577-3.86-5.683-3.86-9.315 0-3.632 1.287-6.738 3.86-9.317C6.988 2.03 10.086.742 13.71.742s6.724 1.29 9.298 3.868c2.572 2.58 3.86 5.685 3.86 9.317 0 2.58-.708 4.95-2.12 7.11 0 0 1.412-2.16 0 0zM7.35 7.58c-1.757 1.76-2.635 3.877-2.635 6.347 0 2.47.878 4.585 2.636 6.347 1.76 1.762 3.88 2.642 6.36 2.642 2.484 0 4.6-.875 6.348-2.628 1.748-1.753 2.623-3.873 2.623-6.36 0-2.49-.874-4.61-2.622-6.362-1.75-1.753-3.864-2.63-6.347-2.63-2.48 0-4.6.882-6.36 2.644z" fill="#1E88E5" fill-rule="evenodd"/></svg>