<svg width="34" height="34" viewBox="0 0 34 34" xmlns="http://www.w3.org/2000/svg"><title>calendar</title><g fill="none" fill-rule="evenodd"><rect fill="#1E88E5" width="34" height="34" rx="3"/><path d="M7.882 12V9.5c0-.233.08-.43.24-.592.16-.16.357-.24.59-.24h2.486V7h1.658v1.667h8.288V7h1.658v1.667h2.487c.23 0 .428.08.587.24.16.162.24.36.24.593V12H7.883zm18.236 1.667v12.5c0 .222-.08.416-.24.582-.16.167-.357.25-.59.25H8.712c-.23 0-.427-.083-.587-.25-.16-.167-.24-.36-.24-.583v-12.5h18.235zm-16.578 5h1.658V17H9.54v1.667zm0 3.333h1.658v-1.667H9.54V22zm0 3.333h1.658v-1.666H9.54v1.666zm3.316-6.666h1.657V17h-1.657v1.667zm0 3.333h1.657v-1.667h-1.657V22zm0 3.333h1.657v-1.666h-1.657v1.666zm3.315-6.666h1.66V17h-1.66v1.667zm0 3.333h1.66v-1.667h-1.66V22zm0 3.333h1.66v-1.666h-1.66v1.666zm3.317-6.666h1.657V17h-1.657v1.667zm0 3.333h1.657v-1.667h-1.657V22zm0 3.333h1.657v-1.666h-1.657v1.666zm3.315-6.666h1.658V17h-1.658v1.667zm0 3.333h1.658v-1.667h-1.658V22zm0 3.333h1.658v-1.666h-1.658v1.666z" fill="#FFF"/></g></svg>