<svg width="80" height="80" viewBox="0 0 80 80" xmlns="http://www.w3.org/2000/svg"><title>icon_histograma</title><g fill="none" fill-rule="evenodd"><path d="M40 0c7.237 0 13.925 1.787 20.067 5.36 6.14 3.574 11 8.43 14.572 14.573C78.21 26.075 80 32.763 80 40s-1.788 13.926-5.36 20.067c-3.573 6.142-8.433 11-14.573 14.572C53.925 78.212 47.237 80 40 80s-13.926-1.787-20.068-5.36c-6.14-3.573-11-8.43-14.57-14.573C1.786 53.927 0 47.237 0 40s1.787-13.925 5.36-20.067c3.573-6.142 8.43-11 14.572-14.572C26.074 1.788 32.762 0 40 0zM26 36.667h6.667V60H26V36.667zM33.333 60H40V20h-6.667v40zm7.334 0h6.666V28.19h-6.666V60zM48 60h6.667V40H48v20z" fill="#1E88E5"/><path d="M19.172 18v44.454h44.16" stroke="#FFF" stroke-width="2"/></g></svg>