<svg width="15" height="14" viewBox="0 0 15 14" xmlns="http://www.w3.org/2000/svg"><title>icon_healthdiary</title><path d="M1.25 0h12.5c.342 0 .635.123.882.37.245.245.368.538.368.88V2.5c0 .342-.123.636-.368.88-.247.247-.54.37-.882.37H1.25c-.342 0-.635-.123-.88-.37C.122 3.137 0 2.843 0 2.5V1.25C0 .908.123.615.37.37.614.122.907 0 1.25 0zm0 5h12.5c.342 0 .635.123.882.37.245.245.368.538.368.88V7.5c0 .342-.123.636-.368.88-.247.247-.54.37-.882.37H1.25c-.342 0-.635-.123-.88-.37C.122 8.137 0 7.843 0 7.5V6.25c0-.342.123-.635.37-.88.245-.247.538-.37.88-.37zm0 5h12.5c.342 0 .635.123.882.37.245.244.368.538.368.88v1.25c0 .342-.123.635-.368.88-.247.247-.54.37-.882.37H1.25c-.342 0-.635-.123-.88-.37-.247-.245-.37-.538-.37-.88v-1.25c0-.342.123-.636.37-.88.245-.247.538-.37.88-.37zM7.5 7.5h6.25V6.25H7.5V7.5zm2.5 5h3.75v-1.25H10v1.25zm1.25-10h2.5V1.25h-2.5V2.5z" fill="#FFF" fill-rule="evenodd"/></svg>