<svg width="241" height="242" viewBox="0 0 241 242" xmlns="http://www.w3.org/2000/svg"><title>icon_bad</title><g fill="none" fill-rule="evenodd"><path d="M9.89 116.9c0 60.89 49.54 110.426 110.427 110.426 60.888 0 110.423-49.537 110.423-110.427 0-60.888-49.535-110.424-110.423-110.424C59.43 6.476 9.89 56.012 9.89 116.9z" fill="#DC1105"/><path d="M120.317 6.476v220.85c60.888 0 110.423-49.537 110.423-110.427 0-60.888-49.535-110.424-110.423-110.424" fill="#C81204"/><path d="M120.317 231.492C57.13 231.492 5.725 180.086 5.725 116.9S57.13 2.31 120.317 2.31c63.185 0 114.59 51.404 114.59 114.59s-51.405 114.592-114.59 114.592zm0-217.448C63.6 14.044 17.46 60.184 17.46 116.9c0 56.716 46.14 102.858 102.857 102.858 56.714 0 102.855-46.142 102.855-102.858 0-56.715-46.14-102.856-102.855-102.856z" fill="#FFF"/><path d="M181.1 166.555c-16.237-16.236-37.826-25.19-60.786-25.19s-44.555 8.954-60.79 25.19c-2.758 2.767-3.586 6.925-2.094 10.525 1.497 3.605 5.02 5.97 8.93 5.97h107.92c3.9 0 7.434-2.365 8.923-5.977 1.49-3.593.663-7.76-2.104-10.518M159.955 109.47c5.284 0 9.587-4.295 9.587-9.59v-4.305L150.376 85.24v14.64c0 5.295 4.292 9.59 9.58 9.59M80.678 109.47c5.283 0 9.578-4.295 9.578-9.59V85.24c0-2.018-.628-3.882-1.682-5.41L71.098 89.91v9.97c0 5.295 4.284 9.59 9.58 9.59" fill="#797979"/></g></svg>