<svg width="45" height="46" viewBox="0 0 45 46" xmlns="http://www.w3.org/2000/svg"><title>Bem</title><g fill="none" fill-rule="evenodd"><path d="M22.537 1.35c-11.9 0-21.58 9.683-21.58 21.583 0 11.9 9.68 21.58 21.58 21.58 11.9 0 21.58-9.68 21.58-21.58 0-11.9-9.68-21.582-21.58-21.582" fill="#F8E71C"/><path d="M22.537 1.35v43.164c11.9 0 21.58-9.68 21.58-21.58 0-11.9-9.68-21.583-21.58-21.583" fill="#E0D433"/><path d="M22.537 45.328C10.187 45.328.142 35.282.142 22.933.142 10.583 10.188.537 22.537.537c12.35 0 22.396 10.047 22.396 22.396 0 12.35-10.047 22.395-22.396 22.395zm0-42.497c-11.084 0-20.102 9.018-20.102 20.103 0 11.084 9.018 20.102 20.102 20.102 11.085 0 20.102-9.018 20.102-20.102 0-11.085-9.018-20.102-20.103-20.102z" fill="#FFF"/><path d="M22.537 36.73c-4.455 0-8.645-1.735-11.795-4.885-.537-.537-.697-1.343-.407-2.044.29-.7.974-1.156 1.733-1.156h20.94c.758 0 1.442.457 1.73 1.157.292.702.132 1.508-.405 2.044-3.15 3.15-7.34 4.886-11.796 4.886M32.088 19.63c0 1.03-.832 1.86-1.858 1.86-1.027 0-1.86-.83-1.86-1.86v-2.84c0-1.027.833-1.86 1.86-1.86 1.026 0 1.858.833 1.858 1.86v2.84M16.704 19.63c0 1.03-.832 1.86-1.86 1.86-1.025 0-1.858-.83-1.858-1.86v-2.84c0-1.027.833-1.86 1.86-1.86 1.026 0 1.858.833 1.858 1.86v2.84" fill="#797979"/></g></svg>