<svg width="110" height="98" viewBox="0 0 110 98" xmlns="http://www.w3.org/2000/svg"><title>icon_thankyou</title><path d="M92.603 38.35c-2.475 0-4.482 2.008-4.482 4.477V86.59c0 1.01-.82 1.826-1.823 1.826H11.18c-1 0-1.817-.817-1.817-1.827V11.367c0-1.014.818-1.838 1.818-1.838h63.487c2.477 0 4.477-1.998 4.477-4.476 0-2.472-2-4.476-4.477-4.476H11.18C5.243.578.41 5.418.41 11.368v75.22c0 5.947 4.834 10.797 10.773 10.797h75.117c5.943 0 10.784-4.85 10.784-10.796V42.826c0-2.47-2.006-4.477-4.477-4.477zM101.446.414c-1.124.68-2.25 1.393-3.328 2.11-.775.505-1.53 1.026-2.252 1.54l-.78.548c-.493.35-.984.694-1.466 1.05l-2.208 1.626-2.163 1.686c-1.42 1.128-2.832 2.287-4.2 3.438-5.135 4.322-10.29 9.123-15.77 14.67C64.52 31.91 59.65 37.2 54.8 42.78c-1.26 1.456-2.508 2.906-3.73 4.37l-1.14 1.355-2.86-2.49c-.494-.434-1.01-.863-1.52-1.28-.27-.216-3.165-2.61-3.165-2.61-1.388-1.16-2.94-2.402-4.718-3.8l-1.067-.836c-1.222-.955-2.473-1.947-3.74-2.893l-2.463-1.854c-.502-.398-1.03-.783-1.56-1.155-.296-.22-.575-.425-.853-.628l-2.495-1.8s-.97-.694-1.235-.88l-9.103 10.61c.165.184.885 1.003.885 1.003l1.877 2.148.607.713c.443.497.87.98 1.276 1.492l1.843 2.2c.99 1.17 1.97 2.398 2.922 3.58l.724.9c1.427 1.76 2.572 3.21 3.597 4.558l1.752 2.29c.23.29.45.59.673.886.37.47.736.937 1.074 1.408l3.383 4.647c.208.303.42.59.642.88.344.485.712.975 1.03 1.463l4.288 6.27h19.437c.523-.842 1.288-2.097 1.544-2.527l1.268-2.14 2.594-4.257c1.756-2.82 3.576-5.663 5.423-8.443 3.947-5.936 7.733-11.294 11.594-16.38 4.383-5.788 8.53-10.8 12.68-15.33 1.092-1.205 2.235-2.402 3.377-3.584l1.733-1.75 1.713-1.65c.438-.44.896-.857 1.354-1.267l.442-.4c.6-.566 1.2-1.126 1.795-1.618.806-.7 1.62-1.38 2.433-2.03L101.446.413z" fill="#1E88E5" fill-rule="evenodd"/></svg>