<svg width="46" height="44" viewBox="0 0 46 44" xmlns="http://www.w3.org/2000/svg"><title>icon_prevention_default</title><path d="M35.115.1c-.722-.065-1.413-.1-2.053-.1-5.127 0-7.588 2.234-10.408 5.62C19.834 2.234 17.384 0 12.236 0c-.637 0-1.316.035-2.05.1C5.755.544.62 4.647.002 12.5v2.613c.57 7.523 6.21 16.8 22.654 28.443 16.448-11.64 22.078-20.918 22.668-28.442V12.5C44.69 4.645 39.564.542 35.115.1zM30.77 23.8h-5.875v6.17H20.55V23.8h-5.997v-4.32h5.998v-5.896h4.345v5.893h5.875V23.8z" fill="#1E88E5" fill-rule="evenodd"/></svg>