<svg width="17" height="18" viewBox="0 0 17 18" xmlns="http://www.w3.org/2000/svg"><title>icon_news</title><path d="M15.623.477H4.246C3.674.477 3.21.94 3.21 1.51v6.197H1.14C.57 7.707.11 8.182.11 8.753v5.702c0 1.143.925 2.574 2.07 2.574h12.41c1.142 0 2.07-1.432 2.07-2.575V1.51c0-.57-.463-1.033-1.035-1.033zM3.21 14.455c0 .57-.462 1.034-1.033 1.034-.572 0-1.036-.464-1.036-1.035V8.74h2.07v5.715zm10.345-.935c0 .227-.186.413-.413.413H6.726c-.226 0-.412-.186-.412-.413v-.21c0-.226.186-.41.412-.41h6.416c.227 0 .413.184.413.41v.21zm0-1.813c0 .226-.186.41-.413.41H6.726c-.226 0-.412-.184-.412-.41v-.21c0-.227.186-.413.412-.413h6.416c.227 0 .413.186.413.412v.21zm0-1.815c0 .227-.186.412-.413.412H6.726c-.226 0-.412-.185-.412-.412v-.21c0-.226.186-.412.412-.412h6.416c.227 0 .413.186.413.413v.21zm0-2.586c0 .227-.186.412-.413.412H6.726c-.226 0-.412-.185-.412-.412v-2.28c0-.226.186-.41.412-.41h6.416c.227 0 .413.184.413.41v2.28z" fill="#FFF" fill-rule="evenodd"/></svg>