<svg width="52" height="52" viewBox="0 0 52 52" xmlns="http://www.w3.org/2000/svg"><title>icon_news_twitter</title><path d="M25.36 16.515c0 .746.083 1.472.244 2.168-7.826-.396-14.764-4.185-19.41-9.94-.81 1.404-1.274 3.038-1.274 4.782 0 3.3 1.663 6.214 4.19 7.92-1.544-.05-2.996-.477-4.266-1.19v.12c0 4.61 3.245 8.456 7.553 9.33-.79.217-1.622.333-2.48.333-.608 0-1.197-.06-1.772-.17 1.198 3.78 4.675 6.53 8.796 6.608C13.72 39.028 9.66 40.55 5.247 40.55c-.76 0-1.51-.046-2.246-.134 4.167 2.7 9.117 4.275 14.435 4.275 17.32 0 26.79-14.498 26.79-27.072 0-.412-.008-.823-.026-1.23 1.84-1.342 3.435-3.018 4.698-4.926-1.69.756-3.504 1.268-5.41 1.498 1.945-1.178 3.44-3.042 4.142-5.264-1.82 1.09-3.835 1.882-5.98 2.31C39.932 8.155 37.485 7 34.777 7c-5.2 0-9.417 4.26-9.417 9.515z" fill="#5E9FCB" fill-rule="evenodd"/></svg>