<svg width="82" height="85" viewBox="0 0 82 85" xmlns="http://www.w3.org/2000/svg"><title>pin_pharmacy</title><defs><filter x="-50%" y="-50%" width="200%" height="200%" filterUnits="objectBoundingBox" id="a"><feOffset dy="4" in="SourceAlpha" result="shadowOffsetOuter1"/><feGaussianBlur stdDeviation="3" in="shadowOffsetOuter1" result="shadowBlurOuter1"/><feColorMatrix values="0 0 0 0 0 0 0 0 0 0 0 0 0 0 0 0 0 0 0.35 0" in="shadowBlurOuter1" result="shadowMatrixOuter1"/><feMerge><feMergeNode in="shadowMatrixOuter1"/><feMergeNode in="SourceGraphic"/></feMerge></filter></defs><g fill="none" fill-rule="evenodd"><path d="M49.868 59.417h14.528c2.773 0 5.003-2.24 5.003-5.002V5.002C69.4 2.24 67.16 0 64.395 0H5.604C2.83 0 .6 2.24.6 5.002v49.413c0 2.763 2.24 5.002 5.004 5.002h15.57L35.52 73.763 49.87 59.417z" fill="#186CB7" filter="url(#a)" transform="translate(6 2)"/><path d="M39.243 3h32.043c1.106 0 2.003.896 2.003 2.005V58.75c0 1.107-.904 2.05-2 2.1 0 0-11.462.58-16.574.58-1.765 0-5.42 4.122-7.527 6.46-3.534 3.92-7.44 7.873-7.44 7.873L39.243 3z" opacity=".2" fill="#000"/><g fill="#EBEAEA"><path d="M55.245 20.87l-.227-.225c-1.508-1.51-3.516-2.34-5.65-2.34-2.135 0-4.14.83-5.65 2.34l-6.873 6.873c-.232.232-.406.5-.524.802.257-.096.54-.15.842-.166.045-.06.094-.116.15-.17l6.87-6.873c1.385-1.384 3.227-2.147 5.186-2.147 1.96 0 3.8.762 5.185 2.147l.225.226c2.86 2.86 2.86 7.512 0 10.37l-6.872 6.873c-.057.057-.12.108-.183.155-.017.305-.077.586-.18.844.313-.12.59-.298.828-.536l6.875-6.872c3.115-3.115 3.115-8.185 0-11.3"/><path d="M56.08 24.28c.237 2.13-.46 4.344-2.092 5.977l-5.097 5.097c.144.424.232.83.257 1.213.09-.063.834-.79.914-.87l4.18-4.178c1.96-1.962 2.573-4.758 1.84-7.24M47.266 36.53c-.742-1.793-2.353-3.875-4.307-5.572-2.06-1.787-4.112-2.81-5.632-2.81-.056 0-.11.004-.166.006-.303.015-.584.07-.84.166-.313.12-.59.296-.828.536l-6.872 6.87c-3.116 3.117-3.117 8.186 0 11.302l.225.226c1.51 1.508 3.516 2.34 5.65 2.34 2.135 0 4.142-.832 5.65-2.34l6.874-6.873c.233-.23.406-.5.524-.8.102-.26.162-.54.18-.846.034-.64-.117-1.38-.458-2.204zm-1.618 3.566l-6.153 6.153c-1.96 1.96-4.756 2.572-7.24 1.84 2.13.236 4.345-.46 5.978-2.093l7.953-7.953c.126.82-.02 1.536-.538 2.052z"/></g></g></svg>