<svg width="80" height="80" viewBox="0 0 80 80" xmlns="http://www.w3.org/2000/svg"><title>icon_linha</title><g fill="none" fill-rule="evenodd"><path d="M19.932 5.36C26.074 1.788 32.762 0 40 0c7.237 0 13.925 1.787 20.067 5.36 6.14 3.574 11 8.43 14.572 14.573C78.21 26.075 80 32.763 80 40s-1.788 13.926-5.36 20.067c-3.573 6.142-8.433 11-14.573 14.572C53.925 78.212 47.237 80 40 80s-13.926-1.787-20.068-5.36c-6.14-3.573-11-8.43-14.57-14.573C1.786 53.927 0 47.237 0 40s1.787-13.925 5.36-20.067c3.573-6.142 8.43-11 14.572-14.572 0 0-6.14 3.574 0 0z" fill="#1E88E5"/><g transform="translate(18 24)"><path d="M.505 0v32.454h44.162" stroke="#FFF" stroke-width="2"/><path d="M5.174 27.69s3.75-18.26 12.39-17.527C26.207 10.896 24.39 25 31.13 25c6.742 0 10.548-11.2 11.82-12.277" stroke="#FFF"/><ellipse fill="#FFF" cx="17" cy="10.333" rx="1.667" ry="1.667"/><ellipse fill="#FFF" cx="31" cy="25" rx="1.667" ry="1.667"/></g></g></svg>