<svg width="10" height="16" viewBox="0 0 10 16" xmlns="http://www.w3.org/2000/svg"><title>icon_healthtips</title><path d="M6.4 13.474c-.092-.065-.368.434-1.268.475-.107-.005-.215-.007-.318-.007-.802-.07-1.092-.534-1.18-.47-.194.135-.307.3-.307.48 0 .035.006.07.014.103l.094.67c.032.184.19.35.433.475.17.32.62.55 1.15.55.527 0 .976-.23 1.147-.55.256-.132.418-.31.436-.506h.003l.087-.64c.008-.033.014-.067.014-.1 0-.18-.113-.345-.304-.48zM5.016.75C2.246.75 0 2.872 0 5.96c0 2.327 1.35 3.21 2.867 6.123.437.84 1.15 1.384 2.15 1.384.998 0 1.725-.537 2.147-1.384 1.37-2.746 2.867-3.725 2.867-6.123 0-3.088-2.244-5.21-5.014-5.21zm2.438 6.138c0 .21-.172.382-.382.382h-.86c-.21 0-.383.172-.383.382v.86c0 .21-.173.383-.383.383h-.86c-.21 0-.383-.172-.383-.382v-.86c0-.21-.172-.383-.382-.383h-.86c-.21 0-.383-.172-.383-.382v-.86c0-.21.17-.383.38-.383h.862c.21 0 .382-.17.382-.38V4.4c0-.21.172-.382.382-.382h.86c.21 0 .383.172.383.382v.862c0 .21.17.38.38.38h.862c.21 0 .382.173.382.383v.86z" fill="#FFF" fill-rule="evenodd"/></svg>