<svg width="82" height="85" viewBox="0 0 82 85" xmlns="http://www.w3.org/2000/svg"><title>pin_upa</title><defs><filter x="-50%" y="-50%" width="200%" height="200%" filterUnits="objectBoundingBox" id="a"><feOffset dy="4" in="SourceAlpha" result="shadowOffsetOuter1"/><feGaussianBlur stdDeviation="3" in="shadowOffsetOuter1" result="shadowBlurOuter1"/><feColorMatrix values="0 0 0 0 0 0 0 0 0 0 0 0 0 0 0 0 0 0 0.35 0" in="shadowBlurOuter1" result="shadowMatrixOuter1"/><feMerge><feMergeNode in="shadowMatrixOuter1"/><feMergeNode in="SourceGraphic"/></feMerge></filter></defs><g fill="none" fill-rule="evenodd"><path d="M49.868 59.417h14.528c2.773 0 5.003-2.24 5.003-5.002V5.002C69.4 2.24 67.16 0 64.395 0H5.604C2.83 0 .6 2.24.6 5.002v49.413c0 2.763 2.24 5.002 5.004 5.002h15.57L35.52 73.763 49.87 59.417z" fill="#DB1105" filter="url(#a)" transform="translate(6 2)"/><path d="M39.243 3h32.043c1.106 0 2.003.896 2.003 2.005V58.75c0 1.107-.904 2.05-2 2.1 0 0-11.462.58-16.574.58-1.765 0-5.42 4.122-7.527 6.46-3.534 3.92-7.44 7.873-7.44 7.873L39.243 3z" opacity=".2" fill="#000"/><path d="M38.52 19.516h3.636V10H38.52v9.516zm16.33 14.57l9.328-1.883-.718-3.56-9.33 1.883.72 3.56zm3.514-15.866l-2.57-2.57-6.73 6.73 2.57 2.57 6.73-6.73zM27.237 30.526l-9.328-1.884-.72 3.56 9.327 1.885.72-3.56zM52.855 43.47l-3.223-17.528c-.346-1.9-2.41-3.326-4.633-3.326h-7.48c-2.223 0-4.284 1.427-4.63 3.326L29.664 43.47c-.022.126-.018.242-.033 1.813h-4.38v4.096h32.02v-4.097h-4.382c-.014-1.57-.01-1.687-.033-1.813zm-12.037-.158V25.197h3.34c1.725 0 3.325 1.105 3.594 2.578l2.5 13.595c.02.1.015.198.026 1.942h-9.46zM32.303 22.38l-6.73-6.73-2.568 2.57 6.728 6.73 2.57-2.57z" fill="#FFF"/></g></svg>