<svg width="49" height="49" viewBox="0 0 49 49" xmlns="http://www.w3.org/2000/svg"><title>icon_care_selected</title><path d="M46.863 9.067L39.95 2.154C38.56.764 36.714 0 34.75 0c-1.968 0-3.818.764-5.203 2.154l-27.39 27.39C.764 30.93 0 32.776 0 34.745c0 1.964.765 3.81 2.155 5.2l6.913 6.914c1.39 1.393 3.24 2.157 5.206 2.157 1.964 0 3.812-.764 5.2-2.154l27.392-27.39c1.388-1.39 2.153-3.236 2.153-5.202 0-1.963-.767-3.813-2.157-5.203zm-22.86 7.4c-.588-.59-.588-1.546.003-2.137.59-.59 1.546-.59 2.135 0 .592.59.592 1.546 0 2.136-.59.59-1.545.59-2.136 0zm-2.698 2.703c.592.59.59 1.542 0 2.133-.59.59-1.544.59-2.136 0-.59-.59-.59-1.543 0-2.133.59-.59 1.545-.594 2.135 0zm-4.834 4.835c.59.59.59 1.546 0 2.134-.59.592-1.547.592-2.137 0-.59-.592-.59-1.544 0-2.135.588-.59 1.546-.593 2.138 0zm9.67-5.352c.594.59.592 1.543 0 2.134-.588.59-1.545.59-2.136 0-.59-.59-.59-1.544 0-2.134.59-.59 1.548-.59 2.137 0zm-4.835 4.836c.59.59.59 1.545 0 2.135-.59.59-1.544.59-2.136-.004-.59-.588-.59-1.54 0-2.132.59-.59 1.545-.59 2.135 0zm9.108-4.884c.59.59.59 1.543 0 2.133-.59.59-1.545.59-2.136 0-.59-.59-.59-1.544 0-2.137.59-.587 1.547-.59 2.136.003zm-4.835 4.833c.59.59.59 1.545 0 2.135-.59.59-1.546.59-2.136 0-.59-.59-.59-1.546 0-2.136.59-.592 1.545-.59 2.136 0zm-4.836 4.834c.59.59.59 1.55-.002 2.137-.59.59-1.544.59-2.134 0-.59-.59-.59-1.545 0-2.136.59-.59 1.546-.59 2.136 0zm9.672-5.348c.59.59.588 1.545 0 2.133-.59.592-1.546.59-2.137 0-.59-.59-.59-1.544 0-2.137.59-.588 1.547-.588 2.137.003zm-4.838 4.832c.592.59.592 1.546 0 2.137-.59.59-1.544.59-2.134 0-.592-.59-.592-1.546-.002-2.137.592-.59 1.547-.59 2.136 0zm9.11-4.883c.59.59.588 1.546 0 2.136-.59.59-1.546.59-2.138 0-.59-.592-.588-1.545 0-2.135.59-.59 1.547-.593 2.14 0zm-4.836 4.837c.59.59.588 1.545 0 2.136-.59.59-1.546.59-2.138 0-.588-.59-.59-1.547 0-2.136.592-.59 1.547-.59 2.138 0zm-4.836 4.835c.59.59.59 1.546 0 2.137-.59.59-1.546.59-2.136 0-.593-.59-.59-1.546 0-2.137.588-.59 1.546-.59 2.136 0z" fill="#FFF" fill-rule="evenodd"/></svg>