<svg width="18" height="16" viewBox="0 0 18 16" xmlns="http://www.w3.org/2000/svg"><title>icon_participate</title><path d="M4.527.727v2.91c0 .203-.07.375-.21.516-.142.14-.314.21-.518.21H.89c-.203 0-.375-.07-.516-.21-.14-.14-.21-.313-.21-.517V.726c0-.202.07-.374.21-.515C.514.07.687 0 .89 0H3.8c.203 0 .375.07.516.21.14.142.21.314.21.517 0 0 0-.203 0 0zm0 8.728v-2.91c0-.203-.07-.375-.21-.516-.142-.14-.314-.212-.518-.212H.89c-.203 0-.375.07-.516.21-.14.142-.21.314-.21.517v2.91c0 .203.07.375.21.516.14.142.313.212.516.212H3.8c.203 0 .375-.07.516-.21.14-.142.21-.314.21-.517 0 0 0 .203 0 0zm0 2.91v2.908c0 .203-.07.375-.21.516-.142.14-.314.21-.518.21H.89c-.203 0-.375-.07-.516-.21-.14-.142-.21-.314-.21-.517v-2.91c0-.203.07-.375.21-.516.14-.14.313-.21.516-.21H3.8c.203 0 .375.07.516.21.14.14.21.313.21.517 0 0 0-.204 0 0zM17.617.726v2.91c0 .203-.07.375-.21.516-.14.14-.313.21-.517.21H6.71c-.205 0-.377-.07-.518-.21-.14-.14-.21-.313-.21-.517V.726c0-.202.07-.374.21-.515.14-.14.313-.21.517-.21h10.18c.204 0 .376.07.517.21.14.142.21.314.21.517 0 0 0-.203 0 0zm0 5.818v2.91c0 .203-.07.375-.21.516-.14.142-.313.212-.517.212H6.71c-.205 0-.377-.07-.518-.21-.14-.142-.21-.314-.21-.517v-2.91c0-.203.07-.375.21-.516.14-.14.313-.212.517-.212h10.18c.204 0 .376.07.517.21.14.142.21.314.21.517 0 0 0-.203 0 0zm0 5.82v2.908c0 .203-.07.375-.21.516-.14.14-.313.21-.517.21H6.71c-.205 0-.377-.07-.518-.21-.14-.142-.21-.314-.21-.517v-2.91c0-.203.07-.375.21-.516.14-.14.313-.21.517-.21h10.18c.204 0 .376.07.517.21.14.14.21.313.21.517z" fill="#FFF" fill-rule="evenodd"/></svg>