<svg width="80" height="80" viewBox="0 0 80 80" xmlns="http://www.w3.org/2000/svg"><title>icon_scatterplot</title><g fill="none" fill-rule="evenodd"><circle fill="#1E88E5" cx="40" cy="40" r="40"/><g fill="#FFF"><path d="M20.04 18.04h2.297v45.92H20.04V18.04z"/><path d="M20.04 61.663h45.92v2.296H20.04v-2.297zM30.558 45.19c1.093 0 1.98.886 1.98 1.98 0 1.094-.887 1.98-1.98 1.98-1.094 0-1.98-.886-1.98-1.98 0-1.094.886-1.98 1.98-1.98M55.31 25.387c1.642 0 2.972 1.33 2.972 2.97 0 1.64-1.33 2.97-2.97 2.97-1.64 0-2.97-1.33-2.97-2.97 0-1.64 1.33-2.97 2.97-2.97M52.34 33.308c2.188 0 3.96 1.773 3.96 3.96 0 2.188-1.772 3.96-3.96 3.96-2.187 0-3.96-1.772-3.96-3.96 0-2.187 1.773-3.96 3.96-3.96M43.43 25.387c2.734 0 4.95 2.217 4.95 4.95 0 2.735-2.216 4.95-4.95 4.95-2.735 0-4.95-2.215-4.95-4.95 0-2.733 2.215-4.95 4.95-4.95M40.36 37.27c3.28 0 5.94 2.658 5.94 5.94 0 3.28-2.66 5.94-5.94 5.94-3.28 0-5.94-2.66-5.94-5.94 0-3.282 2.66-5.94 5.94-5.94M28.48 35.288c2.186 0 3.96 1.774 3.96 3.96 0 2.188-1.774 3.96-3.96 3.96-2.19 0-3.962-1.772-3.962-3.96 0-2.186 1.773-3.96 3.96-3.96M29.568 51.13c1.64 0 2.97 1.33 2.97 2.97 0 1.64-1.33 2.97-2.97 2.97-1.64 0-2.97-1.33-2.97-2.97 0-1.64 1.33-2.97 2.97-2.97M38.48 51.13c1.093 0 1.98.887 1.98 1.98 0 1.094-.887 1.98-1.98 1.98-1.095 0-1.98-.886-1.98-1.98 0-1.093.885-1.98 1.98-1.98M51.35 43.21c1.64 0 2.97 1.33 2.97 2.97 0 1.64-1.33 2.97-2.97 2.97-1.64 0-2.97-1.33-2.97-2.97 0-1.64 1.33-2.97 2.97-2.97M45.41 51.13c.547 0 .99.444.99.99 0 .547-.443.99-.99.99-.547 0-.99-.443-.99-.99 0-.546.443-.99.99-.99M35.508 31.328c.547 0 .99.443.99.99 0 .547-.443.99-.99.99-.546 0-.99-.443-.99-.99 0-.547.444-.99.99-.99"/></g></g></svg>