<svg width="225" height="335" viewBox="0 0 225 335" xmlns="http://www.w3.org/2000/svg"><title>dicas-icone copy</title><path d="M143.42 284.164c-2.06-1.46-8.226 9.684-28.31 10.602-2.41-.08-4.82-.12-7.116-.12-17.895-1.553-24.38-11.933-26.38-10.512-4.298 3.026-6.816 6.733-6.816 10.718 0 .782.127 1.553.315 2.308l2.064 14.967h.023c.7 4.098 4.237 7.79 9.643 10.602 3.824 7.153 13.85 12.27 25.66 12.27 11.8 0 21.83-5.117 25.658-12.27 5.715-2.975 9.324-6.93 9.72-11.31l.078-.004 1.94-14.282c.184-.748.308-1.504.308-2.282 0-3.963-2.515-7.666-6.786-10.688zM112.502 0C50.64 0 .487 47.385.487 116.357c0 51.953 30.155 71.676 64.032 136.75C74.28 271.854 90.192 284 112.5 284c22.316 0 38.554-11.982 47.986-30.896 30.603-61.34 64.025-83.194 64.025-136.75C224.513 47.387 174.376 0 112.503 0zm54.457 137.08c0 4.692-3.84 8.53-8.532 8.53h-19.233c-4.692 0-8.527 3.835-8.527 8.53v19.23c0 4.692-3.84 8.53-8.53 8.53h-19.234c-4.688 0-8.527-3.838-8.527-8.53v-19.23c0-4.695-3.838-8.53-8.53-8.53H66.613c-4.692 0-8.53-3.838-8.53-8.53v-19.226c0-4.692 3.838-8.527 8.53-8.527h19.234c4.692 0 8.53-3.838 8.53-8.53V81.56c0-4.693 3.84-8.53 8.527-8.53h19.234c4.69 0 8.53 3.837 8.53 8.53v19.237c0 4.692 3.835 8.53 8.527 8.53h19.233c4.692 0 8.53 3.835 8.53 8.527v19.226z" fill="#1E88E5" fill-rule="evenodd"/></svg>