<svg width="197" height="45" viewBox="0 0 197 45" xmlns="http://www.w3.org/2000/svg"><title>icon_gds</title><g fill="none" fill-rule="evenodd"><path d="M38.456 7.482c-1.32.302-2.693.468-4.105.468-5.12 0-9.743-2.106-13.063-5.497-3.32 3.39-7.945 5.497-13.065 5.497-1.41 0-2.783-.166-4.103-.467-2.083 3.623-3.276 7.823-3.276 12.3 0 12.2 8.825 22.337 20.442 24.375 11.616-2.038 20.442-12.175 20.442-24.375 0-4.477-1.192-8.678-3.272-12.3" fill="#FFF"/><path d="M35.66 10.058c-1.104.253-2.254.392-3.436.392-4.286 0-8.158-1.763-10.937-4.602-2.78 2.84-6.652 4.602-10.938 4.602-1.183 0-2.33-.14-3.436-.39-1.744 3.032-2.742 6.548-2.742 10.297 0 10.213 7.388 18.7 17.114 20.406C31.01 39.057 38.4 30.57 38.4 20.357c0-3.748-.998-7.266-2.74-10.3" fill="#1E88E5"/><path d="M35.66 10.058c-1.104.253-2.254.392-3.436.392-4.286 0-8.158-1.763-10.937-4.602-.4.408-.824.79-1.265 1.152 1.78 6.572 1.366 25.326 1.074 33.724.065.013.126.028.19.04C31.01 39.056 38.4 30.57 38.4 20.356c0-3.748-.998-7.266-2.74-10.3" fill="#1976D2"/><path d="M18.407 15.403h5.758V32.68h-5.758V15.402z" fill="#FFF"/><path d="M12.648 21.163h17.276v5.757H12.648v-5.757z" fill="#FFF"/><path d="M21.286 44.897l-.703-.124C8.713 42.69.1 32.423.1 20.357.1 16.033 1.234 11.77 3.38 8.03l1.502-2.614 2.94.673c.836.19 1.684.288 2.525.288 3.043 0 5.895-1.2 8.028-3.38l2.91-2.972L24.198 3c2.13 2.18 4.983 3.378 8.026 3.378.842 0 1.693-.097 2.525-.29l2.94-.675 1.5 2.616c2.148 3.738 3.282 8 3.282 12.327 0 12.066-8.614 22.334-20.483 24.416l-.704.124zM5.992 7.947l-.684 1.19C3.355 12.54 2.32 16.42 2.32 20.357c0 10.985 7.842 20.334 18.647 22.228l.32.057.32-.057C32.41 40.69 40.25 31.342 40.25 20.357c0-3.94-1.034-7.82-2.986-11.22l-.684-1.19-1.335.306c-.998.23-2.014.347-3.023.347-3.647 0-7.06-1.438-9.613-4.047l-1.323-1.35-1.322 1.35C17.41 7.163 13.995 8.6 10.35 8.6c-1.008 0-2.025-.117-3.024-.347l-1.334-.305z" fill="#1E88E5"/><path d="M58.36 18.073v1.417h-1.75v-1.51c0-1.49-.59-2.387-1.935-2.387-1.323 0-1.937.898-1.937 2.386v8.737c0 1.488.614 2.386 1.937 2.386 1.346 0 1.936-.898 1.936-2.386V23.41h-1.7V21.76h3.45v4.865c0 2.503-1.182 4.157-3.732 4.157-2.528 0-3.71-1.654-3.71-4.157v-8.55c0-2.503 1.182-4.157 3.71-4.157 2.55 0 3.73 1.654 3.73 4.157M61.736 26.717c0 1.488.59 2.386 1.937 2.386 1.323 0 1.913-.898 1.913-2.386V14.082h1.724v12.54c0 2.504-1.157 4.18-3.708 4.18-2.527 0-3.684-1.676-3.684-4.18v-12.54h1.818v12.635M70.877 27.284l-.638 3.33h-1.702l3.165-16.532h2.67l3.164 16.532h-1.842l-.638-3.33h-4.18zm.236-1.582h3.684L72.93 16.16l-1.817 9.542zM82.544 14.082c2.598 0 3.684 1.322 3.684 3.78v1.345c0 1.818-.638 2.952-2.055 3.4 1.512.45 2.08 1.678 2.08 3.45v2.574c0 .733.022 1.418.33 1.984h-1.866c-.213-.472-.307-.897-.307-2.007V26.01c0-1.867-.874-2.457-2.41-2.457h-1.3v7.06h-1.84v-16.53h3.684zm-.473 7.794c1.466 0 2.34-.473 2.34-2.268v-1.582c0-1.488-.543-2.267-1.914-2.267H80.7v6.116h1.37zM91.92 14.082c2.575 0 3.755 1.558 3.755 4.11v8.336c0 2.528-1.18 4.086-3.755 4.086h-3.873V14.082h3.873zm-.023 14.855c1.322 0 1.96-.826 1.96-2.338v-8.503c0-1.512-.638-2.338-1.984-2.338H89.89v13.177h2.007zM97.28 14.082h1.844v16.532H97.28V14.082zM108.334 18.073v8.55c0 2.503-1.25 4.157-3.802 4.157-2.527 0-3.78-1.654-3.78-4.157v-8.55c0-2.527 1.253-4.157 3.78-4.157 2.55 0 3.802 1.63 3.802 4.157zm-.874-6.4c-.354.944-.944 1.346-1.676 1.346-.922.023-1.44-.686-2.173-.686-.424 0-.73.19-.99.71l-.922-.64c.4-.968 1.015-1.345 1.747-1.37.945 0 1.465.71 2.173.71.402-.024.685-.213.945-.71l.897.64zm-4.89 6.306v8.737c0 1.512.64 2.386 1.962 2.386 1.346 0 1.96-.874 1.96-2.386V17.98c0-1.49-.614-2.387-1.96-2.387-1.323 0-1.96.898-1.96 2.386zM115.845 21.403v1.654h-4.04v5.88h4.96v1.677h-6.8V14.082h6.8v1.677h-4.96v5.643h4.04M125.504 18.05v.448h-1.748v-.543c0-1.488-.566-2.362-1.89-2.362-1.322 0-1.89.874-1.89 2.34 0 3.706 5.552 4.06 5.552 8.714 0 2.503-1.205 4.133-3.732 4.133s-3.708-1.63-3.708-4.133v-.945h1.724v1.04c0 1.487.614 2.36 1.937 2.36 1.32 0 1.936-.873 1.936-2.36 0-3.685-5.527-4.04-5.527-8.693 0-2.55 1.18-4.134 3.66-4.134 2.503 0 3.684 1.63 3.684 4.133M134.195 14.082c2.55 0 3.66 1.677 3.66 4.11v8.313c0 2.432-1.11 4.11-3.66 4.11h-3.637V14.08h3.637zm-.023 15.54c1.842 0 2.598-1.25 2.598-3.07v-8.408c0-1.82-.78-3.07-2.598-3.07h-2.527v14.548h2.527zM141.092 26.954l-.827 3.66h-.992l3.614-16.556h1.582l3.684 16.556h-1.087l-.826-3.66h-5.148zm.165-.945h4.818l-2.432-10.7-2.386 10.7zM160.388 18.05v.448h-1.748v-.543c0-1.488-.567-2.362-1.89-2.362-1.322 0-1.89.874-1.89 2.34 0 3.706 5.55 4.06 5.55 8.714 0 2.503-1.203 4.133-3.73 4.133s-3.708-1.63-3.708-4.133v-.945h1.724v1.04c0 1.487.614 2.36 1.936 2.36 1.323 0 1.937-.873 1.937-2.36 0-3.685-5.528-4.04-5.528-8.693 0-2.55 1.18-4.134 3.66-4.134 2.505 0 3.686 1.63 3.686 4.133M163.765 27.284l-.638 3.33h-1.7l3.165-16.532h2.668l3.165 16.532h-1.842l-.638-3.33h-4.18zm.236-1.582h3.686l-1.866-9.542-1.82 9.542zM179.07 26.623c0 2.503-1.158 4.18-3.71 4.18-2.526 0-3.683-1.677-3.683-4.18v-12.54h1.818v12.634c0 1.488.59 2.386 1.937 2.386 1.323 0 1.913-.898 1.913-2.386V14.082h1.724v12.54zm-1.276-15.966l-2.197 2.433h-1.275l1.653-2.433h1.82zM184.643 14.082c2.575 0 3.755 1.558 3.755 4.11v8.336c0 2.528-1.18 4.086-3.755 4.086h-3.873V14.082h3.873zm-.024 14.855c1.322 0 1.96-.826 1.96-2.338v-8.503c0-1.512-.638-2.338-1.984-2.338h-1.984v13.177h2.007zM195.885 21.403v1.654h-4.04v5.88h4.96v1.677h-6.8V14.082h6.8v1.677h-4.96v5.643h4.04" fill="#FFF"/></g></svg>