<svg width="80" height="80" viewBox="0 0 80 80" xmlns="http://www.w3.org/2000/svg"><title>icon_sinusoid</title><g fill="none" fill-rule="evenodd"><circle fill="#1E88E5" cx="40" cy="40" r="40"/><g fill="#FFF"><path d="M21.897 41.092H64.93v1.476H21.897v-1.476z"/><path d="M21.006 18.07h1.488v44.883h-1.488V18.07zM25.067 37.993c.638 0 1.155.51 1.155 1.142 0 .63-.517 1.142-1.155 1.142s-1.155-.51-1.155-1.142c0-.63.517-1.142 1.155-1.142M25.65 34.462c.64 0 1.156.51 1.156 1.142 0 .63-.517 1.14-1.155 1.14-.637 0-1.154-.51-1.154-1.14 0-.63.517-1.142 1.155-1.142M26.784 30.93c.638 0 1.155.51 1.155 1.14 0 .63-.518 1.142-1.156 1.142-.638 0-1.155-.51-1.155-1.14 0-.632.516-1.143 1.154-1.143M28.393 27.512c.638 0 1.155.512 1.155 1.142 0 .63-.517 1.142-1.155 1.142s-1.155-.51-1.155-1.142c0-.63.517-1.142 1.155-1.142M30.848 24.676c.638 0 1.155.51 1.155 1.142 0 .63-.517 1.142-1.155 1.142s-1.156-.51-1.156-1.142c0-.63.518-1.142 1.156-1.142M33.302 27.512c.638 0 1.155.512 1.155 1.142 0 .63-.517 1.142-1.155 1.142s-1.155-.51-1.155-1.142c0-.63.517-1.142 1.155-1.142M34.912 30.93c.638 0 1.155.51 1.155 1.14 0 .63-.517 1.142-1.155 1.142s-1.156-.51-1.156-1.14c0-.632.518-1.143 1.156-1.143M36.044 34.462c.638 0 1.155.51 1.155 1.142 0 .63-.518 1.14-1.156 1.14-.638 0-1.155-.51-1.155-1.14 0-.63.516-1.142 1.154-1.142M36.628 37.993c.638 0 1.155.51 1.155 1.142 0 .63-.517 1.142-1.155 1.142s-1.155-.51-1.155-1.142c0-.63.517-1.142 1.155-1.142M50.05 37.992c.637 0 1.154.51 1.154 1.142 0 .63-.517 1.142-1.155 1.142-.64 0-1.156-.512-1.156-1.142 0-.63.517-1.142 1.155-1.142M50.633 34.46c.638 0 1.155.512 1.155 1.142 0 .63-.517 1.142-1.155 1.142s-1.155-.51-1.155-1.142c0-.63.517-1.14 1.155-1.14M51.766 30.928c.638 0 1.155.51 1.155 1.14 0 .632-.516 1.143-1.154 1.143-.638 0-1.156-.51-1.156-1.14 0-.63.518-1.142 1.156-1.142M53.375 27.51c.638 0 1.155.512 1.155 1.143 0 .63-.517 1.142-1.155 1.142s-1.155-.512-1.155-1.142c0-.63.517-1.142 1.155-1.142M55.83 24.675c.637 0 1.155.51 1.155 1.142 0 .63-.518 1.14-1.156 1.14-.638 0-1.156-.51-1.156-1.14 0-.63.518-1.142 1.155-1.142M58.284 27.51c.638 0 1.155.512 1.155 1.143 0 .63-.518 1.142-1.156 1.142-.638 0-1.155-.512-1.155-1.142 0-.63.516-1.142 1.154-1.142M59.893 30.928c.638 0 1.156.51 1.156 1.14 0 .632-.52 1.143-1.157 1.143-.638 0-1.155-.51-1.155-1.14 0-.63.517-1.142 1.155-1.142M61.026 34.46c.638 0 1.155.512 1.155 1.142 0 .63-.516 1.142-1.154 1.142-.638 0-1.155-.51-1.155-1.142 0-.63.518-1.14 1.156-1.14M61.61 37.992c.638 0 1.155.51 1.155 1.142 0 .63-.517 1.142-1.155 1.142s-1.155-.512-1.155-1.142c0-.63.517-1.142 1.155-1.142M37.558 45.67c.638 0 1.155-.513 1.155-1.143s-.517-1.142-1.155-1.142-1.155.51-1.155 1.142c0 .63.517 1.142 1.155 1.142M38.142 49.2c.638 0 1.155-.51 1.155-1.142 0-.63-.517-1.14-1.155-1.14s-1.155.51-1.155 1.14c0 .63.517 1.142 1.155 1.142M39.275 52.733c.638 0 1.155-.51 1.155-1.142 0-.63-.517-1.14-1.155-1.14s-1.155.51-1.155 1.14c0 .632.517 1.143 1.155 1.143M40.884 56.15c.638 0 1.155-.512 1.155-1.142 0-.63-.518-1.142-1.156-1.142-.638 0-1.155.51-1.155 1.142 0 .63.516 1.142 1.154 1.142M43.34 58.986c.637 0 1.154-.51 1.154-1.142 0-.63-.517-1.142-1.155-1.142-.64 0-1.157.51-1.157 1.142 0 .63.518 1.142 1.156 1.142M45.793 56.15c.638 0 1.155-.512 1.155-1.142 0-.63-.517-1.142-1.155-1.142s-1.155.51-1.155 1.142c0 .63.517 1.142 1.155 1.142M47.402 52.733c.638 0 1.156-.51 1.156-1.142 0-.63-.518-1.14-1.156-1.14-.637 0-1.155.51-1.155 1.14 0 .632.518 1.143 1.155 1.143M48.535 49.2c.638 0 1.155-.51 1.155-1.142 0-.63-.517-1.14-1.155-1.14s-1.155.51-1.155 1.14c0 .63.517 1.142 1.155 1.142M49.12 45.67c.637 0 1.154-.513 1.154-1.143s-.517-1.142-1.155-1.142c-.64 0-1.156.51-1.156 1.142 0 .63.517 1.142 1.155 1.142"/></g></g></svg>