<svg width="45" height="42" viewBox="0 0 45 42" xmlns="http://www.w3.org/2000/svg"><title>icon_participations</title><path d="M40.78 18.54v8.29c0 4.054-1.564 7.582-4.45 10.468-2.888 2.888-6.477 4.387-10.53 4.387H14.74c-4.05 0-7.523-1.5-10.41-4.387C1.444 34.412 0 30.884 0 26.83V15.774C0 11.72 1.443 8.252 4.33 5.362c2.887-2.886 6.36-4.33 10.41-4.33 8.996.148 13.87.085 14.635.283l-6.855 6.62H11.056c-1.007 0-2.043.597-2.77 1.32-.723.727-1.255 1.826-1.255 2.833v18.43c0 1.006.533 2.1 1.257 2.823.726.726 1.762 1.314 2.77 1.314h18.428c1.008 0 2.164-.588 2.89-1.313.72-.723 1.375-1.816 1.375-2.823V25.91l7.03-7.37zM16.07 29.004l5.934-1.843 15.183-15.184-4.2-4.165L18.06 22.74l-1.992 6.265zM40.836 8.33L45 4.163l-.775-3.133L40.835 0l-4.163 4.164 4.164 4.165z" fill="#1E88E5" fill-rule="evenodd"/></svg>