<svg width="425" height="54" viewBox="0 0 425 54" xmlns="http://www.w3.org/2000/svg" xmlns:xlink="http://www.w3.org/1999/xlink"><title>Tarja Ministério Copy</title><defs><path d="M11.216 20.032h5.344c2.305 0 3.44.95 3.44 2.306v.092c0 1.355-1.178 2.31-3.487 2.31h-5.297V20.03m0-10.956h4.57c2.263 0 3.398.77 3.398 2.173v.088c0 1.404-1.09 2.176-3.352 2.176h-4.616V9.076M3.67 1.05v.01H2.335c-.788 0-1.433.64-1.433 1.428V31.32c0 .786.645 1.43 1.433 1.43H18.47v-.005c8.006 0 12.176-3.716 12.176-8.784v-.09c0-4.346-2.628-6.52-6.7-7.698 3.395-1.175 5.662-3.486 5.662-7.242v-.095c0-2.172-.817-3.8-1.952-4.933-1.852-1.858-4.613-2.85-9.01-2.85H3.67" id="a"/><path d="M11.378 9.926h4.615c2.445 0 4.03.995 4.03 3.03v.094c0 1.95-1.54 3.08-4.075 3.08h-4.57V9.926M3.684 1.05v.01H2.21c-.783 0-1.428.64-1.428 1.428V31.32c0 .786.645 1.43 1.43 1.43h7.73c.79 0 1.433-.644 1.433-1.43v-6.194c0-.784.485-1.43 1.087-1.43h1.13c.024 0 .4.537.832 1.195l4.402 6.668c.432.653 1.432 1.19 2.22 1.19h9.224l.14-.003h1.29l-7.38-10.777c3.848-1.855 6.25-5.072 6.25-9.688v-.09c0-3.26-.994-5.615-2.9-7.52-2.215-2.218-5.794-3.62-11.404-3.62H3.684" id="c"/><path id="e" d="M2.23 1.06C1.45 1.06.8 1.7.8 2.487V31.32c0 .786.648 1.43 1.43 1.43h7.736c.787 0 1.433-.644 1.433-1.43V2.488c0-.787-.647-1.43-1.434-1.43H2.23"/><path id="g" d="M2.242 1.06C1.452 1.06.81 1.7.81 2.487V31.32c0 .786.642 1.43 1.432 1.43h22.625c.79 0 1.428-.644 1.428-1.43v-6.194c0-.784-.638-1.43-1.428-1.43h-12.03c-.788 0-1.433-.646-1.433-1.432V2.488c0-.787-.646-1.43-1.428-1.43H2.242"/><path id="i" d="M11.45 1.045c-5.574 1.422-8.535 5.335-8.535 10.1v.097c0 6.702 6.248 8.74 13.353 10.19.468.093.868.177 1.224.253 2.418.557 3.17 1.035 3.17 1.822v.095c0 .855-.814 1.353-2.717 1.353-.14 0-.277-.004-.418-.007l-.343-.01-.205-.008c-.248-.015-.494-.03-.736-.052l-.02-.004c-.24-.018-.482-.048-.712-.076-2.435-.315-4.904-1.126-7.203-2.55l-.027-.017-.134-.083c-.78-.512-1.82-.286-2.325.31l-2.62 3.136-2.013 2.398h.004l-.004.003c2.703 2.37 6.198 3.96 10.14 4.755H22.58c5.508-1.343 8.857-4.953 8.857-10.145v-.092c0-6.384-5.43-8.74-13.542-10.23-3.343-.632-4.202-1.178-4.202-2.04v-.082c0-.77.722-1.313 2.304-1.313 2.945 0 6.487 1.137 8.44 2.424.9.59 1.448.174 1.902-.464l4.328-5.99-.006-.004.006-.004c-2.328-1.84-5-3.09-8.195-3.763H11.45"/><path id="k" d="M13.59 1.045c-.49.237-.92.644-1.113 1.105L.23 31.43c-.304.725.092 1.32.88 1.32h8.454c.784 0 1.66-.602 1.942-1.338l.798-2.207c.283-.734 1.16-1.337 1.944-1.337h7.81c.786 0 1.667.6 1.955 1.33l.854 2.22c.29.734 1.17 1.33 1.957 1.33h8.635c.787 0 1.182-.593.876-1.32L24.09 2.15c-.19-.46-.624-.868-1.114-1.105H13.59"/><path id="m" d="M.843 10.82l16.014 9.623L32.87 10.82 16.858 1.206.843 10.82"/><path id="o" d="M8.057 9.654L.843 5.32 8.057.988v8.666z"/><linearGradient x1="0%" y1="0%" x2="100.019%" y2="0%" id="p"><stop stop-color="#EC7103" offset="0%"/><stop stop-color="#EF8102" offset="100%"/></linearGradient><path id="r" d="M1.183 15.156L9.98 20.44h.003l16.012-9.62L9.98 1.206 1.184 6.488v8.668z"/><linearGradient x1="0%" y1="0%" y2="0%" id="s"><stop stop-color="#EF8202" offset="0%"/><stop stop-color="#F9B800" offset="100%"/></linearGradient><path id="u" d="M.843 10.82l16.014 9.623L32.87 10.82 16.858 1.206.843 10.82"/><path id="w" d="M.096 6.695c0 3.18 2.58 5.76 5.76 5.76 3.18 0 5.762-2.58 5.762-5.76 0-3.184-2.582-5.76-5.762-5.76-3.18 0-5.76 2.576-5.76 5.76"/><path id="y" d="M.098 6.822C.16 9.71 2.35 12.077 5.162 12.415V.975C2.352 1.316.16 3.678.098 6.57v.254z"/><linearGradient x1="0%" y1="0%" y2="0%" id="z"><stop stop-color="#203979" offset="0%"/><stop stop-color="#205192" offset="100%"/></linearGradient><path id="B" d="M1.037 12.415c.17.02.34.033.513.04h.36c3.024-.094 5.464-2.522 5.578-5.54v-.44C7.372 3.393 4.838.935 1.73.935c-.235 0-.466.014-.693.04v11.44z"/><linearGradient x1="0%" y1="0%" y2="0%" id="C"><stop stop-color="#205292" offset="0%"/><stop stop-color="#1F6FB0" offset="100%"/></linearGradient><path id="E" d="M.096 6.695c0 3.18 2.58 5.76 5.76 5.76 3.18 0 5.762-2.58 5.762-5.76 0-3.184-2.582-5.76-5.762-5.76-3.18 0-5.76 2.576-5.76 5.76"/></defs><g fill="none" fill-rule="evenodd"><path d="M264.348 48.14h2.29c.334 0 .633.047.895.14.267.093.49.223.675.395.183.172.325.373.425.61.095.24.145.5.145.79v.018c0 .32-.055.61-.175.853-.117.246-.278.452-.484.617-.206.163-.445.29-.722.372-.273.084-.57.123-.88.123h-.936v1.682h-1.234v-5.6zm2.206 2.822c.312 0 .552-.08.72-.245.173-.163.258-.36.258-.602v-.018c0-.275-.09-.488-.268-.628-.178-.148-.425-.22-.733-.22h-.948v1.712h.972zM276.235 48.1h1.133l2.403 5.64h-1.288l-.515-1.26H275.6l-.507 1.26h-1.26l2.402-5.64zm1.296 3.294l-.743-1.814-.747 1.814h1.49zm-.338-5.11l1.048.457-1.02.957h-.928l.9-1.414zM286.562 49.276h-1.704V48.14h4.64v1.136h-1.707v4.464h-1.228v-4.464M295.064 48.14h2.56c.708 0 1.252.19 1.628.567.324.32.48.747.48 1.282V50c0 .456-.112.823-.33 1.106-.222.29-.51.498-.868.63l1.368 2.002h-1.442l-1.198-1.79h-.966v1.79h-1.232v-5.6zm2.48 2.72c.3 0 .537-.072.698-.22.164-.14.242-.334.242-.576v-.012c0-.268-.085-.466-.254-.6-.172-.135-.407-.203-.71-.203h-1.224v1.61h1.248zM305.523 48.14h1.234v5.6h-1.234v-5.6zM314.7 48.1h1.136l2.4 5.64h-1.29l-.51-1.26h-2.368l-.513 1.26h-1.257l2.4-5.64zm1.296 3.294l-.743-1.814-.745 1.814h1.488zM333.447 48.14h4.213v1.096h-2.996v1.132h2.638v1.1h-2.638v1.175h3.038v1.097h-4.255v-5.6M343.428 48.14h2.185c.437 0 .84.072 1.205.21.364.142.68.34.943.588.265.25.467.546.616.884.142.34.213.704.213 1.102v.016c0 .394-.072.764-.214 1.1-.15.346-.35.64-.615.89-.262.252-.578.45-.942.592-.366.144-.768.218-1.205.218h-2.185v-5.6zm2.185 4.486c.25 0 .48-.04.69-.12.208-.082.384-.195.53-.343.146-.15.26-.325.344-.528.084-.2.125-.43.125-.68v-.015c0-.246-.04-.474-.125-.68-.084-.208-.198-.387-.343-.538-.147-.147-.323-.263-.53-.348-.21-.08-.44-.125-.69-.125h-.952v3.376h.95zM356.64 53.826c-.746 0-1.34-.208-1.775-.625-.43-.414-.645-1.034-.645-1.864V48.14h1.233v3.167c0 .458.104.804.32 1.04.212.23.507.344.886.344.377 0 .674-.11.887-.337.212-.226.32-.56.32-1.006V48.14h1.233v3.16c0 .426-.06.793-.174 1.11-.114.315-.28.578-.49.79-.214.208-.474.366-.775.47-.306.103-.645.156-1.02.156M367.6 53.834c-.41 0-.79-.073-1.143-.22-.35-.15-.656-.356-.91-.615-.26-.262-.456-.563-.6-.92-.14-.35-.22-.726-.22-1.126v-.014c0-.4.08-.774.22-1.125.144-.35.34-.66.6-.918.254-.27.563-.472.92-.628.354-.153.752-.226 1.18-.226.266 0 .503.02.718.064.218.044.416.1.59.174.175.073.336.166.486.272.15.106.287.223.418.352l-.783.905c-.22-.196-.444-.35-.668-.46-.23-.114-.484-.17-.762-.17-.237 0-.455.045-.655.135-.2.088-.374.216-.515.378-.145.158-.253.342-.34.553-.077.212-.116.436-.116.678v.016c0 .238.038.467.115.68.087.216.19.4.334.56.142.158.314.283.515.38.2.093.416.137.66.137.32 0 .59-.058.807-.174.223-.118.444-.278.66-.482l.784.795c-.142.153-.293.29-.446.417-.16.124-.325.226-.51.314-.18.088-.383.155-.603.202-.218.045-.464.066-.736.066M377.425 48.1h1.132l2.404 5.64h-1.288l-.51-1.26h-2.372l-.51 1.26h-1.257l2.402-5.64zm1.294 3.294l-.743-1.814-.746 1.814h1.49zM386.446 48.14h2.183c.436 0 .836.072 1.203.21.363.142.68.34.944.588.262.25.467.546.613.884.143.34.213.704.213 1.102v.016c0 .394-.07.764-.213 1.1-.146.346-.35.64-.613.89-.264.252-.58.45-.944.592-.367.144-.767.218-1.204.218h-2.184v-5.6zm2.183 4.486c.248 0 .48-.04.688-.12.21-.082.385-.195.533-.343.146-.15.26-.325.345-.528.083-.2.124-.43.124-.68v-.015c0-.246-.042-.474-.125-.68-.084-.208-.2-.387-.344-.538-.147-.147-.323-.263-.532-.348-.207-.08-.44-.125-.69-.125h-.95v3.376h.95zM400.044 53.834c-.43 0-.83-.076-1.19-.23-.367-.15-.677-.353-.943-.613-.26-.256-.468-.563-.612-.912-.147-.35-.224-.724-.224-1.124v-.014c0-.4.077-.774.227-1.125.15-.35.354-.66.622-.918.264-.27.575-.472.944-.628.363-.153.764-.226 1.196-.226.428 0 .826.073 1.192.225.358.155.675.358.935.618.265.256.47.56.617.91.146.35.223.724.223 1.126v.016c0 .396-.077.773-.23 1.125-.144.345-.353.65-.617.918-.265.262-.577.47-.942.62-.364.155-.76.23-1.196.23zm.018-1.137c.242 0 .47-.044.677-.134.21-.092.386-.216.53-.375.148-.16.265-.348.342-.555.084-.213.128-.438.128-.68v-.013c0-.24-.044-.467-.128-.68-.077-.216-.197-.4-.348-.56-.15-.16-.332-.286-.54-.38-.208-.095-.434-.14-.68-.14-.25 0-.478.045-.686.135-.2.088-.38.216-.528.378-.143.158-.257.342-.343.553-.082.212-.125.436-.125.678v.016c0 .238.043.467.125.68.086.216.2.4.352.56.15.158.33.283.536.38.203.093.432.137.686.137zM408.743 48.14h2.56c.71 0 1.255.19 1.635.567.317.32.478.747.478 1.282V50c0 .456-.11.823-.328 1.106-.224.29-.515.498-.868.63l1.365 2.002h-1.44l-1.2-1.79h-.967v1.79h-1.235v-5.6zm2.483 2.72c.305 0 .537-.072.702-.22.157-.14.242-.334.242-.576v-.012c0-.268-.086-.466-.258-.6-.17-.135-.407-.203-.71-.203h-1.224v1.61h1.248zM421.072 48.1h1.137l2.396 5.64h-1.287l-.51-1.26h-2.373l-.508 1.26h-1.258l2.4-5.64zm1.3 3.294l-.747-1.814-.747 1.814h1.494z" fill="#003B5C"/><path d="M267.29 9.72c-.435 0-.834-.074-1.197-.218-.357-.145-.667-.344-.925-.598-.257-.256-.458-.562-.6-.915-.147-.352-.22-.737-.22-1.15v-.02c0-.396.073-.772.22-1.122.147-.347.354-.655.614-.918.255-.265.57-.47.927-.623.356-.152.748-.228 1.174-.228.25 0 .476.016.682.05.208.034.395.082.572.148.178.064.343.143.498.24.158.095.3.205.446.327l-.774.935-.322-.24-.33-.175c-.113-.048-.237-.084-.373-.11-.135-.03-.28-.043-.44-.043-.22 0-.435.048-.627.142-.195.095-.366.217-.513.377-.147.158-.26.343-.34.554-.088.21-.125.436-.125.678v.016c0 .257.037.494.124.708.08.216.198.405.352.567.15.158.326.285.53.373.21.088.438.13.686.13.462 0 .85-.114 1.16-.336v-.808h-1.24V6.398h2.437v2.434c-.295.245-.637.454-1.032.624-.393.176-.852.264-1.365.264M278.993 9.72c-.432 0-.832-.075-1.19-.23-.363-.152-.68-.354-.942-.614-.263-.26-.467-.564-.612-.912-.152-.35-.222-.723-.222-1.123v-.02c0-.396.076-.772.224-1.122.152-.347.357-.655.622-.918.26-.265.575-.47.94-.623.364-.152.767-.228 1.198-.228.432 0 .827.075 1.194.227.362.152.674.354.937.615.263.257.468.564.618.91.147.35.217.724.217 1.124v.014c0 .403-.074.777-.222 1.126-.15.35-.355.658-.618.922-.267.264-.582.47-.946.623-.367.155-.766.23-1.197.23zm.017-1.137c.245 0 .47-.045.678-.133.21-.094.388-.22.534-.38.146-.158.26-.345.344-.553.082-.212.125-.436.125-.676v-.02c0-.235-.042-.464-.124-.677-.084-.214-.198-.4-.352-.56-.154-.162-.332-.286-.543-.38-.206-.093-.433-.14-.677-.14-.252 0-.48.047-.683.137-.206.092-.383.217-.528.375-.147.16-.26.347-.342.557-.088.21-.128.435-.128.674v.014c0 .243.04.468.128.683.08.212.198.4.35.557.15.16.33.288.538.386.204.09.432.137.682.137zM288 4.024h1.36l1.463 3.943 1.462-3.943h1.333L291.35 9.66h-1.085L288 4.025M299.887 4.024h4.212V5.12h-3v1.135h2.642V7.35h-2.64v1.175h3.037V9.62h-4.253V4.025M310.652 4.024h2.556c.71 0 1.257.19 1.633.57.32.317.483.745.483 1.277v.016c0 .454-.11.823-.332 1.11-.222.285-.51.49-.863.627l1.363 1.998h-1.436l-1.203-1.79h-.966v1.79h-1.232V4.025zm2.478 2.718c.305 0 .538-.072.7-.214.166-.144.245-.337.245-.577v-.016c0-.267-.083-.465-.255-.597-.17-.136-.408-.202-.712-.202h-1.224v1.607h1.246zM321.843 4.024h1.136l2.62 3.448V4.024h1.22V9.62h-1.048l-2.716-3.558v3.56h-1.213V4.023M336.287 9.72c-.43 0-.83-.075-1.193-.23-.36-.152-.678-.354-.94-.614-.262-.26-.47-.564-.615-.912-.145-.35-.22-.723-.22-1.123v-.02c0-.396.075-.772.223-1.122.15-.347.355-.655.618-.918.266-.265.58-.47.948-.623.365-.152.765-.228 1.195-.228.433 0 .83.075 1.192.227.362.152.676.354.94.615.264.257.47.564.616.91.147.35.222.724.222 1.124v.014c0 .403-.075.777-.225 1.126-.15.35-.357.658-.62.922-.266.264-.578.47-.944.623-.364.155-.765.23-1.196.23zm.016-1.137c.246 0 .468-.045.678-.133.212-.094.388-.22.536-.38.144-.158.257-.345.34-.553.086-.212.128-.436.128-.676v-.02c0-.235-.042-.464-.127-.677-.084-.214-.2-.4-.348-.56-.158-.162-.336-.286-.545-.38-.208-.093-.432-.14-.678-.14-.253 0-.48.047-.685.137-.202.092-.38.217-.525.375-.15.16-.263.347-.347.557-.08.21-.12.435-.12.674v.014c0 .243.04.468.12.683.084.212.202.4.352.557.153.16.33.288.536.386.208.09.435.137.685.137zM353.578 4.024h4.266v1.11h-3.035v1.21h2.672v1.11h-2.673V9.62h-1.232V4.025M364.236 4.024h4.215V5.12h-3v1.135h2.636V7.35h-2.636v1.175h3.038V9.62h-4.252V4.025M374.995 4.024h2.188c.437 0 .838.07 1.205.21.363.142.678.34.943.59.267.25.47.544.614.883.142.34.214.704.214 1.1v.013c0 .397-.072.77-.214 1.107-.145.343-.347.637-.613.89-.264.25-.58.446-.942.59-.367.142-.768.214-1.205.214h-2.188V4.025zm2.188 4.49c.25 0 .48-.042.688-.123.21-.078.387-.192.536-.343.144-.15.257-.328.343-.53.078-.202.12-.43.12-.676v-.02c0-.24-.042-.468-.12-.677-.087-.21-.2-.386-.344-.536-.15-.15-.325-.264-.535-.348-.206-.082-.438-.125-.687-.125h-.95v3.378h.95zM386.665 4.024h4.21V5.12h-3v1.135h2.642V7.35h-2.643v1.175h3.044V9.62h-4.253V4.025M397.43 4.024h2.558c.707 0 1.253.19 1.63.57.32.317.48.745.48 1.277v.016c0 .454-.114.823-.33 1.11-.225.285-.51.49-.866.627l1.367 1.998h-1.442l-1.198-1.79h-.968v1.79h-1.232V4.025zm2.478 2.718c.304 0 .536-.072.703-.214.16-.144.243-.337.243-.577v-.016c0-.267-.09-.465-.256-.597-.173-.136-.41-.202-.715-.202h-1.22v1.607h1.246zM410.54 3.985h1.134l2.396 5.636h-1.283l-.51-1.253h-2.373l-.51 1.254h-1.257l2.402-5.635zm1.292 3.296l-.744-1.815-.74 1.816h1.484zM420.343 4.024h1.232v4.49h2.792V9.62h-4.024V4.025" fill="#1D1D1B"/><path d="M424.515 43.145c0 .84-.69 1.524-1.526 1.524h-157.1c-.84 0-1.524-.686-1.524-1.525V14.497c0-.84.685-1.523 1.525-1.523h157.1c.836 0 1.525.683 1.525 1.523v28.648" fill="#FFDC00"/><g transform="translate(263.446 11.924)"><mask id="b" fill="#fff"><use xlink:href="#a"/></mask><path d="M.902 31.998l.924.753H.902V32" fill="#234F24" mask="url(#b)"/><path d="M.902 31.337L2.65 32.75h-.824L.902 32v-.66" fill="#234F24" mask="url(#b)"/><path d="M.902 30.67l2.57 2.08h-.823L.9 31.338v-.666" fill="#235024" mask="url(#b)"/><path d="M.902 30.004l3.384 2.747H3.47L.903 30.67v-.666" fill="#235225" mask="url(#b)"/><path d="M.902 29.344L5.11 32.75h-.824L.902 30.005v-.66" fill="#235325" mask="url(#b)"/><path d="M.902 28.678l5.03 4.073h-.823L.9 29.345v-.666" fill="#235425" mask="url(#b)"/><path d="M.902 28.01l5.845 4.74H5.93L.903 28.68v-.667" fill="#235626" mask="url(#b)"/><path d="M.902 27.35l6.667 5.4h-.823L.902 28.01v-.66" fill="#245726" mask="url(#b)"/><path d="M.902 26.684l7.49 6.067h-.823L.9 27.35v-.666" fill="#245826" mask="url(#b)"/><path d="M.902 26.024l8.306 6.727H8.39L.903 26.685v-.66" fill="#245927" mask="url(#b)"/><path d="M.902 25.358l9.127 7.393h-.822L.902 26.025v-.666" fill="#245B27" mask="url(#b)"/><path d="M.902 24.69l9.95 8.06h-.823L.9 25.36v-.667" fill="#245C27" mask="url(#b)"/><path d="M.902 24.026l10.772 8.725h-.822l-9.95-8.06v-.664" fill="#245D28" mask="url(#b)"/><path d="M.902 23.364L12.49 32.75h-.816L.902 24.027v-.662" fill="#245E28" mask="url(#b)"/><path d="M.902 22.698l12.41 10.053h-.823L.9 23.365v-.666" fill="#246028" mask="url(#b)"/><path d="M.902 22.037l13.23 10.714h-.82L.902 22.7v-.66" fill="#246129" mask="url(#b)"/><path d="M.902 21.37L14.95 32.75h-.817L.903 22.038v-.666" fill="#246229" mask="url(#b)"/><path d="M.902 20.705l14.87 12.046h-.822L.902 21.37v-.665" fill="#246329" mask="url(#b)"/><path d="M.902 20.038L16.594 32.75h-.822L.902 20.706v-.667" fill="#24652A" mask="url(#b)"/><path d="M.902 19.378L17.415 32.75h-.82L.9 20.04v-.66" fill="#25662A" mask="url(#b)"/><path d="M.902 18.713l17.33 14.038h-.817L.902 19.38v-.665" fill="#25672A" mask="url(#b)"/><path d="M.902 18.05l18.152 14.7h-.822L.902 18.714v-.662" fill="#25682B" mask="url(#b)"/><path d="M.902 17.385L19.875 32.75h-.82L.9 18.05v-.665" fill="#25692B" mask="url(#b)"/><path d="M.902 16.718l19.79 16.033h-.817L.902 17.386v-.667" fill="#256B2B" mask="url(#b)"/><path d="M.902 16.058L21.515 32.75h-.823L.902 16.72v-.66" fill="#256C2C" mask="url(#b)"/><path d="M.902 15.39l21.434 17.36h-.82L.9 16.06v-.667" fill="#256D2C" mask="url(#b)"/><path d="M.902 14.726l22.25 18.025h-.816L.902 15.39v-.664" fill="#256E2C" mask="url(#b)"/><path d="M.902 14.065L23.975 32.75h-.822L.903 14.727v-.66" fill="#256F2D" mask="url(#b)"/><path d="M.902 13.398L24.796 32.75h-.82L.9 14.066v-.667" fill="#25712D" mask="url(#b)"/><path d="M.902 12.733l24.71 20.018h-.816L.902 13.4v-.665" fill="#25722D" mask="url(#b)"/><path d="M.902 12.07l25.533 20.68h-.822L.903 12.734v-.662" fill="#25732E" mask="url(#b)"/><path d="M.902 11.406L27.257 32.75h-.822L.902 12.07v-.664" fill="#25742E" mask="url(#b)"/><path d="M.902 10.745l27.17 22.006h-.815L.902 11.407v-.66" fill="#26752E" mask="url(#b)"/><path d="M.902 10.078L28.895 32.75h-.822L.903 10.746v-.667" fill="#26762E" mask="url(#b)"/><path d="M.902 9.413L29.716 32.75h-.82L.9 10.08v-.665" fill="#26772F" mask="url(#b)"/><path d="M.902 8.746L30.54 32.75h-.824L.902 9.414v-.667" fill="#26782F" mask="url(#b)"/><path d="M.902 8.086l29.744 24.09v.575h-.107L.9 8.747v-.66" fill="#267A2F" mask="url(#b)"/><path d="M.902 7.42l29.744 24.09v.666L.902 8.086V7.42" fill="#267B30" mask="url(#b)"/><path d="M.902 6.758l29.744 24.085v.666L.902 7.42v-.662" fill="#267C30" mask="url(#b)"/><path d="M.902 6.093L30.646 30.18v.663L.902 6.758v-.665" fill="#267D30" mask="url(#b)"/><path d="M.902 5.426l29.744 24.09v.665L.902 6.094v-.667" fill="#267E30" mask="url(#b)"/><path d="M.902 4.765L30.646 28.85v.666L.902 5.426v-.66" fill="#267F31" mask="url(#b)"/><path d="M.902 4.1l29.744 24.09v.66L.902 4.765V4.1" fill="#268031" mask="url(#b)"/><path d="M.902 3.433l29.744 24.09v.666L.902 4.1v-.667" fill="#268131" mask="url(#b)"/><path d="M.902 2.773L30.646 26.86v.663L.902 3.433v-.66" fill="#268232" mask="url(#b)"/><path d="M.902 2.106l29.744 24.09v.665L.902 2.774v-.667" fill="#268332" mask="url(#b)"/><path d="M.902 1.44l29.744 24.09v.666L.902 2.106V1.44" fill="#278432" mask="url(#b)"/><path d="M1.24 1.053l29.406 23.81v.667L.902 1.44v-.387h.338" fill="#278532" mask="url(#b)"/><path d="M2.057 1.053l28.59 23.15v.66L1.24 1.053h.817" fill="#278633" mask="url(#b)"/><path d="M2.88 1.053l27.766 22.483v.667L2.056 1.053h.824" fill="#278733" mask="url(#b)"/><path d="M3.702 1.053l26.944 21.823v.66L2.88 1.053h.822" fill="#278833" mask="url(#b)"/><path d="M4.517 1.053l26.13 21.157v.666L3.7 1.053h.815" fill="#278933" mask="url(#b)"/><path d="M5.34 1.053l25.306 20.49v.667L4.516 1.053h.824" fill="#278A34" mask="url(#b)"/><path d="M6.162 1.053l24.484 19.83v.66L5.34 1.053h.822" fill="#278B34" mask="url(#b)"/><path d="M6.983 1.053l23.663 19.163v.667L6.162 1.053h.82" fill="#278C34" mask="url(#b)"/><path d="M7.8 1.053L30.646 19.55v.666L6.983 1.053H7.8" fill="#278C34" mask="url(#b)"/><path d="M8.622 1.053L30.646 18.89v.66L7.8 1.053h.822" fill="#278D35" mask="url(#b)"/><path d="M9.443 1.053l21.203 17.17v.666L8.622 1.052h.82" fill="#278E35" mask="url(#b)"/><path d="M10.26 1.053l20.386 16.504v.666L9.443 1.053h.817" fill="#278F35" mask="url(#b)"/><path d="M11.083 1.053l19.563 15.843v.66L10.26 1.054h.823" fill="#279035" mask="url(#b)"/><path d="M11.904 1.053L30.646 16.23v.666L11.083 1.053h.82" fill="#279136" mask="url(#b)"/><path d="M12.72 1.053l17.926 14.51v.667L11.904 1.053h.816" fill="#279136" mask="url(#b)"/><path d="M13.543 1.053l17.103 13.85v.66L12.72 1.053h.823" fill="#279236" mask="url(#b)"/><path d="M14.365 1.053l16.28 13.184v.666L13.544 1.053h.822" fill="#289336" mask="url(#b)"/><path d="M15.18 1.053L30.647 13.57v.667L14.366 1.053h.815" fill="#289436" mask="url(#b)"/><path d="M16.003 1.053L30.646 12.91v.66L15.18 1.053h.823" fill="#289537" mask="url(#b)"/><path d="M16.824 1.053l13.822 11.19v.667L16.003 1.053h.82" fill="#289537" mask="url(#b)"/><path d="M17.646 1.053l13 10.53v.66L16.824 1.053h.822" fill="#289637" mask="url(#b)"/><path d="M18.463 1.053l12.183 9.864v.666l-13-10.53h.817" fill="#289737" mask="url(#b)"/><path d="M19.286 1.053l11.36 9.197v.667L18.463 1.053h.823" fill="#289737" mask="url(#b)"/><path d="M20.106 1.053l10.54 8.532v.665l-11.36-9.197h.82" fill="#289837" mask="url(#b)"/><path d="M20.923 1.053l9.723 7.87v.662l-10.54-8.532h.817" fill="#289838" mask="url(#b)"/><path d="M21.746 1.053l8.9 7.204v.666l-9.723-7.87h.823M22.567 1.053l8.08 6.543v.66l-8.9-7.203h.82" fill="#289938" mask="url(#b)"/><path d="M23.384 1.053l7.262 5.877v.666l-8.08-6.543h.818" fill="#289A38" mask="url(#b)"/><path d="M24.206 1.053l6.44 5.212v.665l-7.262-5.877h.822" fill="#289A38" mask="url(#b)"/><path d="M30.646 6.265l-6.44-5.212h6.44v5.212" fill="#289A38" mask="url(#b)"/><path d="M11.216 13.114l.495.403h-.494v-.403" fill="#267F31" mask="url(#b)"/><path d="M11.216 12.454l1.312 1.063h-.817l-.494-.403v-.66" fill="#268031" mask="url(#b)"/><path d="M11.216 11.787l2.133 1.73h-.822l-1.312-1.063v-.667" fill="#268131" mask="url(#b)"/><path d="M11.216 11.12l2.955 2.397h-.82l-2.134-1.73v-.666" fill="#268232" mask="url(#b)"/><path d="M11.216 10.46l3.77 3.057h-.815l-2.954-2.396v-.66" fill="#268332" mask="url(#b)"/><path d="M11.216 9.794l4.593 3.723h-.823l-3.77-3.056v-.666" fill="#278432" mask="url(#b)"/><path d="M11.216 9.134l5.415 4.383h-.82l-4.594-3.723v-.66" fill="#278532" mask="url(#b)"/><path d="M11.968 9.074l5.48 4.443h-.817l-5.414-4.383v-.06h.752" fill="#278633" mask="url(#b)"/><path d="M12.79 9.074l5.48 4.443h-.822l-5.48-4.443h.823" fill="#278733" mask="url(#b)"/><path d="M13.613 9.074l5.48 4.443h-.824l-5.48-4.443h.823" fill="#278833" mask="url(#b)"/><path d="M14.43 9.074l4.754 3.853v.59h-.092l-5.48-4.443h.818" fill="#278933" mask="url(#b)"/><path d="M15.25 9.074l3.934 3.186v.667L14.43 9.074h.82" fill="#278A34" mask="url(#b)"/><path d="M16.073 9.074l3.11 2.52v.666l-3.932-3.186h.823" fill="#278B34" mask="url(#b)"/><path d="M16.89 9.074l2.294 1.858v.662l-3.11-2.52h.815M17.71 9.074l1.474 1.193v.665L16.89 9.074h.82" fill="#278C34" mask="url(#b)"/><path d="M18.533 9.074l.65.53v.663l-1.472-1.193h.823" fill="#278D35" mask="url(#b)"/><path d="M19.184 9.605l-.65-.53h.65v.53" fill="#278E35" mask="url(#b)"/><path d="M11.216 24.406l.408.333h-.408v-.334" fill="#256C2C" mask="url(#b)"/><path d="M11.216 23.746l1.23.993h-.822l-.408-.334v-.66" fill="#256D2C" mask="url(#b)"/><path d="M11.216 23.08l2.053 1.66h-.823l-1.23-.994v-.667" fill="#256E2C" mask="url(#b)"/><path d="M11.216 22.414l2.87 2.325h-.817l-2.054-1.66v-.666" fill="#256F2D" mask="url(#b)"/><path d="M11.216 21.752l3.69 2.987h-.82l-2.87-2.326v-.662" fill="#25712D" mask="url(#b)"/><path d="M11.216 21.086l4.513 3.653h-.823l-3.69-2.988v-.666" fill="#25722D" mask="url(#b)"/><path d="M11.216 20.42l5.33 4.32h-.817l-4.514-3.654v-.665" fill="#25732E" mask="url(#b)"/><path d="M11.554 20.027l5.813 4.712h-.822l-5.33-4.32v-.393h.34" fill="#25742E" mask="url(#b)"/><path d="M12.37 20.027l5.82 4.712h-.823l-5.813-4.713h.817" fill="#26752E" mask="url(#b)"/><path d="M13.193 20.027l5.813 4.712h-.817l-5.82-4.713h.823" fill="#26762E" mask="url(#b)"/><path d="M14.016 20.027l5.81 4.712h-.82l-5.813-4.713h.823" fill="#26772F" mask="url(#b)"/><path d="M14.83 20.027L20 24.214v.525h-.173l-5.81-4.713h.814" fill="#26782F" mask="url(#b)"/><path d="M15.654 20.027L20 23.552v.662l-5.17-4.187h.824" fill="#267A2F" mask="url(#b)"/><path d="M16.476 20.027L20 22.887v.665l-4.346-3.525h.822" fill="#267B30" mask="url(#b)"/><path d="M17.292 20.027L20 22.22v.667l-3.524-2.86h.816" fill="#267C30" mask="url(#b)"/><path d="M18.114 20.027L20 21.56v.66l-2.708-2.193h.822" fill="#267D30" mask="url(#b)"/><path d="M18.936 20.027l1.063.866v.667l-1.886-1.533h.822" fill="#267E30" mask="url(#b)"/><path d="M19.757 20.027l.242.2v.666l-1.064-.866h.82" fill="#267F31" mask="url(#b)"/><path d="M20 20.227l-.243-.2H20v.2" fill="#268031" mask="url(#b)"/></g><g transform="translate(293.7 11.924)"><mask id="d" fill="#fff"><use xlink:href="#c"/></mask><path d="M.784 32.063l.978.688H.784v-.687" fill="#234F24" mask="url(#d)"/><path d="M.784 31.444L2.65 32.75H1.76l-.978-.687v-.62" fill="#234F24" mask="url(#d)"/><path d="M.784 30.826L3.53 32.75h-.88L.783 31.445v-.618" fill="#235024" mask="url(#d)"/><path d="M.784 30.203l3.632 2.548H3.53L.784 30.827v-.623" fill="#235225" mask="url(#d)"/><path d="M.784 29.586l4.513 3.165h-.88L.783 30.204v-.617" fill="#235325" mask="url(#d)"/><path d="M.784 28.968l5.4 3.783h-.887L.784 29.587v-.618" fill="#235425" mask="url(#d)"/><path d="M.784 28.35l6.28 4.4h-.88l-5.4-3.782v-.618" fill="#235626" mask="url(#d)"/><path d="M.784 27.732l7.162 5.02h-.882L.784 28.35v-.618" fill="#245726" mask="url(#d)"/><path d="M.784 27.11l8.047 5.64h-.884L.784 27.733v-.623" fill="#245826" mask="url(#d)"/><path d="M.784 26.49l8.93 6.26H8.83L.785 27.11v-.62" fill="#245927" mask="url(#d)"/><path d="M.784 25.874L10.6 32.75h-.887l-8.93-6.26v-.616" fill="#245B27" mask="url(#d)"/><path d="M.784 25.255L11.48 32.75h-.88L.783 25.875v-.62" fill="#245C27" mask="url(#d)"/><path d="M.784 24.638l11.582 8.113h-.886L.784 25.256v-.617" fill="#245D28" mask="url(#d)"/><path d="M.784 24.02l12.463 8.73h-.88L.783 24.64v-.618" fill="#245E28" mask="url(#d)"/><path d="M.784 23.402l13.35 9.35h-.887L.784 24.02v-.618" fill="#246028" mask="url(#d)"/><path d="M.784 22.78l14.23 9.97h-.88L.784 23.403v-.623" fill="#246129" mask="url(#d)"/><path d="M.784 22.16L15.9 32.75h-.886L.784 22.78v-.62" fill="#246229" mask="url(#d)"/><path d="M.784 21.543L16.78 32.75h-.88L.785 22.16v-.617" fill="#246329" mask="url(#d)"/><path d="M.784 20.926L17.668 32.75h-.887L.785 21.544v-.617" fill="#24652A" mask="url(#d)"/><path d="M.784 20.308L18.55 32.75h-.882L.784 20.927v-.618" fill="#25662A" mask="url(#d)"/><path d="M.784 19.69l18.65 13.06h-.884L.784 20.31v-.62" fill="#25672A" mask="url(#d)"/><path d="M.784 19.072l19.532 13.68h-.88L.783 19.688v-.618" fill="#25682B" mask="url(#d)"/><path d="M.784 18.45l20.413 14.3h-.88L.783 19.073v-.623" fill="#25692B" mask="url(#d)"/><path d="M.784 17.83l21.3 14.92h-.887L.784 18.45v-.62" fill="#256B2B" mask="url(#d)"/><path d="M.784 17.214l22.18 15.537h-.88L.784 17.83v-.616" fill="#256C2C" mask="url(#d)"/><path d="M.784 16.595L23.85 32.75h-.885L.785 17.215v-.62" fill="#256D2C" mask="url(#d)"/><path d="M.784 15.977L24.73 32.75h-.88L.785 16.596v-.618" fill="#256E2C" mask="url(#d)"/><path d="M.784 15.354L25.618 32.75h-.887L.785 15.978v-.623" fill="#256F2D" mask="url(#d)"/><path d="M.784 14.737L26.5 32.75h-.882L.784 15.355v-.617" fill="#25712D" mask="url(#d)"/><path d="M.784 14.12l26.6 18.63H26.5L.784 14.738v-.618" fill="#25722D" mask="url(#d)"/><path d="M.784 13.5l27.483 19.25h-.882L.785 14.12v-.62" fill="#25732E" mask="url(#d)"/><path d="M.784 12.883l28.37 19.868h-.887L.784 13.5v-.617" fill="#25742E" mask="url(#d)"/><path d="M.784 12.265l29.25 20.486h-.88L.784 12.884v-.618" fill="#26752E" mask="url(#d)"/><path d="M.784 11.648L30.92 32.75h-.886L.784 12.266v-.617" fill="#26762E" mask="url(#d)"/><path d="M.784 11.025L31.7 32.675v.076h-.78L.784 11.65v-.623" fill="#26772F" mask="url(#d)"/><path d="M.784 10.406L31.7 32.056v.62L.783 11.025v-.62" fill="#26782F" mask="url(#d)"/><path d="M.784 9.788L31.7 31.438v.62L.783 10.405v-.618" fill="#267A2F" mask="url(#d)"/><path d="M.784 9.17L31.7 30.82v.618L.783 9.788V9.17" fill="#267B30" mask="url(#d)"/><path d="M.784 8.553L31.7 30.203v.618L.783 9.17v-.617" fill="#267C30" mask="url(#d)"/><path d="M.784 7.93L31.7 29.586v.617L.783 8.553V7.93" fill="#267D30" mask="url(#d)"/><path d="M.784 7.31L31.7 28.964v.623L.783 7.93v-.62" fill="#267E30" mask="url(#d)"/><path d="M.784 6.694L31.7 28.344v.62L.783 7.31v-.616" fill="#267F31" mask="url(#d)"/><path d="M.784 6.076L31.7 27.726v.618L.783 6.694v-.618" fill="#268031" mask="url(#d)"/><path d="M.784 5.46L31.7 27.11v.616L.783 6.076V5.46" fill="#268131" mask="url(#d)"/><path d="M.784 4.84L31.7 26.49v.62L.783 5.46v-.62" fill="#268232" mask="url(#d)"/><path d="M.784 4.222L31.7 25.874v.617L.783 4.84v-.618" fill="#268332" mask="url(#d)"/><path d="M.784 3.6L31.7 25.25v.624L.783 4.222V3.6" fill="#278432" mask="url(#d)"/><path d="M.784 2.982L31.7 24.632v.618L.783 3.6V2.98" fill="#278532" mask="url(#d)"/><path d="M.784 2.364L31.7 24.014v.618L.783 2.982v-.618" fill="#278633" mask="url(#d)"/><path d="M.784 1.747L31.7 23.397v.617L.783 2.364v-.617" fill="#278733" mask="url(#d)"/><path d="M.784 1.128L31.7 22.778v.62L.783 1.747v-.62" fill="#278833" mask="url(#d)"/><path d="M1.558 1.053l30.14 21.108v.62L.785 1.127v-.075h.774" fill="#278933" mask="url(#d)"/><path d="M2.44 1.053l29.26 20.49v.618L1.557 1.054h.882" fill="#278A34" mask="url(#d)"/><path d="M3.32 1.053L31.7 20.92v.623L2.44 1.053h.88" fill="#278B34" mask="url(#d)"/><path d="M4.207 1.053L31.7 20.303v.617L3.32 1.053h.887" fill="#278C34" mask="url(#d)"/><path d="M5.092 1.053L31.7 19.685v.618L4.206 1.053h.885" fill="#278C34" mask="url(#d)"/><path d="M5.974 1.053L31.7 19.066v.62L5.09 1.052h.882" fill="#278D35" mask="url(#d)"/><path d="M6.855 1.053L31.7 18.45v.616L5.973 1.053h.88" fill="#278E35" mask="url(#d)"/><path d="M7.74 1.053L31.7 17.826v.623L6.854 1.052h.886" fill="#278F35" mask="url(#d)"/><path d="M8.622 1.053L31.7 17.208v.618L7.74 1.053h.882" fill="#279035" mask="url(#d)"/><path d="M9.508 1.053l22.19 15.538v.618L8.623 1.053h.886" fill="#279136" mask="url(#d)"/><path d="M10.39 1.053l21.31 14.92v.618L9.507 1.054h.88" fill="#279136" mask="url(#d)"/><path d="M11.275 1.053l20.424 14.3v.62L10.39 1.052h.885" fill="#279236" mask="url(#d)"/><path d="M12.157 1.053L31.7 14.737v.617l-20.425-14.3h.882" fill="#289336" mask="url(#d)"/><path d="M13.044 1.053L31.7 14.12v.617L12.156 1.053h.887" fill="#289436" mask="url(#d)"/><path d="M13.924 1.053L31.7 13.496v.623L13.043 1.052h.88" fill="#289537" mask="url(#d)"/><path d="M14.81 1.053L31.7 12.877v.62L13.923 1.052h.887" fill="#289537" mask="url(#d)"/><path d="M15.69 1.053L31.7 12.26v.617L14.81 1.053h.88" fill="#289637" mask="url(#d)"/><path d="M16.578 1.053l15.12 10.59v.617L15.692 1.053h.888M17.458 1.053l14.24 9.972v.617L16.58 1.052h.88" fill="#289737" mask="url(#d)"/><path d="M18.345 1.053l13.354 9.35v.622L17.457 1.053h.887" fill="#289837" mask="url(#d)"/><path d="M19.226 1.053L31.7 9.783v.62l-13.355-9.35h.88" fill="#289838" mask="url(#d)"/><path d="M20.106 1.053L31.7 9.165v.618l-12.474-8.73h.88" fill="#289938" mask="url(#d)"/><path d="M20.993 1.053L31.7 8.548v.617L20.105 1.053h.887" fill="#289938" mask="url(#d)"/><path d="M21.874 1.053L31.7 7.93v.618L20.992 1.053h.88" fill="#289A38" mask="url(#d)"/><path d="M22.76 1.053L31.7 7.31v.62l-9.826-6.877h.887" fill="#289A38" mask="url(#d)"/><path d="M31.7 7.31l-8.94-6.257h8.94V7.31" fill="#289A38" mask="url(#d)"/><path d="M11.378 15.972l.226.156h-.226v-.156" fill="#267C30" mask="url(#d)"/><path d="M11.378 15.354l1.106.774h-.88l-.226-.156v-.618" fill="#267D30" mask="url(#d)"/><path d="M11.378 14.73l1.993 1.398h-.886l-1.106-.774v-.623" fill="#267E30" mask="url(#d)"/><path d="M11.378 14.114l2.873 2.014h-.88L11.38 14.73v-.616" fill="#267F31" mask="url(#d)"/><path d="M11.378 13.496l3.76 2.632h-.887l-2.872-2.014v-.618" fill="#268031" mask="url(#d)"/><path d="M11.378 12.877l4.64 3.25h-.88l-3.76-2.63v-.62" fill="#268131" mask="url(#d)"/><path d="M11.378 12.26l5.527 3.868h-.886l-4.642-3.25v-.618" fill="#268232" mask="url(#d)"/><path d="M11.378 11.642l6.41 4.486h-.883l-5.527-3.868v-.618" fill="#268332" mask="url(#d)"/><path d="M11.378 11.025l7.294 5.103h-.885l-6.41-4.486v-.617" fill="#278432" mask="url(#d)"/><path d="M11.378 10.402l8.176 5.726h-.882l-7.294-5.103v-.623" fill="#278532" mask="url(#d)"/><path d="M11.576 9.928l8.45 5.91v.29h-.472l-8.176-5.726v-.474h.198" fill="#278633" mask="url(#d)"/><path d="M12.463 9.928l7.564 5.29v.62l-8.45-5.91h.886" fill="#278733" mask="url(#d)"/><path d="M13.343 9.928l6.684 4.674v.617l-7.564-5.292h.88" fill="#278833" mask="url(#d)"/><path d="M14.23 9.928l5.797 4.056v.618l-6.684-4.674h.887" fill="#278933" mask="url(#d)"/><path d="M15.11 9.928l4.917 3.44v.616L14.23 9.928h.88" fill="#278A34" mask="url(#d)"/><path d="M15.997 9.928l4.03 2.816v.623l-4.917-3.44h.887" fill="#278B34" mask="url(#d)"/><path d="M16.88 9.928l3.147 2.197v.62l-4.03-2.817h.882M17.765 9.928l2.262 1.58v.617L16.88 9.928h.885" fill="#278C34" mask="url(#d)"/><path d="M18.646 9.928l1.38.962v.617l-2.26-1.58h.88" fill="#278D35" mask="url(#d)"/><path d="M19.532 9.928l.495.344v.618l-1.38-.962h.885" fill="#278E35" mask="url(#d)"/><path d="M20.027 10.272l-.495-.344h.495v.344" fill="#278F35" mask="url(#d)"/></g><g transform="translate(385.837 11.924)"><mask id="f" fill="#fff"><use xlink:href="#e"/></mask><path d="M.8 32.357l1.21.394H.8v-.393" fill="#234F24" mask="url(#f)"/><path d="M.8 31.895l2.617.856H2.01L.8 32.358v-.462" fill="#234F24" mask="url(#f)"/><path d="M.8 31.438l4.024 1.313H3.417L.8 31.896v-.457" fill="#235024" mask="url(#f)"/><path d="M.8 30.982l5.436 1.77H4.824L.8 31.437v-.456" fill="#235225" mask="url(#f)"/><path d="M.8 30.525l6.845 2.226h-1.41L.8 30.983v-.457" fill="#235325" mask="url(#f)"/><path d="M.8 30.063l8.25 2.688H7.646L.8 30.526v-.462" fill="#235425" mask="url(#f)"/><path d="M.8 29.607l9.664 3.144H9.05L.8 30.064v-.456" fill="#235626" mask="url(#f)"/><path d="M.8 29.15l10.6 3.444v.157h-.936L.8 29.608v-.457" fill="#245726" mask="url(#f)"/><path d="M.8 28.693l10.6 3.444v.457L.8 29.15v-.457" fill="#245826" mask="url(#f)"/><path d="M.8 28.23l10.6 3.45v.457L.8 28.693v-.462" fill="#245927" mask="url(#f)"/><path d="M.8 27.775l10.6 3.443v.463L.8 28.23v-.455" fill="#245B27" mask="url(#f)"/><path d="M.8 27.318l10.6 3.444v.456L.8 27.775v-.457" fill="#245C27" mask="url(#f)"/><path d="M.8 26.86l10.6 3.445v.457L.8 27.318v-.457" fill="#245D28" mask="url(#f)"/><path d="M.8 26.4l10.6 3.45v.455L.8 26.86v-.46" fill="#245E28" mask="url(#f)"/><path d="M.8 25.943l10.6 3.444v.462L.8 26.4v-.457" fill="#246028" mask="url(#f)"/><path d="M.8 25.486l10.6 3.444v.457L.8 25.943v-.457" fill="#246129" mask="url(#f)"/><path d="M.8 25.03l10.6 3.443v.457L.8 25.486v-.457" fill="#246229" mask="url(#f)"/><path d="M.8 24.567l10.6 3.45v.456L.8 25.03v-.463" fill="#246329" mask="url(#f)"/><path d="M.8 24.11l10.6 3.445v.462L.8 24.567v-.456" fill="#24652A" mask="url(#f)"/><path d="M.8 23.654l10.6 3.444v.457L.8 24.11v-.456" fill="#25662A" mask="url(#f)"/><path d="M.8 23.198l10.6 3.443v.458L.8 23.654v-.456" fill="#25672A" mask="url(#f)"/><path d="M.8 22.735l10.6 3.45v.456L.8 23.2v-.463" fill="#25682B" mask="url(#f)"/><path d="M.8 22.28l10.6 3.443v.462L.8 22.735v-.456" fill="#25692B" mask="url(#f)"/><path d="M.8 21.822l10.6 3.444v.457L.8 22.28v-.458" fill="#256B2B" mask="url(#f)"/><path d="M.8 21.366l10.6 3.443v.456L.8 21.822v-.456" fill="#256C2C" mask="url(#f)"/><path d="M.8 20.904l10.6 3.45v.455L.8 21.365v-.462" fill="#256D2C" mask="url(#f)"/><path d="M.8 20.447l10.6 3.444v.463L.8 20.903v-.456" fill="#256E2C" mask="url(#f)"/><path d="M.8 19.99l10.6 3.444v.457L.8 20.448v-.457" fill="#256F2D" mask="url(#f)"/><path d="M.8 19.534l10.6 3.444v.456L.8 19.99v-.456" fill="#25712D" mask="url(#f)"/><path d="M.8 19.072l10.6 3.45v.456L.8 19.534v-.462" fill="#25722D" mask="url(#f)"/><path d="M.8 18.615l10.6 3.444v.46L.8 19.073v-.457" fill="#25732E" mask="url(#f)"/><path d="M.8 18.158l10.6 3.444v.457L.8 18.614v-.457" fill="#25742E" mask="url(#f)"/><path d="M.8 17.702l10.6 3.444v.456L.8 18.158v-.456" fill="#26752E" mask="url(#f)"/><path d="M.8 17.24l10.6 3.45v.456L.8 17.702v-.462" fill="#26762E" mask="url(#f)"/><path d="M.8 16.783l10.6 3.444v.462L.8 17.24v-.457" fill="#26772F" mask="url(#f)"/><path d="M.8 16.326l10.6 3.444v.457L.8 16.783v-.457" fill="#26782F" mask="url(#f)"/><path d="M.8 15.87l10.6 3.444v.456L.8 16.326v-.456" fill="#267A2F" mask="url(#f)"/><path d="M.8 15.408l10.6 3.45v.456L.8 15.87v-.462" fill="#267B30" mask="url(#f)"/><path d="M.8 14.95l10.6 3.445v.462L.8 15.407v-.456" fill="#267C30" mask="url(#f)"/><path d="M.8 14.495l10.6 3.443v.457L.8 14.95v-.455" fill="#267D30" mask="url(#f)"/><path d="M.8 14.038l10.6 3.444v.456L.8 14.495v-.457" fill="#267E30" mask="url(#f)"/><path d="M.8 13.576l10.6 3.444v.462L.8 14.038v-.462" fill="#267F31" mask="url(#f)"/><path d="M.8 13.12l10.6 3.443v.457L.8 13.576v-.457" fill="#268031" mask="url(#f)"/><path d="M.8 12.663l10.6 3.443v.457L.8 13.12v-.457" fill="#268131" mask="url(#f)"/><path d="M.8 12.206l10.6 3.444v.456L.8 12.663v-.457" fill="#268232" mask="url(#f)"/><path d="M.8 11.744l10.6 3.45v.456L.8 12.206v-.462" fill="#268332" mask="url(#f)"/><path d="M.8 11.287l10.6 3.444v.463L.8 11.743v-.456" fill="#278432" mask="url(#f)"/><path d="M.8 10.83l10.6 3.444v.457L.8 11.288v-.456" fill="#278532" mask="url(#f)"/><path d="M.8 10.374l10.6 3.444v.456L.8 10.83v-.456" fill="#278633" mask="url(#f)"/><path d="M.8 9.912l10.6 3.444v.462L.8 10.374v-.462" fill="#278733" mask="url(#f)"/><path d="M.8 9.455L11.4 12.9v.456L.8 9.912v-.457" fill="#278833" mask="url(#f)"/><path d="M.8 9l10.6 3.443v.456L.8 9.454V9" fill="#278933" mask="url(#f)"/><path d="M.8 8.542l10.6 3.444v.457L.8 9V8.54" fill="#278A34" mask="url(#f)"/><path d="M.8 8.08l10.6 3.45v.456L.8 8.542V8.08" fill="#278B34" mask="url(#f)"/><path d="M.8 7.623l10.6 3.444v.462L.8 8.08v-.457" fill="#278C34" mask="url(#f)"/><path d="M.8 7.167l10.6 3.444v.457L.8 7.623v-.456" fill="#278C34" mask="url(#f)"/><path d="M.8 6.71l10.6 3.444v.457L.8 7.168V6.71" fill="#278D35" mask="url(#f)"/><path d="M.8 6.248l10.6 3.444v.462L.8 6.71v-.462" fill="#278E35" mask="url(#f)"/><path d="M.8 5.79l10.6 3.445v.457L.8 6.248V5.79" fill="#278F35" mask="url(#f)"/><path d="M.8 5.335L11.4 8.78v.455L.8 5.79v-.455" fill="#279035" mask="url(#f)"/><path d="M.8 4.878l10.6 3.444v.457L.8 5.334v-.457" fill="#279136" mask="url(#f)"/><path d="M.8 4.416l10.6 3.45v.456L.8 4.878v-.462" fill="#279136" mask="url(#f)"/><path d="M.8 3.96l10.6 3.443v.462L.8 4.415V3.96" fill="#279236" mask="url(#f)"/><path d="M.8 3.503l10.6 3.444v.456L.8 3.96v-.457" fill="#289336" mask="url(#f)"/><path d="M.8 3.046L11.4 6.49v.457L.8 3.503v-.457" fill="#289436" mask="url(#f)"/><path d="M.8 2.584l10.6 3.444v.462L.8 3.046v-.462" fill="#289537" mask="url(#f)"/><path d="M.8 2.128L11.4 5.57v.458L.8 2.584v-.456" fill="#289537" mask="url(#f)"/><path d="M.8 1.67l10.6 3.445v.456L.8 2.13V1.67" fill="#289637" mask="url(#f)"/><path d="M.8 1.214l10.6 3.444v.457L.8 1.67v-.456M1.735 1.06L11.4 4.2v.456L.8 1.214V1.06h.935" fill="#289737" mask="url(#f)"/><path d="M3.148 1.06l8.25 2.68v.462L1.736 1.06h1.413" fill="#289837" mask="url(#f)"/><path d="M4.556 1.06L11.4 3.282v.457L3.147 1.06h1.408" fill="#289838" mask="url(#f)"/><path d="M5.963 1.06L11.4 2.825v.457L4.555 1.06h1.407" fill="#289938" mask="url(#f)"/><path d="M7.376 1.06L11.4 2.363v.462L5.962 1.06h1.413" fill="#289938" mask="url(#f)"/><path d="M8.783 1.06l2.616.848v.456L7.375 1.06h1.407" fill="#289A38" mask="url(#f)"/><path d="M10.196 1.06l1.203.39v.458l-2.617-.85h1.413" fill="#289A38" mask="url(#f)"/><path d="M11.4 1.45l-1.204-.39H11.4v.39" fill="#289A38" mask="url(#f)"/></g><g transform="translate(398.214 11.924)"><mask id="h" fill="#fff"><use xlink:href="#g"/></mask><path d="M.806 32.095l1.01.656H.807v-.655" fill="#234F24" mask="url(#h)"/><path d="M.806 31.595l1.778 1.156h-.767l-1.01-.655v-.5" fill="#234F24" mask="url(#h)"/><path d="M.806 31.1l2.54 1.65h-.762L.806 31.596V31.1" fill="#235024" mask="url(#h)"/><path d="M.806 30.6l3.303 2.15h-.763L.807 31.1v-.5" fill="#235225" mask="url(#h)"/><path d="M.806 30.107l4.072 2.644h-.77L.807 30.6v-.493" fill="#235325" mask="url(#h)"/><path d="M.806 29.607L5.64 32.75H4.88L.806 30.108v-.5" fill="#235425" mask="url(#h)"/><path d="M.806 29.113l5.602 3.638H5.64L.807 29.608v-.494" fill="#235626" mask="url(#h)"/><path d="M.806 28.614l6.366 4.137h-.764L.806 29.114v-.5" fill="#245726" mask="url(#h)"/><path d="M.806 28.118l7.13 4.633H7.17L.806 28.615v-.496" fill="#245826" mask="url(#h)"/><path d="M.806 27.625l7.896 5.126h-.767L.805 28.12v-.493" fill="#245927" mask="url(#h)"/><path d="M.806 27.125l8.66 5.626H8.7L.806 27.626v-.5" fill="#245B27" mask="url(#h)"/><path d="M.806 26.63l9.428 6.12h-.77L.807 27.126v-.495" fill="#245C27" mask="url(#h)"/><path d="M.806 26.13l10.19 6.62h-.762L.806 26.63v-.5" fill="#245D28" mask="url(#h)"/><path d="M.806 25.637l10.96 7.114h-.77L.806 26.13v-.493" fill="#245E28" mask="url(#h)"/><path d="M.806 25.137l11.72 7.614h-.76L.805 25.638v-.5" fill="#246028" mask="url(#h)"/><path d="M.806 24.643L13.29 32.75h-.763L.807 25.138v-.494" fill="#246129" mask="url(#h)"/><path d="M.806 24.144l13.252 8.607h-.768L.806 24.644v-.5" fill="#246229" mask="url(#h)"/><path d="M.806 23.65l14.016 9.1h-.764L.806 24.145v-.495" fill="#246329" mask="url(#h)"/><path d="M.806 23.15l14.778 9.6h-.762L.806 23.65v-.5" fill="#24652A" mask="url(#h)"/><path d="M.806 22.656L16.352 32.75h-.768L.806 23.15v-.494" fill="#25662A" mask="url(#h)"/><path d="M.806 22.155L17.114 32.75h-.762L.806 22.657v-.5" fill="#25672A" mask="url(#h)"/><path d="M.806 21.66l17.077 11.09h-.77L.807 22.156v-.494" fill="#25682B" mask="url(#h)"/><path d="M.806 21.162l17.84 11.59h-.763L.806 21.66v-.5" fill="#25692B" mask="url(#h)"/><path d="M.806 20.667L19.408 32.75h-.762L.806 21.163v-.495" fill="#256B2B" mask="url(#h)"/><path d="M.806 20.168l19.37 12.583h-.768L.806 20.668v-.5" fill="#256C2C" mask="url(#h)"/><path d="M.806 19.674L20.94 32.75h-.763L.807 20.17v-.494" fill="#256D2C" mask="url(#h)"/><path d="M.806 19.18l20.9 13.57h-.766L.806 19.675v-.495" fill="#256E2C" mask="url(#h)"/><path d="M.806 18.68L22.47 32.75h-.763L.807 19.18v-.5" fill="#256F2D" mask="url(#h)"/><path d="M.806 18.18l22.428 14.57h-.764L.806 18.68v-.5" fill="#25712D" mask="url(#h)"/><path d="M.806 17.685L24 32.75h-.766L.806 18.18v-.495" fill="#25722D" mask="url(#h)"/><path d="M.806 17.192l23.958 15.56H24L.807 17.684v-.493" fill="#25732E" mask="url(#h)"/><path d="M.806 16.692l24.726 16.06h-.768L.806 17.19v-.5" fill="#25742E" mask="url(#h)"/><path d="M.806 16.197l25.49 16.554h-.764L.806 16.693v-.495" fill="#26752E" mask="url(#h)"/><path d="M.806 15.698l25.49 16.552v.5L.805 16.198v-.5" fill="#26762E" mask="url(#h)"/><path d="M.806 15.204l25.49 16.552v.494L.805 15.698v-.494" fill="#26772F" mask="url(#h)"/><path d="M.806 14.704l25.49 16.553v.5L.805 15.203v-.5" fill="#26782F" mask="url(#h)"/><path d="M.806 14.21l25.49 16.552v.495L.805 14.704v-.494" fill="#267A2F" mask="url(#h)"/><path d="M.806 13.71l25.49 16.553v.5L.805 14.21v-.5" fill="#267B30" mask="url(#h)"/><path d="M.806 13.215l25.49 16.554v.493L.805 13.71v-.495" fill="#267C30" mask="url(#h)"/><path d="M.806 12.716l25.49 16.552v.5L.805 13.216v-.5" fill="#267D30" mask="url(#h)"/><path d="M.806 12.222l25.49 16.552v.494L.805 12.716v-.494" fill="#267E30" mask="url(#h)"/><path d="M.806 11.722l25.49 16.56v.492L.805 12.222v-.5" fill="#267F31" mask="url(#h)"/><path d="M.806 11.228l25.49 16.552v.5L.805 11.723v-.494" fill="#268031" mask="url(#h)"/><path d="M.806 10.73l25.49 16.55v.5L.805 11.228v-.5" fill="#268131" mask="url(#h)"/><path d="M.806 10.234l25.49 16.553v.494L.805 10.73v-.496" fill="#268232" mask="url(#h)"/><path d="M.806 9.735l25.49 16.557v.495L.805 10.234v-.5" fill="#268332" mask="url(#h)"/><path d="M.806 9.24l25.49 16.553v.5L.805 9.734V9.24" fill="#278432" mask="url(#h)"/><path d="M.806 8.746L26.296 25.3v.493L.805 9.24v-.494" fill="#278532" mask="url(#h)"/><path d="M.806 8.246l25.49 16.552v.5L.805 8.747v-.5" fill="#278633" mask="url(#h)"/><path d="M.806 7.753l25.49 16.552v.493L.805 8.246v-.493" fill="#278733" mask="url(#h)"/><path d="M.806 7.253l25.49 16.552v.5L.805 7.753v-.5" fill="#278833" mask="url(#h)"/><path d="M.806 6.758l25.49 16.552v.495L.805 7.253v-.495" fill="#278933" mask="url(#h)"/><path d="M.806 6.26l25.49 16.55v.5L.805 6.758v-.5" fill="#278A34" mask="url(#h)"/><path d="M.806 5.764l25.49 16.553v.494L.805 6.26v-.496" fill="#278B34" mask="url(#h)"/><path d="M.806 5.265l25.49 16.552v.5L.805 5.764v-.5" fill="#278C34" mask="url(#h)"/><path d="M.806 4.77l25.49 16.553v.494L.805 5.265V4.77" fill="#278C34" mask="url(#h)"/><path d="M.806 4.272l25.49 16.552v.5L.805 4.77v-.498" fill="#278D35" mask="url(#h)"/><path d="M.806 3.777l25.49 16.552v.494L.805 4.272v-.495" fill="#278E35" mask="url(#h)"/><path d="M.806 3.277l25.49 16.558v.494L.805 3.776v-.5" fill="#278F35" mask="url(#h)"/><path d="M.806 2.782l25.49 16.554v.5L.805 3.275v-.494" fill="#279035" mask="url(#h)"/><path d="M.806 2.283l25.49 16.552v.5L.805 2.783v-.5" fill="#279136" mask="url(#h)"/><path d="M.806 1.79l25.49 16.55v.495L.805 2.283V1.79" fill="#279136" mask="url(#h)"/><path d="M.806 1.29l25.49 16.558v.493L.805 1.79v-.5" fill="#279236" mask="url(#h)"/><path d="M1.214 1.06l25.08 16.287v.5L.807 1.29v-.23h.408" fill="#289336" mask="url(#h)"/><path d="M1.978 1.06l24.317 15.788v.5L1.215 1.057h.763" fill="#289436" mask="url(#h)"/><path d="M2.745 1.06l23.55 15.294v.494L1.978 1.058h.767" fill="#289537" mask="url(#h)"/><path d="M3.508 1.06l22.787 14.8v.494L2.745 1.06h.763" fill="#289537" mask="url(#h)"/><path d="M4.275 1.06l22.02 14.3v.5L3.508 1.06h.767" fill="#289637" mask="url(#h)"/><path d="M5.04 1.06l21.255 13.806v.494L4.275 1.06h.764M5.802 1.06l20.493 13.305v.5L5.04 1.06H5.8" fill="#289737" mask="url(#h)"/><path d="M6.57 1.06l19.725 12.81v.495L5.802 1.06h.77" fill="#289837" mask="url(#h)"/><path d="M7.332 1.06L26.295 13.37v.5L6.57 1.058h.762" fill="#289838" mask="url(#h)"/><path d="M8.1 1.06l18.195 11.817v.495L7.332 1.06h.77" fill="#289938" mask="url(#h)"/><path d="M8.863 1.06l17.432 11.318v.5L8.1 1.057h.763" fill="#289938" mask="url(#h)"/><path d="M9.626 1.06l16.67 10.824v.494L8.862 1.058h.763" fill="#289A38" mask="url(#h)"/><path d="M10.395 1.06l15.9 10.324v.5L9.625 1.06h.77" fill="#289A38" mask="url(#h)"/><path d="M26.295 11.384L10.395 1.06h15.9v10.324" fill="#289A38" mask="url(#h)"/></g><g transform="translate(354.208 11.924)"><mask id="j" fill="#fff"><use xlink:href="#i"/></mask><path d="M1.192 28.27l7.162 4.48H1.192v-4.48M1.192 27.71l8.06 5.04h-.898l-7.162-4.48v-.56" fill="#234F24" mask="url(#j)"/><path d="M1.192 27.152l8.955 5.6H9.25L1.193 27.71v-.558" fill="#235024" mask="url(#j)"/><path d="M1.192 26.593l9.853 6.158h-.898l-8.955-5.598v-.56" fill="#235225" mask="url(#j)"/><path d="M1.192 26.03l10.75 6.72h-.897l-9.853-6.157v-.564" fill="#235325" mask="url(#j)"/><path d="M1.192 25.47l11.647 7.28h-.898l-10.75-6.72v-.56" fill="#235425" mask="url(#j)"/><path d="M1.192 24.91l12.545 7.84h-.898L1.19 25.47v-.56" fill="#235626" mask="url(#j)"/><path d="M1.192 24.347l13.44 8.404h-.895L1.192 24.91v-.563" fill="#245726" mask="url(#j)"/><path d="M1.192 23.79l14.332 8.96h-.89L1.19 24.348v-.558" fill="#245826" mask="url(#j)"/><path d="M1.192 23.23l15.23 9.52h-.898L1.192 23.79v-.56" fill="#245927" mask="url(#j)"/><path d="M1.192 22.67L17.32 32.75h-.9L1.193 23.23v-.56" fill="#245B27" mask="url(#j)"/><path d="M1.192 22.107L18.216 32.75h-.897L1.19 22.67v-.563" fill="#245C27" mask="url(#j)"/><path d="M1.192 21.55l17.92 11.2h-.896L1.192 22.108v-.558" fill="#245D28" mask="url(#j)"/><path d="M1.192 20.99L20.01 32.75h-.898l-17.92-11.2v-.56" fill="#245E28" mask="url(#j)"/><path d="M1.192 20.426L20.907 32.75h-.897L1.192 20.99v-.564" fill="#246028" mask="url(#j)"/><path d="M1.192 19.867l20.61 12.884h-.895L1.192 20.427v-.56" fill="#246129" mask="url(#j)"/><path d="M1.192 19.308l21.51 13.443h-.9L1.193 19.868v-.56" fill="#246229" mask="url(#j)"/><path d="M1.192 18.75l22.406 14H22.7L1.193 19.31v-.558" fill="#246329" mask="url(#j)"/><path d="M1.192 18.186l23.3 14.565h-.894l-22.406-14v-.564" fill="#24652A" mask="url(#j)"/><path d="M1.192 17.626L25.387 32.75h-.896L1.193 18.187v-.56" fill="#25662A" mask="url(#j)"/><path d="M1.192 17.068L26.284 32.75h-.897L1.192 17.627v-.558" fill="#25672A" mask="url(#j)"/><path d="M1.192 16.504l25.99 16.247h-.898L1.192 17.07v-.564" fill="#25682B" mask="url(#j)"/><path d="M1.192 15.945L28.078 32.75h-.896L1.192 16.505v-.56" fill="#25692B" mask="url(#j)"/><path d="M1.192 15.387L28.975 32.75h-.897L1.192 15.946v-.558" fill="#256B2B" mask="url(#j)"/><path d="M1.192 14.827l28.68 17.924h-.897L1.192 15.388v-.56" fill="#256C2C" mask="url(#j)"/><path d="M1.192 14.263L30.77 32.75h-.897L1.193 14.828v-.564" fill="#256D2C" mask="url(#j)"/><path d="M1.192 13.705l30.245 18.9v.146h-.667L1.192 14.264v-.558" fill="#256E2C" mask="url(#j)"/><path d="M1.192 13.147l30.245 18.9v.558l-30.245-18.9v-.558" fill="#256F2D" mask="url(#j)"/><path d="M1.192 12.58l30.245 18.902v.564l-30.245-18.9v-.565" fill="#25712D" mask="url(#j)"/><path d="M1.192 12.023l30.245 18.9v.56L1.192 12.58v-.557" fill="#25722D" mask="url(#j)"/><path d="M1.192 11.465l30.245 18.9v.558l-30.245-18.9v-.558" fill="#25732E" mask="url(#j)"/><path d="M1.192 10.9l30.245 18.906v.558l-30.245-18.9v-.563" fill="#25742E" mask="url(#j)"/><path d="M1.192 10.342l30.245 18.9v.564L1.192 10.9v-.558" fill="#26752E" mask="url(#j)"/><path d="M1.192 9.783l30.245 18.9v.56l-30.245-18.9v-.56" fill="#26762E" mask="url(#j)"/><path d="M1.192 9.22l30.245 18.904v.558L1.192 9.782V9.22" fill="#26772F" mask="url(#j)"/><path d="M1.192 8.66l30.245 18.9v.564L1.192 9.22v-.56" fill="#26782F" mask="url(#j)"/><path d="M1.192 8.102l30.245 18.9v.558L1.192 8.66v-.558" fill="#267A2F" mask="url(#j)"/><path d="M1.192 7.542l30.245 18.9v.56L1.192 8.102v-.56" fill="#267B30" mask="url(#j)"/><path d="M1.192 6.978l30.245 18.906v.56L1.192 7.54v-.564" fill="#267C30" mask="url(#j)"/><path d="M1.192 6.42l30.245 18.9v.564L1.192 6.978V6.42" fill="#267D30" mask="url(#j)"/><path d="M1.192 5.862l30.245 18.9v.558L1.192 6.42v-.558" fill="#267E30" mask="url(#j)"/><path d="M1.192 5.298l30.245 18.905v.558L1.192 5.863v-.564" fill="#267F31" mask="url(#j)"/><path d="M1.192 4.738l30.245 18.9v.565L1.192 5.298v-.56" fill="#268031" mask="url(#j)"/><path d="M1.192 4.18l30.245 18.9v.56L1.192 4.737V4.18" fill="#268131" mask="url(#j)"/><path d="M1.192 3.943l.146-.23 30.1 18.808v.56L1.19 4.18v-.237" fill="#268232" mask="url(#j)"/><path d="M1.338 3.712l.252-.403 29.847 18.653v.558L1.337 3.713" fill="#268332" mask="url(#j)"/><path d="M1.59 3.31l.253-.404L31.437 21.4v.563L1.59 3.31" fill="#278432" mask="url(#j)"/><path d="M1.843 2.906l.25-.403L31.438 20.84v.56L1.843 2.905" fill="#278532" mask="url(#j)"/><path d="M2.094 2.503l.253-.403 29.09 18.18v.56L2.094 2.502" fill="#278633" mask="url(#j)"/><path d="M2.347 2.1l.248-.403 28.842 18.02v.564L2.347 2.1" fill="#278733" mask="url(#j)"/><path d="M2.595 1.697l.252-.403 28.59 17.864v.56L2.595 1.697" fill="#278833" mask="url(#j)"/><path d="M2.847 1.294l.156-.252h.344L31.437 18.6v.558L2.847 1.294" fill="#278933" mask="url(#j)"/><path d="M4.244 1.042L31.437 18.04v.56L3.347 1.042h.897" fill="#278A34" mask="url(#j)"/><path d="M5.14 1.042l26.297 16.434v.564L4.244 1.042h.896" fill="#278B34" mask="url(#j)"/><path d="M6.038 1.042l25.4 15.876v.558L5.14 1.042h.898" fill="#278C34" mask="url(#j)"/><path d="M6.935 1.042L31.437 16.36v.558L6.037 1.042h.898" fill="#278C34" mask="url(#j)"/><path d="M7.832 1.042l23.605 14.752v.565L6.935 1.04h.897" fill="#278D35" mask="url(#j)"/><path d="M8.73 1.042l22.707 14.194v.558L7.832 1.042h.898" fill="#278E35" mask="url(#j)"/><path d="M9.626 1.042l21.81 13.635v.56L8.73 1.04h.896" fill="#278F35" mask="url(#j)"/><path d="M10.52 1.042L31.436 14.12v.557L9.627 1.042h.892" fill="#279035" mask="url(#j)"/><path d="M11.415 1.042l20.022 12.513v.564L10.52 1.04h.895" fill="#279136" mask="url(#j)"/><path d="M12.312 1.042l19.125 11.953v.56L11.415 1.042h.897" fill="#279136" mask="url(#j)"/><path d="M13.21 1.042l18.227 11.39v.563L12.312 1.042h.898" fill="#279236" mask="url(#j)"/><path d="M14.107 1.042l17.33 10.83v.56L13.21 1.042h.897" fill="#289336" mask="url(#j)"/><path d="M15.003 1.042l16.434 10.273v.558l-17.33-10.83h.896" fill="#289436" mask="url(#j)"/><path d="M15.9 1.042l15.537 9.713v.56L15.003 1.042h.898" fill="#289537" mask="url(#j)"/><path d="M16.798 1.042l14.64 9.15v.563L15.9 1.042h.898" fill="#289537" mask="url(#j)"/><path d="M17.694 1.042l13.743 8.59v.56l-14.64-9.15h.897" fill="#289637" mask="url(#j)"/><path d="M18.592 1.042l12.845 8.032v.56L17.694 1.04h.898" fill="#289737" mask="url(#j)"/><path d="M19.49 1.042L31.436 8.51v.564L18.592 1.042h.897" fill="#289737" mask="url(#j)"/><path d="M20.38 1.042l11.057 6.91v.558L19.49 1.042h.89" fill="#289837" mask="url(#j)"/><path d="M21.278 1.042l10.16 6.35v.56L20.38 1.04h.898" fill="#289838" mask="url(#j)"/><path d="M22.175 1.042l9.262 5.792v.558l-10.16-6.35h.898" fill="#289938" mask="url(#j)"/><path d="M23.073 1.042l8.364 5.228v.564l-9.262-5.792h.898" fill="#289938" mask="url(#j)"/><path d="M23.97 1.042l7.467 4.668v.56l-8.364-5.228h.896" fill="#289A38" mask="url(#j)"/><path d="M24.866 1.042l6.57 4.11v.558L23.97 1.042h.896M31.437 5.152l-6.57-4.11h6.57v4.11" fill="#289A38" mask="url(#j)"/></g><g transform="translate(322.58 11.924)"><mask id="l" fill="#fff"><use xlink:href="#k"/></mask><path d="M-.076 32.095l.737.656h-.736v-.655" fill="#234F24" mask="url(#l)"/><path d="M-.076 31.407l1.51 1.344H.66l-.736-.655v-.688" fill="#234F24" mask="url(#l)"/><path d="M-.076 30.72l2.29 2.03h-.78l-1.51-1.343v-.688" fill="#235024" mask="url(#l)"/><path d="M-.076 30.032l3.063 2.72h-.773l-2.29-2.033v-.688" fill="#235225" mask="url(#l)"/><path d="M-.076 29.344l3.84 3.407h-.777l-3.063-2.718v-.688" fill="#235325" mask="url(#l)"/><path d="M-.076 28.656L4.54 32.75h-.775l-3.84-3.406v-.688" fill="#235425" mask="url(#l)"/><path d="M-.076 27.963L5.32 32.75h-.78l-4.616-4.094v-.693" fill="#235626" mask="url(#l)"/><path d="M-.076 27.275l6.168 5.476H5.32l-5.396-4.787v-.688" fill="#245726" mask="url(#l)"/><path d="M-.076 26.588l6.942 6.163h-.774l-6.168-5.475v-.687" fill="#245826" mask="url(#l)"/><path d="M-.076 25.9l7.72 6.85h-.778L-.076 26.59V25.9" fill="#245927" mask="url(#l)"/><path d="M-.076 25.212l8.493 7.54h-.772L-.075 25.9v-.688" fill="#245B27" mask="url(#l)"/><path d="M-.076 24.525l9.272 8.226h-.78l-8.492-7.538v-.687" fill="#245C27" mask="url(#l)"/><path d="M-.076 23.832l10.046 8.92h-.774l-9.272-8.227v-.693" fill="#245D28" mask="url(#l)"/><path d="M-.076 23.144L10.75 32.75h-.78L-.076 23.833v-.688" fill="#245E28" mask="url(#l)"/><path d="M-.076 22.456l11.6 10.295h-.774L-.076 23.145v-.688" fill="#246028" mask="url(#l)"/><path d="M-.076 21.77l12.373 10.98h-.774l-11.6-10.294v-.687" fill="#246129" mask="url(#l)"/><path d="M-.076 21.08l13.15 11.67h-.777L-.076 21.77v-.69" fill="#246229" mask="url(#l)"/><path d="M-.076 20.393L13.848 32.75h-.773L-.075 21.08v-.687" fill="#246329" mask="url(#l)"/><path d="M-.076 19.706L14.628 32.75h-.78L-.076 20.394v-.687" fill="#24652A" mask="url(#l)"/><path d="M-.076 19.018L15.4 32.75h-.772L-.076 19.707v-.688" fill="#25662A" mask="url(#l)"/><path d="M-.076 18.325L16.18 32.75h-.78L-.075 19.02v-.693" fill="#25672A" mask="url(#l)"/><path d="M-.076 17.637l17.03 15.114h-.774L-.076 18.326v-.688" fill="#25682B" mask="url(#l)"/><path d="M-.076 16.95l17.81 15.8h-.78L-.077 17.638v-.688" fill="#25692B" mask="url(#l)"/><path d="M-.076 16.262l18.582 16.49h-.773L-.077 16.948v-.688" fill="#256B2B" mask="url(#l)"/><path d="M-.076 15.574L19.28 32.75h-.774L-.076 16.263v-.688" fill="#256C2C" mask="url(#l)"/><path d="M-.076 14.886L20.058 32.75h-.778L-.076 15.575v-.688" fill="#256D2C" mask="url(#l)"/><path d="M-.074 14.193L20.83 32.75h-.773L-.073 14.887v-.693" fill="#256E2C" mask="url(#l)"/><path d="M-.074 13.506L21.61 32.75h-.78L-.073 14.194v-.687" fill="#256F2D" mask="url(#l)"/><path d="M-.074 12.818l22.46 19.933h-.775L-.073 13.507v-.688" fill="#25712D" mask="url(#l)"/><path d="M-.074 12.13l23.238 20.62h-.78L-.073 12.82v-.688" fill="#25722D" mask="url(#l)"/><path d="M-.074 11.912l.23-.264L23.937 32.75h-.774L-.074 12.13v-.218" fill="#25732E" mask="url(#l)"/><path d="M.155 11.648L.5 11.26l24.21 21.49h-.772L.155 11.65" fill="#25742E" mask="url(#l)"/><path d="M.5 11.26l.34-.38 24.65 21.87h-.78L.5 11.26" fill="#26752E" mask="url(#l)"/><path d="M.84 10.88l.343-.39 25.08 22.26h-.774L.84 10.88" fill="#26762E" mask="url(#l)"/><path d="M1.183 10.49l.342-.384L27.042 32.75h-.78L1.183 10.49" fill="#26772F" mask="url(#l)"/><path d="M1.525 10.106l.338-.38L27.816 32.75h-.774L1.525 10.107" fill="#26782F" mask="url(#l)"/><path d="M1.863 9.725l.346-.388L28.594 32.75h-.78L1.864 9.726" fill="#267A2F" mask="url(#l)"/><path d="M2.21 9.337l.337-.388 26.82 23.8h-.772L2.21 9.338" fill="#267B30" mask="url(#l)"/><path d="M2.547 8.95l.342-.38 27.255 24.18h-.777L2.548 8.95" fill="#267C30" mask="url(#l)"/><path d="M2.89 8.57l.344-.387L30.92 32.75h-.775L2.89 8.57" fill="#267D30" mask="url(#l)"/><path d="M3.234 8.183l.34-.39 28.12 24.958h-.774L3.234 8.184" fill="#267E30" mask="url(#l)"/><path d="M3.573 7.794l.344-.38L32.473 32.75h-.78L3.574 7.795" fill="#267F31" mask="url(#l)"/><path d="M3.917 7.414l.343-.386L33.246 32.75h-.773L3.917 7.415" fill="#268031" mask="url(#l)"/><path d="M4.26 7.028l.34-.387 29.426 26.11h-.78L4.26 7.03" fill="#268131" mask="url(#l)"/><path d="M4.6 6.64l.342-.388 29.857 26.5h-.774L4.6 6.64" fill="#268232" mask="url(#l)"/><path d="M4.942 6.252l.34-.38 30.29 26.88H34.8L4.94 6.25" fill="#268332" mask="url(#l)"/><path d="M5.28 5.873l.346-.387L36.35 32.75h-.778L5.282 5.874" fill="#278432" mask="url(#l)"/><path d="M5.626 5.486l.342-.386 30.674 27.22v.43h-.29L5.625 5.487" fill="#278532" mask="url(#l)"/><path d="M5.968 5.1l.34-.383 30.334 26.91v.693L5.968 5.1" fill="#278633" mask="url(#l)"/><path d="M6.307 4.717l.342-.386L36.64 30.94v.687L6.307 4.717" fill="#278733" mask="url(#l)"/><path d="M6.65 4.33l.344-.386 29.648 26.308v.687L6.65 4.33" fill="#278833" mask="url(#l)"/><path d="M6.994 3.944l.338-.387 29.31 26.008v.687L6.994 3.944" fill="#278933" mask="url(#l)"/><path d="M7.332 3.557l.344-.38 28.966 25.7v.688L7.332 3.557" fill="#278A34" mask="url(#l)"/><path d="M7.676 3.176l.34-.388 28.626 25.4v.688L7.676 3.176" fill="#278B34" mask="url(#l)"/><path d="M8.015 2.788l.343-.385 28.284 25.092v.694L8.015 2.787" fill="#278C34" mask="url(#l)"/><path d="M8.358 2.403l.344-.383 27.94 24.788v.687L8.358 2.403" fill="#278C34" mask="url(#l)"/><path d="M8.702 2.02l.338-.386L36.642 26.12v.688L8.702 2.02" fill="#278D35" mask="url(#l)"/><path d="M9.04 1.634l.346-.388 27.256 24.186v.688L9.04 1.634" fill="#278E35" mask="url(#l)"/><path d="M9.386 1.246l.177-.204h.37l26.71 23.704v.686L9.385 1.246" fill="#278F35" mask="url(#l)"/><path d="M10.706 1.042l25.936 23.015v.69L9.932 1.04h.774" fill="#279035" mask="url(#l)"/><path d="M11.484 1.042L36.642 23.37v.687L10.706 1.042h.778M12.26 1.042l24.382 21.64v.687L11.484 1.04h.776" fill="#279136" mask="url(#l)"/><path d="M13.033 1.042l23.61 20.947v.692L12.26 1.042h.773" fill="#279236" mask="url(#l)"/><path d="M13.81 1.042l22.832 20.26v.687L13.032 1.04h.78" fill="#289336" mask="url(#l)"/><path d="M14.584 1.042l22.058 19.57v.69L13.812 1.04h.772" fill="#289436" mask="url(#l)"/><path d="M15.364 1.042l21.278 18.884v.687L14.585 1.043h.78M16.138 1.042l20.504 18.196v.688L15.364 1.042h.774" fill="#289537" mask="url(#l)"/><path d="M16.916 1.042L36.642 18.55v.688L16.138 1.042h.778" fill="#289637" mask="url(#l)"/><path d="M17.69 1.042L36.64 17.857v.693L16.916 1.042h.773" fill="#289737" mask="url(#l)"/><path d="M18.47 1.042L36.64 17.17v.687L17.69 1.042h.78" fill="#289737" mask="url(#l)"/><path d="M19.243 1.042l17.4 15.44v.688L18.468 1.042h.773" fill="#289837" mask="url(#l)"/><path d="M20.016 1.042l16.626 14.752v.688l-17.4-15.44h.774" fill="#289838" mask="url(#l)"/><path d="M20.794 1.042l15.848 14.065v.687L20.016 1.042h.778" fill="#289938" mask="url(#l)"/><path d="M21.568 1.042L36.642 14.42v.687L20.794 1.042h.774" fill="#289938" mask="url(#l)"/><path d="M22.347 1.042l14.295 12.69v.687L21.568 1.04h.78" fill="#289A38" mask="url(#l)"/><path d="M23.12 1.042L36.642 13.04v.69L22.347 1.043h.773M36.642 13.04L23.12 1.04h13.522V13.04" fill="#289A38" mask="url(#l)"/></g><path d="M324.823 26.88l3.823 2.517.117-.28-3.94-2.237m32.002-.01l-3.863 2.248.078.187 3.785-2.434" fill="#B39C00"/><path d="M328.763 29.117l-.117.28 2.535 1.668-1.805-1.602-.612-.346" fill="#1A5221"/><path d="M329.375 29.463l1.806 1.602 3.01 1.982-2.657-2.36-2.158-1.224" fill="#1A5221"/><path d="M331.533 30.687l2.658 2.36 2.996 1.97-3.512-3.115-2.14-1.215" fill="#1B5321"/><path d="M333.674 31.902l3.512 3.116 3.008 1.98-4.365-3.872-2.156-1.224" fill="#1B5421"/><path d="M335.83 33.126L340.193 37l.437.286.387-.247-3.03-2.69-2.158-1.224" fill="#1B5422"/><path d="M337.988 34.35l3.03 2.69.446-.29-1.34-1.187-2.136-1.213" fill="#1B5522"/><path d="M340.123 35.563l1.34 1.188.454-.29-.62-.55-.277.16-.897-.507M341.763 35.637l-.467.272.62.55.45-.29-.603-.533" fill="#1B5722"/><path d="M342.232 35.365l-.47.272.603.534.45-.288-.583-.517" fill="#1B5822"/><path d="M342.7 35.092l-.468.273.583.517.45-.29-.565-.5" fill="#1B5922"/><path d="M343.168 34.82l-.468.272.564.5.45-.288-.546-.485" fill="#1B5922"/><path d="M343.636 34.546l-.468.273.546.484.45-.29-.528-.468" fill="#1B5A23"/><path d="M344.106 34.274l-.47.272.528.468.45-.29-.508-.45" fill="#1B5B23"/><path d="M344.575 34l-.47.274.508.45.45-.29-.488-.434" fill="#1B5C23"/><path d="M345.044 33.728l-.47.272.49.435.45-.29-.47-.417" fill="#1B5C24"/><path d="M345.51 33.457l-.466.27.47.418.447-.288-.45-.4" fill="#1B5D24"/><path d="M345.98 33.183l-.47.274.45.4.453-.29-.433-.384" fill="#1B5E24"/><path d="M346.45 32.91l-.47.273.433.384.452-.29-.416-.367" fill="#1B5E24"/><path d="M346.918 32.637l-.47.273.417.367.45-.29-.397-.35" fill="#1B5F25"/><path d="M347.387 32.364l-.47.273.397.35.45-.288-.377-.336" fill="#1B6025"/><path d="M347.856 32.09l-.47.274.378.335.45-.29-.358-.32" fill="#1B6125"/><path d="M348.324 31.82l-.468.27.36.32.447-.29-.34-.3" fill="#1B6125"/><path d="M348.79 31.547l-.466.272.34.3.45-.288-.323-.285" fill="#1B6225"/><path d="M349.26 31.275l-.47.272.323.285.448-.29-.3-.267" fill="#1B6325"/><path d="M349.732 31l-.473.275.3.268.454-.292-.282-.25M350.2 30.727l-.468.272.282.25.45-.288-.265-.235" fill="#1B6325"/><path d="M350.667 30.455l-.468.272.263.235.45-.288-.246-.22" fill="#1B6426"/><path d="M351.136 30.18l-.47.275.247.22.45-.292-.227-.202" fill="#1B6526"/><path d="M351.603 29.91l-.467.27.227.203.45-.288-.21-.185" fill="#1B6626"/><path d="M352.072 29.637l-.47.273.21.185.45-.29-.19-.168" fill="#1B6626"/><path d="M352.54 29.364l-.468.273.19.17.45-.29-.172-.153" fill="#1B6727"/><path d="M352.962 29.118l-.422.246.172.153.328-.212-.078-.187" fill="#1B6727"/><g transform="translate(323.954 16.05)"><mask id="n" fill="#fff"><use xlink:href="#m"/></mask><path d="M.843 1.203V20.44 1.204" fill="#ED7203" mask="url(#n)"/></g><g transform="translate(323.954 21.55)"><mask id="q" fill="#fff"><use xlink:href="#o"/></mask><path d="M.843-4.297h7.214V14.94H.843V-4.297z" fill="url(#p)" mask="url(#q)"/></g><g transform="translate(330.83 16.05)"><mask id="t" fill="#fff"><use xlink:href="#r"/></mask><path d="M1.183 1.205h24.812V20.44H1.183V1.206z" fill="url(#s)" mask="url(#t)"/></g><g transform="translate(323.954 16.05)"><mask id="v" fill="#fff"><use xlink:href="#u"/></mask><path d="M32.87 20.44V1.204 20.44" fill="#FAB900" mask="url(#v)"/></g><g transform="translate(334.955 20.176)"><mask id="x" fill="#fff"><use xlink:href="#w"/></mask><path d="M.098.935v11.52V.934" fill="#213A7A" mask="url(#x)"/></g><g transform="translate(334.955 20.176)"><mask id="A" fill="#fff"><use xlink:href="#y"/></mask><path d="M.098.935h5.064v11.52H.098V.934z" fill="url(#z)" mask="url(#A)"/></g><g transform="translate(339.08 20.176)"><mask id="D" fill="#fff"><use xlink:href="#B"/></mask><path d="M1.037.935h6.45v11.52h-6.45V.934z" fill="url(#C)" mask="url(#D)"/></g><g transform="translate(334.955 20.176)"><mask id="F" fill="#fff"><use xlink:href="#E"/></mask><path d="M11.613 12.454V.934v11.52" fill="#1F70B1" mask="url(#F)"/></g><path d="M335.313 25.158c-.107.344-.184.707-.227 1.076 3.626-1.04 8.013-.153 11.242 2.286.105-.34.176-.696.215-1.062-3.28-2.308-7.564-3.176-11.23-2.3" fill="#FFF"/><path d="M169.428 19.042h.853l2.715 4.07 2.716-4.07h.854v7.456h-.842v-6.043l-2.717 3.995h-.042l-2.716-3.984v6.032h-.82v-7.456M178.345 18.877h.94v.905h-.94v-.905zm.052 2.11h.824v5.51h-.823v-5.51zM180.91 20.987h.822v.963c.184-.303.43-.553.723-.766.3-.207.686-.315 1.162-.315.33 0 .63.055.888.16.26.107.483.26.66.456.183.194.322.425.417.695.095.27.145.57.145.898v3.42h-.82v-3.21c0-.512-.133-.913-.393-1.214-.267-.297-.644-.445-1.13-.445-.236 0-.456.04-.655.12-.206.082-.382.2-.53.35-.148.154-.262.338-.343.55-.085.21-.125.445-.125.7V26.5h-.82v-5.51M187.282 18.877h.938v.905h-.938v-.905zm.055 2.11h.82v5.51h-.82v-5.51zM191.673 26.605c-.4 0-.802-.073-1.205-.22-.406-.144-.764-.342-1.077-.59l.418-.587c.294.227.608.402.93.523.326.123.65.184.975.184.334 0 .61-.08.82-.237.214-.157.318-.37.318-.64v-.02c0-.136-.037-.253-.11-.354-.073-.1-.175-.185-.304-.26-.125-.074-.274-.14-.44-.196-.166-.058-.34-.112-.517-.158-.213-.067-.43-.138-.65-.21-.215-.077-.406-.168-.58-.284-.177-.114-.314-.256-.427-.426-.11-.17-.163-.385-.163-.64v-.022c0-.233.044-.447.136-.642.09-.197.225-.362.39-.5.164-.142.363-.247.593-.32.233-.075.484-.112.753-.112.342 0 .684.053 1.032.163.348.112.664.26.95.442l-.375.616c-.253-.16-.525-.29-.803-.39-.283-.09-.557-.142-.83-.142-.322 0-.584.078-.773.228-.194.156-.29.344-.29.572v.022c0 .128.042.24.12.335.076.098.18.18.313.252.13.07.283.135.453.192.168.055.348.115.53.17.218.063.427.135.64.215.207.076.397.176.566.297.173.118.308.264.41.435.104.17.155.38.155.628v.022c0 .264-.05.497-.153.697-.103.206-.238.375-.415.515-.174.145-.378.255-.62.328-.236.074-.49.112-.77.112M196.786 26.594c-.22 0-.428-.03-.62-.086-.193-.054-.358-.15-.493-.273-.14-.123-.25-.284-.327-.482-.076-.2-.117-.44-.117-.717v-3.32h-.77v-.73h.77v-1.66h.82v1.66h1.746v.73h-1.747v3.206c0 .34.085.58.256.712.168.134.393.2.67.2.14 0 .276-.01.4-.037.123-.03.258-.076.4-.143v.704c-.142.08-.293.14-.45.177-.165.04-.342.06-.54.06M199.524 24.08c.03.29.097.55.213.777.108.226.26.417.434.574.176.16.378.276.602.358.22.083.447.126.69.126.384 0 .712-.075.985-.215.273-.143.524-.33.75-.566l.513.46c-.274.31-.592.562-.948.75-.357.188-.796.283-1.32.283-.378 0-.733-.07-1.066-.207-.335-.143-.624-.337-.874-.59-.25-.25-.444-.556-.593-.91-.143-.356-.217-.746-.217-1.174 0-.395.063-.773.195-1.12.132-.354.314-.658.55-.92.234-.257.512-.464.837-.61.323-.15.676-.227 1.058-.227.406 0 .768.077 1.09.23.317.155.587.362.81.622.218.264.385.573.5.93.11.354.168.735.168 1.14v.12l-.007.167h-4.37zm3.546-.663c-.02-.25-.077-.485-.16-.71-.083-.22-.2-.42-.347-.59-.145-.167-.32-.305-.53-.402-.21-.103-.452-.15-.72-.15-.235 0-.455.042-.66.137-.207.092-.39.22-.545.387-.155.164-.285.36-.39.585-.102.228-.165.473-.194.733l3.546.01zm-1.236-4.805l.854.392-1.207 1.155h-.658l1.012-1.548zM205.126 20.987h.82v1.44c.097-.227.225-.436.377-.627.15-.194.316-.36.507-.498.193-.14.403-.243.63-.315.225-.07.473-.1.736-.093v.883h-.064c-.298 0-.58.053-.847.16-.267.105-.5.267-.697.482-.2.21-.358.475-.47.79-.113.317-.172.68-.172 1.092v2.196h-.82v-5.51M209.25 18.877h.94v.905h-.94v-.905zm.054 2.11h.815v5.51h-.816v-5.51zM214.332 26.627c-.413 0-.794-.077-1.142-.232-.346-.15-.65-.356-.902-.618-.258-.258-.46-.56-.6-.905-.142-.345-.213-.71-.213-1.103v-.024c0-.39.07-.756.214-1.107.14-.348.34-.654.598-.918.253-.26.558-.467.906-.62.352-.155.74-.233 1.158-.233.416 0 .794.077 1.147.23.35.155.652.36.91.617.253.263.455.562.595.908.143.34.215.71.215 1.103v.018c0 .393-.076.762-.22 1.11-.145.348-.343.655-.6.917-.257.26-.565.47-.92.622-.354.155-.737.232-1.148.232zm.02-.737c.3 0 .574-.056.82-.172.25-.114.46-.265.642-.46.18-.188.315-.412.414-.67.103-.253.15-.527.15-.82v-.022c0-.297-.054-.575-.157-.835-.1-.257-.242-.486-.43-.682-.184-.194-.4-.35-.65-.46-.25-.115-.518-.17-.808-.17-.3 0-.575.055-.82.17-.248.11-.46.266-.633.457-.175.194-.31.415-.412.677-.1.257-.15.533-.15.826v.018c0 .303.05.58.154.838.104.262.248.486.427.675.176.193.395.344.64.458.25.116.523.172.812.172zM223.785 26.614c-.34 0-.658-.064-.97-.19-.315-.128-.597-.315-.842-.56-.253-.245-.45-.543-.598-.897-.15-.35-.227-.753-.227-1.207v-.02c0-.45.076-.852.227-1.206.15-.353.345-.656.598-.898.245-.247.527-.434.84-.57.314-.127.633-.197.972-.197.253 0 .488.036.7.098.213.062.4.148.576.254.17.108.325.23.464.376.136.14.26.29.37.444v-3.32h.816v7.776h-.817v-1.11c-.114.164-.244.32-.377.47-.142.148-.297.28-.468.395-.17.113-.36.2-.57.264-.208.065-.44.097-.693.097zm.144-.735c.256 0 .504-.053.743-.155.237-.103.45-.25.638-.434.19-.19.335-.415.45-.672.11-.26.162-.55.162-.872v-.018c0-.32-.053-.61-.163-.872-.115-.256-.26-.478-.45-.664-.187-.183-.4-.326-.637-.432-.24-.102-.487-.154-.744-.154-.27 0-.524.048-.757.144-.23.097-.436.236-.608.414-.176.182-.314.405-.42.67-.103.26-.15.56-.15.894v.018c0 .33.047.624.15.886.106.264.244.487.42.67.183.187.386.328.62.43.234.098.483.147.744.147zM229.967 26.614c-.25 0-.503-.038-.752-.106-.247-.07-.47-.18-.66-.325-.195-.144-.346-.324-.466-.538-.118-.214-.174-.46-.174-.745v-.022c0-.3.055-.558.17-.784.113-.226.274-.408.483-.56.21-.147.457-.26.746-.34.286-.078.606-.116.95-.116.356 0 .664.02.925.06.263.046.514.1.763.175v-.172c0-.486-.144-.853-.428-1.104-.284-.25-.684-.376-1.2-.376-.33 0-.626.035-.89.107-.27.07-.53.166-.788.287l-.242-.676c.306-.143.612-.26.924-.344.314-.087.67-.128 1.08-.128.78 0 1.37.2 1.777.605.384.383.575.927.575 1.62v3.368h-.81v-.82c-.19.248-.45.467-.773.655-.324.188-.726.28-1.213.28zm.17-.672c.254 0 .49-.034.71-.107.218-.07.412-.17.58-.302.165-.128.298-.284.39-.467.098-.178.146-.38.146-.598v-.51c-.206-.055-.438-.107-.7-.157-.26-.047-.565-.072-.904-.072-.508 0-.908.1-1.185.3-.282.202-.42.472-.42.802v.02c0 .17.038.324.11.46.078.14.178.254.303.345.13.093.278.166.443.216.166.046.344.072.527.072zM188.22 38.462c-.57 0-1.125-.096-1.672-.292-.55-.196-1.046-.493-1.494-.9l.97-1.16c.34.275.694.495 1.05.66.356.163.75.244 1.18.244.337 0 .602-.062.79-.187.19-.12.283-.293.283-.516v-.02l-.057-.283-.225-.23c-.112-.068-.267-.143-.46-.213-.196-.067-.45-.143-.764-.22-.377-.095-.72-.197-1.026-.31-.304-.115-.563-.255-.776-.422-.216-.166-.384-.375-.498-.624-.118-.246-.177-.556-.177-.927v-.02c0-.34.063-.647.19-.92.13-.276.305-.51.535-.71.228-.2.504-.35.822-.457.32-.108.67-.158 1.053-.158.545 0 1.05.08 1.508.242.457.165.88.398 1.264.702l-.852 1.236c-.334-.227-.662-.406-.984-.538-.32-.13-.64-.198-.958-.198-.318 0-.558.062-.717.19-.162.122-.24.273-.24.46v.024l.067.31.252.243c.12.07.287.137.498.203.207.064.475.135.797.222.376.1.713.212 1.008.335.296.124.543.273.747.45.204.172.356.376.462.612.1.236.153.513.153.84v.023c0 .368-.07.697-.202.983-.135.288-.32.532-.56.726-.242.197-.525.346-.86.446-.332.102-.7.154-1.105.154M193.61 38.462c-.27 0-.522-.036-.76-.11-.237-.074-.448-.187-.623-.334-.18-.152-.32-.334-.422-.55-.105-.218-.154-.468-.154-.753v-.02c0-.314.057-.582.17-.81.114-.227.272-.414.477-.566.202-.148.44-.262.718-.333.282-.075.594-.113.936-.113.293 0 .547.02.762.062.22.045.43.1.634.173v-.1c0-.338-.103-.597-.307-.774-.207-.18-.514-.266-.918-.266-.315 0-.586.024-.828.08-.24.052-.487.128-.75.225l-.404-1.235c.31-.134.637-.244.98-.33.343-.084.752-.128 1.236-.128.45 0 .83.055 1.145.164.32.113.58.268.784.475.216.214.37.475.467.786.102.308.153.652.153 1.038v3.312h-1.565v-.616c-.2.22-.436.4-.715.527-.278.132-.615.195-1.014.195zm.49-1.118c.384 0 .693-.094.92-.278.232-.183.35-.422.35-.72v-.29c-.144-.065-.302-.118-.474-.154-.177-.04-.364-.057-.565-.057-.344 0-.62.066-.814.2-.2.134-.3.328-.3.586v.023c0 .22.08.39.247.513.163.12.374.178.637.178zM199.98 38.462c-.616 0-1.093-.187-1.433-.563-.335-.377-.504-.896-.504-1.555v-3.7h1.618v3.18c0 .38.088.67.258.864.17.193.41.293.724.293.315 0 .56-.1.737-.294.186-.195.277-.485.277-.866v-3.18h1.615v5.712h-1.615v-.815l-.304.35c-.114.108-.237.21-.373.293-.133.088-.28.157-.446.206-.162.05-.345.072-.554.072zm1.11-8.332l1.393.608-1.363 1.278h-1.236l1.205-1.886zM206.855 38.462c-.34 0-.66-.062-.97-.19-.313-.126-.592-.318-.833-.57-.243-.25-.436-.56-.58-.926-.143-.367-.22-.79-.22-1.268v-.017c0-.475.077-.895.22-1.263.144-.364.337-.67.573-.924.238-.254.518-.443.827-.57.314-.13.64-.193.983-.193.43 0 .79.086 1.068.256.282.172.517.368.707.595v-2.813h1.62v7.78h-1.62v-.82c-.195.268-.437.493-.718.666-.276.17-.634.26-1.057.26zm.416-1.37c.19 0 .37-.04.535-.115.168-.073.316-.182.44-.32.122-.136.22-.305.297-.497.072-.196.11-.413.11-.652v-.017c0-.234-.038-.448-.11-.644-.077-.196-.175-.36-.298-.5s-.27-.244-.44-.322c-.163-.073-.343-.11-.533-.11-.194 0-.373.037-.538.11-.167.078-.315.183-.444.323-.128.138-.228.3-.304.494-.074.193-.112.41-.112.65v.018c0 .24.038.456.112.652.076.192.176.36.304.498.13.137.277.246.444.32.165.073.344.113.54.113zM214.195 38.485c-.427 0-.823-.073-1.19-.214-.365-.14-.683-.343-.945-.604-.268-.266-.477-.575-.625-.934-.15-.36-.228-.76-.228-1.197v-.027c0-.4.072-.784.21-1.147.144-.36.336-.676.584-.947.248-.27.54-.483.888-.64.346-.155.724-.233 1.145-.233.477 0 .89.086 1.235.256.35.172.64.4.87.687.233.286.4.62.508.99.11.373.17.76.17 1.165l-.01.207-.016.22h-3.972c.08.368.244.65.485.84.243.186.547.28.91.28.273 0 .512-.047.726-.138.214-.094.433-.242.66-.45l.925.82c-.268.335-.594.6-.98.786-.384.187-.837.282-1.35.282zm1.044-3.432c-.052-.36-.18-.654-.386-.878-.205-.224-.48-.335-.82-.335-.34 0-.615.108-.827.332-.208.218-.345.513-.41.88h2.442z" fill="#000100"/><path d="M131.102 34.44h-2.194c-.058.394.098.654.422.81.304.142.572.072.758-.214.264-.403.565.022.84-.09l.087.116c-.187.21-.344.476-.576.623-1.004.647-2.277.032-2.397-1.152-.027-.293 0-.612.068-.9.167-.73.745-1.154 1.47-1.118.787.037 1.306.498 1.427 1.272.022.138.063.278.095.417v.237zm-2.194-.51h1.297c0-.52-.235-.797-.64-.802-.397-.004-.636.28-.657.8zM51.443 18.43h47.002v16.705c-.152.01-.304.028-.455.028-6.33 0-12.66-.003-18.993.004-.38 0-.654-.097-.93-.38-4.932-5.042-9.884-10.07-14.82-15.112-.25-.254-.503-.36-.856-.382-2.182-.158-4.363-.345-6.542-.52-1.154-.087-2.312-.17-3.47-.26-.313-.025-.623-.072-.935-.106v.022" fill="#174D8D"/><path d="M78.86 37.15c-.296 0-.477.005-.662 0-2.952-.037-5.907-.037-8.86-.127-3.597-.104-7.192-.258-10.787-.448-2.71-.144-5.414-.373-8.12-.576-1.066-.084-2.124-.213-3.187-.315-.213-.022-.31-.113-.287-.33V19.255c0-.12.01-.232.023-.414.564.066 1.106.14 1.647.193 2.267.236 4.528.51 6.8.697 2.178.18 4.366.26 6.548.406.17.01.36.14.486.267 4.657 4.746 9.304 9.5 13.95 14.25.79.808 1.585 1.617 2.45 2.498M81.195.9v16.423c-.158.01-.3.02-.44.02-5.224.004-10.45-.002-15.672.012-.374 0-.488-.092-.488-.48.013-5.184.01-10.366 0-15.552 0-.337.08-.458.44-.453C70.28.883 75.53.877 80.78.877c.133 0 .26.017.415.022M62.688 37.692l16.567.368c.184 2.53.32 5 .557 7.47.233 2.46.566 4.91.862 7.402H63.94c-.413-5.06-.83-10.12-1.252-15.24M14.673 19.363c1.623 0 3.178 0 4.732.003.106 0 .208.016.368.027v.437c0 3.756.03 7.52-.02 11.28-.016 1.083.87 2.51 2.213 2.823 1.583.37 3.195-.44 3.736-1.958.082-.227.12-.482.12-.73.01-3.8.014-7.597-.003-11.395 0-.394.12-.504.493-.484.516.033 1.03.02 1.543.008.232-.008.326.062.326.313-.006 3.838.067 7.683-.037 11.516-.044 1.615-.9 2.978-2.148 4.05-2.562 2.2-7.605 2.315-10.1-1-.797-1.06-1.23-2.25-1.225-3.592.007-3.616 0-7.23 0-10.846v-.45M29.97 36.27v-2.407c.15-.007.287-.022.426-.022 1.664 0 3.325 0 4.99-.003.934 0 1.752-.627 1.98-1.513.218-.85-.148-1.74-.985-2.17-.472-.236-1.014-.352-1.533-.472-1.32-.305-2.6-.708-3.64-1.624-1.462-1.284-2.003-2.924-1.62-4.808.387-1.918 1.568-3.19 3.456-3.744.534-.156 1.11-.237 1.665-.245 1.823-.026 3.642-.01 5.463-.01h.465v2.135c-.37 0-.71-.003-1.047 0-1.136.016-2.27-.003-3.4.06-.81.056-1.37.64-1.436 1.344-.08.83.346 1.503 1.145 1.767.9.298 1.802.584 2.705.866 1.787.562 2.854 1.76 3.22 3.593.433 2.183.135 4.19-1.558 5.78-1.022.963-2.273 1.46-3.694 1.468-2.03.013-4.06.006-6.094.006h-.505M.997 36.25v-2.387c.157-.007.31-.022.465-.022 1.582-.003 3.164-.042 4.747.016 1.175.04 2.096-.81 2.21-1.732.128-1.08-.57-1.99-1.75-2.292-.827-.212-1.675-.358-2.475-.65C2.3 28.503.985 27.253.578 25.2c-.495-2.497.958-4.945 3.414-5.68.548-.165 1.134-.245 1.704-.257 1.833-.03 3.668 0 5.502-.018.394-.004.504.12.475.492-.03.406-.022.82 0 1.226.018.32-.08.437-.42.434-1.16-.02-2.32-.012-3.482-.005-.257.004-.53.02-.78.084-.723.166-1.19.723-1.222 1.417-.032.782.364 1.403 1.09 1.652.91.306 1.83.588 2.745.88l.296.113c2.415.84 3.085 2.88 3.1 5.15.015 1.526-.455 2.915-1.59 4-1.074 1.024-2.36 1.572-3.853 1.58-2.044.012-4.09.005-6.133 0-.13 0-.26-.008-.427-.015M103.205 21.347c.232-.023.44-.074.645-.057l.246.224c.275.575.99.822 1.53.474.16-.1.32-.352.31-.524-.01-.167-.213-.392-.385-.464-.37-.16-.782-.225-1.168-.353-.706-.236-1.1-.746-1.033-1.316.07-.62.53-1.04 1.282-1.113.323-.03.66-.022.98.028.62.1.995.536 1.082 1.183-.454.22-.72.16-.986-.232-.253-.367-1.13-.415-1.424-.074-.2.228-.11.512.244.642.404.152.83.244 1.243.376.497.16.906.413 1.035.98.157.692-.168 1.344-.832 1.588-.586.213-1.188.217-1.78.008-.63-.22-.906-.707-.988-1.37M119.45 22.765h-.81v-3.23h.69l.065.3c.344-.132.678-.357 1.012-.36.33-.005.66.212 1.082.366.27-.258.694-.49 1.234-.355.358.09.64.315.657.655.045.866.017 1.73.017 2.623h-.762c0-.49.002-.975-.003-1.46 0-.236-.008-.474-.028-.706-.02-.27-.1-.505-.426-.522-.316-.016-.55.134-.632.428-.073.252-.094.52-.1.778-.016.487-.01.972-.01 1.483h-.795c0-.41.003-.817 0-1.22-.01-.315-.024-.634-.034-.946-.01-.256-.07-.48-.378-.52-.308-.035-.555.078-.67.368-.072.178-.1.384-.1.577-.015.568-.008 1.133-.008 1.743M112.438 34.402c.293-.023.54-.047.78-.066.397.762.662.93 1.33.83.336-.05.617-.2.654-.578.033-.37-.242-.49-.535-.572-.417-.124-.84-.23-1.242-.384-.606-.237-.89-.71-.828-1.29.058-.532.508-.974 1.125-1.047.363-.038.736-.038 1.098.013.653.092 1.03.53 1.1 1.197-.494.194-.695.143-.985-.26-.25-.347-1.104-.393-1.4-.08-.197.218-.137.5.176.636.302.126.624.205.94.302.186.06.38.108.56.18.602.237.873.643.862 1.274-.013.597-.338 1.032-.927 1.234-.555.188-1.115.188-1.668.007-.646-.212-.95-.7-1.04-1.395M103.483 24.743c.17 0 .385-.032.58.01l.195.3c.02.695.01 1.396.014 2.096 0 .223.01.448.04.668.07.568.392.812 1.016.782.517-.02.767-.276.78-.833.018-.82.018-1.635.018-2.452.005-.587 0-.59.574-.577.09.005.18.02.35.035-.04 1.18-.058 2.35-.134 3.514-.023.39-.293.702-.675.86-.675.285-1.36.29-2.03 0-.43-.183-.71-.532-.72-1.004-.023-1.117-.007-2.232-.007-3.4M126.518 32.926v-1.584h.82v4.48h-.71l-.06-.427c-.37.344-.742.583-1.226.49-.74-.138-1.207-.827-1.167-1.73.01-.214.034-.424.084-.628.217-.866 1.225-1.408 2.258-.6zm.02 1.398c-.012-.23-.005-.344-.027-.46-.065-.445-.326-.712-.696-.73-.403-.022-.686.215-.752.695-.04.29-.026.602.034.888.068.314.286.526.64.542.35.018.577-.162.694-.47.07-.176.088-.377.11-.466zM106.365 35.832h-.708c-.02-.134-.035-.26-.058-.437-.4.382-.808.62-1.338.468l-.035-.007c-.78-.226-1.197-1.22-.947-2.256.182-.77.814-1.21 1.55-1.048.235.05.444.198.733.33v-1.01c0-.585 0-.585.586-.562l.215.022v4.5zm-.772-1.61c-.04-.215-.055-.396-.104-.57-.096-.325-.316-.513-.66-.515-.342-.004-.624.162-.674.487-.053.392-.042.804.027 1.19.046.284.305.438.618.446.32.007.535-.148.65-.422.083-.197.1-.425.143-.615zM79.12 36.513h2.038v10.96c-.135-1.31-.3-2.892-.462-4.472-.167-1.666-.322-3.33-.506-4.993-.026-.213-.163-.44-.304-.608-.25-.287-.545-.53-.818-.795l.053-.092M120.412 27.63c0 .99-.693 1.704-1.666 1.72-1.003.01-1.678-.69-1.673-1.738 0-.982.705-1.697 1.655-1.68 1.002.017 1.683.698 1.684 1.697zm-.71.018c-.193-.344-.305-.674-.522-.898-.275-.278-.75-.193-1.023.108-.322.357-.33 1.185-.008 1.543.267.312.74.403 1.015.13.223-.22.34-.545.536-.882zM116.77 33.472c.18-.587.478-.877.962-.916.35-.027.707-.027 1.06.01.45.056.717.38.732.842.015.487-.005.973.014 1.462.01.31.07.62.114.96-.303-.036-.695.227-.87-.315-.426.275-.852.5-1.372.352-.418-.12-.678-.4-.708-.792-.034-.485.14-.806.585-.96.37-.127.766-.186 1.14-.302l.286-.24c-.032-.146-.135-.357-.252-.39-.297-.08-.585-.085-.87.178-.156.14-.5.074-.82.112zm1.908.786c-.275.07-.572.1-.82.224-.15.078-.312.297-.316.456-.008.267.22.398.49.398.524-.002.803-.44.646-1.078zM127.103 22.785c-.31-.057-.72.19-.863-.35-.44.336-.89.517-1.42.354-.396-.124-.648-.43-.666-.832-.022-.422.16-.747.57-.894.383-.13.79-.197 1.175-.318l.283-.235c-.065-.15-.165-.35-.297-.398-.288-.088-.56-.057-.832.182-.16.14-.482.085-.733.12l-.057-.123c.073-.142.126-.3.225-.425.42-.526 1.825-.583 2.28-.088.113.126.185.323.198.494.032.435.007.873.03 1.306.017.39.065.777.107 1.21zm-.963-1.59c-.276.074-.572.104-.82.228-.15.078-.34.337-.306.448.05.17.276.362.448.385.536.07.836-.408.678-1.06zM108.03 29.246v-3.218h.7l.08.405.314-.232c.423-.297.878-.347 1.343-.127.437.202.516.597.513 1.03v2.15h-.824c0-.372.006-.74 0-1.103-.002-.328-.004-.658-.015-.986-.004-.31-.125-.55-.458-.592-.334-.042-.613.08-.734.406-.073.206-.095.44-.098.662-.015.522-.006 1.052-.006 1.606h-.815M120.505 32.584h.765v1.5c0 .197 0 .394.01.592.02.34.162.588.534.623.34.03.68-.23.73-.594.038-.286.027-.58.032-.87.004-.402.002-.808.002-1.24h.8v3.22h-.706l-.052-.413c-.432.363-.867.608-1.42.46-.386-.1-.67-.328-.686-.718-.036-.842-.01-1.68-.01-2.56M110.03 34.912c-.3.847-1.058 1.17-1.95.93-.74-.208-1.158-1.058-.98-2.005.17-.91.776-1.402 1.626-1.308.915.092 1.396.742 1.36 1.89h-2.158c-.015.43.128.7.472.84.34.14.535-.055.79-.26.176-.14.528-.064.84-.088zm-.802-.983c.047-.477-.19-.785-.6-.797-.42-.02-.673.275-.662.796h1.262zM115.742 21.365c-.007.407.125.677.465.828.31.136.56.043.755-.23.27-.384.557.034.844-.087-.092.705-.932 1.126-1.827.92-.782-.178-1.247-1.03-1.075-2.018.154-.882.813-1.415 1.625-1.32.95.114 1.43.774 1.355 1.907H115.743zm1.33-.465c-.014-.54-.198-.78-.572-.822-.352-.038-.644.175-.736.52-.052.2 0 .302.222.302.352-.002.705 0 1.085 0zM111.985 20.26c-.304.06-.583.255-.905-.09-.134-.146-.488-.12-.74-.107l-.302.252.268.25c.424.143.862.236 1.28.39.486.188.692.53.562.99-.068.237-.236.485-.43.63-.522.408-1.617.377-2.123-.05-.18-.15-.304-.367-.5-.614.455-.063.803-.304 1.086.176.137.237.76.254.993.077l.148-.292-.204-.24c-.323-.108-.665-.163-.987-.28-.238-.088-.5-.205-.67-.386-.404-.433-.182-1.158.413-1.388.535-.202 1.097-.206 1.617.026.227.1.387.352.58.534l-.085.124M115.788 28.058l.726.134c-.05.685-.585 1.13-1.37 1.157-.842.027-1.496-.515-1.6-1.327-.135-1.07.296-1.86 1.116-2.034.927-.203 1.576.12 1.85.94-.344.026-.665.33-.97-.176-.223-.367-.95-.216-1.053.236-.094.414-.064.882.034 1.303.04.168.39.334.62.367.375.06.542-.246.648-.602M113.058 20.21c-.15-.027-.25-.048-.377-.074v-.568l.383-.124c-.167-.63.278-.817.787-1.03v1.056c.217.024.38.04.583.058v.623c-.17.012-.337.028-.527.045 0 .598-.022 1.187.02 1.77.008.098.293.176.51.296-.02.112.33.417-.158.537-.643.162-1.13-.047-1.194-.542-.04-.297-.02-.602-.025-.908-.005-.364-.002-.735-.002-1.138M107.706 19.54c.8-.092.8-.092.8.63v2.593h-.8V19.54M111.98 26.03c.762-.08.762-.08.762.628v2.592h-.76v-3.22M122.856 31.28c-.488.297-.595.978-1.28.828.375-.994.235-.92 1.28-.828M105.915 23.593c-.372.29-.49.937-1.15.84.11-.796.276-.92 1.15-.84M107.703 18.968v-.67c.792-.155.886-.077.756.67h-.757M112.78 25.475h-.85c.035-.25 0-.53.124-.685l.575-.008c.127.134.1.42.15.693" fill="#174D8D"/></g></svg>