<svg width="213" height="331" viewBox="0 0 213 331" xmlns="http://www.w3.org/2000/svg"><title>logo_gds_bgwhite</title><g fill="none" fill-rule="evenodd"><path d="M26.374 36.8l-3.56 6.175c-10.207 17.702-15.6 37.878-15.6 58.36 0 57.116 40.945 105.73 97.354 115.57l1.67.295 1.67-.295c56.407-9.84 97.354-58.454 97.354-115.57 0-20.497-5.39-40.676-15.59-58.36l-3.566-6.18-6.978 1.596c-5.21 1.193-10.52 1.792-15.783 1.792-19.036 0-36.86-7.467-50.194-21.036l-6.904-7.023-6.906 7.023C86 32.716 68.17 40.182 49.13 40.182c-5.26 0-10.565-.6-15.776-1.79l-6.98-1.593" fill="#FFF"/><path d="M178.265 50.463c-5.543 1.268-11.296 1.963-17.222 1.963-21.477 0-40.877-8.8-54.8-22.967C92.32 43.62 72.91 52.425 51.433 52.425c-5.92 0-11.677-.695-17.215-1.96-8.73 15.146-13.734 32.686-13.734 51.402 0 50.965 37.028 93.314 85.753 101.82 48.726-8.506 85.755-50.855 85.755-101.82 0-18.716-4.997-36.258-13.727-51.405" fill="#1E88E5"/><path d="M178.265 50.463c-5.543 1.268-11.296 1.963-17.222 1.963-21.477 0-40.877-8.8-54.8-22.967-1.997 2.034-4.13 3.944-6.342 5.746 8.925 32.792 6.843 126.377 5.39 168.29.317.06.628.136.947.192 48.726-8.506 85.755-50.855 85.755-101.82 0-18.716-4.997-36.258-13.727-51.405" fill="#1976D2"/><path d="M91.81 77.143h28.857v86.21H91.81v-86.21z" fill="#FFF"/><path d="M62.96 105.885h86.557v28.73H62.96v-28.73z" fill="#FFF"/><path d="M106.237 224.318l-3.523-.617C43.242 213.316.078 162.075.078 101.87c0-21.588 5.688-42.86 16.45-61.52l7.524-13.05 14.732 3.368c4.18.954 8.44 1.437 12.648 1.437 15.254 0 29.543-5.988 40.233-16.86l14.58-14.83 14.58 14.835c10.684 10.867 24.966 16.855 40.218 16.855 4.21 0 8.47-.483 12.656-1.44l14.733-3.368 7.528 13.05c10.752 18.65 16.436 39.92 16.436 61.523 0 60.206-43.164 111.447-102.635 121.833l-3.523.618zm-76.64-184.38l-3.42 5.93c-9.795 16.982-14.97 36.35-14.97 56 0 54.817 39.293 101.457 93.43 110.918l1.6.277 1.602-.277c54.135-9.46 93.428-56.1 93.428-110.918 0-19.67-5.173-39.03-14.96-56l-3.422-5.934-6.698 1.53c-4.998 1.147-10.096 1.728-15.145 1.728-18.27 0-35.375-7.173-48.17-20.19l-6.628-6.746L99.617 23c-12.8 13.02-29.912 20.192-48.185 20.192-5.048 0-10.14-.58-15.137-1.723l-6.7-1.532z" fill="#1E88E5"/><path d="M88.703 287.133c-6.406 0-9.456 4.085-9.456 10.67 0 12.01 14.276 12.925 14.276 22.436 0 3.84-1.586 6.096-5.003 6.096-3.416 0-5.003-2.256-5.003-6.097v-2.683h-4.453v2.438c0 6.463 3.05 10.67 9.578 10.67s9.64-4.207 9.64-10.67c0-12.01-14.338-12.925-14.338-22.497 0-3.78 1.465-6.036 4.88-6.036 3.418 0 4.882 2.256 4.882 6.097v1.4h4.515v-1.157c0-6.463-3.05-10.67-9.517-10.67zm29.34 34.51l1.648 8.595h4.76l-8.175-42.678h-6.894l-8.174 42.678h4.392l1.648-8.596h10.798zm-5.49-28.718l4.82 24.632h-9.517l4.697-24.632zm26.535-14.206l-4.27 6.28h3.294l5.674-6.28h-4.698zm7.992 8.84h-4.454v32.618c0 3.84-1.525 6.158-4.94 6.158-3.48 0-5.004-2.317-5.004-6.158V287.56h-4.698v32.374c0 6.463 2.99 10.792 9.518 10.792 6.59 0 9.578-4.33 9.578-10.792V287.56zm4.694 0v42.678h10.005c6.65 0 9.7-4.024 9.7-10.548v-21.522c0-6.584-3.05-10.608-9.7-10.608h-10.006zm4.758 38.35v-34.02h5.125c3.477 0 5.125 2.132 5.125 6.034v21.95c0 3.9-1.648 6.035-5.064 6.035h-5.186zm24.155-19.45v-14.57H193.5v-4.33h-17.57v42.678h17.57v-4.33h-12.813v-15.18h10.433v-4.268h-10.433zm-160.085-18.9v42.678h10.005c6.65 0 9.7-4.024 9.7-10.548v-21.522c0-6.584-3.05-10.608-9.7-10.608H20.602zm4.758 38.35v-34.02h5.125c3.478 0 5.125 2.132 5.125 6.034v21.95c0 3.9-1.647 6.035-5.064 6.035H25.36zm34.953-4.268l1.647 8.596h4.76l-8.176-42.678H51.65l-8.175 42.678h4.392l1.648-8.596h10.798zm-5.49-28.717l4.82 24.632h-9.518l4.697-24.632zm-35.552-58.94c-6.527 0-9.578 4.268-9.578 10.73v22.072c0 6.462 3.05 10.73 9.58 10.73 6.588 0 9.638-4.268 9.638-10.73v-12.56h-8.907v4.268h4.392v8.535c0 3.84-1.525 6.158-5.002 6.158-3.417 0-5.003-2.317-5.003-6.158v-22.558c0-3.84 1.586-6.158 5.003-6.158 3.477 0 5.002 2.317 5.002 6.158v3.902h4.515v-3.658c0-6.463-3.05-10.73-9.64-10.73zm18.665.427h-4.698v32.375c0 6.462 2.99 10.79 9.518 10.79 6.59 0 9.578-4.328 9.578-10.79v-32.375H47.88v32.618c0 3.84-1.526 6.158-4.942 6.158-3.478 0-5.003-2.317-5.003-6.158v-32.618zm34.71 34.082l1.647 8.596h4.758l-8.175-42.678H63.98l-8.174 42.678H60.2l1.646-8.596h10.798zm-5.49-28.717l4.818 24.632h-9.517l4.698-24.633zm15.612-5.365v42.678h4.76v-18.23h3.355c3.965 0 6.223 1.525 6.223 6.34v6.708c0 2.866.244 3.963.793 5.182h4.82c-.794-1.463-.855-3.23-.855-5.12v-6.647c0-4.572-1.464-7.743-5.37-8.9 3.662-1.16 5.31-4.086 5.31-8.78v-3.476c0-6.34-2.807-9.755-9.518-9.755h-9.518zm4.76 20.12v-15.79h4.636c3.538 0 4.942 2.01 4.942 5.852v4.085c0 4.632-2.258 5.852-6.04 5.852h-3.54zm19.273-20.12v42.678h10.006c6.65 0 9.7-4.024 9.7-10.547V245.02c0-6.584-3.05-10.608-9.7-10.608H106.8zm4.76 38.35v-34.02h5.124c3.477 0 5.125 2.133 5.125 6.035v21.95c0 3.9-1.65 6.035-5.065 6.035h-5.186zm19.395-38.35v42.678h4.76v-42.678h-4.76zm24.278-7.865c-.672 1.28-1.404 1.768-2.44 1.83-1.83 0-3.173-1.83-5.614-1.83-1.892.06-3.478 1.036-4.515 3.536l2.38 1.646c.67-1.342 1.463-1.83 2.56-1.83 1.893 0 3.235 1.83 5.614 1.768 1.89 0 3.416-1.036 4.33-3.475l-2.317-1.646zm-5.247 7.438c-6.528 0-9.762 4.207-9.762 10.73v22.072c0 6.462 3.234 10.73 9.762 10.73 6.59 0 9.822-4.268 9.822-10.73v-22.07c0-6.525-3.233-10.732-9.822-10.732zm0 4.33c3.477 0 5.063 2.316 5.063 6.157v22.558c0 3.902-1.587 6.158-5.064 6.158-3.417 0-5.064-2.256-5.064-6.158v-22.558c0-3.84 1.647-6.158 5.064-6.158zm19.09 14.997v-14.57h12.813v-4.33h-17.572v42.678h17.57v-4.328h-12.81V257.58h10.432v-4.268h-10.433zm26.17-19.327c-6.407 0-9.457 4.085-9.457 10.67 0 12.01 14.275 12.925 14.275 22.436 0 3.842-1.586 6.098-5.003 6.098-3.416 0-5.002-2.256-5.002-6.097v-2.68h-4.454v2.438c0 6.462 3.05 10.67 9.578 10.67s9.64-4.208 9.64-10.67c0-12.01-14.337-12.926-14.337-22.498 0-3.78 1.464-6.036 4.88-6.036 3.417 0 4.88 2.256 4.88 6.097v1.403h4.516v-1.158c0-6.463-3.05-10.67-9.518-10.67z" fill="#1976D2"/></g></svg>