<?xml version="1.0" encoding="UTF-8" standalone="no"?>
<svg width="360px" height="200px" viewBox="0 0 360 200" version="1.1" xmlns="http://www.w3.org/2000/svg" xmlns:xlink="http://www.w3.org/1999/xlink" xmlns:sketch="http://www.bohemiancoding.com/sketch/ns">
    <!-- Generator: Sketch 3.5.2 (25235) - http://www.bohemiancoding.com/sketch -->
    <title>img_SUS</title>
    <desc>Created with Sketch.</desc>
    <defs></defs>
    <g id="GdS-md" stroke="none" stroke-width="1" fill="none" fill-rule="evenodd" sketch:type="MSPage">
        <g id="Imported-Layers-+-Imported-Layers" sketch:type="MSLayerGroup">
            <g id="Imported-Layers" transform="translate(8.000000, 11.000000)" sketch:type="MSShapeGroup">
                <path d="M121.526,96.04 L110.73,92.865 C103.742,90.634 98.974,83.967 98.974,76.671 C98.974,67.146 106.609,59.565 116.13,59.565 L137.412,59.565 L137.412,67.146 L122.489,67.146 C119.616,67.146 117.08,69.361 117.08,72.546 C117.08,74.451 118.359,76.671 120.584,77.298 L131.064,80.799 C138.36,83.019 142.172,90.317 142.172,98.588 C142.172,109.068 133.608,117.641 123.12,117.641 L100.576,117.641 L100.576,109.068 L119.947,109.068 C122.797,109.068 125.978,106.212 125.978,102.399 C125.978,99.536 124.393,96.997 121.526,96.04 M22.422,96.04 L11.637,92.865 C4.964,90.634 0.203,83.967 0.203,76.671 C0.203,67.146 7.83,59.565 17.362,59.565 L38.633,59.565 L38.633,67.146 L23.701,67.146 C20.851,67.146 18.308,69.361 18.308,72.546 C18.308,74.451 19.578,76.671 21.801,77.298 L32.279,80.799 C39.275,83.019 43.079,90.317 43.079,98.588 C43.079,109.068 34.81,117.641 24.333,117.641 L1.799,117.641 L1.799,109.068 L21.166,109.068 C24.029,109.068 27.191,106.212 27.191,102.399 C27.191,99.536 25.289,96.997 22.422,96.04 M71.669,119.545 C58.64,119.545 48.464,110.339 48.464,98.901 L48.464,59.882 L65.946,59.882 L65.946,100.48 C65.946,105.576 70.381,109.691 76.109,109.691 C81.509,109.691 86.278,105.576 86.278,100.48 L86.278,59.882 L94.53,59.882 L94.53,98.901 C94.53,110.339 84.375,119.545 71.669,119.545" id="Fill-1" fill="#075DAA"></path>
                <path d="M191.635,59.565 C200.191,60.547 210.226,61.595 220.477,62.435 L221.628,62.532 L278.106,119.012 L344.994,119.012 L344.994,59.565 L191.635,59.565" id="Fill-2" fill="#005BAA"></path>
                <path d="M253.722,129.886 C243.412,129.886 231.75,129.234 220.378,128.313 C222.67,154.71 226.097,178.455 226.097,178.455 L285.544,178.455 C285.544,178.455 282.094,154.586 279.806,128.104 C269.717,129.668 260.963,129.886 253.722,129.886" id="Fill-3" fill="#005BAA"></path>
                <path d="M220.218,65.571 C192.486,63.294 166.651,59.565 166.651,59.565 L166.651,119.01 C166.651,119.01 218.06,126.738 253.726,126.738 C261.361,126.738 269.953,126.474 279.6,124.955 L220.218,65.571" id="Fill-4" fill="#005BAA"></path>
                <path d="M226.098,0.118 L285.547,0.118 L285.547,56.42 L226.098,56.42 L226.098,0.118 Z" id="Fill-5" fill="#005BAA"></path>
                <path d="M281.251,122.157 L282.583,123.489 L282.681,124.699 C282.763,125.676 282.845,126.649 282.929,127.62 C283.721,136.82 284.659,145.741 285.548,153.461 L285.548,122.157 L281.251,122.157" id="Fill-6" fill="#005BAA"></path>
            </g>
        </g>
    </g>
</svg>