<?xml version="1.0" encoding="UTF-8" standalone="no"?>
<svg width="153px" height="153px" viewBox="0 0 153 153" version="1.1" xmlns="http://www.w3.org/2000/svg" xmlns:xlink="http://www.w3.org/1999/xlink" xmlns:sketch="http://www.bohemiancoding.com/sketch/ns">
    <!-- Generator: Sketch 3.3.2 (12043) - http://www.bohemiancoding.com/sketch -->
    <title>PM</title>
    <desc>Created with Sketch.</desc>
    <defs></defs>
    <g id="GdS-md" stroke="none" stroke-width="1" fill="none" fill-rule="evenodd" sketch:type="MSPage">
        <g id="14.4---dicas-de-saude" sketch:type="MSArtboardGroup" transform="translate(-823.000000, -162.000000)">
            <g id="content" sketch:type="MSLayerGroup" transform="translate(211.000000, 18.000000)">
                <g id="telefones" transform="translate(360.000000, 108.000000)" sketch:type="MSShapeGroup">
                    <g id="policia-" transform="translate(220.000000, 3.000000)">
                        <g id="PM" transform="translate(32.500000, 33.178138)">
                            <path d="M0.177356758,75.9572624 C0.177356758,117.788218 34.0996153,151.710476 75.9305705,151.710476 C117.759687,151.710476 151.683784,117.788218 151.683784,75.9572624 C151.683784,34.1263073 117.759687,0.204048698 75.9305705,0.204048698 C34.0996153,0.204048698 0.177356758,34.1263073 0.177356758,75.9572624 L0.177356758,75.9572624 Z M18.2969327,75.9572624 C18.2969327,107.781446 44.1045486,133.5909 75.9305705,133.5909 C107.754754,133.5909 133.56237,107.781446 133.56237,75.9572624 C133.56237,44.1330794 107.754754,18.3236246 75.9305705,18.3236246 C44.1045486,18.3236246 18.2969327,44.1330794 18.2969327,75.9572624 L18.2969327,75.9572624 Z" id="Fill-1" fill="#292D78"></path>
                            <path d="M0.177356758,75.9572624 C0.177356758,117.788218 34.0996153,151.710476 75.9305705,151.710476 C117.759687,151.710476 151.683784,117.788218 151.683784,75.9572624 C151.683784,34.1263073 117.759687,0.204048698 75.9305705,0.204048698 C34.0996153,0.204048698 0.177356758,34.1263073 0.177356758,75.9572624 L0.177356758,75.9572624 Z M18.2969327,75.9572624 C18.2969327,107.781446 44.1045486,133.5909 75.9305705,133.5909 C107.754754,133.5909 133.56237,107.781446 133.56237,75.9572624 C133.56237,44.1330794 107.754754,18.3236246 75.9305705,18.3236246 C44.1045486,18.3236246 18.2969327,44.1330794 18.2969327,75.9572624 L18.2969327,75.9572624 Z" id="Stroke-2" stroke="#1A1918" stroke-width="0.567"></path>
                            <path d="M18.2969327,75.9572624 C18.2969327,107.781446 44.1045486,133.5909 75.9305705,133.5909 C107.754754,133.5909 133.56237,107.781446 133.56237,75.9572624 C133.56237,44.1330794 107.754754,18.3236246 75.9305705,18.3236246 C44.1045486,18.3236246 18.2969327,44.1330794 18.2969327,75.9572624 L18.2969327,75.9572624 Z" id="Fill-3" fill="#D9222A"></path>
                            <path d="M18.2969327,75.9572624 C18.2969327,107.781446 44.1045486,133.5909 75.9305705,133.5909 C107.754754,133.5909 133.56237,107.781446 133.56237,75.9572624 C133.56237,44.1330794 107.754754,18.3236246 75.9305705,18.3236246 C44.1045486,18.3236246 18.2969327,44.1330794 18.2969327,75.9572624 L18.2969327,75.9572624 Z" id="Stroke-4" stroke="#1A1918" stroke-width="0.567"></path>
                            <path d="M75.9305705,20.8096878 L88.4197282,59.4999655 L129.07201,59.4208969 L96.1371891,83.2536372 L108.773451,121.894267 L75.9305705,97.9364882 L43.0858511,121.894267 L55.7221131,83.2536372 L22.7872923,59.4208969 L63.4414129,59.4999655 L75.9305705,20.8096878" id="Fill-5" fill="#FFF101"></path>
                            <path d="M76.0114779,2.80779535 L77.5119421,7.45629219 L82.3976446,7.44893697 L78.4386993,10.311955 L79.9575515,14.9549354 L76.0114779,12.0753682 L72.0654042,14.9549354 L73.5824176,10.311955 L69.6253111,7.44893697 L74.5110137,7.45629219 L76.0114779,2.80779535" id="Fill-6" fill="#FFF101"></path>
                            <path d="M93.1987801,4.87644999 L93.5665409,9.74744213 L98.316172,10.8856619 L93.7963914,12.7391765 L94.1807015,17.6101686 L91.021636,13.8829126 L86.5092107,15.7548152 L89.0761812,11.5972791 L85.9024053,7.88473355 L90.6483588,9.04134135 L93.1987801,4.87644999" id="Fill-7" fill="#FFF101"></path>
                            <path d="M108.470048,10.4443489 L107.751076,15.2767262 L112.132946,17.437321 L107.315279,18.2463948 L106.614695,23.0806109 L104.356644,18.7483883 L99.5426543,19.577689 L102.964669,16.0913164 L100.688229,11.7682879 L105.062744,13.9435932 L108.470048,10.4443489" id="Fill-8" fill="#FFF101"></path>
                            <path d="M121.79954,18.9764001 L120.058192,23.5403119 L123.873711,26.5927268 L118.993524,26.346327 L117.270565,30.9175941 L115.996274,26.2029003 L111.116088,25.9748886 L115.207427,23.3067838 L113.914747,18.5957676 L117.717394,21.6610541 L121.79954,18.9764001" id="Fill-9" fill="#FFF101"></path>
                            <path d="M132.981307,30.1747172 L130.298492,34.2587012 L133.367456,38.0595093 L128.65644,36.7705076 L125.990174,40.8636856 L125.760324,35.9834995 L121.041952,34.7128858 L125.613219,32.9862487 L125.363142,28.1079014 L128.417396,31.9197423 L132.981307,30.1747172" id="Fill-10" fill="#FFF101"></path>
                            <path d="M141.491293,43.51708 L137.993888,46.9280616 L140.17287,51.3007379 L135.849842,49.027976 L132.363469,52.4518292 L133.189092,47.6360012 L128.85687,45.3816274 L133.691086,44.6773654 L134.496482,39.8596986 L136.660755,44.23973 L141.491293,43.51708" id="Fill-11" fill="#FFF101"></path>
                            <path d="M146.934153,58.378295 L142.783972,60.9562984 L143.973679,65.6948966 L140.239067,62.5450251 L136.099919,65.1395777 L137.940562,60.6142808 L134.194918,57.4791197 L139.06591,57.8321701 L140.890004,53.3013568 L142.059483,58.0436326 L146.934153,58.378295" id="Fill-12" fill="#FFF101"></path>
                            <path d="M149.052456,74.0614554 L144.446251,75.6869582 L144.587839,80.570822 L141.61817,76.6909453 L137.017483,78.3348362 L139.78856,74.3115327 L136.804181,70.4445277 L141.485777,71.8365024 L144.242144,67.8021661 L144.365344,72.6860299 L149.052456,74.0614554" id="Fill-13" fill="#FFF101"></path>
                            <path d="M147.750582,89.8328784 L142.901656,90.4286509 L141.98777,95.2279297 L139.922793,90.8019282 L135.077544,91.4179276 L138.648502,88.0841757 L136.565137,83.6655294 L140.838517,86.0320703 L144.398442,82.6854468 L143.468007,87.4810479 L147.750582,89.8328784" id="Fill-14" fill="#FFF101"></path>
                            <path d="M143.083697,104.953365 L138.22006,104.493664 L136.29851,108.984023 L135.232004,104.217843 L130.366528,103.77653 L134.571873,101.290467 L133.488817,96.5261254 L137.151715,99.7569043 L141.347866,97.2542919 L139.407928,101.737296 L143.083697,104.953365" id="Fill-15" fill="#FFF101"></path>
                            <path d="M135.276135,118.718652 L130.623961,117.223705 L127.781169,121.195522 L127.76462,116.309819 L123.108768,114.833259 L127.74991,113.308891 L127.716811,108.423188 L130.600056,112.367423 L135.235681,110.824666 L132.376341,114.787289 L135.276135,118.718652" id="Fill-16" fill="#FFF101"></path>
                            <path d="M124.688301,130.481483 L120.468245,128.021163 L116.836607,131.288718 L117.873693,126.515182 L113.642604,124.069573 L118.504403,123.580451 L119.521261,118.803237 L121.488782,123.27337 L126.348741,122.764022 L122.704231,126.018705 L124.688301,130.481483" id="Fill-17" fill="#FFF101"></path>
                            <path d="M111.818511,139.690214 L108.227326,136.380366 L103.97785,138.7892 L106.015245,134.350326 L102.411189,131.053351 L107.261954,131.619702 L109.284639,127.173474 L110.244494,131.96172 L115.098937,132.509683 L110.840267,134.903806 L111.818511,139.690214" id="Fill-18" fill="#FFF101"></path>
                            <path d="M97.2698924,145.918243 L94.4730714,141.911489 L89.8043477,143.351273 L92.7501119,139.454847 L89.9385804,135.459125 L94.5558175,137.057046 L97.4868713,133.147748 L97.3949311,138.031612 L102.015846,139.611145 L97.3434446,141.034379 L97.2698924,145.918243" id="Fill-19" fill="#FFF101"></path>
                            <path d="M81.7209647,148.869524 L79.8527397,144.357098 L74.9835864,144.757958 L78.6979707,141.586021 L76.8113577,137.080951 L80.9780878,139.633211 L84.6796006,136.446563 L83.539542,141.196194 L87.7154662,143.731905 L82.844474,144.116215 L81.7209647,148.869524" id="Fill-20" fill="#FFF101"></path>
                            <path d="M65.9035716,148.409823 L65.0485277,143.599511 L60.2069564,142.944897 L64.5171133,140.644553 L63.6455201,135.839758 L67.1631524,139.228674 L71.4641153,136.911781 L69.3292637,141.304684 L72.8597676,144.680728 L68.0218739,144.007726 L65.9035716,148.409823" id="Fill-21" fill="#FFF101"></path>
                            <path d="M50.5532347,144.557528 L50.7536644,139.675503 L46.1676869,137.994836 L50.8713478,136.676414 L51.0515506,131.794389 L53.7601091,135.861823 L58.4582537,134.525013 L55.4279045,138.357081 L58.1511734,142.411644 L53.5707123,140.714427 L50.5532347,144.557528" id="Fill-22" fill="#FFF101"></path>
                            <path d="M36.3926041,137.494681 L37.6374745,132.770794 L33.5185532,130.143143 L38.3969006,129.865483 L39.623383,125.137918 L41.3923125,129.690797 L46.2706599,129.396588 L42.486401,132.485779 L44.2737186,137.033142 L40.1639914,134.388941 L36.3926041,137.494681" id="Fill-23" fill="#FFF101"></path>
                            <path d="M24.0818104,127.550429 L26.3141187,123.203496 L22.8571669,119.75206 L27.6803501,120.531713 L29.8942703,116.177425 L30.6445024,121.004286 L35.4695244,121.76739 L31.1097198,123.970277 L31.8765012,128.795299 L28.4342598,125.329153 L24.0818104,127.550429" id="Fill-24" fill="#FFF101"></path>
                            <path d="M14.1982382,115.191826 L17.3113336,111.427794 L14.6781661,107.31255 L19.2218511,109.110901 L22.3202361,105.335836 L22.0131558,110.210506 L26.5623572,111.992307 L21.8311142,113.205918 L21.5424219,118.084265 L18.9239649,113.957989 L14.1982382,115.191826" id="Fill-25" fill="#FFF101"></path>
                            <path d="M7.20526614,100.996258 L11.055722,97.9898135 L9.3695386,93.4056748 L13.4185853,96.1399766 L17.2580083,93.1188214 L15.9083261,97.8132883 L19.9684056,100.531041 L15.0863806,100.698372 L13.7550865,105.400194 L12.0872911,100.8087 L7.20526614,100.996258" id="Fill-26" fill="#FFF101"></path>
                            <path d="M3.42652366,85.6293722 L7.83413716,83.5202638 L7.17400647,78.6805314 L10.539018,82.2220681 L14.9392763,80.0964105 L12.6131891,84.391857 L15.9910723,87.9186833 L11.1881159,87.0342185 L8.8767391,91.338859 L8.23499646,86.4954489 L3.42652366,85.6293722" id="Fill-27" fill="#FFF101"></path>
                            <path d="M3.0440524,69.8083014 L7.80103868,68.6976637 L8.19638157,63.8285104 L10.7228984,68.009951 L15.4762071,66.8809253 L12.2785267,70.5769216 L14.8215928,74.7491681 L10.3183615,72.8496835 L7.13723039,76.5567126 L7.55280012,71.6893981 L3.0440524,69.8083014" id="Fill-28" fill="#FFF101"></path>
                            <path d="M6.0725628,54.2740841 L10.9564266,54.2115648 L12.3906938,49.5428411 L13.9591937,54.1692723 L18.8430575,54.0902037 L14.9264047,57.0102247 L16.5114538,61.6311395 L12.5230877,58.8085751 L8.61930652,61.7451453 L10.070123,57.0800992 L6.0725628,54.2740841" id="Fill-29" fill="#FFF101"></path>
                            <path d="M12.3704669,39.7567255 L17.1531965,40.747841 L19.5583523,36.494687 L20.0934443,41.3491299 L24.8816902,42.3236961 L20.4299454,44.333509 L20.9834255,49.1861131 L17.6956437,45.572863 L13.2512541,47.5992252 L15.6711204,43.357104 L12.3704669,39.7567255" id="Fill-30" fill="#FFF101"></path>
                            <path d="M21.6417174,26.9329055 L26.1008174,28.9298468 L29.3646947,25.2926922 L28.8424743,30.1508128 L33.3089296,32.129366 L28.5280388,33.1351919 L28.0260453,37.9951512 L25.5914686,33.7585465 L20.8160943,34.7827604 L24.0928433,31.1584774 L21.6417174,26.9329055" id="Fill-31" fill="#FFF101"></path>
                            <path d="M33.4560339,16.4039131 L37.3818807,19.3129012 L41.35002,16.4627548 L39.7962305,21.0947024 L43.7312714,23.9889801 L38.8474076,23.94301 L37.3101674,28.5786352 L35.8446405,23.9191056 L30.9607767,23.8915235 L34.9399488,21.0579263 L33.4560339,16.4039131" id="Fill-32" fill="#FFF101"></path>
                            <path d="M47.2580977,8.66070889 L50.4668109,12.3475112 L54.953493,10.4167668 L52.4398477,14.6074014 L55.6614326,18.2794933 L50.9007687,17.183566 L48.4036727,21.3815559 L47.9752313,16.5160801 L43.209051,15.4367021 L47.7049271,13.5261846 L47.2580977,8.66070889" id="Fill-33" fill="#FFF101"></path>
                            <path d="M62.4024885,4.06921498 L64.7414474,8.35914501 L69.5388873,7.43974295 L66.1849086,10.9904737 L68.5404167,15.2693709 L64.1272868,13.174973 L60.7843409,16.7385754 L61.4132119,11.8933266 L56.990888,9.81547789 L61.7920055,8.91630267 L62.4024885,4.06921498" id="Fill-34" fill="#FFF101"></path>
                        </g>
                    </g>
                </g>
            </g>
        </g>
    </g>
</svg>