<svg width="583" height="279" viewBox="0 0 583 279" xmlns="http://www.w3.org/2000/svg"><title>404</title><defs><filter x="-50%" y="-50%" width="200%" height="200%" filterUnits="objectBoundingBox" id="a"><feOffset in="SourceAlpha" result="shadowOffsetOuter1"/><feGaussianBlur stdDeviation="15" in="shadowOffsetOuter1" result="shadowBlurOuter1"/><feColorMatrix values="0 0 0 0 0 0 0 0 0 0 0 0 0 0 0 0 0 0 0.21 0" in="shadowBlurOuter1" result="shadowMatrixOuter1"/><feMerge><feMergeNode in="shadowMatrixOuter1"/><feMergeNode in="SourceGraphic"/></feMerge></filter></defs><g fill="none" fill-rule="evenodd"><path d="M209.563 58.344l-3.708 6.436c-10.627 18.445-16.244 39.468-16.244 60.81 0 59.515 42.638 110.17 101.378 120.424l1.738.307 1.74-.306c58.738-10.255 101.377-60.91 101.377-120.424 0-21.357-5.614-42.383-16.234-60.81l-3.715-6.44-7.266 1.663c-5.427 1.242-10.956 1.866-16.436 1.866-19.823 0-38.383-7.78-52.268-21.92l-7.19-7.318-7.192 7.318c-13.89 14.14-32.46 21.92-52.285 21.92-5.478 0-11.002-.625-16.43-1.864l-7.267-1.662" fill="#FFF"/><path d="M367.73 72.582c-5.77 1.322-11.762 2.046-17.933 2.046-22.365 0-42.567-9.17-57.065-23.932-14.5 14.755-34.71 23.932-57.075 23.932-6.165 0-12.158-.724-17.925-2.043-9.09 15.783-14.302 34.06-14.302 53.56 0 53.106 38.558 97.234 89.296 106.096 50.74-8.86 89.298-52.99 89.298-106.094 0-19.502-5.203-37.78-14.294-53.564" fill="#1E88E5"/><path d="M367.73 72.582c-5.77 1.322-11.762 2.046-17.933 2.046-22.365 0-42.567-9.17-57.065-23.932-2.08 2.12-4.3 4.11-6.604 5.99 9.293 34.168 7.125 131.682 5.61 175.355.332.066.656.144.988.2 50.74-8.86 89.298-52.99 89.298-106.094 0-19.502-5.203-37.78-14.294-53.564" fill="#1976D2"/><path d="M277.702 100.383h30.05v89.83h-30.05v-89.83z" fill="#FFF"/><path d="M247.66 130.33h90.135v29.938H247.66V130.33z" fill="#FFF"/><path d="M292.726 253.738l-3.668-.643c-61.93-10.822-106.877-64.214-106.877-126.95 0-22.494 5.923-44.658 17.13-64.102l7.835-13.598 15.34 3.508c4.354.995 8.788 1.498 13.172 1.498 15.884 0 30.763-6.238 41.895-17.566l15.184-15.454 15.18 15.458c11.126 11.324 25.998 17.563 41.88 17.563 4.386 0 8.82-.502 13.18-1.5l15.342-3.51 7.84 13.6c11.195 19.433 17.114 41.597 17.114 64.106 0 62.735-44.948 116.127-106.876 126.95l-3.67.642zM212.918 61.616l-3.56 6.178c-10.2 17.695-15.588 37.875-15.588 58.352 0 57.12 40.916 105.718 97.29 115.576l1.666.288 1.668-.288c56.373-9.858 97.29-58.457 97.29-115.576 0-20.496-5.387-40.67-15.58-58.352l-3.56-6.182-6.976 1.595c-5.205 1.193-10.513 1.798-15.77 1.798-19.025 0-36.84-7.474-50.16-21.038l-6.903-7.028-6.902 7.027c-13.33 13.564-31.15 21.038-50.176 21.038-5.257 0-10.56-.605-15.762-1.795l-6.977-1.594z" fill="#1E88E5"/><path d="M.272 172.302v-15.255L106.38 15.345c1.13-1.582 2.485-3.107 4.067-4.577 1.582-1.47 3.616-2.203 6.102-2.203 4.067 0 7.344.904 9.83 2.712v144.075h11.526c5.424 0 9.266 1.186 11.526 3.56 2.26 2.373 3.39 5.48 3.39 9.322 0 .678-.056 1.243-.17 1.695-.113.45-.17.903-.17 1.355v1.017H126.38V234h-19.662v-61.698H.272zm106.446-16.95V43.482l-84.41 111.87h84.41zm275.674 16.95v-15.255L488.5 15.345c1.13-1.582 2.485-3.107 4.067-4.577 1.582-1.47 3.616-2.203 6.102-2.203 4.067 0 7.344.904 9.83 2.712v144.075h11.526c5.424 0 9.266 1.186 11.526 3.56 2.26 2.373 3.39 5.48 3.39 9.322 0 .678-.056 1.243-.17 1.695-.113.45-.17.903-.17 1.355v1.017H508.5V234h-19.662v-61.698H382.392zm106.446-16.95V43.482l-84.41 111.87h84.41z" fill="#FFF" filter="url(#a)" transform="translate(25 20)"/></g></svg>