<svg width="360" height="200" viewBox="0 0 360 200" xmlns="http://www.w3.org/2000/svg"><title>img_SUS</title><g fill="none" fill-rule="evenodd"><path d="M129.526 107.04l-10.796-3.175c-6.988-2.23-11.756-8.898-11.756-16.194 0-9.524 7.635-17.105 17.156-17.105h21.282v7.58H130.49c-2.874 0-5.41 2.216-5.41 5.4 0 1.906 1.28 4.126 3.504 4.753l10.48 3.5c7.296 2.22 11.108 9.52 11.108 17.79 0 10.48-8.564 19.053-19.052 19.053h-22.544v-8.572h19.37c2.85 0 6.032-2.856 6.032-6.67 0-2.862-1.585-5.4-4.452-6.358m-99.104 0l-10.785-3.175c-6.673-2.23-11.434-8.898-11.434-16.194 0-9.524 7.627-17.105 17.16-17.105h21.27v7.58H31.7c-2.85 0-5.392 2.216-5.392 5.4 0 1.906 1.27 4.126 3.493 4.753l10.48 3.5c6.995 2.22 10.8 9.52 10.8 17.79 0 10.48-8.27 19.053-18.747 19.053H9.8v-8.572h19.366c2.863 0 6.025-2.856 6.025-6.67 0-2.862-1.9-5.4-4.768-6.358m49.247 23.505c-13.03 0-23.206-9.206-23.206-20.644V70.883h17.482v40.598c0 5.096 4.435 9.21 10.163 9.21 5.4 0 10.168-4.114 10.168-9.21V70.882h8.252v39.02c0 11.437-10.155 20.643-22.86 20.643" fill="#075DAA"/><path d="M199.635 70.565c8.556.982 18.59 2.03 28.842 2.87l1.15.097 56.48 56.48h66.887V70.565h-153.36M261.722 140.886c-10.31 0-21.972-.652-33.344-1.573 2.292 26.397 5.72 50.142 5.72 50.142h59.446s-3.45-23.87-5.738-50.35c-10.09 1.563-18.843 1.78-26.084 1.78" fill="#005BAA"/><path d="M228.218 76.57c-27.732-2.276-53.567-6.005-53.567-6.005v59.445s51.41 7.728 87.076 7.728c7.635 0 16.227-.264 25.874-1.783L228.218 76.57M234.098 11.118h59.45V67.42h-59.45V11.118zM289.25 133.157l1.333 1.332.098 1.21c.083.976.165 1.95.25 2.92.79 9.2 1.73 18.12 2.618 25.84v-31.303h-4.297" fill="#005BAA"/></g></svg>