<svg width="360" height="200" viewBox="0 0 360 200" xmlns="http://www.w3.org/2000/svg" xmlns:xlink="http://www.w3.org/1999/xlink"><title>img_SUS</title><defs><filter x="-50%" y="-50%" width="200%" height="200%" filterUnits="objectBoundingBox" id="a"><feOffset dy="2" in="SourceAlpha" result="shadowOffsetOuter1"/><feGaussianBlur stdDeviation="1" in="shadowOffsetOuter1" result="shadowBlurOuter1"/><feColorMatrix values="0 0 0 0 0 0 0 0 0 0 0 0 0 0 0 0 0 0 0.168 0" in="shadowBlurOuter1" result="shadowMatrixOuter1"/><feMerge><feMergeNode in="shadowMatrixOuter1"/><feMergeNode in="SourceGraphic"/></feMerge></filter><rect id="b" x="1" width="679" height="648" rx="6"/><path id="c" d="M0 0h723v1279H0z"/><filter x="-50%" y="-50%" width="200%" height="200%" filterUnits="objectBoundingBox" id="e"><feOffset dy="19" in="SourceAlpha" result="shadowOffsetOuter1"/><feGaussianBlur stdDeviation="19" in="shadowOffsetOuter1" result="shadowBlurOuter1"/><feColorMatrix values="0 0 0 0 0 0 0 0 0 0 0 0 0 0 0 0 0 0 0.210000008 0" in="shadowBlurOuter1" result="shadowMatrixOuter1"/><feOffset dy="15" in="SourceAlpha" result="shadowOffsetOuter2"/><feGaussianBlur stdDeviation="6" in="shadowOffsetOuter2" result="shadowBlurOuter2"/><feColorMatrix values="0 0 0 0 0 0 0 0 0 0 0 0 0 0 0 0 0 0 0.154 0" in="shadowBlurOuter2" result="shadowMatrixOuter2"/><feMerge><feMergeNode in="shadowMatrixOuter1"/><feMergeNode in="shadowMatrixOuter2"/><feMergeNode in="SourceGraphic"/></feMerge></filter></defs><g fill="none" fill-rule="evenodd"><path fill="#EFF0F0" d="M-179-404h720V875h-720z"/><g filter="url(#a)" transform="translate(-159 -322)"><use fill="#FFF" xlink:href="#b"/><use xlink:href="#b"/><use xlink:href="#b"/><use xlink:href="#b"/></g><text transform="translate(-159 178)" font-size="28" font-family="Roboto" fill="#444"><tspan x="40" y="26">Defesa Civil</tspan></text><path d="M-157.5 148.5h678" stroke-opacity=".2" stroke="#000"/><text font-family="Roboto" font-size="28" fill="#444" transform="translate(-159 90)"><tspan x="40" y="26">Bombeiros</tspan></text><g><path d="M-157.5 60.5h678" stroke-opacity=".2" stroke="#000"/><text font-family="Roboto" font-size="28" fill="#444" transform="translate(-159 2)"><tspan x="40" y="26">Disque Denúncia</tspan></text></g><g transform="translate(-181 -400)"><mask id="d" fill="#fff"><use xlink:href="#c"/></mask><use opacity=".7" fill="#303030" xlink:href="#c"/><g transform="translate(79 276)" mask="url(#d)"><rect fill="#FFF" filter="url(#e)" x="1" y="151" width="563" height="508" rx="2"/><rect fill="#EEE" x="1" width="563" height="424" rx="2"/><path d="M231.526 231.04l-10.796-3.175c-6.988-2.23-11.756-8.898-11.756-16.194 0-9.524 7.635-17.105 17.156-17.105h21.282v7.58H232.49c-2.874 0-5.41 2.216-5.41 5.4 0 1.906 1.28 4.126 3.504 4.753l10.48 3.5c7.296 2.22 11.108 9.52 11.108 17.79 0 10.48-8.564 19.053-19.052 19.053h-22.544v-8.572h19.37c2.85 0 6.032-2.856 6.032-6.67 0-2.862-1.585-5.4-4.452-6.358m-99.104 0l-10.785-3.175c-6.673-2.23-11.434-8.898-11.434-16.194 0-9.524 7.627-17.105 17.16-17.105h21.27v7.58H133.7c-2.85 0-5.392 2.216-5.392 5.4 0 1.906 1.27 4.126 3.493 4.753l10.48 3.5c6.995 2.22 10.8 9.52 10.8 17.79 0 10.48-8.27 19.053-18.747 19.053H111.8v-8.572h19.366c2.863 0 6.025-2.856 6.025-6.67 0-2.862-1.9-5.4-4.768-6.358m49.247 23.505c-13.03 0-23.206-9.206-23.206-20.644v-39.018h17.482v40.598c0 5.096 4.435 9.21 10.163 9.21 5.4 0 10.168-4.114 10.168-9.21v-40.598h8.252v39.02c0 11.437-10.155 20.643-22.86 20.643" fill="#075DAA"/><path d="M301.635 194.565c8.556.982 18.59 2.03 28.842 2.87l1.15.097 56.48 56.48h66.887v-59.447h-153.36M363.722 264.886c-10.31 0-21.972-.652-33.344-1.573 2.292 26.397 5.72 50.142 5.72 50.142h59.446s-3.45-23.87-5.738-50.35c-10.09 1.563-18.843 1.78-26.084 1.78" fill="#005BAA"/><path d="M330.218 200.57c-27.732-2.276-53.567-6.005-53.567-6.005v59.445s51.41 7.728 87.076 7.728c7.635 0 16.227-.264 25.874-1.783l-59.382-59.384M336.098 135.118h59.45v56.302h-59.45v-56.302zM391.25 257.157l1.333 1.332.098 1.21c.083.976.165 1.95.25 2.92.79 9.2 1.73 18.12 2.618 25.84v-31.303h-4.297" fill="#005BAA"/></g></g></g></svg>