<svg width="10" height="16" viewBox="0 0 10 16" xmlns="http://www.w3.org/2000/svg"><title>Fill 2</title><path d="M9.506 5.25C9.506 2.628 7.376.5 4.752.5 2.128.5 0 2.627 0 5.25c0 .752.178 1.458.488 2.09H.482l3.825 7.887.005-.003c.083.162.247.276.44.276.194 0 .358-.115.44-.277l.006.003.015-.032 3.81-7.855h-.006c.31-.632.49-1.338.49-2.09zM4.752 7.03c-.982 0-1.778-.796-1.778-1.778 0-.98.796-1.777 1.778-1.777.983 0 1.78.796 1.78 1.777 0 .982-.797 1.78-1.78 1.78z" fill="#FFF" fill-rule="evenodd"/></svg>