<svg width="153" height="153" viewBox="0 0 153 153" xmlns="http://www.w3.org/2000/svg"><title>PM</title><g fill="none" fill-rule="evenodd"><path d="M.677 76.135c0 41.83 33.923 75.754 75.754 75.754 41.83 0 75.754-33.924 75.754-75.755 0-41.83-33.924-75.753-75.753-75.753C34.6.382.678 34.304.678 76.135zm18.12 0c0 31.825 25.808 57.634 57.634 57.634 31.825 0 57.632-25.81 57.632-57.635 0-31.824-25.807-57.633-57.63-57.633-31.827 0-57.635 25.81-57.635 57.633z" fill="#292D78"/><path d="M.677 76.135c0 41.83 33.923 75.754 75.754 75.754 41.83 0 75.754-33.924 75.754-75.755 0-41.83-33.924-75.753-75.753-75.753C34.6.382.678 34.304.678 76.135zm18.12 0c0 31.825 25.808 57.634 57.634 57.634 31.825 0 57.632-25.81 57.632-57.635 0-31.824-25.807-57.633-57.63-57.633-31.827 0-57.635 25.81-57.635 57.633z" stroke="#1A1918" stroke-width=".567"/><path d="M18.797 76.135c0 31.825 25.808 57.634 57.634 57.634 31.825 0 57.632-25.81 57.632-57.635 0-31.824-25.807-57.633-57.63-57.633-31.827 0-57.635 25.81-57.635 57.633z" fill="#D9222A"/><path d="M18.797 76.135c0 31.825 25.808 57.634 57.634 57.634 31.825 0 57.632-25.81 57.632-57.635 0-31.824-25.807-57.633-57.63-57.633-31.827 0-57.635 25.81-57.635 57.633z" stroke="#1A1918" stroke-width=".567"/><path d="M76.43 20.988l12.49 38.69 40.652-.08-32.935 23.834 12.636 38.64L76.43 98.115l-32.844 23.957 12.636-38.64L23.287 59.6l40.654.078 12.49-38.69M76.51 2.986l1.502 4.648 4.886-.007-3.96 2.863 1.52 4.643-3.947-2.88-3.945 2.88 1.517-4.643-3.957-2.863 4.886.007 1.5-4.648M93.7 5.055l.367 4.87 4.75 1.14-4.52 1.852.384 4.87-3.158-3.726-4.513 1.873 2.566-4.158-3.174-3.712 4.746 1.156 2.55-4.165M108.97 10.622l-.72 4.833 4.383 2.16-4.818.81-.7 4.834-2.258-4.333-4.814.83 3.422-3.488-2.277-4.324 4.375 2.176 3.407-3.5M122.3 19.155l-1.742 4.563 3.816 3.053-4.88-.246-1.723 4.572-1.274-4.715-4.88-.227 4.09-2.668-1.29-4.71 3.8 3.064 4.084-2.685M133.48 30.353l-2.682 4.084 3.07 3.8-4.712-1.288-2.666 4.092-.23-4.88-4.718-1.27 4.57-1.728-.25-4.878 3.055 3.812 4.564-1.745M141.99 43.695l-3.496 3.41 2.18 4.374-4.324-2.274-3.487 3.424.826-4.816-4.333-2.254 4.834-.704.806-4.818 2.165 4.38 4.83-.723M147.434 58.556l-4.15 2.578 1.19 4.74-3.735-3.15-4.14 2.594 1.84-4.526-3.745-3.135 4.87.353 1.825-4.53 1.17 4.742 4.874.334M149.552 74.24l-4.606 1.625.142 4.884-2.97-3.88-4.6 1.643 2.77-4.023-2.984-3.867 4.682 1.392 2.756-4.035.123 4.884 4.687 1.376M148.25 90.01l-4.848.597-.914 4.8-2.065-4.427-4.845.616 3.57-3.334-2.083-4.418 4.274 2.366 3.558-3.346-.93 4.795 4.283 2.35M143.584 105.132l-4.864-.46-1.92 4.49-1.068-4.766-4.865-.44 4.205-2.487-1.083-4.766 3.662 3.23 4.196-2.502-1.94 4.483 3.676 3.217M135.776 118.897l-4.652-1.495-2.843 3.972-.015-4.886-4.656-1.477 4.64-1.523-.033-4.886 2.883 3.946 4.636-1.543-2.86 3.962 2.9 3.932M125.188 130.66l-4.22-2.46-3.63 3.267 1.036-4.774-4.23-2.445 4.86-.49 1.017-4.777 1.97 4.472 4.86-.51-3.646 3.255 1.984 4.463M112.32 139.868l-3.593-3.31-4.25 2.41 2.038-4.44-3.604-3.297 4.852.568 2.023-4.446.96 4.788 4.854.548-4.26 2.394.98 4.786M97.77 146.096l-2.797-4.006-4.67 1.44 2.947-3.897-2.81-3.996 4.616 1.598 2.93-3.91-.09 4.885 4.62 1.58-4.673 1.423-.073 4.883M82.22 149.048l-1.867-4.513-4.87.4 3.715-3.17-1.887-4.506 4.168 2.55 3.702-3.185-1.14 4.75 4.175 2.535-4.87.384-1.124 4.754M66.404 148.588l-.855-4.81-4.843-.655 4.31-2.3-.87-4.805 3.516 3.39 4.3-2.318-2.134 4.393 3.53 3.376-4.838-.674-2.118 4.402M51.053 144.736l.2-4.882-4.585-1.68 4.703-1.32.182-4.88 2.708 4.066 4.698-1.337-3.03 3.832 2.723 4.055-4.58-1.697-3.017 3.843M36.893 137.673l1.244-4.724-4.118-2.63 4.877-.276 1.226-4.728 1.77 4.553 4.878-.295-3.784 3.09 1.788 4.546-4.11-2.643-3.77 3.106M24.582 127.73l2.232-4.348-3.457-3.452 4.823.78 2.214-4.354.75 4.826 4.826.764-4.36 2.202.767 4.825-3.443-3.466-4.352 2.222M14.698 115.37l3.113-3.764-2.632-4.115 4.544 1.8 3.098-3.776-.307 4.875 4.55 1.78-4.732 1.214-.288 4.878-2.618-4.126-4.726 1.234M7.705 101.174l3.85-3.006-1.685-4.584 4.05 2.734 3.838-3.02-1.35 4.693 4.06 2.72-4.882.167-1.33 4.7-1.67-4.59-4.88.187M3.927 85.808l4.407-2.11-.66-4.84L11.04 82.4l4.4-2.125-2.327 4.295 3.378 3.527-4.802-.885-2.31 4.305-.643-4.843-4.808-.866M3.544 69.986l4.757-1.11.396-4.87 2.527 4.182 4.753-1.13-3.197 3.697 2.542 4.172-4.504-1.9-3.18 3.708.415-4.867-4.51-1.882M6.573 54.452l4.883-.062 1.435-4.67 1.57 4.627 4.883-.08-3.917 2.92 1.585 4.622-3.987-2.823-3.904 2.936 1.45-4.665-3.997-2.806M12.87 39.935l4.783.99 2.405-4.252.535 4.854 4.79.975-4.453 2.01.553 4.852-3.287-3.613-4.445 2.027 2.42-4.242-3.3-3.6M22.142 27.11l4.46 1.998 3.263-3.637-.523 4.86 4.467 1.978-4.782 1.005-.502 4.86-2.435-4.236-4.774 1.024 3.277-3.623-2.45-4.226M33.956 16.582l3.926 2.91 3.968-2.85-1.554 4.63 3.935 2.895-4.883-.046-1.537 4.637-1.465-4.66-4.884-.027 3.98-2.834-1.484-4.654M47.758 8.84l3.21 3.686 4.485-1.93-2.513 4.19 3.22 3.672-4.76-1.096-2.496 4.198-.43-4.866-4.765-1.08 4.495-1.91-.447-4.865M62.902 4.247l2.34 4.29 4.797-.92-3.355 3.552 2.355 4.278-4.413-2.095-3.343 3.564.63-4.846-4.423-2.076 4.802-.9.61-4.847" fill="#FFF101"/></g></svg>