<svg width="152" height="152" viewBox="0 0 152 152" xmlns="http://www.w3.org/2000/svg"><title>SAMU</title><g fill="none" fill-rule="evenodd"><path d="M151.325 75.868C151.07 34.078 117.075.405 75.4.66 33.722.92.145 35.005.4 76.798c.257 41.792 34.25 75.464 75.925 75.21 41.676-.258 75.255-34.347 75-76.14" fill="#FFF"/><path d="M86.422 33.305h1.43V55.83l19.668-11.11c.894 1.574 10.918 19.186 11.822 20.78l-19.178 10.833s17.55 9.917 19.178 10.84c-.904 1.592-10.928 19.2-11.822 20.777L87.852 96.84v22.52h-23.98V96.84l-19.666 11.11c-.895-1.578-10.916-19.186-11.82-20.778l19.174-10.84L32.385 65.5c.905-1.594 10.926-19.204 11.82-20.78l19.667 11.11V33.304h22.55zm2.46-2.062H61.817V52.3C59.222 50.836 43.43 41.914 43.43 41.914L29.57 66.277l17.8 10.056c-2.657 1.5-17.8 10.06-17.8 10.06l13.86 24.36 18.386-10.385v21.056H89.91v-21.056l18.383 10.386 13.863-24.362-17.802-10.06c2.658-1.5 17.802-10.055 17.802-10.055l-13.863-24.363L89.91 52.3V31.243h-1.027z" fill="#E85900"/><path d="M83.97 36.03H66.61v24.478c-2.913-1.648-21.372-12.075-21.372-12.075l-9.126 16.04s18.02 10.18 20.99 11.86c-2.97 1.68-20.99 11.862-20.99 11.862l9.126 16.04S63.698 93.808 66.61 92.16v24.484h18.504V92.16l21.37 12.075 9.13-16.04L94.62 76.333l20.994-11.86-9.13-16.04-21.37 12.075v-24.48H83.97" fill="#C60000"/><path d="M136.863 106.76l-.83 1.555-.815-.43.6-1.125-.826-.432-.592 1.122-.814-.424.734-1.38-.812-.42-1.25 2.36 4.066 2.137 1.346-2.536-.807-.427zm-58.88 36.027c-.036-.867.613-1.463 1.448-1.5.494-.018.86.105 1.107.248l.04-.97c-.28-.15-.74-.253-1.315-.23-1.203.05-2.475.92-2.405 2.5.06 1.57 1.39 2.343 2.602 2.296.554-.024.937-.134 1.19-.294l.053-1.002c-.248.178-.626.298-1.122.32-.872.036-1.56-.508-1.597-1.367zm8.85.575c-.68.11-1.413-.338-1.55-1.188-.134-.847.418-1.504 1.097-1.61.68-.11 1.42.337 1.558 1.184.135.847-.423 1.508-1.106 1.614zm-.61-3.766c-1.25.206-2.29 1.312-2.057 2.755.237 1.46 1.57 2.185 2.825 1.986 1.26-.204 2.302-1.31 2.06-2.773-.23-1.445-1.566-2.163-2.826-1.967zm-14.473 5.37l1.116.066.252-4.577-1.115-.06-.253 4.572zm60.292-30.164l-.197.282-2.224-1.492.2-.284c.445-.663 1.196-.973 1.936-.473s.733 1.305.286 1.967zm.34-2.89c-1.188-.8-2.543-.343-3.283.752l-.868 1.28 3.806 2.562.868-1.28c.745-1.093.663-2.518-.524-3.314zM66.87 141.605c-.046.285-.083.577-.11.85l-.016.005c-.166-.297-.428-.712-.604-.983l-1.273-1.93-.892-.136-.712 4.526 1.105.174.303-1.916c.045-.287.092-.632.13-.956l.012-.003c.197.335.456.77.692 1.127l1.46 2.202.554.086.726-4.57-1.106-.176-.268 1.7zm53.498-16.825c.143.092.296.186.42.247l.867.454-.712.65-.377-.9c-.05-.13-.124-.295-.21-.44l.012-.01zm-1.24-.82l1.79 4.625.776-.705-.383-.944 1.114-1.016.917.463.82-.747-4.46-2.19-.57.513zm-3.797 5.37c-.543.172-.754.162-.88-.014-.135-.18-.085-.43.236-.66.293-.213.677-.318.935-.328l-.478-.804c-.242.012-.61.107-1.07.44-.817.59-.922 1.434-.46 2.06.372.51 1.015.67 1.83.425.577-.17.786-.157.95.065.158.22.076.494-.258.738-.413.304-.9.446-1.47.423l.715.807c.408 0 .89-.175 1.347-.507.912-.666 1.04-1.485.505-2.207-.422-.58-1.162-.676-1.9-.44zm-9.2 7.846l-.412-.82 1.143-.57-.41-.827-1.145.566-.405-.817 1.4-.696-.406-.818-2.403 1.19 2.048 4.104 2.582-1.28-.407-.815-1.583.78zm-7.056 2.95l-.324.117-.93-2.505.323-.118c.755-.277 1.546-.095 1.85.737.313.843-.167 1.49-.92 1.77zm-1.14-3.447l-1.454.534 1.598 4.3 1.452-.538c1.243-.458 2.01-1.66 1.517-3-.5-1.34-1.867-1.76-3.114-1.297zm-76.5-26.425l-3.884 2.45.595.936 3.888-2.447-.598-.938zm-3.795-4.284c.2-.102.438-.01.617.335.166.322.208.72.18.978l.872-.356c.023-.237-.012-.613-.272-1.12-.463-.894-1.278-1.124-1.972-.772-.563.287-.824.9-.707 1.737.08.596.032.8-.214.924-.243.125-.5 0-.688-.364-.237-.454-.3-.96-.193-1.518l-.91.58c-.066.402.03.906.293 1.408.514 1.005 1.308 1.253 2.112.84.642-.327.846-1.044.727-1.8-.09-.574-.04-.772.152-.87zm7.544 9.48c-.613-.797-1.458-.88-2.076-.412-.505.382-.653 1.027-.39 1.832.188.573.176.783-.045.947-.215.164-.496.088-.742-.237-.308-.4-.465-.89-.456-1.458l-.795.73c.007.41.192.884.536 1.336.685.893 1.51 1 2.227.454.574-.44.65-1.17.398-1.903-.19-.543-.178-.753-.005-.885.177-.133.428-.09.67.223.22.284.332.67.35.927l.796-.5c-.018-.236-.118-.605-.466-1.054zm103.107 3.37l-2.285-1.977-.71.824 2.206 1.905c.36.305.37.788.017 1.188-.346.403-.824.46-1.176.154l-2.213-1.908-.73.843 2.29 1.97c.774.667 1.847.418 2.564-.407.72-.834.815-1.928.04-2.594zM58.54 141.113c-.127.448-.56.662-1.074.515-.516-.147-.766-.557-.633-1l.8-2.804-1.074-.305-.834 2.896c-.275.983.405 1.848 1.46 2.15 1.057.3 2.098-.078 2.377-1.056l.826-2.9-1.043-.3-.805 2.804zm65.768-22.99c.224-.46.37-.828.43-1.365l-.69-.365c.032.612-.173 1.3-.398 1.78l.658-.05zm-64.374 19.302l.042-.775c-.545.287-1.26.39-1.79.388l.323.574c.515.015.91-.008 1.425-.186zm-32.008-18.44l-.646.605.954 1.008-2.702 2.533.76.806 2.697-2.528.947 1.005.65-.608-2.66-2.82zm18.55 16.443l-.113.968-.862-.433.708-.67c.104-.093.232-.224.337-.358l.016.01c-.036.166-.07.343-.085.482zm-3.29 1.396l.946.47.745-.7 1.353.68-.104 1.01.99.494.454-4.934-.687-.345-3.695 3.326zm-3.743-5.374c-.307.174-.646.38-.91.565l-.013-.01c.07-.314.13-.77.166-1.06l.243-2.16-.75-.5-2.896 3.58.893.6 1.064-1.323c.163-.205.34-.425.505-.672l.013.003c-.07.31-.126.635-.16.93l-.218 1.88.374.25 1.658-.915c.263-.14.553-.318.808-.5l.013.01c-.167.243-.31.49-.44.724l-.82 1.485.91.608 2.222-4.03-.755-.51-1.906 1.044zm-9.407-3.892l2.18 1.883.6-.693-1.34-1.148.603-.697.966.83.608-.698-.963-.83.596-.694 1.184 1.02.598-.687-2.03-1.75-3.002 3.464z" fill="#E85900"/><path d="M142.25 104.457c-3.63 8.606-8.825 16.33-15.44 22.968-6.616 6.637-14.324 11.838-22.903 15.482-8.88 3.77-18.318 5.68-28.043 5.68-9.73 0-19.163-1.91-28.047-5.68-8.58-3.644-16.286-8.845-22.9-15.482-6.616-6.637-11.813-14.362-15.443-22.968-.657-1.565-1.398-3.765-1.942-5.36l10.263-5.845c2.725 9.655 8.197 18.744 15.352 25.922 11.407 11.44 26.582 17.737 42.717 17.737 16.136 0 31.272-6.33 42.716-17.736 7.442-7.422 12.51-16.453 15.33-26l10.357 5.907c-.574 1.712-1.314 3.707-2.017 5.377zM75.864 17.365c32.474 0 58.803 26.402 58.803 58.968 0 32.567-26.33 58.968-58.803 58.968-32.477 0-58.805-26.4-58.805-58.967 0-32.566 26.327-58.968 58.804-58.968zm67.954 30.18c-3.714-8.808-9.03-16.715-15.8-23.51-6.78-6.79-14.666-12.124-23.45-15.848-9.09-3.86-18.747-5.813-28.704-5.813S56.25 4.326 47.154 8.187c-8.783 3.724-16.668 9.058-23.442 15.847-6.774 6.796-12.094 14.703-15.806 23.512C4.062 56.663 2.11 66.352 2.11 76.333c0 9.987 1.952 19.674 5.796 28.79 3.712 8.81 9.032 16.72 15.806 23.51 6.774 6.79 14.66 12.124 23.442 15.85 9.096 3.852 18.753 5.81 28.71 5.81s19.614-1.958 28.704-5.81c8.784-3.726 16.67-9.06 23.45-15.85 6.77-6.79 12.086-14.7 15.8-23.51 3.85-9.116 5.798-18.803 5.798-28.79 0-9.98-1.95-19.67-5.798-28.787z" fill="#E85900"/><path d="M12.915 85.594c.092.624.01 1.19-.21 1.593l-1.17.283c.32-.55.436-1.106.35-1.672-.063-.452-.288-.678-.59-.635-.307.046-.432.24-.562.9-.182.927-.68 1.474-1.38 1.577-.86.126-1.64-.418-1.803-1.53-.09-.626.013-1.037.124-1.285l1.05-.052c-.126.264-.226.698-.166 1.094.064.435.284.618.534.58.238-.037.36-.232.473-.864.15-.847.63-1.523 1.43-1.638.992-.148 1.74.402 1.92 1.65M12.334 81.78l-5.122.315-.184-2.976 1.017-.064.108 1.736 1.018-.062-.083-1.417 1.036-.063.088 1.418 1.028-.064-.12-1.962 1.016-.06.2 3.198M7.99 74.873l-.01.527 1.148.027.013-.526c.01-.32-.156-.646-.56-.658-.387-.008-.58.307-.59.63zm4.186-1.186l-2.055 1.325-.012.443 2.02.052-.03 1.194-5.135-.132.053-1.91c.022-.874.63-1.632 1.598-1.608.6.016 1.073.38 1.267.818l2.33-1.565-.034 1.384zM12.648 68.623l-.118 1.01-5.35 1.255.15-1.264 2.338-.536c.35-.08.78-.15 1.173-.2l.003-.012c-.372-.146-.772-.314-1.094-.472L7.6 67.346l.133-1.172 4.915 2.45M13.18 64.975l-5.034-.984.238-1.215 5.04.98-.243 1.22M11.24 56.676c-.235.213-.485.56-.633 1.09-.25.898.165 1.785 1.104 2.043.934.25 1.742-.3 2-1.233.148-.535.145-.976.043-1.295l1.048.396c.087.315.07.76-.086 1.35l.09.04c.12-.375.545-.657 1.014-.53.548.153.704.678.58 1.125-.076.27-.182.425-.337.556l-.48-.216c.172-.137.243-.278.29-.453.056-.19-.038-.352-.21-.4-.19-.053-.347.06-.403.267-.022.076-.04.155-.05.267l-.624-.277c-.48 1.13-1.662 2.034-3.207 1.612-1.707-.464-2.202-2.107-1.85-3.4.172-.618.44-1.068.69-1.315l1.025.37M12.64 51.85c-.283.718.04 1.614.932 1.965.898.35 1.746-.094 2.03-.814.278-.715-.04-1.622-.94-1.97-.892-.348-1.743.108-2.023.82zm3.99 1.55c-.515 1.317-1.976 2.187-3.52 1.585-1.528-.592-2.006-2.218-1.492-3.533.518-1.323 1.972-2.188 3.506-1.597 1.54.605 2.02 2.224 1.505 3.546zM17.096 42.795l-.196.337 2.58 1.51.195-.33c.454-.77.403-1.673-.454-2.177-.86-.5-1.672-.103-2.124.66zm3.578 1.93l-.877 1.486-4.427-2.587.878-1.487c.748-1.272 2.222-1.878 3.6-1.07 1.384.805 1.57 2.384.826 3.658zM23.188 40.707l-4.173-2.98 1.743-2.423.834.594-1.02 1.41.834.595.823-1.152.85.605-.835 1.152.84.598 1.148-1.596.83.593-1.875 2.604M27.594 30.53c-.142-.057-.323-.15-.492-.24l-.01.01c.11.16.203.335.268.477l.49.977.74-.78-.996-.443zm2.942 1.32l-1.05-.446-1.166 1.216.5 1.022-.813.844-2.346-5.014.596-.62 5.138 2.108-.858.89zM31.372 25.453l2.733 3.09-.928.817-2.738-3.098-1.167 1.023-.653-.74 3.256-2.858.657.75-1.16 1.016M36.693 26.418l-3.05-4.113 2.402-1.773.61.82-1.403 1.033.606.822 1.146-.845.615.83-1.145.842.612.824 1.585-1.165.61.82-2.59 1.905M44.445 21.342l-2.84-.845c-.458-.137-.993-.32-1.4-.468l-.008.013c.2.3.407.634.574.908l1.123 1.853-1.07.644-2.648-4.384.864-.518 2.475.743c.343.104.868.275 1.222.41l.01-.017c-.172-.253-.348-.528-.513-.803l-.997-1.648 1.067-.643 2.678 4.427-.537.328M46.564 15.64l-.35.165 1.267 2.7.35-.163c.807-.378 1.285-1.147.863-2.046-.422-.902-1.318-1.035-2.13-.655zm1.85 3.607l-1.568.73-2.172-4.634 1.57-.73c1.34-.623 2.903-.288 3.578 1.154.678 1.448-.066 2.856-1.407 3.48zM52.867 17.34L51.07 12.55l1.17-.435 1.796 4.79-1.17.438M60.855 14.83l-.662-1.773c-.105-.28-.21-.584-.298-.897l-.012.003c-.03.348-.1.722-.168 1.047l-.435 2.066-.478.128-1.437-1.554c-.227-.246-.46-.53-.673-.814l-.015.007c.09.325.147.63.202.914l.34 1.86-1.158.317-.924-5.05.977-.268 1.648 1.782c.227.244.563.624.785.913h.016c.036-.36.11-.793.187-1.18l.503-2.364.986-.268 1.793 4.812-1.178.32M64.02 14.165l-.827-5.05 2.953-.478.166 1.002-1.726.283.167 1.004 1.405-.23.17 1.02-1.41.23.168 1.013 1.945-.318.166 1.004-3.175.52M73.243 13.18l-2.136-2.042c-.343-.335-.732-.742-1.03-1.058l-.02.01c.044.355.08.75.102 1.07l.142 2.157-1.242.087-.346-5.105 1.005-.068 1.86 1.788c.26.248.65.637.9.92l.017-.01c-.037-.3-.07-.63-.09-.948l-.124-1.922 1.238-.084.353 5.16-.63.043M78.58 9.037l-.14 4.12-1.234-.04.14-4.13-1.55-.05.03-.985 4.33.15-.03.99-1.545-.055M84.644 9.557c-.77-.103-1.565.42-1.694 1.362-.13.952.507 1.67 1.27 1.77.765.103 1.572-.416 1.705-1.37.13-.946-.518-1.664-1.28-1.763zm-.57 4.223c-1.404-.187-2.598-1.39-2.378-3.03.22-1.62 1.688-2.464 3.094-2.276 1.41.19 2.605 1.393 2.383 3.014-.218 1.636-1.69 2.48-3.1 2.292zM96.484 16.573l.406-1.848c.064-.292.14-.604.237-.917l-.016-.003c-.212.276-.47.555-.704.793L94.922 16.1l-.476-.146-.363-2.08c-.06-.325-.104-.694-.127-1.048l-.018-.003c-.098.32-.215.61-.326.877l-.72 1.752-1.148-.358 1.962-4.748.967.3.422 2.385c.06.33.134.832.166 1.197l.016.003c.222-.287.52-.613.796-.896l1.703-1.72.97.306-1.093 5.014-1.168-.36M103.98 13.525l-.265-.684c.585.087 1.39.09 2.038-.137l-.17.848c-.597.11-1.036.072-1.603-.025zm-.384 1.437c-.706-.318-1.625-.045-2.02.827-.393.876.006 1.738.71 2.056.703.317 1.633.048 2.03-.83.393-.868-.017-1.743-.72-2.054zm-1.76 3.887c-1.29-.583-2.09-2.074-1.406-3.58.67-1.49 2.324-1.882 3.613-1.302 1.298.583 2.097 2.076 1.423 3.564-.68 1.508-2.332 1.898-3.63 1.317zM108.228 22.065l-.88-.514.984-5.387 1.108.646-.448 2.348c-.065.35-.173.773-.283 1.15l.01.01c.28-.28.6-.584.87-.814l1.835-1.54 1.02.596-4.217 3.505M111.297 23.95l2.97-4.17 2.444 1.722-.593.832-1.425-1.01-.59.832 1.162.822-.6.845-1.162-.82-.595.833 1.607 1.136-.596.83-2.62-1.852M115.417 26.967l3.3-3.915.95.8-2.608 3.096 1.575 1.32-.69.82-2.528-2.12M125.598 30.97l-.255-.286-2.228 1.99.257.286c.596.662 1.47.892 2.216.23.74-.667.607-1.56.01-2.22zm-2.925 2.81l-1.157-1.282 3.822-3.416 1.156 1.284c.99 1.097 1.115 2.68-.073 3.746-1.192 1.067-2.76.764-3.747-.332zM125.75 37.386l4.11-3.055 1.79 2.392-.817.61-1.042-1.396-.818.606.848 1.14-.834.62-.85-1.14-.824.612 1.175 1.578-.82.605-1.918-2.57M131.376 46.155c-.585-1.068-.424-2.283.575-2.83l2.966-1.612.6 1.09-2.868 1.56c-.46.252-.59.767-.305 1.287.283.52.8.7 1.254.45l2.867-1.558.583 1.065-2.965 1.613c-1.004.543-2.116.015-2.706-1.065M137.962 49.962l-.21-.488-1.058.448.208.485c.127.297.415.526.784.366.354-.148.402-.516.276-.81zm-3.32 2.804l1.32-2.056-.17-.404-1.86.785-.468-1.1 4.727-2 .75 1.758c.336.806.102 1.748-.784 2.125-.557.235-1.14.1-1.495-.223l-1.47 2.394-.547-1.278zM136.32 57.85c-.424-1.345.033-2.985 1.703-3.514 1.69-.534 3.004.586 3.412 1.866.215.684.215 1.274.102 1.677l-1.07.236c.137-.41.15-.93-.02-1.463-.283-.89-1.113-1.432-2.08-1.128-.917.288-1.298 1.172-1.017 2.06.09.284.2.48.357.622l.692-.22-.282-.887.91-.286.625 1.97-2.254.71c-.463-.31-.826-.86-1.08-1.645M143.502 62.698c.062-.278.14-.518.324-.783-.278-.172-.45-.356-.623-.583l.372-.59c.282.376.737.735 1.276.95-.403.413-.665.93-.765 1.385l-.583-.38zm-5.995-1.05l5.022-1.077.63 2.913-1 .215-.367-1.703-1 .22.3 1.386-1.013.22-.3-1.386-1.008.218.415 1.918-.996.215-.683-3.136zM138.97 70.778l1.938-2.23c.313-.362.7-.77 1.007-1.08l-.01-.015c-.362.06-.75.112-1.07.15l-2.157.258-.147-1.235 5.1-.602.115.994-1.692 1.942c-.236.274-.61.68-.88.946l.01.013c.303-.055.63-.1.948-.134l1.923-.23.143 1.236-5.152.605-.073-.62M143.133 77.46c.167-.267.31-.674.303-1.225-.013-.927-.662-1.665-1.635-1.652-.964.018-1.59.77-1.572 1.74.005.556.134.977.326 1.254l-1.122-.087c-.174-.282-.284-.718-.293-1.334-.025-1.344.88-2.805 2.644-2.83 1.77-.028 2.71 1.41 2.73 2.75.007.638-.124 1.147-.293 1.454l-1.087-.07M139.175 79.65l5.127.313-.08 1.24-5.123-.315.075-1.24M141.63 85.752c.154-.034.35-.064.538-.084l.007-.018c-.18-.066-.362-.154-.5-.23l-.967-.51-.146 1.067 1.067-.225zm-3.16.642l1.113-.247.235-1.67-1.002-.536.165-1.158 4.838 2.71-.12.848-5.4 1.274.17-1.22zM73.593 73.185l-.13-2.762c-.133-.104-.274-.206-.406-.313-4.566-4.42-.83-6.57-.83-6.57s.272.552 1.57.602c.227.01.48.015.74.015.723-.012 1.446-.08 1.932-.227.272-.107.456-.263.477-.482.017-.154-.05-.29-.177-.417-.15-.105-.355-.212-.618-.344-.288-.137-.614-.3-.947-.52-.417-.28-.774-.553-1.094-.796-.277-.21-.813-.605-1.484-.698-1.774-.08-3.026.954-3.797 2.327-1.784 3.194-.57 6.45 2.735 8.772.65.457 1.345.933 2.028 1.413" fill="#FFF"/><path d="M77.206 90.49l-.102 2.38c.25.315.398.63.398.96 0 .668-.466 1.17-1.09 1.632l.528-12.39.003-.116c1.91-1.725 4.056-3.577 4.084-5.654 0-1.335-1.34-2.567-3.06-3.79l-.15 3.36c.15.264.238.517.242.748.018.678-.367 1.35-.96 2.024v-.003c-.652.724-1.55 1.466-1.55 1.466s1.207-1.326 1.584-2.175l.993-21.032-2.338-1.835-2.34 1.835.15 2.508c.387.186.697.408.878.544 0 0 1.03.75 1.03.752 0 0 .88.482.89.486l.697.39.01.005.053.05c.278.275.348.557.348.773 0 .035-.003.068-.005.1-.03.292-.2.695-.87.955-.622.19-1.475.242-2.092.254l-.76-.016h-.008l.816 17.24c-1.76 1.48-3.523 3.05-3.523 4.825 0 1.644 1.664 2.882 3.3 3.986l-.12-3.04c-.138-.26-.22-.532-.213-.807.008-.557.277-1.118.702-1.687l.47 11.043c-1.06.673-2.088 1.41-2.088 2.618 0 1.21 1.017 2.07 2.315 2.683l.083 2.003c0 .007-.006.012-.006.018 0 .154.127.277.282.277.15 0 .277-.123.277-.276v-.005l.072-1.712c.488.186.994.346 1.49.477.304.082.312-.012.042-.13-.568-.25-1.073-.51-1.515-.78l.193-4.466c1.52-.837 3.3-1.72 3.38-3.18.063-1.195-1.184-2.263-2.524-3.294" fill="#FFF"/><path d="M75.273 97.867l.127 3.036c-.778-.615-1.218-1.26-1.21-1.894.007-.532.447-.976 1.07-1.397.01-.007.026-.016.036-.026.164-.108.338-.217.524-.325-.13.12-.397.383-.547.605" fill="#FFF"/></g></svg>