<?xml version="1.0" encoding="UTF-8" standalone="no"?>
<svg width="103px" height="100px" viewBox="0 0 103 100" version="1.1" xmlns="http://www.w3.org/2000/svg" xmlns:xlink="http://www.w3.org/1999/xlink">
    <!-- Generator: sketchtool 3.7.2 (28276) - http://www.bohemiancoding.com/sketch -->
    <title>C8B110CC-7ECA-48B4-B06B-9483693D033C</title>
    <desc>Created with sketchtool.</desc>
    <defs>
        <polygon id="path-1" points="102.695292 0.496862311 0.175754409 0.496862311 0.175754409 99.4163281 102.695292 99.4163281 102.695292 0.496862311"></polygon>
    </defs>
    <g id="GdS-md" stroke="none" stroke-width="1" fill="none" fill-rule="evenodd">
        <g id="10---game_perguntas" transform="translate(-464.000000, -228.000000)">
            <g id="Group-6" transform="translate(464.000000, 227.000000)">
                <g id="Group-4-Copy-6" transform="translate(0.000000, 0.724704)">
                    <g id="Group-24" transform="translate(0.130383, 0.198040)">
                        <mask id="mask-2" fill="white">
                            <use xlink:href="#path-1"></use>
                        </mask>
                        <g id="Clip-23"></g>
                        <path d="M80.1610036,99.4163281 L22.7100432,99.4163281 C10.2643949,99.4163281 0.175754409,89.6820857 0.175754409,77.6736334 L0.175754409,22.2408347 C0.175754409,10.2323824 10.2643949,0.496720351 22.7100432,0.496720351 L80.1610036,0.496720351 C92.6066519,0.496720351 102.695292,10.2323824 102.695292,22.2408347 L102.695292,77.6736334 C102.695292,89.6820857 92.6066519,99.4163281 80.1610036,99.4163281" id="Fill-22" fill="#EDEFF1" mask="url(#mask-2)"></path>
                    </g>
                    <path d="M94.6844353,5.71179206 C97.9301027,9.47942798 99.8839768,14.3174473 99.8839768,19.5998035 L99.8839768,75.0326021 C99.8839768,87.0410544 89.7953362,96.7752969 77.349688,96.7752969 L19.8972563,96.7752969 C14.4240548,96.7752969 9.40989596,94.8900593 5.50509037,91.7584072 C9.63794603,96.5566775 15.8688623,99.6145101 22.8398377,99.6145101 L80.2922694,99.6145101 C92.7379177,99.6145101 102.826558,89.8802676 102.826558,77.8718154 L102.826558,22.4390167 C102.826558,15.711501 99.657398,9.69946701 94.6844353,5.71179206" id="Fill-25" fill="#C3C5CB"></path>
                    <path d="M1.77683966,80.7104607 L3.24813039,25.277662 C3.24813039,13.2692098 13.3367709,3.53496729 25.7824192,3.53496729 L83.2348509,2.11536069 C88.7080524,2.11536069 93.7222112,5.42020486 97.6270168,8.55043742 C93.4926898,3.7521671 87.2632449,0.695754081 80.2922694,0.695754081 L22.8398377,0.695754081 C10.3941895,0.695754081 0.305548935,10.4299966 0.305548935,22.4384488 L0.305548935,77.8712475 C0.305548935,84.5987632 3.47470916,90.6093776 8.44767183,94.5970525 C5.20200448,90.8308362 1.77683966,85.9913973 1.77683966,80.7104607" id="Fill-27" fill="#FFFFFF"></path>
                    <path d="M50.3978487,77.7052955 C49.3532323,77.0125275 48.4160201,76.17354 47.5832696,75.2309212 C46.7490477,74.282624 46.0457708,73.2363739 45.4719674,72.1262415 C44.898164,71.0161092 44.4950303,69.9968316 44.2610951,69.0811854 C44.0256886,68.1669587 43.9859637,67.3237124 44.1433918,66.5301523 C44.2493248,65.7791804 44.6009633,65.2766397 45.1997786,64.9487106 C45.7956513,64.622201 46.4739164,64.3822875 47.2301598,64.2048367 C47.9864032,64.0359035 48.8868332,63.9776996 49.928507,64.0146094 C50.9687095,64.0529388 51.9338763,64.1579897 52.8195933,64.3964836 C53.8627384,64.7968127 54.8131922,65.3504592 55.6738973,66.1071095 C56.5316598,66.8637599 57.2099248,67.7013278 57.7057498,68.6212328 C58.1986322,69.5382987 58.5796965,70.5604155 58.8386436,71.6719674 C59.0975908,72.784939 59.1505573,73.8510636 58.9960718,74.8376902 C58.7856772,75.8115403 58.4222684,76.6888572 57.9014315,77.4568643 C57.3791232,78.2220323 56.7273415,78.7330907 55.9460861,78.9857807 C55.166302,79.2356314 54.2879414,79.2682824 53.3286599,79.0723767 C52.3634931,78.8750513 51.3865561,78.4136792 50.3978487,77.7052955" id="Fill-29" fill="#FFFFFF"></path>
                    <path d="M55.6116617,56.0757434 C55.4807168,57.9482045 55.3512432,59.8093088 55.2202984,61.656217 C52.0158272,61.3013153 48.8113559,60.8598177 45.6068847,59.6687677 C45.2949711,56.0217983 44.9815862,52.4372917 44.6682013,48.9152477 C52.8485777,47.7568487 57.1344476,42.2203829 57.5272822,38.4626843 C57.9186456,33.8205707 53.0060058,33.8631589 43.4161328,35.7214239 C43.7545297,32.3782504 44.4077828,30.9444477 44.7461797,27.4337606 C51.6774303,25.4676054 57.3580838,21.9512398 61.7866689,21.8731615 C67.7821786,21.5154206 70.6717936,26.7906788 70.4628703,33.2470496 C70.0965189,41.5985952 67.0244639,47.7213585 61.2393487,52.5906092 C59.7812996,53.760365 57.9068752,54.9712895 55.6116617,56.0757434" id="Fill-31" fill="#FFFFFF"></path>
                    <path d="M47.8678172,76.9123033 C46.8232008,76.2195352 45.8859886,75.3805477 45.053238,74.4379289 C44.2190162,73.4896317 43.5157392,72.4433817 42.9419358,71.3332493 C42.3681325,70.2231169 41.9649988,69.2038394 41.7310636,68.2881931 C41.4956571,67.3739665 41.4559322,66.5307202 41.6133603,65.7371601 C41.7192932,64.9861882 42.0709317,64.4836474 42.6697471,64.1557183 C43.2656198,63.8292088 43.9438848,63.5878757 44.7001283,63.4118444 C45.4563717,63.2429113 46.3568016,63.1847074 47.3984755,63.2216172 C48.438678,63.2599465 49.4038447,63.3649974 50.2895617,63.6034913 C51.3327069,64.0038204 52.2831607,64.557467 53.1438658,65.3141173 C54.0016282,66.0707676 54.6798933,66.9083355 55.1757182,67.8282406 C55.6686006,68.7453065 56.0496649,69.7674232 56.3086121,70.8789752 C56.5675593,71.9919468 56.6205257,73.0580713 56.4660402,74.0446979 C56.2556456,75.018548 55.8922368,75.8958649 55.3713999,76.6638721 C54.8490917,77.4290401 54.1973099,77.9400984 53.4160545,78.1927884 C52.6362705,78.4426392 51.7579099,78.4752901 50.7986283,78.2793844 C49.8334616,78.0820591 48.8565246,77.620687 47.8678172,76.9123033" id="Fill-33" fill="#1976D1"></path>
                    <path d="M46.5243816,75.8569677 C45.6901598,74.9100901 44.9868828,73.8624204 44.4130794,72.7537077 C43.8407473,71.6421557 43.4361424,70.6228782 43.2022072,69.7086515 C42.9668007,68.7930052 42.9270758,67.9497589 43.0845039,67.1561988 C43.1904368,66.4052269 43.5420753,65.9026862 44.1408907,65.5761767 C44.7367634,65.2496672 45.4150284,65.008334 46.1712719,64.8323028 C46.9275153,64.6633696 47.8279452,64.6051658 48.8696191,64.6420755 C49.9112929,64.6789853 50.8749883,64.7854558 51.7621766,65.0225301 C52.6714343,65.3731729 53.499771,65.867196 54.2707273,66.4833053 C53.9367443,66.0744586 53.5630365,65.6840668 53.1437186,65.3149691 C52.2830135,64.5568991 51.3325597,64.0046722 50.2908859,63.6029235 C49.4036976,63.3658492 48.4400022,63.2593787 47.3983283,63.2224689 C46.3566545,63.1855592 45.4562246,63.243763 44.6999811,63.4126962 C43.9437377,63.5887274 43.2654727,63.8300606 42.6695999,64.1565701 C42.0707846,64.4830796 41.7191461,64.9856203 41.6132132,65.7365922 C41.4557851,66.5301523 41.4955099,67.3733986 41.7309164,68.2890449 C41.9648517,69.2032716 42.3694566,70.2225491 42.9417887,71.3341011 C43.5155921,72.4428138 44.2188691,73.4904835 45.0530909,74.4373611 C45.5356743,74.9839096 46.0653389,75.4836112 46.6185442,75.9520813 C46.5891184,75.9180108 46.5538074,75.8910383 46.5243816,75.8569677" id="Fill-35" fill="#004597"></path>
                    <path d="M53.6513139,54.4106868 C53.520369,56.2831479 53.3908955,58.1442522 53.2599506,59.9911604 C50.0554794,59.6362587 46.8510082,59.1947611 43.646537,58.0037111 C43.3346233,54.3567418 43.0212384,50.7722351 42.7078535,47.2501911 C50.8882299,46.0917921 55.1740998,40.5553264 55.5669345,36.7976277 C55.9582978,32.1555141 51.3605143,34.1940692 41.76917,36.0523342 C42.1090382,32.7091607 42.447435,29.2793911 42.7858319,25.768704 C49.7170825,23.8025488 55.397736,20.2861833 59.8263211,20.2081049 C65.8218308,19.850364 68.7114458,25.1256222 68.5025225,31.581993 C68.1361712,39.9335387 65.0641161,46.0563019 59.279001,50.9255526 C57.8209519,52.0953084 55.9465275,53.3062329 53.6513139,54.4106868" id="Fill-37" fill="#1976D1"></path>
                    <path d="M44.2571226,27.1883106 C51.1883732,25.2221554 56.8690267,21.7057899 61.2976118,21.6277115 C63.2573711,21.5113038 64.8787335,22.0053269 66.1749406,22.9351692 C64.7286618,21.1081355 62.6188309,20.0420109 59.8263211,20.2081049 C55.397736,20.2861833 49.7170825,23.8025488 42.7858319,25.768704 C42.447435,29.2808107 42.1090382,32.7091607 41.76917,36.0523342 C42.3370882,35.9416049 42.8829371,35.8308756 43.4155443,35.7215659 C43.6965609,32.9306193 43.9761061,30.0942453 44.2571226,27.1883106" id="Fill-39" fill="#004597"></path>
                    <path d="M44.1795856,48.6693718 C52.3599621,47.5109728 56.6458319,41.9759267 57.0371953,38.2168084 C57.1784392,36.5416726 57.4815251,33.224052 52.9484783,33.9665062 C56.0308324,33.8600357 55.6100433,36.2762062 55.5659046,36.7972018 C55.1745412,40.5563201 50.8886713,46.0913662 42.7082949,47.2497652 C43.0202085,50.7718092 43.3335934,54.3563159 43.6469784,58.0032852 C44.1089636,58.1750576 44.5709489,58.3014026 45.0329342,58.4433633 C44.7489751,55.1356799 44.4635447,51.8734239 44.1795856,48.6693718" id="Fill-41" fill="#004597"></path>
                </g>
            </g>
        </g>
    </g>
</svg>