<?xml version="1.0" encoding="UTF-8" standalone="no"?>
<svg width="324px" height="77px" viewBox="0 0 324 77" version="1.1" xmlns="http://www.w3.org/2000/svg" xmlns:xlink="http://www.w3.org/1999/xlink">
    <!-- Generator: sketchtool 3.7.2 (28276) - http://www.bohemiancoding.com/sketch -->
    <title>F18565EE-B5F4-4EDB-97EB-FE5F5797BCC4</title>
    <desc>Created with sketchtool.</desc>
    <defs></defs>
    <g id="GdS-md" stroke="none" stroke-width="1" fill="none" fill-rule="evenodd">
        <g id="10---game_perguntas" transform="translate(-477.000000, -109.000000)">
            <g id="Page-1" transform="translate(477.000000, 109.000000)">
                <g id="Group-2">
                    <path d="M259.985384,6.41672594 L314.875508,0.0178892209 C316.865268,-0.214008088 318.285397,1.84095883 317.306034,3.53508334 L301.116553,31.5498072 C300.556391,32.5191889 300.764677,33.7352482 301.617806,34.4773196 L322.743553,52.8481734 C324.351456,54.2461829 323.440469,56.8301815 321.286079,56.9830808 L253.222936,61.8187768 C251.662371,61.9293739 250.3953,60.6134204 250.618313,59.1124587 L258.194443,8.11237945 C258.326988,7.21995706 259.061248,6.52426513 259.985384,6.41672594" id="Fill-1" fill="#FFCB00"></path>
                    <polygon id="Fill-4" fill="#1E120F" opacity="0.05" points="258.419086 7.2482944 259.985437 6.41652208 298.858073 1.88509577 278.705905 62.0346706 285.704515 21.4974921"></polygon>
                    <path d="M58.0480714,14.383902 L2.39475974,24.6832005 C0.110980519,25.1057123 -0.790012987,27.806424 0.806318182,29.4444854 L18.5500519,47.6512273 C19.4684026,48.5935968 19.6156753,50.0175992 18.9087662,51.1179647 L7.88119481,68.2804041 C6.51997403,70.3990791 8.42452597,73.07074 10.9513052,72.5870684 L76.4608442,60.0457562 C78.2880779,59.6961264 79.3252987,57.8113874 78.6068182,56.1463138 L61.316474,16.0856715 C60.7794545,14.8405613 59.4156039,14.1305988 58.0480714,14.383902" id="Fill-6" fill="#FFCB00"></path>
                    <polygon id="Fill-8" fill="#1E120F" opacity="0.0500000007" points="42.3286013 66.5801637 29.2313221 31.045851 60.3947571 13.9496679 20.1083026 21.405039"></polygon>
                    <path d="M285.704725,21.4977469 L259.941992,7.43100909 C259.149349,6.99779434 258.145264,7.36679138 257.848089,8.20009269 L250.184647,29.697228 L285.704725,21.4977469 Z" id="Fill-10" fill="#FF790B"></path>
                    <path d="M29.2312695,31.0456981 L58.7920617,14.8286861 C59.6515032,14.3572465 60.7428994,14.705857 61.1452695,15.5794218 L71.1798019,37.3701238 L29.2312695,31.0456981 Z" id="Fill-12" fill="#FF790B"></path>
                    <path d="M41.8381831,65.2496337 L29.2311117,31.0455452 L285.704462,21.4974921 L276.873884,72.6458837 C276.48256,74.9103227 274.46019,76.5692804 272.090677,76.5692804 L47.3614364,69.0211504 C44.8830468,69.0211504 42.6718519,67.5115244 41.8381831,65.2496337" id="Fill-14" fill="#FFB400"></path>
                    <polygon id="Fill-16" fill="#FFCB00" points="29.2312695 31.0456981 37.0314643 52.2090033 280.311282 52.7354866 285.70462 21.497645"></polygon>
                </g>
            </g>
        </g>
    </g>
</svg>