<?xml version="1.0" encoding="UTF-8" standalone="no"?>
<svg width="123px" height="123px" viewBox="0 0 123 123" version="1.1" xmlns="http://www.w3.org/2000/svg" xmlns:xlink="http://www.w3.org/1999/xlink">
    <!-- Generator: sketchtool 3.7.2 (28276) - http://www.bohemiancoding.com/sketch -->
    <title>0F11FB1E-BE62-4350-A373-08309E0D86C1</title>
    <desc>Created with sketchtool.</desc>
    <defs>
        <filter x="-50%" y="-50%" width="200%" height="200%" filterUnits="objectBoundingBox" id="filter-1">
            <feOffset dx="10" dy="10" in="SourceAlpha" result="shadowOffsetOuter1"></feOffset>
            <feGaussianBlur stdDeviation="10" in="shadowOffsetOuter1" result="shadowBlurOuter1"></feGaussianBlur>
            <feColorMatrix values="0 0 0 0 0   0 0 0 0 0   0 0 0 0 0  0 0 0 0.246376812 0" type="matrix" in="shadowBlurOuter1" result="shadowMatrixOuter1"></feColorMatrix>
            <feMerge>
                <feMergeNode in="shadowMatrixOuter1"></feMergeNode>
                <feMergeNode in="SourceGraphic"></feMergeNode>
            </feMerge>
        </filter>
        <polygon id="path-2" points="74.1559309 57.7543088 74.1559309 0.0492987036 0.289066131 0.0492987036 0.289066131 57.7543088 74.1559309 57.7543088"></polygon>
        <path d="M0.0141165019,52.7869658 C0.294473231,53.2673451 0.585930238,53.7404364 0.888135262,54.205887 L59.5649585,54.205887 C61.6648323,50.9717 63.245773,47.3686074 64.1896025,43.5149411 L64.1896025,26.7783095 C60.4431921,11.481675 46.6585146,0.133058637 30.2265469,0.133058637 C17.3385021,0.133058637 6.07899002,7.11438336 0.0141165019,17.5062848 L0.014117109,52.7869669 L0.0141165019,52.7869658 Z" id="path-4"></path>
        <path d="M34.1842449,26.5754973 C30.3661272,11.3815103 16.6308415,0.133117067 0.271634847,0.133058637 L0.271634847,28.9148863 L34.1842449,28.9148863 L34.1842449,26.5754973 L34.1842449,26.5754973 Z" id="path-6"></path>
        <path d="M34.1842449,26.5754973 C30.3661272,11.3815103 16.6308415,0.133117067 0.271634847,0.133058637 L0.271634847,28.9148863 L34.1842449,28.9148863 L34.1842449,26.5754973 L34.1842449,26.5754973 Z" id="path-8"></path>
        <path d="M29.078759,15.2931776 C22.7717389,6.13530845 12.221735,0.133086987 0.271592045,0.133058637 L0.271571113,25.2404257 L29.078759,25.2404257 L29.078759,15.2931776 L29.078759,15.2931776 Z" id="path-10"></path>
        <path d="M34.050467,0.133058637 C17.6912604,0.133117067 3.95597464,11.3815103 0.137856916,26.5754973 L0.137856916,28.9148863 L34.050467,28.9148863 L34.050467,0.133058637 L34.050467,0.133058637 Z" id="path-12"></path>
        <path d="M34.050467,0.133058637 C17.6912604,0.133117067 3.95597464,11.3815103 0.137856916,26.5754973 L0.137856916,28.9148863 L34.050467,28.9148863 L34.050467,0.133058637 L34.050467,0.133058637 Z" id="path-14"></path>
        <path d="M28.9517797,0.133058637 C17.0016367,0.133086987 6.45163277,6.13530845 0.144612733,15.2931776 L0.144612733,25.2404257 L28.9518006,25.2404257 L28.9518006,0.133058637 L28.9517797,0.133058637 Z" id="path-16"></path>
    </defs>
    <g id="GdS-md" stroke="none" stroke-width="1" fill="none" fill-rule="evenodd">
        <g id="07---game_mapa" transform="translate(-467.000000, -588.000000)">
            <g id="Group-4" transform="translate(467.000000, 588.000000)">
                <g id="Page-1" filter="url(#filter-1)">
                    <g id="Group-20" transform="translate(10.000000, 9.224636)">
                        <path d="M83.3973793,41.84742 C83.3973793,64.907088 64.7283789,83.6003906 41.6986896,83.6003906 C18.6690004,83.6003906 0,64.907088 0,41.84742 C0,18.7877519 18.6690004,0.0944492963 41.6986896,0.0944492963 C64.7283789,0.0944492963 83.3973793,18.7877519 83.3973793,41.84742" id="Fill-1" fill="#EDEFF1"></path>
                        <g id="Group-5" transform="translate(9.241448, 25.845922)">
                            <mask id="mask-3" fill="white">
                                <use xlink:href="#path-2"></use>
                            </mask>
                            <g id="Clip-4"></g>
                            <path d="M71.0014422,0.0492987036 C71.0001675,26.6501772 49.4637688,48.2139726 22.8971542,48.2139726 C14.7245271,48.2139726 7.02926869,46.1708684 0.289066131,42.5703081 C7.93747999,51.8438888 19.5077733,57.7543088 32.4572732,57.7543088 C55.4866438,57.7543088 74.1559628,39.0610062 74.1559628,16.0013381 C74.1559628,10.3512919 73.0326488,4.96449114 71.0014422,0.0492987036" id="Fill-3" fill="#1E120F" opacity="0.2" mask="url(#mask-3)"></path>
                        </g>
                        <path d="M39.9103101,6.88943799 C20.14094,7.99283552 5.00822767,24.934359 6.11019071,44.7294637 C7.21247243,64.5245684 24.131971,79.6769796 43.9010224,78.5735821 C63.6703924,77.4698655 78.8031048,60.5283421 77.7011417,40.7335564 C76.5991787,20.9384517 59.6796801,5.78604047 39.9103101,6.88943799" id="Fill-6" fill="#FFFFFF" opacity="0.8"></path>
                        <path d="M0.956011898,44.7191891 C0.956011898,21.6595211 19.6250123,2.96621844 42.6547015,2.96621844 C60.5384975,2.96621844 75.7903926,14.240465 81.7144797,30.0769955 C76.6390125,12.7490596 60.6458895,0.0944492963 41.6986896,0.0944492963 C18.6690004,0.0944492963 0,18.7877519 0,41.84742 C0,46.9996929 0.934342295,51.9330732 2.63891151,56.4896136 C1.5452339,52.7559946 0.956011898,48.8066739 0.956011898,44.7191891" id="Fill-8" fill="#FFFFFF" opacity="0.800000012"></path>
                        <path d="M76.6668006,41.84742 C76.6668006,61.1849561 61.0111497,76.8609866 41.6987534,76.8609866 C22.386357,76.8609866 6.73070617,61.1849561 6.73070617,41.84742 C6.73070617,22.5098838 22.386357,6.83385331 41.6987534,6.83385331 C61.0111497,6.83385331 76.6668006,22.5098838 76.6668006,41.84742" id="Fill-10" fill="#FFCB00"></path>
                        <path d="M8.94906805,54.1406341 C15.9846783,71.2736088 30.907068,76.8611143 41.6985303,76.8611143 C61.0109267,76.8611143 76.6668962,61.1850838 76.6668962,41.8475476 C76.6668962,40.5913081 76.599338,39.351342 76.4705951,38.1295638 C69.4247874,55.6502274 60.393343,65.7122683 40.8572398,68.0048973 C30.9730328,69.164773 19.4840005,64.9349761 8.94906805,54.1406341 Z" id="Fill-12" fill="#1E120F" opacity="0.2"></path>
                        <path d="M70.4750621,21.9535583 C64.1647462,12.8194179 53.6304511,6.83369376 41.6987852,6.83369376 C22.3863889,6.83369376 6.73041937,22.5100434 6.73041937,41.8472604 C6.73041937,46.1737402 7.51626115,50.3154695 8.94900431,54.140666 C11.0289675,54.3477524 13.1379298,54.4552842 15.272067,54.4552842 C39.0098424,54.4552842 59.6851931,41.3399145 70.4750621,21.9535583" id="Fill-14" fill="#FFFFFF" opacity="0.300000012"></path>
                        <path d="M11.1542688,24.7938656 C14.300504,27.9410055 18.6452594,29.8874268 23.4438018,29.8874268 C33.0475786,29.8874268 40.8330209,22.0918499 40.8330209,12.4758905 C40.8330209,10.5170249 40.5054275,8.63601608 39.909832,6.87881245 C27.53617,7.50326269 16.8603852,14.5690911 11.1542688,24.7938656" id="Fill-16" fill="#FFFFFF" opacity="0.2"></path>
                        <path d="M75.7107568,39.6138217 C75.7107568,58.9513579 60.055106,74.6273884 40.7427096,74.6273884 C26.7451021,74.6273884 14.6703531,66.3908354 9.08373825,54.4953295 C14.1486893,67.5813433 26.8407033,76.8609866 41.6987215,76.8609866 C61.0111179,76.8609866 76.6667687,61.1849561 76.6667687,41.84742 C76.6667687,36.5257127 75.4790833,31.482567 73.3576929,26.9659123 C74.8761584,30.889068 75.7107568,35.1536452 75.7107568,39.6138217 Z" id="Fill-18" fill="#1E120F" opacity="0.2"></path>
                    </g>
                    <g id="Group-52" transform="translate(17.648095, 15.925431)">
                        <g id="Group-23" transform="translate(3.824048, 0.000000)">
                            <mask id="mask-5" fill="white">
                                <use xlink:href="#path-4"></use>
                            </mask>
                            <g id="Clip-22"></g>
                            <path d="M48.186282,37.0384511 C48.1827766,36.9615515 48.1776779,36.8852901 48.1728978,36.8087096 C48.1623817,36.6268308 48.1486789,36.4459094 48.1317893,36.2656261 C48.1244599,36.186812 48.1174491,36.1079979 48.1091637,36.0295029 C48.0855821,35.8093339 48.0581764,35.5907604 48.0259907,35.3734632 C48.0218479,35.3450645 48.0186612,35.3160278 48.0145185,35.2876292 C47.9775527,35.0483151 47.9342135,34.8115537 47.8873689,34.5757495 C47.8711167,34.4943827 47.8532712,34.4136541 47.8357443,34.3326064 C47.8010092,34.1714682 47.7643621,34.0112873 47.7248469,33.8517446 C47.703496,33.7646343 47.682145,33.677843 47.6592008,33.5910518 C47.6129935,33.416512 47.5632809,33.2432486 47.5116563,33.0712616 C47.493492,33.0106353 47.4772398,32.9493709 47.4584383,32.8893828 C47.3905614,32.6724047 47.3172672,32.4582984 47.2407862,32.2451493 C47.2079631,32.1538909 47.1729094,32.0639088 47.1388116,31.9736076 C47.088143,31.8405489 47.0361997,31.7081285 46.9823443,31.5769843 C46.9428292,31.4799824 46.9026767,31.3836186 46.8612495,31.2875738 C46.8038888,31.1545152 46.74366,31.023052 46.6827939,30.8919079 C46.6391361,30.7984158 46.5967529,30.7039665 46.5515016,30.6114317 C46.4619552,30.4279576 46.369222,30.246398 46.2729835,30.0670719 C46.2207215,29.9687936 46.1659102,29.8724298 46.1114175,29.7757469 C46.0511887,29.6682151 45.9903227,29.5613215 45.9275445,29.4557042 C45.8685905,29.3555114 45.8086804,29.2559567 45.7474956,29.1573593 C45.6821682,29.0523802 45.6152473,28.9486774 45.5476891,28.8452937 C45.0693645,28.1117162 44.5378219,27.416429 43.9517866,26.7706001 L64.1896025,5.2910432 L60.6271835,1.72366775 L55.7821152,-3.12770759 L33.3349558,21.4626134 C33.2087622,21.4508073 33.0819313,21.4441065 32.9551004,21.4354912 C32.8716087,21.4297476 32.7893917,21.4211323 32.7055813,21.4166651 C32.6829557,21.4153888 32.6606488,21.4137933 32.6383418,21.4128361 C32.3671531,21.3994345 32.094371,21.3920955 31.8199956,21.3920955 C31.4465136,21.3920955 31.0774931,21.4090071 30.7107032,21.4335766 C30.7059231,21.419856 30.7030551,21.4054971 30.698275,21.3920955 C30.5551919,21.3991154 30.4149768,21.4166651 30.2728497,21.427514 L7.85755739,-3.12770759 L3.01280776,1.72366775 L0.014117109,5.66150142 L21.0441482,25.7163417 C20.2879428,26.5705335 18.2149903,28.5147212 17.6547673,29.518245 C17.6592287,29.5227122 17.6640088,29.5268603 17.6684702,29.5313275 C17.5821104,29.6797022 17.4941573,29.8271197 17.4119403,29.9783662 C17.1595532,30.4432737 16.9291543,30.9219019 16.7220184,31.4126553 C16.5145638,31.9034088 16.3306908,32.4062875 16.1710369,32.920015 C15.6920749,34.4611978 15.4342704,36.1000207 15.4342704,37.7988317 C15.4342704,38.0965385 15.4431931,38.3920116 15.458808,38.6858893 C15.4604014,38.7171597 15.462632,38.748111 15.4645441,38.7793814 C15.4699615,38.8674489 15.4792029,38.9545593 15.485895,39.0426269 C15.4989605,39.2162094 15.5113887,39.3901109 15.5298715,39.562098 C15.536245,39.6233624 15.5442117,39.6839886 15.5512225,39.7446149 C15.5620573,39.8368306 15.5754414,39.928089 15.5878696,40.0199856 C15.6063525,40.1562351 15.6245167,40.2921655 15.6461863,40.4274578 C15.6605265,40.5168017 15.6770974,40.6055075 15.6927122,40.6942132 C15.7076898,40.7778136 15.7223486,40.861414 15.7386008,40.9446953 C15.7605891,41.0579706 15.783852,41.1706078 15.808071,41.2829259 C15.8306966,41.3872668 15.8552343,41.4906505 15.8797719,41.5943533 C15.88742,41.6259428 15.8941121,41.6578513 15.9017602,41.6894408 C15.9138697,41.7395372 15.9240671,41.7905909 15.9364953,41.8403682 C15.9610329,41.9370511 15.9887573,42.0318195 16.0148883,42.1278642 C16.0413379,42.2245471 16.0687436,42.3209109 16.0971053,42.4172747 C16.1289723,42.5260828 16.159246,42.6355292 16.1930251,42.74338 C16.205772,42.7829466 16.2201121,42.821556 16.232859,42.8611226 C16.2440124,42.8952647 16.2561219,42.9294069 16.2675941,42.963549 C16.2959558,43.049383 16.3243174,43.1348979 16.3542725,43.2200937 C16.4004797,43.3525142 16.447643,43.4839774 16.4973556,43.6144833 C16.5222119,43.680534 16.5486616,43.7459466 16.5744739,43.8113591 C16.5996489,43.8754953 16.6241865,43.9396314 16.6503175,44.0031294 C16.716601,44.1655439 16.7863899,44.326363 16.8577721,44.4862248 C16.8848591,44.546532 16.9113087,44.6068391 16.9387144,44.6668272 C16.9543293,44.7000121 16.9689881,44.7335161 16.984603,44.7667009 C17.0849842,44.9808073 17.1907829,45.1917228 17.3000869,45.4007238 C17.3157018,45.4303987 17.330042,45.4607118 17.3459755,45.4903868 C17.4148083,45.6202545 17.4868279,45.7478887 17.5591661,45.8755229 C17.5782864,45.9096651 17.598044,45.9434881 17.6174829,45.9773112 C17.8415083,46.3662764 18.0795553,46.7459881 18.3335358,47.1142127 C18.3386345,47.1218707 18.3443706,47.1292097 18.349788,47.1368677 C18.3756003,47.1745198 18.4026873,47.2112147 18.4288183,47.2485477 C18.4549493,47.2855616 18.4810803,47.3225755 18.5075299,47.3592703 C18.6305368,47.5306192 18.7567304,47.6997345 18.8861107,47.865978 C18.9033189,47.8879949 18.9205271,47.9100118 18.9377353,47.9317096 C19.0942026,48.131138 19.2551312,48.3264183 19.4205213,48.5181887 C19.4539817,48.556798 19.4871235,48.5957265 19.5205839,48.6340167 C19.5237706,48.6375267 19.5266386,48.6407175 19.5295067,48.6442275 C19.6292506,48.7571837 19.7302692,48.8691827 19.8328811,48.9795863 C19.8685722,49.0178765 19.9049007,49.0548904 19.9405918,49.0928616 C20.1273328,49.2897373 20.3188538,49.4818268 20.5151549,49.66913 C20.5642302,49.7160355 20.6129868,49.7635793 20.6626994,49.8098466 C20.7640367,49.904615 20.8669673,49.9974689 20.9708539,50.0896846 C21.0342694,50.1458436 21.0986409,50.2010454 21.1630123,50.2562472 C21.325853,50.3960066 21.4912431,50.5322561 21.6595012,50.6656338 C21.7417182,50.7307273 21.8232979,50.796778 21.9067896,50.860276 C22.0043028,50.9346229 22.1034094,51.0070553 22.2028346,51.0791686 C22.289513,51.1423475 22.3771474,51.2045692 22.4654192,51.2661527 C22.560383,51.3325225 22.6550282,51.3992113 22.7515854,51.4636666 C22.9150635,51.5727938 23.0807722,51.6790493 23.2487116,51.782752 C23.33539,51.8360393 23.4236618,51.887093 23.5116149,51.9387848 C23.6244243,52.0054737 23.7381897,52.0715244 23.8529111,52.1353415 C23.9411829,52.1847997 24.0294547,52.2339389 24.1190011,52.2814826 C24.2866219,52.3711456 24.455836,52.458256 24.6269621,52.5421754 C24.7075858,52.581742 24.7891655,52.6197132 24.8704265,52.6576844 C25.018927,52.7275641 25.1683835,52.7955293 25.3191147,52.8609418 C25.4003757,52.8960412 25.4816367,52.9305024 25.5635351,52.9646446 C25.7286065,53.0329289 25.8952712,53.0986605 26.0632106,53.1618394 C26.1141979,53.1809845 26.1642292,53.2017251 26.2152165,53.220232 C26.4271325,53.2974507 26.6412792,53.3689259 26.8570192,53.4375292 C26.9293574,53.4605034 27.0020143,53.4825203 27.0746712,53.5045372 C27.2480281,53.5568672 27.4226596,53.6066445 27.5985658,53.6535501 C27.6572012,53.6688662 27.7151992,53.6857777 27.7741533,53.7007747 C28.0000908,53.7582101 28.2279403,53.8105401 28.4573831,53.8587221 C28.5182492,53.8711664 28.5797526,53.8826535 28.6406187,53.8944596 C28.8276784,53.9314735 29.0156941,53.9649775 29.2046657,53.9952906 C29.2677625,54.0055014 29.3308593,54.0163503 29.3942748,54.0256037 C29.6329591,54.0610222 29.8729181,54.0922926 30.1147891,54.1171813 C30.1558976,54.1216485 30.1976434,54.1242012 30.2387519,54.1283493 C30.4471625,54.1484517 30.6568478,54.1640868 30.8671704,54.1762121 C30.9340913,54.1800411 31.0010121,54.1838701 31.0682516,54.1867419 C31.317452,54.198229 31.5676085,54.205887 31.8199956,54.205887 C34.551959,54.205887 37.1258617,53.5326167 39.3909725,52.3481715 C39.7963216,52.1362987 40.1914732,51.9078335 40.5761086,51.6637332 C40.9339757,51.4368634 41.2851508,51.1997829 41.623579,50.9464291 C41.8339016,50.7888008 42.0404002,50.6263863 42.242756,50.4591856 C45.8842053,47.4498906 48.2054022,42.8959029 48.2054022,37.7988317 L48.2054022,37.79596 C48.2054022,37.5419679 48.1977541,37.2895713 48.186282,37.0384511" id="Fill-21" fill="#1E120F" opacity="0.200000018" mask="url(#mask-5)"></path>
                        </g>
                        <g id="Group-26" transform="translate(33.779087, 0.000000)">
                            <mask id="mask-7" fill="white">
                                <use xlink:href="#path-6"></use>
                            </mask>
                            <g id="Clip-25"></g>
                            <polygon id="Fill-24" fill="#1976D1" mask="url(#mask-7)" points="7.96880531 28.9148863 0.271634847 21.207696 24.2337544 -5.04218845 34.1842449 4.92157414"></polygon>
                        </g>
                        <g id="Group-29" transform="translate(33.779087, 0.000000)">
                            <mask id="mask-9" fill="white">
                                <use xlink:href="#path-8"></use>
                            </mask>
                            <g id="Clip-28"></g>
                            <polygon id="Fill-27" fill="#1976D1" mask="url(#mask-9)" points="7.96880531 28.9148863 0.271634847 21.207696 24.2337544 -5.04218845 34.1842449 4.92157414"></polygon>
                        </g>
                        <g id="Group-32" transform="translate(33.779087, 0.000000)">
                            <mask id="mask-11" fill="white">
                                <use xlink:href="#path-10"></use>
                            </mask>
                            <g id="Clip-31"></g>
                            <polygon id="Fill-30" fill="#4B9FF1" mask="url(#mask-11)" points="24.2336907 -5.04206081 29.078759 -0.190685471 4.29893057 25.2404257 0.271571113 21.2075046"></polygon>
                        </g>
                        <g id="Group-35">
                            <mask id="mask-13" fill="white">
                                <use xlink:href="#path-12"></use>
                            </mask>
                            <g id="Clip-34"></g>
                            <polygon id="Fill-33" fill="#1976D1" mask="url(#mask-13)" points="26.3532965 28.9148863 34.050467 21.207696 10.0883474 -5.04218845 0.137856916 4.92157414"></polygon>
                        </g>
                        <g id="Group-38">
                            <mask id="mask-15" fill="white">
                                <use xlink:href="#path-14"></use>
                            </mask>
                            <g id="Clip-37"></g>
                            <polygon id="Fill-36" fill="#1976D1" mask="url(#mask-15)" points="26.3532965 28.9148863 34.050467 21.207696 10.0883474 -5.04218845 0.137856916 4.92157414"></polygon>
                        </g>
                        <g id="Group-41" opacity="0.2" transform="translate(5.098730, 0.000000)">
                            <mask id="mask-17" fill="white">
                                <use xlink:href="#path-16"></use>
                            </mask>
                            <g id="Clip-40"></g>
                            <polygon id="Fill-39" fill="#4B9FF1" mask="url(#mask-17)" points="4.98968103 -5.04206081 0.144612733 -0.190685471 24.9244411 25.2404257 28.9518006 21.2075046"></polygon>
                        </g>
                        <path d="M50.4361604,35.8844147 C50.4361604,44.9458036 43.1000438,52.29147 34.0504351,52.29147 C25.0011452,52.29147 17.6650285,44.9458036 17.6650285,35.8844147 C17.6650285,26.8230258 25.0011452,19.4773594 34.0504351,19.4773594 C43.1000438,19.4773594 50.4361604,26.8230258 50.4361604,35.8844147" id="Fill-42" fill="#F48820"></path>
                        <path d="M46.4417833,25.1559957 C43.4373566,21.6798787 39.0020987,19.4775509 34.0505945,19.4775509 C25.0009858,19.4775509 17.6648692,26.8232172 17.6648692,35.8842871 C17.6648692,40.842556 19.8643339,45.2832684 23.3362504,48.2919252 C35.5320942,47.0787623 45.2301976,37.3680345 46.4417833,25.1559957" id="Fill-44" fill="#FFFFFF" opacity="0.2"></path>
                        <path d="M47.5979841,26.6552188 C48.7977791,28.9357225 49.4800529,31.5321209 49.4800529,34.2890193 C49.4800529,43.3504082 42.1439363,50.6960746 33.0946463,50.6960746 C27.4634175,50.6960746 22.4966171,47.8504705 19.5473203,43.5182472 C22.2910745,48.733699 27.7543638,52.2915019 34.0506582,52.2915019 C43.0999481,52.2915019 50.4360648,44.9458355 50.4360648,35.8844466 C50.4360648,32.461936 49.3882757,29.284802 47.5979841,26.6552188" id="Fill-46" fill="#1E120F" opacity="0.2"></path>
                        <path d="M19.8855255,27.6037322 C21.3128513,29.0313205 23.2835104,29.91423 25.4600309,29.91423 C29.8162584,29.91423 33.3477664,26.3781249 33.3477664,22.0162267 C33.3477664,21.1278928 33.1992659,20.2746583 32.9290332,19.4775828 C27.3162873,19.7606116 22.4737684,22.965825 19.8855255,27.6037322" id="Fill-48" fill="#FFFFFF" opacity="0.2"></path>
                        <path d="M19.2583498,37.1607246 C19.2583498,28.0996548 26.5944665,20.7539884 35.6440751,20.7539884 C39.1586935,20.7539884 42.4123207,21.8656822 45.0808685,23.7521154 C42.1694936,21.0966862 38.2989201,19.4776466 34.0507219,19.4776466 C25.0011133,19.4776466 17.6649967,26.823313 17.6649967,35.8843828 C17.6649967,41.4262591 20.4119375,46.3226255 24.6136098,49.292992 C21.3236542,46.2923123 19.2583498,41.9680662 19.2583498,37.1607246" id="Fill-50" fill="#FFFFFF" opacity="0.300000012"></path>
                    </g>
                </g>
            </g>
        </g>
    </g>
</svg>