<?xml version="1.0" encoding="UTF-8" standalone="no"?>
<svg width="123px" height="123px" viewBox="0 0 123 123" version="1.1" xmlns="http://www.w3.org/2000/svg" xmlns:xlink="http://www.w3.org/1999/xlink">
    <!-- Generator: sketchtool 3.7.2 (28276) - http://www.bohemiancoding.com/sketch -->
    <title>F0DFDE45-3543-44C5-9884-8DB93DBC09D5</title>
    <desc>Created with sketchtool.</desc>
    <defs>
        <filter x="-50%" y="-50%" width="200%" height="200%" filterUnits="objectBoundingBox" id="filter-1">
            <feOffset dx="10" dy="10" in="SourceAlpha" result="shadowOffsetOuter1"></feOffset>
            <feGaussianBlur stdDeviation="10" in="shadowOffsetOuter1" result="shadowBlurOuter1"></feGaussianBlur>
            <feColorMatrix values="0 0 0 0 0   0 0 0 0 0   0 0 0 0 0  0 0 0 0.246376812 0" type="matrix" in="shadowBlurOuter1" result="shadowMatrixOuter1"></feColorMatrix>
            <feMerge>
                <feMergeNode in="shadowMatrixOuter1"></feMergeNode>
                <feMergeNode in="SourceGraphic"></feMergeNode>
            </feMerge>
        </filter>
        <polygon id="path-2" points="74.1559309 57.7543088 74.1559309 0.0492987036 0.289066131 0.0492987036 0.289066131 57.7543088 74.1559309 57.7543088"></polygon>
    </defs>
    <g id="GdS-md" stroke="none" stroke-width="1" fill="none" fill-rule="evenodd">
        <g id="07---game_mapa" transform="translate(-705.000000, -588.000000)">
            <g id="Group-4" transform="translate(467.000000, 588.000000)">
                <g id="Page-1" filter="url(#filter-1)" transform="translate(237.109204, 0.000000)">
                    <g id="Group-20" transform="translate(11.000000, 9.224636)">
                        <path d="M83.3973793,41.84742 C83.3973793,64.907088 64.7283789,83.6003906 41.6986896,83.6003906 C18.6690004,83.6003906 0,64.907088 0,41.84742 C0,18.7877519 18.6690004,0.0944492963 41.6986896,0.0944492963 C64.7283789,0.0944492963 83.3973793,18.7877519 83.3973793,41.84742" id="Fill-1" fill="#EDEFF1"></path>
                        <g id="Group-5" transform="translate(9.241448, 25.845922)">
                            <mask id="mask-3" fill="white">
                                <use xlink:href="#path-2"></use>
                            </mask>
                            <g id="Clip-4"></g>
                            <path d="M71.0014422,0.0492987036 C71.0001675,26.6501772 49.4637688,48.2139726 22.8971542,48.2139726 C14.7245271,48.2139726 7.02926869,46.1708684 0.289066131,42.5703081 C7.93747999,51.8438888 19.5077733,57.7543088 32.4572732,57.7543088 C55.4866438,57.7543088 74.1559628,39.0610062 74.1559628,16.0013381 C74.1559628,10.3512919 73.0326488,4.96449114 71.0014422,0.0492987036" id="Fill-3" fill="#1E120F" opacity="0.2" mask="url(#mask-3)"></path>
                        </g>
                        <path d="M39.9103101,6.88943799 C20.14094,7.99283552 5.00822767,24.934359 6.11019071,44.7294637 C7.21247243,64.5245684 24.131971,79.6769796 43.9010224,78.5735821 C63.6703924,77.4698655 78.8031048,60.5283421 77.7011417,40.7335564 C76.5991787,20.9384517 59.6796801,5.78604047 39.9103101,6.88943799" id="Fill-6" fill="#FFFFFF" opacity="0.8"></path>
                        <path d="M42.6547015,2.96621844 C60.5384975,2.96621844 75.7903926,14.240465 81.7144797,30.0769955 C76.6390125,12.7490596 60.6458895,0.0944492963 41.6986896,0.0944492963 C18.6690004,0.0944492963 0,18.7877519 0,41.84742 C0,46.9996929 0.934342295,51.9330732 2.63891151,56.4896136 C1.5452339,52.7559946 0.956011898,48.8066739 0.956011898,44.7191891 C0.956011898,21.6595211 19.6250123,2.96621844 42.6547015,2.96621844 Z" id="Fill-8" fill="#FFFFFF" opacity="0.8"></path>
                        <path d="M76.6668006,41.84742 C76.6668006,61.1849561 61.0111497,76.8609866 41.6987534,76.8609866 C22.386357,76.8609866 6.73070617,61.1849561 6.73070617,41.84742 C6.73070617,22.5098838 22.386357,6.83385331 41.6987534,6.83385331 C61.0111497,6.83385331 76.6668006,22.5098838 76.6668006,41.84742" id="Fill-10" fill="#FFCB00"></path>
                        <path d="M40.8572398,68.0048973 C30.9730328,69.164773 19.4840005,64.9349761 8.94906805,54.1406341 C15.9846783,71.2736088 30.907068,76.8611143 41.6985303,76.8611143 C61.0109267,76.8611143 76.6668962,61.1850838 76.6668962,41.8475476 C76.6668962,40.5913081 76.599338,39.351342 76.4705951,38.1295638 C69.4247874,55.6502274 60.393343,65.7122683 40.8572398,68.0048973" id="Fill-12" fill="#1E120F" opacity="0.2"></path>
                        <path d="M70.4750621,21.9535583 C64.1647462,12.8194179 53.6304511,6.83369376 41.6987852,6.83369376 C22.3863889,6.83369376 6.73041937,22.5100434 6.73041937,41.8472604 C6.73041937,46.1737402 7.51626115,50.3154695 8.94900431,54.140666 C11.0289675,54.3477524 13.1379298,54.4552842 15.272067,54.4552842 C39.0098424,54.4552842 59.6851931,41.3399145 70.4750621,21.9535583" id="Fill-14" fill="#FFFFFF" opacity="0.400000006"></path>
                        <path d="M11.1542688,24.7938656 C14.300504,27.9410055 18.6452594,29.8874268 23.4438018,29.8874268 C33.0475786,29.8874268 40.8330209,22.0918499 40.8330209,12.4758905 C40.8330209,10.5170249 40.5054275,8.63601608 39.909832,6.87881245 C27.53617,7.50326269 16.8603852,14.5690911 11.1542688,24.7938656" id="Fill-16" fill="#FFFFFF" opacity="0.2"></path>
                        <path d="M73.3576929,26.9659123 C74.8761584,30.889068 75.7107568,35.1536452 75.7107568,39.6138217 C75.7107568,58.9513579 60.055106,74.6273884 40.7427096,74.6273884 C26.7451021,74.6273884 14.6703531,66.3908354 9.08373825,54.4953295 C14.1486893,67.5813433 26.8407033,76.8609866 41.6987215,76.8609866 C61.0111179,76.8609866 76.6667687,61.1849561 76.6667687,41.84742 C76.6667687,36.5257127 75.4790833,31.482567 73.3576929,26.9659123" id="Fill-18" fill="#1E120F" opacity="0.2"></path>
                    </g>
                    <g id="Group-45" transform="translate(28.845555, 28.688849)">
                        <path d="M45.1361579,12.0373714 C44.552672,13.4834667 43.2990217,14.7527886 41.7078992,15.8536335 C41.4963019,15.9981792 41.1553243,16.2244108 40.724163,16.4895708 C39.9603095,16.9500111 39.1416446,17.3759902 38.2965301,17.7694226 C40.083635,14.6947151 41.5664095,10.994281 42.168697,6.44922769 C43.400359,7.00092645 44.5654188,7.76258345 45.146674,8.77344619 C45.6622831,9.6707145 45.6584591,10.7386935 45.1361579,12.0373714 M4.91673733,12.039605 C4.39379882,10.7386935 4.39029344,9.6707145 4.90590252,8.77344619 C5.49353117,7.75141546 6.67771124,6.98433401 7.92435076,6.43135891 C7.93072417,6.48049807 7.93614157,6.53059449 7.94283366,6.57973365 C7.94602036,6.6027078 7.94825106,6.62600104 7.95143776,6.64865611 C7.96322858,6.73512827 7.97661274,6.820005 7.9890409,6.90615807 C7.99796367,6.96869882 8.00752379,7.03092049 8.01676524,7.09314215 C8.04958832,7.30980118 8.08400475,7.5245457 8.12065187,7.73769478 C8.13212401,7.80374547 8.14359615,7.87011525 8.15538697,7.93616594 C8.17514455,8.04656951 8.19458346,8.15697308 8.21529705,8.26641939 C8.22294514,8.30630507 8.23123058,8.34555258 8.23919734,8.38543827 C8.27775649,8.58390942 8.31727165,8.78110424 8.3590175,8.97606545 C8.36825895,9.01978016 8.37845641,9.0628567 8.38801653,9.10689049 C8.46226679,9.44512108 8.54097843,9.77856539 8.62478881,10.1065852 C8.63020621,10.1276449 8.63530494,10.1493427 8.64072234,10.1700832 C8.69234698,10.3704689 8.74620232,10.5683019 8.80101367,10.7648585 C8.80547506,10.7798556 8.80929911,10.7951717 8.81344182,10.8101687 C8.84849559,10.9339738 8.88450538,11.0565027 8.92083383,11.1787124 C8.93421799,11.2237034 8.94760216,11.2686945 8.96098633,11.3133665 C9.0231271,11.5201338 9.0871799,11.7249867 9.15314472,11.927606 C9.16111148,11.9521755 9.16907825,11.9767451 9.17704502,12.0013147 C9.20954942,12.1005503 9.24205383,12.2001049 9.27519557,12.2983833 C9.27742627,12.3041268 9.27933829,12.3098703 9.28156898,12.315933 C9.36952208,12.5743922 9.46066188,12.8290224 9.55435105,13.0807808 C9.5591311,13.0941824 9.56422984,13.1072649 9.56932857,13.1206665 C9.59291019,13.1841645 9.61649182,13.2479816 9.64039212,13.3111605 C9.64262281,13.3169041 9.64453483,13.3226476 9.64676553,13.3283911 C9.77072841,13.6532201 9.89947134,13.9719865 10.0320383,14.2859666 C10.0380931,14.3006445 10.0444665,14.3153225 10.0508399,14.3303195 C10.5744157,15.5658184 11.1591764,16.7161215 11.7818588,17.789525 C11.2515908,17.5428719 10.732795,17.2831363 10.2299328,17.0099992 C9.30674396,16.4972288 8.56615341,16.0064754 8.22740653,15.7738621 C6.7009742,14.6940769 5.49671788,13.4525154 4.91673733,12.039605 M48.3636541,6.9055199 C47.048819,4.62788788 44.5491666,3.29634426 42.4373363,2.53979263 C42.3876237,2.09785927 32.6436317,1.27493787 32.3902886,1.04232457 L41.9504076,1.04232457 L40.3567357,1.04232457 C40.3360221,1.02317944 29.1611991,1.00850151 29.1395295,0.997971686 C29.1382548,0.997333515 34.8733702,0.996376259 34.8724142,0.995738088 C34.8510632,0.985846439 41.8398289,0.980741071 41.8175219,0.9801029 C41.8162472,0.9801029 41.8149726,0.979145644 41.8133792,0.979145644 L38.6700121,0.979145644 L26.794751,0.979145644 L11.4596828,0.979145644 L8.29241534,0.979145644 C7.97342604,0.979145644 7.73314838,1.99543284 7.67132628,2.51969025 C5.54770518,3.27273193 3.01554833,4.60746642 1.68892249,6.9055199 C0.923794297,8.23131999 0.264464758,10.4393914 1.47254513,13.4426237 C2.80586305,16.6912328 6.15063002,19.4599373 11.4259037,21.6919401 L11.426541,21.6928974 C11.426541,21.6928974 11.4523533,21.7031081 11.4976046,21.7209769 C12.1171003,21.9819888 12.7652763,22.2347045 13.4376714,22.4807194 C13.5447447,22.5212433 13.6397086,22.5569808 13.7155522,22.5844222 C13.7700448,22.6042055 13.8388777,22.6287751 13.9163147,22.6555782 C14.4835484,22.8559639 15.0571555,23.0461388 15.6282133,23.2251458 C16.675365,24.4890433 17.6957484,25.6125432 18.5985423,26.631064 C18.6508043,26.6904139 18.7024289,26.7488065 18.7540535,26.8071992 C18.8238424,26.8863324 18.8933126,26.9651465 18.9618268,27.0433224 C19.0542413,27.1489397 19.1450624,27.2532806 19.2346089,27.3563452 C19.276036,27.4042081 19.3168259,27.4517518 19.3576157,27.4992955 C19.4433381,27.5991693 19.5274672,27.6977667 19.6100029,27.7954068 C19.6345405,27.8247627 19.6597155,27.8541186 19.6839345,27.8828362 C19.784953,28.0034505 19.8824663,28.1218313 19.9780674,28.2395738 C20.0073851,28.2753114 20.0357468,28.3110489 20.0644272,28.3464674 C20.1511056,28.4543183 20.2355533,28.5608928 20.317133,28.6665101 C20.3295612,28.6824644 20.3426266,28.6987378 20.3547361,28.714692 C20.4449199,28.8321155 20.530961,28.9479435 20.6144527,29.0628143 C20.6367596,29.0934465 20.6587479,29.1240787 20.6804175,29.1543918 C20.7578545,29.2628809 20.8330608,29.3704127 20.9038056,29.4766681 C20.910179,29.4859216 20.9168711,29.4951751 20.9229259,29.5044286 C20.9978135,29.6173848 21.0676023,29.7287456 21.1342045,29.8391492 C21.1514127,29.8675478 21.1683023,29.8959464 21.1848731,29.9240259 C21.2473326,30.0302814 21.3072427,30.1358987 21.3617353,30.2402396 C21.364922,30.2459832 21.3681087,30.2517267 21.3709768,30.2571512 C21.4273815,30.3656402 21.4777314,30.4728529 21.5248947,30.5791084 C21.5366855,30.6055925 21.547839,30.6320766 21.5589925,30.6585607 C21.6032877,30.7629016 21.6443962,30.8669235 21.6788126,30.969669 C21.6797686,30.9722217 21.6810433,30.9747744 21.6816806,30.977327 C21.7167344,31.0819871 21.7447774,31.1850517 21.7696337,31.2877972 C21.7756885,31.313324 21.7814246,31.3388509 21.786842,31.3643777 C21.8091489,31.4671232 21.8279505,31.5695497 21.8387853,31.6710188 C21.8391039,31.6710188 21.8391039,31.6713379 21.8391039,31.6713379 C21.8496201,31.7737644 21.8528068,31.8765099 21.8528068,31.9795745 C21.8524881,32.0105258 21.8508948,32.0417961 21.8499387,32.0730665 C21.8473894,32.1477325 21.8426093,32.2223985 21.8346426,32.2973836 C21.8311372,32.3302494 21.8279505,32.3627961 21.8234891,32.3956619 C21.8183903,32.4345903 21.8097862,32.4741569 21.8030942,32.5130854 L21.7973581,32.5130854 C21.4206894,34.7240285 18.8340399,37.0437798 16.0972965,39.1261315 C16.0918791,39.1299606 16.0867803,39.1337896 16.0813629,39.1379377 C15.8920726,39.2818452 15.7021449,39.4247955 15.5118985,39.5664695 C15.5007451,39.5747657 15.4895916,39.5830619 15.4781194,39.5913581 C15.2901038,39.7314366 15.1017694,39.8702388 14.9143911,40.0077647 L14.9143911,40.0077647 C13.8468445,40.7901622 12.8025608,41.5294832 11.9048656,42.2037108 L11.9048656,42.2037108 C11.6872136,42.3619772 11.6320836,42.7866799 11.667456,43.3310397 C11.6805215,43.5320636 11.7060152,43.7496799 11.7404316,43.9759114 C11.7687933,44.1651291 11.802891,44.3597713 11.8417688,44.5572852 C11.8666252,44.6842812 11.8933935,44.8115963 11.9211178,44.9392304 C12.0339272,45.4587016 12.1649009,45.9733864 12.2767543,46.4057472 C12.4360896,47.0442372 13.0205315,47.4695782 13.6578728,47.4695782 L36.3418044,47.4695782 C36.7401427,47.4695782 37.1177674,47.3033346 37.3838574,47.0228585 C37.3899121,47.0167959 37.3940549,47.0094569 37.4001096,47.0030752 C37.5508408,46.838108 37.6655622,46.636446 37.722923,46.4057472 C37.7672182,46.277794 37.8124694,46.13963 37.857402,45.9973178 C37.9539592,45.6925912 38.0492417,45.3616996 38.1340081,45.0237881 C38.1493043,44.9628428 38.1642818,44.9022165 38.1789406,44.8409521 C38.2710364,44.4529442 38.3462427,44.063979 38.3889446,43.705327 C38.4138009,43.4947306 38.4287784,43.2943449 38.4281411,43.111828 C38.4278224,43.0263131 38.4246357,42.9449463 38.4176249,42.8677276 C38.4109329,42.790509 38.4004167,42.7180766 38.3863952,42.6507495 C38.344012,42.4484493 38.2675311,42.2933738 38.1480296,42.2037108 L38.1480296,42.2037108 C37.2503344,41.5294832 36.2060507,40.7901622 35.1385041,40.0077647 L35.1385041,40.0077647 C34.9520818,39.870877 34.7647035,39.732713 34.5773251,39.5932726 C34.564897,39.5840192 34.5521502,39.5747657 34.539722,39.5655122 C34.3504317,39.4244764 34.1611413,39.2821643 33.9724883,39.1388949 C33.9667522,39.1344278 33.9606975,39.1296415 33.9546427,39.1254934 C31.218218,37.0434607 28.6322058,34.7237094 28.2555371,32.5130854 L28.2498011,32.5130854 C28.243109,32.4738379 28.2345049,32.4345903 28.2294061,32.3953428 C28.2249448,32.3627961 28.221758,32.3302494 28.2182527,32.2977027 C28.2102859,32.2227176 28.2055058,32.1477325 28.2029565,32.0730665 C28.2020005,32.0417961 28.2004071,32.0105258 28.2000884,31.9795745 C28.2000884,31.8765099 28.2032751,31.7737644 28.2137913,31.6713379 L28.2137913,31.6710188 C28.2249448,31.5695497 28.2437463,31.4671232 28.2660533,31.3643777 C28.2714707,31.3388509 28.2772067,31.313324 28.2832615,31.2877972 C28.3081178,31.1850517 28.3361608,31.0819871 28.3712146,30.977327 C28.3718519,30.9747744 28.3731266,30.9722217 28.3740826,30.969669 C28.408499,30.8669235 28.4496075,30.7632207 28.4939028,30.6585607 C28.5050562,30.6320766 28.5165284,30.6055925 28.5283192,30.5791084 C28.5751638,30.4725338 28.6255137,30.3656402 28.6819184,30.2571512 C28.6847865,30.2514076 28.6882919,30.2456641 28.6911599,30.2402396 C28.7456526,30.1358987 28.8055626,30.0306005 28.8680221,29.924345 C28.884593,29.8959464 28.9014825,29.8675478 28.9186907,29.8388301 C28.9856116,29.7287456 29.0550817,29.6177039 29.1296507,29.5047476 C29.1363428,29.494856 29.1436722,29.4846453 29.1503643,29.4747536 C29.2207905,29.3691363 29.2953594,29.2622427 29.3724777,29.1543918 C29.394466,29.1237596 29.4164542,29.0934465 29.4387612,29.0624952 C29.5222529,28.9479435 29.6079753,28.8321155 29.6984778,28.714692 C29.7109059,28.6984187 29.7242901,28.6818262 29.7370369,28.6655529 C29.8179792,28.5608928 29.9017896,28.4546374 29.9878307,28.3477438 C30.0171484,28.311368 30.0464661,28.2746732 30.0764211,28.2382974 C30.1717036,28.1211931 30.2685795,28.0031315 30.3692794,27.8834744 C30.3941357,27.8534804 30.4202667,27.8231673 30.4454417,27.7931732 C30.5270214,27.6964903 30.6101944,27.5991693 30.6949608,27.5005719 C30.736388,27.45239 30.7778152,27.4042081 30.8198797,27.3557071 C30.9071955,27.2551951 30.9957859,27.1534069 31.0859697,27.0506614 C31.1579893,26.9683373 31.2309648,26.8853751 31.3048964,26.8017747 C31.3539717,26.7462538 31.403047,26.690733 31.4527596,26.6345739 C32.3472681,25.6259448 33.3580913,24.514251 34.3960016,23.2653505 C39.8828725,21.5470753 46.562209,18.4420547 48.5844928,13.4304985 C49.7881118,10.4393914 49.1287822,8.23131999 48.3636541,6.9055199" id="Fill-21" fill="#1E120F" opacity="0.3"></path>
                        <path d="M22.7923115,24.0614369 C21.840761,24.0614369 17.2359704,23.1185393 13.077956,21.6271339 C6.47127641,19.2576053 2.35213981,16.1816214 0.835267596,12.4853354 C-0.373131444,9.48242217 0.286516766,7.2740317 1.05164496,5.94823161 C3.45346551,1.78703812 9.81285666,0.779685323 10.5298656,0.678535232 L11.0486614,4.36556773 L10.7892635,2.52189194 L11.0518481,4.36492956 C9.59584196,4.57552596 5.53916481,5.606172 4.26862499,7.81647698 C3.75301591,8.71342621 3.75652129,9.78140525 4.27945979,11.0823167 C6.78102426,17.1765299 20.8104989,20.119136 22.8410681,20.3520684 C22.1237405,20.276126 21.1970463,20.7046578 20.9086494,21.6746776 L22.6884249,22.2043595 L23.5207926,20.5380952 L24.5204624,22.5368465 L22.88377,24.0572888 C22.858595,24.0604796 22.8280026,24.0614369 22.7923115,24.0614369" id="Fill-23" fill="#F48820"></path>
                        <path d="M25.9590053,24.0552147 C25.9351051,24.0552147 25.9159848,24.0542574 25.9019633,24.0520238 L24.4768682,23.8672734 L24.1142211,21.0117776 L25.4510444,20.4750758 L26.8331189,23.9317286 L26.142241,22.2032427 L27.940818,21.745036 C27.6890682,20.7565092 26.7387924,20.2593741 25.9762136,20.3528661 C28.0118816,20.1103611 42.0620698,17.1182968 44.4989441,11.0802426 C45.0212453,9.78156479 45.0247506,8.71358575 44.5091416,7.81631744 C43.2386017,5.60601246 39.1819246,4.57536642 37.7262371,4.3650891 L38.247901,0.678375689 C38.9649099,0.779844865 45.324301,1.78687858 47.7261216,5.94839115 C48.4912498,7.27419124 49.150898,9.48226263 47.947279,12.4733697 C44.4807799,21.0637885 27.3286517,24.0545765 25.9590053,24.0552147" id="Fill-25" fill="#F48820"></path>
                        <path d="M10.789136,20.7356091 L7.38764568,14.675219 C7.38764568,14.675219 9.14893827,15.94486 11.1514645,16.8367039 C11.1514645,16.8367039 13.4567279,20.6539232 14.9917643,22.2678575 C14.9917643,22.2678575 13.5434063,21.7968873 13.0781472,21.6271339 C12.4927492,21.4139848 10.789136,20.7356091 10.789136,20.7356091" id="Fill-27" fill="#1E120F" opacity="0.3"></path>
                        <path d="M37.9114804,20.7880348 L41.3129707,14.7276447 C41.3129707,14.7276447 39.5516781,15.9972857 37.5491519,16.8891296 C37.5491519,16.8891296 35.2438885,20.706349 33.7088521,22.3202832 C33.7088521,22.3202832 35.1572101,21.8493131 35.6224692,21.6795596 C36.2078672,21.4664105 37.9114804,20.7880348 37.9114804,20.7880348" id="Fill-29" fill="#1E120F" opacity="0.3"></path>
                        <path d="M37.5105927,41.2463906 C33.6855891,38.3739833 27.2044658,34.3314896 27.5763544,30.7143368 C28.1075784,25.8738104 41.4417136,19.4905057 41.8136023,1.77743365 C41.8136023,1.40506092 41.547831,0.022144531 41.176261,0.022144531 L7.65529714,0.022144531 C7.28340851,0.022144531 7.01763721,1.40506092 7.01763721,1.77743365 C7.33630784,19.4905057 20.6704431,25.8738104 21.2016671,30.7143368 C21.5735557,34.3314896 15.0924324,38.3739833 11.2674288,41.2463906 C10.6833055,41.6720506 11.2674288,44.0125425 11.6393174,45.4487461 C11.7986527,46.086917 12.3830947,46.512577 13.0207546,46.512577 L35.7043676,46.512577 C36.3420275,46.512577 36.9261508,46.086917 37.0854861,45.4487461 C37.5638107,44.0655106 38.147934,41.7250188 37.5105927,41.2463906" id="Fill-31" fill="#F48820"></path>
                        <path d="M38.0325433,0.0220168968 L7.65526528,0.0220168968 C7.28337665,0.0220168968 7.01760534,1.40493328 7.01760534,1.77730601 C7.14857897,9.05787897 9.47933598,14.4217056 12.2151234,18.5535432 C14.1854639,19.2220272 16.2941075,19.5902518 18.4897481,19.5902518 C29.2831225,19.5902518 38.0325433,10.8291224 38.0325433,0.0220168968" id="Fill-33" fill="#FFFFFF" opacity="0.2"></path>
                        <path d="M9.14259672,2.84123267 C9.14259672,2.46885993 9.40836803,1.08594355 9.78025666,1.08594355 L41.3130344,0.0849724581 C41.2693766,0.0450867756 41.223488,0.0221126224 41.1760061,0.0221126224 L7.65504221,0.0221126224 C7.28315358,0.0221126224 7.01770094,1.40502901 7.01770094,1.77740174 C7.1614214,9.76634441 9.95393215,15.4457465 13.024005,19.7230871 C11.0058639,15.5768907 9.27484503,10.1849845 9.14259672,2.84123267" id="Fill-35" fill="#FFFFFF" opacity="0.3"></path>
                        <path d="M32.2518581,24.0614369 L16.5292864,24.0614369 C18.9833689,26.8467338 21.00151,28.8904762 21.2016352,30.7140496 C21.4862081,33.4824351 17.757443,36.4993881 14.2769224,39.0504764 L34.5013541,39.0504764 C31.0208334,36.4993881 27.2917497,33.4824351 27.5766412,30.7140496 C27.7767664,28.8904762 29.7949075,26.8467338 32.2518581,24.0614369" id="Fill-37" fill="#4B9FF1"></path>
                        <path d="M27.6180684,31.5559566 L21.160208,31.5559566 C20.7293653,34.0843898 17.4078613,36.7557733 14.2769224,39.0506359 L34.5013541,39.0506359 C31.3704151,36.7557733 28.0489111,34.0843898 27.6180684,31.5559566" id="Fill-39" fill="#1976D1"></path>
                        <path d="M11.639413,45.4486504 C11.7987483,46.0868213 12.3831903,46.5124813 13.0205315,46.5124813 L35.7044632,46.5124813 C36.3418044,46.5124813 36.9262464,46.0868213 37.0855817,45.4486504 C37.5635876,44.065734 38.1480296,41.7252421 37.5106883,41.2462949 L11.2675244,41.2462949 C10.6830824,41.6719549 11.2675244,44.0124467 11.639413,45.4486504" id="Fill-41" fill="#1E120F" opacity="0.3"></path>
                        <path d="M18.48978,8.38907584 C22.7427583,8.38907584 26.1904558,4.93689024 26.1904558,0.678375689 C26.1904558,0.456930379 26.1754783,0.23899501 26.1573141,0.0220168968 L10.8222459,0.0220168968 C10.8040817,0.23899501 10.7891041,0.456930379 10.7891041,0.678375689 C10.7891041,4.93689024 14.2368017,8.38907584 18.48978,8.38907584" id="Fill-43" fill="#FFFFFF" opacity="0.3"></path>
                    </g>
                </g>
            </g>
        </g>
    </g>
</svg>