<?xml version="1.0" encoding="UTF-8" standalone="no"?>
<svg width="305px" height="82px" viewBox="0 0 305 82" version="1.1" xmlns="http://www.w3.org/2000/svg" xmlns:xlink="http://www.w3.org/1999/xlink">
    <!-- Generator: sketchtool 3.7.2 (28276) - http://www.bohemiancoding.com/sketch -->
    <title>85ECCE26-B86C-470A-B877-CC25C83BF1B6</title>
    <desc>Created with sketchtool.</desc>
    <defs>
        <polygon id="path-1" points="0 75.0699301 294.576286 75.0699301 294.576286 0.217237762 0 0.217237762"></polygon>
        <text id="text-3" font-family="Foco-Black, Foco" font-size="35" font-weight="700" fill="#01579B">
            <tspan x="29.2153076" y="48">Meus troféus</tspan>
        </text>
        <filter x="-50%" y="-50%" width="200%" height="200%" filterUnits="objectBoundingBox" id="filter-4">
            <feOffset dx="2" dy="2" in="SourceAlpha" result="shadowOffsetOuter1"></feOffset>
            <feColorMatrix values="0 0 0 0 1   0 0 0 0 1   0 0 0 0 1  0 0 0 0.5 0" type="matrix" in="shadowOffsetOuter1"></feColorMatrix>
        </filter>
    </defs>
    <g id="GdS-md" stroke="none" stroke-width="1" fill="none" fill-rule="evenodd">
        <g id="08---game_trofeus" transform="translate(-330.000000, -131.000000)">
            <g id="Group-2" transform="translate(330.000000, 131.000000)">
                <g id="Page-1" transform="translate(3.662192, 5.000000)">
                    <g id="Group-3" transform="translate(0.000000, 0.447098)">
                        <mask id="mask-2" fill="white">
                            <use xlink:href="#path-1"></use>
                        </mask>
                        <g id="Clip-2"></g>
                        <path d="M289.903791,75.0699301 L-6.62192397e-05,75.0699301 L-6.62192397e-05,4.89615385 C-6.62192397e-05,2.31188811 2.0878264,0.217237762 4.66375481,0.217237762 L289.585938,0.217237762 C293.765697,0.217237762 295.835048,5.30804196 292.847236,8.24041958 L266.987298,33.620035 C265.143755,35.4296853 265.113956,38.3972727 266.921741,40.2427972 L293.230645,67.1125175 C296.128399,70.0721329 294.03852,75.0699301 289.903791,75.0699301" id="Fill-1" fill="#FFCB00" mask="url(#mask-2)"></path>
                    </g>
                    <path d="M3.97315436,9.32906643 C3.97315436,6.74546503 6.06104698,4.65081469 8.63697539,4.65081469 L289.586004,0.664800699 C289.807177,0.664800699 293.992233,4.67207343 294.200823,4.69931119 C293.888931,2.55815734 292.133459,0.664800699 289.586004,0.664800699 L4.66382103,0.664800699 C2.08789262,0.664800699 0,2.75945105 0,5.34305245 L0,75.5168287 L3.97315436,75.5168287 L3.97315436,9.32906643 Z" id="Fill-4" fill="#FFFFFF" opacity="0.2"></path>
                    <g id="Group-8" transform="translate(0.000000, 0.447098)" fill="#1E120F" opacity="0.2">
                        <path d="M266.921741,40.2429965 C265.113956,38.3968077 265.143093,35.4292203 266.987298,33.6195699 L292.847236,8.24061888 C295.532426,5.6051993 294.125929,1.23852098 290.781196,0.378206294 C291.187782,1.89554895 290.860659,3.61883566 289.536274,4.91894056 L263.676336,30.2978916 C261.832131,32.107542 261.802994,35.0751294 263.610779,36.9213182 L289.919683,63.7910385 C292.817437,66.7499895 290.727558,71.748451 286.592829,71.748451 L-6.62192379e-05,75.0701294 L289.903791,75.0701294 C294.03852,75.0701294 296.128399,70.0716678 293.230645,67.1127168 L266.921741,40.2429965 Z" id="Fill-6"></path>
                    </g>
                    <path d="M0,5.34305245 L0,64.8588916 C6.18818792,66.7542413 12.7558121,67.7773182 19.5624877,67.7773182 C56.5088501,67.7773182 86.4591499,37.7300804 86.4591499,0.664800699 L4.66382103,0.664800699 C2.08789262,0.664800699 0,2.75945105 0,5.34305245" id="Fill-9" fill="#FFFFFF" opacity="0.3"></path>
                    <path d="M0,5.34305245 L0,23.5206049 C5.25648322,28.0527028 12.08766,30.7984021 19.5624877,30.7984021 C36.1517315,30.7984021 49.5995347,17.3070734 49.5995347,0.664800699 L4.66382103,0.664800699 C2.08789262,0.664800699 0,2.75945105 0,5.34305245" id="Fill-11" fill="#FFFFFF" opacity="0.3"></path>
                    <g id="Meus-troféus" fill-opacity="1" fill="#01579B">
                        <use filter="url(#filter-4)" xlink:href="#text-3"></use>
                        <use xlink:href="#text-3"></use>
                    </g>
                </g>
            </g>
        </g>
    </g>
</svg>