<?xml version="1.0" encoding="UTF-8" standalone="no"?>
<svg width="544px" height="473px" viewBox="0 0 544 473" version="1.1" xmlns="http://www.w3.org/2000/svg" xmlns:xlink="http://www.w3.org/1999/xlink">
    <!-- Generator: sketchtool 3.7.2 (28276) - http://www.bohemiancoding.com/sketch -->
    <title>BC6613C1-36E8-4E58-A747-7EE2F31E5BB4</title>
    <desc>Created with sketchtool.</desc>
    <defs>
        <filter x="-50%" y="-50%" width="200%" height="200%" filterUnits="objectBoundingBox" id="filter-1">
            <feGaussianBlur stdDeviation="40.8574485 1.42677354" in="SourceGraphic"></feGaussianBlur>
        </filter>
        <filter x="-50%" y="-50%" width="200%" height="200%" filterUnits="objectBoundingBox" id="filter-2">
            <feOffset dx="10" dy="10" in="SourceAlpha" result="shadowOffsetOuter1"></feOffset>
            <feGaussianBlur stdDeviation="30" in="shadowOffsetOuter1" result="shadowBlurOuter1"></feGaussianBlur>
            <feColorMatrix values="0 0 0 0 0   0 0 0 0 0   0 0 0 0 0  0 0 0 0.5 0" type="matrix" in="shadowBlurOuter1" result="shadowMatrixOuter1"></feColorMatrix>
            <feMerge>
                <feMergeNode in="shadowMatrixOuter1"></feMergeNode>
                <feMergeNode in="SourceGraphic"></feMergeNode>
            </feMerge>
        </filter>
        <polygon id="path-3" points="0.0595884931 330.547452 206.795039 330.547452 206.795039 0.252341349 0.0595884931 0.252341349 0.0595884931 330.547452"></polygon>
        <polygon id="path-5" points="154.819518 0.530643352 -1.37134748e-12 0.530643352 -1.37134748e-12 355.230128 309.639036 355.230128 309.639036 0.530643352 154.819518 0.530643352"></polygon>
    </defs>
    <g id="GdS-md" stroke="none" stroke-width="1" fill="none" fill-rule="evenodd">
        <g id="02---game_02" transform="translate(-416.000000, -96.000000)">
            <g id="Group-3" transform="translate(416.000000, 96.000000)">
                <path d="M163.593335,384.699422 C153.151442,385.838062 173.280047,393.065919 184.251902,397.285683 C195.223758,401.506287 305.039444,413.896313 409.864249,397.285681 C420.387183,397.285682 337.694188,344.654994 304.482167,346.23751 C271.271162,347.820026 128.935985,391.805132 128.935985,391.805132" id="Fill-1" fill="#1E120F" opacity="0.597014925" filter="url(#filter-1)" transform="translate(269.859325, 375.950517) rotate(-4.000000) translate(-269.859325, -375.950517) "></path>
                <g id="Page-1" filter="url(#filter-2)" transform="translate(218.341159, 227.149067) rotate(5.000000) translate(-218.341159, -227.149067) translate(48.341159, 48.649067)">
                    <path d="M172.161109,1.67620909 L223.055041,8.68619661 C223.055041,8.68619661 345.783094,36.5918557 339.244947,196.372505 C335.668362,283.79975 260.191305,372.878133 132.762525,353.48652 L172.161109,1.67620909 Z" id="Fill-1" fill="#F48820"></path>
                    <g id="Group-5" transform="translate(132.702426, 25.623992)">
                        <mask id="mask-4" fill="white">
                            <use xlink:href="#path-3"></use>
                        </mask>
                        <g id="Clip-4"></g>
                        <path d="M128.732454,0.252341349 C162.797422,24.42727 202.688537,72.7387585 198.887378,165.633563 C195.386075,251.187129 123.024974,338.304865 0.511287135,323.827021 L0.0595884931,327.863424 C127.489645,347.255037 202.965425,258.175374 206.543287,170.749409 C210.634094,70.7845054 164.126998,22.439764 128.732454,0.252341349" id="Fill-3" fill="#F57820" mask="url(#mask-4)"></path>
                    </g>
                    <path d="M161.199378,355.27438 C235.390242,353.504298 316.01845,275.872619 316.01845,177.924638 C316.01845,93.2612291 256.570315,22.46432 187.300925,4.81593147 L172.161364,1.6760812 L132.894206,352.30719 C142.072365,354.249932 151.533793,355.504593 161.199378,355.27438" id="Fill-6" fill="#F57820"></path>
                    <g id="Group-10" transform="translate(-0.000000, 0.044764)">
                        <mask id="mask-6" fill="white">
                            <use xlink:href="#path-5"></use>
                        </mask>
                        <g id="Clip-9"></g>
                        <path d="M309.639036,177.880386 C309.639036,275.827088 240.32371,355.230128 154.819965,355.230128 C69.3149429,355.230128 -0.000382795457,275.827088 -0.000382795457,177.880386 C-0.000382795457,79.9336838 69.3149429,0.530643352 154.819965,0.530643352 C240.32371,0.530643352 309.639036,79.9336838 309.639036,177.880386" id="Fill-8" fill="#FFCA04" mask="url(#mask-6)"></path>
                    </g>
                    <g id="Group-13" transform="translate(-0.000000, 0.044764)" fill="#FFFFFF" opacity="0.300000012">
                        <path d="M165.02695,5.64636111 C185.10202,5.64636111 204.285177,10.025525 221.887388,17.9908967 C201.5954,6.80126327 178.847142,0.530515456 154.819071,0.530515456 C69.3153257,0.530515456 7.60280727e-13,79.9335559 7.60280727e-13,177.880258 C7.60280727e-13,252.831234 40.5878025,316.921269 97.9599099,342.885465 C46.0413618,314.255914 10.2078789,253.419556 10.2078789,182.996104 C10.2078789,85.0494016 79.5232046,5.64636111 165.02695,5.64636111 Z" id="Fill-11"></path>
                    </g>
                    <path d="M279.992804,177.925149 C279.992804,257.117161 223.950272,321.31463 154.819965,321.31463 C85.6883807,321.31463 29.6458495,257.117161 29.6458495,177.925149 C29.6458495,98.7331377 85.6883807,34.5356694 154.819965,34.5356694 C223.950272,34.5356694 279.992804,98.7331377 279.992804,177.925149" id="Fill-14" fill="#F48820"></path>
                    <path d="M36.026029,183.040867 C36.026029,103.848855 92.0685602,39.6513872 161.198868,39.6513872 C186.519512,39.6513872 210.07802,48.2728661 229.776675,63.0781234 C208.881146,45.1534792 182.932718,34.5355415 154.818944,34.5355415 C85.6886359,34.5355415 29.6461047,98.7330098 29.6461047,177.925022 C29.6461047,228.111468 52.1595816,272.26761 86.2411373,297.886486 C55.755307,271.734283 36.026029,230.027352 36.026029,183.040867" id="Fill-16" fill="#F57820"></path>
                    <path d="M173.867356,170.730736 L232.874,108.722849 C236.319159,105.062462 236.167317,99.4439844 232.784681,95.7170908 L232.408266,95.346192 C231.499765,94.5442832 231.101657,94.221985 230.397314,93.8127173 C227.146104,91.9288071 223.144616,92.0055448 220.008245,93.9687506 L102.551286,176.498852 C99.450643,178.678202 98.0279199,182.46137 98.8419982,186.147337 C99.5935533,188.981515 101.21533,191.267019 103.574626,192.635508 C104.352977,193.086981 104.878683,193.272431 105.92499,193.572987 L143.422357,204.421137 L84.4220933,266.422629 C80.9756582,270.083016 81.1287764,275.701494 84.5101363,279.428387 L84.8878278,279.799286 L85.0562578,279.94253 C85.796329,280.601195 86.1931603,280.923493 86.8987799,281.332761 C90.1487134,283.21795 94.1502019,283.139933 97.2865727,281.176728 L97.4983862,281.036042 L214.743531,198.647906 C214.777983,198.623605 214.812434,198.598026 214.846886,198.573726 L215.148018,198.532799 L215.986341,197.601715 C216.491631,197.093967 216.931845,196.53634 217.299329,195.939065 C218.806267,193.558918 219.19927,190.604517 218.18231,187.827892 C217.678296,186.337902 216.700892,184.92465 215.455531,183.800442 C214.932377,183.309321 214.35308,182.877032 213.720191,182.50997 C213.518586,182.392306 213.332292,182.293826 213.151102,182.205578 C212.543733,181.873048 212.083103,181.674809 211.403003,181.479127 L173.867356,170.730736 Z" id="Fill-18" fill="#F57820"></path>
                    <path d="M170.039402,166.893851 L229.046046,104.885965 C232.491205,101.225578 232.339363,95.6071002 228.956727,91.8802066 L228.580311,91.5093078 C227.67181,90.707399 227.273703,90.3851007 226.569359,89.9758331 C223.31815,88.0919229 219.316661,88.1686606 216.18029,90.1318664 L98.7233316,172.661967 C95.6226884,174.841318 94.1999653,178.624486 95.0140436,182.310452 C95.7655987,185.144631 97.3873755,187.430135 99.7466715,188.798624 C100.525022,189.250097 101.050728,189.435546 102.097036,189.736102 L139.594403,200.584253 L80.5941387,262.585745 C77.1477036,266.246132 77.3008218,271.86461 80.6821817,275.591503 L81.0598732,275.962402 L81.2283032,276.105646 C81.9683744,276.764311 82.3652057,277.086609 83.0708253,277.495877 C86.3207588,279.381066 90.3222473,279.303049 93.4586181,277.339843 L93.6704316,277.199158 L210.915577,194.811021 C210.950028,194.786721 210.98448,194.761142 211.018931,194.736841 L211.320064,194.695915 L212.158386,193.764831 C212.663676,193.257083 213.103891,192.699456 213.471374,192.102181 C214.978312,189.722034 215.371316,186.767633 214.354356,183.991008 C213.850342,182.501018 212.872937,181.087765 211.627576,179.963558 C211.104422,179.472437 210.525125,179.040148 209.892237,178.673086 C209.690631,178.555422 209.504337,178.456942 209.323148,178.368693 C208.715779,178.036163 208.255148,177.837924 207.575048,177.642243 L170.039402,166.893851 Z" id="Fill-20" fill="#FFCA04"></path>
                    <g id="Group-26" transform="translate(77.835077, 88.293101)" fill="#FFFFFF" opacity="0.3">
                        <path d="M6.67557001,189.856197 C3.29293414,186.129303 3.14109194,180.510826 6.58625107,176.850438 L65.5865151,114.848947 L60.6765254,113.428021 L2.75829648,174.292515 C-0.686862652,177.952903 -0.535020453,183.57138 2.84761542,187.298274 L3.22403095,187.669173 L3.39373694,187.812417 C4.13253218,188.471082 4.52936347,188.79338 5.2349831,189.202648 C5.71220144,189.480182 6.20855955,189.701443 6.71257357,189.893287 L6.67557001,189.856197 Z" id="Fill-22"></path>
                        <path d="M21.9117225,100.505778 C22.45274,100.819124 22.878919,101.004573 23.4352484,101.188744 C22.3021738,99.9302455 21.4804396,98.3622388 21.0070492,96.5755297 C20.1929708,92.889563 21.615694,89.1051161 24.7163372,86.9257659 L142.173296,4.39694371 C144.849036,2.72278322 148.152561,2.43245898 151.083498,3.55027125 L150.745362,3.21646232 C149.835585,2.41455352 149.438754,2.09225524 148.733134,1.68298759 C145.483201,-0.202201538 141.481712,-0.124184892 138.345341,1.83902088 L20.8883826,84.367843 C17.7877394,86.5471933 16.3650163,90.3316401 17.1790946,94.0176069 C17.9306497,96.8517854 19.5524264,99.1372895 21.9117225,100.505778" id="Fill-24"></path>
                    </g>
                    <path d="M208.747296,48.4938706 C250.884144,71.5740083 279.993186,120.853671 279.993186,177.924766 C279.993186,257.116778 223.950655,321.314246 154.819071,321.314246 C138.473705,321.314246 122.86203,317.720364 108.548032,311.192545 C124.879363,320.13888 143.165502,325.15113 162.474981,325.15113 C231.606564,325.15113 287.649096,260.953662 287.649096,181.76165 C287.649096,121.294912 254.973675,69.5737127 208.747296,48.4938706" id="Fill-27" fill="#FFFFFF" opacity="0.3"></path>
                </g>
            </g>
        </g>
    </g>
</svg>