<?xml version="1.0" encoding="UTF-8" standalone="no"?>
<svg width="605px" height="496px" viewBox="0 0 605 496" version="1.1" xmlns="http://www.w3.org/2000/svg" xmlns:xlink="http://www.w3.org/1999/xlink">
    <!-- Generator: sketchtool 3.7.2 (28276) - http://www.bohemiancoding.com/sketch -->
    <title>D0176750-90F7-4A58-B970-647F9D1D728C</title>
    <desc>Created with sketchtool.</desc>
    <defs>
        <filter x="-50%" y="-50%" width="200%" height="200%" filterUnits="objectBoundingBox" id="filter-1">
            <feOffset dx="10" dy="10" in="SourceAlpha" result="shadowOffsetOuter1"></feOffset>
            <feGaussianBlur stdDeviation="30" in="shadowOffsetOuter1" result="shadowBlurOuter1"></feGaussianBlur>
            <feColorMatrix values="0 0 0 0 0   0 0 0 0 0   0 0 0 0 0  0 0 0 0.5 0" type="matrix" in="shadowBlurOuter1" result="shadowMatrixOuter1"></feColorMatrix>
            <feMerge>
                <feMergeNode in="shadowMatrixOuter1"></feMergeNode>
                <feMergeNode in="SourceGraphic"></feMergeNode>
            </feMerge>
        </filter>
        <polygon id="path-2" points="179.288594 175.562787 6.08176366e-13 175.562787 6.08176366e-13 0.266156225 179.288594 0.266156225"></polygon>
        <filter x="-50%" y="-50%" width="200%" height="200%" filterUnits="objectBoundingBox" id="filter-4">
            <feOffset dx="10" dy="10" in="SourceAlpha" result="shadowOffsetOuter1"></feOffset>
            <feGaussianBlur stdDeviation="30" in="shadowOffsetOuter1" result="shadowBlurOuter1"></feGaussianBlur>
            <feColorMatrix values="0 0 0 0 0   0 0 0 0 0   0 0 0 0 0  0 0 0 0.5 0" type="matrix" in="shadowBlurOuter1" result="shadowMatrixOuter1"></feColorMatrix>
            <feMerge>
                <feMergeNode in="shadowMatrixOuter1"></feMergeNode>
                <feMergeNode in="SourceGraphic"></feMergeNode>
            </feMerge>
        </filter>
        <path d="M5.9891607,0.790747277 C2.38309415,4.92305713 0.198705082,10.3284295 0.198705082,16.2438491 L0.198705082,18.2654238 L15.4372775,18.2654238 L15.4372775,0.790747277 L5.9891607,0.790747277 L5.9891607,0.790747277 Z" id="path-5"></path>
        <path d="M0.294104169,1.16494057 C2.40298715,0.543896227 4.63512425,0.210648617 6.94508268,0.210648617 L18.6629679,0.210648617 L18.6629679,13.7641408 L0.294104169,13.7641408 L0.294104169,1.16494057 L0.294104169,1.16494057 Z" id="path-7"></path>
        <polygon id="path-9" points="18.9610923 0.210648617 0.592228593 0.210648617 0.592228593 13.7641408 18.9610923 13.7641408 18.9610923 0.210648617"></polygon>
        <polygon id="path-11" points="18.5955041 0.210648617 0.226640393 0.210648617 0.226640393 13.7641408 18.5955041 13.7641408 18.5955041 0.210648617"></polygon>
        <polygon id="path-13" points="18.6924397 0.210648617 0.323575922 0.210648617 0.323575922 13.7641408 18.6924397 13.7641408 18.6924397 0.210648617"></polygon>
        <polygon id="path-15" points="18.7367718 0.210648617 0.367908046 0.210648617 0.367908046 13.7641408 18.7367718 13.7641408 18.7367718 0.210648617"></polygon>
        <polygon id="path-17" points="18.8261648 0.210648617 0.457301041 0.210648617 0.457301041 13.7641408 18.8261648 13.7641408 18.8261648 0.210648617"></polygon>
        <polygon id="path-19" points="18.4406706 0.210648617 0.0718069097 0.210648617 0.0718069097 13.7641408 18.4406706 13.7641408 18.4406706 0.210648617"></polygon>
        <polygon id="path-21" points="18.6599497 0.210648617 0.29108594 0.210648617 0.29108594 13.7641408 18.6599497 13.7641408 18.6599497 0.210648617"></polygon>
        <path d="M3.30930196,17.527036 L3.30930196,5.56006792 C3.30930196,3.66334251 3.08472365,1.81905535 2.66071003,0.0523594536 L0.336565841,0.0523594536 L0.336565841,17.527036 L3.30930196,17.527036 L3.30930196,17.527036 Z" id="path-23"></path>
        <path d="M2.57842472,4.88880203 C1.86993684,3.37542026 1.00496605,1.94993297 0.00434313366,0.633179249 L0.00434313366,4.88880203 L2.57842472,4.88880203 L2.57842472,4.88880203 Z" id="path-25"></path>
        <polygon id="path-27" points="0.198705082 0.364498171 0.198705082 22.9985912 9.20909996 22.9985912 9.20909996 0.364498171 0.198705082 0.364498171"></polygon>
        <polygon id="path-29" points="16.7835348 23.306787 16.7835348 0.672694017 0.215381248 0.672694017 0.215381248 23.306787 16.7835348 23.306787"></polygon>
        <polygon id="path-31" points="19.5770659 22.8495227 19.5770659 0.215429735 0.667234903 0.215429735 0.667234903 22.8495227 19.5770659 22.8495227"></polygon>
        <polygon id="path-33" points="0.198705082 0.330238665 0.198705082 25.5824596 11.0982254 25.5824596 11.0982254 0.330238665 0.198705082 0.330238665"></polygon>
        <polygon id="path-35" points="0.198705082 0.284724903 0.198705082 25.5369458 8.48557541 25.5369458 8.48557541 0.284724903 0.198705082 0.284724903"></polygon>
        <polygon id="path-37" points="13.0866608 25.5824596 13.0866608 0.330238665 0.260162766 0.330238665 0.260162766 25.5824596 13.0866608 25.5824596"></polygon>
        <polygon id="path-39" points="15.8801919 25.5369458 15.8801919 0.284724903 0.441043904 0.284724903 0.441043904 25.5369458 15.8801919 25.5369458"></polygon>
        <path d="M0.198705082,0.461338974 L0.198705082,210.918253 C0.198705082,223.904112 10.7233335,234.429713 23.7062693,234.429713 L306.644876,234.429713 C319.627812,234.429713 330.15244,223.904112 330.15244,210.918253 L330.15244,0.461338974 L0.198705082,0.461338974 L0.198705082,0.461338974 Z" id="path-41"></path>
        <path d="M0.198705082,0.252803429 L0.198705082,246.749474 C0.198705082,259.735333 10.7233335,270.260934 23.7062693,270.260934 L306.644876,270.260934 C319.627812,270.260934 330.15244,259.735333 330.15244,246.749474 L330.15244,0.252803429 L0.198705082,0.252803429 L0.198705082,0.252803429 Z" id="path-43"></path>
        <path d="M0.198705082,0.551034846 L0.198705082,206.234155 C0.198705082,219.220013 10.7233335,229.745614 23.7062693,229.745614 L306.644876,229.745614 C319.627812,229.745614 330.15244,219.220013 330.15244,206.234155 L330.15244,0.551034846 L0.198705082,0.551034846 L0.198705082,0.551034846 Z" id="path-45"></path>
        <polygon id="path-47" points="0.198705082 0.240752964 0.198705082 5.43883669 15.2731896 5.43883669 15.2731896 0.240752964 0.198705082 0.240752964"></polygon>
        <polygon id="path-49" points="21.4672541 6.90916339 21.4672541 0.145546888 0.129422891 0.145546888 0.129422891 6.90916339 21.4672541 6.90916339"></polygon>
        <path d="M0.198705082,0.532555701 L0.198705082,102.850235 C0.198705082,107.028838 1.28845692,110.952698 3.19920546,114.353093 L278.139266,114.353093 L278.139266,0.532555701 L0.198705082,0.532555701 L0.198705082,0.532555701 Z" id="path-51"></path>
        <polygon id="path-53" points="0.0246368277 0.439766134 0.0246368277 3.67354423 36.2378438 3.67354423 36.2378438 0.439766134 0.0246368277 0.439766134"></polygon>
        <polygon id="path-55" points="0.198705082 0.210462451 0.198705082 10.633983 135.2806 10.633983 135.2806 0.210462451 0.198705082 0.210462451"></polygon>
        <polygon id="path-57" points="17.5258226 1.80019933 17.5258226 0.28081248 0.358865695 0.28081248 0.358865695 1.80019933 17.5258226 1.80019933"></polygon>
        <polygon id="path-59" points="0.000455413315 315.060998 291.823238 315.060998 291.823238 0.27788771 0.000455413315 0.27788771 0.000455413315 315.060998"></polygon>
        <filter x="-50%" y="-50%" width="200%" height="200%" filterUnits="objectBoundingBox" id="filter-61">
            <feOffset dx="10" dy="10" in="SourceAlpha" result="shadowOffsetOuter1"></feOffset>
            <feGaussianBlur stdDeviation="30" in="shadowOffsetOuter1" result="shadowBlurOuter1"></feGaussianBlur>
            <feColorMatrix values="0 0 0 0 0   0 0 0 0 0   0 0 0 0 0  0 0 0 0.5 0" type="matrix" in="shadowBlurOuter1" result="shadowMatrixOuter1"></feColorMatrix>
            <feMerge>
                <feMergeNode in="shadowMatrixOuter1"></feMergeNode>
                <feMergeNode in="SourceGraphic"></feMergeNode>
            </feMerge>
        </filter>
        <polygon id="path-62" points="173.08531 169.897178 4.29682786e-12 169.897178 4.29682786e-12 0.257567064 173.08531 0.257567064"></polygon>
    </defs>
    <g id="GdS-md" stroke="none" stroke-width="1" fill="none" fill-rule="evenodd">
        <g id="06---game_06" transform="translate(-326.000000, -78.000000)">
            <g id="Group-2" transform="translate(326.000000, 78.000000)">
                <g id="Page-1-Copy" filter="url(#filter-1)" transform="translate(439.025528, 175.499670) rotate(8.000000) translate(-439.025528, -175.499670) translate(349.051057, 87.083222)">
                    <g id="Group-3" transform="translate(-0.000000, 0.494008)">
                        <mask id="mask-3" fill="white">
                            <use xlink:href="#path-2"></use>
                        </mask>
                        <g id="Clip-2"></g>
                        <path d="M12.77321,0.266156225 L166.515156,0.266156225 C173.569767,0.266156225 179.288594,5.99284713 179.288594,13.0571593 L179.288594,162.771936 C179.288594,169.836248 173.569767,175.562939 166.515156,175.562939 L12.77321,175.562939 C5.71859899,175.562939 -0.000227690508,169.836248 -0.000227690508,162.771936 L-0.000227690508,13.0571593 C-0.000227690508,5.99284713 5.71859899,0.266156225 12.77321,0.266156225" id="Fill-1" fill="#EDEFF1" mask="url(#mask-3)"></path>
                    </g>
                    <path d="M172.564665,2.28505227 C174.843088,4.59548895 176.252493,7.76701929 176.252493,11.2706749 L176.252493,160.986211 C176.252493,168.050524 170.533666,173.776455 163.479814,173.776455 L9.73710882,173.776455 C7.54824404,173.776455 5.48916285,173.223926 3.6881309,172.25187 C6.0037434,174.599548 9.21797446,176.056491 12.7729823,176.056491 L166.515687,176.056491 C173.569539,176.056491 179.288366,170.33056 179.288366,163.266248 L179.288366,13.5507111 C179.288366,8.67903377 176.567464,4.44500656 172.564665,2.28505227" id="Fill-4" fill="#C3C5CB"></path>
                    <path d="M3.03587349,166.305992 L3.03587349,16.5912154 C3.03587349,9.52690323 8.75470016,3.80021232 15.8093112,3.80021232 L169.551257,3.80021232 C172.302518,3.80021232 174.845062,4.68030629 176.929948,6.16232982 C174.615853,2.89731799 170.817975,0.760164067 166.515384,0.760164067 L12.7734377,0.760164067 C5.71882668,0.760164067 2.36453256e-12,6.48685497 2.36453256e-12,13.5511671 L2.36453256e-12,163.265944 C2.36453256e-12,167.574452 2.13421906,171.377552 5.39474718,173.694829 C3.91475886,171.607076 3.03587349,169.061036 3.03587349,166.305992" id="Fill-6" fill="#FFFFFF"></path>
                    <path d="M84.7142281,153.415351 C82.3788824,151.806406 80.2810938,149.860775 78.4201034,147.67118 C76.5530412,145.472465 74.9804587,143.042707 73.6993201,140.467786 C72.4166636,137.889825 71.5127322,135.524667 70.990562,133.401194 C70.4653559,131.2762 70.3750386,129.321449 70.7279589,127.47766 C70.9639981,125.734952 71.7495304,124.569093 73.0891095,123.810601 C74.4233759,123.052109 75.9382768,122.49274 77.6315352,122.083094 C79.3209988,121.691688 81.333783,121.556406 83.6638159,121.641527 C85.9923308,121.728928 88.1500779,121.975172 90.1317443,122.527701 C92.4617772,123.457956 94.5891656,124.741616 96.5123914,126.498764 C98.4325814,128.253632 99.9490002,130.196983 101.055576,132.331857 C102.159875,134.46217 103.009161,136.833408 103.591289,139.413649 C104.170382,141.99693 104.288781,144.470009 103.941933,146.759926 C103.470613,149.018682 102.659276,151.057034 101.493501,152.839262 C100.326207,154.61389 98.8697472,155.801029 97.123361,156.387758 C95.3769747,156.968408 93.4135236,157.043649 91.2686789,156.587642 C89.1101729,156.130874 86.924344,155.058497 84.7142281,153.415351" id="Fill-8" fill="#FFFFFF"></path>
                    <path d="M96.373652,103.215946 C96.0822081,107.563215 95.7900053,111.880084 95.4985615,116.167312 C88.3339,115.344219 81.1669617,114.319723 74.0007824,111.554799 C73.3010135,103.089784 72.6012447,94.7706924 71.9022348,86.5967626 C90.1948905,83.9086 99.7791431,71.060596 100.655752,62.3386976 C101.533119,51.5647665 90.5470518,51.6643281 69.1008825,55.9766366 C69.858333,48.2176734 71.3170702,44.8911006 72.0752796,36.7414912 C87.5749317,32.1783788 100.277785,24.0188893 110.182323,23.8380064 C123.589499,23.0065532 130.052115,35.2495875 129.585349,50.2347454 C128.766422,69.6158131 121.894722,83.8265187 108.958107,95.125618 C105.696819,97.8411411 101.505796,100.653186 96.373652,103.215946" id="Fill-10" fill="#FFFFFF"></path>
                    <path d="M79.0564984,151.574754 C76.7211527,149.965809 74.6233641,148.020178 72.7623737,145.830583 C70.8953115,143.631868 69.322729,141.202109 68.0415904,138.627189 C66.7589338,136.049228 65.8550025,133.68407 65.3328323,131.560596 C64.8076262,129.435603 64.7173089,127.480852 65.0702292,125.637062 C65.3062684,123.894355 66.0918006,122.728496 67.4313798,121.970004 C68.7656462,121.211512 70.2805471,120.652143 71.9738055,120.242497 C73.6632691,119.851091 75.6760532,119.715808 78.0060861,119.80093 C80.3346011,119.888331 82.4923482,120.134575 84.4740146,120.687104 C86.8040475,121.617359 88.9314358,122.901019 90.8546617,124.658167 C92.7748517,126.413035 94.2912705,128.356386 95.3978464,130.491259 C96.5021453,132.621573 97.351431,134.992811 97.9335597,137.573052 C98.5126526,140.156333 98.6310516,142.629412 98.2842031,144.919328 C97.8128837,147.178084 97.0015465,149.216437 95.8357711,150.998665 C94.6684778,152.773293 93.2120175,153.960432 91.4656312,154.547161 C89.719245,155.12781 87.7557938,155.203052 85.6109492,154.747044 C83.4524432,154.290277 81.2666143,153.2179 79.0564984,151.574754" id="Fill-12" fill="#1976D1"></path>
                    <path d="M76.0522739,149.125463 C74.1852117,146.925988 72.6126292,144.49699 71.3314906,141.922069 C70.049593,139.344108 69.1449027,136.97895 68.6227325,134.855477 C68.0975264,132.730483 68.0072091,130.774972 68.3601294,128.931943 C68.5961686,127.189235 69.3817008,126.023376 70.722039,125.264884 C72.0563054,124.505632 73.5712063,123.947024 75.2644647,123.537377 C76.9531693,123.145971 78.9667124,123.010689 81.2959863,123.09581 C83.6245013,123.183211 85.7822484,123.429455 87.7639148,123.981224 C89.798709,124.793677 91.6498329,125.939775 93.374968,127.370878 C92.629661,126.422383 91.7940369,125.516448 90.855193,124.658395 C88.9312082,122.901247 86.8038198,121.616827 84.4737869,120.686572 C82.4921205,120.134803 80.3343734,119.888559 78.0058584,119.801158 C75.6765845,119.716036 73.6630414,119.851319 71.9743368,120.242725 C70.2810784,120.652371 68.7661775,121.21098 67.4319111,121.969472 C66.091573,122.728724 65.3060407,123.894583 65.0700015,125.63729 C64.7170812,127.48032 64.8073985,129.435831 65.3326046,131.560824 C65.8547748,133.683538 66.7594651,136.049456 68.0413627,138.627417 C69.3225013,141.202337 70.8950838,143.631336 72.762146,145.830811 C73.841399,147.100791 75.0238717,148.257529 76.2625081,149.345107 C76.1972368,149.267585 76.1183041,149.203744 76.0522739,149.125463" id="Fill-14" fill="#004597"></path>
                    <path d="M91.9899266,99.3515891 C91.6984827,103.698858 91.4062799,108.015727 91.1148361,112.302955 C83.9501746,111.479862 76.7832363,110.455365 69.6170569,107.690441 C68.9172881,99.2254271 68.2175193,90.906335 67.5185094,82.7316453 C85.8111651,80.0442426 95.3954177,67.1962387 96.2720261,58.4743402 C97.1493936,47.7004092 86.8661311,52.4307243 65.4192029,56.7430327 C66.1766533,48.9840696 66.9333448,41.0267433 67.6915542,32.8771339 C83.1912063,28.3140215 95.8940599,20.1545319 105.798597,19.9736491 C119.205773,19.1421959 125.668389,31.3852302 125.201624,46.3703881 C124.382697,65.7514557 117.511756,79.9621613 104.574381,91.2612607 C101.313094,93.9767838 97.1220707,96.7888284 91.9899266,99.3515891" id="Fill-16" fill="#1976D1"></path>
                    <path d="M70.9820616,36.1720902 C86.4809547,31.6089778 99.1838083,23.4494882 109.089105,23.2686054 C113.470629,22.996521 117.096221,24.1418592 119.99548,26.3025735 C116.762275,22.0601862 112.043768,19.5863469 105.798977,19.9739531 C95.8936804,20.1548359 83.1908268,28.3143255 67.6919337,32.8774379 C66.9337243,41.0270473 66.1770328,48.9836136 65.4195824,56.7425767 C66.6878185,56.4879727 67.9105166,56.2318486 69.100579,55.9764846 C69.7274868,49.4981417 70.3536357,42.9171973 70.9820616,36.1720902" id="Fill-18" fill="#004597"></path>
                    <path d="M70.8084855,86.0267536 C89.1011412,83.3385909 98.6861527,70.490587 99.5620022,61.7694485 C99.878492,57.8789468 100.555492,50.1800246 90.4194692,51.9037319 C97.310902,51.655968 96.3705402,57.263337 96.2718743,58.4747962 C95.3960248,67.1959347 85.8110133,80.0439386 67.5183576,82.7321013 C68.2173675,90.906031 68.9178953,99.2258831 69.6169051,107.690137 C70.651379,108.088384 71.684335,108.380988 72.7180499,108.712354 C72.0820344,101.035472 71.444501,93.4627116 70.8084855,86.0267536" id="Fill-20" fill="#004597"></path>
                </g>
                <g id="Page-1" filter="url(#filter-4)" transform="translate(295.390540, 236.531333) rotate(-8.000000) translate(-295.390540, -236.531333) translate(128.755994, 73.021438)">
                    <g id="Group-7" transform="translate(1.582091, 2.657445)">
                        <path d="M23.7059899,0.210508909 L306.644597,0.210508909 C319.627533,0.210508909 330.152161,10.7375067 330.152161,23.7233652 L330.152161,298.934153 C330.152161,311.920012 319.627533,322.44701 306.644597,322.44701 L23.7059899,322.44701 C10.7230541,322.44701 0.198425728,311.920012 0.198425728,298.934153 L0.198425728,23.7233652 C0.198425728,10.7375067 10.7230541,0.210508909 23.7059899,0.210508909 L23.7059899,0.210508909 Z" id="Stroke-1" stroke="#FFFFFF" stroke-width="20"></path>
                        <path d="M23.7059899,0.210508909 L306.644597,0.210508909 C319.627533,0.210508909 330.152161,10.7375067 330.152161,23.7233652 L330.152161,298.934153 C330.152161,311.920012 319.627533,322.44701 306.644597,322.44701 L23.7059899,322.44701 C10.7230541,322.44701 0.198425728,311.920012 0.198425728,298.934153 L0.198425728,23.7233652 C0.198425728,10.7375067 10.7230541,0.210508909 23.7059899,0.210508909" id="Fill-3" fill="#094A87"></path>
                        <path d="M23.7059899,0.210508909 L306.644597,0.210508909 C319.627533,0.210508909 330.152161,10.7375067 330.152161,23.7233652 L330.152161,298.934153 C330.152161,311.920012 319.627533,322.44701 306.644597,322.44701 L23.7059899,322.44701 C10.7230541,322.44701 0.198425728,311.920012 0.198425728,298.934153 L0.198425728,23.7233652 C0.198425728,10.7375067 10.7230541,0.210508909 23.7059899,0.210508909" id="Fill-5" fill="#002F51"></path>
                    </g>
                    <g id="Group-287" transform="translate(1.582091, 2.657445)">
                        <g id="Group-13" transform="translate(-0.000000, 7.478259)">
                            <mask id="mask-6" fill="white">
                                <use xlink:href="#path-5"></use>
                            </mask>
                            <g id="Clip-12"></g>
                            <path d="M15.4372775,11.6125289 C15.4372775,16.4380432 12.9426543,18.2654238 7.29553116,18.2654238 C1.64701128,18.2654238 -2.93158619,14.3535999 -2.93158619,9.52808556 C-2.93158619,4.70257126 1.64701128,0.790747277 7.29553116,0.790747277 C12.9426543,0.790747277 15.4372775,6.78701461 15.4372775,11.6125289" id="Fill-11" fill="#1F6299" mask="url(#mask-6)"></path>
                        </g>
                        <path d="M37.2319881,29.036181 C37.2319881,33.8616953 34.7373649,35.689076 29.0902418,35.689076 C23.4417219,35.689076 18.8631244,31.777252 18.8631244,26.9517377 C18.8631244,22.1262234 23.4417219,18.2143994 29.0902418,18.2143994 C34.7373649,18.2143994 37.2319881,24.2106667 37.2319881,29.036181" id="Fill-17" fill="#094A87"></path>
                        <path d="M55.084328,19.0907877 C55.084328,23.916302 52.5897047,25.7436826 46.9425816,25.7436826 C41.2940617,25.7436826 36.7154642,21.8318586 36.7154642,17.0063443 C36.7154642,12.18083 41.2940617,8.26900603 46.9425816,8.26900603 C52.5897047,8.26900603 55.084328,14.2652734 55.084328,19.0907877" id="Fill-19" fill="#1F6299"></path>
                        <g id="Group-23" transform="translate(16.761187, 0.000000)">
                            <mask id="mask-8" fill="white">
                                <use xlink:href="#path-7"></use>
                            </mask>
                            <g id="Clip-22"></g>
                            <path d="M18.6629679,7.11124583 C18.6629679,11.9367601 16.1683446,13.7641408 10.5212215,13.7641408 C4.87270164,13.7641408 0.294104169,9.85231678 0.294104169,5.02680248 C0.294104169,0.201288181 4.87270164,-3.7105358 10.5212215,-3.7105358 C16.1683446,-3.7105358 18.6629679,2.28573153 18.6629679,7.11124583" id="Fill-21" fill="#56ACDE" mask="url(#mask-8)"></path>
                        </g>
                        <path d="M74.3395791,29.036181 C74.3395791,33.8616953 71.8449558,35.689076 66.1978327,35.689076 C60.5493129,35.689076 55.9707154,31.777252 55.9707154,26.9517377 C55.9707154,22.1262234 60.5493129,18.2143994 66.1978327,18.2143994 C71.8449558,18.2143994 74.3395791,24.2106667 74.3395791,29.036181" id="Fill-24" fill="#094A87"></path>
                        <path d="M92.1917793,19.0907877 C92.1917793,23.916302 89.697156,25.7436826 84.0500329,25.7436826 C78.401513,25.7436826 73.8229155,21.8318586 73.8229155,17.0063443 C73.8229155,12.18083 78.401513,8.26900603 84.0500329,8.26900603 C89.697156,8.26900603 92.1917793,14.2652734 92.1917793,19.0907877" id="Fill-26" fill="#1F6299"></path>
                        <g id="Group-30" transform="translate(53.570513, 0.000000)">
                            <mask id="mask-10" fill="white">
                                <use xlink:href="#path-9"></use>
                            </mask>
                            <g id="Clip-29"></g>
                            <path d="M18.9610923,7.11124583 C18.9610923,11.9367601 16.4664691,13.7641408 10.8193459,13.7641408 C5.17082606,13.7641408 0.592228593,9.85231678 0.592228593,5.02680248 C0.592228593,0.201288181 5.17082606,-3.7105358 10.8193459,-3.7105358 C16.4664691,-3.7105358 18.9610923,2.28573153 18.9610923,7.11124583" id="Fill-28" fill="#56ACDE" mask="url(#mask-10)"></path>
                        </g>
                        <path d="M113.98663,29.036181 C113.98663,33.8616953 111.492006,35.689076 105.844883,35.689076 C100.196363,35.689076 95.6177658,31.777252 95.6177658,26.9517377 C95.6177658,22.1262234 100.196363,18.2143994 105.844883,18.2143994 C111.492006,18.2143994 113.98663,24.2106667 113.98663,29.036181" id="Fill-31" fill="#094A87"></path>
                        <path d="M131.838969,19.0907877 C131.838969,23.916302 129.344346,25.7436826 123.697223,25.7436826 C118.048703,25.7436826 113.470106,21.8318586 113.470106,17.0063443 C113.470106,12.18083 118.048703,8.26900603 123.697223,8.26900603 C129.344346,8.26900603 131.838969,14.2652734 131.838969,19.0907877" id="Fill-33" fill="#1F6299"></path>
                        <g id="Group-37" transform="translate(93.583292, 0.000000)">
                            <mask id="mask-12" fill="white">
                                <use xlink:href="#path-11"></use>
                            </mask>
                            <g id="Clip-36"></g>
                            <path d="M18.5955041,7.11124583 C18.5955041,11.9367601 16.1008809,13.7641408 10.4537577,13.7641408 C4.80523786,13.7641408 0.226640393,9.85231678 0.226640393,5.02680248 C0.226640393,0.201288181 4.80523786,-3.7105358 10.4537577,-3.7105358 C16.1008809,-3.7105358 18.5955041,2.28573153 18.5955041,7.11124583" id="Fill-35" fill="#56ACDE" mask="url(#mask-12)"></path>
                        </g>
                        <path d="M150.399469,29.036181 C150.399469,33.8616953 147.904846,35.689076 142.257723,35.689076 C136.609203,35.689076 132.030606,31.777252 132.030606,26.9517377 C132.030606,22.1262234 136.609203,18.2143994 142.257723,18.2143994 C147.904846,18.2143994 150.399469,24.2106667 150.399469,29.036181" id="Fill-38" fill="#094A87"></path>
                        <path d="M168.251809,19.0907877 C168.251809,23.916302 165.757186,25.7436826 160.110063,25.7436826 C154.461543,25.7436826 149.882945,21.8318586 149.882945,17.0063443 C149.882945,12.18083 154.461543,8.26900603 160.110063,8.26900603 C165.757186,8.26900603 168.251809,14.2652734 168.251809,19.0907877" id="Fill-40" fill="#1F6299"></path>
                        <g id="Group-44" transform="translate(129.899196, 0.000000)">
                            <mask id="mask-14" fill="white">
                                <use xlink:href="#path-13"></use>
                            </mask>
                            <g id="Clip-43"></g>
                            <path d="M18.6924397,7.11124583 C18.6924397,11.9367601 16.1978164,13.7641408 10.5506933,13.7641408 C4.90217339,13.7641408 0.323575922,9.85231678 0.323575922,5.02680248 C0.323575922,0.201288181 4.90217339,-3.7105358 10.5506933,-3.7105358 C16.1978164,-3.7105358 18.6924397,2.28573153 18.6924397,7.11124583" id="Fill-42" fill="#56ACDE" mask="url(#mask-14)"></path>
                        </g>
                        <path d="M190.046659,29.036181 C190.046659,33.8616953 187.552036,35.689076 181.904913,35.689076 C176.256393,35.689076 171.677796,31.777252 171.677796,26.9517377 C171.677796,22.1262234 176.256393,18.2143994 181.904913,18.2143994 C187.552036,18.2143994 190.046659,24.2106667 190.046659,29.036181" id="Fill-45" fill="#094A87"></path>
                        <path d="M207.898999,19.0907877 C207.898999,23.916302 205.404376,25.7436826 199.757253,25.7436826 C194.108733,25.7436826 189.530136,21.8318586 189.530136,17.0063443 C189.530136,12.18083 194.108733,8.26900603 199.757253,8.26900603 C205.404376,8.26900603 207.898999,14.2652734 207.898999,19.0907877" id="Fill-47" fill="#1F6299"></path>
                        <g id="Group-51" transform="translate(169.502054, 0.000000)">
                            <mask id="mask-16" fill="white">
                                <use xlink:href="#path-15"></use>
                            </mask>
                            <g id="Clip-50"></g>
                            <path d="M18.7367718,7.11124583 C18.7367718,11.9367601 16.2421485,13.7641408 10.5950254,13.7641408 C4.94650551,13.7641408 0.367908046,9.85231678 0.367908046,5.02680248 C0.367908046,0.201288181 4.94650551,-3.7105358 10.5950254,-3.7105358 C16.2421485,-3.7105358 18.7367718,2.28573153 18.7367718,7.11124583" id="Fill-49" fill="#56ACDE" mask="url(#mask-16)"></path>
                        </g>
                        <path d="M227.848722,29.036181 C227.848722,33.8616953 225.354099,35.689076 219.706976,35.689076 C214.058456,35.689076 209.479859,31.777252 209.479859,26.9517377 C209.479859,22.1262234 214.058456,18.2143994 219.706976,18.2143994 C225.354099,18.2143994 227.848722,24.2106667 227.848722,29.036181" id="Fill-52" fill="#094A87"></path>
                        <g id="Group-56" transform="translate(207.214724, 0.000000)">
                            <mask id="mask-18" fill="white">
                                <use xlink:href="#path-17"></use>
                            </mask>
                            <g id="Clip-55"></g>
                            <path d="M18.8261648,7.11124583 C18.8261648,11.9367601 16.3315415,13.7641408 10.6844184,13.7641408 C5.03589851,13.7641408 0.457301041,9.85231678 0.457301041,5.02680248 C0.457301041,0.201288181 5.03589851,-3.7105358 10.6844184,-3.7105358 C16.3315415,-3.7105358 18.8261648,2.28573153 18.8261648,7.11124583" id="Fill-54" fill="#56ACDE" mask="url(#mask-18)"></path>
                        </g>
                        <path d="M246.999076,19.0907877 C246.999076,23.916302 244.504453,25.7436826 238.85733,25.7436826 C233.20881,25.7436826 228.630213,21.8318586 228.630213,17.0063443 C228.630213,12.18083 233.20881,8.26900603 238.85733,8.26900603 C244.504453,8.26900603 246.999076,14.2652734 246.999076,19.0907877" id="Fill-57" fill="#1F6299"></path>
                        <path d="M268.793927,29.036181 C268.793927,33.8616953 266.299303,35.689076 260.65218,35.689076 C255.00366,35.689076 250.425063,31.777252 250.425063,26.9517377 C250.425063,22.1262234 255.00366,18.2143994 260.65218,18.2143994 C266.299303,18.2143994 268.793927,24.2106667 268.793927,29.036181" id="Fill-59" fill="#094A87"></path>
                        <path d="M286.646266,19.0907877 C286.646266,23.916302 284.151643,25.7436826 278.50452,25.7436826 C272.856,25.7436826 268.277403,21.8318586 268.277403,17.0063443 C268.277403,12.18083 272.856,8.26900603 278.50452,8.26900603 C284.151643,8.26900603 286.646266,14.2652734 286.646266,19.0907877" id="Fill-61" fill="#1F6299"></path>
                        <g id="Group-65" transform="translate(248.545422, 0.000000)">
                            <mask id="mask-20" fill="white">
                                <use xlink:href="#path-19"></use>
                            </mask>
                            <g id="Clip-64"></g>
                            <path d="M18.4406706,7.11124583 C18.4406706,11.9367601 15.9460474,13.7641408 10.2989243,13.7641408 C4.65040438,13.7641408 0.0718069097,9.85231678 0.0718069097,5.02680248 C0.0718069097,0.201288181 4.65040438,-3.7105358 10.2989243,-3.7105358 C15.9460474,-3.7105358 18.4406706,2.28573153 18.4406706,7.11124583" id="Fill-63" fill="#56ACDE" mask="url(#mask-20)"></path>
                        </g>
                        <path d="M305.901378,29.036181 C305.901378,33.8616953 303.406755,35.689076 297.759632,35.689076 C292.111112,35.689076 287.532514,31.777252 287.532514,26.9517377 C287.532514,22.1262234 292.111112,18.2143994 297.759632,18.2143994 C303.406755,18.2143994 305.901378,24.2106667 305.901378,29.036181" id="Fill-66" fill="#094A87"></path>
                        <path d="M323.753718,19.0907877 C323.753718,23.916302 321.259094,25.7436826 315.611971,25.7436826 C309.963451,25.7436826 305.384854,21.8318586 305.384854,17.0063443 C305.384854,12.18083 309.963451,8.26900603 315.611971,8.26900603 C321.259094,8.26900603 323.753718,14.2652734 323.753718,19.0907877" id="Fill-68" fill="#1F6299"></path>
                        <g id="Group-72" transform="translate(285.433595, 0.000000)">
                            <mask id="mask-22" fill="white">
                                <use xlink:href="#path-21"></use>
                            </mask>
                            <g id="Clip-71"></g>
                            <path d="M18.6599497,7.11124583 C18.6599497,11.9367601 16.1653264,13.7641408 10.5182033,13.7641408 C4.86968341,13.7641408 0.29108594,9.85231678 0.29108594,5.02680248 C0.29108594,0.201288181 4.86968341,-3.7105358 10.5182033,-3.7105358 C16.1653264,-3.7105358 18.6599497,2.28573153 18.6599497,7.11124583" id="Fill-70" fill="#56ACDE" mask="url(#mask-22)"></path>
                        </g>
                        <g id="Group-75" transform="translate(326.843138, 18.162040)">
                            <mask id="mask-24" fill="white">
                                <use xlink:href="#path-23"></use>
                            </mask>
                            <g id="Clip-74"></g>
                            <path d="M18.7054296,10.8741411 C18.7054296,15.6996554 16.2108063,17.527036 10.5636832,17.527036 C4.91516331,17.527036 0.336565841,13.615212 0.336565841,8.78969774 C0.336565841,3.96418344 4.91516331,0.0523594536 10.5636832,0.0523594536 C16.2108063,0.0523594536 18.7054296,6.04862679 18.7054296,10.8741411" id="Fill-73" fill="#094A87" mask="url(#mask-24)"></path>
                        </g>
                        <g id="Group-78" transform="translate(325.367527, 8.875339)">
                            <mask id="mask-26" fill="white">
                                <use xlink:href="#path-25"></use>
                            </mask>
                            <g id="Clip-77"></g>
                            <path d="M18.3732069,-1.76409291 C18.3732069,3.06142139 15.8785836,4.88880203 10.2314605,4.88880203 C4.5829406,4.88880203 0.00434313366,0.97697804 0.00434313366,-3.84853626 C0.00434313366,-8.67405056 4.5829406,-12.5858745 10.2314605,-12.5858745 C15.8785836,-12.5858745 18.3732069,-6.58960721 18.3732069,-1.76409291" id="Fill-76" fill="#56ACDE" mask="url(#mask-26)"></path>
                        </g>
                        <g id="Group-81" transform="translate(-0.000000, 43.802339)">
                            <mask id="mask-28" fill="white">
                                <use xlink:href="#path-27"></use>
                            </mask>
                            <g id="Clip-80"></g>
                            <path d="M9.20909996,14.3814018 C9.20909996,20.6319377 5.97838125,22.9985912 -1.3378767,22.9985912 C-8.65273788,22.9985912 -14.5834044,17.931382 -14.5834044,11.6808461 C-14.5834044,5.43170731 -8.65273788,0.364498171 -1.3378767,0.364498171 C5.97838125,0.364498171 9.20909996,8.13086586 9.20909996,14.3814018" id="Fill-79" fill="#1F6299" mask="url(#mask-28)"></path>
                        </g>
                        <path d="M37.4395475,71.0656562 C37.4395475,77.3161921 34.2088288,79.6828456 26.8925708,79.6828456 C19.5777097,79.6828456 13.6470431,74.6156364 13.6470431,68.3651005 C13.6470431,62.1159617 19.5777097,57.0487526 26.8925708,57.0487526 C34.2088288,57.0487526 37.4395475,64.8151203 37.4395475,71.0656562" id="Fill-82" fill="#094A87"></path>
                        <path d="M60.5632805,58.1837404 C60.5632805,64.4342763 57.3325618,66.8009298 50.0163039,66.8009298 C42.7014427,66.8009298 36.7707762,61.7337206 36.7707762,55.4831847 C36.7707762,49.2340459 42.7014427,44.1668368 50.0163039,44.1668368 C57.3325618,44.1668368 60.5632805,51.9332045 60.5632805,58.1837404" id="Fill-84" fill="#1F6299"></path>
                        <path d="M35.0978701,42.666792 C35.0978701,48.9173279 31.8671513,51.2839814 24.5508934,51.2839814 C17.2360322,51.2839814 11.3053657,46.2167723 11.3053657,39.9662364 C11.3053657,33.7170975 17.2360322,28.6498884 24.5508934,28.6498884 C31.8671513,28.6498884 35.0978701,36.4162561 35.0978701,42.666792" id="Fill-86" fill="#56ACDE"></path>
                        <path d="M85.5040658,71.0656562 C85.5040658,77.3161921 82.2733471,79.6828456 74.9570892,79.6828456 C67.642228,79.6828456 61.7115615,74.6156364 61.7115615,68.3651005 C61.7115615,62.1159617 67.642228,57.0487526 74.9570892,57.0487526 C82.2733471,57.0487526 85.5040658,64.8151203 85.5040658,71.0656562" id="Fill-88" fill="#094A87"></path>
                        <path d="M108.627799,58.1837404 C108.627799,64.4342763 105.39708,66.8009298 98.0808222,66.8009298 C90.765961,66.8009298 84.8352945,61.7337206 84.8352945,55.4831847 C84.8352945,49.2340459 90.765961,44.1668368 98.0808222,44.1668368 C105.39708,44.1668368 108.627799,51.9332045 108.627799,58.1837404" id="Fill-90" fill="#1F6299"></path>
                        <path d="M83.1623884,42.666792 C83.1623884,48.9173279 79.9316697,51.2839814 72.6154117,51.2839814 C65.3005505,51.2839814 59.369884,46.2167723 59.369884,39.9662364 C59.369884,33.7170975 65.3005505,28.6498884 72.6154117,28.6498884 C79.9316697,28.6498884 83.1623884,36.4162561 83.1623884,42.666792" id="Fill-92" fill="#56ACDE"></path>
                        <path d="M136.858246,71.0656562 C136.858246,77.3161921 133.627528,79.6828456 126.31127,79.6828456 C118.996409,79.6828456 113.065742,74.6156364 113.065742,68.3651005 C113.065742,62.1159617 118.996409,57.0487526 126.31127,57.0487526 C133.627528,57.0487526 136.858246,64.8151203 136.858246,71.0656562" id="Fill-94" fill="#094A87"></path>
                        <path d="M159.981979,58.1837404 C159.981979,64.4342763 156.751261,66.8009298 149.435003,66.8009298 C142.120142,66.8009298 136.189475,61.7337206 136.189475,55.4831847 C136.189475,49.2340459 142.120142,44.1668368 149.435003,44.1668368 C156.751261,44.1668368 159.981979,51.9332045 159.981979,58.1837404" id="Fill-96" fill="#1F6299"></path>
                        <path d="M134.516569,42.666792 C134.516569,48.9173279 131.28585,51.2839814 123.969592,51.2839814 C116.654731,51.2839814 110.724065,46.2167723 110.724065,39.9662364 C110.724065,33.7170975 116.654731,28.6498884 123.969592,28.6498884 C131.28585,28.6498884 134.516569,36.4162561 134.516569,42.666792" id="Fill-98" fill="#56ACDE"></path>
                        <path d="M184.022968,71.0656562 C184.022968,77.3161921 180.79225,79.6828456 173.475992,79.6828456 C166.161131,79.6828456 160.230464,74.6156364 160.230464,68.3651005 C160.230464,62.1159617 166.161131,57.0487526 173.475992,57.0487526 C180.79225,57.0487526 184.022968,64.8151203 184.022968,71.0656562" id="Fill-100" fill="#094A87"></path>
                        <path d="M207.146841,58.1837404 C207.146841,64.4342763 203.916122,66.8009298 196.599864,66.8009298 C189.285003,66.8009298 183.354337,61.7337206 183.354337,55.4831847 C183.354337,49.2340459 189.285003,44.1668368 196.599864,44.1668368 C203.916122,44.1668368 207.146841,51.9332045 207.146841,58.1837404" id="Fill-102" fill="#1F6299"></path>
                        <path d="M181.681431,42.666792 C181.681431,48.9173279 178.450712,51.2839814 171.134454,51.2839814 C163.819593,51.2839814 157.888926,46.2167723 157.888926,39.9662364 C157.888926,33.7170975 163.819593,28.6498884 171.134454,28.6498884 C178.450712,28.6498884 181.681431,36.4162561 181.681431,42.666792" id="Fill-104" fill="#56ACDE"></path>
                        <path d="M235.377149,71.0656562 C235.377149,77.3161921 232.14643,79.6828456 224.830172,79.6828456 C217.515311,79.6828456 211.584645,74.6156364 211.584645,68.3651005 C211.584645,62.1159617 217.515311,57.0487526 224.830172,57.0487526 C232.14643,57.0487526 235.377149,64.8151203 235.377149,71.0656562" id="Fill-106" fill="#094A87"></path>
                        <path d="M258.501022,58.1837404 C258.501022,64.4342763 255.270303,66.8009298 247.954045,66.8009298 C240.639184,66.8009298 234.708517,61.7337206 234.708517,55.4831847 C234.708517,49.2340459 240.639184,44.1668368 247.954045,44.1668368 C255.270303,44.1668368 258.501022,51.9332045 258.501022,58.1837404" id="Fill-108" fill="#1F6299"></path>
                        <path d="M233.035471,42.666792 C233.035471,48.9173279 229.804753,51.2839814 222.488495,51.2839814 C215.173634,51.2839814 209.242967,46.2167723 209.242967,39.9662364 C209.242967,33.7170975 215.173634,28.6498884 222.488495,28.6498884 C229.804753,28.6498884 233.035471,36.4162561 233.035471,42.666792" id="Fill-110" fill="#56ACDE"></path>
                        <path d="M284.341464,71.0656562 C284.341464,77.3161921 281.110745,79.6828456 273.794487,79.6828456 C266.479626,79.6828456 260.548959,74.6156364 260.548959,68.3651005 C260.548959,62.1159617 266.479626,57.0487526 273.794487,57.0487526 C281.110745,57.0487526 284.341464,64.8151203 284.341464,71.0656562" id="Fill-112" fill="#094A87"></path>
                        <path d="M281.999786,42.666792 C281.999786,48.9173279 278.769067,51.2839814 271.452809,51.2839814 C264.137948,51.2839814 258.207282,46.2167723 258.207282,39.9662364 C258.207282,33.7170975 264.137948,28.6498884 271.452809,28.6498884 C278.769067,28.6498884 281.999786,36.4162561 281.999786,42.666792" id="Fill-114" fill="#56ACDE"></path>
                        <path d="M309.146483,58.1837404 C309.146483,64.4342763 305.915765,66.8009298 298.599507,66.8009298 C291.284645,66.8009298 285.353979,61.7337206 285.353979,55.4831847 C285.353979,49.2340459 291.284645,44.1668368 298.599507,44.1668368 C305.915765,44.1668368 309.146483,51.9332045 309.146483,58.1837404" id="Fill-116" fill="#1F6299"></path>
                        <g id="Group-120" transform="translate(313.368906, 56.376059)">
                            <mask id="mask-30" fill="white">
                                <use xlink:href="#path-29"></use>
                            </mask>
                            <g id="Clip-119"></g>
                            <path d="M24.0078856,14.6895976 C24.0078856,20.9401335 20.7771669,23.306787 13.4609089,23.306787 C6.14604777,23.306787 0.215381248,18.2395779 0.215381248,11.989042 C0.215381248,5.73990316 6.14604777,0.672694017 13.4609089,0.672694017 C20.7771669,0.672694017 24.0078856,8.43906171 24.0078856,14.6895976" id="Fill-118" fill="#094A87" mask="url(#mask-30)"></path>
                        </g>
                        <g id="Group-126" transform="translate(310.575374, 28.434459)">
                            <mask id="mask-32" fill="white">
                                <use xlink:href="#path-31"></use>
                            </mask>
                            <g id="Clip-125"></g>
                            <path d="M24.4597393,14.2323333 C24.4597393,20.4828692 21.2290205,22.8495227 13.9127626,22.8495227 C6.59790142,22.8495227 0.667234903,17.7823136 0.667234903,11.5317777 C0.667234903,5.28263888 6.59790142,0.215429735 13.9127626,0.215429735 C21.2290205,0.215429735 24.4597393,7.98179743 24.4597393,14.2323333" id="Fill-124" fill="#56ACDE" mask="url(#mask-32)"></path>
                        </g>
                        <g id="Group-129" transform="translate(0.000000, 99.192680)">
                            <mask id="mask-34" fill="white">
                                <use xlink:href="#path-33"></use>
                            </mask>
                            <g id="Clip-128"></g>
                            <path d="M11.0982254,15.9691521 C11.0982254,22.9419784 7.49317348,25.5824596 -0.668127618,25.5824596 C-8.83082549,25.5824596 -15.4473039,19.9298739 -15.4473039,12.9570477 C-15.4473039,5.98282432 -8.83082549,0.330238665 -0.668127618,0.330238665 C7.49317348,0.330238665 11.0982254,8.99632587 11.0982254,15.9691521" id="Fill-127" fill="#094A87" mask="url(#mask-34)"></path>
                        </g>
                        <path d="M36.8980215,100.789092 C36.8980215,107.761918 33.2929696,110.402399 25.1316685,110.402399 C16.9689706,110.402399 10.3524922,104.749814 10.3524922,97.7769874 C10.3524922,90.8027641 16.9689706,85.1501784 25.1316685,85.1501784 C33.2929696,85.1501784 36.8980215,93.8162656 36.8980215,100.789092" id="Fill-130" fill="#1F6299"></path>
                        <g id="Group-134" transform="translate(-0.000000, 67.552699)">
                            <mask id="mask-36" fill="white">
                                <use xlink:href="#path-35"></use>
                            </mask>
                            <g id="Clip-133"></g>
                            <path d="M8.48557541,15.9236384 C8.48557541,22.8964646 4.88052352,25.5369458 -3.28077758,25.5369458 C-11.4434754,25.5369458 -18.0599538,19.8843601 -18.0599538,12.9115339 C-18.0599538,5.93731056 -11.4434754,0.284724903 -3.28077758,0.284724903 C4.88052352,0.284724903 8.48557541,8.95081211 8.48557541,15.9236384" id="Fill-132" fill="#56ACDE" mask="url(#mask-36)"></path>
                        </g>
                        <path d="M68.3955036,115.161832 C68.3955036,122.134658 64.7904518,124.775139 56.6291507,124.775139 C48.4664528,124.775139 41.8499744,119.122554 41.8499744,112.149727 C41.8499744,105.175504 48.4664528,99.5229183 56.6291507,99.5229183 C64.7904518,99.5229183 68.3955036,108.189005 68.3955036,115.161832" id="Fill-135" fill="#094A87"></path>
                        <path d="M94.1954395,100.789092 C94.1954395,107.761918 90.5903876,110.402399 82.4290865,110.402399 C74.2663886,110.402399 67.6499102,104.749814 67.6499102,97.7769874 C67.6499102,90.8027641 74.2663886,85.1501784 82.4290865,85.1501784 C90.5903876,85.1501784 94.1954395,93.8162656 94.1954395,100.789092" id="Fill-137" fill="#1F6299"></path>
                        <path d="M65.7828537,83.4763369 C65.7828537,90.4491631 62.1778018,93.0896443 54.0165007,93.0896443 C45.8538028,93.0896443 39.2373244,87.4370587 39.2373244,80.4642324 C39.2373244,73.4900091 45.8538028,67.8374234 54.0165007,67.8374234 C62.1778018,67.8374234 65.7828537,76.5035106 65.7828537,83.4763369" id="Fill-139" fill="#56ACDE"></path>
                        <path d="M122.022641,115.161832 C122.022641,122.134658 118.417589,124.775139 110.256288,124.775139 C102.09359,124.775139 95.4771115,119.122554 95.4771115,112.149727 C95.4771115,105.175504 102.09359,99.5229183 110.256288,99.5229183 C118.417589,99.5229183 122.022641,108.189005 122.022641,115.161832" id="Fill-141" fill="#094A87"></path>
                        <path d="M147.822437,100.789092 C147.822437,107.761918 144.217385,110.402399 136.056084,110.402399 C127.893386,110.402399 121.276908,104.749814 121.276908,97.7769874 C121.276908,90.8027641 127.893386,85.1501784 136.056084,85.1501784 C144.217385,85.1501784 147.822437,93.8162656 147.822437,100.789092" id="Fill-143" fill="#1F6299"></path>
                        <path d="M119.409991,83.4763369 C119.409991,90.4491631 115.804939,93.0896443 107.643638,93.0896443 C99.48094,93.0896443 92.8644616,87.4370587 92.8644616,80.4642324 C92.8644616,73.4900091 99.48094,67.8374234 107.643638,67.8374234 C115.804939,67.8374234 119.409991,76.5035106 119.409991,83.4763369" id="Fill-145" fill="#56ACDE"></path>
                        <path d="M179.320059,115.161832 C179.320059,122.134658 175.715007,124.775139 167.553706,124.775139 C159.391008,124.775139 152.774529,119.122554 152.774529,112.149727 C152.774529,105.175504 159.391008,99.5229183 167.553706,99.5229183 C175.715007,99.5229183 179.320059,108.189005 179.320059,115.161832" id="Fill-147" fill="#094A87"></path>
                        <path d="M205.119855,100.789092 C205.119855,107.761918 201.514803,110.402399 193.353502,110.402399 C185.190804,110.402399 178.574326,104.749814 178.574326,97.7769874 C178.574326,90.8027641 185.190804,85.1501784 193.353502,85.1501784 C201.514803,85.1501784 205.119855,93.8162656 205.119855,100.789092" id="Fill-149" fill="#1F6299"></path>
                        <path d="M176.707269,83.4763369 C176.707269,90.4491631 173.102217,93.0896443 164.940916,93.0896443 C156.778218,93.0896443 150.16174,87.4370587 150.16174,80.4642324 C150.16174,73.4900091 156.778218,67.8374234 164.940916,67.8374234 C173.102217,67.8374234 176.707269,76.5035106 176.707269,83.4763369" id="Fill-151" fill="#56ACDE"></path>
                        <path d="M231.943201,115.161832 C231.943201,122.134658 228.338149,124.775139 220.176848,124.775139 C212.01415,124.775139 205.397672,119.122554 205.397672,112.149727 C205.397672,105.175504 212.01415,99.5229183 220.176848,99.5229183 C228.338149,99.5229183 231.943201,108.189005 231.943201,115.161832" id="Fill-153" fill="#094A87"></path>
                        <path d="M257.742997,100.789092 C257.742997,107.761918 254.137945,110.402399 245.976644,110.402399 C237.813946,110.402399 231.197468,104.749814 231.197468,97.7769874 C231.197468,90.8027641 237.813946,85.1501784 245.976644,85.1501784 C254.137945,85.1501784 257.742997,93.8162656 257.742997,100.789092" id="Fill-155" fill="#1F6299"></path>
                        <path d="M229.330551,83.4763369 C229.330551,90.4491631 225.725499,93.0896443 217.564198,93.0896443 C209.4015,93.0896443 202.785022,87.4370587 202.785022,80.4642324 C202.785022,73.4900091 209.4015,67.8374234 217.564198,67.8374234 C225.725499,67.8374234 229.330551,76.5035106 229.330551,83.4763369" id="Fill-157" fill="#56ACDE"></path>
                        <path d="M289.240619,115.161832 C289.240619,122.134658 285.635567,124.775139 277.474266,124.775139 C269.311568,124.775139 262.695089,119.122554 262.695089,112.149727 C262.695089,105.175504 269.311568,99.5229183 277.474266,99.5229183 C285.635567,99.5229183 289.240619,108.189005 289.240619,115.161832" id="Fill-159" fill="#094A87"></path>
                        <path d="M315.040415,100.789092 C315.040415,107.761918 311.435363,110.402399 303.274062,110.402399 C295.111364,110.402399 288.494886,104.749814 288.494886,97.7769874 C288.494886,90.8027641 295.111364,85.1501784 303.274062,85.1501784 C311.435363,85.1501784 315.040415,93.8162656 315.040415,100.789092" id="Fill-161" fill="#1F6299"></path>
                        <path d="M286.627829,83.4763369 C286.627829,90.4491631 283.022777,93.0896443 274.861476,93.0896443 C266.698778,93.0896443 260.0823,87.4370587 260.0823,80.4642324 C260.0823,73.4900091 266.698778,67.8374234 274.861476,67.8374234 C283.022777,67.8374234 286.627829,76.5035106 286.627829,83.4763369" id="Fill-163" fill="#56ACDE"></path>
                        <g id="Group-167" transform="translate(317.065780, 99.192680)">
                            <mask id="mask-38" fill="white">
                                <use xlink:href="#path-37"></use>
                            </mask>
                            <g id="Clip-166"></g>
                            <path d="M26.805692,15.9691521 C26.805692,22.9419784 23.2006401,25.5824596 15.039339,25.5824596 C6.87664117,25.5824596 0.260162766,19.9298739 0.260162766,12.9570477 C0.260162766,5.98282432 6.87664117,0.330238665 15.039339,0.330238665 C23.2006401,0.330238665 26.805692,8.99632587 26.805692,15.9691521" id="Fill-165" fill="#094A87" mask="url(#mask-38)"></path>
                        </g>
                        <g id="Group-170" transform="translate(314.272248, 67.552699)">
                            <mask id="mask-40" fill="white">
                                <use xlink:href="#path-39"></use>
                            </mask>
                            <g id="Clip-169"></g>
                            <path d="M26.9865732,15.9236384 C26.9865732,22.8964646 23.3815213,25.5369458 15.2202202,25.5369458 C7.05752231,25.5369458 0.441043904,19.8843601 0.441043904,12.9115339 C0.441043904,5.93731056 7.05752231,0.284724903 15.2202202,0.284724903 C23.3815213,0.284724903 26.9865732,8.95081211 26.9865732,15.9236384" id="Fill-168" fill="#56ACDE" mask="url(#mask-40)"></path>
                        </g>
                        <g id="Group-173" transform="translate(-0.000000, 88.016040)">
                            <mask id="mask-42" fill="white">
                                <use xlink:href="#path-41"></use>
                            </mask>
                            <g id="Clip-172"></g>
                            <path d="M-330.539733,371.716014 C56.1422382,477.231877 361.204215,423.846657 424.741683,415.51028 C427.079868,415.145642 429.222507,413.512456 430.310587,411.265951 C493.648318,280.376321 556.58378,146.09458 618.84181,8.41933183 C620.99702,3.64690657 618.019116,-0.562495452 613.37068,0.682302823 C383.342949,62.1803671 144.201322,77.4280982 -90.3435487,46.425496 C-171.140849,160.343399 -251.392013,268.774968 -330.539733,371.716014" id="Fill-171" fill="#87868A" mask="url(#mask-42)"></path>
                        </g>
                        <g id="Group-176" transform="translate(-0.000000, 52.184819)">
                            <mask id="mask-44" fill="white">
                                <use xlink:href="#path-43"></use>
                            </mask>
                            <g id="Clip-175"></g>
                            <path d="M-330.539733,381.754204 C-83.8765242,449.248536 173.525018,463.435883 424.701176,424.313452 C427.056123,423.943226 429.22111,422.283495 430.293826,420.011843 C493.684633,286.121284 556.671776,148.834425 618.98009,8.14846907 C621.086413,3.39141169 618.105715,-0.762107137 613.481024,0.472911578 C383.419771,61.9961233 144.240432,77.2522368 -90.3435487,46.2454434 C-171.140849,163.569427 -251.392013,275.407078 -330.539733,381.754204" id="Fill-174" fill="#AFAEB4" mask="url(#mask-44)"></path>
                        </g>
                        <g id="Group-179" transform="translate(0.000000, 92.700138)">
                            <mask id="mask-46" fill="white">
                                <use xlink:href="#path-45"></use>
                            </mask>
                            <g id="Clip-178"></g>
                            <path d="M-271.761325,327.419528 C-49.7524245,380.229152 179.769678,390.408276 404.675469,357.954108 C407.049971,357.610427 409.231719,355.954887 410.294657,353.676249 C463.174804,240.983586 515.793756,125.932651 567.993678,8.52204826 C570.077652,3.84183028 567.07321,-0.368968827 562.445725,0.726341889 C356.460519,49.4327417 144.048795,61.4560122 -65.1098617,36.7989474 C-134.469049,137.705844 -203.470663,234.580768 -271.761325,327.419528" id="Fill-177" fill="#AAEBFD" mask="url(#mask-46)"></path>
                        </g>
                        <g id="Group-192" transform="translate(0.000000, 200.275298)">
                            <g id="Group-182" transform="translate(-0.000000, 3.698381)">
                                <mask id="mask-48" fill="white">
                                    <use xlink:href="#path-47"></use>
                                </mask>
                                <g id="Clip-181"></g>
                                <path d="M-27.8044887,0.243479997 C-13.7614079,1.53857315 0.294243845,2.66741379 14.3610697,3.63279606 C14.8583182,3.66632598 15.2717608,4.09662662 15.2731576,4.59678126 C15.2773479,5.09414174 14.8694923,5.47275042 14.3694503,5.43642634 L14.3610697,5.43642634 C0.295640611,4.33832146 -13.7600111,3.07675823 -27.8044887,1.65033955 C-28.1941863,1.61261839 -28.5126488,1.26195131 -28.5070618,0.874960154 C-28.5070618,0.489366076 -28.1872025,0.209950077 -27.8044887,0.243479997" id="Fill-180" fill="#001D57" mask="url(#mask-48)"></path>
                            </g>
                            <path d="M56.5805432,9.73150041 C70.6613367,10.3937163 84.7477173,10.8910768 98.8382881,11.2235818 C99.5171162,11.2389497 100.068839,11.7963846 100.070235,12.4697772 C100.075822,13.1417727 99.5227033,13.6754572 98.8438752,13.6600894 C98.8424784,13.6614864 98.8396849,13.6614864 98.8382881,13.6600894 C84.7477173,13.2493478 70.6613367,12.6737509 56.5805432,11.9319014 C55.9673631,11.8997686 55.4715114,11.3800548 55.4743049,10.7737221 C55.4757017,10.1673894 55.9701567,9.70216173 56.5805432,9.73150041" id="Fill-183" fill="#001D57"></path>
                            <path d="M141.114191,11.7786417 C155.207555,11.7982008 169.302317,11.6543016 183.394284,11.3441498 C184.148538,11.3273849 184.758924,11.9183497 184.757527,12.6643904 C184.756131,13.4104312 184.152728,14.0279405 183.397078,14.0447055 L183.394284,14.0447055 C169.302317,14.3101507 155.207555,14.4107404 141.114191,14.3478718 C140.399047,14.3436806 139.820786,13.7638924 139.820786,13.0569699 C139.82358,12.3472533 140.400444,11.7744505 141.114191,11.7786417" id="Fill-185" fill="#001D57"></path>
                            <path d="M225.657337,9.95964357 C239.740924,9.3644875 253.818924,8.60447598 267.888543,7.67960902 C268.619052,7.6321083 269.208487,8.17976366 269.20709,8.90484818 C269.208487,9.62993269 268.619052,10.2572216 267.888543,10.3047223 C253.818924,11.2728988 239.740924,12.0776168 225.657337,12.7160824 C224.890513,12.7538036 224.266158,12.1614416 224.264762,11.400033 C224.264762,10.6400215 224.886322,9.99037933 225.653146,9.95964357 L225.657337,9.95964357" id="Fill-187" fill="#001D57"></path>
                            <g id="Group-191" transform="translate(308.685186, -0.000000)">
                                <mask id="mask-50" fill="white">
                                    <use xlink:href="#path-49"></use>
                                </mask>
                                <g id="Clip-190"></g>
                                <path d="M1.38372097,4.41128008 C15.4337856,3.15670225 29.4712794,1.73726897 43.4962023,0.152980259 C44.1554756,0.0803320997 44.6750724,0.548353898 44.6792627,1.19939318 C44.6736756,1.85043245 44.1512853,2.44000021 43.4962023,2.51264837 C29.4712794,4.14164364 15.4337856,5.6043864 1.38372097,6.90367079 C0.689528495,6.96793647 0.12942551,6.46079644 0.12942551,5.77343308 C0.128028745,5.08467264 0.685338199,4.47554576 1.37953068,4.41128008 L1.38372097,4.41128008" id="Fill-189" fill="#001D57" mask="url(#mask-50)"></path>
                            </g>
                        </g>
                        <path d="M147.404385,183.37049 C147.404385,183.37049 148.053881,183.132987 149.273257,182.688715 C150.488443,182.236061 152.270716,181.572448 154.539063,180.727215 C156.807411,179.876393 159.561832,178.842554 162.719919,177.656433 C165.896164,176.503842 169.504009,175.221323 173.597929,174.25594 C177.673691,173.286367 182.295588,172.601798 187.185665,173.128497 C189.635591,173.307323 192.098089,173.917847 194.564777,174.644329 C196.963023,175.409929 199.376634,176.285898 201.81818,177.203779 C204.255536,178.110484 206.681718,179.094028 209.130248,179.630507 C211.574588,180.182354 214.169778,180.176765 216.8376,180.066396 C222.190006,179.859628 227.609456,178.86351 233.333402,178.751744 C236.174423,178.743361 239.014047,178.927776 241.795007,179.311973 C244.577364,179.684993 247.261948,180.221472 249.878089,180.460373 C255.092215,180.971704 260.223932,179.982571 265.028805,178.276737 C266.262149,177.839451 267.333469,177.414738 268.672967,176.980246 C269.899327,176.601638 271.044675,176.141998 272.308747,175.858391 C273.575614,175.580372 274.828512,175.288383 276.061856,175.042497 C277.292407,174.872053 278.506196,174.704403 279.704621,174.538151 C284.509494,174.028216 289.060157,174.024025 293.233692,174.218219 C297.405831,174.461311 301.212017,174.846905 304.55727,175.366619 C307.908111,175.850009 310.805003,176.386487 313.182298,176.872671 C315.560989,177.347679 317.40891,177.818494 318.667396,178.134235 C319.921691,178.468137 320.590742,178.645566 320.590742,178.645566 C320.590742,178.645566 317.874033,178.099308 313.088714,177.40915 C310.697452,177.05988 307.785196,176.689654 304.437149,176.399061 C301.090498,176.080527 297.303867,175.915672 293.186202,175.82067 C289.065744,175.806699 284.607268,175.995305 279.967213,176.607226 C278.816278,176.80142 277.649979,176.998409 276.468315,177.198191 C275.327158,177.479004 274.174826,177.764008 273.00713,178.051807 C271.845021,178.346591 270.6452,178.855128 269.445378,179.244913 C268.364282,179.60536 267.049925,180.147427 265.84731,180.595889 C264.615363,181.070897 263.317768,181.428549 262.039727,181.851864 C260.715593,182.156428 259.413808,182.571361 258.0352,182.761363 C255.318491,183.272695 252.446741,183.4138 249.637846,183.148355 C246.826157,182.903866 244.116432,182.375769 241.433245,182.034882 C238.751455,181.680024 236.059888,181.527742 233.369717,181.54311 C228.018709,181.604581 222.488914,182.569964 216.952135,182.759966 C214.192126,182.868939 211.325964,182.8396 208.558971,182.160619 C205.797566,181.498403 203.337861,180.431034 200.935425,179.493593 C198.538575,178.536594 196.164074,177.652242 193.835665,176.818185 C191.54078,176.073542 189.251481,175.425296 186.955198,175.194778 C182.379394,174.58146 177.94606,175.038305 173.933153,175.817876 C169.916055,176.617006 166.270497,177.674595 163.048159,178.63858 C159.830011,179.643081 157.025306,180.517653 154.715056,181.238546 C152.402012,181.963631 150.569456,182.483345 149.319351,182.832615 C148.070642,183.183282 147.404385,183.37049 147.404385,183.37049" id="Fill-193" fill="#2B73B4"></path>
                        <polygon id="Fill-195" fill="#57ABDD" points="91.3868233 264.534132 53.0442122 284.438331 48.7770935 276.213721 84.8876732 250.992236 90.8951618 256.331875"></polygon>
                        <polygon id="Fill-197" fill="#57ABDD" points="76.3185165 231.592523 34.2423512 248.202407 29.9752324 239.977797 68.225657 218.877698 74.2317488 224.218734"></polygon>
                        <path d="M157.21359,201.966882 C157.21359,201.966882 142.072652,182.655046 156.788973,156.762962 C171.505295,130.869482 195.16371,115.271083 218.710384,117.865461 C218.710384,117.865461 227.381504,121.643165 217.273112,124.459679 C208.115917,127.010747 171.558372,139.686453 171.329303,171.942236" id="Fill-199" fill="#57ABDD"></path>
                        <path d="M187.422975,181.464594 C193.551982,192.948591 209.401081,207.969995 131.32049,245.64086 L103.030401,195.942534 C103.030401,195.942534 172.325336,153.177915 187.422975,181.464594" id="Fill-201" fill="#57ABDD"></path>
                        <path d="M191.042972,190.720668 L194.867316,188.735417 C194.867316,188.735417 198.234918,193.721596 208.974648,187.367676 C219.714379,181.012359 227.438492,178.865047 220.081728,167.192444 C212.724964,155.51984 206.179721,159.437253 191.452225,168.124296 L180.50717,174.584394 L186.210164,190.084997 L191.042972,190.720668 Z" id="Fill-203" fill="#57ABDD"></path>
                        <path d="M211.727813,181.185876 C205.697976,185.351969 207.089155,188.397603 204.556819,186.603753 C202.025879,184.809902 205.147651,183.566501 205.147651,183.566501" id="Fill-205" fill="#001641"></path>
                        <path d="M53.0439329,284.438191 C53.0439329,284.438191 52.2729183,290.56299 52.9992364,297.943763 C53.7269512,305.32314 50.540929,306.356979 42.5123206,288.493914 C42.5123206,288.493914 37.5398353,281.435866 40.3822532,279.471572 C46.5224345,275.22864 48.7279273,276.248508 56.5917173,270.756587" id="Fill-207" fill="#57ABDD"></path>
                        <path d="M34.2419321,248.201848 C34.2419321,248.201848 28.368533,253.70774 26.0010154,254.696873 C23.6334978,255.684608 13.2946392,259.706802 8.35427944,254.349 C8.35427944,254.349 5.5830966,249.772166 12.9412575,246.586823 C20.3008152,243.400084 21.8693829,244.447894 31.5852841,239.088695" id="Fill-209" fill="#57ABDD"></path>
                        <path d="M76.3069234,231.571846 C76.3069234,231.571846 99.9890833,222.513179 106.896089,227.035527 C113.804491,231.557875 107.896173,232.648994 84.87608,250.971699 L91.3752301,264.513595 C91.3752301,264.513595 124.14335,249.476823 136.725414,242.967827 C149.307478,236.458832 123.299704,196.696538 123.299704,196.696538 L104.721325,194.973938 C104.721325,194.973938 72.073327,216.729268 62.904958,221.786698 C53.7351921,226.844127 64.3925133,233.325181 64.3925133,233.325181 L73.6251335,232.630832 L76.3069234,231.571846 Z" id="Fill-211" fill="#57ABDD"></path>
                        <path d="M131.917887,245.056741 C131.917887,245.056741 94.2596907,267.97025 92.4117698,267.85569 C90.5652458,267.742526 82.6162531,248.976948 82.6162531,248.976948 L107.072221,232.70376 C107.072221,232.70376 109.733059,230.250488 107.85441,228.006777 C105.974363,225.763067 89.0274069,231.697862 78.0404491,237.40214 C78.0404491,237.40214 70.7116203,230.475417 66.0534072,218.586267 C66.0534072,218.586267 91.4060987,202.477934 103.029982,195.942394 L124.197963,229.180324 L131.917887,245.056741 Z" id="Fill-213" fill="#FFEE00"></path>
                        <path d="M192.458455,189.959259 C192.458455,189.959259 186.727525,193.671301 181.196334,185.492795 C175.665142,177.314288 180.049589,174.827486 182.590306,173.328419 C185.129626,171.827955 187.330928,176.371259 187.330928,176.371259 L192.458455,189.959259 Z" id="Fill-215" fill="#57ABDD"></path>
                        <path d="M199.950286,167.480382 C199.950286,167.480382 200.387474,170.2466 205.0401,167.997302 C209.691329,165.7494 214.938977,167.329497 216.49218,174.690712 C218.045384,182.050529 219.076197,182.876203 222.461956,180.428519 C225.846319,177.980835 226.818468,174.08857 222.60303,167.245672 C218.387591,160.402775 214.577215,152.736997 204.623863,157.904796 C194.670512,163.071197 188.738449,169.725489 188.738449,169.725489 C188.738449,169.725489 188.070795,171.818315 196.253047,167.403543 C196.253047,167.403543 195.909443,165.138876 199.668139,163.412085 C203.426835,161.685294 203.830501,165.96455 199.950286,167.480382" id="Fill-217" fill="#BC0D22"></path>
                        <path d="M206.838575,153.593407 C205.610818,154.277976 205.168043,155.827338 205.852458,157.056768 C206.536874,158.284801 208.085887,158.726279 209.31504,158.043107 C210.542797,157.358537 210.985572,155.807779 210.301157,154.579745 C209.616742,153.350315 208.066332,152.908838 206.838575,153.593407" id="Fill-219" fill="#BC0D22"></path>
                        <path d="M203.212572,155.612327 C201.984815,156.296896 201.54204,157.846258 202.226455,159.075688 C202.91087,160.303722 204.459883,160.745199 205.689037,160.062027 C206.916794,159.377458 207.359568,157.826699 206.675153,156.598666 C205.990738,155.370632 204.440328,154.927758 203.212572,155.612327" id="Fill-221" fill="#BC0D22"></path>
                        <path d="M210.304928,165.056728 C209.077171,165.741297 208.634396,167.290658 209.318811,168.520089 C210.003227,169.748122 211.55224,170.189599 212.781393,169.506427 C214.00915,168.821858 214.451925,167.271099 213.76751,166.043066 C213.083095,164.815033 211.532685,164.372158 210.304928,165.056728" id="Fill-223" fill="#BC0D22"></path>
                        <path d="M214.261127,167.719841 C213.03337,168.404411 212.590595,169.953772 213.27501,171.183203 C213.959425,172.411236 215.508438,172.852713 216.737592,172.169541 C217.965349,171.484972 218.408124,169.934213 217.723708,168.70618 C217.039293,167.47675 215.488884,167.035272 214.261127,167.719841" id="Fill-225" fill="#BC0D22"></path>
                        <path d="M214.963141,171.490421 C213.735384,172.17499 213.292609,173.724352 213.977025,174.953782 C214.66144,176.181815 216.210453,176.623293 217.439606,175.94012 C218.667363,175.255551 219.110138,173.704792 218.425723,172.476759 C217.741308,171.247329 216.190898,170.805851 214.963141,171.490421" id="Fill-227" fill="#BC0D22"></path>
                        <path d="M217.370746,175.816339 C216.142989,176.500908 215.700214,178.05027 216.384629,179.2797 C217.069044,180.507734 218.618057,180.949211 219.847211,180.266039 C221.074968,179.58147 221.517743,178.030711 220.833328,176.802678 C220.148912,175.573247 218.598503,175.13177 217.370746,175.816339" id="Fill-229" fill="#BC0D22"></path>
                        <path d="M210.586795,152.584016 C208.583833,153.698886 207.864499,156.226204 208.979118,158.229617 C210.093737,160.233029 212.621883,160.952526 214.623448,159.837656 C216.626409,158.722786 217.345744,156.195468 216.231125,154.192056 C215.116506,152.188643 212.589757,151.469147 210.586795,152.584016" id="Fill-231" fill="#BC0D22"></path>
                        <path d="M216.561739,156.326375 C214.558777,157.441244 213.839443,159.968562 214.954062,161.971975 C216.068681,163.975388 218.596827,164.694884 220.598392,163.580014 C222.601353,162.465144 223.320688,159.937826 222.206069,157.934414 C221.09145,155.931001 218.564701,155.211505 216.561739,156.326375" id="Fill-233" fill="#BC0D22"></path>
                        <path d="M221.337281,160.81156 C219.334319,161.92643 218.614985,164.453748 219.729603,166.457161 C220.844222,168.460573 223.372368,169.180069 225.373933,168.0652 C227.376895,166.95033 228.096229,164.423012 226.98161,162.419599 C225.866991,160.416187 223.340242,159.69669 221.337281,160.81156" id="Fill-235" fill="#BC0D22"></path>
                        <path d="M224.501932,166.497676 C222.498971,167.612546 221.779636,170.139863 222.894255,172.143276 C224.008874,174.146689 226.535623,174.866185 228.538585,173.751315 C230.541547,172.636445 231.260881,170.109128 230.146262,168.105715 C229.031643,166.102302 226.504894,165.382806 224.501932,166.497676" id="Fill-237" fill="#BC0D22"></path>
                        <path d="M224.022562,172.274462 C222.019601,173.389332 221.300266,175.916649 222.414885,177.920062 C223.529504,179.923475 226.056253,180.642971 228.059215,179.528101 C230.062177,178.413231 230.781511,175.885914 229.666892,173.882501 C228.552273,171.879088 226.025524,171.159592 224.022562,172.274462" id="Fill-239" fill="#BC0D22"></path>
                        <path d="M219.681694,176.669676 C217.678733,177.784545 216.959398,180.311863 218.074017,182.315276 C219.188636,184.318689 221.715385,185.038185 223.718347,183.923315 C225.721309,182.808445 226.440643,180.281127 225.326024,178.277715 C224.211405,176.274302 221.684656,175.554806 219.681694,176.669676" id="Fill-241" fill="#BC0D22"></path>
                        <path d="M202.329816,191.920061 C204.740633,189.77694 204.828629,184.027956 199.441305,180.961366 C194.05398,177.894775 196.431275,183.854718 198.351827,183.64795 C198.351827,183.64795 197.290286,186.10262 199.092113,186.243725 C199.092113,186.243725 198.72197,189.237668 200.569891,188.757072 C200.569891,188.757072 199.854747,191.397553 201.549024,190.882031 C201.549024,190.882031 201.177484,192.944121 202.329816,191.920061" id="Fill-243" fill="#BC0D22"></path>
                        <path d="M162.312483,180.517234 C162.312483,180.517234 162.277564,205.058341 189.814796,216.390057 C217.352029,227.721773 245.596025,225.43615 262.548569,208.88634 C262.548569,208.88634 267.054534,200.566729 257.356791,204.574951 C248.571136,208.207359 211.964704,220.743358 191.922516,195.474372" id="Fill-245" fill="#57ABDD"></path>
                        <g id="Group-249" transform="translate(-0.000000, 196.084058)">
                            <mask id="mask-52" fill="white">
                                <use xlink:href="#path-51"></use>
                            </mask>
                            <g id="Clip-248"></g>
                            <path d="M265.780684,0.532986018 C238.395699,3.59817953 209.003561,-0.616810818 196.13516,5.88240532 C183.268156,12.3830185 169.786575,0.414234218 144.432487,5.88240532 C113.137955,12.6330959 106.008863,-5.2690872 85.19566,2.55036953 C64.3824566,10.3712233 12.8292369,3.67921017 -6.69894223,26.2155076 C-26.2257246,48.751805 48.7763951,114.353093 48.7763951,114.353093 L113.732977,87.0569442 L107.791136,71.7337709 L160.831911,41.0524971 L278.139266,33.6591498 L265.780684,0.532986018 Z" id="Fill-247" fill="#AAEBFD" mask="url(#mask-52)"></path>
                        </g>
                        <g id="Group-262" transform="translate(8.380593, 265.445199)">
                            <g id="Group-252">
                                <mask id="mask-54" fill="white">
                                    <use xlink:href="#path-53"></use>
                                </mask>
                                <g id="Clip-251"></g>
                                <path d="M-0.0698077542,0.568301096 L35.2145939,0.439769736 C35.7791444,0.437906963 36.2366654,1.15880024 36.2378416,2.05293144 C36.2390177,2.94519986 35.7838489,3.67168146 35.2192985,3.67354423 L35.2134178,3.67354423 L-0.0709839009,3.46305084 C-0.575550845,3.46118807 -0.983673758,2.81108018 -0.981321464,2.01008765 C-0.980145317,1.21468344 -0.572022405,0.570163869 -0.0698077542,0.568301096" id="Fill-250" fill="#001D57" mask="url(#mask-54)"></path>
                            </g>
                            <path d="M70.4992308,0.392827848 L105.783633,0.346258515 C106.40699,0.346258515 106.91391,1.14538827 106.91391,2.13452091 C106.91391,3.12179077 106.409343,3.9227833 105.784809,3.92464607 L105.782456,3.92464607 L70.4980547,3.79797749 C69.9041006,3.79611472 69.4230566,3.03237765 69.4254089,2.09167712 C69.426585,1.15097659 69.9052767,0.390965075 70.4992308,0.392827848" id="Fill-253" fill="#001D57"></path>
                            <path d="M141.067799,0.324650345 L176.352201,0.451318931 C176.967325,0.453181704 177.464835,1.24486037 177.463659,2.21909082 C177.462483,3.19332127 176.966149,3.98127438 176.351024,3.97941161 L141.066623,4.02598094 C140.420918,4.02598094 139.897533,3.19890959 139.896357,2.17624703 C139.896357,1.15544725 140.418566,0.324650345 141.064271,0.324650345 L141.067799,0.324650345 Z" id="Fill-255" fill="#001D57"></path>
                            <path d="M211.636602,0.57705613 L246.921004,0.703724716 C247.476145,0.70558749 247.925433,1.41902967 247.923081,2.29825868 C247.921905,3.17748769 247.474969,3.88720433 246.919828,3.88534156 L211.635426,3.93191089 C211.049705,3.93377366 210.575718,3.18307601 210.575718,2.2554149 C210.574542,1.32961655 211.048529,0.57705613 211.63425,0.57705613 L211.636602,0.57705613 Z" id="Fill-257" fill="#001D57"></path>
                            <g id="Group-261" transform="translate(281.099067, 0.958552)" fill="#001D57">
                                <path d="M1.10633897,0.00726481597 L36.3907406,0.309034095 C36.7765168,0.312759641 37.0870195,0.81012012 37.0858434,1.42110977 C37.0834911,2.02837387 36.7718122,2.51828326 36.3895645,2.52200881 L1.10516282,2.74367883 C0.627647252,2.74554161 0.239518834,2.13641473 0.238342687,1.38012876 C0.235990394,0.62570556 0.620590372,0.0109903626 1.09810594,0.00726481597 L1.10633897,0.00726481597 Z" id="Fill-259"></path>
                            </g>
                        </g>
                        <path d="M32.6384453,206.174049 C32.6384453,206.174049 33.605007,205.834559 35.4180087,205.198887 C37.2254233,204.549245 39.8750876,203.596437 43.2482764,202.382374 C46.6186717,201.152944 50.7097979,199.659465 55.4029302,197.948042 C60.1170139,196.285517 65.4708163,194.435783 71.5202079,193.06385 C77.5430609,191.689124 84.3383253,190.748889 91.5037326,191.527062 C92.394869,191.629049 93.2985763,191.707286 94.1994901,191.833023 C95.09342,192.007658 95.992937,192.18369 96.8980411,192.359722 L98.2612843,192.626564 L99.6049727,193.003776 C100.503093,193.259442 101.405404,193.517901 102.313301,193.777758 C105.852705,194.916379 109.41306,196.233825 113.013922,197.607155 C116.614784,198.965116 120.212852,200.450212 123.918471,201.284269 C127.618503,202.143473 131.535033,202.150459 135.508831,201.974427 C143.485759,201.65729 151.535319,200.173591 159.920103,200.004544 C164.093638,199.994764 168.262983,200.271386 172.356903,200.839998 C176.450823,201.391844 180.433002,202.190974 184.356516,202.555612 C188.278634,202.942603 192.171419,202.787527 195.973415,202.132297 C197.886984,201.898984 199.741888,201.327579 201.607967,200.928014 C203.43773,200.342637 205.281461,199.864836 207.06094,199.204017 C207.952076,198.875703 208.839022,198.548787 209.721778,198.223267 L211.044515,197.737083 L212.444074,197.260679 C214.252886,196.69067 215.96113,195.996321 217.811844,195.578594 C219.663955,195.170647 221.493718,194.737552 223.301133,194.371517 C225.111341,194.115852 226.899201,193.86298 228.663316,193.6143 C235.73933,192.855686 242.452185,192.792817 248.623096,193.019144 C254.789816,193.325104 260.422971,193.846215 265.377298,194.567109 C270.33861,195.237707 274.63506,195.99213 278.1591,196.679494 C281.684536,197.354283 284.42918,198.00672 286.298053,198.455182 C288.159941,198.925998 289.154438,199.176075 289.154438,199.176075 C289.154438,199.176075 285.144324,198.308489 278.065517,197.214575 C274.526113,196.665523 270.217091,196.077352 265.257177,195.600948 C260.301452,195.081234 254.687852,194.785053 248.575606,194.590859 C242.460566,194.509828 235.831517,194.730567 228.918924,195.635875 C227.202299,195.919482 225.463326,196.20728 223.702005,196.497873 C221.98957,196.9156 220.258978,197.336121 218.507434,197.763628 C217.633058,197.935468 216.757286,198.3029 215.875927,198.599081 C214.993172,198.902248 214.104829,199.206811 213.212295,199.512772 L211.930065,199.957043 L210.582186,200.46558 C209.681272,200.805071 208.776168,201.147355 207.866874,201.48964 C206.051078,202.1784 204.143097,202.693923 202.261654,203.308638 C200.318753,203.74313 198.405184,204.345271 196.389651,204.612114 C192.410266,205.33161 188.235334,205.529995 184.124653,205.152784 C180.008385,204.80072 175.999668,204.022546 172.000728,203.519597 C168.003185,202.992898 163.977707,202.769365 159.957815,202.79591 C151.941778,202.882529 143.773493,204.306153 135.620572,204.574393 C131.555985,204.72388 127.381052,204.694541 123.365351,203.73335 C119.353841,202.790321 115.715267,201.238166 112.143737,199.864836 C108.583382,198.460771 105.049565,197.172663 101.586983,195.940438 C100.723782,195.672199 99.8647711,195.405357 99.0099506,195.139911 L97.7305134,194.747332 L96.4315214,194.462328 C95.5683203,194.272325 94.7093095,194.083719 93.8572825,193.89651 C92.9954782,193.755405 92.1322771,193.661801 91.2788533,193.543049 C84.4221312,192.632153 77.8042561,193.380988 71.8484478,194.596447 C65.8828621,195.837054 60.4927439,197.45627 55.7311701,198.928792 C50.9779769,200.459992 46.8351703,201.794203 43.4242688,202.893705 C40.0077803,203.994604 37.3092293,204.806308 35.464102,205.342787 C33.6217682,205.884854 32.6384453,206.174049 32.6384453,206.174049" id="Fill-276" fill="#2B73B4"></path>
                        <g id="Group-280" transform="translate(0.000000, 210.959079)">
                            <mask id="mask-56" fill="white">
                                <use xlink:href="#path-55"></use>
                            </mask>
                            <g id="Clip-279"></g>
                            <path d="M-37.9057575,10.633983 C-37.9057575,10.633983 -37.2548647,10.3978765 -36.0368852,9.952208 C-34.8216991,9.49955409 -33.0394263,8.83594109 -30.771079,7.99070769 C-28.5027318,7.13988597 -25.7483101,6.10604678 -22.5888265,4.91992586 C-19.4139784,3.76733487 -15.8047362,2.48481543 -11.7122131,1.51943316 C-7.63645126,0.54985964 -3.01455406,-0.133312478 1.87691889,0.39338668 C4.3254489,0.57081584 6.78794656,1.1813398 9.25463452,1.90782139 C11.652881,2.67342123 14.0678886,3.54939039 16.508038,4.46727194 C18.9453939,5.37397686 21.3715757,6.35752118 23.8201057,6.8939999 C26.2644454,7.44584649 28.8610325,7.44025817 31.527458,7.32988885 C36.8812603,7.12312101 42.3007106,6.12700298 48.0232591,6.01523658 C50.8642802,6.0068541 53.7053013,6.19266574 56.4862616,6.57546566 C59.2672218,6.94848601 61.9518051,7.48496473 64.567947,7.72386541 C69.7820728,8.23519669 74.9137894,7.24606405 79.7186629,5.54022938 C80.9520069,5.10434042 82.0233261,4.67823102 83.364221,4.24513623 C84.5891844,3.86652755 85.7345321,3.40549115 87.0000017,3.12188391 C88.2654713,2.84526207 89.51837,2.55187527 90.751714,2.30598919 C91.9822644,2.13554543 93.1974505,1.96789583 94.3958753,1.80164331 C99.199352,1.29170912 103.750014,1.28891496 107.924946,1.481712 C112.097085,1.72480392 115.901874,2.11179507 119.247128,2.63011175 C122.597969,3.11350143 125.496257,3.65137723 127.872155,4.13616399 C130.250847,4.61117118 132.098768,5.08198714 133.357254,5.3991243 C134.611549,5.73162934 135.2806,5.91045558 135.2806,5.91045558 C135.2806,5.91045558 132.563891,5.36280022 127.778572,4.6726427 C125.387309,4.32337271 122.475053,3.95454359 119.127006,3.66395095 C115.780356,3.34401963 111.993724,3.18056127 107.87606,3.08555983 C103.755601,3.07019195 99.2985224,3.25879775 94.6570705,3.87211587 C93.5061357,4.06630999 92.3398364,4.26190119 91.1581728,4.46168362 C90.0184121,4.7424967 88.8646837,5.02750102 87.6983845,5.3152995 C86.5348788,5.61008338 85.336454,6.1186205 84.1352356,6.50840582 C83.0541391,6.86885246 81.7411794,7.41091949 80.5371675,7.86077925 C79.3052203,8.33438937 78.0076251,8.69204185 76.7295846,9.11675417 C75.4054509,9.41992053 74.1036654,9.83485328 72.7250578,10.0248562 C70.0083488,10.5361874 67.1365989,10.6772925 64.3291001,10.4118473 C61.5160143,10.1673583 58.8062891,9.63926208 56.1231025,9.29837457 C53.4413127,8.94351625 50.7497454,8.79123453 48.059575,8.80660241 C42.7085662,8.86807393 37.1787714,9.8334562 31.6419927,10.0234591 C28.881984,10.1324313 26.0158211,10.1030926 23.2488286,9.42550885 C20.4874231,8.76189585 18.0277189,7.69452673 15.6252822,6.75708606 C13.2298293,5.80008626 10.8539311,4.91573462 8.5255229,4.08167787 C6.23203387,3.33703423 3.94133837,2.68878911 1.64505581,2.45827091 C-2.93074813,1.84495279 -7.36408198,2.30179795 -11.3755926,3.08136859 C-15.3940871,3.88049835 -19.0382484,4.9380879 -22.2619833,5.9020731 C-25.4801312,6.90657362 -28.2848364,7.78114569 -30.5950866,8.50343605 C-32.9081303,9.22852057 -34.7406867,9.74683724 -35.9893951,10.0961072 C-37.2395003,10.4467743 -37.9057575,10.633983 -37.9057575,10.633983" id="Fill-278" fill="#2B73B4" mask="url(#mask-56)"></path>
                        </g>
                    </g>
                    <g opacity="0.297866138" style="mix-blend-mode: overlay;" transform="translate(0.235581, 0.586776)">
                        <g id="Group-3" transform="translate(291.464524, 0.270451)">
                            <mask id="mask-58" fill="white">
                                <use xlink:href="#path-57"></use>
                            </mask>
                            <g id="Clip-2"></g>
                            <path id="Fill-1" fill="#002F51" mask="url(#mask-58)"></path>
                        </g>
                        <g id="Group-6" transform="translate(0.000000, 0.270451)">
                            <mask id="mask-60" fill="white">
                                <use xlink:href="#path-59"></use>
                            </mask>
                            <g id="Clip-5"></g>
                            <path d="M291.823238,0.28081248 L25.5476246,0.28081248 C11.4374019,0.28081248 0.000455413315,11.7293924 0.000455413315,25.8520931 L0.000455413315,315.061302 C0.112790699,294.377889 6.72387404,-0.793394022 291.823238,0.28081248" id="Fill-4" fill="#FFFFFF" style="mix-blend-mode: overlay;" mask="url(#mask-60)"></path>
                        </g>
                    </g>
                </g>
                <g id="Page-1" filter="url(#filter-61)" transform="translate(147.331789, 330.351008) rotate(13.000000) translate(-147.331789, -330.351008) translate(60.662163, 244.723454)">
                    <g id="Group-3" transform="translate(-0.000000, 0.478066)">
                        <mask id="mask-63" fill="white">
                            <use xlink:href="#path-62"></use>
                        </mask>
                        <g id="Clip-2"></g>
                        <path d="M12.3312641,0.257567064 L160.753826,0.257567064 C167.564351,0.257567064 173.08531,5.7994512 173.08531,12.63579 L173.08531,157.519102 C173.08531,164.355441 167.564351,169.897325 160.753826,169.897325 L12.3312641,169.897325 C5.52073869,169.897325 -0.000219812545,164.355441 -0.000219812545,157.519102 L-0.000219812545,12.63579 C-0.000219812545,5.7994512 5.52073869,0.257567064 12.3312641,0.257567064" id="Fill-1" fill="#EDEFF1" mask="url(#mask-63)"></path>
                    </g>
                    <path d="M166.594025,2.21131106 C168.793616,4.44718734 170.154256,7.51636883 170.154256,10.9069575 L170.154256,155.791005 C170.154256,162.627344 164.633297,168.168493 157.823505,168.168493 L9.40021036,168.168493 C7.28707906,168.168493 5.29924091,167.633795 3.56052366,166.693108 C5.79601727,168.965023 8.89903775,170.374949 12.3310443,170.374949 L160.754339,170.374949 C167.564131,170.374949 173.08509,164.833801 173.08509,157.997462 L173.08509,13.1134144 C173.08509,8.39895157 170.45833,4.30156119 166.594025,2.21131106" id="Fill-4" fill="#C3C5CB"></path>
                    <path d="M2.93083398,160.93911 L2.93083398,16.0557982 C2.93083398,9.21945933 8.45179248,3.67757519 15.2623179,3.67757519 L163.68488,3.67757519 C166.340948,3.67757519 168.795521,4.52926754 170.808271,5.96346449 C168.574243,2.80381828 164.90777,0.735632716 160.754046,0.735632716 L12.331484,0.735632716 C5.5209585,0.735632716 -1.67594808e-12,6.27751685 -1.67594808e-12,13.1138557 L-1.67594808e-12,157.997168 C-1.67594808e-12,162.166636 2.06037629,165.847006 5.20809198,168.089501 C3.77931041,166.069122 2.93083398,163.605246 2.93083398,160.93911" id="Fill-6" fill="#FFFFFF"></path>
                    <path d="M81.7831636,148.464465 C79.5286196,146.907442 77.5034133,145.024599 75.7068121,142.905665 C73.9043492,140.777905 72.3861772,138.426557 71.1493653,135.934732 C69.9110879,133.439965 69.0384321,131.151134 68.5343286,129.096187 C68.0272944,127.039769 67.9401021,125.1481 68.2808115,123.363812 C68.5086838,121.677343 69.2670371,120.549108 70.5602676,119.815094 C71.8483692,119.081079 73.3108553,118.539762 74.945528,118.143335 C76.5765371,117.76456 78.51968,117.633643 80.7690951,117.716018 C83.0170447,117.800599 85.100135,118.038896 87.0132369,118.573594 C89.2626519,119.473828 91.3164339,120.716064 93.1731172,122.416506 C95.0268697,124.114743 96.4908212,125.995379 97.5591102,128.061359 C98.6252011,130.122925 99.4451019,132.41764 100.007089,134.914614 C100.566146,137.414529 100.680448,139.807799 100.345601,142.023818 C99.8905887,144.209681 99.1073233,146.182253 97.981883,147.906967 C96.8549774,149.624326 95.4489098,150.773154 93.7629475,151.340949 C92.0769853,151.90286 90.1814684,151.975673 88.1108342,151.534382 C86.0270112,151.092355 83.9168108,150.054585 81.7831636,148.464465" id="Fill-8" fill="#FFFFFF"></path>
                    <path d="M93.0391781,99.8850516 C92.757818,104.092029 92.4757252,108.269588 92.1943652,112.418462 C85.277597,111.621931 78.3586307,110.630496 71.4403971,107.9548 C70.7648398,99.762961 70.0892826,91.7123354 69.4144581,83.8021875 C87.0741982,81.2007749 96.3268411,68.7673905 97.1731194,60.3269576 C98.0201304,49.9007134 87.414175,49.997062 66.710031,54.1702074 C67.4412741,46.6616348 68.8495398,43.4424142 69.5815156,35.5558019 C84.5448885,31.1399463 96.8082306,23.2437727 106.370076,23.0687271 C119.313372,22.2641058 125.552385,34.1120436 125.101769,48.6136136 C124.311177,67.3692324 117.677234,81.1213425 105.188218,92.0558072 C102.039769,94.6836973 97.9937529,97.4049941 93.0391781,99.8850516" id="Fill-10" fill="#FFFFFF"></path>
                    <path d="M76.3211882,146.683266 C74.0666441,145.126243 72.0414378,143.2434 70.2448366,141.124466 C68.4423737,138.996706 66.9242017,136.645358 65.6873898,134.153533 C64.4491124,131.658766 63.5764566,129.369935 63.0723532,127.314988 C62.5653189,125.25857 62.4781266,123.366901 62.818836,121.582613 C63.0467084,119.896144 63.8050617,118.767909 65.0982922,118.033895 C66.3863937,117.29988 67.8488798,116.758563 69.4835525,116.362136 C71.1145616,115.983361 73.0577045,115.852444 75.3071196,115.934819 C77.5550693,116.0194 79.6381595,116.257697 81.5512614,116.792395 C83.8006765,117.692629 85.8544584,118.934865 87.7111417,120.635307 C89.5648942,122.333544 91.0288458,124.21418 92.0971348,126.280159 C93.1632256,128.341726 93.9831264,130.636441 94.5451138,133.133414 C95.1041704,135.63333 95.2184729,138.0266 94.8836252,140.242618 C94.4286132,142.428482 93.6453478,144.401054 92.5199076,146.125768 C91.3930019,147.843127 89.9869343,148.991955 88.300972,149.55975 C86.6150098,150.121661 84.7194929,150.194474 82.6488587,149.753183 C80.5650358,149.311156 78.4548353,148.273386 76.3211882,146.683266" id="Fill-12" fill="#1976D1"></path>
                    <path d="M73.4209081,144.313017 C71.6184452,142.184521 70.1002732,139.833909 68.8634613,137.342084 C67.6259167,134.847317 66.7525281,132.558485 66.2484247,130.503539 C65.7413904,128.447121 65.6541981,126.554716 65.9949075,124.771164 C66.2227799,123.084695 66.9811332,121.95646 68.2750964,121.222445 C69.5631979,120.487695 71.0256841,119.947113 72.6603567,119.550687 C74.2906331,119.171912 76.2345088,119.040995 78.4831911,119.12337 C80.7311408,119.20795 82.814231,119.446248 84.7273329,119.98021 C86.6917244,120.766444 88.4788004,121.875557 90.1442468,123.260476 C89.4247271,122.34259 88.618015,121.465891 87.7116546,120.635528 C85.8542386,118.935085 83.8004567,117.692115 81.5510416,116.79188 C79.6379397,116.257918 77.5548495,116.01962 75.3068998,115.935039 C73.0582174,115.852665 71.1143418,115.983581 69.4840654,116.362357 C67.8493927,116.758783 66.3869066,117.299365 65.0988051,118.03338 C63.8048419,118.76813 63.0464886,119.896365 62.8186162,121.582833 C62.4779068,123.366386 62.5650991,125.258791 63.0721334,127.315208 C63.5762368,129.36942 64.4496253,131.658986 65.68717,134.153754 C66.9239819,136.645579 68.4421539,138.996191 70.2446168,141.124686 C71.2865283,142.353683 72.4280881,143.473092 73.6238684,144.525572 C73.5608555,144.450552 73.4846538,144.388772 73.4209081,144.313017" id="Fill-14" fill="#004597"></path>
                    <path d="M88.8071271,96.1454014 C88.525767,100.352379 88.2436742,104.529937 87.9623142,108.678812 C81.045546,107.882281 74.1265797,106.890846 67.2083461,104.21515 C66.5327888,96.0233108 65.8572316,87.9726852 65.1824071,80.0618019 C82.8421472,77.4611247 92.0947901,65.0277403 92.9410684,56.5873074 C93.7880794,46.1610632 83.860612,50.7387257 63.1557354,54.9118711 C63.8869785,47.4032985 64.6174888,39.702764 65.3494646,31.8161517 C80.3128375,27.4002961 92.5761796,19.5041225 102.138025,19.3290769 C115.081321,18.5244556 121.320334,30.3723935 120.869718,44.8739634 C120.079126,63.6295822 113.445916,77.3816923 100.956167,88.316157 C97.8077182,90.9440471 93.7617019,93.6653439 88.8071271,96.1454014" id="Fill-16" fill="#1976D1"></path>
                    <path d="M68.5261223,35.0047761 C83.4887625,30.5889204 95.7521045,22.6927468 105.314683,22.5177013 C109.544609,22.2543974 113.044758,23.3627742 115.843704,25.4537598 C112.722366,21.3482791 108.167117,18.9542734 102.138392,19.3293711 C92.5758132,19.5044167 80.3124711,27.4005903 65.349831,31.8164459 C64.6178552,39.7030582 63.8873448,47.4028572 63.1561018,54.9114298 C64.3804576,54.6650422 65.560851,54.4171835 66.7097379,54.1700603 C67.3149552,47.9007809 67.9194397,41.532211 68.5261223,35.0047761" id="Fill-18" fill="#004597"></path>
                    <path d="M68.3585519,83.2505733 C86.018292,80.6491607 95.2716676,68.2157763 96.1172132,59.7760788 C96.4227526,56.0111279 97.0763286,48.5606586 87.2910067,50.22874 C93.9439998,49.9889717 93.036174,55.4153846 92.9409219,56.5877487 C92.0953763,65.0274461 82.8420007,77.4608305 65.1822606,80.0622432 C65.8570851,87.972391 66.533375,96.0237521 67.2081995,104.214855 C68.2068812,104.60025 69.2040975,104.883412 70.2020464,105.204084 C69.5880367,97.7749433 68.9725616,90.4465646 68.3585519,83.2505733" id="Fill-20" fill="#004597"></path>
                </g>
            </g>
        </g>
    </g>
</svg>