<?xml version="1.0" encoding="UTF-8" standalone="no"?>
<svg width="525px" height="474px" viewBox="0 0 525 474" version="1.1" xmlns="http://www.w3.org/2000/svg" xmlns:xlink="http://www.w3.org/1999/xlink">
    <!-- Generator: sketchtool 3.7.2 (28276) - http://www.bohemiancoding.com/sketch -->
    <title>117712F4-E3D1-42BF-B78E-447BB972B946</title>
    <desc>Created with sketchtool.</desc>
    <defs>
        <filter x="-50%" y="-50%" width="200%" height="200%" filterUnits="objectBoundingBox" id="filter-1">
            <feOffset dx="10" dy="10" in="SourceAlpha" result="shadowOffsetOuter1"></feOffset>
            <feGaussianBlur stdDeviation="30" in="shadowOffsetOuter1" result="shadowBlurOuter1"></feGaussianBlur>
            <feColorMatrix values="0 0 0 0 0   0 0 0 0 0   0 0 0 0 0  0 0 0 0.645521966 0" type="matrix" in="shadowBlurOuter1" result="shadowMatrixOuter1"></feColorMatrix>
            <feMerge>
                <feMergeNode in="shadowMatrixOuter1"></feMergeNode>
                <feMergeNode in="SourceGraphic"></feMergeNode>
            </feMerge>
        </filter>
        <path d="M8.33773333,0.179126602 L5.60733333,4.97576238 C3.69333333,5.28441431 1.86333333,5.58773316 0.128,5.88971874 L2.85866667,1.09261449 C4.594,0.790628911 6.424,0.487976697 8.338,0.178658135 L8.33773333,5.89011872 L0.127733333,5.89011872 L0.127733333,0.178391481 L8.33773333,0.178391481 L8.33773333,0.179126602 L8.33773333,0.179126602 Z" id="path-2"></path>
        <path d="M0.570066667,6.23691837 L3.30066667,1.43993124 C4.902,1.15061172 6.528,0.810627956 8.192,0.425979658 L8.19206667,6.23710215 L0.570066667,6.23710215 L0.570066667,6.23691837 Z" id="path-4"></path>
        <path d="M0.365533333,6.50533802 L3.096,1.70925171 C3.87733333,1.52326059 5.554,1.11927988 8.13133333,0.498642854 L5.40066667,5.29508047 C2.82266667,5.91705077 1.146,6.32036484 0.365333333,6.50568932 L0.365533333,0.498309537 L8.13153333,0.498309537 L8.13153333,6.50602264 L0.365533333,6.50602264 L0.365533333,6.50533802 L0.365533333,6.50533802 Z" id="path-6"></path>
        <path d="M4.59131405,51.4133448 C4.33931449,48.7994739 3.96998755,44.9637243 3.482,39.9260933 C3.14333333,36.0396123 2.804,32.1597976 2.466,28.2859825 C1.622,18.1524665 0.985333333,10.5254974 0.559333333,5.36107732 L3.29,0.563973068 C3.71533333,5.72905974 4.35333333,13.3560289 5.19666667,23.4895449 C5.53466667,27.3626933 5.874,31.242508 6.21266667,35.1283225 C6.70066667,40.1667485 7.07066667,44.0025653 7.322,46.6164405 L4.59133333,51.4135448 L0.559066667,51.4133448 L0.559066667,0.563773077 L7.3224,0.563773077 L7.3224,51.4133448 L4.59131405,51.4133448 L4.59131405,51.4133448 Z" id="path-8"></path>
        <path d="M0.4614,7.22553784 L3.192,2.42921733 C5.03887765,1.45550408 6.36667814,0.762305665 7.1774,0.341628368 L7.1774,0.342370828 L7.178,0.341317034 C7.17780003,0.341420796 7.17760003,0.341524574 7.1774,0.341628368 L0.4614,7.22553784 Z" id="path-10"></path>
        <path d="M2.77933333,1.36126833 L0.0493333333,6.15770594 C1.10266667,5.87638604 2.32133333,5.54973498 3.69866667,5.17241966 L6.42933333,0.375982045 C5.052,0.75329736 3.83333333,1.07928179 2.77933333,1.36126833 L2.77933333,1.36126833 Z" id="path-12"></path>
        <path d="M2.88792739,0.331445079 L0.157666667,5.12850273 L0.157666667,5.1290874 C1.23815505,5.1259451 1.9920438,6.0492346 2.418,7.89828949 L5.14833333,3.10177082 L5.14833333,3.09973854 C4.72582849,1.26665291 3.98190215,0.343888422 2.91524897,0.331445079 L2.88792739,0.331445079 L2.88792739,0.331445079 Z" id="path-14"></path>
        <path d="M0.418113841,7.23145467 L3.14866667,2.43455041 C4.496,1.76591567 5.844,1.09728093 7.192,0.429312832 L4.46133333,5.22575045 C3.114,5.89505182 1.76533333,6.56301992 0.418,7.23165466 L0.4174,7.23145467 L0.4174,0.429112841 L7.19206667,0.429112841 L7.19206667,7.23145467 L0.418113841,7.23145467 L0.418113841,7.23145467 Z" id="path-16"></path>
        <path d="M0.358866667,7.84527399 L3.08933333,3.04852109 C4.09077575,1.3327007 5.31234629,0.423534898 6.8822409,0.331650829 L6.88781029,0.331650829 C6.88607978,0.331427396 6.88416008,0.331538502 6.8822409,0.331650829 L0.358866667,7.84527399 Z" id="path-18"></path>
        <path d="M0.0654666667,6.67944672 C0.323359515,6.2262106 0.399314956,5.76564392 0.292666667,5.29708037 L3.02333333,0.499976124 C3.13,0.967953776 3.05466667,1.42859844 2.796,1.88257677 L0.0654666667,6.67944678 L0.0654666667,6.67944674 L0.0654666667,6.67944672 Z" id="path-20"></path>
        <path d="M7.7394554,0.174029189 C7.69626953,0.174186755 7.65287965,0.17484089 7.608,0.175991596 C6.5,0.204656893 4.94333333,0.499976124 2.93133333,1.04395015 L0.200666667,5.84038776 C2.21266667,5.29708037 3.76933333,5.00109451 4.87733333,4.97309585 C4.92866667,4.97176258 4.97933333,4.97109594 5.02933333,4.97042931 C6.53933333,4.9664295 7.402,5.52173631 7.626,6.63035004 L10.3566667,1.83324579 C10.1343935,0.733875712 9.28544631,0.179270079 7.79799505,0.174029189 L7.7394554,0.174029189 L7.7394554,0.174029189 Z" id="path-22"></path>
        <path d="M0.0931817992,18.8512446 C0.118684444,14.9100686 1.60753869,10.3843248 4.55466667,5.16308677 L7.28533333,0.366649158 C3.764,6.60568455 2.32466667,11.8521007 2.976,16.2945552 L0.245333333,21.0916594 L0.0931817992,21.0915928 L0.0931817992,19.0567636 C0.0977118584,19.7532156 0.14841629,20.431285 0.24532355,21.0915928 L0.0931817992,18.8512446 Z" id="path-24"></path>
        <path d="M3.39912279,9.95839111 C1.53966861,8.96906292 0.485962163,7.35129374 0.245333333,5.09242348 L2.976,0.295319231 L6.13126667,0.295519221 L6.13126667,5.16120397 L3.40026566,9.95839111 L3.39912279,9.95839111 L3.39912279,9.95839111 Z" id="path-26"></path>
        <path d="M0.0673333333,5.29124289 L2.798,0.494643045 C3.63733333,1.11528007 4.72866667,1.42259873 6.08333333,1.41926556 C6.16133333,1.41926556 6.24066667,1.41793229 6.32,1.41593238 C7.422,1.38726709 8.95866667,1.04061697 10.9313333,0.377315315 L8.20066667,5.17375293 C6.228,5.83838786 4.69133333,6.18437134 3.58933333,6.21237 C3.53450414,6.21421291 3.47967494,6.21541898 3.4252859,6.21620828 L3.20912939,6.21620828 C1.92104486,6.19802729 0.877364772,5.8898613 0.0673333333,5.29290534 L0.0673333333,5.29124289 L0.0673333333,5.29124289 Z" id="path-28"></path>
        <path d="M0.5914,9.41476663 L3.322,4.61844612 C7.37733333,3.43583592 11.116,2.44388329 14.5393333,1.66858698 C17.9373333,0.924622512 21.034,0.459978034 23.8466667,0.275320186 L21.116,5.0717578 C18.3026667,5.25708228 15.2066667,5.72172676 11.8086667,6.46569123 C8.38533333,7.24098754 4.64666667,8.23227354 0.591333333,9.41488373 L0.5914,0.274853541 L23.8467333,0.274853541 L23.8467333,9.41508372 L0.5914,9.41508372 L0.5914,9.41476663 Z" id="path-30"></path>
        <path d="M2.74533333,7.09632778 L0.0146666667,11.8927654 C2.694,9.9961893 4.77933333,7.73563059 6.27066667,5.11642233 L9.00133333,0.319984719 C7.51066667,2.93852634 5.42466667,5.19975169 2.74533333,7.09632778 L2.74533333,7.09632778 Z" id="path-32"></path>
        <path d="M0.574933333,5.66126109 L3.30533333,0.863958742 C5.57,2.02257008 7.73133333,2.62454133 9.88933333,2.62520797 C12.136,2.61920825 14.2,1.89057638 16.0786667,0.429979467 L13.348,5.22641708 C11.4889204,6.67259191 9.44978545,7.39988421 7.23124041,7.42184557 L7.0580461,7.42184557 C7.09158734,7.42214625 7.12512741,7.42230186 7.15866667,7.42231222 C7.18287921,7.42224037 7.20707046,7.42208483 7.23124041,7.42184557 L0.574933333,5.66126109 Z" id="path-34"></path>
        <path d="M0.434066667,4.92898083 L3.16466667,0.131993697 C3.592,3.48583354 4.026,6.85300607 4.45933333,10.2201786 L1.72866667,15.0166162 C1.29533333,11.6494437 0.861333333,8.28293779 0.434,4.92909795 L0.434066667,0.131527052 L4.4594,0.131527052 L4.4594,15.0168162 L0.434066667,15.0168162 L0.434066667,4.92898083 L0.434066667,4.92898083 Z" id="path-36"></path>
        <path d="M12.0716132,0.0966706521 C8.73151537,0.106159044 5.7485342,0.37547137 3.126,0.887290961 L0.395333333,5.68372858 C3.01866667,5.17241966 6.00266667,4.90309919 9.34333333,4.8937663 C10.2826667,4.89109976 11.2506667,4.9090989 12.2466667,4.94843036 L14.9778667,0.150893681 L14.9778667,5.68399523 L0.3952,5.68399523 L0.3952,0.0966706524 L12.0716093,0.0966706524 L12.0716132,0.0966706521 Z M12.3098474,0.0966706523 C12.2987832,0.0966649179 12.287723,0.0966620506 12.2766667,0.0966620506 L12.0746667,0.0966620506 C12.0736488,0.0966648936 12.072631,0.0966677608 12.0716132,0.0966706521 L12.3098474,0.0966706523 Z" id="path-38"></path>
        <path d="M12.1857723,0.323717874 L9.45533333,5.12108878 C5.29666667,5.67706223 2.33333333,6.07770976 0.56,6.3483635 L3.29066667,1.55192589 C5.06424173,1.2806705 8.02591406,0.88014991 12.1830117,0.323717874 L12.1857723,0.323717874 L12.1857723,0.323717874 Z" id="path-40"></path>
        <path d="M0.425733333,6.82430488 L3.15666667,2.02790316 C4.256,1.84724512 5.654,1.59059071 7.35666667,1.23127453 C9.18915155,0.827920806 10.3763109,0.59004431 10.9121725,0.518308582 L10.9144,0.518308582 L8.18333333,5.31574615 C7.64933333,5.38640944 6.46133333,5.62373144 4.626,6.02771215 C2.92438021,6.3868074 1.52705256,6.6440329 0.427362662,6.82467409 L0.425733333,6.82467409 L0.425733333,6.82430488 Z" id="path-42"></path>
        <path d="M0.425328068,15.4910602 C0.334663389,12.0472914 0.249998258,8.60352259 0.16,5.16575331 L2.89,0.369315697 C2.98124444,3.80313945 3.06516981,7.24361658 3.1564,10.6841002 L3.1564,10.6946243 C3.15657777,10.690804 3.15648888,10.6874521 3.1564,10.6841002 L0.425328068,15.4910602 Z" id="path-44"></path>
        <path d="M0.571636909,6.38449511 L3.302,1.58792417 C5.39305053,1.26531654 7.48476754,0.942708914 9.57581825,0.614104007 L9.57646667,6.38449511 L0.574790087,6.38449511 C2.6649719,6.06202235 4.75581855,5.74021109 6.84533333,5.41107493 L9.57666667,0.61397068 C9.57638386,0.614015123 9.57610106,0.614059565 9.57581825,0.614104007 L0.571636909,6.38449511 Z" id="path-46"></path>
        <path d="M0.1792,5.41314676 C0.804355556,7.84167727 1.42951111,10.2768701 2.05466667,12.7180593 L4.78466667,7.92095507 C4.1600114,5.47911624 3.53468949,3.0432769 2.91003419,0.614103654 L4.7852,0.614104007 L4.7852,12.7181926 L0.1792,12.7181926 L0.1792,5.41314676 L0.1792,5.41314676 Z M0.1792,5.41013822 L0.178666667,5.41107493 C0.178844444,5.41176554 0.179022222,5.41245615 0.1792,5.41314676 L0.1792,5.41013822 Z" id="path-48"></path>
        <path d="M2.78466667,3.25451125 L0.0546666667,8.0516155 C3.22066667,7.11832673 6.39333333,6.16637219 9.55933333,5.20175159 L12.2893333,0.404647343 C9.124,1.36926794 5.95133333,2.32122248 2.78466667,3.25451125 L2.78466667,3.25451125 Z" id="path-50"></path>
        <path d="M3.05166207,0.16603974 C3.04512331,0.166007963 3.03856928,0.165992073 3.032,0.165992073 L3.02133333,0.165992073 L2.99733333,0.165992073 L0.266666667,4.96376296 C0.274,4.96309632 0.282,4.96309632 0.29,4.96309632 C1.384,4.95976315 2.05733333,5.39507569 2.30933333,6.26170098 L5.04,1.46459673 C4.79018513,0.606520323 4.12740582,0.171267702 3.05166207,0.16603974 L5.04033333,0.16603974 L5.04033333,6.26176764 L0.266333333,6.26176764 L0.266333333,0.16603974 L3.05166207,0.16603974 L3.05166207,0.16603974 Z" id="path-52"></path>
        <path d="M0.524666667,7.15315457 C0.998140621,6.32166697 1.14791934,5.57809545 0.976,4.92843131 L3.70647693,0.131660379 L3.70675484,0.131660379 C3.87861538,0.781550366 3.72858576,1.52540282 3.25533333,2.3578874 L0.524666667,7.1531543 L0.524666667,7.15315481 L0.524666667,7.15315457 Z" id="path-54"></path>
        <path d="M6.99713333,0.166343472 L4.26666667,4.96376296 C3.29866667,4.99776133 2.04066667,5.25441574 0.492666667,5.72705984 L3.22333333,0.92995559 C4.76905759,0.4582095 6.02455451,0.201633131 6.99181271,0.166192064 L6.99713333,0.166192064 L6.99713333,0.166343472 Z" id="path-56"></path>
        <path d="M0.478,5.12508859 L0.478533333,5.12415165 L0.478533333,0.328117664 L3.2091999,0.328117664 C6.61635604,1.18003379 10.0288444,2.04394878 13.436,2.93319326 L10.706,7.73029751 C7.29817767,6.84105301 3.88502257,5.97713799 0.478532812,5.12522184 L0.478533333,7.73043084 L13.4365333,7.73043084 L13.4365333,0.328117664 L3.2091999,0.328117664 L0.478,5.12508859 Z" id="path-58"></path>
        <path d="M0.238037947,9.57014298 L2.96866667,4.7731054 C4.75533333,3.33850724 6.138,1.75591615 7.116,0.0373315506 L4.38533333,4.8344358 C3.40666667,6.5530204 2.02466667,8.13627812 0.238,9.57020965 L0.237666667,0.0372648871 L7.11633333,0.0372648871 L7.11633333,9.57014298 L0.238037947,9.57014298 L0.238037947,9.57014298 Z" id="path-60"></path>
        <path d="M2.91468473,0.518174256 C3.82667863,10.5629622 4.7326727,20.6584138 5.646,30.8038623 L2.91533333,35.6009666 C2.002,25.4554511 1.09533333,15.3599332 0.183333333,5.31574615 L0.1834,35.6011666 L5.64606667,35.6011666 L5.64606667,0.518175255 L2.91468473,0.518175255 L2.91468473,0.518174256 Z" id="path-62"></path>
        <path d="M13.1944011,0.257121055 L10.464,5.0544253 C7.05466667,5.92505039 3.652,6.77034335 0.248666667,7.60230362 L2.97933333,2.80519937 C6.38205862,1.97272123 9.7847839,1.12758155 13.1928397,0.257121055 L13.1944011,0.257121055 L13.1944011,0.257121055 Z" id="path-64"></path>
        <path d="M0.280066667,5.36229347 L3.01066667,0.565306337 C6.57866667,5.34107827 10.148,10.2315114 13.7186667,15.2292727 L10.988,20.026377 C7.41666667,15.0286156 3.848,10.1381825 0.28,5.36241059 L0.280066667,0.565306337 L13.7187333,0.565306337 L13.7187333,20.026377 L0.280066667,20.026377 L0.280066667,5.36229347 L0.280066667,5.36229347 Z" id="path-66"></path>
        <path d="M3.972,41.9653293 C2.69266667,23.5328762 1.43866667,11.2741283 0.203333333,5.07909078 L2.93333333,0.281986534 C4.16933333,6.47635739 5.42333333,18.7357719 6.70266667,37.168225 L3.97203795,41.9652626 L0.203066667,41.9652626 L0.203066667,0.28191987 L6.70306667,0.28191987 L6.70306667,41.9652626 L3.97203795,41.9652626 L3.972,41.9653293 Z" id="path-68"></path>
        <path d="M0.64009509,7.29991806 C0.639618949,7.30005139 0.639142808,7.30018472 0.638666667,7.30031804 L3.36933333,2.50321379 C6.19988901,1.70994945 9.03711082,0.90468662 11.8670004,0.0740941756 L11.867,0.0745818261 L11.8673333,0.0739964663 L0.64009509,7.29991806 Z" id="path-70"></path>
        <path d="M0.00630353388,6.47782399 L2.73666667,1.68058641 C4.19651068,1.27798199 5.65568818,0.862714215 7.1148656,0.446778664 L7.11525744,0.446778664 L4.38466667,5.24374959 C2.92531018,5.65954637 1.46728586,6.07467711 0.00793055242,6.47782399 L0.00630353388,6.47782399 L0.00630353388,6.47782399 Z" id="path-72"></path>
        <path d="M7.40318157,0.347583401 L4.67266667,5.14508763 C3.22466667,5.50307054 1.78333333,5.85572036 0.336,6.20770355 L3.06666667,1.4105993 C4.5136413,1.05870335 5.95461891,0.706141083 7.40225675,0.347583401 L7.40318157,0.347583401 L7.40318157,0.347583401 Z" id="path-74"></path>
        <path d="M6.39993333,35.4090928 L3.66933333,40.20608 C2.506,28.4973058 1.34266667,16.877194 0.181333333,5.33241202 L2.91266667,0.53530777 C4.07333333,12.0794232 5.23666667,23.7002015 6.4,35.4089757 L6.39993333,40.20608 L0.181266667,40.20608 L0.181266667,0.53530777 L6.39993333,0.53530777 L6.39993333,35.4090928 L6.39993333,35.4090928 Z" id="path-76"></path>
        <path d="M0.523133333,26.7780876 C0.759374458,17.3417535 0.790552674,10.1869993 0.617333333,5.35374433 L3.348,0.557306719 C3.41746615,2.48789438 3.45409895,4.78898177 3.45802567,7.458151 L3.45802567,8.43560957 C3.45258904,12.2540651 3.38446785,16.7777641 3.254,22.0002827 L0.523133333,26.7959008 L0.523133333,26.7780876 L0.523133333,26.7780876 Z" id="path-78"></path>
        <path d="M8.904,38.5321599 L11.6346667,33.7350557 C9.87733333,24.3448374 6.92333333,13.0653761 2.796,0.287986247 L0.0654,5.08497338 L0.0654,38.5320266 L8.90397506,38.5320266 L8.904,38.5321599 Z" id="path-80"></path>
        <path d="M15.1326,0.100778948 L12.4013333,4.89776611 C8.35133333,5.47240533 4.29466667,6.01571272 0.237333333,6.53368799 L2.968,1.73658374 C7.02533333,1.21860847 11.082,0.675967719 15.1326667,0.10066186 L15.1326,6.53375465 L0.237266667,6.53375465 L0.237266667,0.100728523 L15.1326,0.100728523 L15.1326,0.100778948 Z" id="path-82"></path>
        <path d="M7.34259079,0.242121771 L4.61266667,5.03909269 C3.14533333,5.39840887 1.68466667,5.74372571 0.224666667,6.08970919 L2.95533333,1.29260494 C4.41515242,0.947330886 5.875638,0.600723895 7.34212144,0.242121771 L7.34259079,0.242121771 L7.34259079,0.242121771 Z" id="path-84"></path>
        <path d="M3.89128296,36.967768 C2.73529993,26.2591039 1.58531667,15.6324336 0.438,5.08242396 L3.16866667,0.285319708 C4.31666667,10.8354826 5.466,21.4616418 6.62266667,32.1704637 L6.6224,36.967768 L3.89128296,36.967768 L3.89128296,36.967768 Z" id="path-86"></path>
        <path d="M3.63880261,0.516665186 C3.38730086,0.517488456 3.12992902,0.526160593 2.86733333,0.543974023 L0.136666667,5.34174491 C0.402,5.32374577 0.662,5.31374624 0.916,5.31307961 C2.35866667,5.30974644 3.612,5.58240008 4.676,6.13904017 C6.11333333,6.87567166 7.03333333,8.05694858 7.438,9.68287093 L10.1684667,4.88611803 L10.1684667,4.88496197 C9.76436287,3.25945456 8.84376298,2.07844587 7.40733333,1.34193592 C6.35695604,0.792238193 5.12189462,0.51955344 3.70214906,0.516665186 L3.63880261,0.516665186 L3.63880261,0.516665186 Z" id="path-88"></path>
        <path d="M0.554704132,10.3827717 C1.56000722,8.61621045 1.85066154,6.81498554 1.438,5.01642711 L4.16866667,0.21932286 C4.58133333,2.01857027 4.29066667,3.81915095 3.28533333,5.58573326 L0.554666667,10.3828375 L0.554666667,0.219256196 L4.34997442,0.219256196 L4.34997442,10.3827708 L0.554704132,10.3827708 L0.554704132,10.3827717 Z" id="path-90"></path>
        <path d="M3.046,5.18175255 L0.315333333,9.9788568 C2.25866667,8.56225778 3.74066667,6.94566831 4.76133333,5.15242062 L7.492,0.355316365 C6.47133333,2.1492307 4.98933333,3.7644869 3.046,5.18175255 L3.046,5.18175255 Z" id="path-92"></path>
        <path d="M0.138733333,7.39086325 L2.86933333,2.5932095 C3.346,2.60987537 3.816,2.61654171 4.27933333,2.61587508 C8.40066667,2.60387565 12.024,1.90857552 15.1486667,0.488643332 L15.1487333,7.41273319 L0.138733333,7.41273319 L0.138733333,7.39086325 L0.138733333,7.39086325 Z" id="path-94"></path>
        <path d="M4.03061815,35.3832436 C3.01330122,26.997113 2.00331719,18.6809765 0.988,10.4161692 C0.604,7.44164463 0.384,5.77105774 0.328,5.39174252 L3.0585149,0.594238289 L3.05870596,0.594238289 C3.05869285,0.594149334 3.05867976,0.594060449 3.05866667,0.593971635 L4.03061815,35.3832436 Z" id="path-96"></path>
    </defs>
    <g id="GdS-md" stroke="none" stroke-width="1" fill="none" fill-rule="evenodd">
        <g id="01--game_01" transform="translate(-392.000000, -97.000000)">
            <g id="logo" filter="url(#filter-1)" transform="translate(392.000000, 97.000000)">
                <polygon id="Fill-1" fill="#FFCB00" points="384.9874 298.114369 362.238733 363.686571 465.514067 356.544912 431.454733 325.981039 456.174733 281.839813"></polygon>
                <polygon id="Fill-2" fill="#1E120F" opacity="0.1" points="384.987533 298.114436 423.181533 289.382186 398.3902 363.685971 407.260867 310.664503"></polygon>
                <polygon id="Fill-4" fill="#FFCB00" points="40 325.981239 69.14 356.837765 49.0973333 389.028228 145.048667 370.072466 109.800667 316.553022"></polygon>
                <polygon id="Fill-5" fill="#1E120F" opacity="0.1" points="97.3039333 379.504816 80.7032667 333.026369 109.8006 316.553822 69.1399333 322.04556"></polygon>
                <polygon id="Fill-7" fill="#FF790B" points="407.260867 310.664637 372.676867 291.177567 349.055533 321.389458"></polygon>
                <polygon id="Fill-8" fill="#FF790B" points="80.7032 333.026102 120.202533 310.664503 133.872533 341.298374"></polygon>
                <g id="Group-21" transform="translate(73.333333, 42.419313)">
                    <path d="M42.7373333,59.4614271 L36.9633333,69.5216134 C20.4193333,98.3215714 11.6773333,131.161336 11.6773333,164.487745 C11.6773333,257.449972 78.0426667,336.560194 169.478667,352.592095 L172.184,353.068073 L174.888667,352.592095 C266.324667,336.560194 332.69,257.449972 332.69,164.487745 C332.69,131.139338 323.952,98.3002391 307.424,69.5196135 L301.645333,59.4574273 L290.332,62.0506368 C281.888,63.9905442 273.279333,64.9731639 264.748667,64.9731639 C233.892667,64.9731639 204.999333,52.8144112 183.39,30.7361322 L172.199333,19.3013449 L161.002667,30.7321324 C139.381333,52.8144112 110.478667,64.9731639 79.6186667,64.9731639 C71.092,64.9731639 62.4913333,63.9925441 54.0473333,62.0546366 L42.7373333,59.4614271 L42.7373333,59.4614271 Z" id="Fill-9" fill="#FFFFFF"></path>
                    <path d="M288.932267,81.7080981 C279.9556,83.769333 270.620933,84.8946126 261.016267,84.8946126 C226.2056,84.8946126 194.760267,70.5746297 172.1956,47.5217306 C149.620933,70.5726298 118.1636,84.8946126 83.3516,84.8946126 C73.7542667,84.8946126 64.4269333,83.7713329 55.4529333,81.7120979 C41.3002667,106.354254 33.1856,134.905558 33.1856,165.36277 C33.1856,248.305476 93.2069333,317.226184 172.1836,331.075523 C251.162267,317.226184 311.182267,248.305476 311.182267,165.36277 C311.182267,134.907558 303.082267,106.350255 288.932267,81.7080981" id="Fill-11" fill="#2287E4"></path>
                    <path d="M288.932267,81.7080981 C279.9556,83.769333 270.620933,84.8946126 261.016267,84.8946126 C226.2056,84.8946126 194.760267,70.5746297 172.1956,47.5217306 C168.952267,50.8335725 165.504933,53.9420907 161.9116,56.8759506 C176.378267,110.241402 173.0076,262.552795 170.644933,330.770204 C171.1596,330.8642 171.666933,330.983527 172.1836,331.075523 C251.162267,317.226184 311.182267,248.305476 311.182267,165.36277 C311.182267,134.907558 303.082267,106.350255 288.932267,81.7080981" id="Fill-13" fill="#1976D1"></path>
                    <polygon id="Fill-15" fill="#FFFFFF" points="148.800667 265.425991 195.570667 265.425991 195.570667 125.126691 148.800667 125.126691"></polygon>
                    <polygon id="Fill-17" fill="#FFFFFF" points="102.030667 218.658225 242.336667 218.658225 242.336667 171.894458 102.030667 171.894458"></polygon>
                    <path d="M47.9597333,64.5719164 L42.4164,74.2274553 C26.5417333,101.866135 18.1524,133.38063 18.1524,165.363103 C18.1524,254.574843 81.8404,330.494551 169.5884,345.880483 L172.183733,346.336461 L174.779067,345.880483 C262.527067,330.494551 326.215067,254.574843 326.215067,165.363103 C326.215067,133.359298 317.829067,101.844803 301.9684,74.2254554 L296.423067,64.5679166 L285.567733,67.0577977 C277.461733,68.9190421 269.201733,69.8623304 261.015733,69.8623304 C231.4044,69.8623304 203.6764,58.1928877 182.937733,37.0052328 L172.197733,26.0324235 L161.453067,37.0032329 C140.705067,58.1928877 112.9664,69.8623304 83.3510667,69.8623304 C75.1697333,69.8623304 66.9150667,68.921042 58.8130667,67.0617975 L47.9597333,64.5719164 Z M172.183733,364.64892 L166.4724,363.648967 C70.0764,346.743775 0.113066667,263.35309 0.113066667,165.363103 C0.113066667,130.233447 9.3304,95.6124341 26.7730667,65.2432177 L38.9697333,44.0048986 L62.8457333,49.4813037 C69.6264,51.0352295 76.5257333,51.8238585 83.3510667,51.8238585 C108.077067,51.8238585 131.237067,42.0783239 148.563733,24.3825023 L172.199733,0.246988205 L195.831067,24.388502 C213.145733,42.0803238 236.2964,51.8238585 261.015733,51.8238585 C267.845067,51.8238585 274.747067,51.0352295 281.533067,49.4773039 L305.411733,43.9968989 L317.611733,65.2412178 C335.0404,95.5891019 344.2544,130.212115 344.2544,165.363103 C344.2544,263.35309 274.289067,346.743775 177.895067,363.648967 L172.183733,364.64892 Z" id="Fill-18" fill="#2287E4"></path>
                    <polygon id="Fill-19" fill="#FFB400" points="25.111 340.278417 7.36966667 290.606789 333.927667 268.24519 321.875667 340.278417"></polygon>
                    <polygon id="Fill-20" fill="#FFCB00" points="7.36986667 290.606789 17.2565333 318.288134 327.091867 309.103906 333.927867 268.24519"></polygon>
                </g>
                <g id="Group-24" transform="translate(345.333333, 333.738735)">
                    <mask id="mask-3" fill="white">
                        <use xlink:href="#path-2"></use>
                    </mask>
                    <g id="Clip-23"></g>
                    <path d="M8.33773333,0.178391481 L5.60706667,4.97549573 C3.69373333,5.28481429 1.86306667,5.58746651 0.127733333,5.89011872 L2.8584,1.09301447 C4.59373333,0.790362257 6.4244,0.487710043 8.33773333,0.178391481" id="Fill-22" fill="#FFB400" mask="url(#mask-3)"></path>
                </g>
                <g id="Group-27" transform="translate(340.000000, 334.405370)">
                    <mask id="mask-5" fill="white">
                        <use xlink:href="#path-4"></use>
                    </mask>
                    <g id="Clip-26"></g>
                    <path d="M8.19206667,0.426046321 L5.4614,5.22315057 C3.7974,5.60779887 2.1714,5.94778263 0.570066667,6.23710215 L3.30073333,1.4399979 C4.90206667,1.15067838 6.52806667,0.810694619 8.19206667,0.426046321" id="Fill-25" fill="#FFB400" mask="url(#mask-5)"></path>
                </g>
                <g id="Group-30" transform="translate(344.666667, 349.071336)">
                    <mask id="mask-7" fill="white">
                        <use xlink:href="#path-6"></use>
                    </mask>
                    <g id="Clip-29"></g>
                    <path d="M8.13153333,0.498309537 L5.40086667,5.29541379 C2.82286667,5.91671745 1.1462,6.32003152 0.365533333,6.50602264 L3.0962,1.70891839 C3.87686667,1.52292727 5.55353333,1.1196132 8.13153333,0.498309537" id="Fill-28" fill="#FFB400" mask="url(#mask-7)"></path>
                </g>
                <g id="Group-33" transform="translate(329.333333, 325.739117)">
                    <mask id="mask-9" fill="white">
                        <use xlink:href="#path-8"></use>
                    </mask>
                    <g id="Clip-32"></g>
                    <path d="M7.3224,46.6162405 L4.59173333,51.4133448 C4.33973333,48.7994696 3.96973333,44.9636528 3.48173333,39.9258934 C3.14306667,36.0394123 2.8044,32.1595976 2.46573333,28.2864492 C1.6224,18.1529331 0.985066667,10.525964 0.559066667,5.36087733 L3.28973333,0.563773077 C3.71573333,5.72885975 4.35306667,13.3558289 5.1964,23.4893449 C5.53506667,27.3624933 5.87373333,31.242308 6.2124,35.1287891 C6.70106667,40.1665485 7.0704,44.0023654 7.3224,46.6162405" id="Fill-31" fill="#FFB400" mask="url(#mask-9)"></path>
                </g>
                <g id="Group-36" transform="translate(323.333333, 337.071909)">
                    <mask id="mask-11" fill="white">
                        <use xlink:href="#path-10"></use>
                    </mask>
                    <g id="Clip-35"></g>
                    <path d="M7.1774,0.341317034 L4.44673333,5.13842128 C3.63673333,5.55840123 2.30873333,6.25236809 0.4614,7.22632158 L3.19206667,2.42921733 C5.0394,1.45526384 6.3674,0.761296978 7.1774,0.341317034" id="Fill-34" fill="#FFB400" mask="url(#mask-11)"></path>
                </g>
                <g id="Group-39" transform="translate(341.333333, 350.404606)">
                    <mask id="mask-13" fill="white">
                        <use xlink:href="#path-12"></use>
                    </mask>
                    <g id="Clip-38"></g>
                    <path d="M6.42933333,0.375648728 L3.69866667,5.17275298 C2.32133333,5.55006829 1.10266667,5.87671936 0.0486666667,6.15803926 L2.77933333,1.36093501 C3.83333333,1.07961511 5.052,0.752964043 6.42933333,0.375648728" id="Fill-37" fill="#FFB400" mask="url(#mask-13)"></path>
                </g>
                <g id="Group-42" transform="translate(317.333333, 338.405179)">
                    <mask id="mask-15" fill="white">
                        <use xlink:href="#path-14"></use>
                    </mask>
                    <g id="Clip-41"></g>
                    <path d="M5.14833333,3.10131856 L2.41766667,7.89842281 C1.99166667,6.04917779 1.23833333,5.12588855 0.157666667,5.12855509 L2.88833333,0.331450838 C3.969,0.328784299 4.723,1.25207354 5.14833333,3.10131856" id="Fill-40" fill="#FFB400" mask="url(#mask-15)"></path>
                </g>
                <g id="Group-45" transform="translate(319.333333, 339.071813)">
                    <mask id="mask-17" fill="white">
                        <use xlink:href="#path-16"></use>
                    </mask>
                    <g id="Clip-44"></g>
                    <path d="M7.19206667,0.429112841 L4.4614,5.22621709 C3.1134,5.89485183 1.7654,6.56348656 0.4174,7.23145467 L3.14806667,2.43435042 C4.49606667,1.76638231 5.84406667,1.09774758 7.19206667,0.429112841" id="Fill-43" fill="#FFB400" mask="url(#mask-17)"></path>
                </g>
                <g id="Group-48" transform="translate(313.333333, 338.405179)">
                    <mask id="mask-19" fill="white">
                        <use xlink:href="#path-18"></use>
                    </mask>
                    <g id="Clip-47"></g>
                    <path d="M6.8882,0.331650829 L4.15753333,5.12875508 C2.58486667,5.21875078 1.36153333,6.12737406 0.358866667,7.84595865 L3.08953333,3.0488544 C4.0922,1.33026981 5.31553333,0.421646531 6.8882,0.331650829" id="Fill-46" fill="#FFB400" mask="url(#mask-19)"></path>
                </g>
                <g id="Group-51" transform="translate(322.000000, 355.737684)">
                    <mask id="mask-21" fill="white">
                        <use xlink:href="#path-20"></use>
                    </mask>
                    <g id="Clip-50"></g>
                    <path d="M2.79613333,1.8825101 L0.0654666667,6.67961435 C0.323466667,6.22630267 0.399466667,5.76499136 0.2928,5.29701371 L3.02346667,0.49990946 C3.13013333,0.967887112 3.05413333,1.42919842 2.79613333,1.8825101" id="Fill-49" fill="#FFB400" mask="url(#mask-21)"></path>
                </g>
                <g id="Group-54" transform="translate(314.666667, 354.404415)">
                    <mask id="mask-23" fill="white">
                        <use xlink:href="#path-22"></use>
                    </mask>
                    <g id="Clip-53"></g>
                    <path d="M10.357,1.83331245 L7.62633333,6.6304167 C7.40166667,5.52180298 6.53966667,4.96649616 5.029,4.9711626 C4.979,4.9711626 4.929,4.97182924 4.87766667,4.97316251 C3.76966667,5.00182781 2.213,5.29714704 0.200333333,5.84112106 L2.931,1.04401681 C4.94366667,0.500042787 6.50033333,0.204723557 7.60833333,0.176058259 C7.65966667,0.174724989 7.70966667,0.174058355 7.75966667,0.174058355 C9.27033333,0.169391911 10.1323333,0.724698726 10.357,1.83331245" id="Fill-52" fill="#FFB400" mask="url(#mask-23)"></path>
                </g>
                <g id="Group-57" transform="translate(303.333333, 334.405370)">
                    <mask id="mask-25" fill="white">
                        <use xlink:href="#path-24"></use>
                    </mask>
                    <g id="Clip-56"></g>
                    <path d="M2.97633333,16.2944885 L0.245666667,21.0915928 C-0.406333333,16.6491383 1.033,11.4033888 4.555,5.16368674 L7.28566667,0.366582494 C3.76366667,6.60628452 2.32433333,11.852034 2.97633333,16.2944885" id="Fill-55" fill="#FFB400" mask="url(#mask-25)"></path>
                </g>
                <g id="Group-60" transform="translate(303.333333, 350.404606)">
                    <mask id="mask-27" fill="white">
                        <use xlink:href="#path-26"></use>
                    </mask>
                    <g id="Clip-59"></g>
                    <path d="M6.13126667,5.16128686 L3.4006,9.95839111 C1.53993333,8.96977165 0.485933333,7.35184892 0.245266667,5.09262347 L2.9766,0.295519221 C3.2166,2.55474467 4.2706,4.1726674 6.13126667,5.16128686" id="Fill-58" fill="#FFB400" mask="url(#mask-27)"></path>
                </g>
                <g id="Group-63" transform="translate(306.666667, 355.071049)">
                    <mask id="mask-29" fill="white">
                        <use xlink:href="#path-28"></use>
                    </mask>
                    <g id="Clip-62"></g>
                    <path d="M10.9313333,0.377115324 L8.20066667,5.17421957 C6.228,5.83818787 4.69133333,6.18417134 3.58933333,6.21283664 C3.51,6.21483655 3.43066667,6.21616982 3.35266667,6.21616982 C1.998,6.22016963 0.906666667,5.91218433 0.0673333333,5.29221394 L2.798,0.49510969 C3.63733333,1.11508008 4.72866667,1.42306538 6.08333333,1.41906557 C6.16133333,1.41906557 6.24066667,1.4177323 6.32066667,1.41573239 C7.422,1.38706709 8.95933333,1.04108362 10.9313333,0.377115324" id="Fill-61" fill="#FFB400" mask="url(#mask-29)"></path>
                </g>
                <path d="M351.470933,321.875568 C351.854267,323.86214 352.2376,325.855378 352.6276,327.848616 C352.972933,329.867186 353.3256,331.892423 353.670933,333.916993 C351.7576,334.226312 349.926933,334.528964 348.192267,334.831616 C346.528267,335.216264 344.9016,335.556248 343.300267,335.845568 C343.2956,337.384161 343.304267,338.491441 343.332267,339.175409 C343.3596,340.264023 343.386933,341.346638 343.408267,342.435919 C344.734933,342.109268 346.062267,341.775951 347.388933,341.4493 C348.676933,341.053319 349.964933,340.657338 351.246267,340.261357 C351.4896,341.785951 351.726933,343.317877 351.970267,344.849138 C352.246267,346.418396 352.522267,347.993654 352.798267,349.569579 C350.220267,350.190882 348.5436,350.594197 347.762933,350.780188 C346.3856,351.157503 345.166933,351.484154 344.112933,351.765474 C344.2296,353.790711 344.3456,355.816614 344.462267,357.84185 C346.266267,357.476535 348.076933,357.116552 349.8816,356.750569 C351.6156,356.385253 353.3436,356.025937 355.0776,355.659955 C355.4296,357.697191 355.7756,359.741093 356.128267,361.791662 C356.480933,363.860896 356.8276,365.936131 357.180267,368.012031 C354.366933,368.197356 351.270933,368.661334 347.872267,369.405298 C344.4496,370.181261 340.710267,371.172547 336.6556,372.355157 C336.404267,369.741282 336.034267,365.906132 335.546267,360.867706 C335.206933,356.981892 334.868267,353.10141 334.5296,349.228262 C333.686933,339.094746 333.048933,331.467777 332.622933,326.30269 C335.772933,325.566058 338.922933,324.829427 342.072267,324.092129 C345.2096,323.355497 348.340267,322.618866 351.470933,321.875568" id="Fill-64" fill="#FFFFFF"></path>
                <g id="Group-68" transform="translate(333.333333, 367.737111)">
                    <mask id="mask-31" fill="white">
                        <use xlink:href="#path-30"></use>
                    </mask>
                    <g id="Clip-67"></g>
                    <path d="M23.8467333,0.274853541 L21.1160667,5.07195779 C18.3027333,5.25728227 15.2067333,5.72126012 11.8087333,6.46522459 C8.3854,7.24118753 4.64673333,8.23314016 0.5914,9.41508372 L3.32206667,4.61797947 C7.3774,3.43603591 11.1160667,2.44408328 14.5394,1.66812034 C17.9374,0.924155867 21.0334,0.460178024 23.8467333,0.274853541" id="Fill-66" fill="#FFB400" mask="url(#mask-31)"></path>
                </g>
                <g id="Group-71" transform="translate(322.000000, 363.070667)">
                    <mask id="mask-33" fill="white">
                        <use xlink:href="#path-32"></use>
                    </mask>
                    <g id="Clip-70"></g>
                    <path d="M9.00133333,0.319784729 L6.27066667,5.11688898 C4.78,7.7354306 2.694,9.99665595 0.0146666667,11.893232 L2.74533333,7.09612779 C5.42466667,5.1995517 7.51066667,2.93832635 9.00133333,0.319784729" id="Fill-69" fill="#FFB400" mask="url(#mask-33)"></path>
                </g>
                <g id="Group-74" transform="translate(308.666667, 369.737016)">
                    <mask id="mask-35" fill="white">
                        <use xlink:href="#path-34"></use>
                    </mask>
                    <g id="Clip-73"></g>
                    <path d="M16.0789333,0.429512822 L13.3482667,5.22661707 C11.4689333,6.68788062 9.40493333,7.41584586 7.15893333,7.42184557 C5.00093333,7.42117894 2.8396,6.81987432 0.574933333,5.66126298 L3.3056,0.864158733 C5.57026667,2.02277007 7.7316,2.62407469 9.8896,2.62474132 C12.1362667,2.61874161 14.1996,1.89077637 16.0789333,0.429512822" id="Fill-72" fill="#FFB400" mask="url(#mask-35)"></path>
                </g>
                <path d="M322.734867,324.086729 C325.905533,324.078063 328.194867,326.847931 329.609533,332.464996 C329.9542,333.900927 330.2502,335.546182 330.510867,337.413426 C329.700867,337.833406 328.3722,338.527373 326.525533,339.50066 C325.177533,340.169294 323.829533,340.837929 322.481533,341.506564 C322.0562,339.657319 321.302867,338.73403 320.221533,338.736696 C318.648867,338.826692 317.425533,339.735315 316.422867,341.4539 C315.727533,342.835834 315.585533,344.10244 315.9962,345.259718 C316.2862,345.91702 317.0562,346.245671 318.3162,346.242338 C318.426867,346.241671 318.540867,346.239005 318.659533,346.233671 C319.4102,346.199673 320.312867,346.058347 321.373533,345.808358 C323.036867,345.367046 324.542867,345.115725 325.892867,345.055061 C326.0642,345.047728 326.2322,345.043728 326.397533,345.043062 C329.4002,345.034395 331.4442,346.173008 332.519533,348.480231 C332.905533,349.258194 333.228867,350.067488 333.475533,350.896115 C334.085533,353.603986 333.793533,356.573844 332.607533,359.774358 C331.211533,363.976158 328.588867,367.445992 324.745533,370.166529 C322.8662,371.627792 320.802867,372.355757 318.5562,372.361757 C316.3982,372.361757 314.236867,371.759786 311.9722,370.601174 C312.365533,368.099294 313.048867,364.432136 314.0222,359.554369 C315.497533,360.518989 316.923533,360.9963 318.287533,360.992967 C319.0422,360.983634 319.676867,360.804976 320.270867,360.467658 C321.438867,360.16034 322.489533,359.669697 323.423533,358.996395 C324.704867,358.106438 325.2402,357.187148 325.023533,356.23786 C324.798867,355.129247 323.937533,354.57394 322.4262,354.57794 C322.376867,354.578606 322.3262,354.579273 322.274867,354.580606 C321.166867,354.608605 319.6102,354.904591 317.5982,355.447898 C315.625533,356.111866 314.088867,356.458517 312.986867,356.486515 C312.907533,356.489182 312.8282,356.490515 312.7502,356.490515 C311.395533,356.494515 310.3042,356.185863 309.464867,355.565892 C307.6042,354.577273 306.5502,352.95935 306.309533,350.700125 C305.657533,346.25767 307.096867,341.011254 310.618867,334.772219 C314.348867,328.361192 318.096867,324.760697 321.866867,324.155392 C322.162867,324.110061 322.4522,324.087396 322.734867,324.086729" id="Fill-75" fill="#FFFFFF"></path>
                <path d="M311.972467,370.601108 L309.2418,375.398212 C309.635133,372.896332 310.318467,369.229173 311.291133,364.351406 L314.0218,359.554302 C313.049133,364.432069 312.3658,368.099227 311.972467,370.601108" id="Fill-77" fill="#FFB400"></path>
                <path d="M304.3316,345.710296 C304.548933,349.096801 304.766267,352.489306 304.9776,355.888477 C303.9816,355.849812 303.014267,355.831813 302.074267,355.83448 C298.732933,355.843813 295.7496,356.113133 293.126267,356.624442 C292.692267,353.257936 292.258267,349.890763 291.8316,346.536924 C295.9936,346.258937 300.162933,345.981617 304.3316,345.710296" id="Fill-79" fill="#FFFFFF"></path>
                <g id="Group-83" transform="translate(288.666667, 346.404797)">
                    <mask id="mask-37" fill="white">
                        <use xlink:href="#path-36"></use>
                    </mask>
                    <g id="Clip-82"></g>
                    <path d="M4.4594,10.219712 L1.72873333,15.0168162 C1.29473333,11.6496437 0.8614,8.28313778 0.434066667,4.9286313 L3.16473333,0.131527052 C3.59206667,3.48603353 4.0254,6.85253943 4.4594,10.219712" id="Fill-81" fill="#FFB400" mask="url(#mask-37)"></path>
                </g>
                <g id="Group-86" transform="translate(290.000000, 355.737684)">
                    <mask id="mask-39" fill="white">
                        <use xlink:href="#path-38"></use>
                    </mask>
                    <g id="Clip-85"></g>
                    <path d="M14.9778667,0.150926126 L12.2472,4.94803038 C11.2512,4.90936556 10.2832,4.89136642 9.34386667,4.89403295 C6.00253333,4.90336584 3.01853333,5.17268631 0.3952,5.68399523 L3.12586667,0.88689098 C5.74986667,0.375582064 8.7332,0.106261592 12.0745333,0.0969287046 C13.0138667,0.0942621652 13.9818667,0.112261306 14.9778667,0.150926126" id="Fill-84" fill="#FFB400" mask="url(#mask-39)"></path>
                </g>
                <g id="Group-89" transform="translate(254.000000, 339.738448)">
                    <mask id="mask-41" fill="white">
                        <use xlink:href="#path-40"></use>
                    </mask>
                    <g id="Clip-88"></g>
                    <path d="M12.1865333,0.323717874 L9.45586667,5.12082212 C5.2972,5.67679557 2.33386667,6.07744311 0.559866667,6.34876348 L3.29053333,1.55165923 C5.06453333,1.28033886 8.02786667,0.879691324 12.1865333,0.323717874" id="Fill-87" fill="#FFB400" mask="url(#mask-41)"></path>
                </g>
                <path d="M280.857067,356.646108 L278.1264,361.443212 C276.9744,356.280125 275.815733,351.149037 274.6644,346.049947 L277.395067,341.252843 C278.5464,346.351932 279.705067,351.483021 280.857067,356.646108" id="Fill-90" fill="#FFB400"></path>
                <g id="Group-94" transform="translate(237.333333, 342.404988)">
                    <mask id="mask-43" fill="white">
                        <use xlink:href="#path-42"></use>
                    </mask>
                    <g id="Clip-93"></g>
                    <path d="M10.9144,0.518308582 L8.18373333,5.31541283 C7.64973333,5.38674276 6.46173333,5.62406476 4.62573333,6.02804547 C2.92306667,6.38736164 1.52506667,6.64468269 0.425733333,6.82467409 L3.1564,2.02756984 C4.2564,1.84757844 5.6544,1.59025739 7.3564,1.23094122 C9.1924,0.826960509 10.3804,0.589638509 10.9144,0.518308582" id="Fill-92" fill="#FFB400" mask="url(#mask-43)"></path>
                </g>
                <g id="Group-97" transform="translate(237.333333, 333.738735)">
                    <mask id="mask-45" fill="white">
                        <use xlink:href="#path-44"></use>
                    </mask>
                    <g id="Clip-96"></g>
                    <path d="M3.1564,10.693956 L0.425733333,15.4910602 C0.335066667,12.0472247 0.2504,8.60338915 0.159733333,5.16621996 L2.8904,0.369115706 C2.98106667,3.8062849 3.06573333,7.25012044 3.1564,10.693956" id="Fill-95" fill="#FFB400" mask="url(#mask-45)"></path>
                </g>
                <g id="Group-100" transform="translate(273.333333, 363.737302)">
                    <mask id="mask-47" fill="white">
                        <use xlink:href="#path-46"></use>
                    </mask>
                    <g id="Clip-99"></g>
                    <path d="M9.57646667,0.614104007 L6.8458,5.41120826 C4.75446667,5.73985923 2.66246667,6.06251049 0.571133333,6.38449511 L3.3018,1.58739086 C5.3938,1.26540624 7.48513333,0.942754979 9.57646667,0.614104007" id="Fill-98" fill="#FFB400" mask="url(#mask-47)"></path>
                </g>
                <g id="Group-103" transform="translate(280.000000, 363.737302)">
                    <mask id="mask-49" fill="white">
                        <use xlink:href="#path-48"></use>
                    </mask>
                    <g id="Clip-102"></g>
                    <path d="M4.7852,7.9210884 L2.05453333,12.7181926 C1.4292,10.2763093 0.803866667,7.84042558 0.1792,5.41120826 L2.90986667,0.614104007 C3.53453333,3.04332133 4.15986667,5.47920501 4.7852,7.9210884" id="Fill-101" fill="#FFB400" mask="url(#mask-49)"></path>
                </g>
                <g id="Group-106" transform="translate(282.000000, 368.403746)">
                    <mask id="mask-51" fill="white">
                        <use xlink:href="#path-50"></use>
                    </mask>
                    <g id="Clip-105"></g>
                    <path d="M12.2897333,0.404514016 L9.55906667,5.20161827 C6.39306667,6.16623887 3.2204,7.11886004 0.0544,8.05214881 L2.78506667,3.25437792 C5.95173333,2.32175579 9.12373333,1.36913462 12.2897333,0.404514016" id="Fill-104" fill="#FFB400" mask="url(#mask-51)"></path>
                </g>
                <g id="Group-109" transform="translate(225.333333, 341.071718)">
                    <mask id="mask-53" fill="white">
                        <use xlink:href="#path-52"></use>
                    </mask>
                    <g id="Clip-108"></g>
                    <path d="M5.04033333,1.46466339 L2.30966667,6.26176764 C2.05766667,5.39514236 1.38433333,4.95982981 0.290333333,4.96316299 L0.266333333,4.96316299 L2.997,0.166058737 L3.021,0.166058737 C4.115,0.162725562 4.78833333,0.598038108 5.04033333,1.46466339" id="Fill-107" fill="#FFB400" mask="url(#mask-53)"></path>
                </g>
                <g id="Group-112" transform="translate(226.666667, 342.404988)">
                    <mask id="mask-55" fill="white">
                        <use xlink:href="#path-54"></use>
                    </mask>
                    <g id="Clip-111"></g>
                    <path d="M3.25533333,2.35755408 L0.524666667,7.15465833 C0.998,6.32269806 1.14733333,5.57806696 0.976,4.92876463 L3.70666667,0.131660379 C3.87866667,0.780962706 3.72933333,1.52559381 3.25533333,2.35755408" id="Fill-110" fill="#FFB400" mask="url(#mask-55)"></path>
                </g>
                <g id="Group-115" transform="translate(221.333333, 341.071718)">
                    <mask id="mask-57" fill="white">
                        <use xlink:href="#path-56"></use>
                    </mask>
                    <g id="Clip-114"></g>
                    <path d="M6.99713333,0.166192064 L4.26646667,4.96329631 C3.29846667,4.99796132 2.04046667,5.25461574 0.492466667,5.72725983 L3.22313333,0.930155581 C4.77113333,0.457511485 6.02913333,0.200857075 6.99713333,0.166192064" id="Fill-113" fill="#FFB400" mask="url(#mask-57)"></path>
                </g>
                <path d="M265.875667,370.065267 L263.145,374.862371 C265.378333,361.83366 266.794333,348.698954 267.390333,335.649577 L270.121,330.852473 C269.525,343.901849 268.109,357.036556 265.875667,370.065267" id="Fill-116" fill="#FFB400"></path>
                <g id="Group-120" transform="translate(262.666667, 369.737016)">
                    <mask id="mask-59" fill="white">
                        <use xlink:href="#path-58"></use>
                    </mask>
                    <g id="Clip-119"></g>
                    <path d="M13.4365333,2.93332659 L10.7058667,7.73043084 C7.29853333,6.84113997 3.8852,5.97651459 0.478533333,5.12522191 L3.2092,0.328117664 C6.61586667,1.17941034 10.0292,2.04403572 13.4365333,2.93332659" id="Fill-118" fill="#FFB400" mask="url(#mask-59)"></path>
                </g>
                <path d="M276.528,356.854498 C277.973333,356.787167 279.418,356.713171 280.857333,356.645841 C279.704667,351.483421 278.546667,346.352332 277.395333,341.252576 C277.108667,346.46366 276.815333,351.668745 276.528,356.854498 M282.639333,327.569896 C285.153333,339.287337 289.037333,352.88802 294.29,368.807927 C291.124,369.773214 287.951333,370.725169 284.785333,371.658457 C284.16,369.216574 283.534667,366.78069 282.91,364.351473 C280.818667,364.680124 278.726667,365.002775 276.635333,365.32476 C276.458,367.775309 276.280667,370.225859 276.103333,372.670409 C272.696,371.781118 269.282667,370.916493 265.876,370.0652 C268.108667,357.036489 269.525333,343.901783 270.120667,330.852406 C274.291333,329.770458 278.462,328.67651 282.639333,327.569896" id="Fill-121" fill="#FFFFFF"></path>
                <g id="Group-125" transform="translate(230.666667, 347.738066)">
                    <mask id="mask-61" fill="white">
                        <use xlink:href="#path-60"></use>
                    </mask>
                    <g id="Clip-124"></g>
                    <path d="M7.11633333,0.0372648871 L4.38566667,4.83436914 C3.407,6.55295373 2.02433333,8.13621146 0.237666667,9.57014298 L2.969,4.77303873 C4.755,3.33844057 6.13766667,1.75584948 7.11633333,0.0372648871" id="Fill-123" fill="#FFB400" mask="url(#mask-61)"></path>
                </g>
                <g id="Group-128" transform="translate(245.333333, 342.404988)">
                    <mask id="mask-63" fill="white">
                        <use xlink:href="#path-62"></use>
                    </mask>
                    <g id="Clip-127"></g>
                    <path d="M5.64606667,30.8040623 L2.9154,35.6011666 C2.00206667,25.4549844 1.0954,15.3601332 0.1834,5.3152795 L2.91473333,0.518175255 C3.82673333,10.5630289 4.73273333,20.6578802 5.64606667,30.8040623" id="Fill-126" fill="#FFB400" mask="url(#mask-63)"></path>
                </g>
                <path d="M263.725,329.433074 C264.543,332.956905 265.367667,336.50007 266.186333,340.0619 C262.027667,340.61854 259.064333,341.019187 257.291,341.289841 C257.421667,345.822291 258.723667,355.505162 261.195,370.660438 C257.785667,371.531063 254.383,372.376356 250.979667,373.208983 C250.066333,363.063468 249.159667,352.96795 248.247667,342.923096 C247.713667,342.994426 246.525667,343.231748 244.689667,343.635729 C242.987667,343.995045 241.589667,344.252366 240.489667,344.433024 C240.399,340.989189 240.314333,337.545353 240.223667,334.107517 C248.058333,332.604256 255.891667,331.037664 263.725,329.433074" id="Fill-129" fill="#FFFFFF"></path>
                <g id="Group-133" transform="translate(248.000000, 370.403651)">
                    <mask id="mask-65" fill="white">
                        <use xlink:href="#path-64"></use>
                    </mask>
                    <g id="Clip-132"></g>
                    <path d="M13.1950667,0.257121055 L10.4644,5.0542253 C7.05506667,5.92485039 3.65173333,6.77014336 0.2484,7.60277027 L2.97906667,2.80566602 C6.3824,1.97303911 9.78573333,1.12774615 13.1950667,0.257121055" id="Fill-131" fill="#FFB400" mask="url(#mask-65)"></path>
                </g>
                <g id="Group-136" transform="translate(222.666667, 357.070954)">
                    <mask id="mask-67" fill="white">
                        <use xlink:href="#path-66"></use>
                    </mask>
                    <g id="Clip-135"></g>
                    <path d="M13.7187333,15.2292727 L10.9880667,20.026377 C7.4174,15.0286156 3.84806667,10.1381825 0.280066667,5.36241059 L3.01073333,0.565306337 C6.57873333,5.34107827 10.1480667,10.2315114 13.7187333,15.2292727" id="Fill-134" fill="#FFB400" mask="url(#mask-67)"></path>
                </g>
                <path d="M243.510667,364.467934 L240.78,369.265038 C238.878667,371.416269 236.506,374.044143 233.654667,377.097331 L236.385333,372.300227 C239.236667,369.247039 241.609333,366.619165 243.510667,364.467934" id="Fill-137" fill="#FFB400"></path>
                <path d="M228.271533,346.815644 C229.981533,345.120391 230.675533,343.681127 230.373533,342.536515 C230.121533,341.669889 229.4482,341.234577 228.3542,341.23791 L228.3302,341.23791 C227.362867,341.272575 226.104867,341.529229 224.556867,342.001874 C224.5482,343.287146 224.602867,344.502421 224.732867,345.6417 C224.7942,346.876307 224.848867,348.110249 224.9102,349.33819 C226.0922,348.670222 227.214867,347.831595 228.271533,346.815644 M243.510867,364.468134 C241.609533,366.619365 239.236867,369.247239 236.385533,372.300427 C232.814867,367.302665 229.245533,362.412232 225.677533,357.635794 C226.0462,362.332903 226.5562,366.610698 227.2002,370.47718 C224.3702,371.308474 221.533533,372.113769 218.702867,372.907064 C217.423533,354.474611 216.169533,342.215197 214.933533,336.020826 C220.593533,333.890261 225.3922,332.591656 229.3502,332.245006 C229.8462,332.200342 230.325533,332.177009 230.786867,332.175676 C235.296867,332.16301 238.150867,334.232245 239.351533,338.421378 C240.222867,343.983779 238.311533,348.756218 233.635533,352.511372 C234.519533,353.857307 237.8082,357.729123 243.510867,364.468134" id="Fill-139" fill="#FFFFFF"></path>
                <g id="Group-143" transform="translate(212.000000, 335.738639)">
                    <mask id="mask-69" fill="white">
                        <use xlink:href="#path-68"></use>
                    </mask>
                    <g id="Clip-142"></g>
                    <path d="M6.70306667,37.1681584 L3.9724,41.9652626 C2.69306667,23.5334762 1.43906667,11.273395 0.203066667,5.07902412 L2.93373333,0.28191987 C4.16973333,6.47629073 5.42373333,18.7363719 6.70306667,37.1681584" id="Fill-141" fill="#FFB400" mask="url(#mask-69)"></path>
                </g>
                <g id="Group-146" transform="translate(215.333333, 370.403651)">
                    <mask id="mask-71" fill="white">
                        <use xlink:href="#path-70"></use>
                    </mask>
                    <g id="Clip-145"></g>
                    <path d="M11.867,0.0735964854 L9.13633333,4.87070074 C6.30633333,5.70132774 3.46966667,6.50728925 0.639,7.29991806 L3.36966667,2.50281381 C6.20033333,1.710185 9.037,0.904223486 11.867,0.0735964854" id="Fill-144" fill="#FFB400" mask="url(#mask-71)"></path>
                </g>
                <g id="Group-149" transform="translate(208.000000, 369.070381)">
                    <mask id="mask-73" fill="white">
                        <use xlink:href="#path-72"></use>
                    </mask>
                    <g id="Clip-148"></g>
                    <path d="M7.11566667,0.446778664 L4.385,5.24388291 C2.925,5.65919641 1.46566667,6.07517655 0.00566666667,6.47782399 L2.737,1.68071974 C4.19633333,1.2780723 5.65633333,0.862092165 7.11566667,0.446778664" id="Fill-147" fill="#FFB400" mask="url(#mask-73)"></path>
                </g>
                <path d="M212.614467,334.571095 C212.584467,341.332772 212.802467,347.618472 213.263133,353.46086 C213.691133,359.277915 214.311133,364.62566 215.1158,369.517426 C213.6558,369.93274 212.196467,370.348053 210.736467,370.751367 C209.289133,371.110017 207.8478,371.462 206.3998,371.813983 C205.236467,360.105209 204.0738,348.485097 202.912467,336.940982 C204.5378,336.543668 206.163133,336.146353 207.788467,335.743039 C209.395133,335.359057 211.0018,334.968409 212.614467,334.571095" id="Fill-150" fill="#FFFFFF"></path>
                <g id="Group-154" transform="translate(203.333333, 370.403651)">
                    <mask id="mask-75" fill="white">
                        <use xlink:href="#path-74"></use>
                    </mask>
                    <g id="Clip-153"></g>
                    <path d="M7.40333333,0.347583401 L4.67266667,5.14468765 C3.22466667,5.50333719 1.78333333,5.85532038 0.336,6.20797021 L3.06666667,1.41086596 C4.51466667,1.05821613 5.956,0.706232941 7.40333333,0.347583401" id="Fill-152" fill="#FFB400" mask="url(#mask-75)"></path>
                </g>
                <g id="Group-157" transform="translate(200.000000, 336.405274)">
                    <mask id="mask-77" fill="white">
                        <use xlink:href="#path-76"></use>
                    </mask>
                    <g id="Clip-156"></g>
                    <path d="M6.39993333,35.4089757 L3.66926667,40.20608 C2.50526667,28.4973058 1.34326667,16.8765274 0.181266667,5.33241202 L2.9126,0.53530777 C4.07393333,12.0794232 5.2366,23.7002015 6.39993333,35.4089757" id="Fill-155" fill="#FFB400" mask="url(#mask-77)"></path>
                </g>
                <g id="Group-160" transform="translate(187.333333, 336.405274)">
                    <mask id="mask-79" fill="white">
                        <use xlink:href="#path-78"></use>
                    </mask>
                    <g id="Clip-159"></g>
                    <path d="M3.2538,22.0000161 L0.523133333,26.7971203 C0.759133333,17.3509047 0.790466667,10.19058 0.617133333,5.35414432 L3.34846667,0.557040065 C3.52113333,5.39347577 3.4898,12.5538005 3.2538,22.0000161" id="Fill-158" fill="#FFB400" mask="url(#mask-79)"></path>
                </g>
                <g id="Group-163" transform="translate(173.333333, 338.405179)">
                    <mask id="mask-81" fill="white">
                        <use xlink:href="#path-80"></use>
                    </mask>
                    <g id="Clip-162"></g>
                    <path d="M11.6347333,33.7349223 L8.90406667,38.5320266 C7.1474,29.1418083 4.19273333,17.862347 0.0654,5.08495717 L2.79606667,0.28785292 C6.9234,13.0652427 9.87806667,24.3447041 11.6347333,33.7349223" id="Fill-161" fill="#FFB400" mask="url(#mask-81)"></path>
                </g>
                <path d="M186.134467,336.113955 C187.0298,341.131715 188.5178,348.509363 190.587133,358.405557 C190.823133,348.958675 190.854467,341.79835 190.6818,336.961914 C194.2938,336.989913 197.906467,337.017912 201.518467,337.039911 C199.655133,347.712068 198.193133,358.840203 197.132467,370.504312 C193.082467,371.078952 189.025133,371.622259 184.9678,372.140234 C183.211133,362.750016 180.257133,351.469888 176.129133,338.693165 C179.462467,337.861205 182.7958,336.997246 186.134467,336.113955" id="Fill-164" fill="#FFFFFF"></path>
                <g id="Group-168" transform="translate(182.000000, 370.403651)">
                    <mask id="mask-83" fill="white">
                        <use xlink:href="#path-82"></use>
                    </mask>
                    <g id="Clip-167"></g>
                    <path d="M15.1326,0.100728523 L12.4019333,4.89783277 C8.35193333,5.472472 4.2946,6.01577939 0.237266667,6.53375465 L2.96793333,1.7366504 C7.02526667,1.21867514 11.0826,0.675367748 15.1326,0.100728523" id="Fill-166" fill="#FFB400" mask="url(#mask-83)"></path>
                </g>
                <g id="Group-171" transform="translate(170.000000, 369.070381)">
                    <mask id="mask-85" fill="white">
                        <use xlink:href="#path-84"></use>
                    </mask>
                    <g id="Clip-170"></g>
                    <path d="M7.343,0.242121771 L4.61233333,5.03922602 C3.14566667,5.39787556 1.685,5.74385904 0.224333333,6.08984252 L2.955,1.29273827 C4.41566667,0.946754788 5.87633333,0.60077131 7.343,0.242121771" id="Fill-169" fill="#FFB400" mask="url(#mask-85)"></path>
                </g>
                <path d="M174.875133,337.322964 C174.843133,343.502002 175.0478,349.249727 175.508467,354.604805 C175.9238,359.927884 176.537133,364.826317 177.343133,369.312769 C175.876467,369.671419 174.4158,370.017402 172.955133,370.363386 C171.513133,370.664705 170.064467,370.953358 168.622467,371.242677 C167.4658,360.533855 166.316467,349.907696 165.168467,339.356867 C166.795133,339.023549 168.421133,338.682899 170.047133,338.330249 C171.661133,338.002931 173.2678,337.662947 174.875133,337.322964" id="Fill-172" fill="#FFFFFF"></path>
                <path d="M172.9552,370.363053 L170.224533,375.160157 C168.782533,375.461476 167.333867,375.750795 165.891867,376.039448 L168.622533,371.242344 C170.064533,370.953691 171.5132,370.664371 172.9552,370.363053" id="Fill-174" fill="#FFB400"></path>
                <g id="Group-178" transform="translate(162.000000, 339.071813)">
                    <mask id="mask-87" fill="white">
                        <use xlink:href="#path-86"></use>
                    </mask>
                    <g id="Clip-177"></g>
                    <path d="M6.6224,32.1706637 L3.89173333,36.967768 C2.73506667,26.258946 1.58573333,15.6327868 0.437733333,5.08195731 L3.1684,0.284853064 C4.3164,10.8356825 5.46573333,21.4618418 6.6224,32.1706637" id="Fill-176" fill="#FFB400" mask="url(#mask-87)"></path>
                </g>
                <g id="Group-181" transform="translate(145.333333, 347.071431)">
                    <mask id="mask-89" fill="white">
                        <use xlink:href="#path-88"></use>
                    </mask>
                    <g id="Clip-180"></g>
                    <path d="M10.1684667,4.88583335 L7.4378,9.6829376 C7.0338,8.05701524 6.11313333,6.87573832 4.67646667,6.13910683 C3.61246667,5.58180011 2.35913333,5.3098131 0.9158,5.31381291 C0.6618,5.31447954 0.4018,5.32381243 0.136466667,5.34114494 L2.86713333,0.544040686 C3.13313333,0.526708181 3.39246667,0.517375293 3.64646667,0.516708658 C5.0898,0.512708849 6.34313333,0.784695861 7.40713333,1.34200258 C8.8438,2.07863407 9.76446667,3.25991099 10.1684667,4.88583335" id="Fill-179" fill="#FFB400" mask="url(#mask-89)"></path>
                </g>
                <g id="Group-184" transform="translate(151.333333, 351.737875)">
                    <mask id="mask-91" fill="white">
                        <use xlink:href="#path-90"></use>
                    </mask>
                    <g id="Clip-183"></g>
                    <path d="M3.28533333,5.58566659 L0.554666667,10.3827708 C1.56,8.61618854 1.85066667,6.81560786 1.438,5.01636045 L4.16866667,0.219256196 C4.58133333,2.01850361 4.29066667,3.81908429 3.28533333,5.58566659" id="Fill-182" fill="#FFB400" mask="url(#mask-91)"></path>
                </g>
                <g id="Group-187" transform="translate(155.333333, 360.404128)">
                    <mask id="mask-93" fill="white">
                        <use xlink:href="#path-92"></use>
                    </mask>
                    <g id="Clip-186"></g>
                    <path d="M7.49226667,0.355316365 L4.7616,5.15242062 C3.74026667,6.94566831 2.25826667,8.56225778 0.314933333,9.9788568 L3.04626667,5.18175255 C4.9896,3.76515353 6.4716,2.14856406 7.49226667,0.355316365" id="Fill-185" fill="#FFB400" mask="url(#mask-93)"></path>
                </g>
                <path d="M158.379333,365.585947 L155.648667,370.383052 C154.280667,371.482332 152.757333,372.36029 151.084667,373.022925 L153.815333,368.225821 C155.488,367.563186 157.012,366.685228 158.379333,365.585947" id="Fill-188" fill="#FFB400"></path>
                <g id="Group-192" transform="translate(138.666667, 367.737111)">
                    <mask id="mask-95" fill="white">
                        <use xlink:href="#path-94"></use>
                    </mask>
                    <g id="Clip-191"></g>
                    <path d="M15.1487333,0.488909986 L12.4180667,5.28601424 C9.2934,6.70594643 5.67006667,7.40124656 1.5494,7.41257935 C1.0854,7.41391262 0.6154,7.40657964 0.138733333,7.3905804 L2.8694,2.59347615 C3.34606667,2.60947539 3.81606667,2.61680837 4.28006667,2.6154751 C8.40073333,2.60414231 12.0240667,1.90884218 15.1487333,0.488909986" id="Fill-190" fill="#FFB400" mask="url(#mask-95)"></path>
                </g>
                <g id="Group-197" transform="translate(137.333333, 339.071813)" fill="#FFFFFF">
                    <path d="M17.2351333,18.3389242 C18.2811333,16.5443433 18.5878,14.713764 18.1684667,12.8851847 C17.7644667,11.2592623 16.8438,10.0779854 15.4071333,9.34135391 C14.3431333,8.78471382 13.0898,8.51206018 11.6464667,8.51605999 C11.3924667,8.51672662 11.1331333,8.52605951 10.8671333,8.54405865 C10.9184667,11.4112551 11.0344667,13.8991363 11.2218,16.0070356 C11.4498,18.2789271 11.7144667,20.4054922 11.9958,22.3867309 C14.3418,21.576103 16.0884667,20.2221676 17.2351333,18.3389242 M27.5138,13.3784944 C27.5731333,15.8723754 27.1384667,18.1529331 26.2171333,20.2001687 C25.2358,22.5960543 23.5124667,24.715953 21.0458,26.5138672 C19.6784667,27.613148 18.1551333,28.4911061 16.4818,29.1544077 C13.3578,30.5743399 9.73446667,31.2689734 5.61313333,31.2809729 C5.14913333,31.2823061 4.67913333,31.2749731 4.20246667,31.2589739 L4.09446667,31.2529742 C3.07713333,22.8673746 2.06713333,14.5511051 1.0518,6.28549984 C0.6678,3.31164185 0.4478,1.64038833 0.3918,1.26107311 C4.07513333,0.51310883 7.35246667,0.116461105 10.2244667,0.108461487 C10.6318,0.107128217 11.0318,0.113794566 11.4231333,0.128460532 C15.1131333,0.251121341 18.1051333,1.03441727 20.3991333,2.52167958 C23.7271333,4.62691238 25.8631333,7.13412598 26.7998,10.0126552 C27.2164667,11.1379348 27.4544667,12.2645476 27.5138,13.3784944" id="Fill-195"></path>
                </g>
                <g id="Group-200" transform="translate(134.666667, 339.738448)">
                    <mask id="mask-97" fill="white">
                        <use xlink:href="#path-96"></use>
                    </mask>
                    <g id="Clip-199"></g>
                    <path d="M6.76106667,30.5861394 L4.0304,35.3832436 C3.01306667,26.9976441 2.00306667,18.6813745 0.987733333,10.4164359 C0.603733333,7.44191128 0.383733333,5.77132439 0.327733333,5.39134254 L3.0584,0.594238289 C3.11506667,0.974220143 3.3344,2.64480703 3.7184,5.61933165 C4.7344,13.8842703 5.74373333,22.2005398 6.76106667,30.5861394" id="Fill-198" fill="#FFB400" mask="url(#mask-97)"></path>
                </g>
                <path d="M121.824933,330.210237 C121.824933,330.210237 393.658246,302.575703 393.658246,302.575703 C393.658246,302.575703 392.036267,305.920063 388.700267,311.935776 L121.824933,330.210237 Z" id="Fill-201" fill-opacity="0.1" fill="#1E120F"></path>
            </g>
        </g>
    </g>
</svg>