<?xml version="1.0" encoding="UTF-8" standalone="no"?>
<svg width="666px" height="451px" viewBox="0 0 666 451" version="1.1" xmlns="http://www.w3.org/2000/svg" xmlns:xlink="http://www.w3.org/1999/xlink">
    <!-- Generator: sketchtool 3.7.2 (28276) - http://www.bohemiancoding.com/sketch -->
    <title>B16FE1DF-DDA5-4228-AC4F-E95AAE08034E</title>
    <desc>Created with sketchtool.</desc>
    <defs>
        <filter x="-50%" y="-50%" width="200%" height="200%" filterUnits="objectBoundingBox" id="filter-1">
            <feGaussianBlur stdDeviation="40.8574485 1.42677354" in="SourceGraphic"></feGaussianBlur>
        </filter>
        <filter x="-50%" y="-50%" width="200%" height="200%" filterUnits="objectBoundingBox" id="filter-2">
            <feOffset dx="10" dy="10" in="SourceAlpha" result="shadowOffsetOuter1"></feOffset>
            <feGaussianBlur stdDeviation="30" in="shadowOffsetOuter1" result="shadowBlurOuter1"></feGaussianBlur>
            <feColorMatrix values="0 0 0 0 0   0 0 0 0 0   0 0 0 0 0  0 0 0 0.5 0" type="matrix" in="shadowBlurOuter1" result="shadowMatrixOuter1"></feColorMatrix>
            <feMerge>
                <feMergeNode in="shadowMatrixOuter1"></feMergeNode>
                <feMergeNode in="SourceGraphic"></feMergeNode>
            </feMerge>
        </filter>
        <polygon id="path-3" points="230.998649 66.5952239 230.998649 0.498296332 0.327388884 0.498296332 0.327388884 66.5952239 230.998649 66.5952239"></polygon>
        <polygon id="path-5" points="469.020813 105.708887 469.020813 211.305485 0 211.305485 0 105.708887 0 0.112288782 469.020813 0.112288782 469.020813 105.708887"></polygon>
        <path d="M123.42498,48.3155658 C100.772534,22.1072489 65.0433157,0.560465549 8.79004501,0.560465549 C5.98043931,0.560465549 3.21658176,0.609870639 0.49775781,0.706747074 L0.49775781,121.380401 L123.42498,121.380401 L123.42498,48.3155658 L123.42498,48.3155658 Z" id="path-7"></path>
    </defs>
    <g id="GdS-md" stroke="none" stroke-width="1" fill="none" fill-rule="evenodd">
        <g id="03---game_03" transform="translate(-305.000000, -120.000000)">
            <g id="Page-1" transform="translate(305.000000, 120.000000)">
                <path d="M144.878154,334.874142 C126.847087,337.255241 113.021807,341.666503 131.968015,350.490782 C150.914223,359.316815 375.195461,417.228229 539.564816,358.213123 C539.564816,358.213123 560.558695,348.285151 503.208153,351.594475 C445.859365,354.903799 144.878154,334.874142 144.878154,334.874142" id="Fill-1" fill="#1E120F" opacity="0.597014925" filter="url(#filter-1)"></path>
                <g id="Group-3" filter="url(#filter-2)" transform="translate(99.000000, 48.000000)">
                    <g id="Group-18" transform="translate(0.000000, 0.010268)">
                        <path d="M0,123.289835 C0,123.289835 21.6890556,100.039246 248.840707,100.039246 C412.993805,100.039246 469.020813,134.007039 469.020813,134.007039 C469.020813,134.007039 403.081549,212.128947 400.419909,213.906707 C397.758268,215.682721 146.646621,254.77249 146.646621,254.77249 L0,123.289835 Z" id="Fill-1" fill="#2287E4"></path>
                        <g id="Group-5" transform="translate(238.022164, 99.540600)">
                            <mask id="mask-4" fill="white">
                                <use xlink:href="#path-3"></use>
                            </mask>
                            <g id="Clip-4"></g>
                            <path d="M10.8187174,0.498296332 C7.27102623,0.498296332 3.77391674,0.503535311 0.327388884,0.515759595 C160.44791,1.22476808 215.301075,34.4678359 215.301075,34.4678359 C215.301075,34.4678359 145.432142,65.2119108 22.5850518,66.5600747 C155.150792,67.8261613 230.998824,34.4678359 230.998824,34.4678359 C230.998824,34.4678359 174.971816,0.498296332 10.8187174,0.498296332" id="Fill-3" fill="#006EC3" opacity="0.485657649" mask="url(#mask-4)"></path>
                        </g>
                        <path d="M80.1448541,118.988109 C65.1064112,120.833976 53.5737988,124.255029 69.3761987,131.097136 C85.1803429,137.939242 272.25041,182.839038 409.349311,137.083542 C409.349311,137.083542 426.861021,129.385736 379.02475,131.951089 C331.190222,134.518189 80.1448541,118.988109 80.1448541,118.988109" id="Fill-6" fill="#006EC3"></path>
                        <path d="M77.386062,129.55478 C77.386062,129.55478 217.172767,179.990431 398.520132,140.902409 C398.520132,140.902409 388.634039,0.560640181 245.067665,0.560640181 C101.503036,0.560640181 77.386062,129.55478 77.386062,129.55478" id="Fill-8" fill="#4B9FF1"></path>
                        <g id="Group-12" transform="translate(0.000000, 123.177022)">
                            <mask id="mask-6" fill="white">
                                <use xlink:href="#path-5"></use>
                            </mask>
                            <g id="Clip-11"></g>
                            <path d="M44.722885,174.395656 C44.722885,174.395656 226.483625,251.370227 426.588055,182.999805 L469.020813,10.8312397 C469.020813,10.8312397 289.504851,89.8420278 0,0.112288782 L44.722885,174.395656 Z" id="Fill-10" fill="#1976D1" mask="url(#mask-6)"></path>
                        </g>
                        <g id="Group-15" transform="translate(43.604856, 133.654980)" fill="#006EC3">
                            <path d="M414.368056,4.55721317 L374.262053,167.283392 C199.15367,227.112532 38.091284,175.64131 0.587619046,161.848825 L1.1178541,163.918222 C1.1178541,163.918222 182.878594,240.891047 382.983024,172.522371 L425.415782,0.353805713 C425.415782,0.353805713 421.648322,2.00757674 414.368056,4.55721317" id="Fill-13"></path>
                        </g>
                        <path d="M13.9537285,137.26062 C256.403707,212.405041 419.238195,155.741991 465.775042,135.332675 C440.339457,145.309438 266.91771,206.01698 0.000174419423,123.290009 L44.7230594,297.573376 L13.9537285,137.26062 Z" id="Fill-16" fill="#FFFFFF" opacity="0.180597015"></path>
                    </g>
                    <g id="Group-24" transform="translate(122.093598, 0.010268)">
                        <path d="M48.1477848,34.4856484 C39.7425127,39.4085423 35.2390031,46.2034981 34.5674883,53.4175721 C33.9046945,59.3480963 35.102956,63.5829376 37.7872709,66.6163064 C39.4477439,68.2543605 41.3332179,69.4471014 43.426251,70.2713674 C46.6390568,71.4937958 50.2826786,71.9565723 54.3780467,71.794164 C58.9094634,71.7801934 63.5647179,70.9629126 68.6106719,69.2305569 C75.5124486,66.8834944 80.0578188,63.5864303 82.5485282,58.3125248 C84.4287696,54.1492828 84.845632,49.547713 83.3543459,44.7540472 C81.1967777,39.4749027 77.0054788,34.9082594 70.3688197,31.930773 C63.1809952,29.1855481 55.4315401,30.2368365 48.1477848,34.4856484 M33.5174834,19.4253303 C51.0187286,6.94433605 70.4996343,1.90793094 87.0694797,5.98734922 C95.8253349,7.96768327 102.451529,11.9877265 106.904457,17.3052901 C111.289361,22.3207393 113.466116,28.617992 113.881234,35.6888673 C114.856238,47.5761105 110.82715,59.0861473 104.842819,69.2462739 C97.487552,81.7761652 89.181699,87.0395927 76.5048951,89.3272802 C65.3996102,91.4490667 53.9559517,91.1050404 40.7942618,90.95311 C34.2901615,90.8361062 28.3040868,90.6754441 22.9337126,89.952465 C17.5633385,89.4984202 12.8784327,88.5292091 8.94527468,86.4650514 C2.24059194,82.8292 -0.900701915,76.3957338 0.649886781,65.1982895 C2.83710638,51.613617 12.970875,34.1468611 33.5174834,19.4253303" id="Fill-19" fill="#FFFFFF"></path>
                        <g id="Group-23" transform="translate(114.184371, 0.000000)">
                            <mask id="mask-8" fill="white">
                                <use xlink:href="#path-7"></use>
                            </mask>
                            <g id="Clip-22"></g>
                            <path d="M1.66849985,24.6391621 C-2.50710121,6.39005207 4.02665049,-7.64691889 28.731418,-15.3621886 C35.573892,-17.25346 43.2117187,-18.2890315 51.510595,-18.1510717 C68.2757902,-17.8873764 85.0967996,-13.1286372 99.2962851,-3.35794145 C117.798698,9.22433969 125.010941,24.4680221 123.137676,36.9298068 C121.564413,48.6913145 112.229486,55.5264358 98.8602365,58.9946398 C88.7613518,61.7119236 75.6014061,61.5792028 60.0571469,61.3382098 C48.0501136,60.9941835 41.2058953,63.3394997 38.5791388,66.5300379 C55.1542168,70.5151546 71.6159222,77.9352951 86.2601772,89.5640821 C80.6473601,100.323199 74.1397713,110.967057 66.7217131,121.380401 C51.5472231,102.223202 30.0168891,91.9565491 8.44818293,88.4516722 C7.62841163,86.1081023 6.94294329,84.0125107 6.46328987,82.1125077 C4.20106991,72.4745327 3.48595027,64.9758075 6.29584722,58.5632972 C9.62551406,51.2165024 20.9802187,42.4551832 45.8367311,37.530543 C59.7920293,35.1572856 68.8199788,32.7508479 71.1013849,28.1754729 C72.0781337,25.494862 72.5351126,23.1705017 72.4322051,21.2111236 C72.0624359,18.8623147 70.5606847,16.5222374 67.8850907,14.3218662 C65.1990315,12.126734 61.8484344,10.7541215 57.9902767,10.2337163 C49.2937241,9.16845725 46.1855699,12.4428191 47.8286009,19.4892458 C31.6477108,19.3722419 16.1784519,21.2652597 1.66849985,24.6391621" id="Fill-21" fill="#FFFFFF" mask="url(#mask-8)"></path>
                        </g>
                    </g>
                    <path d="M188.482515,8.34555252 C94.8611443,36.2116816 77.386062,129.565048 77.386062,129.565048 C77.386062,129.565048 217.174511,180.000698 398.518388,140.912676 C398.518388,140.912676 398.485248,140.444661 398.399783,139.599439 C222.23093,174.541682 87.8512276,126.072395 87.8512276,126.072395 C87.8512276,126.072395 104.007699,39.756724 188.482515,8.34555252 Z" id="Fill-25" fill="#000000" opacity="0.0597014925"></path>
                </g>
            </g>
        </g>
    </g>
</svg>