<?xml version="1.0" encoding="UTF-8" standalone="no"?>
<svg width="20px" height="24px" viewBox="0 0 20 24" version="1.1" xmlns="http://www.w3.org/2000/svg" xmlns:xlink="http://www.w3.org/1999/xlink" xmlns:sketch="http://www.bohemiancoding.com/sketch/ns">
    <!-- Generator: sketchtool 3.5.2 (25235) - http://www.bohemiancoding.com/sketch -->
    <title>Android-icon</title>
    <desc>Created with sketchtool.</desc>
    <defs></defs>
    <g id="GdS-md" stroke="none" stroke-width="1" fill="none" fill-rule="evenodd" sketch:type="MSPage">
        <g id="10---dashboard" sketch:type="MSArtboardGroup" transform="translate(-389.000000, -324.000000)">
            <g id="devices" sketch:type="MSLayerGroup" transform="translate(239.000000, 229.000000)">
                <g id="Group-2" transform="translate(148.000000, 95.000000)" sketch:type="MSShapeGroup">
                    <g id="Android-icon">
                        <path d="M5.84,17.28 C5.84,17.808 6.272,18.24 6.8,18.24 L7.76,18.24 L7.76,21.6 C7.76,22.3968 8.4032,23.04 9.2,23.04 C9.9968,23.04 10.64,22.3968 10.64,21.6 L10.64,18.24 L12.56,18.24 L12.56,21.6 C12.56,22.3968 13.2032,23.04 14,23.04 C14.7968,23.04 15.44,22.3968 15.44,21.6 L15.44,18.24 L16.4,18.24 C16.928,18.24 17.36,17.808 17.36,17.28 L17.36,7.68 L5.84,7.68 L5.84,17.28 L5.84,17.28 Z M3.44,7.68 C2.6432,7.68 2,8.3232 2,9.12 L2,15.84 C2,16.6368 2.6432,17.28 3.44,17.28 C4.2368,17.28 4.88,16.6368 4.88,15.84 L4.88,9.12 C4.88,8.3232 4.2368,7.68 3.44,7.68 L3.44,7.68 Z M19.76,7.68 C18.9632,7.68 18.32,8.3232 18.32,9.12 L18.32,15.84 C18.32,16.6368 18.9632,17.28 19.76,17.28 C20.5568,17.28 21.2,16.6368 21.2,15.84 L21.2,9.12 C21.2,8.3232 20.5568,7.68 19.76,7.68 L19.76,7.68 Z M14.9888,2.0736 L16.2368,0.8256 C16.4288,0.6336 16.4288,0.336 16.2368,0.144 C16.0448,-0.048 15.7472,-0.048 15.5552,0.144 L14.1344,1.5648 C13.376,1.1808 12.512,0.96 11.6,0.96 C10.6784,0.96 9.8144,1.1808 9.0464,1.5648 L7.616,0.144 C7.424,-0.048 7.1264,-0.048 6.9344,0.144 C6.7424,0.336 6.7424,0.6336 6.9344,0.8256 L8.192,2.0832 C6.7712,3.1296 5.84,4.8096 5.84,6.72 L17.36,6.72 C17.36,4.8096 16.4288,3.12 14.9888,2.0736 L14.9888,2.0736 Z M8.72,3.84 L9.68,3.84 L9.68,4.8 L8.72,4.8 L8.72,3.84 Z M13.52,3.84 L14.48,3.84 L14.48,4.8 L13.52,4.8 L13.52,3.84 Z" id="Imported-Layers" fill="#A4C639"></path>
                        <rect id="Rectangle-349" x="0" y="0" width="24" height="24"></rect>
                    </g>
                </g>
            </g>
        </g>
    </g>
</svg>