<?xml version="1.0" encoding="UTF-8" standalone="no"?>
<svg width="18px" height="17px" viewBox="0 0 18 17" version="1.1" xmlns="http://www.w3.org/2000/svg" xmlns:xlink="http://www.w3.org/1999/xlink" xmlns:sketch="http://www.bohemiancoding.com/sketch/ns">
    <!-- Generator: sketchtool 3.5.2 (25235) - http://www.bohemiancoding.com/sketch -->
    <title>house</title>
    <desc>Created with sketchtool.</desc>
    <defs></defs>
    <g id="GdS-md" stroke="none" stroke-width="1" fill="none" fill-rule="evenodd" sketch:type="MSPage">
        <g id="10---dashboard" sketch:type="MSArtboardGroup" transform="translate(-461.000000, -144.000000)" fill="#207BE9">
            <g id="Dashboard-[Content]" sketch:type="MSLayerGroup" transform="translate(0.000000, 1.000000)">
                <g id="Total-users-Copy-2" transform="translate(438.000000, 125.000000)" sketch:type="MSShapeGroup">
                    <g id="Group-9" transform="translate(23.000000, 9.000000)">
                        <g id="People" transform="translate(0.000000, 9.000000)">
                            <g id="house">
                                <g id="Group-3">
                                    <path d="M17.885754,6.39421739 L9.152514,0.118445652 C9.060174,0.0521086957 8.937414,0.0521086957 8.845074,0.118445652 L0.113994,6.39421739 C0.055854,6.43634783 0.016434,6.50009783 0.004014,6.57179348 C-0.008226,6.64367391 0.007794,6.71758696 0.048474,6.77727174 L1.237554,8.52051087 C1.289934,8.59719565 1.372734,8.63784783 1.457514,8.63784783 C1.510434,8.63784783 1.564074,8.62195652 1.610874,8.5881413 L9.000054,3.27601087 L16.388874,8.5881413 C16.510914,8.6753587 16.677594,8.64486957 16.762194,8.52051087 L17.951454,6.77727174 C17.991954,6.71758696 18.008154,6.64348913 17.995734,6.57179348 C17.983674,6.50028261 17.944074,6.43634783 17.885754,6.39421739" id="Fill-1"></path>
                                </g>
                                <path d="M15.715854,9.18406522 L9.153594,4.46656522 C9.061434,4.40041304 8.938494,4.40041304 8.846334,4.46656522 L2.249154,9.20919565 C2.177514,9.26038043 2.134854,9.3446413 2.134854,9.43463043 L2.134854,16.7250435 C2.134854,16.8765652 2.254914,17 2.403054,17 L6.993414,17 C7.141374,17 7.261434,16.8765652 7.261434,16.7250435 L7.261434,10.3718478 L10.739034,10.3718478 L10.739034,16.7250435 C10.739034,16.8765652 10.858914,17 11.007054,17 L15.562674,17 C15.710814,17 15.830154,16.8765652 15.830154,16.7250435 L15.830154,9.40931522 C15.829974,9.31951087 15.787674,9.23561957 15.715854,9.18406522" id="Fill-4"></path>
                                <path d="M13.332114,2.18098913 L15.386094,3.65740217 C15.432174,3.69029348 15.485814,3.7071087 15.539814,3.7071087 C15.582294,3.7071087 15.625134,3.69676087 15.663654,3.67625 C15.751854,3.62894565 15.807834,3.53470652 15.807834,3.43215217 L15.807834,0.316532609 C15.807834,0.164641304 15.687774,0.041576087 15.539814,0.041576087 L13.485474,0.041576087 C13.337514,0.041576087 13.217634,0.164826087 13.217634,0.316532609 L13.217634,1.95573913 C13.217454,2.04517391 13.259934,2.12943478 13.332114,2.18098913" id="Fill-6"></path>
                            </g>
                        </g>
                    </g>
                </g>
            </g>
        </g>
    </g>
</svg>