<svg width="506.34714" height="508.11774" xmlns="http://www.w3.org/2000/svg">

 <metadata id="metadata7">image/svg+xml</metadata>
 <style type="text/css">path { cursor: pointer; stroke: #fff; }</style>
 <g>
  <title>background</title>
  <rect fill="none" id="canvas_background" height="402" width="582" y="-1" x="-1"/>
 </g>
 <g>
  <title>Layer 1</title>
  <g id="svg_1" stroke-width="2px" stroke="#fff">
   <g class="regiao" id="norte">
    <!-- Região NORTE -->
    <g display="inline" id="pa">
     <path id="path3991-7" d="m246.793549,36.570419l-1.537689,-0.768829l-1.153259,0.768829l-0.640686,1.665817l-1.409546,0.256271l-1.153259,-0.640701l-2.690918,-0.384415l-2.050232,-0.384415l-2.562805,0l-0.640686,-0.512558l-0.896973,1.153259l-1.409546,1.793961c0,0 0.512543,1.409531 1.025116,1.409531c0.512573,0 1.153259,1.281387 1.537689,1.793945c0.384399,0.512573 0.128143,2.178391 0.128143,2.178391l-2.178406,0.128143l-2.306488,-0.256287l-1.281403,-0.896973l-4.35675,0.768829l-1.537689,1.025116l-1.153259,-0.768829l-1.281372,-0.896988l-2.050232,-0.256271l-2.050232,0.384415l-1.153259,1.793945l-0.640717,1.025131l-2.178345,1.025116l-1.15329,0.512558l-1.153259,0.768829l-7.688354,0.128143l-0.128143,2.819077l-1.153259,2.050232l-1.665833,1.281403l-2.050232,0.512558l-1.409515,0.128143l-0.38443,12.81395l0.38443,3.459778l0.512543,2.434662l1.025116,2.819061c0,0 1.665833,2.819092 2.178375,2.819092c0.512573,0 2.562805,1.153229 2.562805,1.153229c0,0 1.153259,3.587921 1.665802,4.100494c0.512573,0.512543 1.537689,3.459747 1.537689,3.459747c0,0 1.281403,1.665833 1.793945,2.050262c0.512573,0.384399 1.793945,0.128143 2.947205,0.384399c1.153259,0.256287 5.12561,-0.128143 5.638153,0.256287c0.512573,0.38443 2.434662,1.409546 2.434662,1.409546l2.947205,2.178375l-19.349091,55.61261l-1.409515,1.409546c0,0 0,1.922089 0.512543,2.050232c0.512543,0.128143 2.819061,2.690918 2.819061,2.690918l2.050232,2.306519c0,0 1.025146,2.050232 1.281403,2.562805c0.256287,0.512543 1.793945,2.434631 1.793945,2.434631c0,0 1.537689,1.922119 2.050262,2.434662c0.512543,0.512573 1.922089,2.178375 2.306488,2.819092c0.38443,0.640686 0.76886,1.153259 0.897003,2.050232c0.128143,0.896973 -1.025116,3.844177 -1.025116,3.844177c0,0 -0.128143,1.153259 -0.128143,1.922089c0,0.76886 0.384399,2.562805 0.384399,2.562805l9.86676,10.63559l78.549622,6.406982l7.816528,-0.896973l1.665802,-0.896973l1.025116,-3.716064l0.256287,-3.587891l2.819061,-2.306519c0,0 3.203491,-2.434662 3.587921,-2.947205c0.38443,-0.512573 1.665802,-2.434662 1.665802,-2.434662c0,0 1.025146,-1.665833 1.665833,-2.690948c0.640686,-1.025116 0.768829,-2.050232 0.896973,-2.562775c0.128143,-0.512573 0.38443,-2.050232 0.38443,-2.947235c0,-0.896973 -0.256287,-1.665802 -0.512573,-2.819061c-0.256256,-1.153259 -0.512543,-2.306519 -0.512543,-2.306519l-0.640717,-1.537659l1.665833,-6.406982l1.922089,-1.922119l2.178375,-0.512543l2.306519,-1.153259l1.537659,-3.203491l1.665833,-2.050232l2.178375,-2.434662c0,0 0.640686,-3.203491 0.640686,-3.716064c0,-0.512543 -0.128143,-3.459747 -0.128143,-3.459747l-1.537659,-1.665833l-2.178375,-1.025116l-1.537689,-0.128143l-0.640686,-0.512543l0.768829,-3.972351l3.075348,-2.562775l3.459778,-2.306519l3.972321,-3.203491l2.562805,-2.947205l4.74115,-3.716064l2.050262,-1.793945l4.100464,-5.381866l1.665802,-2.050232l1.025116,-5.253723c0,0 0.76886,-2.562805 1.025116,-3.075378c0.256287,-0.512543 0,-2.819061 0,-2.819061l1.665833,-3.203491l1.153259,-2.690918l-0.128143,-3.716064l1.665802,-3.075348l0,-1.793945c0,0 -1.793945,-1.153259 -2.306519,-1.281403c-0.512543,-0.128143 -2.819061,-1.409546 -2.819061,-1.409546l-2.819061,-0.128143c0,0 -0.640717,-1.153259 -2.050232,-1.153259c-1.409546,0 -3.972351,0 -3.972351,0l-2.819061,-0.256256l-3.331635,-1.281403l-1.537689,-0.256287l-2.434631,1.153259l-1.281403,1.281403l-1.665833,0.768829c0,0 -1.665802,0.896973 -1.537659,1.665802c0.128143,0.76886 -1.025116,2.690948 -1.025116,2.690948l-1.793976,0.512543l0.512573,3.331635l0.896973,2.562805l-3.203491,3.075348l-2.178375,1.922089l-3.844177,0l-1.025116,-0.38443l-1.665833,0.38443l-1.281403,2.690948l-2.306488,2.050232l0.512543,-3.587921l1.665802,-4.100464l-0.512543,-0.640686l-1.409546,0.640686l-2.306488,1.025116l-2.434662,0l-1.537689,-1.537689c0,0 1.537689,-1.281372 2.306519,-1.281372c0.768829,0 3.203491,-0.896973 3.203491,-0.896973c0,0 2.819061,-1.409546 3.716064,-1.665833c0.896973,-0.256287 3.587891,-0.896973 3.587891,-0.896973l2.690948,-0.896973l1.665802,-3.331635c0,0 0.128143,-1.025116 1.409546,-2.178375c1.281403,-1.153259 2.178375,-1.537689 2.178375,-2.819061c0,-1.281403 0,-2.690948 -0.38443,-3.459778c-0.38443,-0.76886 -1.281372,-2.562805 -1.281372,-2.562805c0,0 -1.15329,-1.153259 -1.665833,-1.153259c-0.512573,0 -2.178375,0 -2.819061,0c-0.640717,0 -2.819092,-0.640686 -2.819092,-0.640686c0,0 -1.281403,-1.025116 -2.178375,-0.896973c-0.896973,0.128113 -2.050232,-0.128143 -2.434631,0.512543c-0.38443,0.640717 -2.178406,1.025116 -2.178406,1.025116c0,0 -2.178345,1.025116 -2.819061,0.640686c-0.640686,-0.384399 -1.922089,-0.640686 -1.922089,-0.640686l-2.690948,-0.512543l-1.793945,-1.281403l-2.947205,0.768829l-2.434662,2.434662l-1.793945,3.331635l-0.512573,3.844177l0.128143,3.075348l1.281403,2.178375l2.562805,3.716064l3.203491,0.512543l2.562775,0.76886l1.922119,1.793945l-2.178406,0.896973l-2.050232,2.050232c0,0 -1.153259,2.050232 -1.665802,0.896973c-0.512573,-1.153229 -2.050232,-3.331635 -2.050232,-3.331635c0,0 -1.153259,-1.409515 -1.665833,-2.050232c-0.512543,-0.640686 -1.793945,-1.281372 -1.793945,-2.434631c0,-1.153259 0,-2.050232 0,-2.050232l-2.306519,-2.178406l-1.409546,-0.256256l-3.844177,1.153259c0,0 -0.768829,0.384399 -1.537659,1.409546c-0.76886,1.025116 -3.587921,3.203461 -3.587921,3.203461c0,0 -1.793976,0.256287 -2.306519,0c-0.512573,-0.256256 -1.665802,-1.922089 -1.665802,-1.922089c0,0 -1.409546,-0.640686 -0.38443,-1.153259c1.025116,-0.512543 2.306519,-0.768829 2.306519,-0.768829c0,0 0.512543,0.128143 0.512543,-1.153259c0,-1.281403 0,-1.665802 0,-1.665802l-2.050232,-0.76886c0,0 -0.768829,-0.256256 -1.281403,-0.512543c-0.512543,-0.256287 -1.793945,-1.281403 -2.050232,-2.434662c-0.256287,-1.153259 -0.640686,-3.459778 -0.640686,-3.459778c0,0 0,-0.256256 -0.640686,-2.050232c-0.640717,-1.793945 -1.537689,-3.331635 -1.537689,-3.331635l-1.922089,-0.896973l-2.050262,-0.768829c0,0 -1.409515,-0.128143 -1.409515,-1.793945c0,-1.665833 -0.128143,-3.075363 -0.128143,-3.075363c0,0 -0.896973,-2.562805 -0.896973,-3.331635c0,-0.768829 -0.256287,-2.050232 -0.256287,-2.050232l-1.537689,-1.922104c0,0 -0.256256,0.768845 -0.768829,-0.896973c-0.512543,-1.665817 -1.025116,-2.690933 -1.025116,-2.690933c0,0 -1.025116,-1.281387 -2.050232,-2.050232c-1.025116,-0.768845 -2.690918,-1.409546 -2.690918,-1.409546l-1.025146,-0.384415l-2.819061,-2.819077c0,0 -1.665802,-1.025116 -2.306519,-1.025116c-0.640686,0 -3.459778,-0.896973 -3.972321,-1.153244c-0.512543,-0.256287 -3.075348,-0.512558 -3.075348,-1.025116c0,-0.512573 -1.153259,-2.306534 -1.153259,-2.306534l0,-2.050217l1.153259,-1.793961l-1.281403,-1.153259z" fill="#c5d7ef"/>
    </g>
    <g display="inline" id="ap">
     <path id="path3994" d="m247.262787,37.281265l-0.896973,2.050232l0.128143,2.050232c0,0 0.256256,1.537689 0.896973,1.793961c0.640686,0.256287 2.434662,0.896988 2.434662,0.896988l3.587891,1.409531l2.562805,1.281387l2.690918,1.409546c0,0 1.025116,0.640686 1.665833,1.409531c0.640686,0.768845 2.434631,1.665817 2.947205,2.050247c0.512573,0.384415 1.409546,1.665802 1.409546,1.665802l2.947205,4.484894l1.922089,3.587906c0,0 0.128143,2.178375 0.256287,3.075348c0.128143,0.896973 0.896973,3.203491 0.896973,3.203491c0,0 1.281403,1.153259 1.793976,1.537689c0.512543,0.384399 2.434631,1.793945 2.434631,1.793945l3.331635,5.381866l0.512573,3.331635l2.562775,2.947205l2.819092,0.76886l2.434631,0c0,0 0.256287,-2.947235 0.897003,-3.844208c0.640686,-0.896973 4.228607,-6.278839 4.228607,-6.278839c0,0 3.075348,-2.562805 3.459747,-2.690918c0.38443,-0.128143 1.537689,-2.434662 2.562805,-3.331635c1.025116,-0.897003 2.434662,-3.844193 2.434662,-3.844193l6.022552,-5.253738c0,0 2.178375,-3.075348 2.690948,-3.459763c0.512543,-0.38443 3.844177,-2.819077 3.844177,-2.819077c0,0 0.38443,-2.690933 -0.256287,-3.331635c-0.640686,-0.640686 -2.819061,-3.203491 -2.819061,-3.203491c0,0 -1.409546,-1.537674 -2.050232,-1.537674c-0.640717,0 -2.562805,0.512558 -3.587921,-0.128143c-1.025116,-0.640701 -2.562775,-1.793961 -2.562775,-1.793961c0,0 -1.665833,-2.050232 -1.793976,-2.56279c-0.128143,-0.512558 -1.537659,-3.459763 -1.537659,-3.459763l-0.512573,-3.331635l-0.640686,-3.075363c0,0 -0.896973,-2.050217 -0.896973,-3.075348c0,-1.025116 0.256256,-4.228607 0.256256,-4.228607c0,0 -0.640686,-1.665802 -0.896973,-2.947205c-0.256287,-1.281403 0,-1.665817 -0.38443,-2.690933c-0.384399,-1.025116 -1.153229,-2.050247 -1.793945,-2.562805c-0.640686,-0.512558 -1.153259,-1.153244 -1.665802,-1.665802c-0.512573,-0.512558 -1.922089,-2.819077 -1.922089,-2.819077c0,0 -0.897003,0.768829 -0.897003,1.281387c0,0.512558 -0.512543,4.228622 -0.512543,4.228622l0.128143,1.665817l-2.306519,3.075348l-1.793945,1.537674l-2.819092,2.178375l-0.512543,3.459763l-1.793976,3.075363l-1.537659,2.050232c0,0 -0.256287,-1.793961 -0.640717,0.512558c-0.384399,2.306519 -1.793945,3.587906 -1.793945,4.100464c0,0.512558 -1.281403,3.972336 -1.281403,3.972336l-1.922089,0.768829l-2.434662,-1.153244c0,0 -1.281403,-0.640701 -1.922089,-1.153259c-0.640686,-0.512558 -1.922089,-0.896988 -1.922089,-0.896988c0,0 -1.281403,0.128143 -1.281403,0.640701c0,0.512558 -1.665833,1.793961 -1.665833,1.793961l-2.434631,1.409531c0,0 -1.025116,0.640701 -1.922089,0c-0.896973,-0.640701 -2.690948,-2.434647 -2.690948,-2.434647c0,0 -1.793945,-1.537674 -2.690918,-2.178375c-0.897003,-0.640701 -2.690948,-0.512573 -2.690948,-0.512573l-1.281403,0l-1.793945,0.38443z" fill="#c5d7ef"/>
    </g>
    <g display="inline" id="to">
     <path id="path3951" d="m309.801544,193.201782l0.178375,-4.459198l1.783661,-2.318787l3.032288,-2.497131l2.497131,-2.318817l3.389008,-5.529388c0,0 -0.535126,-0.891846 0.178345,-2.318787c0.71347,-1.426941 0.71347,-1.248566 0.71347,-2.675507c0,-1.426941 -0.535095,-2.853912 -0.535095,-2.853912l-1.248566,-2.853882l0.891846,-3.567352l0.535095,-3.567383l1.783661,-1.605286l4.102478,-0.71347c0,0 0.35675,-0.71347 1.070221,-1.962067c0.71347,-1.248566 1.962036,-2.853882 1.962036,-2.853882l1.783691,-1.962036c0,0 0.891846,-0.535126 1.248566,-1.605316c0.35675,-1.070221 0.535095,-3.389008 0.535095,-3.389008l0.35675,-2.853882l0,-1.962036l-1.783691,-0.35675l-1.962036,-1.605316l-0.178375,-1.248566l2.675537,-1.426941l3.210602,0.535095l4.280823,2.497162l2.675537,0.71347l-0.35672,19.442108l-1.605347,1.783691c0,0 -2.140411,1.07019 -1.248566,1.248566c0.891846,0.178375 1.605316,1.605316 1.605316,1.605316l0.535095,1.962036l-1.426941,1.070221l0.35675,1.962036l3.567352,2.675537l4.994293,2.318787l2.140442,-0.35675l1.962036,-0.891846l1.783691,0l0,1.783691l-0.35675,1.783691l-1.962036,1.962036l-2.497162,3.745728l-1.426941,3.924103l-0.71347,1.426941c0,0 2.318787,0.71347 2.675507,1.248566c0.35675,0.535126 1.426971,2.497162 1.426971,2.497162l1.07019,0.71347l1.07019,1.962036l-1.07019,1.605316l0.535095,2.140411l2.318787,3.210632l2.497162,1.426941l2.853882,2.853882l-0.71347,1.783691l-3.567352,4.815948l-2.853912,4.994293l0.891846,1.962036c0,0 0.713501,1.605316 1.783691,1.962067c1.070221,0.35672 0.891846,-0.535126 1.248566,0.35672c0.35675,0.891846 0.35675,3.567383 0.35675,3.567383c0,0 -1.070221,2.140411 -1.070221,3.032257c0,0.891815 -0.178345,2.140411 0.71347,2.497131c0.891846,0.35675 1.248596,1.962067 1.248596,1.962067l-0.891846,1.605286l-0.535095,3.389008l-3.032257,0.178375l-2.675537,1.07019l-1.783661,0.71347l-1.605316,1.248596l-2.497162,1.248566l-2.497162,1.426941l-2.140411,-0.891846l-1.605316,-1.248566l-1.605316,-1.248566l-0.178345,3.567352l-3.389008,0l-2.318787,-1.605316l-1.962036,-0.178375l-1.783691,0.71347l-1.962036,-1.783661l-1.783691,-1.962067l-1.426941,-1.783661l-0.535095,-0.178375l-0.891846,0.891846l-1.605316,0l-0.71347,-0.891846l-0.535095,0.71347l-1.426941,3.745728l-1.605316,1.248566l-8.561676,-5.529388l-1.783661,-1.605316l-0.178375,-1.962067l-1.070221,-1.783661l-1.248566,1.605316l-1.248596,3.032257l-1.605286,0.178375l-0.891846,-7.491486l0.178375,-9.453491l-0.35675,-4.102478l2.140411,-1.962036l1.070221,-3.567352l0.535095,-5.351044l1.783691,-4.102478l1.426941,-1.605286l1.783661,-1.426971l1.070221,-2.140411z" fill="#c5d7ef"/>
    </g>
    <g display="inline" id="ro"/>
    <g display="inline" id="ac">
     <path id="path3013" d="m80.582214,208.602905l0.120239,-1.082184l0.961945,-1.202454l1.082191,-0.961945l0.841713,-0.961945l2.044136,0l1.322685,-0.480988l0.601204,-0.240479l2.404877,0l1.322678,-0.721466c0,0 0.240486,-1.442902 0.240486,-1.80365c0,-0.360718 1.683418,-1.923889 1.683418,-1.923889l0.721451,-1.202423l-0.84169,-1.202454l-40.762573,-19.118713l-4.449013,-3.006104l-1.923889,-0.240479l-5.050232,-0.841705l-4.929993,-0.961945l-4.449005,-0.961945c0,0 -4.689503,-0.841705 -5.290722,-1.082184c-0.601208,-0.240509 -4.208519,-1.202454 -4.208519,-1.202454l-6.733639,-2.525116l-3.847794,-2.044128l-2.52512,-0.480988l-3.126328,-1.80365l-2.28463,-1.563171l-1.56316,1.563171l-0.961952,1.202423l-0.48098,1.80368l0.360729,2.525085l1.923901,2.645386l0,2.765594c0,0 0,1.80365 0.480972,2.284607c0.48098,0.480988 2.164391,2.284637 2.164391,2.284637c0,0 1.442917,1.683411 1.923897,2.044159c0.480972,0.360718 2.404873,2.044128 2.404873,2.044128l1.56316,1.202423l2.765598,1.80368l-0.120239,1.202423l-1.80365,1.082184l-1.923901,1.563171l0.961948,0.841705l1.80365,-0.360718l2.044144,0.360718l1.082188,0.240479l4.689499,0.240509l1.322681,1.442902l0,1.442932l0,4.809753l4.08828,-0.240509l1.683411,0.480988l0.601223,0.480957c0,0 0.721458,-0.120239 1.202438,0.120239c0.480972,0.240509 1.563156,0.240509 2.404869,0.240509c0.841698,0 2.284622,-0.601227 2.284622,-0.601227l1.563164,-1.202423l1.683411,-0.480988l1.082191,-1.202423l1.082191,-1.683411l1.683411,-2.044159l1.683411,-0.961945l1.563171,-0.360718l0.961945,0.961945l-0.360725,2.164368l0.120239,3.126343l-1.322678,2.525116l-0.240486,2.404877l0.120239,2.404877l-0.841705,1.563141l-1.32267,2.645386c0,0 1.683395,1.322662 2.164375,1.322662c0.480972,0 1.563164,0.601227 2.044144,1.082184c0.480972,0.480988 1.923897,2.284637 1.923897,2.284637l2.164383,0.601227l0.601219,-1.683411l2.284622,-0.601227l1.683411,-0.240479l2.885849,-0.240479l1.442917,-0.601227l1.442924,-0.120239l1.803658,0.120239l0.601219,1.202423l1.32267,1.202454l2.044144,0.360718c0,0 1.442924,0.120239 2.164391,0.120239c0.721458,0 2.164375,-0.601196 2.164375,-0.601196l1.202438,-1.322693l1.082191,-1.202423l0.721458,-1.202454l0.721466,-1.563171l0.841705,-0.360718l0.601212,-0.360718l0,0.360718l0.120247,0.120239l-0.48098,-0.841705l0.240494,0.120239" fill="#c5d7ef"/>
     <path id="path3015" d="m78.417824,209.083893l-0.841705,-0.721466l-0.601219,-0.721466l-1.563171,-0.961945" fill="#c5d7ef"/>
    </g>
    <g display="inline" id="am">
     <path id="path3008" d="m140.479218,39.714661l2.455444,3.101608l1.033875,4.264709l4.781647,7.237091l0.387695,2.196976l0.129242,2.713913l0.129242,5.169342l-0.258484,4.523178l0.129242,3.747772l0.904633,3.360107l0.129242,1.938477l3.101593,4.006256l3.489319,3.101624l1.809265,-0.646179l1.163116,-1.809265l0.775391,-1.938507l1.163116,-2.455444l2.455414,-2.713928l1.163116,-0.646149l2.326202,0.387695l2.326202,0.775421l1.550812,2.326172l3.101624,0.904663l2.19696,-1.292358l0.129242,-3.101593l0.129242,-1.292358l1.809265,-0.904633l1.809265,-1.938507l0.387695,-2.067719l0.516937,-2.067749l2.067749,-1.163116l1.938507,-0.129211l1.938507,0l1.550781,0l1.163116,1.292328l2.84314,0.387695l1.680054,-0.646149l-0.129242,3.360046l0.775391,2.84314l0.387726,2.972382l1.550781,2.972382l1.809265,1.292328l2.067749,1.42157l0.646179,1.938538l0.904633,1.292328l1.42157,2.584656l0.775391,1.809296l0.904663,1.680023l10.080231,0.258484l2.455414,1.809265l2.326202,2.326202l-19.772736,55.441284l-1.292328,1.938477l1.033844,3.101624l1.680054,1.550812l2.584656,2.326202l1.033875,2.84314l-1.033875,1.163116l-0.387695,3.747772l-1.292328,5.427795l0,4.135498l-1.809265,4.781647l-4.006256,0.775391l-2.972382,-0.775391l-1.809265,2.19696l-30.240692,-0.516937l-3.747772,-1.163086l-1.42157,-0.775421l-1.938507,-0.646149l-1.42157,-0.387726l-1.550812,-0.775391l-2.19696,-1.163086l-1.680054,-1.42157l-1.680023,-1.680054l-1.680054,-1.680023l-1.033875,-1.42157l-1.033844,-0.646179l-5.944763,0.387695l-0.646179,0.387695l-1.550812,1.292358l-1.42157,1.809265l-0.646149,1.680023l-4.135498,-0.129211l0,1.680023l-1.033867,2.196991l-0.516922,1.292328l-6.07399,3.61853l-1.42157,0.516937l-1.163101,-0.129242l-2.196976,1.163116l-1.033875,1.550812l-0.516937,1.292328l-1.809265,1.292328l-1.550812,0.258484l-1.292328,1.292328l-2.84314,0.129242l-0.387711,0.258453l-3.360077,-2.584656l-4.523178,-0.646179l-1.292343,1.033875l-1.163101,1.809265l-1.292328,1.550812l-1.42157,1.680023l-0.646179,0.775421l-42.776352,-19.772766l-2.843147,-1.809265l-3.489304,-0.516937l-4.264709,-0.904633l-3.877022,-1.033875l-5.557053,-0.646179l-3.747768,-1.292328l-4.65242,-1.163116l-3.230839,-1.163086l-4.135483,-1.809265l-3.230839,-1.292358l-4.910889,-1.938507l-1.809273,-1.163086l-1.292339,-1.42157l0.129242,-1.163116l0.258469,-1.809265l0.64616,-1.163116l2.32621,-0.904633l1.809269,-0.387695l1.292339,-0.516937l0.387703,-2.326202l0,-4.523193l-0.12923,-3.489288c0,0 -0.387699,-2.067749 0.387699,-2.455444c0.775398,-0.387695 1.938511,-2.196991 1.938511,-2.196991l0.904629,-2.972351l1.550812,-1.163116l1.809269,-1.680023l2.196968,-1.680054l2.843143,-1.42157l4.264717,-2.067749c0,0 1.292332,-1.033875 2.326199,-1.033875c1.033875,0 3.360085,-0.516937 3.360085,-0.516937l2.32621,-1.292328l1.938499,0c0,0 1.292336,-0.646149 1.80928,-0.775391c0.51693,-0.129242 1.42157,-0.646179 1.42157,-0.646179l1.42157,-1.033875l8.658661,0.258484c0,0 0.51693,-2.326202 0.904625,-2.972382c0.387703,-0.646179 1.033875,-3.489319 1.033875,-3.489319l1.42157,-3.360077l1.421577,-4.393951l0.51693,-3.747772l2.455444,-5.815521l0.775398,-3.61853l0.775406,-1.938507c0,0 -0.516937,-15.378815 -0.516937,-15.895752c0,-0.516937 -1.033867,-3.230835 -1.033867,-3.230835l-1.938515,-1.550812l-2.972366,-0.775391l-1.42157,-2.067749l0.51693,-3.101624l-1.163101,-1.42157l-0.129234,-1.680038l0,-3.101608l2.584671,-0.258469l2.067741,-1.033859l2.067741,-0.904633l1.550797,-0.646179l1.938515,0.646179l0.90464,1.163101l1.42157,-0.387711l0.646172,-0.904633l-0.387711,-4.264709c0,0 -0.646164,-0.904633 -1.292336,-0.904633c-0.646164,0 -2.713905,0 -3.23085,0c-0.51693,0 -5.427803,0.129227 -5.427803,0.129227l0.258469,-8.27095l19.51429,0.516937l0.90464,-1.938507l1.163101,-1.292343l0.775406,0.129242l1.033867,1.163101l0.258461,1.42157l0.775406,0.646164l0.90464,-0.129227l0.646164,-0.775421l0.646172,-0.904617l0.51693,-0.904648l1.680038,-1.550797l0.775406,-1.42157l0.90464,-0.775406l1.033867,0.646164l0.387703,1.680038l0.516937,2.067749l0.129227,1.163086l1.680046,0.387711l0.51693,0.775406l0.516937,1.550797l0.129227,1.938507l-0.129227,1.680054l-1.033867,1.550797l0.387695,1.033875l0.90464,0.387695l1.809273,-0.387695l1.033867,-1.550812l1.809273,0.129242l1.163101,1.809265l0.258469,1.550812l0.904633,1.938492l13.828018,0.129242l1.163101,-1.550812l2.84314,0l1.292343,-0.775391l2.584671,-1.80928l2.584671,-2.196976l1.680038,-1.42157l1.80928,-1.550797l1.292328,-0.775406l2.196976,-1.163101l0.516937,-1.163101l0.387695,-1.80928l1.292336,-1.550812l1.809265,-0.904617l1.292358,-1.033875l3.360077,0.516922l2.067719,0l1.680054,-0.516922l1.163086,-1.292343z" fill="#c5d7ef"/>
    </g>
    <g display="inline" id="rr">
     <path id="path2999" d="m118.811714,12.162903l0.738159,1.181061l0.147629,0.885788l0,0.738159l0,1.033417l0.738159,0.59053l0.442902,0.738159l0.590515,0.738159l1.033432,0l1.033417,0l0.885788,0.442902l0.295273,0.738159l0.59053,0.738159l1.033417,0.295258l0.295273,1.033417l0,0.885803l-0.147644,1.033417l-0.295258,2.066849l-0.442902,0.442886l-0.295258,0.738174l-0.147629,1.476318l0.147629,1.476303l-0.295273,0.442902l-0.885788,1.033417l-0.295258,1.033417l0.147629,1.476334l0.147629,1.771576l0.738159,1.476318l1.033432,1.181061l1.476318,0.442886l1.033424,0.59053l2.066833,0.147629l1.476318,-0.295258l1.476318,0l1.328705,-0.885788l0.885773,-0.295273l1.476318,0.147629l1.181061,0.442902l0.885773,1.623947l0.885803,1.181046l1.033417,0.59053l0.885803,1.181061l0.295258,2.066849l0.590546,1.771576l0.885773,1.91922l1.033417,0.885788l1.181061,1.476318l0.295258,1.181061l0.590546,0.885788l0.738129,1.476318l1.181061,0.885788l0.147644,17.863464l0.590515,0.590515l0.147644,1.033417l0.147644,1.91922l0.295258,1.181061l1.033417,1.033417l0.590515,1.91922l1.033447,0.442871l1.033417,1.328705l1.033417,1.476318l1.181061,0.738159l0.885773,0.442902l1.328705,-0.442902l0.885773,-0.738159l0.738159,-1.623962l0.147644,-1.771576l1.033417,-1.476318l0.442902,-1.328674l1.033417,-1.033447l0.738159,-0.738159l1.328674,-0.885773l1.181061,0l1.476318,0.147614l1.033447,0.590546l1.476288,0l0.590546,1.328674l1.033417,0.738159l0.295258,0.885803l1.033417,0.442871l0.738159,0.295288l1.623962,-0.442902l1.328674,-0.590546l0.738159,-1.476288l0,-1.476318l-0.147614,-1.181061l0,-1.033417l1.328674,-0.442902l1.181061,-0.885803l0.738159,-0.738159l0.442902,-1.033417l0.442871,-1.328674l-0.147614,-1.476318l0.590515,-0.738159l0.590546,-0.885803l1.476318,-0.442902l2.362091,-0.147614l2.805023,0.147614l0.442871,0.442902l1.181061,0.738159l1.033417,0l2.066864,0.147644l1.476318,-0.147644l-0.147644,-11.515274l-2.657379,-2.657379l-1.476318,-1.623947l-1.623932,-1.771591l-1.181061,-0.885788l-1.328674,-1.919205l-1.181061,-0.738159l-1.033417,-3.690796l-0.295258,-1.91922l-1.181061,-1.328674l-1.181061,-1.181061l-0.885803,-0.738159l0.147644,-3.690796l0.738159,-2.952637l0.590515,-2.214478l-0.295258,-2.362106l0.738159,-1.771591l1.033417,-1.033417l0.885803,-0.885788l0.738159,-1.476318l1.033417,-1.033417l0.295258,-1.32869l-0.738159,-0.885788l-1.033417,-1.033432l-1.033417,-1.32869l-0.295258,-2.657364l-0.147644,-1.771576l-2.214478,-0.295273l-2.214478,0.147644l0,-1.476334l1.181061,-1.033417l0.885773,-1.033432l0.738159,-1.623947l0.295288,-1.033417l-1.181061,-1.771576l-1.033417,-1.32869l-2.362122,-0.295258l-2.214478,0l-1.623962,0l-1.033417,0.738159l-1.328674,0.738159l0.442902,1.771576l0.885773,1.181046l0.295258,1.771591l-0.442871,1.033417l-0.885803,1.033432l-1.328674,0l-0.738159,1.623947l-1.181061,-0.442902l-2.214478,0l-1.033417,-1.181046l-0.738159,-0.295273l-1.623962,0.59053l-1.771576,1.181061l-0.885773,1.033417l-1.033447,0.885788l-0.738159,0.885788l-0.442902,1.32869l-4.428925,-0.147629l-3.83844,-0.442902l-1.91922,0.885788l-1.033417,1.181061l-0.442902,1.476318l-0.738159,1.623962l-1.033417,1.328674l-1.033417,1.181061l-1.181061,0l-1.328674,-0.885788l-1.181061,-1.32869l-1.033417,-0.885788l-2.805023,0.442886l-1.328674,-0.590515l-0.885803,-1.033432l-1.033417,0.147629l-1.476318,1.476318l-2.362091,-0.590515l-0.885803,-1.181061l-1.033424,-1.476334l-1.181046,-0.590515l-3.24791,0.147629l-1.181061,-1.32869l-1.033417,-1.623947l-1.32869,-1.033417l-0.295258,1.033417z" fill="#c5d7ef"/>
    </g>
    <g display="inline" id="ro">
     <path id="path3018-8" d="m162.454071,183.48288l-2.611267,-1.367798l-3.979065,-1.119141l-1.865204,-0.994751l-3.233002,-1.11911l-2.113892,-1.616516l-1.616486,-1.616516l-2.238251,-1.865173l-1.367798,-1.492157l-1.243469,-1.367828l-4.227783,0.621765l-1.243469,0.124329l-1.616486,1.243469l-1.367798,1.616486l-0.870453,1.243469l-0.373016,1.367828l-2.238251,-0.497406l-1.492157,0.124359l-0.746063,1.989532l-0.994774,2.486938l-1.616501,2.23822l-3.357361,1.367798l-2.362579,1.616516l-1.492142,-0.621735l-1.616501,0.746094l-1.492157,1.243439l-0.497391,1.865204l-1.865189,1.367828l-1.74086,0.621704l-1.740845,1.243469l-2.486923,-0.373047l-2.362579,-0.373016l-1.367813,-1.367828l-2.113892,-0.870422l-2.113892,0l-1.616501,1.119141l-1.243454,1.492126l-2.113892,2.735626l-0.870422,1.616516c0,0 0.248688,1.367798 0.870422,1.367798c0.621735,0 1.616501,0.373047 2.113892,0.248688c0.497375,-0.124329 1.367813,-1.11911 1.367813,-1.11911c0,0 0.373032,-1.11911 0.870422,-1.11911c0.497391,0 1.989532,-0.746094 2.611267,-0.746094c0.621735,0 1.367813,-0.248688 1.865204,-0.248688c0.497375,0 0.621719,-0.621735 2.735611,-0.124329c2.113892,0.497375 1.616501,0.248688 2.486923,0.248688c0.870438,0 1.492157,0 1.989548,0c0.497375,0 1.740845,0.248688 1.740845,0.248688l0.124344,2.486938c0,0 -0.497391,1.865173 -0.497391,2.362579c0,0.497375 -0.746063,2.486908 -0.621719,2.984314c0.124344,0.497375 0.248688,2.611267 0.248688,3.35733c0,0.746063 0,2.486938 0,2.486938l-0.248688,2.984314c0,0 0.373032,0.994751 0.870422,1.989532c0.497375,0.994781 0.746078,1.865204 1.367813,2.23822c0.621735,0.373047 0.746063,3.108673 0.746063,3.108673c0,0 0.373047,0.994781 0.497391,1.492157c0.124359,0.497375 0.621735,1.740845 1.119125,2.113892c0.497375,0.373016 1.616501,1.616486 1.616501,1.616486l1.492142,0.870422c0,0 0,1.367828 0.746094,1.989563c0.746078,0.621735 1.11911,1.243439 1.11911,1.243439c0,0 0.124359,0.373047 0.621735,0.621735c0.497391,0.248688 0.373032,0.497406 1.243454,0.746094c0.870438,0.248688 1.119125,0.248688 1.74086,0.373047c0.621719,0.124329 1.367798,0.124329 1.616501,0.621704c0.248688,0.497406 1.243469,0.497406 1.243469,0.497406l1.740852,-1.11911l1.11911,-0.746094c0,0 0.870422,-0.124359 1.367798,-0.124359c0.497406,0 -1.11911,-1.11911 0.746094,0.124359c1.865173,1.243469 2.859955,2.735626 2.859955,2.735626l1.367798,0.497375c0,0 1.367828,-0.497375 1.989532,-0.746063c0.621765,-0.248718 1.367828,-0.621735 1.367828,-0.621735l0.497375,0.746063l1.492157,1.243469c0,0 0.248718,0.870422 0.746094,0.994781c0.497375,0.124329 2.486908,1.740845 2.486908,1.740845c0,0 0.621735,0.621735 1.119141,0.870422c0.497375,0.248688 1.989532,1.616486 1.989532,1.616486c0,0 0.994781,0.248688 1.865204,0.373047c0.870422,0.124359 2.735596,0 2.735596,0c0,0 1.119141,-0.124359 1.367828,0.497406c0.248688,0.621704 0.248688,0.994751 0.497375,1.492126c0.248688,0.497406 1.492157,0.994781 1.492157,0.994781l0.994781,0.248688c0,0 1.740845,0.621735 2.113892,1.243469c0.373016,0.621735 0.994751,1.11911 0.994751,1.11911c0,0 0.373047,0.248688 0.870422,0c0.497406,-0.248688 1.243469,-1.243469 1.740845,-1.243469c0.497406,0 1.989532,-0.373016 1.989532,-0.373016l1.740875,0.621704l1.616486,0.373047c0,0 0.124359,0.248688 0.746094,0.621735c0.621735,0.373047 2.984314,0.373047 2.984314,0.373047l2.23822,-1.865204l2.113892,-2.486908l1.616486,-3.233002l0.248718,-1.989563l1.740845,-1.740845c0,0 -0.124359,-1.243469 0.497375,-1.243469c0.621735,0 1.865204,-2.23822 2.113892,-2.735596c0.248688,-0.497406 1.243469,-0.497406 1.243469,-1.989563c0,-1.492157 -0.497375,-3.233002 -0.497375,-3.233002l-0.994781,-1.492157l-0.746094,-2.735596l-0.373016,-1.616516l1.367798,-1.616516c0,0 0.870422,-1.367798 0.746094,-1.865173c-0.124359,-0.497406 -0.497406,-1.740845 -0.497406,-1.740845c0,0 -0.497375,-0.994781 -1.367798,-1.243469c-0.870422,-0.248688 -2.486938,-0.373047 -2.486938,-0.373047l-2.735626,0.124359c0,0 -1.11911,-0.746094 -1.740845,-0.870422c-0.621735,-0.124359 -3.108643,-0.621735 -3.108643,-0.621735l-2.859955,-0.124359c0,0 -0.621765,-0.870422 -1.119141,-1.243469c-0.497375,-0.373016 -1.367798,-0.746063 -1.989532,-1.367798c-0.621735,-0.621735 -2.113892,-1.865204 -2.113892,-1.865204c0,0 -1.243469,-1.243469 -0.994781,-1.740845c0.248688,-0.497375 -0.621704,-2.735626 -0.621704,-2.735626l0.373016,-2.611267l1.367828,-2.486908l0.373047,-3.108673l0.497375,-1.989532l0,-2.113892l-0.870422,-1.989532l-0.497406,-1.740875l0.248688,-1.11911l0,-1.11911z" fill="#c5d7ef"/>
    </g>
   </g>
   <!-- Fim Região NORTE -->
   <g class="regiao" id="nordeste">
    <!-- Região NORDESTE -->
    <g display="inline" id="pe">
     <path id="path3978-9" d="m468.797791,183.707153l-0.838562,0.304932l-1.143494,0.838562l-1.905823,2.439453l-0.609894,1.143524l-0.991028,1.753357l-1.143494,-1.372223l-1.295959,-3.278015l0.152466,-0.991028l-2.134521,-0.152466l-1.143494,-1.067261l-1.143494,-0.076202l-1.143494,0.152466l-5.031403,-3.049316l-2.210754,-0.838562l-1.677124,-0.076202l-1.524658,1.448425l-2.210754,0.991028l-3.354279,1.677124l-1.295959,1.219727l-1.677124,2.591919l-2.36322,2.058319l-3.201813,0.991028l-2.058289,-1.448425c0,0 -1.600891,-1.067261 -1.753357,-1.372223c-0.152466,-0.304932 -1.524658,-1.448425 -1.753357,-1.753357c-0.228699,-0.304932 -1.448425,-1.600891 -1.448425,-1.600891l-1.295959,-1.295959c0,0 -0.686127,-1.067261 -0.533661,-1.372192c0.152466,-0.304932 -0.228699,-1.143494 0.304962,-1.448425c0.53363,-0.304932 2.286987,-1.372192 2.286987,-1.372192l1.067261,-0.381195c0,0 0.838562,-1.219727 1.067261,-1.524658c0.228699,-0.304932 1.295959,-1.448425 1.448425,-1.753357c0.152466,-0.304932 0.838562,-1.677124 0.991028,-1.982056c0.152466,-0.304932 0.609863,-1.219727 0.609863,-1.219727l-0.076202,-3.278015l-0.914795,-3.201813c0,0 -0.076202,-1.600891 0.381165,-1.82959c0.457397,-0.228699 1.600891,-0.457397 1.600891,-0.457397l2.591919,0.457397l6.479828,0.457397l3.12558,0l2.210754,0.53363l2.134521,2.820618l1.524658,2.515717c0,0 1.067261,0.076202 1.677124,-0.076202c0.609863,-0.152466 1.982056,-1.067261 2.515686,-1.372192c0.53363,-0.304932 1.219757,-0.838562 1.677155,-0.914795c0.457397,-0.076202 1.143494,0.53363 1.143494,0.53363c0,0 1.600891,0.304932 1.982056,0.304932c0.381165,0 0.991028,-0.381165 1.372192,-0.228699c0.381165,0.152466 0.838562,0.457397 1.372192,0.609863c0.53363,0.152466 1.82959,0.304932 1.82959,0.304932l2.058319,0.076202c0,0 1.600891,0.152466 1.982056,-0.152466c0.381165,-0.304932 1.219727,-1.143524 1.600891,-1.448425c0.381165,-0.304932 1.143494,-1.143524 1.524658,-1.448456c0.381165,-0.304932 1.219727,-1.524658 1.219727,-1.524658l0.838562,-0.381165l3.887878,-0.304932l2.058289,0.152466l0.457397,0.991028l-0.381165,0.991028l-1.372192,1.82959c0,0 -1.372162,1.677155 -1.372162,2.058319c0,0.381165 0.381165,1.600891 0.381165,1.600891l1.143463,0.686096l1.143494,-0.381165l5.107666,-0.53363l2.36322,-1.219727l4.040344,-1.067261l1.82959,-0.457397l2.36322,-0.304932l2.286987,-1.448425l2.36322,-1.448456l2.668213,-2.744385l1.905823,-1.524658l1.982056,-1.524658l0.381165,0.457397l0.914795,2.439453l-0.152466,3.887878l-0.914795,5.107635l0,4.421509l-0.076233,2.210754l-1.219727,2.287018l-0.762329,2.058289l-1.524658,1.753357l-1.448425,0.762329c0,0 -1.067261,-0.076202 -1.143494,0.304932c-0.076172,0.381165 -2.210754,0.762329 -2.210754,0.762329l-0.838562,-0.076202l-1.600891,-1.219727c0,0 -0.686096,-0.838562 -1.067261,-0.686066c-0.381165,0.152435 -1.219727,0.076172 -1.753357,0.686066c-0.53363,0.609894 -1.82959,0.686096 -2.439453,1.067291c-0.609863,0.381134 -2.134521,0.686096 -2.210815,1.143494c-0.076172,0.457397 -1.143494,1.219727 -1.448425,1.753357c-0.304932,0.53363 -1.295959,0.914795 -1.82959,1.524658c-0.53363,0.609863 -2.515686,0.686096 -2.515686,0.686096l-2.210754,0l-2.286987,-0.991028l-1.905823,-1.524658c0,0 -0.228699,0.076202 -0.53363,-0.53363c-0.304932,-0.609863 -1.067261,-1.448425 -1.067261,-1.448425l-1.29599,-0.53363l-0.991028,-0.991058l-0.53363,-0.609833l-1.067322,-0.533752z" fill="#c5d7ef"/>
    </g>
    <g display="inline" id="pi">
     <path id="path3959-0" d="m401.711853,138.564667l1.587921,-4.234467l0.70575,-0.70575l0.705719,-2.822968l-1.411469,-2.99939l-0.352875,-2.822968l0.352875,-1.764374l1.235046,-2.117218l1.940796,-2.293671l0.70575,-2.646545c0,0 0,-1.235046 0.70575,-1.764343c0.705719,-0.529297 2.646515,-1.587921 2.646515,-1.587921l2.822968,-0.882172l1.764374,-1.587921c0,0 0.176422,-1.058624 0.882172,-2.293671c0.70575,-1.235046 0.176422,-1.940796 0.882172,-1.940796c0.70575,0 2.646545,0.882172 2.646545,0.882172l2.293671,0.882172l0.352875,2.293671c0,0 -1.058624,1.587921 -1.058624,2.117249c0,0.529297 -1.411499,1.587921 -1.411499,2.293671c0,0.705719 0,2.822968 0,2.822968c0,0 0.882202,1.587921 1.940796,2.822968c1.058624,1.235046 2.117249,2.99939 2.117249,2.99939l1.058594,3.70517c0,0 -0.529297,1.411469 0,2.822968c0.529327,1.411469 -0.352875,3.528717 0.176453,4.587311c0.529297,1.058624 0.529297,3.352295 0.529297,4.058044c0,0.705719 -0.176422,0.882172 0.176422,2.117218c0.352875,1.235046 0,2.470093 0.529327,3.705139c0.529297,1.235046 1.058594,2.646545 1.411469,3.528717c0.352875,0.882172 0.70575,1.764374 0.882172,3.528717c0.176453,1.764343 0.352905,2.646545 0.70575,3.352264c0.352875,0.70575 0.529327,0.70575 1.235077,1.058624c0.705719,0.352875 1.587921,0.352875 2.117218,1.235046c0.529297,0.882202 0.70575,2.470123 0.70575,2.470123l-0.70575,1.940765l-1.411499,1.235077c0,0 -1.235046,1.764343 -1.235046,2.470093c0,0.705719 0.882172,4.410889 0.882172,4.410889l0.529327,2.99939c0,0 0,0.70575 -0.70575,1.764374c-0.70575,1.058624 -1.940796,2.99939 -1.940796,2.99939l-2.117218,2.99942c0,0 -1.587921,0 -1.940796,0.70575c-0.352875,0.70575 -1.411499,1.411469 -1.411499,1.411469l-2.99939,0.352875l-1.940796,1.764374l-1.764374,1.940796l-1.940796,2.646515l-2.646515,2.117249l-2.646545,0l-1.058624,1.940796l-1.587921,1.058594l-1.940796,0.70575l-4.587311,-2.470093l-2.117218,-1.235046l-2.646545,0l-2.470093,0.176422l-1.058624,2.99942l0,3.528717l-0.176453,3.352264l-1.764343,3.528717l-2.470093,2.293671l-3.175842,0.352875l-2.117249,0.352844l-2.646515,1.940826l-3.528717,1.587921l-3.881592,-1.235077l-2.117218,-1.940796l-2.293671,-2.117218l-2.470093,-1.764343l-2.822998,0l0.70575,-0.176453c0,0 0.529327,-0.529297 1.235046,-1.411469c0.70575,-0.882202 0.176453,-2.117249 1.058624,-2.99942c0.882172,-0.882172 1.058624,-1.587921 1.411499,-2.293671c0.352844,-0.70575 0.176422,-1.587921 0.176422,-1.587921c0,0 -1.235046,-0.882172 -1.235046,-2.29364c0,-1.411499 -1.058624,-2.117249 -1.058624,-3.528717c0,-1.411499 -0.176422,-3.352295 -0.176422,-3.352295l0.176422,-2.646545l1.058624,-2.117218l2.822968,-5.469513l1.235046,-6.351685l1.587921,-2.470093l3.352295,-1.411499l2.99939,-0.882172l3.881592,-1.411469l2.99942,-2.470123c0,0 2.293671,-2.29364 2.99939,-2.822968c0.70575,-0.529297 1.940796,-1.587921 2.99942,-1.587921c1.058594,0 2.99939,0 2.99939,0l1.764374,1.940796c0,0 0.529297,-0.352875 1.411499,-0.705719c0.882141,-0.352875 0.529297,-1.058624 1.940765,-1.058624c1.411499,0 2.822968,-0.70575 2.822968,-0.70575c0,0 1.764374,-0.352875 2.293671,-1.058624c0.529327,-0.70575 -0.529297,-1.411469 -0.70575,-2.822968c-0.176422,-1.411469 -0.882172,-1.764343 -0.882172,-2.646515c0,-0.882202 -1.058594,-3.175842 -1.058594,-3.175842l-0.70575,-2.117249l-1.058624,-3.528717l2.293671,-2.470093z" fill="#c5d7ef"/>
    </g>
    <g display="inline" id="se">
     <path id="path3984" d="m481.567902,206.774475l1.219482,-0.853668l0.975647,-0.853668l1.158508,-0.853638c0,0 0.243896,-0.670746 -0.060974,-0.975616c-0.304871,-0.304871 -1.280457,-1.158539 -1.280457,-1.158539l-0.914673,-0.731689l-0.731689,-0.670746l-1.46344,-1.402435l-1.585327,-1.158539l-1.219543,-1.158539l-1.524353,-1.219513c0,0 -1.219543,-0.914642 -1.46344,-1.097565c-0.243896,-0.182922 -1.219513,-0.73172 -1.646332,-1.036591c-0.426849,-0.304871 -1.46344,-0.670715 -1.768311,-0.731689c-0.304871,-0.061005 -1.951202,-0.792694 -1.951202,-0.792694l-1.341461,-0.304871l-1.280518,-0.182922l-0.914612,-0.243896l-0.548798,0.304871l-0.487793,1.036591c0,0 -0.182922,1.097534 -0.061005,1.341431c0.121948,0.243927 -0.121948,2.134155 -0.121948,2.134155l0.365845,0.73172c0,0 0,0.73172 0.548798,0.975616c0.548767,0.243896 1.280487,1.280487 1.280487,1.280487l0.792664,0.670715l0.548798,1.280487c0,0 -0.061005,0.609772 -0.182953,1.158539c-0.121948,0.548798 -0.670715,1.585388 -0.670715,1.585388l-0.609741,1.524384l-0.548798,1.097565c0,0 -1.097565,0.304871 -1.341461,0.365845c-0.243896,0.061005 -0.670746,-0.487793 -1.463409,0.365845c-0.792694,0.853668 -1.280487,1.158539 -1.280487,1.158539l-0.304901,1.097565c0,0 -0.304871,1.219513 -0.243896,1.707306c0.061005,0.487823 0.243896,2.256104 0.243896,2.256104l0.670746,0.670746l1.341461,1.219513c0,0 0.853668,1.097534 0.975616,1.402435c0.121948,0.304871 0.061005,0.670715 0.609741,1.158539c0.548798,0.487793 1.768311,0.487793 1.768311,0.487793l2.073181,0.975616" fill="#c5d7ef"/>
     <path id="path3986" d="m467.42157,218.725708l1.890259,0.670746l2.134125,0.304871c0,0 0.792694,-0.121948 1.280487,-0.609772c0.487823,-0.487793 1.158539,-1.707306 1.280518,-2.012177c0.121948,-0.304871 0.975586,-2.195129 1.097534,-2.621948c0.121948,-0.426849 0.609772,-2.134155 0.609772,-2.134155l1.03656,-1.158539l1.158569,-0.914642l1.585327,-1.402435l0.853699,-1.280487l1.219482,-0.914612l0.365845,-0.243927l0.487854,-0.304871l1.585327,-1.280487c0,0 0.853638,-0.243896 0.792725,-0.792694c-0.061035,-0.548767 -0.121948,-1.036591 -0.42688,-1.280487c-0.304871,-0.243896 -1.646301,-1.402435 -1.951172,-1.524384c-0.304932,-0.121948 -2.561035,-1.463409 -2.561035,-1.463409c0,0 -0.731689,-0.853668 -1.158508,-1.280487c-0.426819,-0.426849 -1.768311,-1.524384 -1.768311,-1.524384l-1.829254,-1.219513l-2.5,-1.707336l-2.256104,-0.853638c0,0 -1.829254,-0.670746 -2.560974,-0.73172c-0.731689,-0.061005 -2.195099,-0.426819 -2.195099,-0.426819c0,0 -0.73172,0.731689 -0.609772,1.158539c0.121948,0.426819 0.426819,2.073151 0.426819,2.073151l0.121979,1.524414c0,0 0.182922,1.524384 0.731689,1.707306c0.548798,0.182922 0.975616,0.853638 1.219513,1.036591c0.243896,0.182922 0.304871,1.951202 0.304871,1.951202l-0.304871,2.073181l-0.731689,1.158539l-1.036591,1.707306l-1.219513,0.548798l-2.865845,1.158539l-0.304901,1.76828c0,0 -0.121948,2.012207 -0.061005,2.317078c0.061005,0.304871 -0.243896,0.670715 0.73172,1.524384c0.975616,0.853668 1.890228,2.317078 2.256104,2.804871c0.365845,0.487823 0.975616,0.792694 1.463409,1.097565c0.487823,0.304871 1.707306,1.097565 1.707306,1.097565l0.000031,0z" fill="#c5d7ef"/>
    </g>
    <g display="inline" id="al">
     <path id="path3981" d="m464.187805,189.293549l0.914795,-2.210754l1.905823,-2.439453l1.753357,-0.76236l2.515717,0.914825l3.125549,1.82959c0,0 -0.838562,0.228699 0.304932,0.991028c1.143494,0.762329 2.058289,1.524658 2.058289,1.524658c0,0 1.753357,0.53363 2.058289,0.609863c0.304932,0.076202 1.143494,0.076202 1.677124,0.152466c0.53363,0.076202 2.591919,-0.686096 2.591919,-0.686096c0,0 1.524658,-0.838562 1.82959,-0.914795c0.304932,-0.076202 1.219727,-1.219727 1.219727,-1.219727l1.448486,-1.067261l1.905823,-1.143524l2.058289,-0.609833l1.295959,-0.304932c0,0 1.372192,0.304932 1.677124,0.609833c0.304932,0.304932 2.134521,0.686127 2.134521,0.686127c0,0 0.686096,-0.381195 1.143494,-0.381195c0.457397,0 1.982056,-0.686066 1.982056,-0.686066c0,0 1.372192,-0.914825 1.677124,-0.914825c0.304932,0 1.295959,-0.991028 1.295959,-0.991028l0.228699,0.762329l-2.36322,0.53363l0.457397,1.295959l0.152466,1.448456l-1.905823,2.286987l-1.753357,1.82959l-1.753357,1.143494l-0.991028,0.762329l-1.143494,2.058319c0,0 -1.448425,1.753357 -1.372192,2.134521c0.076172,0.381165 0,1.219727 -0.076233,1.524658c-0.076172,0.304932 -1.219727,1.524658 -1.219727,1.524658l-1.219727,1.982056l-1.219727,0.53363l-1.524658,1.524689l-2.05835,0.152435c0,0 -1.600891,-1.82959 -1.982056,-1.982056c-0.381165,-0.152466 -2.36322,-1.295959 -2.36322,-1.295959l-1.82959,-1.82959l-1.677124,-1.524658l-2.210754,-1.82962l-2.439453,-1.372162l-2.210754,-0.838593l-2.439484,-0.762329l-2.058289,-0.381165l-0.762329,-0.686096l-0.838562,-1.982056z" fill="#c5d7ef"/>
    </g>
    <g display="inline" id="pb">
     <path id="path3971" d="m458.470306,169.396698l1.448425,-0.304932l1.067261,0.381165c0,0 0.609863,0.53363 0.991028,0.53363c0.381165,0 2.668152,0.076202 2.668152,0.076202l1.753387,-0.076202c0,0 0.609863,-0.304932 1.448425,-0.686096c0.838562,-0.381165 1.448425,-1.295959 1.448425,-1.295959l0.53363,-0.762329l1.067261,-1.295959l0.762329,-1.143494c0,0 2.210754,-0.228699 2.668152,-0.228699c0.457397,0 3.354279,0.228699 3.354279,0.228699l0.076172,0.762329c0,0 -0.762329,0.686096 -0.914795,1.067261c-0.152466,0.381165 -1.677094,2.439453 -1.677094,2.439453c0,0 -0.533661,1.219727 -0.381195,1.600891c0.152496,0.381165 0.152496,0.609863 0.381195,1.143494c0.228699,0.53363 0.304932,0.914825 0.609863,1.143524c0.304901,0.228699 0.762299,0.152435 1.448395,0.076202c0.686096,-0.076202 0.152466,-0.304932 1.372192,-0.457428c1.219788,-0.152466 0.762329,-0.304932 1.982117,-0.228699c1.219727,0.076202 2.134521,-0.381165 2.439453,-0.381165c0.304932,0 1.295959,-0.381165 1.753357,-0.609863c0.457397,-0.228699 0.457397,-0.762329 1.295959,-0.762329c0.838562,0 1.143494,-0.381165 2.286987,-0.457397c1.143494,-0.076202 1.143494,-0.457397 1.982056,-0.457397c0.838562,0 1.143494,-0.228699 1.905823,-0.228699c0.762329,0 1.067261,-0.381165 1.600891,-0.457397c0.53363,-0.076202 1.295959,-0.609863 1.905823,-0.991028c0.609863,-0.381165 1.143494,-1.067261 1.448425,-1.295959c0.304932,-0.228699 1.295959,-0.991028 1.600891,-1.219727c0.304932,-0.228699 1.600891,-1.372192 1.600891,-1.372192l0.686096,-0.914825l1.067322,-0.914764c0,0 0.53363,-0.914825 0.838562,-1.067291c0.304932,-0.152466 1.067261,-0.838562 1.067261,-0.838562l1.524658,-0.609863c0,0 -0.609863,-1.372192 -0.914795,-1.982056c-0.304932,-0.609863 -0.914795,-1.524658 -0.914795,-2.439453c0,-0.914795 -0.228699,-1.600891 -0.228699,-1.600891c0,0 0.076172,-0.609863 -0.609863,-1.29599c-0.686096,-0.686096 -1.448425,-1.600891 -1.448425,-1.600891l-0.381226,-0.457397l-4.650208,0.076202l-1.219727,0.686096l-1.448425,1.219757l-0.914795,0.609833l-1.372192,0.381195l-1.219727,-0.914825l-1.82959,-1.372192l-0.457397,-0.991028l-1.372192,0.228699l-1.143494,0.762329l-0.991028,0.76236c0,0 0.152466,1.448425 0.152466,1.753357c0,0.304932 -0.457397,3.201782 -0.457397,3.201782l-1.143494,0.914795l-1.982056,0.152466l-1.600952,-1.372192c0,0 -0.457397,-0.686096 -0.838562,-0.686096c-0.381165,0 -3.582916,-0.381165 -3.582916,-0.381165c0,0 -1.524689,0 -1.82959,-0.228699c-0.304962,-0.228699 -0.609894,-0.991028 -0.609894,-0.991028l2.896881,-3.735443l0.457397,-1.524658c0,0 0.762299,-0.991028 0.304901,-0.991028c-0.457367,0 -0.457367,-0.304932 -1.143494,-0.304932c-0.686066,0 -0.914764,-0.076202 -1.372192,-0.076202c-0.457397,0 -1.295959,0 -1.295959,0l-2.058289,0.914795c0,0 -1.372192,0.838562 -1.82959,0.838562c-0.457397,0 -1.982056,1.295959 -1.982056,1.295959l-1.600891,0.838562l-1.677155,0.762329l-1.295959,-0.228699l-1.448425,-0.457397l-0.914795,-0.991028l-1.143494,-0.228699l-0.381165,0.304932l-1.295959,2.134521l-0.152466,2.744415l-0.381165,1.753357l-0.609863,1.448425l-0.609863,1.524658c0,0 0,2.134521 0.381134,2.287018c0.381195,0.152435 0.838593,1.905792 0.838593,1.905792l0.076202,1.219757l-0.609863,1.219727l-0.991028,0.838562l-0.076202,0.076202l0.457397,0.53363l1.219727,0.609863l1.295959,0.381165l0.838593,0.076294z" fill="#c5d7ef"/>
    </g>
    <g display="inline" id="ma">
     <path id="path3968" d="m361.877258,84.297363l-1.40329,1.40329l-1.20282,2.405609l0,2.60611l-0.80188,2.20517l-1.002319,2.806549l-1.20282,2.20517l0,2.60611l-1.00235,3.407959l-0.40094,2.80658l-0.60141,2.20517l-1.80423,2.40564l-2.205139,2.405609l-1.80423,3.00705l-1.60376,0.80188l-2.0047,1.80423l-2.405609,1.603729l-2.0047,2.20517l-2.20517,2.60611l-2.004669,1.403259l-2.40564,1.20282l-1.80423,2.20517l-2.20517,1.60376l-1.403259,2.205139l-0.40094,1.40329l0.20047,1.80423l2.004669,0l1.80423,-1.00235l2.20517,-1.00235l2.606079,0.20047c0,0 3.20752,2.0047 4.009399,2.20517c0.80188,0.20047 1.60376,1.20282 1.60376,1.20282l-0.40094,18.643646l-1.80423,2.205139l-1.00235,1.20282l1.80423,1.60376l-0.80188,2.60611l0.20047,2.606079l3.20752,2.40564l3.207489,1.60376l3.40799,1.202789l2.405609,-0.400909l2.20517,-0.80188l0,1.403259l-1.20282,1.80423l-4.009369,3.808929l-1.60376,6.014069l2.80658,2.0047c0,0 0.801849,0.20047 1.603729,1.603729c0.80188,1.40329 1.00235,2.40564 1.00235,2.40564l0.20047,1.40329l0.60141,5.212189l2.40564,2.40564l3.407959,1.60376c0,0 0.40094,1.403259 1.60376,1.804199c1.20282,0.40094 2.20517,-0.40094 2.20517,-0.40094l1.60376,-4.209839l1.40329,-3.20752l-1.60376,-4.009369l-0.80188,-5.613129l0,-3.40799c0,0 2.80658,-3.407959 3.20752,-4.410309c0.40094,-1.00235 1.403259,-6.815948 1.403259,-6.815948l1.40329,-3.608459l2.80658,-1.60376l4.209839,-2.004669l3.20752,-0.20047l2.606079,-1.40329l2.40564,-2.40564l1.80423,-1.804199l1.60376,-1.20282l2.405609,-0.60144l1.60376,0.80191l1.20282,1.00235l2.40564,-0.80188l1.002319,-0.60141l2.0047,-0.40097l2.80658,-0.801849l1.40329,-2.20517l-4.811279,-12.830017l2.60611,-3.00705l1.20282,-2.80658l1.60376,-2.806549l0.400909,-3.00705l-1.804199,-3.608429l-0.20047,-2.60611l1.00235,-2.20517l1.804199,-1.804199l1.80423,-3.608459l1.60376,-2.60611l3.808929,-2.004669l1.804199,-1.20282l1.00235,-3.00705c0,0 1.00235,-1.20282 0.20047,-1.20282c-0.80188,0 -3.207489,0 -3.207489,0c0,0 -1.60376,-0.60141 -2.40564,0.20047c-0.80188,0.80188 -2.60611,1.00235 -2.60611,1.00235l-2.0047,-2.40564c0,0 -3.007019,-1.60376 -4.009369,-2.205139c-1.00235,-0.60141 -2.0047,-1.60376 -3.00705,-1.60376c-1.00235,0 -3.207489,0.20047 -4.009369,0.40094c-0.80188,0.20047 -3.608459,1.603729 -3.608459,1.603729l-2.205139,0.80188l-2.80658,1.00235l-1.80423,1.60376l-1.403259,2.0047l-1.40329,1.60376l-1.80423,2.60611c0,0 -1.20282,-0.80188 -0.80188,-1.60376c0.40094,-0.80188 1.40329,-5.212219 1.40329,-5.212219l0.60141,-2.60611l-0.40094,-2.606079l-1.60376,-1.20282l1.60376,-2.40564l0.80188,-1.804199l-2.60611,-2.0047l-4.610779,-3.00705c0,0 0.20047,-1.00235 -1.20282,0c-1.40329,1.00235 -2.20517,1.20282 -2.20517,1.20282l-1.00235,-1.80423l-2.405609,-2.405609l-2.0047,-1.40329l-1.60376,-0.80188l-1.80423,0z" fill="#c5d7ef"/>
    </g>
    <g display="inline" id="rn">
     <path id="path3965" d="m474.903778,132.048431l-2.99939,0.70575l-1.587921,1.411469l-1.764374,0.882202l-1.411499,0.705719l-0.705719,2.293671l-1.235046,1.940796l-1.235046,3.70517l-1.764374,2.117218l-1.235046,2.470093l-1.940796,1.940796l1.587921,1.940796l2.646545,0.70575l2.99939,-1.411499l3.352295,-2.117218l1.940796,-0.882172l1.940765,-0.529327l1.940796,0.529327l-0.352875,1.587921l-1.587921,1.764343l-1.587891,2.117218l0.705719,1.764374c0,0 0.70575,0.176422 1.411499,0.352875c0.70575,0.176422 2.470123,0.176422 2.470123,0.176422l2.29364,0.176453l1.940796,1.940796l1.411499,0.705719l2.470093,-1.411469c0,0 0.352844,-0.176453 0.529297,-1.587921c0.176453,-1.411499 -0.176453,-3.881592 -0.176453,-3.881592l1.058594,-0.882172l1.764404,-0.176453l0.529297,1.235046l2.646545,1.764374l2.29364,-0.352875l1.411499,-1.058624c0,0 2.646545,-1.764343 3.528687,-1.587921c0.882202,0.176453 1.940796,0 1.940796,0l2.293701,0.176453l-0.352905,-2.646545l-0.882141,-4.234467l-1.235046,-4.234436l-1.587952,-2.293671c0,0 -1.235046,-1.587921 -2.470093,-1.587921c-1.235046,0 -3.528687,-1.058624 -3.528687,-1.058624l-4.058044,0l-3.175842,-1.411469l-1.411499,0l-4.057983,-1.411499c-0.988403,-0.762085 -0.17334,-1.275421 -2.96521,-2.286285c-0.684326,-0.122284 -1.177063,2.097595 -1.764374,1.940796" fill="#c5d7ef"/>
    </g>
    <g display="inline" id="ce">
     <path id="path3962" d="m421.796631,107.347412l-1.058594,2.470093l-1.587921,1.764374l-0.529327,2.99939l0.352875,2.293671l1.058624,2.293671l1.235046,2.293671l1.587921,3.352264l0.882172,5.116638l0,3.70517l0.352875,3.528687c0,0 0,1.940796 0.176422,2.646545c0.176453,0.70575 0.529327,2.646545 0.529327,2.646545l1.235046,5.116638l0.882172,3.528717l0.882172,2.293671l1.940796,2.470093l1.411499,1.058594l0.352875,1.587921l-0.882202,2.99942l-1.235046,1.940796l-0.176422,0.352875l0.176422,0.352844l0.882202,0.000031l-0.352875,0.176422l0.176422,0.352875l0.176453,0l0.529297,-0.352875l-1.058624,-0.352875l1.235046,0.176422l4.587341,0.352905c0,0 4.234467,0.176422 4.940186,0.176422c0.70575,0 3.70517,0 3.70517,0l1.764343,0.70575l1.058624,2.470093l1.940796,3.175842c0,0 0.882172,0 1.764343,0c0.882202,0 2.470093,-1.764343 2.470093,-1.764343c0,0 1.235077,-1.411499 2.117249,-1.587921c0.882172,-0.176453 1.235046,-1.235077 1.235046,-1.235077l1.058624,-1.235046l-1.235077,-1.940765l-0.705719,-2.646545c0,0 0.176422,-1.764374 0.882172,-2.646545c0.70575,-0.882172 0.529297,-4.763763 0.529297,-4.763763l1.587921,-2.646545l3.175842,-2.646515l1.411499,-2.293671l1.411469,-2.822968l3.175873,-7.057434l3.881561,-2.470093l2.822968,-0.70575l0.70575,-0.70575l-2.822968,-3.352264l-3.352264,-2.293671c0,0 -2.117249,-1.411499 -2.822998,-1.764374c-0.705719,-0.352844 -4.763763,-2.470093 -4.763763,-2.470093l-1.764343,-2.117218c0,0 -1.235046,-1.940796 -2.293671,-2.470093c-1.058624,-0.529327 -5.99881,-3.528717 -5.99881,-3.528717l-2.99939,-2.293671l-4.587341,-2.99942l-4.058014,-1.058594l-4.410919,-2.470123l-2.646515,0.176453l-1.587921,1.764343l-2.99942,0.176453l-3.705139,-0.176453l-2.646545,0.352875z" fill="#c5d7ef"/>
    </g>
    <g display="inline" id="ba">
     <path id="path3954" d="m370.100983,207.210052l-1.940796,-2.117218l-2.822968,-1.587921l-2.822968,0l-2.117249,0.882172l-1.058594,2.99939l-3.352295,4.058044l-1.587921,2.99939l0.176453,1.235046l1.587921,2.822998l1.235046,1.058594l1.235046,1.235046l-0.882172,1.235046l-0.352875,4.058044l0.352875,1.587921l1.235046,1.764343l0,1.940796l-0.70575,2.99942l-0.529297,2.470093l0.70575,11.115448l0,2.470093l2.470093,2.470093l0.529297,4.234467l0.529327,3.881592l0.176422,2.117218l2.822968,1.411499l4.940186,-1.411499l3.881592,-2.822968l4.410889,-3.881592l2.470123,-1.940796c0,0 1.764343,-0.352844 2.646515,-0.352844c0.882202,0 3.175842,-0.352875 3.175842,-0.352875l1.411499,-0.529327l1.058624,-0.882172l1.235046,-0.70575l1.411469,0.70575l-1.235046,1.411499l-0.70575,1.411469l0.882202,4.234467l2.822968,0.882172l2.293671,-1.235046l2.470093,-1.058624l3.175842,1.411499l2.822968,2.117218l2.117218,2.646545l1.587921,1.587921l3.70517,-0.176453l3.352264,1.411499l3.881592,2.822968l3.528717,3.881592c0,0 0,1.058624 0.70575,1.058624c0.70575,0 4.940186,-0.70575 4.940186,-0.70575l2.646545,0l2.646545,0.352875l4.058014,2.117218l2.29364,2.117218l-0.352844,1.764374l-2.646545,1.587921l-1.411499,2.822968l-0.705719,2.99942l-2.293671,3.881561l-2.117249,2.293671l3.881592,4.763763l1.058624,1.411499l2.99942,3.175842l3.352264,2.470093l1.764374,0.529297l1.411469,-2.29364l1.587921,-4.587341l1.058624,-5.822388l1.411469,-4.763763l1.764374,-4.763763l0.705719,-3.528717l1.058624,-4.587311l0.882202,-3.175842l1.058594,-2.293671l-1.764343,-2.117249l0.352844,-16.58493l-0.882172,-0.70575l0,-1.764343l-1.235046,-2.117249c0,0 -1.411469,-0.882172 -0.70575,-0.882172c0.70575,0 1.587921,-0.882172 1.587921,-0.882172c0,0 1.235046,-0.176453 0.529327,-1.411499c-0.70575,-1.235046 -1.235046,-2.293671 -1.235046,-2.293671l1.764343,-1.058594l1.058624,-1.764374l1.764343,-1.587921c0,0 0.70575,-1.411469 0,-1.587921c-0.705719,-0.176422 -1.764343,-0.529297 -1.764343,-0.529297l-0.176453,-0.882172l1.411499,-1.235077l0.352875,-1.235046l1.764343,-0.705719l1.764374,0.176422l0.529297,1.411499l0.882172,1.764343l1.235046,1.058624l1.940796,-2.293671l1.587921,-2.470093l1.764374,-1.587921l0.70575,-1.940796l1.235046,-2.293671l1.058594,-2.822968l1.764374,-1.587921l0.529297,-1.058624l-3.528717,-0.352875l-2.99939,-2.117218l-1.235046,-1.764374l-2.117249,-2.470093l0.176422,-2.29364l0,-2.293671l2.117249,-0.70575l2.117218,-0.529327l1.235046,-2.117218c0,0 0.176453,-1.587921 0.70575,-2.293671c0.529297,-0.705719 0.529297,-2.470093 0.529297,-2.470093l-1.764343,-1.235046l-1.587921,-2.117218l0,-2.99942l0,-2.822968l-2.117218,-1.940796l-1.587921,-2.822968c0,0 0.529297,-2.117218 -0.882202,-1.940796c-1.411469,0.176422 -3.705139,-1.764343 -3.705139,-1.764343l-1.587921,0.529297l-1.940796,-1.587921l-3.175842,-1.764343l-1.940796,-0.882202l-1.587921,0.176453l-1.764343,1.411469l-2.99942,1.587921l-3.881592,2.117249l-1.411469,2.117218l-1.940796,2.293671l-1.235046,0.882172l-2.646545,0.70575l-2.117218,-1.764374c0,0 -1.235046,-0.529297 -1.587921,-1.235046c-0.352875,-0.70575 -1.764374,-2.293671 -1.764374,-2.293671l-1.764343,-1.764343l-1.235046,-1.411499l-1.058624,-0.352844l-4.587311,2.29364l-3.175842,4.234467l-1.940826,1.764374l-1.411469,-0.352875l-2.293671,1.058594l-1.235046,1.764374l-1.235046,1.411469l-1.764343,-0.529297c0,0 -0.882202,-0.176453 -1.587921,-0.529297c-0.70575,-0.352875 -2.117249,-1.411499 -2.117249,-1.411499l-1.058624,-0.70575l-1.764343,0.176453l-2.293671,-0.352875l-1.235046,-0.529297l-1.940796,1.058594l-1.058624,1.764374l-0.176422,6.528107l-1.058624,3.352295l-0.882172,1.764343l-2.646515,1.940796l-3.352295,0l-1.764343,0.882172l-0.882172,0.529297l-2.117249,1.940796l-2.470093,0.882202l-2.99942,-0.882202l-1.411469,-1.587921l-1.058624,-0.529297z" fill="#c5d7ef"/>
    </g>
   </g>
   <!-- Fim Região NORDESTE -->
   <g class="regiao" id="centro-oeste">
    <!-- Região CENTRO-OESTE -->
    <g display="inline" id="go">
     <path id="path3937" d="m310.831909,235.924896l-2.412262,-1.447388l-0.964935,-0.771912l-0.385956,-1.157898l0,-2.315796l-1.350861,-1.447357l-0.771942,0l-1.254395,1.92984l-0.771912,1.92981l-0.868439,1.833313l-1.254364,0.578949l-0.096497,2.508789l0.192963,2.315796l-0.28949,2.315765l-0.675415,1.254395l-1.157898,1.833344l-0.096497,1.350891l-0.28949,2.026306l-0.868408,1.157898l-1.061401,1.061401c0,0 -0.096497,1.447357 0.096497,2.026306c0.192993,0.578949 0.096497,2.122803 0.096497,2.605255c0,0.482483 -0.289459,2.122833 -0.289459,2.122833c0,0 -0.868439,1.061371 -0.868439,1.447357c0,0.385956 -1.254395,1.64035 -1.254395,1.64035l-1.736816,0.868408l-1.64035,1.447388l-0.675446,0.868408l-1.350891,2.798248l-0.771912,3.473694l-1.64035,1.92981l-1.254395,1.157898l-1.833344,0.289459l-5.307007,6.657928l-0.192993,1.447357l-1.736847,2.315765l-1.254364,1.254395l-2.605286,2.798248l-1.061401,1.447357l-0.868408,2.122833l0.289459,2.315796l0.192993,3.57016l-0.771912,2.026306l-1.447388,2.315796l-0.964905,1.447388l7.14035,5.789459l2.605255,1.64035c0,0 2.894745,0.28949 3.666687,0.675446c0.771912,0.385956 3.473663,1.061401 3.473663,1.061401c0,0 2.412292,0.868408 3.280701,1.447357c0.868439,0.578949 3.184204,1.92984 3.57019,2.122803c0.385956,0.192993 2.798248,2.026337 3.184204,2.412292c0.385956,0.385956 3.184204,1.543854 3.184204,1.543854l0.482452,-0.385956l0.578949,-1.543854l2.315796,-1.543854l2.508759,-1.447388l1.254395,-1.254395l0.675446,-1.350861l0.868408,-1.447357l1.157898,-1.061401l0.964935,0l2.315765,-0.385986l2.122803,-0.482452l1.64035,-0.482452l1.447388,-0.675446l1.254395,0.385956l1.061401,0.675446c0,0 0.964905,0.868408 1.350861,0.868408c0.385956,0 0.868439,-0.096497 0.868439,-0.096497l1.736816,-2.798218l1.64035,-1.157898l3.280701,-0.675446l3.280731,0.482452l1.061401,0.964905c0,0 1.736816,0.28949 2.605255,0.482452c0.868408,0.192993 2.605255,0.192993 2.605255,0.192993l0.868439,-0.096497l1.350861,0.868408l2.701752,-1.061401l2.315796,-1.833344l2.122803,-2.701752l0.385956,-1.736816l0.28949,-1.92984l0.578949,-1.350861l-0.385956,-1.640381l-1.061432,-1.64035l-0.192963,-1.350861l1.64035,-1.350891l0.385956,-3.184204c0,0 -0.385956,-1.833313 -1.061401,-2.315796c-0.675446,-0.482452 -2.412292,-2.701721 -2.412292,-2.701721l-1.543854,-3.184235l-0.868408,-1.157898l0.123688,0.239594l4.60437,0.049896l1.254395,-2.605255l1.543854,-0.964905l1.92984,-1.64035c0,0 0.192963,-1.64035 -0.096527,-2.219299c-0.289459,-0.578949 -1.254364,-3.57019 -1.254364,-3.57019l0.578949,-2.219269l2.605255,-1.833344l0.675446,-1.736847l0.868408,-2.122803l0.192993,-1.254395l3.087708,2.122803l2.605255,1.447357l1.833344,0.482483l-0.482452,-8.973694l-1.833344,-2.605255l-1.350861,-1.92984l0,-14.184204l-3.763184,0l-1.736816,0.192993l-1.736847,1.061401l-2.21933,1.061401l-2.219269,1.64035c0,0 -1.157898,0.578949 -1.543854,0.771942c-0.385986,0.192963 -1.92984,0.771912 -1.92984,0.771912l-1.447388,-1.350861c0,0 -0.675415,-1.061401 -1.350861,-1.254395c-0.675446,-0.192993 -1.157898,0 -1.157898,0c0,0 -0.771912,0.771912 -0.771912,1.157898c0,0.385956 -0.192993,1.254364 -0.192993,1.254364l-0.868408,1.157898l-1.736847,-0.482452l-1.64035,-1.254364c0,0 -1.543854,-1.157898 -1.92984,-1.157898c-0.385956,0 -1.061401,0.096497 -1.061401,0.096497l-0.675446,0.482452l-0.964905,0.482452l-1.447357,-1.061401c0,0 -0.868439,-0.771942 -0.964905,-1.157898c-0.096527,-0.385956 -1.157898,-2.412262 -1.157898,-2.412262c0,0 -0.578979,-1.254395 -1.157898,-1.254395c-0.578949,0 -1.254395,0 -1.254395,0l-1.157867,1.254395l-0.578979,-0.771942l-0.868408,-0.192993l-1.350891,0.385956l-1.061401,1.447388l-0.675446,1.64035l-1.061401,1.736847l-1.543823,-1.061401l-1.833374,-0.771942l-1.350861,-0.771942l-1.543854,-1.061401z" fill="#c5d7ef"/>
    </g>
    <g display="inline" id="df">
     <path id="path3934" d="m330.128174,279.173248l15.35672,0l1.622192,-0.54071l0.108154,-1.946655l0.757019,-0.54071l-0.108154,-1.29776l-0.324432,-1.622192l-0.108154,-1.83847l-1.730347,-1.189606c0,0 -2.59549,-1.081482 -3.028076,-1.081482c-0.432587,0 -4.217682,0.108154 -4.217682,0.108154l-3.352539,0.108154l-0.216278,1.29776l-3.460663,-0.324432l-1.514069,-0.324463l-0.108124,2.054779l-1.514038,1.081451l0.324432,2.162933l0,1.622192l1.081451,0.108154l0.324432,0.865143l0.108154,1.29776z" fill="#c5d7ef"/>
    </g>
    <g display="inline" id="ms">
     <path id="path3910" d="m268.140839,302.805542l-3.078888,-1.539429l-1.231567,-1.539459l-0.769714,-0.923676l0,-2.155212l0,-2.771027l0,-2.309143l0,-1.385529l-1.539459,0.307892l-1.231537,0.769745l-0.615784,1.539429l-0.615784,1.69339l-0.769745,1.539459l-0.923645,0.307892l-1.847351,0.461823l-2.463104,-0.461823l-1.847351,-1.077637l-1.69339,-1.539429l-1.077606,1.077606l-1.077606,1.539459l-2.771027,0.307892l-3.694672,-0.769745l-1.69339,-1.231537l-1.385498,-1.539459l-2.155212,-0.615784l-2.771027,-0.307892l-1.539429,-0.769714l-1.385529,-0.923676l-0.769714,0.769745l-3.38678,1.231537l-2.617065,0.307892l-1.385498,0.307892l-1.69339,1.847351l-1.69339,0.923645l-2.001282,1.69339l-2.770996,0.153961l-3.694702,0.461823l-0.923645,2.155243l2.001282,2.001282l-0.153961,3.848602l-1.077606,3.38681l0,2.770996l0.769714,1.231567l0.153961,2.617035l-1.231567,2.463135l-2.924957,2.770996l-1.539429,2.309204c0,0 0.461823,1.231506 0.769714,1.84729c0.307892,0.615784 0.923676,1.69342 1.539459,2.155273c0.615784,0.461792 1.231537,1.077576 1.231537,1.077576l-0.923645,2.463135l-1.69339,0.615784l0,2.463135l0.461823,2.770996l0.153931,2.309143l0,2.924988c0,0 -0.153931,1.231506 0.769745,1.84729c0.923645,0.615784 1.231537,1.231567 1.231537,1.231567l0,2.463135l-0.153931,2.617065l-1.077606,2.309143l-0.923676,1.69342l-0.307892,1.847351l2.309174,0.615784l1.539429,-1.53949l1.69339,0.153992l1.385529,1.231506l4.310455,0.769714l3.232819,0.153992l2.155243,-0.153992l2.309174,-0.923645l3.232819,-0.307861l1.847351,0.307861c0,0 4.464386,2.309204 5.234131,2.770996c0.769714,0.461853 1.539429,2.463135 1.539429,2.463135l0.153961,4.002563l0,4.772278c0,0 0.615753,2.001282 0.769714,2.617065c0.153931,0.615784 2.001282,3.54071 2.309174,4.156494c0.307892,0.615784 1.847351,2.463135 1.847351,2.463135l1.231537,0.923645l2.155243,-2.463074l2.155212,-1.53949l1.847351,-0.769714l1.231537,1.385498l1.385529,2.924988l0,2.309143l0.769714,2.463135c0,0 -0.153931,0.615784 0.769714,0.307861c0.923676,-0.307861 1.385498,-1.231506 1.385498,-1.231506l0.307892,-2.309204c0,0 -0.615784,-1.539429 0.153961,-2.155212c0.769714,-0.615784 1.69339,-2.309204 1.69339,-2.309204l2.770996,-3.54071l1.385498,-2.463135l1.847351,-2.617065l1.231567,-3.078857l1.539429,-1.847351c0,0 3.540741,-2.001282 4.156525,-2.155212c0.615784,-0.153992 2.924957,-2.463135 2.924957,-2.463135l4.156494,-1.69342l2.770996,-2.617004l1.69342,-3.694702l2.770996,-4.156494l1.231537,-2.155212l1.231567,-2.617065l2.001282,-2.617065l0.307892,-3.38678l0.923676,-1.847351l2.617065,-1.69342l2.924927,-1.539429l1.231567,-0.923706l0,-3.54071l0.923676,-3.232849c0,0 -0.153961,-1.231567 0,-2.155212c0.153931,-0.923645 1.231567,-1.231537 0.153931,-1.847321c-1.077606,-0.615784 -4.002563,-2.617065 -4.002563,-2.617065c0,0 -2.463104,-2.001282 -3.078888,-2.309174c-0.615784,-0.307892 -2.770996,-1.539459 -2.770996,-1.539459l-2.463135,-1.385498c0,0 -1.077606,-0.307892 -2.155212,-0.307892c-1.077637,0 -4.772308,-0.923676 -4.772308,-0.923676l-2.309174,-0.615784l-1.077606,-1.231537l-2.770996,-2.155243l-2.463135,-2.001282l-1.847321,-1.69339z" fill="#c5d7ef"/>
    </g>
    <g display="inline" id="mt">
     <path id="path3905" d="m162.987244,182.859192l29.763153,0.697571l2.092743,-2.55777l3.720398,0.232513l2.55777,0l1.860199,-3.022827l0.697571,-5.11554l0.697571,-3.487854l0.232544,-4.650513l1.162598,-2.55777l0.697601,0.232544l2.55777,1.860168l2.092712,3.487885l1.627686,2.55777l-0.232544,3.720398l-0.465057,4.185455l1.627686,2.325226l8.37088,8.603424l4.883026,0.697601l17.904449,1.627655l19.29953,1.627686l19.997162,1.395142l16.276733,1.860199l6.743225,0l-3.022827,6.743225l-0.930115,5.348083l-0.697571,2.790283l-1.627655,2.55777l0.232513,7.905853l0,7.905853l0.232544,6.045624l0.232513,4.650513l-2.092743,4.185455l-0.697571,4.650482c0,0 -2.092712,1.395142 -1.627655,3.022827c0.465027,1.627655 -0.232544,5.81311 -0.232544,5.81311l-1.860199,3.022827l-3.255341,1.860199c0,0 -1.860199,1.395142 -1.860199,2.55777c0,1.162628 -1.162628,3.720398 -1.162628,3.720398l-1.860199,3.720398l-3.720398,1.162628l-2.092712,2.55777l-1.395172,1.860199l-2.790283,5.348083l-2.325256,2.55777l-2.325226,1.860199c0,0 -1.395172,1.162628 -1.395172,2.325256c0,1.162598 0.232544,4.185425 0.232544,4.185425l0.232513,3.487885l-2.790283,3.952911l-0.697571,0.697571l-2.790314,-1.627655l-1.860199,-2.790314l-0.232513,-3.255341l0,-5.11554l-3.022827,1.395142l-1.395172,3.952911l-3.720367,1.395172l-3.255371,-1.162628l-1.860199,-2.092743l-3.255341,2.55777l-1.860199,0.697601l-4.185455,-1.162628l-1.395142,-1.395172l-1.627686,-1.395142l-2.092712,-0.232513l-3.487854,-0.697571l-1.162628,-1.162628l-0.930115,-0.232513l-2.092712,1.860199l-3.255371,0.232513l-2.325226,0l-1.395172,2.325256l-2.790283,1.395142l-1.395142,1.162628l-1.860199,0.232513l-3.720398,0.232513l-1.627686,-0.930084l-1.162628,-3.255341l-2.092712,-1.162628l-2.790283,-2.55777l-2.092743,-2.092743l0,-4.650482l1.395142,-2.55777l0.465057,-2.092712l-0.465057,-0.930115l-1.395142,0.232544l-1.860199,1.162598l-2.092712,0.930115l-11.161194,0.232513l-1.627686,-1.395142l-1.395142,0l-1.395142,1.395142l-3.952942,-0.697571l-0.930084,-1.860199l-0.232544,-5.11554l-1.395142,-2.790314l-2.55777,-2.790283l1.627686,-2.55777l0.697571,-4.417999l1.860199,-3.022797l-0.930084,-5.348083l-1.860199,-4.185455l-1.860229,-2.55777l3.022827,-2.790283l1.860199,-1.860199l0.697571,-2.325256l0.232544,-2.790314l1.860199,-1.627655l1.627655,-2.092712l1.860199,-3.487885l0.465057,-1.627686l-0.697571,-1.860199l-0.697571,-2.325226l-0.930115,-2.092743l-0.232513,-1.395142l0.930115,-1.627686l0.930084,-1.162628l0,-1.627655l-0.465057,-1.162628l-1.627655,-1.395142l-2.092743,0l-2.790283,0l-1.860199,-0.465057c0,0 -2.325256,-0.232513 -3.255341,-0.232513c-0.930115,0 -3.022827,-0.697601 -3.022827,-0.697601l-2.325256,-1.395142l-2.790283,-2.325226l-1.395172,-1.860199l-0.232513,-3.720428l0.930084,-2.55777l1.627686,-4.185425l0.697571,-3.022827l-0.697571,-2.790314l-0.930084,-1.860199l0,-2.790283l0.232513,-1.162628z" fill="#c5d7ef"/>
    </g>
   </g>
   <!-- Fim Região CENTRO-OESTE -->
   <g class="regiao" id="sudeste">
    <!-- Região SUDESTE -->
    <g display="inline" id="mg">
     <path id="path3931" d="m302.44278,315.077698l-1.514038,0.54071l-2.271057,1.622192l-0.540741,0.865173l0,1.405914l-0.432587,1.514038l-0.324432,1.514069l-0.216278,1.946594l-0.108154,1.730347l0.648865,0.432556l1.622192,-0.108154l2.162933,-1.189575l2.487366,-0.865173l1.189575,0.757019l2.811798,1.297729l1.946625,0.648865l2.054779,0.108154l1.189606,-0.108154l0.865173,-0.757019c0,0 0.216278,-0.216248 0.865173,-0.108093c0.648865,0.108093 1.946625,0.108093 1.946625,0.108093l1.405884,0.432617l1.081482,0.865173l-0.108154,0.865173l0.216278,2.054749c0,0 -0.648865,1.838501 -0.216278,1.946655c0.432587,0.108154 0.432587,0.324402 1.405884,0.432556c0.973328,0.108154 1.514069,0 2.162933,-0.216309c0.648865,-0.216248 0.648865,-0.865173 1.081451,-0.865173c0.432587,0 1.514038,-0.54071 2.162933,-0.54071c0.648865,0 0.865143,-0.973328 0.865143,-0.973328l1.081482,-0.757019l1.83847,0.324463l4.217682,-0.108154l1.405914,0l0.973297,-1.081482l1.946625,-1.83844l1.838501,-0.432556l1.622192,0.108093l1.514038,0.648926l1.514038,2.703613l-0.108154,2.162903l0.324463,1.514038l0.648865,2.05481l0.324432,1.730347c0,0 -0.648865,1.189575 -0.648865,1.622192c0,0.432556 -0.108154,1.297729 -0.108154,1.297729l2.703644,4.650269l1.622192,1.405884c0,0 1.29776,0.54071 1.83847,0.54071c0.540741,0 1.946655,0 1.946655,0l0.757019,1.189636l-1.189636,2.271057l-1.297729,2.162903c0,0 0.216278,1.838501 0.432587,2.271118c0.216278,0.432556 0.865143,2.379211 0.865143,2.379211l0.432617,2.271057l1.081451,2.379211c0,0 1.622192,1.946594 1.83847,2.379211c0.216309,0.432556 2.487366,2.703613 2.487366,2.703613l3.028076,0.216309l2.487366,-1.081482l2.271057,-1.405884l1.730347,-0.973328l3.785095,-1.405884l2.811798,-0.757019l1.83847,-1.081482l1.189606,-0.108093l0.973328,-1.514038l1.83847,-0.324463l2.703644,-0.432556l2.919952,-0.540771l1.730347,-1.297729l2.162903,-0.216309l3.244385,-0.324463c0,0 6.380615,-1.405884 6.813202,-1.405884c0.432587,0 4.217682,-1.405884 4.217682,-1.405884l2.811798,-2.054749l1.730347,-3.13623l0.973297,-3.785156l0.108154,-3.568787l2.379211,-0.648865l0.54071,-1.622192l3.244385,-5.515442l4.217712,-2.379211l2.487335,-4.109558l1.405914,-3.785095l1.081451,-2.59552l1.622192,-3.676941l1.29776,-4.325867l1.946625,-3.89325l2.162903,-2.054779l1.622192,-2.162903l1.081482,-2.271057l0.865143,-0.432587l-1.405884,-1.946625l-1.514038,-1.730347l-1.189606,-1.29776c0,0 -1.405914,-1.405884 -0.757019,-2.487335c0.648865,-1.081482 1.730316,-2.379211 2.162903,-3.028107c0.432587,-0.648865 1.514038,-3.352509 1.514038,-3.352509l1.29776,-3.676971l1.514038,-1.405884l2.59552,-2.162933c0,0 0.432587,-1.189606 -0.108154,-1.730316c-0.540741,-0.540741 -1.730347,-1.622192 -1.730347,-1.622192l-1.622162,-0.648895l-2.919952,-1.730316c0,0 -1.189606,-0.432587 -1.622192,-0.540741c-0.432587,-0.108154 -2.162903,-0.108154 -2.162903,-0.108154l-7.462097,0.216309l-1.730316,-2.811798l-3.028107,-2.271088c0,0 -1.405884,-0.973297 -1.946625,-1.405884c-0.54071,-0.432587 -2.379211,-1.622192 -2.379211,-1.622192l-2.811798,-0.432587l-2.811768,0.108154l-2.054779,-2.162933l-1.29776,-1.730316l-1.405914,-1.622192l-2.054749,-0.865173c0,0 -1.622192,-1.297729 -2.054779,-1.297729c-0.432587,0 -1.081451,-0.216309 -1.730347,0.108124c-0.648865,0.324432 -1.081451,-0.216278 -1.730316,0.540741c-0.648895,0.757019 -1.405914,0.432587 -1.838501,0.973297c-0.432587,0.540741 -1.83847,0.648895 -1.83847,0.648895c0,0 -1.189606,-0.865173 -1.081482,-1.29776c0.108154,-0.432587 0,-1.730347 0,-1.730347l-0.216278,-2.59549l1.514038,-0.865173l-0.216278,-1.29776l-0.648865,-0.648865l-2.162933,-0.108154l-1.081451,0.540741l-0.540741,1.081451l-1.946625,0.324432l-2.054779,0.108154l-1.405884,0l-0.973328,0.865173l-1.622192,0.216278c0,0 -1.297729,0.216309 -1.730316,1.081451c-0.432587,0.865173 -1.838501,2.05481 -1.838501,2.05481l-2.271057,1.83847l-1.83847,1.514038l-1.405914,0.973297l-2.487335,1.081482l-1.29776,0.54071l-2.59549,0.75705l-2.271088,-1.29776l-3.028076,-0.757019l-2.054779,-1.946625l-1.83847,-1.405914c0,0 -0.757019,2.703644 -0.757019,3.13623c0,0.432587 -0.432587,1.83847 -0.432587,1.83847l-1.730347,1.189636l-1.29776,0.432556c0,0 -1.514038,1.189636 -1.189606,1.622192c0.324432,0.432587 1.189606,3.460693 1.189606,3.460693l0.648895,1.946625c0,0 0.432587,0.108124 0.108124,0.648865c-0.324432,0.540741 -1.622192,2.054779 -1.622192,2.054779l-1.514038,1.29776l-1.297729,-0.108154l-0.216309,2.703644l-4.001404,0.432587c0,0 0.216309,2.811798 0.648895,3.028076c0.432556,0.216309 1.622192,2.162933 1.622192,2.162933c0,0 1.730316,1.946625 1.946625,2.59549c0.216278,0.648895 0.432587,2.811798 0.432587,2.811798c0,0 -0.324463,0.540741 -0.540741,0.973328c-0.216309,0.432587 -1.946625,1.946625 -1.946625,1.946625l0.648865,1.83847l1.189606,1.946625l0.216309,0.324432l-0.973328,2.162933l-0.216278,2.59549l-1.622192,2.162933l-1.946655,1.730316l-1.297729,1.081482l-2.271057,0.432587c0,0 -0.432587,-1.405914 -1.405914,-1.081451c-0.973297,0.324402 -3.244385,0.432556 -3.244385,0.432556l-2.59549,-0.865173c0,0 0.324432,-1.297729 -1.081451,-1.189575c-1.405914,0.108124 -4.43399,0.324432 -4.43399,0.324432l-2.919952,0.757019c0,0 -0.54071,-0.216309 -1.405884,1.081451c-0.865173,1.29776 -1.405914,2.487366 -1.405914,2.487366l-1.622192,-0.540741c0,0 -0.757019,-1.29776 -1.297729,-1.29776c-0.540741,0 -1.946625,-0.324432 -2.162933,0.324463c-0.216278,0.648865 -3.352509,1.297729 -4.217682,1.514038c-0.865173,0.216278 -3.244385,0 -3.244385,0c0,0 -1.405884,0.757019 -1.405884,1.405884c0,0.648895 -1.514038,1.730347 -1.514038,1.730347c0,0 0.324402,0.757019 -0.108154,1.29776c-0.432587,0.54071 -1.29776,0.757019 -1.29776,0.757019l-0.865173,0.648865z" fill="#c5d7ef"/>
    </g>
    <g display="inline" id="es">
     <path id="path3928" d="m412.892151,340.179138l1.66449,1.731079l1.997406,1.464722c0,0 0.932098,0.199768 1.66449,0.266357c0.732361,0.066589 0.86554,0 1.864227,0.066589c0.998688,0.066589 1.731049,-0.466064 2.396851,-0.399475c0.665802,0.066589 1.997375,0.665771 1.997375,0.665771l1.065308,0.86554l0.79895,0.732361l0.599213,-1.198425c0,0 -1.131866,-1.464722 -0.332916,-2.197144c0.798981,-0.732361 1.331604,-1.5979 1.864227,-1.864197c0.532654,-0.266296 1.265015,-1.065247 1.597931,-1.265015c0.332886,-0.199768 1.5979,-1.731079 1.5979,-1.731079c0,0 0.399475,-1.131836 0.998688,-1.66449c0.599213,-0.532593 1.331604,-1.531311 1.531342,-1.864197c0.199738,-0.332886 0.066589,-1.265015 0.399475,-1.997375c0.332886,-0.732422 0.532623,-1.930847 0.532623,-1.930847c0,0 0.399506,-1.531311 0.466064,-2.063965c0.06662,-0.532654 0,-1.265015 0.399475,-1.797668c0.399475,-0.532593 1.464752,-2.197083 1.464752,-2.197083c0,0 1.265015,-1.331604 1.66449,-1.797668c0.399475,-0.466064 -1.198425,0.332886 0.86554,-1.331604c2.063965,-1.66449 1.731079,-1.464752 2.063965,-1.731049c0.332916,-0.266327 0.06662,-0.79895 0.599213,-1.797668c0.532654,-0.998688 0.599213,-1.198425 0.399475,-1.731049c-0.199738,-0.532654 -0.79895,-0.732391 -1.265015,-1.797668c-0.466034,-1.065277 -0.665771,-1.065277 -0.79895,-1.864227c-0.133148,-0.79895 0.399475,-2.530029 0.599213,-3.062653c0.199738,-0.532654 1.198456,-2.396881 1.198456,-2.396881l-0.06662,-0.665771l-1.398163,-0.732391l-2.396851,-1.66449c0,0 -1.331604,-1.464752 -1.731079,-1.531311c-0.399475,-0.06662 -1.66449,-0.06662 -1.66449,-0.06662c0,0 -1.198456,0.532654 -1.131866,0.998688c0.066589,0.466064 -0.932098,1.930817 -0.932098,1.930817l-1.265015,1.464752l-1.331604,1.531342l-1.464752,1.864227l-2.063965,4.860291l-0.732361,2.663208l-0.732391,2.130524l-1.398163,2.53006l-0.86554,2.197083l-0.399475,1.531372l-1.065277,1.464722l-1.198425,2.396851c0,0 -1.265015,1.464783 -1.464752,1.731079c-0.199738,0.266357 -2.263702,1.331604 -2.263702,1.331604c0,0 -1.997406,1.331604 -2.063965,1.930786c-0.06662,0.599243 -0.732391,1.597961 -0.998688,2.330322c-0.266327,0.732361 -1.131866,1.731079 -1.131866,1.731079c0,0 -0.732361,0.466003 -0.599213,0.86554c0.133148,0.399475 0.665802,1.331543 0.665802,1.331543l-0.199738,-0.266296z" fill="#c5d7ef"/>
    </g>
    <g display="inline" id="rj">
     <path id="path3925" d="m377.886871,359.912292l2.407959,1.490662l2.17865,1.146667l0.802643,1.146606l-0.802643,1.146667l-0.343994,1.490662l0.917328,-0.343994l4.357269,0.343994l0.573303,0.687988c0,0 0.114685,0.917297 0.802673,0.917297c0.687988,0 0.343994,-0.343994 1.719971,-0.229309c1.375977,0.114624 1.031982,-0.573364 1.719971,-0.458679c0.687988,0.114685 0.917328,0.114685 1.94931,0.114685c1.031982,0 1.834656,-0.917358 1.834656,-0.917358l1.719971,-0.458618l0,-1.834656l0.917328,-2.293335l1.375977,-0.458618c0,0 0.458649,0.458618 0.573303,1.261292c0.114685,0.802673 -0.229309,1.834656 -0.229309,1.834656l0.343994,1.261292c0,0 0.229309,0.22937 1.146637,0.343994c0.917328,0.114685 9.975861,-0.229309 9.975861,-0.229309l0.22934,-3.439941c0,0 0.802643,-1.261353 1.605316,-1.261353c0.802643,0 1.490631,-1.490601 1.490631,-1.490601c0,0 0.458679,-0.687988 3.439972,-1.146667c2.981262,-0.458679 3.554596,-2.522644 3.554596,-2.522644l1.94931,-1.834656l0.917328,-1.375977l-1.146667,-2.178589c0,0 0.687988,-1.031982 0.802673,-1.490662c0.114655,-0.458679 1.375977,-3.439941 1.375977,-3.439941c0,0 -1.719971,-2.293335 -2.407959,-2.293335c-0.687988,0 -2.866638,0.114685 -3.669281,0.114685c-0.802673,0 -2.751984,0.114685 -3.439972,-0.343994c-0.687988,-0.458679 -2.407959,-1.605347 -2.407959,-1.605347c0,0 -1.146637,-1.375977 -1.605316,-1.375977c-0.458649,0 -2.293304,0 -2.293304,0l-0.573334,5.618591l-1.261292,2.866638l-0.687988,2.063965l-2.637299,1.490662l-3.210632,1.490662c0,0 -2.407959,0.802612 -2.866638,0.802612c-0.458649,0 -2.981262,0.22937 -2.981262,0.22937l-4.357269,0.917297l-3.439972,-0.114685l-1.490631,1.605347l-4.471954,1.031982l-3.325287,0.343994l-1.031982,1.375977z" fill="#c5d7ef"/>
    </g>
    <g display="inline" id="sp">
     <path id="path3922" d="m297.277313,327.691406l-0.687988,2.293274l-1.146637,1.261353l-2.40799,1.375977l-2.178619,0.687988l-1.031982,1.146667c0,0 -1.146667,1.605286 -1.031982,2.178589c0.114655,0.573364 -0.22934,2.063965 -0.22934,2.063965l-1.490662,2.064026l-1.031982,2.407959l-1.146637,2.178589c0,0 -1.261322,2.064026 -1.375977,2.522644c-0.114685,0.458679 -0.802673,0.802673 -0.917328,1.375977c-0.114655,0.573364 -1.490631,2.17865 -1.490631,2.17865l-1.032013,1.94928l-0.802643,1.376038l-1.490662,1.146606l-1.490631,1.375977l-1.834656,1.261353c0,0 -1.834625,0.114685 -1.834625,0.917297c0,0.802673 -0.573334,1.031982 -0.573334,1.031982l-0.458649,0.917358l2.866608,0.458618c0,0 1.720001,0.573364 2.293304,0.573364c0.573334,0 2.751984,-1.261353 3.210632,-1.261353c0.458649,0 2.293304,-0.917297 2.866608,-0.687988c0.573334,0.22937 4.471954,1.719971 4.471954,1.719971c0,0 3.898621,1.146667 5.045258,1.375977c1.146667,0.22937 1.719971,0.22937 3.783966,1.031982c2.063965,0.802673 3.89859,1.261353 3.89859,1.261353l2.293304,0.687988c0,0 2.637299,-1.031982 3.095978,-0.687988c0.458649,0.343994 2.407959,0 2.981262,0.343994c0.573334,0.343994 2.522644,0.114685 2.866638,0.687988c0.343994,0.573303 3.439941,1.605286 3.439941,1.605286l1.490662,1.834656l-0.343994,2.17865c0,0 -0.22934,1.490662 0,1.94928c0.22934,0.458679 0.802643,1.490662 1.031982,1.949341c0.22934,0.458618 0.114685,1.94928 0.458649,2.522583c0.344025,0.573364 0.22934,0.458679 0.917328,1.834656c0.687988,1.375977 1.720001,2.17865 1.834656,2.637329c0.114655,0.458618 0.114655,2.751953 0.114655,3.210632c0,0.458618 -0.229309,1.719971 -0.229309,1.719971l1.031952,1.490601c0,0 0.22934,0.114685 1.261322,0.343994c1.031982,0.22937 1.375977,-0.687988 1.834656,-0.687988c0.458649,0 1.490631,-0.802612 1.490631,-0.802612l2.522644,0.229309l0.687988,1.719971l-0.22934,3.210632l2.17865,0.687988l1.834625,-0.343994l2.637299,1.031982l1.605316,-1.490662l1.605316,-1.605286c0,0 0.687988,-1.605286 1.261322,-1.719971c0.573303,-0.114685 2.063965,-1.490662 2.866638,-1.490662c0.802643,0 2.178619,-0.917297 2.178619,-0.917297c0,0 1.375977,-1.490662 2.063965,-1.490662c0.687988,0 1.719971,-1.031982 1.719971,-1.031982l1.720001,-0.802673c0,0 1.719971,-1.605286 2.637268,-1.94928c0.917328,-0.343994 0.573334,-0.573364 2.063995,-1.146667c1.490631,-0.573303 1.605286,-1.490662 2.063965,-1.719971c0.458649,-0.22937 0.687988,-1.261292 1.490631,-1.490662c0.802673,-0.229309 2.522644,-1.490662 2.522644,-1.490662c0,0 1.146637,-1.261292 1.719971,-1.261292c0.573334,0 1.719971,0 1.719971,0l1.605316,0.229309c0,0 0.802673,1.719971 1.375977,1.719971c0.573334,0 1.605316,-0.687988 1.605316,-0.687988l0.573334,-1.261292l1.146637,-1.261292l0.687988,-0.458679l3.439972,-2.17865l3.210602,-0.458679l2.063995,-1.261292l-0.458679,-1.031982l-0.917328,-1.031982l0.688019,-1.031982l1.490631,-0.687988c0,0 0.802643,-0.458679 1.261322,-0.573303c0.458649,-0.114685 1.261322,-0.802673 1.261322,-0.802673l0.229309,-1.490662c0,0 -1.605286,-1.031982 -2.063965,-1.146667c-0.458649,-0.114624 -2.751953,-1.031982 -2.751953,-1.031982l-0.917328,-0.917297l-2.178619,0c0,0 -1.146667,1.031982 -1.605316,1.375977c-0.458679,0.343994 -2.866638,0.458679 -2.866638,0.458679l-1.834625,0.917297l-1.834656,0.458679c0,0 -0.573334,-0.22937 -0.917328,0.229309c-0.343994,0.458679 -1.94931,1.375977 -1.94931,1.375977c0,0 0.802673,-0.458679 -0.458649,0.573364c-1.261322,1.031982 -3.898621,1.375977 -3.898621,1.375977l-1.605286,-0.458679l-1.261322,-1.490662l-1.146667,-2.063965l-0.802643,-1.375977l-1.031982,-1.490662l-1.146667,-1.834656l-0.458649,-1.719971l-0.343994,-1.94928l-0.687988,-1.490662c0,0 0,-0.802612 0.573334,-1.375977c0.573303,-0.573303 1.261292,-1.719971 1.261292,-1.719971l1.146667,-1.94928l-1.490662,-1.375977l-2.178619,-0.22937l-1.834656,-0.687988l-0.917328,-1.146667l-1.375977,-1.834595l-1.605316,-3.325317l1.146667,-1.94928l-0.343994,-2.522644l-1.031982,-1.94928l0.229309,-1.949341c0,0 0,-1.031982 -0.343994,-1.719971c-0.343994,-0.687988 -0.802643,-1.375977 -0.802643,-1.375977l-1.719971,-2.063965c0,0 -0.573334,0 -1.834656,0.114685c-1.261322,0.114624 -1.94931,-0.344055 -2.637299,0.229309c-0.687988,0.573303 -1.375977,1.146667 -1.375977,1.146667l-1.146637,1.719971l-0.802673,0.458618l-1.94931,0l-3.210602,-0.114624l-2.17865,-0.458679c0,0 -1.261292,0.343994 -1.031982,0.802673c0.22934,0.458618 -0.573334,1.605286 -0.573334,1.605286l-2.407959,-0.229309l-0.917328,1.261292l-2.637268,0.114685l-0.344025,-2.17865c0,0 0.344025,-1.261292 0.573334,-1.719971c0.22934,-0.458679 0,-1.605286 0,-1.605286l-1.490631,-0.458679c0,0 -0.343994,-0.573303 -1.146667,-0.687988c-0.802643,-0.114685 -2.063965,-0.114685 -2.063965,-0.114685l-1.490662,0.22937l-0.229309,1.146606l-1.261322,0.114685l-1.719971,0l-3.095978,-1.031982c0,0 -1.605286,-0.458679 -2.063965,-0.687988c-0.458649,-0.229309 -1.490631,-1.146667 -1.490631,-1.146667l-1.146667,0.229309l-0.687988,0.917358l-0.573303,0.229309l-1.834656,0.687988l-0.802673,0.114685l-1.71994,0.343994l-0.114685,0.687988z" fill="#c5d7ef"/>
    </g>
   </g>
   <!-- Fim Região SUDESTE -->
   <g class="regiao" id="sul">
    <!-- Região SUL-->
    <g display="inline" id="rs">
     <path id="path3919" d="m261.659576,419.723877l2.27774,-0.133972l1.473816,0l1.339844,0.401917l1.473846,0.803955c0,0 1.339844,0.133972 2.143738,0.133972c0.803925,0 1.875793,0 2.545715,0c0.669922,0 3.349609,0 3.349609,0l1.607819,0.133972l1.339844,0.53595l2.143738,0.669922l1.339844,-0.133972l2.679718,0.401917l2.679688,1.741821l2.009766,0.401917l1.339844,0.401978l1.875793,1.205872l2.411713,2.545715l3.081635,2.411682l1.473816,2.009766l1.071899,2.143799l2.143738,1.339844l2.411713,1.473816l2.947662,0l2.545715,0.53595c0,0 -0.267975,1.071838 -0.267975,1.607788c0,0.53595 -1.339844,2.81366 -1.339844,2.81366l-1.205872,2.813721l-0.535919,2.545715c0,0 0.401947,0.937866 0.937897,0.937866c0.535919,0 1.473816,-0.267944 1.473816,-0.267944l1.205872,0.401917l0.937897,0.669922l0.267975,1.071899l-5.895325,8.173035l-3.617584,6.565247l-4.421478,6.565247l-4.287537,4.421509l-1.339813,2.143738l-2.411743,1.205872l-2.947662,0.401917l-2.411713,2.277771c0,0 -2.009766,3.081604 -2.143768,3.617554c-0.133972,0.53595 -1.473816,2.009766 -1.473816,2.947693c0,0.937866 -0.53595,2.411682 -0.53595,2.947632c0,0.53595 -1.339844,4.019531 -1.339844,4.019531l-6.029297,4.957458c0,0 -1.607819,1.205872 -2.143738,1.74176c-0.53595,0.53595 -3.617584,2.679688 -3.617584,2.679688l-1.607819,1.607849l-1.473816,-2.411743c0,0 -0.937927,-2.143738 -0.937927,-2.81366c0,-0.669922 -0.133972,-2.009766 0.803925,-2.545715c0.937897,-0.53595 3.483612,-4.287476 3.483612,-4.287476l-0.53595,-2.947693l-3.081635,-2.679688c0,0 -2.545715,-1.607788 -3.081665,-2.545715c-0.535919,-0.937866 -2.81366,-3.349609 -2.81366,-3.349609l-3.617584,-3.215637l-2.947662,-2.143738l-2.679688,-2.143738l-3.483612,-1.071899l-2.545685,-1.339844l-2.009796,-2.679688c0,0 -1.473816,-2.009766 -2.143738,-2.143738c-0.669922,-0.133972 -2.009766,-0.267944 -2.009766,-0.267944l-1.339844,1.339783l-1.071869,1.205872l-1.741821,1.607849c0,0 -1.339844,0.401917 -1.473816,-0.134033c-0.133972,-0.535889 -0.53595,-3.751526 -0.53595,-3.751526l-0.401947,-1.875793l-1.473816,-1.473816c0,0 -1.339844,-1.473816 -1.875793,-1.607849c-0.53595,-0.133972 -1.339844,-0.803894 -1.339844,-0.803894l-1.473846,-1.473816l-1.607788,-1.741821c0,0 -0.803925,-0.669922 -1.473846,-0.535889c-0.669922,0.133972 -1.875763,0.267944 -1.875763,0.267944l-1.875793,2.27771l-1.473816,1.339844l-2.143768,0.937927l-2.27774,-1.875793l-0.133972,-1.607788l3.081635,-3.751587l3.885559,-3.215637l2.679688,-3.617615l1.607819,-2.009705l3.483582,-2.411743c0,0 0.134003,-0.53595 0.803925,-2.009766c0.669922,-1.473816 1.205841,-2.679688 1.205841,-2.679688l1.473846,-1.607849l2.81366,-2.009766c0,0 2.81369,-1.071838 3.751587,-1.071838c0.937866,0 2.143738,-1.607849 2.143738,-1.607849l1.473846,-2.81366l2.009766,-1.473816l2.679688,-0.669922l2.81366,-0.803894l1.071869,-1.473877l1.339844,-2.009766l3.081665,-1.473816l2.411713,-1.473816l1.741791,-1.607849l2.27774,-0.937866l1.875793,-0.669922z" fill="#c5d7ef"/>
    </g>
    <g display="inline" id="sc">
     <path id="path3916" d="m327.4664,406.09552l-1.60141,0.08429l-2.528534,0.252869l-2.275696,1.264282l-2.697113,-0.337158l-1.938568,1.264282l-2.528534,-0.927124l-1.685699,-1.348572l-2.359985,-0.842834l-1.348541,-0.590027l-1.348541,0l-1.517151,0l-1.348541,0.505737l-1.51712,0.927124l-3.034271,1.264282l-1.432831,0.842834l-1.938568,0.842834l-1.938538,1.348572l-1.769989,0.758545l-0.758545,1.011475l-2.022858,0.927124l-2.444244,0.252808l-2.022827,0l-1.264282,-0.674255l-1.685699,-0.674255l-1.264282,-0.674316l-1.51712,-0.168579l-0.758575,-0.168518l-1.264252,-0.674316l-0.758575,-0.505676l-0.674286,-0.421448l-1.938538,-0.252869l-1.011414,0.08429l-1.769989,0.168579l-2.697113,0.08429l-1.938568,-0.589966l-2.022827,-0.252869l-1.938538,-0.252869l-0.674286,0l-0.505707,0.674316l-0.842865,0.674255l0.337158,9.945618c0,0 4.551392,-0.421448 4.972809,-0.08429c0.421417,0.337158 1.179993,1.264282 1.51712,1.264282c0.337128,0 0.08429,0 1.179993,0c1.095703,0 3.371399,0 3.371399,0l2.275665,0.08429l2.275696,0.08429c0,0 1.095703,0.927124 1.769989,0.927124c0.674286,0 2.275696,0.084351 2.275696,0.084351c0,0 1.011414,-0.252869 2.022827,-0.168579c1.011414,0.08429 1.685699,0 2.107117,0.421387c0.421448,0.421448 1.348572,1.348572 1.685699,1.517151c0.337158,0.168579 1.685699,0.927124 1.685699,0.927124c0,0 2.359985,0.337158 2.697113,0.421448c0.337158,0.08429 1.60141,0.758545 1.685699,1.095703c0.08429,0.337097 1.854279,1.51709 1.854279,1.854248c0,0.337158 1.348541,0.927124 1.854248,1.179993c0.505707,0.252869 1.095703,0.674255 1.60141,1.348572c0.505707,0.674255 2.107117,1.769958 2.107117,2.107117c0,0.337097 0.421417,1.854248 0.421417,1.854248l1.348572,1.432861c0,0 1.51712,0.421387 1.938538,0.758545c0.421448,0.337158 2.022858,1.264282 2.022858,1.264282l0.842834,-0.08429l3.287109,0.08429l1.095703,0.674255l0.168579,1.179993l-0.589996,1.60144l-1.011414,1.179993l-1.011414,1.685669c0,0 -0.758575,1.179993 -0.758575,1.517151c0,0.337097 -0.273102,1.816833 -0.188812,2.153992c0.08429,0.337158 -0.195221,0.232605 -0.026611,0.90686c0.168579,0.674316 1.564026,-0.36377 2.406891,-0.02655c0.842834,0.337097 1.864899,0.857727 2.792023,1.026245c0.927124,0.168579 1.123474,-1.158569 1.123474,-1.158569l0.804443,-1.469116c0,0 0.758575,-1.854248 1.179993,-2.107117c0.421417,-0.252869 0.927124,-1.348572 0.927124,-1.348572l2.444275,-1.179993l1.432831,-1.264282l2.191406,-1.601379c0,0 1.264282,-1.517151 2.107117,-1.68573c0.842865,-0.168518 1.854279,-1.179932 1.854279,-1.179932c0,0 0.168549,-2.359985 0.337128,-3.034302c0.168579,-0.674255 0.168579,-6.827026 0.168579,-6.827026l-0.252869,-1.77002l-1.095703,-1.264282c0,0 0.674286,-4.467102 0.337158,-5.225647c-0.337158,-0.758545 -0.505707,-5.225647 -0.505707,-5.225647l0.08429,-1.938538l-0.08429,-1.179993c0,0 -0.842865,-0.337158 -0.927155,-0.842834c-0.08429,-0.505737 -0.08429,-1.517151 -0.08429,-1.517151l1.011414,-0.337158l1.011414,0.252869l1.011414,0.337158c0,0 0.421448,0.421387 0.758575,0c0.337128,-0.421448 0.758575,-1.264282 0.505707,-1.60144c-0.252869,-0.337097 -0.927124,-1.011414 -0.927124,-1.011414l-0.842896,0.084167z" fill="#c5d7ef"/>
    </g>
    <g display="inline" id="pr">
     <path id="path3913" d="m254.060242,385.49115l1.075836,-1.553955l0.239044,-1.79303l0,-2.032166l1.075836,-1.31488c0,0 1.434448,-2.271179 1.912598,-2.629761c0.478119,-0.358643 2.151642,-2.868896 2.151642,-2.868896l1.673492,-2.510254l1.195374,-2.510254l1.075806,-2.629822l1.075836,-1.31488l1.912598,-1.553955l3.107941,-0.836792l2.749329,-0.119507c0,0 2.749329,0.358582 3.466553,0.239075c0.717194,-0.119568 2.988403,-0.597717 2.988403,-0.597717l1.553955,-1.075806l0.956299,0c0,0 3.107941,0.836792 3.58609,0.717224c0.478119,-0.119568 2.151642,1.075806 2.151642,1.075806l2.271179,0.358643l3.107941,0.956299l3.825165,0.597656l1.912567,1.075806l1.79306,0.956299l2.271179,-0.358582c0,0 2.868866,-0.119568 3.466553,0c0.597687,0.119507 3.466553,0.239075 3.466553,0.239075l2.988403,1.195374l2.151642,0.956238c0,0 0.956299,1.075867 1.195374,1.912598c0.239075,0.836731 0.239075,1.673523 0.239075,1.673523c0,0 -0.358612,0.836731 -0.358612,1.673523c0,0.836731 -0.239075,1.79303 0.119537,2.271179c0.358612,0.478149 1.912567,2.629761 2.271179,3.466553c0.358612,0.836731 0.597687,1.673462 1.075836,2.390686c0.478119,0.717224 1.195343,1.434448 1.195343,2.032104c0,0.597717 0,1.912598 -0.239075,2.390747c-0.239075,0.478149 -0.597656,0.836731 -0.597656,0.836731l0.119507,2.510254l1.434448,0.597717c0,0 1.553986,0.478149 2.032104,-0.119568c0.478149,-0.597656 0.717224,-1.31488 0.717224,-1.31488l2.390717,0.239075l1.79306,0.597656l0.119537,1.793091l0,2.032104l1.912567,1.075806l2.510254,-0.119507c0,0 1.195374,0.478149 1.195374,0.956238c0,0.478149 -0.836761,3.107971 -0.836761,3.107971l-1.553955,0.119507l-2.151672,-1.195313l-1.434418,0.836731l-1.553986,0.836731l0.358612,0.956299l1.673523,0.836792l1.075806,1.195313l-0.836731,1.195374l-1.075836,1.553955l-0.717224,1.793091l-1.434448,0l-1.195343,-0.119568l-1.434418,0.478149l-1.195374,0.239075l-1.79306,0.119568l-1.195343,0.119507l-0.956299,0.956299l-1.434418,0.478149l-3.227478,-0.836792l-1.075836,-0.956238l-0.836761,-0.478149l-1.553955,-1.075867l-2.032135,-0.358582l-2.510254,0.119507l-1.195343,0.717224l-2.27121,1.314941l-1.673492,0.717163l-2.988403,1.673523l-1.553986,0.717224l-2.032104,1.31488l-1.075836,1.195374l-2.032104,1.075867l-2.629791,0.239014l-2.988403,0l-1.553986,-0.836731l-2.868866,-0.956299l-1.912567,-0.239075l-2.271179,-1.31488l-0.717224,-0.478149l-4.90097,0.239075l-2.510284,-0.239075l-1.912567,-0.836731l-1.434448,-0.478149l-2.151642,0l-0.836761,-1.075867l-1.195343,-1.31488c0,0 -0.597687,-0.478149 -0.358612,-1.075806c0.239075,-0.597717 0.119537,-2.988403 0.119537,-2.988403l-1.195374,-1.434448l-1.31488,-0.956299l-0.956299,-0.119507l-1.314911,1.075806l-1.553955,-0.239075l-1.912598,-0.239075l-1.912567,-0.836731c0,0 0.358612,-1.314941 0.597687,-1.79303c0.239075,-0.478149 0.478149,-2.74939 0.478149,-2.74939l1.434418,-3.58606l0.717224,-1.075806l0.597687,-2.151672l0.119537,-1.31488l-0.239075,-1.434448z" fill="#c5d7ef"/>
    </g>
   </g>
   <!-- Fim Região SUL -->
  </g>
 </g>
</svg>