<?xml version="1.0" encoding="UTF-8" standalone="no"?>
<svg width="25px" height="16px" viewBox="0 0 25 16" version="1.1" xmlns="http://www.w3.org/2000/svg" xmlns:xlink="http://www.w3.org/1999/xlink" xmlns:sketch="http://www.bohemiancoding.com/sketch/ns">
    <!-- Generator: sketchtool 3.5.2 (25235) - http://www.bohemiancoding.com/sketch -->
    <title>People</title>
    <desc>Created with sketchtool.</desc>
    <defs></defs>
    <g id="GdS-md" stroke="none" stroke-width="1" fill="none" fill-rule="evenodd" sketch:type="MSPage">
        <g id="10---dashboard" sketch:type="MSArtboardGroup" transform="translate(-257.000000, -145.000000)" fill="#207BE9">
            <g id="Dashboard-[Content]" sketch:type="MSLayerGroup" transform="translate(0.000000, 1.000000)">
                <g id="Total-users" transform="translate(239.000000, 125.000000)" sketch:type="MSShapeGroup">
                    <g id="Group-8" transform="translate(18.000000, 19.000000)">
                        <g id="People">
                            <g id="Imported-Layers-Copy">
                                <path d="M16.9168279,6.83824047 C18.7807157,6.83824047 20.2740716,5.3783085 20.2740716,3.56973607 C20.2740716,1.76116364 18.7807157,0.301231672 16.9168279,0.301231672 C15.05294,0.301231672 13.5483559,1.76116364 13.5483559,3.56973607 C13.5483559,5.3783085 15.05294,6.83824047 16.9168279,6.83824047 L16.9168279,6.83824047 Z M7.93423598,6.83824047 C9.79812379,6.83824047 11.2914797,5.3783085 11.2914797,3.56973607 C11.2914797,1.76116364 9.79812379,0.301231672 7.93423598,0.301231672 C6.07034816,0.301231672 4.56576402,1.76116364 4.56576402,3.56973607 C4.56576402,5.3783085 6.07034816,6.83824047 7.93423598,6.83824047 L7.93423598,6.83824047 Z M7.93423598,9.0172434 C5.31805609,9.0172434 0.0744680851,10.2919601 0.0744680851,12.8304985 L0.0744680851,15.5542522 L15.7940039,15.5542522 L15.7940039,12.8304985 C15.7940039,10.2919601 10.5504159,9.0172434 7.93423598,9.0172434 L7.93423598,9.0172434 Z M16.9168279,9.0172434 C16.5912089,9.0172434 16.220677,9.03903343 15.8276886,9.07171848 C17.1301644,9.98689971 18.0396518,11.2180364 18.0396518,12.8304985 L18.0396518,15.5542522 L24.7765957,15.5542522 L24.7765957,12.8304985 C24.7765957,10.2919601 19.5330077,9.0172434 16.9168279,9.0172434 L16.9168279,9.0172434 Z"></path>
                            </g>
                        </g>
                    </g>
                </g>
            </g>
        </g>
    </g>
</svg>