<?xml version="1.0" encoding="UTF-8" standalone="no"?>
<svg width="80px" height="80px" viewBox="0 0 80 80" version="1.1" xmlns="http://www.w3.org/2000/svg" xmlns:xlink="http://www.w3.org/1999/xlink" xmlns:sketch="http://www.bohemiancoding.com/sketch/ns">
    <!-- Generator: Sketch 3.3.2 (12043) - http://www.bohemiancoding.com/sketch -->
    <title>icon_scatterplot</title>
    <desc>Created with Sketch.</desc>
    <defs></defs>
    <g id="GdS-md" stroke="none" stroke-width="1" fill="none" fill-rule="evenodd" sketch:type="MSPage">
        <g id="icon_scatterplot" sketch:type="MSLayerGroup">
            <circle id="Oval-129" fill="#1E88E5" sketch:type="MSShapeGroup" cx="40" cy="40" r="40"></circle>
            <g id="Imported-Layers" transform="translate(20.000000, 18.000000)" fill="#FFFFFF" sketch:type="MSShapeGroup">
                <path d="M0.0409982175,0.0409982175 L2.3368984,0.0409982175 L2.3368984,45.9590018 L0.0409982175,45.9590018 L0.0409982175,0.0409982175 Z" id="Fill-1"></path>
                <path d="M0.0409982175,43.6631016 L45.9590018,43.6631016 L45.9590018,45.9590018 L0.0409982175,45.9590018 L0.0409982175,43.6631016 Z" id="Fill-2"></path>
                <path d="M10.5578084,27.1897179 C11.6514799,27.1897179 12.5380723,28.0763103 12.5380723,29.1699818 C12.5380723,30.2636532 11.6514799,31.1502457 10.5578084,31.1502457 C9.46413699,31.1502457 8.57754455,30.2636532 8.57754455,29.1699818 C8.57754455,28.0763103 9.46413699,27.1897179 10.5578084,27.1897179" id="Fill-3"></path>
                <path d="M35.3111071,7.38707892 C36.9516143,7.38707892 38.281503,8.71696757 38.281503,10.3574748 C38.281503,11.997982 36.9516143,13.3278706 35.3111071,13.3278706 C33.6706,13.3278706 32.3407113,11.997982 32.3407113,10.3574748 C32.3407113,8.71696757 33.6706,7.38707892 35.3111071,7.38707892" id="Fill-4"></path>
                <path d="M32.3407113,15.3081345 C34.5280542,15.3081345 36.3012391,17.0813194 36.3012391,19.2686623 C36.3012391,21.4560052 34.5280542,23.2291901 32.3407113,23.2291901 C30.1533684,23.2291901 28.3801835,21.4560052 28.3801835,19.2686623 C28.3801835,17.0813194 30.1533684,15.3081345 32.3407113,15.3081345" id="Fill-5"></path>
                <path d="M23.4295238,7.38707892 C26.1637024,7.38707892 28.3801835,9.60356001 28.3801835,12.3377387 C28.3801835,15.0719173 26.1637024,17.2883984 23.4295238,17.2883984 C20.6953451,17.2883984 18.478864,15.0719173 18.478864,12.3377387 C18.478864,9.60356001 20.6953451,7.38707892 23.4295238,7.38707892" id="Fill-6"></path>
                <path d="M20.3601147,19.2686623 C23.6411291,19.2686623 26.3009064,21.9284396 26.3009064,25.209454 C26.3009064,28.4904684 23.6411291,31.1502457 20.3601147,31.1502457 C17.0791003,31.1502457 14.419323,28.4904684 14.419323,25.209454 C14.419323,21.9284396 17.0791003,19.2686623 20.3601147,19.2686623" id="Fill-7"></path>
                <path d="M8.47853136,17.2883984 C10.6658743,17.2883984 12.4390591,19.0615833 12.4390591,21.2489262 C12.4390591,23.4362691 10.6658743,25.209454 8.47853136,25.209454 C6.29118844,25.209454 4.51800357,23.4362691 4.51800357,21.2489262 C4.51800357,19.0615833 6.29118844,17.2883984 8.47853136,17.2883984" id="Fill-8"></path>
                <path d="M9.5676765,33.1305096 C11.2081837,33.1305096 12.5380723,34.4603982 12.5380723,36.1009054 C12.5380723,37.7414126 11.2081837,39.0713012 9.5676765,39.0713012 C7.92716931,39.0713012 6.59728066,37.7414126 6.59728066,36.1009054 C6.59728066,34.4603982 7.92716931,33.1305096 9.5676765,33.1305096" id="Fill-9"></path>
                <path d="M18.478864,33.1305096 C19.5725355,33.1305096 20.4591279,34.017102 20.4591279,35.1107735 C20.4591279,36.2044449 19.5725355,37.0910374 18.478864,37.0910374 C17.3851926,37.0910374 16.4986001,36.2044449 16.4986001,35.1107735 C16.4986001,34.017102 17.3851926,33.1305096 18.478864,33.1305096" id="Fill-10"></path>
                <path d="M31.3505794,25.209454 C32.9910865,25.209454 34.3209752,26.5393426 34.3209752,28.1798498 C34.3209752,29.820357 32.9910865,31.1502457 31.3505794,31.1502457 C29.7100722,31.1502457 28.3801835,29.820357 28.3801835,28.1798498 C28.3801835,26.5393426 29.7100722,25.209454 31.3505794,25.209454" id="Fill-11"></path>
                <path d="M25.4097877,33.1305096 C25.9566234,33.1305096 26.3999196,33.5738058 26.3999196,34.1206415 C26.3999196,34.6674772 25.9566234,35.1107735 25.4097877,35.1107735 C24.8629519,35.1107735 24.4196557,34.6674772 24.4196557,34.1206415 C24.4196557,33.5738058 24.8629519,33.1305096 25.4097877,33.1305096" id="Fill-12"></path>
                <path d="M15.5084682,13.3278706 C16.0553039,13.3278706 16.4986001,13.7711668 16.4986001,14.3180026 C16.4986001,14.8648383 16.0553039,15.3081345 15.5084682,15.3081345 C14.9616325,15.3081345 14.5183362,14.8648383 14.5183362,14.3180026 C14.5183362,13.7711668 14.9616325,13.3278706 15.5084682,13.3278706" id="Fill-13"></path>
            </g>
        </g>
    </g>
</svg>