<?xml version="1.0" encoding="UTF-8" standalone="no"?>
<svg width="18px" height="18px" viewBox="0 0 18 18" version="1.1" xmlns="http://www.w3.org/2000/svg" xmlns:xlink="http://www.w3.org/1999/xlink">
    <!-- Generator: sketchtool 3.7.2 (28276) - http://www.bohemiancoding.com/sketch -->
    <title>49C1D01C-BC36-4F03-9749-EED6CCAE5303</title>
    <desc>Created with sketchtool.</desc>
    <defs></defs>
    <g id="GdS-md" stroke="none" stroke-width="1" fill="none" fill-rule="evenodd">
        <g id="10.2---dashboard_novo" transform="translate(-389.000000, -529.000000)" fill="#FFFFFF">
            <g id="Group-8" transform="translate(249.000000, 153.000000)">
                <g id="Group-7" transform="translate(88.000000, 376.000000)">
                    <g id="Group-5-Copy" transform="translate(52.000000, 0.000000)">
                        <g id="Group-21">
                            <path d="M9.58451078,0.892635298 C9.50054451,0.795126082 9.37865799,0.7396 9.25,0.7396 C9.12134201,0.7396 8.99945549,0.795126082 8.91548922,0.892635298 C8.44825755,1.43570746 8.19229586,2.12910633 8.19229586,2.84552821 L8.19229586,6.73506251 L0.785658307,12.5531124 L0.785658307,14.3164041 L8.19229586,11.4954083 L8.19229586,14.1403458 C8.19229586,14.3868274 8.25323912,14.6292461 8.36835417,14.8459333 L5.72341668,16.609225 L5.72341668,18.0204 L9.25,16.609225 L12.7765833,18.0204 L12.7765833,16.609225 L10.1316458,14.8459333 C10.2481152,14.6292461 10.3077041,14.3868274 10.3077041,14.1403458 L10.3077041,11.4954083 L17.7143417,14.3164041 L17.7143417,12.5531124 L10.3077041,6.73506251 L10.3077041,2.84552821 C10.3077041,2.12910633 10.0517424,1.43570746 9.58451078,0.892635298" id="Fill-1"></path>
                        </g>
                    </g>
                </g>
            </g>
        </g>
    </g>
</svg>