<?xml version="1.0" encoding="UTF-8" standalone="no"?>
<svg width="17px" height="14px" viewBox="0 0 17 14" version="1.1" xmlns="http://www.w3.org/2000/svg" xmlns:xlink="http://www.w3.org/1999/xlink">
    <!-- Generator: sketchtool 3.7.2 (28276) - http://www.bohemiancoding.com/sketch -->
    <title>86CE0286-B374-448B-A057-BDCE8E1B3234</title>
    <desc>Created with sketchtool.</desc>
    <defs>
        <polygon id="path-1" points="6.47385 0.012 0 0.012 0 9.5240498 12.9477 9.5240498 12.9477 0.012 6.47385 0.012"></polygon>
    </defs>
    <g id="GdS-md" stroke="none" stroke-width="1" fill="none" fill-rule="evenodd">
        <g id="10.2---dashboard_novo" transform="translate(-446.000000, -532.000000)">
            <g id="Group-8" transform="translate(249.000000, 153.000000)">
                <g id="Group-7" transform="translate(88.000000, 376.000000)">
                    <g id="Group-5-Copy-2" transform="translate(108.000000, 1.000000)">
                        <g id="Page-1" transform="translate(0.250000, 1.500000)">
                            <g id="Group-3" transform="translate(1.000000, 0.487520)">
                                <mask id="mask-2" fill="white">
                                    <use xlink:href="#path-1"></use>
                                </mask>
                                <g id="Clip-2"></g>
                                <path d="M1.8882,3.7215 C2.0907,3.114 2.6982,2.676 3.3717,2.676 L12.6777,2.676 C12.8127,2.676 12.9477,2.5755 12.9477,2.4405 L12.9477,1.833 C12.9477,1.53 12.7122,1.2945 12.3747,1.2945 L5.2257,1.2945 C4.9227,1.2945 4.6527,1.0575 4.6527,0.7545 L4.6527,0.552 C4.6527,0.249 4.4172,0.012 4.0797,0.012 L0.5727,0.012 C0.2367,0.012 -0.0003,0.249 -0.0003,0.552 L-0.0003,1.2945 L-0.0003,1.7655 L-0.0003,9.453 C-0.0003,9.5205 0.1017,9.555 0.1347,9.4875 L1.8882,3.7215 Z" id="Fill-1" fill="#FFFFFF" mask="url(#mask-2)"></path>
                            </g>
                            <path d="M13.64455,13.98752 L1.64005,13.98752 C1.33705,13.98752 1.10155,13.68452 1.20205,13.41452 L3.93355,4.51202 C4.00105,4.30952 4.16905,4.17602 4.37155,4.17602 L16.37605,4.17602 C16.67905,4.17602 16.91455,4.47902 16.81405,4.74902 L14.08255,13.65002 C14.01505,13.85252 13.84705,13.98752 13.64455,13.98752" id="Fill-4" fill="#FFFFFF"></path>
                        </g>
                    </g>
                </g>
            </g>
        </g>
    </g>
</svg>