<?xml version="1.0" encoding="UTF-8" standalone="no"?>
<svg width="255px" height="255px" viewBox="0 0 255 255" version="1.1" xmlns="http://www.w3.org/2000/svg" xmlns:xlink="http://www.w3.org/1999/xlink" xmlns:sketch="http://www.bohemiancoding.com/sketch/ns">
    <!-- Generator: Sketch 3.3.2 (12043) - http://www.bohemiancoding.com/sketch -->
    <title>img_profile_avatar_05</title>
    <desc>Created with Sketch.</desc>
    <defs>
        <path id="path-1" d="M246.956366,123.888492 C246.956366,55.838537 191.782363,0.674063336 123.717415,0.674063336 C55.6568153,0.674063336 0.48136251,55.838537 0.48136251,123.888492 C0.48136251,191.938448 55.6568153,247.104371 123.717415,247.104371 C191.782363,247.104371 246.956366,191.938448 246.956366,123.888492"></path>
    </defs>
    <g id="Smartphone" stroke="none" stroke-width="1" fill="none" fill-rule="evenodd" sketch:type="MSPage">
        <g id="avatars_profile" sketch:type="MSLayerGroup" transform="translate(-1245.000000, 0.000000)">
            <g id="img_profile_avatar_05" transform="translate(1248.000000, 1.881356)">
                <path d="M248.130882,123.889942 C248.130882,55.8399866 192.955429,0.675512935 124.89193,0.675512935 C56.8298808,0.675512935 1.65297816,55.8399866 1.65297816,123.889942 C1.65297816,191.939897 56.8298808,247.104371 124.89193,247.104371 C192.955429,247.104371 248.130882,191.939897 248.130882,123.889942" id="Fill-154" fill="#FF8B00" sketch:type="MSShapeGroup"></path>
                <path d="M248.130882,123.889942 C248.130882,55.8399866 192.955429,0.675512935 124.89193,0.675512935 L124.89193,247.104371 C192.955429,247.104371 248.130882,191.939897 248.130882,123.889942" id="Fill-155" fill="#E57700" sketch:type="MSShapeGroup"></path>
                <g id="Group-175" transform="translate(1.173066, 0.000000)">
                    <mask id="mask-2" sketch:name="Clip 157" fill="white">
                        <use xlink:href="#path-1"></use>
                    </mask>
                    <g id="Clip-157"></g>
                    <path d="M123.179506,192.186329 C123.179506,192.186329 160.095081,198.728368 163.776345,192.368979 C165.474162,189.43789 164.041674,166.055865 167.158931,141.209746 C169.696234,120.987846 176.090236,82.434322 176.090236,82.434322 L123.179506,82.434322 L123.179506,192.186329" id="Fill-156" fill="#472B1B" sketch:type="MSShapeGroup" mask="url(#mask-2)"></path>
                    <path d="M123.718864,192.186329 C123.718864,192.186329 86.8032895,198.728368 83.1220262,192.368979 C81.4242085,189.43789 82.8581468,166.055865 79.7394397,141.209746 C77.2021373,120.987846 71.3474933,82.434322 71.3474933,82.434322 L123.718864,82.434322 L123.718864,192.186329" id="Fill-158" fill="#472B1B" sketch:type="MSShapeGroup" mask="url(#mask-2)"></path>
                    <path d="M141.765609,196.072703 L123.491232,247.32326 L105.67357,196.072703 L105.67357,156.50591 L141.765609,156.50591 L141.765609,196.072703" id="Fill-159" fill="#E9C7AC" sketch:type="MSShapeGroup" mask="url(#mask-2)"></path>
                    <path d="M141.765609,189.340767 L105.67357,163.066793 L105.67357,156.50591 L141.765609,156.50591 L141.765609,189.340767" id="Fill-160" fill="#CE9C88" sketch:type="MSShapeGroup" mask="url(#mask-2)"></path>
                    <path d="M123.491232,247.32326 L123.491232,198.036909 C123.491232,198.036909 110.026131,194.699933 107.059662,183.797502 C105.632973,178.557203 105.67357,174.350468 105.67357,174.350468 C105.67357,174.350468 71.8839515,184.293265 65.3116133,194.560772 C59.8440892,210.836864 58.343456,247.32326 58.343456,247.32326 L123.491232,247.32326" id="Fill-161" fill="#E9C7AC" sketch:type="MSShapeGroup" mask="url(#mask-2)"></path>
                    <path d="M123.491232,247.32326 L123.491232,211.083296 C123.491232,211.083296 136.953434,194.699933 139.924252,183.797502 C141.349491,178.557203 141.308894,174.350468 141.308894,174.350468 C141.308894,174.350468 175.098513,184.293265 181.670851,194.560772 C187.139825,210.836864 188.640458,247.32326 188.640458,247.32326 L123.491232,247.32326" id="Fill-162" fill="#CE9C88" sketch:type="MSShapeGroup" mask="url(#mask-2)"></path>
                    <path d="M123.491232,247.32326 L123.491232,211.083296 C123.491232,211.083296 136.953434,194.699933 139.924252,183.797502 C141.349491,178.557203 141.803306,174.498327 141.803306,174.498327 C141.803306,174.498327 146.732922,175.947926 153.17332,178.31657 C153.17332,178.31657 172.511914,220.940566 172.511914,247.32326 L123.491232,247.32326" id="Fill-163" fill="#A22F26" sketch:type="MSShapeGroup" mask="url(#mask-2)"></path>
                    <path d="M123.491232,247.32326 L123.491232,211.083296 C123.491232,211.083296 110.029031,194.699933 107.058212,183.797502 C105.634423,178.557203 105.67357,174.350468 105.67357,174.350468 C105.67357,174.350468 100.249542,175.947926 93.8091439,178.31657 C93.8091439,178.31657 74.4719999,220.940566 74.4719999,247.32326 L123.491232,247.32326" id="Fill-164" fill="#B5332B" sketch:type="MSShapeGroup" mask="url(#mask-2)"></path>
                    <path d="M176.090236,82.434322 C176.090236,53.5148305 152.642662,30.073372 123.718864,30.073372 C94.796517,30.073372 71.3474933,53.5148305 71.3474933,82.434322 C71.3474933,111.352364 94.796517,134.793822 123.718864,134.793822 C152.642662,134.793822 176.090236,111.352364 176.090236,82.434322" id="Fill-165" fill="#472B1B" sketch:type="MSShapeGroup" mask="url(#mask-2)"></path>
                    <path d="M123.718864,50.0488403 C106.195529,50.0488403 78.4838375,59.7002676 78.4838375,104.924844 C78.4838375,131.036463 90.4381564,143.347904 94.2673082,148.080843 C97.7934336,152.433988 114.426538,166.50814 123.718864,166.50814 L123.718864,50.0488403" id="Fill-166" fill="#F1D6BB" sketch:type="MSShapeGroup" mask="url(#mask-2)"></path>
                    <path d="M69.7656665,115.708408 C68.9928766,108.482159 72.5479998,102.070584 77.7023483,101.384924 C82.8610465,100.700714 87.6659723,106.001896 88.4387621,113.228145 C89.2130018,120.452944 85.6564288,126.863069 80.5020803,127.550178 C75.3448319,128.234389 70.5399062,122.933207 69.7656665,115.708408" id="Fill-167" fill="#F1D6BB" sketch:type="MSShapeGroup" mask="url(#mask-2)"></path>
                    <path d="M123.576775,50.0488403 C141.100111,50.0488403 168.811802,59.7002676 168.811802,104.924844 C168.811802,131.036463 156.857484,143.347904 153.026882,148.080843 C149.505106,152.433988 132.869102,166.50814 123.576775,166.50814 L123.576775,50.0488403" id="Fill-168" fill="#EBC7A7" sketch:type="MSShapeGroup" mask="url(#mask-2)"></path>
                    <path d="M177.672062,115.708408 C178.446302,108.482159 174.889729,102.070584 169.73683,101.384924 C164.578132,100.700714 159.773206,106.001896 158.998967,113.228145 C158.226177,120.452944 161.7813,126.863069 166.937098,127.550178 C172.094347,128.234389 176.899273,122.933207 177.672062,115.708408" id="Fill-169" fill="#EBC7A7" sketch:type="MSShapeGroup" mask="url(#mask-2)"></path>
                    <path d="M123.718864,150.579951 C130.550732,150.579951 136.087851,146.518176 136.087851,141.502565 L111.351328,141.502565 C111.351328,146.518176 116.886997,150.579951 123.718864,150.579951" id="Fill-170" fill="#FFFFFF" sketch:type="MSShapeGroup" mask="url(#mask-2)"></path>
                    <path d="M123.124411,35.8210303 C122.284926,35.71376 121.407744,35.6398305 120.466768,35.6311329 C120.466768,35.6311329 90.867323,37.8475691 82.6319644,76.389496 C78.6766724,79.3539251 72.4610065,101.608162 85.8043173,114.122547 C84.3428311,109.230152 78.4577395,88.0689117 93.1740933,81.9878457 C105.493784,76.8968555 110.433549,81.61095 124.601846,70.7418599 C132.876351,64.3926182 135.85007,51.6274532 134.020312,44.4939786 C130.729068,35.6311329 122.328423,35.963091 123.124411,35.8210303" id="Fill-171" fill="#472B1B" sketch:type="MSShapeGroup" mask="url(#mask-2)"></path>
                    <path d="M123.372341,45.0694692 C112.485139,97.9624219 164.137367,88.5400312 167.037141,124.536463 C192.410165,91.6784121 157.309848,40.3713202 123.372341,45.0694692" id="Fill-172" fill="#472B1B" sketch:type="MSShapeGroup" mask="url(#mask-2)"></path>
                    <path d="M143.066158,112.003234 C143.066158,113.707962 141.443734,115.089429 139.44144,115.089429 C137.439146,115.089429 135.816722,113.707962 135.816722,112.003234 C135.816722,110.298506 137.439146,108.915589 139.44144,108.915589 C141.443734,108.915589 143.066158,110.298506 143.066158,112.003234" id="Fill-173" fill="#482B1B" sketch:type="MSShapeGroup" mask="url(#mask-2)"></path>
                    <path d="M111.621007,112.003234 C111.621007,113.707962 109.998583,115.089429 107.996289,115.089429 C105.993995,115.089429 104.371571,113.707962 104.371571,112.003234 C104.371571,110.298506 105.993995,108.915589 107.996289,108.915589 C109.998583,108.915589 111.621007,110.298506 111.621007,112.003234" id="Fill-174" fill="#482B1B" sketch:type="MSShapeGroup" mask="url(#mask-2)"></path>
                </g>
            </g>
        </g>
    </g>
</svg>