<?xml version="1.0" encoding="UTF-8" standalone="no"?>
<svg width="128px" height="128px" viewBox="0 0 128 128" version="1.1" xmlns="http://www.w3.org/2000/svg" xmlns:xlink="http://www.w3.org/1999/xlink" xmlns:sketch="http://www.bohemiancoding.com/sketch/ns">
    <!-- Generator: Sketch 3.5.2 (25235) - http://www.bohemiancoding.com/sketch -->
    <title>Imported Layers</title>
    <desc>Created with Sketch.</desc>
    <defs>
        <path id="path-1" d="M127.458058,63.7993918 C127.458058,28.6600234 98.9724444,0.174409357 63.833076,0.174409357 C28.6944561,0.174409357 0.209590643,28.6600234 0.209590643,63.7993918 C0.209590643,98.9387602 28.6944561,127.424374 63.833076,127.424374 C98.9724444,127.424374 127.458058,98.9387602 127.458058,63.7993918"></path>
    </defs>
    <g id="Page-1" stroke="none" stroke-width="1" fill="none" fill-rule="evenodd" sketch:type="MSPage">
        <g id="17.3.2---selecionar-avatar" sketch:type="MSArtboardGroup" transform="translate(-217.000000, -509.000000)">
            <g id="screen" sketch:type="MSLayerGroup">
                <g id="day-info-copy">
                    <g id="day-info" transform="translate(41.000000, 311.000000)">
                        <g id="Imported-Layers" transform="translate(176.000000, 198.000000)">
                            <path d="M127.458807,63.8001404 C127.458807,28.6607719 98.9724444,0.175157895 63.8338246,0.175157895 C28.6944561,0.175157895 0.208842105,28.6607719 0.208842105,63.8001404 C0.208842105,98.9395088 28.6944561,127.424374 63.8338246,127.424374 C98.9724444,127.424374 127.458807,98.9395088 127.458807,63.8001404" id="Fill-1" fill="#FF8B00" sketch:type="MSShapeGroup"></path>
                            <path d="M127.458807,63.8001404 C127.458807,28.6607719 98.9724444,0.175157895 63.8338246,0.175157895 L63.8338246,127.424374 C98.9724444,127.424374 127.458807,98.9395088 127.458807,63.8001404" id="Fill-2" fill="#E57700" sketch:type="MSShapeGroup"></path>
                            <g id="Group-19">
                                <mask id="mask-2" sketch:name="Clip 4" fill="white">
                                    <use xlink:href="#path-1"></use>
                                </mask>
                                <g id="Clip-4"></g>
                                <path d="M73.1501287,101.072842 L63.7163041,127.537404 L54.5167719,101.072842 L54.5167719,80.6422456 L73.1501287,80.6422456 L73.1501287,101.072842" id="Fill-3" fill="#E9C7AC" sketch:type="MSShapeGroup" mask="url(#mask-2)"></path>
                                <path d="M73.1501287,97.5973801 L54.5167719,84.0301287 L54.5167719,80.6422456 L73.1501287,80.6422456 L73.1501287,97.5973801" id="Fill-5" fill="#CE9C88" sketch:type="MSShapeGroup" mask="url(#mask-2)"></path>
                                <path d="M63.8338246,19.2658713 C49.4386901,14.4407953 40.9809591,22.3363743 38.8902924,32.4064561 C37.8595556,37.3745029 38.8902924,52.7015673 38.8902924,52.7015673 C42.9840468,62.1361404 52.6094971,68.7621988 63.8338246,68.7621988 C74.9279064,68.7621988 84.4567953,62.2865965 88.6291462,53.0249357 C88.6291462,53.0249357 89.728,37.2015906 88.6291462,32.0823392 C86.4950643,22.1522339 78.6848187,24.2443977 63.8338246,19.2658713" id="Fill-6" fill="#482B1B" sketch:type="MSShapeGroup" mask="url(#mask-2)"></path>
                                <path d="M63.8338246,25.6703626 C54.7869942,25.6703626 40.4801871,30.6541287 40.4801871,54.0070175 C40.4801871,67.4904327 44.406269,74.5963041 46.3824094,77.0402807 C48.2028538,79.2881404 59.0364444,85.8064094 63.8338246,85.8064094 L63.8338246,25.6703626" id="Fill-7" fill="#F1D6BB" sketch:type="MSShapeGroup" mask="url(#mask-2)"></path>
                                <path d="M35.9792281,59.5753918 C35.5802573,55.8439298 37.4156725,52.5331462 40.0759766,52.1790877 C42.7392749,51.8250292 45.2206784,54.5631813 45.6196491,58.2946433 C46.0186199,62.0253567 44.1832047,65.3353918 41.5214035,65.6894503 C38.8588538,66.0435088 36.3781988,63.3053567 35.9792281,59.5753918" id="Fill-8" fill="#F1D6BB" sketch:type="MSShapeGroup" mask="url(#mask-2)"></path>
                                <path d="M63.7597193,25.6703626 C72.8065497,25.6703626 87.1133567,30.6541287 87.1133567,54.0070175 C87.1133567,67.4904327 83.1872749,74.5963041 81.210386,77.0402807 C79.3914386,79.2881404 68.5570994,85.8064094 63.7597193,85.8064094 L63.7597193,25.6703626" id="Fill-9" fill="#EBC7A7" sketch:type="MSShapeGroup" mask="url(#mask-2)"></path>
                                <path d="M91.6884211,59.5753918 C92.0873918,55.8439298 90.2519766,52.5331462 87.590924,52.1790877 C84.9276257,51.8250292 82.4469708,54.5631813 82.048,58.2946433 C81.6490292,62.0253567 83.4844444,65.3353918 86.1454971,65.6894503 C88.8080468,66.0435088 91.2887018,63.3053567 91.6884211,59.5753918" id="Fill-10" fill="#EBC7A7" sketch:type="MSShapeGroup" mask="url(#mask-2)"></path>
                                <path d="M63.8338246,77.5822222 C67.3609357,77.5822222 70.2188538,75.4840702 70.2188538,72.8948772 L57.4480468,72.8948772 C57.4480468,75.4840702 60.3067135,77.5822222 63.8338246,77.5822222" id="Fill-11" fill="#FFFFFF" sketch:type="MSShapeGroup" mask="url(#mask-2)"></path>
                                <path d="M73.8215673,57.6621287 C73.8215673,58.6951111 72.9839532,59.5334737 71.9502222,59.5334737 C70.9172398,59.5334737 70.0788772,58.6951111 70.0788772,57.6621287 C70.0788772,56.6283977 70.9172398,55.7907836 71.9502222,55.7907836 C72.9839532,55.7907836 73.8215673,56.6283977 73.8215673,57.6621287" id="Fill-12" fill="#482B1B" sketch:type="MSShapeGroup" mask="url(#mask-2)"></path>
                                <path d="M57.5872749,57.6621287 C57.5872749,58.6951111 56.7496608,59.5334737 55.7159298,59.5334737 C54.6821988,59.5334737 53.8445848,58.6951111 53.8445848,57.6621287 C53.8445848,56.6283977 54.6821988,55.7907836 55.7159298,55.7907836 C56.7496608,55.7907836 57.5872749,56.6283977 57.5872749,57.6621287" id="Fill-13" fill="#482B1B" sketch:type="MSShapeGroup" mask="url(#mask-2)"></path>
                                <path d="M87.6934737,51.4357895 C87.6934737,51.4357895 85.6349942,53.6814035 85.4478596,56.4884211 L83.3893801,56.4884211 C83.3893801,56.4884211 84.2951111,45.1106433 80.7492865,42.5072281 C77.203462,39.9030643 74.1262222,42.5536374 63.7597193,42.5536374 L62.2626433,23.6463158 L81.7051696,26.4533333 L88.6291462,45.3539181 L87.6934737,51.4357895" id="Fill-14" fill="#482B1B" sketch:type="MSShapeGroup" mask="url(#mask-2)"></path>
                                <path d="M39.8259649,51.4357895 C39.8259649,51.4357895 41.8844444,53.6814035 42.0715789,56.4884211 L44.1300585,56.4884211 C44.1300585,56.4884211 42.8058947,44.9541988 46.3509708,42.3507836 C49.8967953,39.7466199 53.3932164,42.5536374 63.7597193,42.5536374 L65.2567953,23.6463158 L45.814269,26.4533333 L38.8902924,45.3539181 L39.8259649,51.4357895" id="Fill-15" fill="#482B1B" sketch:type="MSShapeGroup" mask="url(#mask-2)"></path>
                                <path d="M63.7155556,127.537404 L63.7155556,100.470269 C63.7155556,100.470269 56.5715088,100.363977 55.04,94.7342222 C54.3026901,92.0275088 54.5167719,89.8567485 54.5167719,89.8567485 C54.5167719,89.8567485 37.0728421,94.9894737 33.6789708,100.292117 C30.8562339,108.69745 30.0814971,127.537404 30.0814971,127.537404 L63.7155556,127.537404" id="Fill-16" fill="#5A4980" sketch:type="MSShapeGroup" mask="url(#mask-2)"></path>
                                <path d="M63.7155556,127.537404 L63.7155556,100.470269 C63.7155556,100.470269 70.9097544,100.363977 72.4435088,94.7342222 C73.1785731,92.0275088 73.1501287,89.9271111 73.1501287,89.9271111 C73.1501287,89.9271111 90.3590175,94.9894737 93.7521404,100.292117 C96.5756257,108.69745 97.3503626,127.537404 97.3503626,127.537404 L63.7155556,127.537404" id="Fill-17" fill="#534378" sketch:type="MSShapeGroup" mask="url(#mask-2)"></path>
                                <path d="M52.0076725,90.6516959 C51.9927018,91.7108772 52.0727953,93.7214503 52.7053099,96.0464094 C54.6492632,103.191205 63.7155556,103.325193 63.7155556,103.325193 C63.7155556,103.325193 72.8447251,103.191205 74.790924,96.0464094 C75.421193,93.725193 75.6083275,91.7587836 75.6637193,90.7250526 C74.131462,90.2167953 73.1501287,89.9271111 73.1501287,89.9271111 C73.1501287,89.9271111 73.1785731,92.0275088 72.4435088,94.7342222 C70.9097544,100.363977 63.7155556,100.470269 63.7155556,100.470269 C63.7155556,100.470269 56.5715088,100.363977 55.04,94.7342222 C54.3026901,92.0275088 54.5167719,89.8567485 54.5167719,89.8567485 C54.5167719,89.8567485 53.5376842,90.1456842 52.0076725,90.6516959" id="Fill-18" fill="#482B1B" sketch:type="MSShapeGroup" mask="url(#mask-2)"></path>
                            </g>
                        </g>
                    </g>
                </g>
            </g>
        </g>
    </g>
</svg>