<?xml version="1.0" encoding="UTF-8" standalone="no"?>
<svg width="128px" height="128px" viewBox="0 0 128 128" version="1.1" xmlns="http://www.w3.org/2000/svg" xmlns:xlink="http://www.w3.org/1999/xlink" xmlns:sketch="http://www.bohemiancoding.com/sketch/ns">
    <!-- Generator: Sketch 3.5.2 (25235) - http://www.bohemiancoding.com/sketch -->
    <title>Imported Layers</title>
    <desc>Created with Sketch.</desc>
    <defs>
        <path id="path-1" d="M127.791158,64.0471579 C127.791158,28.9077895 99.3062924,0.422175439 64.1661754,0.422175439 C29.0283041,0.422175439 0.542690058,28.9077895 0.542690058,64.0471579 C0.542690058,99.1872749 29.0283041,127.67214 64.1661754,127.67214 C99.3062924,127.67214 127.791158,99.1872749 127.791158,64.0471579"></path>
    </defs>
    <g id="Page-1" stroke="none" stroke-width="1" fill="none" fill-rule="evenodd" sketch:type="MSPage">
        <g id="17.3.2---selecionar-avatar" sketch:type="MSArtboardGroup" transform="translate(-531.000000, -825.000000)">
            <g id="screen" sketch:type="MSLayerGroup">
                <g id="day-info-copy">
                    <g id="day-info" transform="translate(41.000000, 311.000000)">
                        <g id="Imported-Layers" transform="translate(490.000000, 514.000000)">
                            <path d="M127.791906,64.0479064 C127.791906,28.9092865 99.3062924,0.422923977 64.166924,0.422923977 C29.0283041,0.422923977 0.54194152,28.9092865 0.54194152,64.0479064 C0.54194152,99.1872749 29.0283041,127.67214 64.166924,127.67214 C99.3062924,127.67214 127.791906,99.1872749 127.791906,64.0479064" id="Fill-1" fill="#FF8B00" sketch:type="MSShapeGroup"></path>
                            <path d="M127.791906,64.0479064 C127.791906,28.9092865 99.3062924,0.422923977 64.166924,0.422923977 L64.166924,127.67214 C99.3062924,127.67214 127.791906,99.1872749 127.791906,64.0479064" id="Fill-2" fill="#E57700" sketch:type="MSShapeGroup"></path>
                            <g id="Group-24">
                                <mask id="mask-2" sketch:name="Clip 4" fill="white">
                                    <use xlink:href="#path-1"></use>
                                </mask>
                                <g id="Clip-4"></g>
                                <path d="M73.4839766,101.321357 L64.0494035,127.78517 L54.8506199,101.321357 L54.8506199,80.8900117 L73.4839766,80.8900117 L73.4839766,101.321357" id="Fill-3" fill="#EFCEA3" sketch:type="MSShapeGroup" mask="url(#mask-2)"></path>
                                <path d="M73.4839766,97.8451462 L54.8506199,84.2778947 L54.8506199,80.8900117 L73.4839766,80.8900117 L73.4839766,97.8451462" id="Fill-5" fill="#DBB27B" sketch:type="MSShapeGroup" mask="url(#mask-2)"></path>
                                <path d="M64.0494035,127.78517 L64.0494035,102.336374 C64.0494035,102.336374 57.097731,100.612491 55.5662222,94.9827368 C54.8296608,92.2760234 54.8506199,90.1052632 54.8506199,90.1052632 C54.8506199,90.1052632 37.4059415,95.2379883 34.0128187,100.540632 C31.1900819,108.945965 30.415345,127.78517 30.415345,127.78517 L64.0494035,127.78517" id="Fill-6" fill="#EFCEA3" sketch:type="MSShapeGroup" mask="url(#mask-2)"></path>
                                <path d="M64.0494035,127.78517 L64.0494035,102.336374 C64.0494035,102.336374 71.3012398,100.612491 72.8342456,94.9827368 C73.5700585,92.2760234 73.5034386,90.1808655 73.5034386,90.1808655 C73.5034386,90.181614 90.6928655,95.2379883 94.0859883,100.540632 C96.9094737,108.945965 97.6842105,127.78517 97.6842105,127.78517 L64.0494035,127.78517" id="Fill-7" fill="#EFCEA3" sketch:type="MSShapeGroup" mask="url(#mask-2)"></path>
                                <path d="M64.0494035,127.78517 L64.0494035,104.58124 C64.0494035,104.58124 57.097731,100.612491 55.5662222,94.9819883 C54.8296608,92.2760234 54.8506199,90.1045146 54.8506199,90.1045146 C54.8506199,90.1045146 37.4059415,95.2379883 34.0128187,100.539883 C31.1900819,108.945216 30.415345,127.78517 30.415345,127.78517 L64.0494035,127.78517" id="Fill-8" fill="#B5332B" sketch:type="MSShapeGroup" mask="url(#mask-2)"></path>
                                <path d="M64.0494035,127.78517 L64.0494035,104.58124 C64.0494035,104.58124 70.9995789,100.612491 72.5333333,94.9819883 C73.2683977,92.2760234 73.5034386,90.180117 73.5034386,90.180117 C73.5034386,90.180117 90.6928655,95.2379883 94.0859883,100.539883 C96.9094737,108.945216 97.6842105,127.78517 97.6842105,127.78517 L64.0494035,127.78517" id="Fill-9" fill="#A22F26" sketch:type="MSShapeGroup" mask="url(#mask-2)"></path>
                                <path d="M72.2915556,15.1107368 C72.2915556,10.2557193 68.3557427,6.31990643 63.5007251,6.31990643 C58.6457076,6.31990643 54.7091462,10.2557193 54.7091462,15.1107368 C54.7091462,19.9665029 58.6457076,23.9015673 63.5007251,23.9015673 C68.3557427,23.9015673 72.2915556,19.9665029 72.2915556,15.1107368" id="Fill-10" fill="#3F3F3F" sketch:type="MSShapeGroup" mask="url(#mask-2)"></path>
                                <path d="M92.0147836,41.8320468 C92.0147836,26.4518363 79.546386,13.9841871 64.166924,13.9841871 C48.787462,13.9841871 36.3198129,26.4518363 36.3198129,41.8320468 C36.3198129,57.2115088 48.787462,69.6784094 64.166924,69.6784094 C79.546386,69.6784094 92.0147836,57.2115088 92.0147836,41.8320468" id="Fill-11" fill="#3F3F3F" sketch:type="MSShapeGroup" mask="url(#mask-2)"></path>
                                <path d="M64.166924,25.9181287 C55.1200936,25.9181287 40.8132865,30.9018947 40.8132865,54.2547836 C40.8132865,67.7381988 46.9849825,74.0962807 48.9618713,76.5395088 C50.7815673,78.788117 59.3695439,86.054924 64.166924,86.054924 L64.166924,25.9181287" id="Fill-12" fill="#EFCEA3" sketch:type="MSShapeGroup" mask="url(#mask-2)"></path>
                                <path d="M36.3123275,59.8231579 C35.9133567,56.0916959 37.7487719,52.7809123 40.4098246,52.4268538 C43.0731228,52.0727953 45.5537778,54.8109474 45.9527485,58.5424094 C46.3524678,62.2731228 44.5163041,65.5831579 41.8552515,65.9379649 C39.1927018,66.2912749 36.7120468,63.5538713 36.3123275,59.8231579" id="Fill-13" fill="#EFCEA3" sketch:type="MSShapeGroup" mask="url(#mask-2)"></path>
                                <path d="M64.0935673,25.9181287 C73.1403977,25.9181287 87.4472047,30.9018947 87.4472047,54.2547836 C87.4472047,67.7381988 81.2755088,74.0962807 79.2978713,76.5395088 C77.478924,78.788117 68.8909474,86.054924 64.0935673,86.054924 L64.0935673,25.9181287" id="Fill-14" fill="#EDC68C" sketch:type="MSShapeGroup" mask="url(#mask-2)"></path>
                                <path d="M92.0215205,59.8231579 C92.4204912,56.0916959 90.585076,52.7809123 87.9247719,52.4268538 C85.2614737,52.0727953 82.7800702,54.8109474 82.3810994,58.5424094 C81.9821287,62.2731228 83.8175439,65.5831579 86.479345,65.9379649 C89.1418947,66.2912749 91.6225497,63.5538713 92.0215205,59.8231579" id="Fill-15" fill="#EDC68C" sketch:type="MSShapeGroup" mask="url(#mask-2)"></path>
                                <path d="M64.166924,77.8299883 C67.6940351,77.8299883 70.5527018,75.7325848 70.5527018,73.1433918 L57.7818947,73.1433918 C57.7818947,75.7325848 60.6398129,77.8299883 64.166924,77.8299883" id="Fill-16" fill="#FFFFFF" sketch:type="MSShapeGroup" mask="url(#mask-2)"></path>
                                <path d="M74.1554152,57.9098947 C74.1554152,58.6367251 73.3178012,59.2273216 72.2840702,59.2273216 C71.2503392,59.2273216 70.4127251,58.6367251 70.4127251,57.9098947 C70.4127251,57.1830643 71.2503392,56.5924678 72.2840702,56.5924678 C73.3178012,56.5924678 74.1554152,57.1830643 74.1554152,57.9098947" id="Fill-17" fill="#482B1B" sketch:type="MSShapeGroup" mask="url(#mask-2)"></path>
                                <path d="M57.9211228,57.9098947 C57.9211228,58.6367251 57.0835088,59.2273216 56.0497778,59.2273216 C55.0160468,59.2273216 54.1784327,58.6367251 54.1784327,57.9098947 C54.1784327,57.1830643 55.0160468,56.5924678 56.0497778,56.5924678 C57.0835088,56.5924678 57.9211228,57.1830643 57.9211228,57.9098947" id="Fill-18" fill="#482B1B" sketch:type="MSShapeGroup" mask="url(#mask-2)"></path>
                                <path d="M64.6085614,19.3197661 C64.1751579,19.2643743 63.7222924,19.2261988 63.2364912,19.2217076 C63.2364912,19.2217076 47.9550877,20.3662222 43.7033918,40.2683509 C41.6613801,41.7991111 39.4105263,55.4516959 45.755883,58.3021287 C43.6053333,53.5706199 46.1795556,43.2729825 49.0696608,40.9996725 C53.129731,37.8056608 55.6246082,35.7688889 64.166924,35.7688889 C69.552655,35.7688889 71.1784795,27.4825731 70.2338246,23.798269 C68.5346433,19.2217076 64.197614,19.3931228 64.6085614,19.3197661" id="Fill-19" fill="#DBB27B" sketch:type="MSShapeGroup" mask="url(#mask-2)"></path>
                                <path d="M63.8600234,18.5712281 C63.4266199,18.5158363 62.9737544,18.4776608 62.4879532,18.4731696 C62.4879532,18.4739181 47.2065497,19.6176842 42.9548538,39.5198129 C40.9128421,41.0505731 37.9957895,54.0249825 44.3411462,56.8746667 C42.1905965,52.1431579 44.8217076,42.0513684 48.0628772,39.9195322 C52.3781988,37.0818246 55.4037895,35.7786199 63.9461053,35.7786199 C69.3318363,35.7786199 70.429193,26.7340351 69.4852865,23.049731 C67.7861053,18.4731696 63.449076,18.6445848 63.8600234,18.5712281" id="Fill-20" fill="#D3D3D3" sketch:type="MSShapeGroup" mask="url(#mask-2)"></path>
                                <path d="M64.7859649,18.5712281 C65.2193684,18.5158363 65.6722339,18.4776608 66.1572865,18.4731696 C66.1572865,18.4739181 81.4394386,19.6176842 85.6911345,39.5198129 C87.7331462,41.0505731 91.4750877,47.0044444 86.5422222,53.6379883 C85.8625497,48.0247018 83.8242807,42.0513684 80.5831111,39.9195322 C76.2670409,37.0818246 72.4884211,35.7786199 63.9461053,35.7786199 C58.5611228,35.7786199 58.2160468,26.7340351 59.1607018,23.049731 C60.8591345,18.4731696 65.1961637,18.6445848 64.7859649,18.5712281" id="Fill-21" fill="#3F3F3F" sketch:type="MSShapeGroup" mask="url(#mask-2)"></path>
                                <path d="M88.4517427,65.2957193 C88.4517427,65.9851228 87.8933333,66.5435322 87.2039298,66.5435322 C86.5145263,66.5435322 85.956117,65.9851228 85.956117,65.2957193 C85.956117,64.6063158 86.5145263,64.0479064 87.2039298,64.0479064 C87.8933333,64.0479064 88.4517427,64.6063158 88.4517427,65.2957193" id="Fill-22" fill="#F9E103" sketch:type="MSShapeGroup" mask="url(#mask-2)"></path>
                                <path d="M42.2542222,65.2957193 C42.2542222,65.9851228 41.6958129,66.5435322 41.0064094,66.5435322 C40.3170058,66.5435322 39.7585965,65.9851228 39.7585965,65.2957193 C39.7585965,64.6063158 40.3170058,64.0479064 41.0064094,64.0479064 C41.6958129,64.0479064 42.2542222,64.6063158 42.2542222,65.2957193" id="Fill-23" fill="#F9E103" sketch:type="MSShapeGroup" mask="url(#mask-2)"></path>
                            </g>
                        </g>
                    </g>
                </g>
            </g>
        </g>
    </g>
</svg>