<?xml version="1.0" encoding="UTF-8" standalone="no"?>
<svg width="253px" height="253px" viewBox="0 0 253 253" version="1.1" xmlns="http://www.w3.org/2000/svg" xmlns:xlink="http://www.w3.org/1999/xlink" xmlns:sketch="http://www.bohemiancoding.com/sketch/ns">
    <!-- Generator: Sketch 3.3.2 (12043) - http://www.bohemiancoding.com/sketch -->
    <title>img_profile_avatar_10</title>
    <desc>Created with Sketch.</desc>
    <defs>
        <path id="path-1" d="M245.034937,122.245135 C245.034937,54.7670279 190.323143,0.0661211853 122.830169,0.0661211853 C55.3415075,0.0661211853 0.631151684,54.7670279 0.631151684,122.245135 C0.631151684,189.724679 55.3415075,244.424149 122.830169,244.424149 C190.323143,244.424149 245.034937,189.724679 245.034937,122.245135"></path>
    </defs>
    <g id="Smartphone" stroke="none" stroke-width="1" fill="none" fill-rule="evenodd" sketch:type="MSPage">
        <g id="avatars_profile" sketch:type="MSLayerGroup" transform="translate(-2806.000000, -1.000000)">
            <g id="img_profile_avatar_10" transform="translate(2808.000000, 2.881356)">
                <path d="M247.086857,122.246572 C247.086857,54.7699027 192.375064,0.0675586024 124.884965,0.0675586024 C57.3934279,0.0675586024 2.68019666,54.7699027 2.68019666,122.246572 C2.68019666,189.724679 57.3934279,244.424149 124.884965,244.424149 C192.375064,244.424149 247.086857,189.724679 247.086857,122.246572" id="Fill-204" fill="#7A2CB7" sketch:type="MSShapeGroup"></path>
                <path d="M247.086857,122.246572 C247.086857,54.7699027 192.375064,0.0675586024 124.884965,0.0675586024 L124.884965,244.424149 C192.375064,244.424149 247.086857,189.724679 247.086857,122.246572" id="Fill-205" fill="#7027A0" sketch:type="MSShapeGroup"></path>
                <g id="Group-229" transform="translate(2.051920, 0.000000)">
                    <mask id="mask-2" sketch:name="Clip 207" fill="white">
                        <use xlink:href="#path-1"></use>
                    </mask>
                    <g id="Clip-207"></g>
                    <path d="M140.726698,193.822755 L122.605887,244.641199 L104.937953,193.822755 L104.937953,154.588456 L140.726698,154.588456 L140.726698,193.822755" id="Fill-206" fill="#C18148" sketch:type="MSShapeGroup" mask="url(#mask-2)"></path>
                    <path d="M140.726698,187.147391 L104.937953,161.094206 L104.937953,154.588456 L140.726698,154.588456 L140.726698,187.147391" id="Fill-208" fill="#915324" sketch:type="MSShapeGroup" mask="url(#mask-2)"></path>
                    <path d="M122.605887,244.641199 L122.605887,195.771893 C122.605887,195.771893 109.253938,192.461521 106.312397,181.64927 C104.897698,176.453008 104.937953,172.284498 104.937953,172.284498 C104.937953,172.284498 71.4337189,182.140867 64.9151728,192.323529 C59.4935942,208.464286 58.0055714,244.641199 58.0055714,244.641199 L122.605887,244.641199" id="Fill-209" fill="#C18148" sketch:type="MSShapeGroup" mask="url(#mask-2)"></path>
                    <path d="M122.605887,244.641199 L122.605887,195.771893 C122.605887,195.771893 136.534355,192.461521 139.480209,181.64927 C140.892034,176.453008 140.764078,172.429677 140.764078,172.429677 C140.764078,172.429677 173.779493,182.140867 180.296602,192.323529 C185.719618,208.464286 187.207641,244.641199 187.207641,244.641199 L122.605887,244.641199" id="Fill-210" fill="#C18148" sketch:type="MSShapeGroup" mask="url(#mask-2)"></path>
                    <path d="M138.012314,185.156568 L144.42447,189.819549 L149.21921,175.203892 C144.273511,173.464617 140.764078,172.429677 140.764078,172.429677 C140.764078,172.429677 137.605444,173.983525 136.192182,179.179788 C135.845696,180.453339 138.012314,185.156568 138.012314,185.156568" id="Fill-211" fill="#915324" sketch:type="MSShapeGroup" mask="url(#mask-2)"></path>
                    <path d="M100.512703,184.984078 C99.2834667,180.464839 98.8650951,176.529191 98.7227625,174.279633 C88.7149108,177.667625 69.6624686,184.907895 64.9151728,192.323529 C59.4935942,208.464286 58.0055714,244.641199 58.0055714,244.641199 L122.605887,244.641199 L122.605887,204.131911 C122.605887,204.131911 104.502329,199.644295 100.512703,184.984078" id="Fill-212" fill="#6C9525" sketch:type="MSShapeGroup" mask="url(#mask-2)"></path>
                    <path d="M180.296602,192.323529 C175.598188,184.98264 157.128015,177.886112 147.18486,174.499558 C147.07272,176.703118 146.698917,180.520898 145.485495,184.984078 C141.491556,199.644295 122.605887,204.131911 122.605887,204.131911 L122.605887,244.641199 L187.207641,244.641199 C187.207641,244.641199 185.719618,208.464286 180.296602,192.323529" id="Fill-213" fill="#678D23" sketch:type="MSShapeGroup" mask="url(#mask-2)"></path>
                    <path d="M127.177783,211.224126 C130.084819,212.182884 147.706747,203.112782 151.768258,195.293233 C156.232326,186.698916 155.749258,177.636002 155.750696,177.62594 C152.602126,176.394073 149.633269,175.33326 147.18486,174.499558 C147.07272,176.703118 146.698917,180.520898 145.485495,184.984078 C141.491556,199.644295 122.605887,204.131911 122.605887,204.131911 C122.605887,204.131911 125.179376,210.565789 127.177783,211.224126" id="Fill-214" fill="#E2E2E2" sketch:type="MSShapeGroup" mask="url(#mask-2)"></path>
                    <path d="M89.4610787,177.651813 C89.4495771,177.933547 89.0498956,186.831159 93.4435165,195.293233 C97.5050279,203.112782 115.128393,212.182884 118.035429,211.224126 C120.032399,210.565789 122.605887,204.131911 122.605887,204.131911 C122.605887,204.131911 104.502329,199.644295 100.512703,184.984078 C99.2834667,180.464839 98.8650951,176.529191 98.7227625,174.279633 C97.969406,174.536931 97.0924071,174.838788 96.1579,175.166519 C94.1134861,175.886665 91.8376021,176.721805 89.4610787,177.651813" id="Fill-215" fill="#E2E2E2" sketch:type="MSShapeGroup" mask="url(#mask-2)"></path>
                    <path d="M138.436437,28.2725564 C138.436437,18.9494693 130.876993,11.3915303 121.552051,11.3915303 C112.227108,11.3915303 104.666227,18.9494693 104.666227,28.2725564 C104.666227,37.5970809 112.227108,45.1535825 121.552051,45.1535825 C130.876993,45.1535825 138.436437,37.5970809 138.436437,28.2725564" id="Fill-216" fill="#D3D3D3" sketch:type="MSShapeGroup" mask="url(#mask-2)"></path>
                    <path d="M176.318477,79.5840336 C176.318477,50.0508625 152.370656,26.1092437 122.833044,26.1092437 C93.2939953,26.1092437 69.3461739,50.0508625 69.3461739,79.5840336 C69.3461739,109.117205 93.2939953,133.058824 122.833044,133.058824 C152.370656,133.058824 176.318477,109.117205 176.318477,79.5840336" id="Fill-217" fill="#D3D3D3" sketch:type="MSShapeGroup" mask="url(#mask-2)"></path>
                    <path d="M122.833044,49.0259841 C105.456964,49.0259841 77.9767059,58.5963069 77.9767059,103.440845 C77.9767059,129.333038 89.8305684,141.542459 93.6275425,146.234188 C97.1240365,150.552189 113.617367,164.506634 122.833044,164.506634 L122.833044,49.0259841" id="Fill-218" fill="#C18148" sketch:type="MSShapeGroup" mask="url(#mask-2)"></path>
                    <path d="M69.3332346,114.13379 C68.5655011,106.968266 72.0921869,100.610571 77.2017839,99.9306723 C82.3171318,99.250774 87.08168,104.508846 87.8494135,111.67437 C88.6157093,118.838456 85.0904612,125.194715 79.9779887,125.874613 C74.8640786,126.554511 70.0995304,121.297877 69.3332346,114.13379" id="Fill-219" fill="#C18148" sketch:type="MSShapeGroup" mask="url(#mask-2)"></path>
                    <path d="M122.690712,49.0259841 C140.066792,49.0259841 167.545612,58.5963069 167.545612,103.440845 C167.545612,129.333038 155.69175,141.542459 151.893338,146.234188 C148.401157,150.552189 131.904951,164.506634 122.690712,164.506634 L122.690712,49.0259841" id="Fill-220" fill="#AA6A35" sketch:type="MSShapeGroup" mask="url(#mask-2)"></path>
                    <path d="M176.331416,114.13379 C177.09915,106.968266 173.572464,100.610571 168.462867,99.9306723 C163.347519,99.250774 158.582971,104.508846 157.816675,111.67437 C157.048942,118.838456 160.57419,125.194715 165.686662,125.874613 C170.800572,126.554511 175.565121,121.297877 176.331416,114.13379" id="Fill-221" fill="#AA6A35" sketch:type="MSShapeGroup" mask="url(#mask-2)"></path>
                    <path d="M122.833044,148.712295 C129.606064,148.712295 135.096652,144.684653 135.096652,139.712627 L110.567999,139.712627 C110.567999,144.684653 116.058587,148.712295 122.833044,148.712295" id="Fill-222" fill="#FFFFFF" sketch:type="MSShapeGroup" mask="url(#mask-2)"></path>
                    <path d="M142.016318,110.459752 C142.016318,112.443388 140.407528,114.053295 138.42206,114.053295 C136.436592,114.053295 134.827802,112.443388 134.827802,110.459752 C134.827802,108.476117 136.436592,106.86621 138.42206,106.86621 C140.407528,106.86621 142.016318,108.476117 142.016318,110.459752" id="Fill-223" fill="#482B1B" sketch:type="MSShapeGroup" mask="url(#mask-2)"></path>
                    <path d="M110.835412,110.459752 C110.835412,112.443388 109.226622,114.053295 107.241154,114.053295 C105.255686,114.053295 103.646896,112.443388 103.646896,110.459752 C103.646896,108.476117 105.255686,106.86621 107.241154,106.86621 C109.226622,106.86621 110.835412,108.476117 110.835412,110.459752" id="Fill-224" fill="#482B1B" sketch:type="MSShapeGroup" mask="url(#mask-2)"></path>
                    <path d="M122.242148,34.9177355 C121.409718,34.8113667 120.539908,34.7380584 119.606838,34.7294339 C119.606838,34.7294339 90.2561286,36.9272446 82.0899747,75.1452897 C78.1679205,78.0848076 72.566629,102.999558 84.7526009,108.471805 C80.6220798,99.3858912 85.6756063,80.0066342 91.900861,75.9128704 C100.190657,70.4636223 106.000416,67.9610792 122.408922,67.9610792 C132.751758,67.9610792 134.860869,50.5927687 133.046488,43.5178019 C129.784339,34.7294339 121.452849,35.0586024 122.242148,34.9177355" id="Fill-225" fill="#D3D3D3" sketch:type="MSShapeGroup" mask="url(#mask-2)"></path>
                    <path d="M124.020587,34.9177355 C124.853017,34.8113667 125.722828,34.7380584 126.655897,34.7294339 C126.655897,34.7294339 156.006607,36.9272446 164.172761,75.1452897 C168.094815,78.0848076 175.281893,89.518023 165.807429,102.256413 C164.501995,91.4772225 160.587129,80.0066342 154.361875,75.9128704 C146.073516,70.4636223 138.81599,67.9610792 122.408922,67.9610792 C112.064648,67.9610792 111.401867,50.5927687 113.216248,43.5178019 C116.479834,34.7294339 124.809886,35.0586024 124.020587,34.9177355" id="Fill-226" fill="#D3D3D3" sketch:type="MSShapeGroup" mask="url(#mask-2)"></path>
                    <path d="M169.47501,124.642747 C169.47501,125.966608 168.402484,127.038921 167.078359,127.038921 C165.754234,127.038921 164.681708,125.966608 164.681708,124.642747 C164.681708,123.318885 165.754234,122.246572 167.078359,122.246572 C168.402484,122.246572 169.47501,123.318885 169.47501,124.642747" id="Fill-227" fill="#F9E103" sketch:type="MSShapeGroup" mask="url(#mask-2)"></path>
                    <path d="M80.7442845,124.642747 C80.7442845,125.966608 79.671758,127.038921 78.3476334,127.038921 C77.0235088,127.038921 75.9509822,125.966608 75.9509822,124.642747 C75.9509822,123.318885 77.0235088,122.246572 78.3476334,122.246572 C79.671758,122.246572 80.7442845,123.318885 80.7442845,124.642747" id="Fill-228" fill="#F9E103" sketch:type="MSShapeGroup" mask="url(#mask-2)"></path>
                </g>
            </g>
        </g>
    </g>
</svg>