<?xml version="1.0" encoding="UTF-8" standalone="no"?>
<svg width="249px" height="249px" viewBox="0 0 249 249" version="1.1" xmlns="http://www.w3.org/2000/svg" xmlns:xlink="http://www.w3.org/1999/xlink" xmlns:sketch="http://www.bohemiancoding.com/sketch/ns">
    <!-- Generator: Sketch 3.3.2 (12043) - http://www.bohemiancoding.com/sketch -->
    <title>Imported Layers</title>
    <desc>Created with Sketch.</desc>
    <defs>
        <path id="path-1" d="M249.80848,124.337719 C249.80848,55.7061404 194.172515,0.0701754386 125.539474,0.0701754386 C56.9108187,0.0701754386 1.2748538,55.7061404 1.2748538,124.337719 C1.2748538,192.969298 56.9108187,248.606725 125.539474,248.606725 C194.172515,248.606725 249.80848,192.969298 249.80848,124.337719"></path>
    </defs>
    <g id="GdS-md" stroke="none" stroke-width="1" fill="none" fill-rule="evenodd" sketch:type="MSPage">
        <g id="zzz---Assets" sketch:type="MSArtboardGroup" transform="translate(-547.000000, -259.000000)">
            <g id="Imported-Layers" sketch:type="MSLayerGroup" transform="translate(546.000000, 259.000000)">
                <path d="M249.80848,124.339181 C249.80848,55.7061404 194.172515,0.0716374269 125.540936,0.0716374269 C56.9108187,0.0716374269 1.27339181,55.7061404 1.27339181,124.339181 C1.27339181,192.969298 56.9108187,248.606725 125.540936,248.606725 C194.172515,248.606725 249.80848,192.969298 249.80848,124.339181" id="Fill-1" fill="#6C9525" sketch:type="MSShapeGroup"></path>
                <path d="M249.80848,124.339181 C249.80848,55.7061404 194.172515,0.0716374269 125.540936,0.0716374269 L125.540936,248.606725 C194.172515,248.606725 249.80848,192.969298 249.80848,124.339181" id="Fill-2" fill="#678D23" sketch:type="MSShapeGroup"></path>
                <g id="Group-20">
                    <mask id="mask-2" sketch:name="Clip 4" fill="white">
                        <use xlink:href="#path-1"></use>
                    </mask>
                    <g id="Clip-4"></g>
                    <path d="M143.738304,197.138889 L125.311404,248.826023 L107.345029,197.138889 L107.345029,157.233918 L143.738304,157.233918 L143.738304,197.138889" id="Fill-3" fill="#E9C7AC" sketch:type="MSShapeGroup" mask="url(#mask-2)"></path>
                    <path d="M143.738304,190.347953 L107.345029,163.849415 L107.345029,157.233918 L143.738304,157.233918 L143.738304,190.347953" id="Fill-5" fill="#CE9C88" sketch:type="MSShapeGroup" mask="url(#mask-2)"></path>
                    <path d="M125.311404,248.826023 L125.311404,199.119883 C125.311404,199.119883 111.733918,195.752924 108.74269,184.75731 C107.304094,179.472222 107.345029,175.230994 107.345029,175.230994 C107.345029,175.230994 73.2733918,185.25731 66.6461988,195.614035 C61.1330409,212.02924 59.6184211,248.826023 59.6184211,248.826023 L125.311404,248.826023" id="Fill-6" fill="#E9C7AC" sketch:type="MSShapeGroup" mask="url(#mask-2)"></path>
                    <path d="M125.311404,248.826023 L125.311404,199.119883 C125.311404,199.119883 139.666667,195.99269 142.660819,184.995614 C144.097953,179.710526 143.277778,175.230994 143.277778,175.230994 C143.277778,175.230994 177.349415,185.25731 183.976608,195.614035 C189.489766,212.02924 191.004386,248.826023 191.004386,248.826023 L125.311404,248.826023" id="Fill-7" fill="#CE9C88" sketch:type="MSShapeGroup" mask="url(#mask-2)"></path>
                    <path d="M125.311404,248.826023 L125.311404,195.960526 C125.311404,195.960526 111.356725,195.752924 108.365497,184.75731 C106.926901,179.472222 107.345029,175.230994 107.345029,175.230994 C107.345029,175.230994 73.2733918,185.25731 66.6461988,195.614035 C61.1330409,212.02924 59.6184211,248.826023 59.6184211,248.826023 L125.311404,248.826023" id="Fill-8" fill="#1E88E6" sketch:type="MSShapeGroup" mask="url(#mask-2)"></path>
                    <path d="M125.311404,248.826023 L125.311404,195.960526 C125.311404,195.960526 139.362573,195.752924 142.356725,184.75731 C143.79386,179.472222 143.738304,175.368421 143.738304,175.368421 C143.738304,175.368421 177.349415,185.25731 183.976608,195.614035 C189.489766,212.02924 191.004386,248.826023 191.004386,248.826023 L125.311404,248.826023" id="Fill-9" fill="#1976D3" sketch:type="MSShapeGroup" mask="url(#mask-2)"></path>
                    <path d="M102.444444,176.785088 C102.415205,178.852339 102.570175,182.77924 103.807018,187.321637 C107.603801,201.276316 125.311404,201.538012 125.311404,201.538012 C125.311404,201.538012 143.140351,201.276316 146.942982,187.321637 C148.173977,182.78655 148.539474,178.945906 148.647661,176.926901 C145.654971,175.934211 143.738304,175.368421 143.738304,175.368421 C143.738304,175.368421 143.79386,179.472222 142.356725,184.75731 C139.362573,195.752924 125.311404,195.960526 125.311404,195.960526 C125.311404,195.960526 111.356725,195.752924 108.365497,184.75731 C106.926901,179.472222 107.345029,175.230994 107.345029,175.230994 C107.345029,175.230994 105.432749,175.795322 102.444444,176.785088" id="Fill-10" fill="#534378" sketch:type="MSShapeGroup" mask="url(#mask-2)"></path>
                    <path d="M174.130117,102.323099 C174.130117,48.7251462 169.22076,31.3040936 126.640351,39.7105263 C106.995614,43.5891813 74.5570175,42.3903509 77.3187135,102.141813 C78.6184211,130.247076 96.5073099,133.785088 125.540936,133.785088 C154.576023,133.785088 174.130117,130.457602 174.130117,102.323099" id="Fill-11" fill="#F9A11C" sketch:type="MSShapeGroup" mask="url(#mask-2)"></path>
                    <path d="M125.540936,49.8669591 C107.872807,49.8669591 79.9283626,59.5994152 79.9283626,105.211988 C79.9283626,131.545322 87.5964912,145.426901 91.4576023,150.197368 C95.0131579,154.589181 116.171053,167.320175 125.540936,167.320175 L125.540936,49.8669591" id="Fill-12" fill="#F1D6BB" sketch:type="MSShapeGroup" mask="url(#mask-2)"></path>
                    <path d="M71.1374269,116.087719 C70.3581871,108.799708 73.9429825,102.333333 79.1403509,101.640351 C84.3421053,100.951754 89.1871345,106.298246 89.9663743,113.586257 C90.745614,120.871345 87.1608187,127.337719 81.9634503,128.02924 C76.7631579,128.72076 71.9181287,123.372807 71.1374269,116.087719" id="Fill-13" fill="#F1D6BB" sketch:type="MSShapeGroup" mask="url(#mask-2)"></path>
                    <path d="M125.397661,49.8669591 C143.067251,49.8669591 171.010234,59.5994152 171.010234,105.211988 C171.010234,131.545322 163.342105,145.426901 159.479532,150.197368 C155.926901,154.589181 134.767544,167.320175 125.397661,167.320175 L125.397661,49.8669591" id="Fill-14" fill="#EBC7A7" sketch:type="MSShapeGroup" mask="url(#mask-2)"></path>
                    <path d="M179.944444,116.087719 C180.725146,108.799708 177.138889,102.333333 171.942982,101.640351 C166.741228,100.951754 161.896199,106.298246 161.115497,113.586257 C160.336257,120.871345 163.921053,127.337719 169.119883,128.02924 C174.320175,128.72076 179.165205,123.372807 179.944444,116.087719" id="Fill-15" fill="#EBC7A7" sketch:type="MSShapeGroup" mask="url(#mask-2)"></path>
                    <path d="M125.540936,151.25731 C132.429825,151.25731 138.013158,147.159357 138.013158,142.102339 L113.070175,142.102339 C113.070175,147.159357 118.652047,151.25731 125.540936,151.25731" id="Fill-16" fill="#FFFFFF" sketch:type="MSShapeGroup" mask="url(#mask-2)"></path>
                    <path d="M145.049708,112.350877 C145.049708,114.368421 143.413743,116.005848 141.394737,116.005848 C139.375731,116.005848 137.739766,114.368421 137.739766,112.350877 C137.739766,110.331871 139.375731,108.695906 141.394737,108.695906 C143.413743,108.695906 145.049708,110.331871 145.049708,112.350877" id="Fill-17" fill="#482B1B" sketch:type="MSShapeGroup" mask="url(#mask-2)"></path>
                    <path d="M113.342105,112.350877 C113.342105,114.368421 111.70614,116.005848 109.687135,116.005848 C107.668129,116.005848 106.032164,114.368421 106.032164,112.350877 C106.032164,110.331871 107.668129,108.695906 109.687135,108.695906 C111.70614,108.695906 113.342105,110.331871 113.342105,112.350877" id="Fill-18" fill="#482B1B" sketch:type="MSShapeGroup" mask="url(#mask-2)"></path>
                    <path d="M82.6871345,112.350877 L84.8874269,112.350877 C84.8874269,112.350877 92.9312865,93.2339181 88.9093567,80.7061404 C88.9093567,80.7061404 113.809942,86.8947368 132.214912,77.1476608 C150.619883,67.4049708 158.289474,79.1535088 160.171053,81.9137427 C163.364035,86.5994152 162.374269,111.173977 162.374269,111.173977 L164.847953,111.019006 C164.847953,111.019006 165.070175,103.283626 170.94883,101.581871 C170.94883,101.581871 177.352339,44.6695906 125.397661,44.6695906 C73.4429825,44.6695906 79.1652047,100.811404 79.1652047,100.811404 C79.1652047,100.811404 82.6871345,104.864035 82.6871345,112.350877" id="Fill-19" fill="#F9A11C" sketch:type="MSShapeGroup" mask="url(#mask-2)"></path>
                </g>
            </g>
        </g>
    </g>
</svg>