<?xml version="1.0" encoding="UTF-8" standalone="no"?>
<svg width="255px" height="255px" viewBox="0 0 255 255" version="1.1" xmlns="http://www.w3.org/2000/svg" xmlns:xlink="http://www.w3.org/1999/xlink" xmlns:sketch="http://www.bohemiancoding.com/sketch/ns">
    <!-- Generator: Sketch 3.3.2 (12043) - http://www.bohemiancoding.com/sketch -->
    <title>img_profile_avatar_03</title>
    <desc>Created with Sketch.</desc>
    <defs>
        <path id="path-1" d="M246.956366,124.308876 C246.956366,56.2603702 191.782363,1.09444692 123.717415,1.09444692 C55.6568153,1.09444692 0.48136251,56.2603702 0.48136251,124.308876 C0.48136251,192.360281 55.6568153,247.524755 123.717415,247.524755 C191.782363,247.524755 246.956366,192.360281 246.956366,124.308876"></path>
    </defs>
    <g id="Smartphone" stroke="none" stroke-width="1" fill="none" fill-rule="evenodd" sketch:type="MSPage">
        <g id="avatars_profile" sketch:type="MSLayerGroup" transform="translate(-621.000000, 0.000000)">
            <g id="img_profile_avatar_03" transform="translate(624.000000, 0.881356)">
                <path d="M248.130882,124.644848 C248.130882,56.594893 192.955429,1.43041927 124.89193,1.43041927 C56.8298808,1.43041927 1.65297816,56.594893 1.65297816,124.644848 C1.65297816,192.694804 56.8298808,247.859277 124.89193,247.859277 C192.955429,247.859277 248.130882,192.694804 248.130882,124.644848" id="Fill-86" fill="#1BC9B4" sketch:type="MSShapeGroup"></path>
                <path d="M248.130882,124.644848 C248.130882,56.594893 192.955429,1.43041927 124.89193,1.43041927 L124.89193,247.859277 C192.955429,247.859277 248.130882,192.694804 248.130882,124.644848" id="Fill-87" fill="#12B2A3" sketch:type="MSShapeGroup"></path>
                <g id="Group-105" transform="translate(1.173066, 0.334523)">
                    <mask id="mask-2" sketch:name="Clip 89" fill="white">
                        <use xlink:href="#path-1"></use>
                    </mask>
                    <g id="Clip-89"></g>
                    <path d="M141.765609,196.493087 L123.491232,247.743644 L105.67357,196.493087 L105.67357,156.926293 L141.765609,156.926293 L141.765609,196.493087" id="Fill-88" fill="#E9C7AC" sketch:type="MSShapeGroup" mask="url(#mask-2)"></path>
                    <path d="M141.765609,189.761151 L105.67357,163.487177 L105.67357,156.926293 L141.765609,156.926293 L141.765609,189.761151" id="Fill-90" fill="#CE9C88" sketch:type="MSShapeGroup" mask="url(#mask-2)"></path>
                    <path d="M123.491232,247.743644 L123.491232,198.458742 C123.491232,198.458742 110.026131,195.120317 107.059662,184.216436 C105.632973,178.976137 105.67357,174.772302 105.67357,174.772302 C105.67357,174.772302 71.8839515,184.712199 65.3116133,194.981155 C59.8440892,211.258698 58.343456,247.743644 58.343456,247.743644 L123.491232,247.743644" id="Fill-91" fill="#E9C7AC" sketch:type="MSShapeGroup" mask="url(#mask-2)"></path>
                    <path d="M123.491232,247.743644 L123.491232,198.458742 C123.491232,198.458742 137.727673,195.356601 140.697042,184.45417 C142.122281,179.213872 141.308894,174.772302 141.308894,174.772302 C141.308894,174.772302 175.098513,184.712199 181.670851,194.981155 C187.139825,211.258698 188.640458,247.743644 188.640458,247.743644 L123.491232,247.743644" id="Fill-92" fill="#CE9C88" sketch:type="MSShapeGroup" mask="url(#mask-2)"></path>
                    <path d="M123.491232,247.743644 L123.491232,195.32616 C123.491232,195.32616 109.65206,195.120317 106.685591,184.216436 C105.258902,178.976137 105.67357,174.772302 105.67357,174.772302 C105.67357,174.772302 71.8839515,184.712199 65.3116133,194.981155 C59.8440892,211.258698 58.343456,247.743644 58.343456,247.743644 L123.491232,247.743644" id="Fill-93" fill="#471B1B" sketch:type="MSShapeGroup" mask="url(#mask-2)"></path>
                    <path d="M123.491232,247.743644 L123.491232,195.32616 C123.491232,195.32616 137.426097,195.120317 140.395466,184.216436 C141.820705,178.976137 141.765609,174.908564 141.765609,174.908564 C141.765609,174.908564 175.098513,184.712199 181.670851,194.981155 C187.139825,211.258698 188.640458,247.743644 188.640458,247.743644 L123.491232,247.743644" id="Fill-94" fill="#3A1616" sketch:type="MSShapeGroup" mask="url(#mask-2)"></path>
                    <path d="M100.813548,176.313225 C100.784551,178.361508 100.938239,182.256579 102.164843,186.759032 C105.9302,200.59545 123.491232,200.854929 123.491232,200.854929 C123.491232,200.854929 141.172605,200.59545 144.943761,186.759032 C146.164566,182.263827 146.527038,178.455731 146.63433,176.453836 C143.666411,175.468109 141.765609,174.908564 141.765609,174.908564 C141.765609,174.908564 141.820705,178.976137 140.395466,184.216436 C137.426097,195.120317 123.491232,195.32616 123.491232,195.32616 C123.491232,195.32616 109.65206,195.120317 106.685591,184.216436 C105.258902,178.976137 105.67357,174.772302 105.67357,174.772302 C105.67357,174.772302 103.777118,175.331847 100.813548,176.313225" id="Fill-95" fill="#331111" sketch:type="MSShapeGroup" mask="url(#mask-2)"></path>
                    <path d="M171.905861,102.48227 C171.905861,49.338537 167.037141,32.0651204 124.80918,40.4003122 C105.327047,44.2446476 73.1569523,43.0574264 75.895789,102.30252 C77.1847386,130.169603 94.9255569,133.676182 123.718864,133.676182 C152.513622,133.676182 171.905861,130.378345 171.905861,102.48227" id="Fill-96" fill="#AD5A31" sketch:type="MSShapeGroup" mask="url(#mask-2)"></path>
                    <path d="M123.718864,50.4692239 C106.195529,50.4692239 78.4838375,60.1206512 78.4838375,105.345227 C78.4838375,131.456847 86.0884952,145.219335 89.917647,149.950825 C93.4437723,154.305419 114.426538,166.928524 123.718864,166.928524 L123.718864,50.4692239" id="Fill-97" fill="#F1D6BB" sketch:type="MSShapeGroup" mask="url(#mask-2)"></path>
                    <path d="M69.7656665,116.130241 C68.9928766,108.902542 72.5479998,102.492417 77.7023483,101.805308 C82.8610465,101.121097 87.6659723,106.423729 88.4387621,113.649978 C89.2130018,120.871878 85.6564288,127.284902 80.5020803,127.970562 C75.3448319,128.654773 70.5399062,123.352141 69.7656665,116.130241" id="Fill-98" fill="#F1D6BB" sketch:type="MSShapeGroup" mask="url(#mask-2)"></path>
                    <path d="M123.576775,50.4692239 C141.100111,50.4692239 168.811802,60.1206512 168.811802,105.345227 C168.811802,131.456847 161.207145,145.219335 157.376543,149.950825 C153.854767,154.305419 132.869102,166.928524 123.576775,166.928524 L123.576775,50.4692239" id="Fill-99" fill="#EBC7A7" sketch:type="MSShapeGroup" mask="url(#mask-2)"></path>
                    <path d="M177.672062,116.130241 C178.446302,108.902542 174.889729,102.492417 169.73683,101.805308 C164.578132,101.121097 159.773206,106.423729 158.998967,113.649978 C158.226177,120.871878 161.7813,127.284902 166.937098,127.970562 C172.094347,128.654773 176.899273,123.352141 177.672062,116.130241" id="Fill-100" fill="#EBC7A7" sketch:type="MSShapeGroup" mask="url(#mask-2)"></path>
                    <path d="M123.718864,151.000335 C130.550732,151.000335 136.087851,146.938559 136.087851,141.924398 L111.351328,141.924398 C111.351328,146.938559 116.886997,151.000335 123.718864,151.000335" id="Fill-101" fill="#FFFFFF" sketch:type="MSShapeGroup" mask="url(#mask-2)"></path>
                    <path d="M143.066158,112.423617 C143.066158,114.425513 141.443734,116.047614 139.44144,116.047614 C137.439146,116.047614 135.816722,114.425513 135.816722,112.423617 C135.816722,110.421722 137.439146,108.799621 139.44144,108.799621 C141.443734,108.799621 143.066158,110.421722 143.066158,112.423617" id="Fill-102" fill="#482B1B" sketch:type="MSShapeGroup" mask="url(#mask-2)"></path>
                    <path d="M111.621007,112.423617 C111.621007,114.425513 109.998583,116.047614 107.996289,116.047614 C105.993995,116.047614 104.371571,114.425513 104.371571,112.423617 C104.371571,110.421722 105.993995,108.799621 107.996289,108.799621 C109.998583,108.799621 111.621007,110.421722 111.621007,112.423617" id="Fill-103" fill="#482B1B" sketch:type="MSShapeGroup" mask="url(#mask-2)"></path>
                    <path d="M81.2197744,112.423617 L83.4018544,112.423617 C83.4018544,112.423617 91.3791331,93.470116 87.3904938,81.0485058 C87.3904938,81.0485058 112.084971,87.183207 130.337599,77.5201829 C148.590227,67.860058 156.196335,79.5075825 158.06234,82.2458742 C161.228893,86.8918376 160.247319,111.25814 160.247319,111.25814 L162.700528,111.104483 C162.700528,111.104483 162.920911,103.434657 168.750907,101.747324 C168.750907,101.747324 175.101413,45.315901 123.576775,45.315901 C72.0521384,45.315901 77.7269964,100.983385 77.7269964,100.983385 C77.7269964,100.983385 81.2197744,105.001673 81.2197744,112.423617" id="Fill-104" fill="#AD5A31" sketch:type="MSShapeGroup" mask="url(#mask-2)"></path>
                </g>
            </g>
        </g>
    </g>
</svg>