<?xml version="1.0" encoding="UTF-8" standalone="no"?>
<svg width="255px" height="255px" viewBox="0 0 255 255" version="1.1" xmlns="http://www.w3.org/2000/svg" xmlns:xlink="http://www.w3.org/1999/xlink" xmlns:sketch="http://www.bohemiancoding.com/sketch/ns">
    <!-- Generator: Sketch 3.3.2 (12043) - http://www.bohemiancoding.com/sketch -->
    <title>img_profile_avatar_11</title>
    <desc>Created with Sketch.</desc>
    <defs>
        <path id="path-1" d="M247.604466,123.279661 C247.604466,55.2311552 192.430463,0.0666815343 124.365514,0.0666815343 C56.3049148,0.0666815343 1.12946203,55.2311552 1.12946203,123.279661 C1.12946203,191.331066 56.3049148,246.49554 124.365514,246.49554 C192.430463,246.49554 247.604466,191.331066 247.604466,123.279661"></path>
    </defs>
    <g id="Smartphone" stroke="none" stroke-width="1" fill="none" fill-rule="evenodd" sketch:type="MSPage">
        <g id="avatars_profile" sketch:type="MSLayerGroup" transform="translate(-3117.000000, 0.000000)">
            <g id="img_profile_avatar_11" transform="translate(3120.000000, 1.881356)">
                <path d="M247.605916,123.28256 C247.605916,55.2326048 192.430463,0.0666815343 124.366964,0.0666815343 C56.3049148,0.0666815343 1.12801215,55.2326048 1.12801215,123.28256 C1.12801215,191.332516 56.3049148,246.49554 124.366964,246.49554 C192.430463,246.49554 247.605916,191.332516 247.605916,123.28256" id="Fill-230" fill="#6C9525" sketch:type="MSShapeGroup"></path>
                <path d="M247.605916,123.28256 C247.605916,55.2326048 192.430463,0.0666815343 124.366964,0.0666815343 L124.366964,246.49554 C192.430463,246.49554 247.605916,191.332516 247.605916,123.28256" id="Fill-231" fill="#678D23" sketch:type="MSShapeGroup"></path>
                <g id="Group-256">
                    <mask id="mask-2" sketch:name="Clip 233" fill="white">
                        <use xlink:href="#path-1"></use>
                    </mask>
                    <g id="Clip-233"></g>
                    <path d="M142.413708,195.463872 L124.139332,246.714429 L106.321669,195.463872 L106.321669,155.897079 L142.413708,155.897079 L142.413708,195.463872" id="Fill-232" fill="#E9C7AC" sketch:type="MSShapeGroup" mask="url(#mask-2)"></path>
                    <path d="M142.413708,188.733385 L106.321669,162.459411 L106.321669,155.897079 L142.413708,155.897079 L142.413708,188.733385" id="Fill-234" fill="#CE9C88" sketch:type="MSShapeGroup" mask="url(#mask-2)"></path>
                    <path d="M124.139332,246.714429 L124.139332,197.429527 C124.139332,197.429527 110.67423,194.092551 107.707761,183.188671 C106.281073,177.948372 106.321669,173.743087 106.321669,173.743087 C106.321669,173.743087 69.6322768,185.134032 63.0599387,195.401539 C57.5924145,211.679081 56.0917814,248.164028 56.0917814,248.164028 L124.139332,246.714429" id="Fill-235" fill="#E9C7AC" sketch:type="MSShapeGroup" mask="url(#mask-2)"></path>
                    <path d="M124.139332,246.714429 L124.139332,197.429527 C124.139332,197.429527 137.601533,194.092551 140.572352,183.188671 C141.997591,177.948372 141.956994,173.743087 141.956994,173.743087 C141.956994,173.743087 178.646387,185.134032 185.218725,195.401539 C190.687699,211.679081 192.188332,248.164028 192.188332,248.164028 L124.139332,246.714429" id="Fill-236" fill="#CE9C88" sketch:type="MSShapeGroup" mask="url(#mask-2)"></path>
                    <path d="M124.139332,246.714429 L124.139332,197.429527 C124.139332,197.429527 110.67423,194.092551 107.707761,183.188671 C106.281073,177.948372 106.321669,173.743087 106.321669,173.743087 C106.321669,173.743087 69.6322768,185.134032 63.0599387,195.401539 C57.5924145,211.679081 56.0917814,248.164028 56.0917814,248.164028 L124.139332,246.714429" id="Fill-237" fill="#344650" sketch:type="MSShapeGroup" mask="url(#mask-2)"></path>
                    <path d="M124.139332,246.714429 L124.139332,197.429527 C124.139332,197.429527 137.601533,194.092551 140.572352,183.188671 C141.997591,177.948372 141.956994,173.743087 141.956994,173.743087 C141.956994,173.743087 178.646387,185.134032 185.218725,195.401539 C190.687699,211.679081 192.188332,248.164028 192.188332,248.164028 L124.139332,246.714429" id="Fill-238" fill="#2D404E" sketch:type="MSShapeGroup" mask="url(#mask-2)"></path>
                    <path d="M146.744521,175.259367 L124.139332,179.944469 L101.534142,175.259367 L124.365514,246.49554 L146.744521,175.259367" id="Fill-239" fill="#8E8E8E" sketch:type="MSShapeGroup" mask="url(#mask-2)"></path>
                    <path d="M129.263233,184.791927 L124.139332,179.944469 L119.354704,184.791927 L122.422665,188.370986 L119.4156,237.961753 L124.366964,246.49554 L129.383573,238.263269 L126.114078,188.39273 L129.263233,184.791927" id="Fill-240" fill="#990000" sketch:type="MSShapeGroup" mask="url(#mask-2)"></path>
                    <path d="M145.467171,174.195361 L124.366964,246.49554 L149.319521,207.579616 L147.26648,204.31802 L151.616142,202.746655 L154.788495,178.217997 L145.467171,174.195361" id="Fill-241" fill="#142833" sketch:type="MSShapeGroup" mask="url(#mask-2)"></path>
                    <path d="M103.268207,174.195361 L124.366964,246.49554 L99.4144073,207.579616 L101.467447,204.31802 L97.1177862,202.746655 L93.9309344,178.09913 L103.268207,174.195361" id="Fill-242" fill="#142833" sketch:type="MSShapeGroup" mask="url(#mask-2)"></path>
                    <path d="M111.992178,197.928189 L124.139332,179.944469 L106.321669,171.655665 L101.773374,174.820138 L111.992178,197.928189" id="Fill-243" fill="#D6D6D6" sketch:type="MSShapeGroup" mask="url(#mask-2)"></path>
                    <path d="M136.286486,197.928189 L124.139332,179.944469 L142.413708,171.655665 L146.274758,174.533118 L136.286486,197.928189" id="Fill-244" fill="#D6D6D6" sketch:type="MSShapeGroup" mask="url(#mask-2)"></path>
                    <path d="M124.366964,49.4414585 C106.843629,49.4414585 79.131937,59.0928858 79.131937,104.316012 C79.131937,130.429081 86.7365947,144.19012 90.5657465,148.92306 C94.0918719,153.276204 115.074638,165.899309 124.366964,165.899309 L124.366964,49.4414585" id="Fill-245" fill="#F1D6BB" sketch:type="MSShapeGroup" mask="url(#mask-2)"></path>
                    <path d="M70.413766,115.101026 C69.6409762,107.874777 73.1960993,101.463202 78.3504478,100.777542 C83.5091461,100.091882 88.3140719,105.394514 89.0868617,112.620763 C89.8611014,119.844112 86.3045284,126.255687 81.1501798,126.941347 C75.9929315,127.625558 71.1880057,122.324376 70.413766,115.101026" id="Fill-246" fill="#F1D6BB" sketch:type="MSShapeGroup" mask="url(#mask-2)"></path>
                    <path d="M124.224875,49.4414585 C141.74821,49.4414585 169.459902,59.0928858 169.459902,104.316012 C169.459902,130.429081 161.855244,144.19012 158.024643,148.92306 C154.502867,153.276204 133.517201,165.899309 124.224875,165.899309 L124.224875,49.4414585" id="Fill-247" fill="#EBC7A7" sketch:type="MSShapeGroup" mask="url(#mask-2)"></path>
                    <path d="M178.320162,115.101026 C179.094402,107.874777 175.537829,101.463202 170.38493,100.777542 C165.226232,100.091882 160.421306,105.394514 159.647066,112.620763 C158.874276,119.844112 162.4294,126.255687 167.585198,126.941347 C172.742446,127.625558 177.547372,122.324376 178.320162,115.101026" id="Fill-248" fill="#EBC7A7" sketch:type="MSShapeGroup" mask="url(#mask-2)"></path>
                    <path d="M98.3632392,135.641838 C92.7594256,134.627119 83.2293179,131.201717 81.2357231,124.678524 L81.2357231,126.31657 C83.7701257,138.536686 88.0066958,145.760036 90.5657465,148.92306 C94.0744732,153.25446 114.864404,165.770294 124.224875,165.89351 L124.224875,134.917038 C118.117951,134.917038 107.877398,137.362511 98.3632392,135.641838" id="Fill-249" fill="#E5E6E7" sketch:type="MSShapeGroup" mask="url(#mask-2)"></path>
                    <path d="M158.024643,148.92306 C160.538747,145.81802 164.663676,138.794715 167.212577,126.980486 L167.212577,124.678524 C165.218982,131.201717 155.690324,134.627119 150.086511,135.641838 C140.570902,137.362511 130.331799,134.917038 124.224875,134.917038 L124.224875,165.899309 C133.517201,165.899309 154.502867,153.276204 158.024643,148.92306" id="Fill-250" fill="#D3D3D3" sketch:type="MSShapeGroup" mask="url(#mask-2)"></path>
                    <path d="M124.366964,149.972569 C128.641231,149.972569 132.103561,147.431423 132.103561,144.294492 L116.630367,144.294492 C116.630367,147.431423 120.094147,149.972569 124.366964,149.972569" id="Fill-251" fill="#FFFFFF" sketch:type="MSShapeGroup" mask="url(#mask-2)"></path>
                    <path d="M143.714257,111.394402 C143.714257,113.396298 142.091833,115.018399 140.089539,115.018399 C138.087245,115.018399 136.464822,113.396298 136.464822,111.394402 C136.464822,109.393956 138.087245,107.770406 140.089539,107.770406 C142.091833,107.770406 143.714257,109.393956 143.714257,111.394402" id="Fill-252" fill="#482B1B" sketch:type="MSShapeGroup" mask="url(#mask-2)"></path>
                    <path d="M112.269106,111.394402 C112.269106,113.396298 110.646683,115.018399 108.644388,115.018399 C106.642094,115.018399 105.019671,113.396298 105.019671,111.394402 C105.019671,109.393956 106.642094,107.770406 108.644388,107.770406 C110.646683,107.770406 112.269106,109.393956 112.269106,111.394402" id="Fill-253" fill="#482B1B" sketch:type="MSShapeGroup" mask="url(#mask-2)"></path>
                    <path d="M165.875781,111.394402 C166.074416,104.224688 168.932143,101.22112 169.391757,100.781891 C169.391757,100.774643 169.391757,100.767395 169.390307,100.760147 C169.377258,100.380352 169.36276,100.013604 169.348261,99.6396075 C168.321741,76.8417707 159.796405,63.9070027 149.516705,56.9010928 C149.093338,59.4799286 148.259653,62.8806869 148.419141,67.4208296 C148.81931,78.7914808 153.769224,81.809545 157.373643,84.9696699 C164.369348,91.1043711 162.970207,113.165812 162.970207,113.165812 L165.875781,111.394402" id="Fill-254" fill="#E5E6E7" sketch:type="MSShapeGroup" mask="url(#mask-2)"></path>
                    <path d="M79.2464781,99.5990187 C79.2319792,100.002007 79.2145805,100.394848 79.2000817,100.802186 C79.658246,101.239964 82.5174233,104.243533 82.7160578,111.416146 L85.6216315,113.186106 C85.6216315,113.186106 84.2224905,91.1261151 91.2181957,84.9914139 C94.8226149,81.8298394 99.7725294,78.8117752 100.172698,67.4425736 C100.332186,62.8908341 99.4941511,59.4842774 99.0707841,56.9025424 C88.799784,63.9055531 80.2802475,76.830174 79.2464781,99.5990187" id="Fill-255" fill="#E5E6E7" sketch:type="MSShapeGroup" mask="url(#mask-2)"></path>
                </g>
            </g>
        </g>
    </g>
</svg>