<?xml version="1.0" encoding="UTF-8" standalone="no"?>
<svg width="253px" height="253px" viewBox="0 0 253 253" version="1.1" xmlns="http://www.w3.org/2000/svg" xmlns:xlink="http://www.w3.org/1999/xlink" xmlns:sketch="http://www.bohemiancoding.com/sketch/ns">
    <!-- Generator: Sketch 3.3.2 (12043) - http://www.bohemiancoding.com/sketch -->
    <title>img_profile_avatar_06</title>
    <desc>Created with Sketch.</desc>
    <defs>
        <path id="path-1" d="M245.034937,122.847413 C245.034937,55.3693056 190.323143,0.668398939 122.831607,0.668398939 C55.3415075,0.668398939 0.631151684,55.3693056 0.631151684,122.847413 C0.631151684,190.324082 55.3415075,245.026426 122.831607,245.026426 C190.323143,245.026426 245.034937,190.324082 245.034937,122.847413"></path>
    </defs>
    <g id="Smartphone" stroke="none" stroke-width="1" fill="none" fill-rule="evenodd" sketch:type="MSPage">
        <g id="avatars_profile" sketch:type="MSLayerGroup" transform="translate(-1558.000000, -1.000000)">
            <g id="img_profile_avatar_06" transform="translate(1560.000000, 2.881356)">
                <path d="M247.088295,122.84885 C247.088295,55.370743 192.375064,0.669836356 124.884965,0.669836356 C57.3934279,0.669836356 2.68019666,55.370743 2.68019666,122.84885 C2.68019666,190.32552 57.3934279,245.026426 124.884965,245.026426 C192.375064,245.026426 247.088295,190.32552 247.088295,122.84885" id="Fill-25" fill="#1E88E6" sketch:type="MSShapeGroup"></path>
                <path d="M247.088295,122.84885 C247.088295,55.370743 192.375064,0.669836356 124.884965,0.669836356 L124.884965,245.026426 C192.375064,245.026426 247.088295,190.32552 247.088295,122.84885" id="Fill-26" fill="#1976D3" sketch:type="MSShapeGroup"></path>
                <g id="Group-45" transform="translate(2.051920, 0.000000)">
                    <mask id="mask-2" sketch:name="Clip 28" fill="white">
                        <use xlink:href="#path-1"></use>
                    </mask>
                    <g id="Clip-28"></g>
                    <path d="M140.726698,194.423596 L122.605887,245.243476 L104.937953,194.423596 L104.937953,155.189297 L140.726698,155.189297 L140.726698,194.423596" id="Fill-27" fill="#E9C7AC" sketch:type="MSShapeGroup" mask="url(#mask-2)"></path>
                    <path d="M140.726698,187.748231 L104.937953,161.695046 L104.937953,155.189297 L140.726698,155.189297 L140.726698,187.748231" id="Fill-29" fill="#CE9C88" sketch:type="MSShapeGroup" mask="url(#mask-2)"></path>
                    <path d="M122.605887,245.243476 L122.605887,196.372733 C122.605887,196.372733 109.253938,193.063799 106.312397,182.251548 C104.897698,177.055285 104.937953,172.885338 104.937953,172.885338 C104.937953,172.885338 71.4337189,182.743145 64.9151728,192.92437 C59.4935942,209.065126 58.0055714,245.243476 58.0055714,245.243476 L122.605887,245.243476" id="Fill-30" fill="#E9C7AC" sketch:type="MSShapeGroup" mask="url(#mask-2)"></path>
                    <path d="M122.605887,245.243476 L122.605887,196.372733 C122.605887,196.372733 135.956399,193.063799 138.900815,182.251548 C140.314077,177.055285 140.273821,172.885338 140.273821,172.885338 C140.273821,172.885338 173.779493,182.743145 180.296602,192.92437 C185.719618,209.065126 187.207641,245.243476 187.207641,245.243476 L122.605887,245.243476" id="Fill-31" fill="#CE9C88" sketch:type="MSShapeGroup" mask="url(#mask-2)"></path>
                    <path d="M122.605887,245.243476 L122.605887,196.372733 C122.605887,196.372733 101.877083,192.940181 99.3984829,174.651924 C89.5962228,177.936422 69.7688586,185.341995 64.9151728,192.92437 C59.4935942,209.065126 58.0055714,245.243476 58.0055714,245.243476 L122.605887,245.243476" id="Fill-32" fill="#F9A11C" sketch:type="MSShapeGroup" mask="url(#mask-2)"></path>
                    <path d="M122.605887,245.243476 L122.605887,196.372733 C122.605887,196.372733 142.736607,194.133238 146.480386,174.876161 C156.488237,178.26559 175.549306,185.508735 180.296602,192.92437 C185.719618,209.065126 187.207641,245.243476 187.207641,245.243476 L122.605887,245.243476" id="Fill-33" fill="#F68D1F" sketch:type="MSShapeGroup" mask="url(#mask-2)"></path>
                    <path d="M174.53285,82.0492039 C174.53285,54.3875498 151.384391,31.962406 122.833044,31.962406 C94.2802597,31.962406 71.1332389,54.3875498 71.1332389,82.0492039 C71.1332389,109.710858 94.2802597,132.136002 122.833044,132.136002 C151.384391,132.136002 174.53285,109.710858 174.53285,82.0492039" id="Fill-34" fill="#482B1B" sketch:type="MSShapeGroup" mask="url(#mask-2)"></path>
                    <path d="M122.833044,49.6282618 C105.456964,49.6282618 77.9767059,59.1971473 77.9767059,104.043123 C77.9767059,129.935316 85.517459,143.580716 89.314433,148.273883 C92.8109271,152.590447 113.617367,165.107475 122.833044,165.107475 L122.833044,49.6282618" id="Fill-35" fill="#F1D6BB" sketch:type="MSShapeGroup" mask="url(#mask-2)"></path>
                    <path d="M69.3332346,114.736068 C68.5655011,107.570544 72.0921869,101.211411 77.2017839,100.531513 C82.3171318,99.8530517 87.08168,105.111123 87.8494135,112.276648 C88.6157093,119.439297 85.0904612,125.796992 79.9779887,126.476891 C74.8640786,127.156789 70.0995304,121.898717 69.3332346,114.736068" id="Fill-36" fill="#F1D6BB" sketch:type="MSShapeGroup" mask="url(#mask-2)"></path>
                    <path d="M122.690712,49.6282618 C140.066792,49.6282618 167.545612,59.1971473 167.545612,104.043123 C167.545612,129.935316 160.004859,143.580716 156.206448,148.273883 C152.714267,152.590447 131.904951,165.107475 122.690712,165.107475 L122.690712,49.6282618" id="Fill-37" fill="#EBC7A7" sketch:type="MSShapeGroup" mask="url(#mask-2)"></path>
                    <path d="M176.331416,114.736068 C177.09915,107.570544 173.572464,101.211411 168.462867,100.531513 C163.347519,99.8530517 158.582971,105.111123 157.816675,112.276648 C157.048942,119.439297 160.57419,125.796992 165.686662,126.476891 C170.800572,127.156789 175.565121,121.898717 176.331416,114.736068" id="Fill-38" fill="#EBC7A7" sketch:type="MSShapeGroup" mask="url(#mask-2)"></path>
                    <path d="M122.833044,149.314573 C129.607502,149.314573 135.096652,145.285493 135.096652,140.313467 L110.567999,140.313467 C110.567999,145.285493 116.058587,149.314573 122.833044,149.314573" id="Fill-39" fill="#FFFFFF" sketch:type="MSShapeGroup" mask="url(#mask-2)"></path>
                    <path d="M120.304124,36.7245688 C88.553888,36.7245688 78.9011491,63.6747015 78.9011491,76.083923 C70.3496907,87.6005086 75.0179129,98.2675807 81.7089833,104.91276 C83.061862,106.255307 87.6409465,84.4870632 113.447718,84.9398496 C126.769476,85.1741486 135.037706,79.0737506 142.08389,66.7421495 C150.784869,50.2276648 139.925897,36.7245688 120.304124,36.7245688" id="Fill-40" fill="#482B1B" sketch:type="MSShapeGroup" mask="url(#mask-2)"></path>
                    <path d="M140.726698,61.6723795 C140.726698,61.6723795 148.145246,90.8505086 168.462867,100.531513 C172.07869,74.3015259 174.215117,79.8269571 168.462867,66.013379 C162.710617,52.199801 140.726698,41.9409553 140.726698,41.9409553 L140.726698,61.6723795" id="Fill-41" fill="#482B1B" sketch:type="MSShapeGroup" mask="url(#mask-2)"></path>
                    <path d="M142.016318,111.060593 C142.016318,113.045666 140.407528,114.654135 138.42206,114.654135 C136.436592,114.654135 134.827802,113.045666 134.827802,111.060593 C134.827802,109.076957 136.436592,107.468487 138.42206,107.468487 C140.407528,107.468487 142.016318,109.076957 142.016318,111.060593" id="Fill-42" fill="#482B1B" sketch:type="MSShapeGroup" mask="url(#mask-2)"></path>
                    <path d="M110.835412,111.060593 C110.835412,113.045666 109.226622,114.654135 107.241154,114.654135 C105.255686,114.654135 103.646896,113.045666 103.646896,111.060593 C103.646896,109.076957 105.255686,107.468487 107.241154,107.468487 C109.226622,107.468487 110.835412,109.076957 110.835412,111.060593" id="Fill-43" fill="#482B1B" sketch:type="MSShapeGroup" mask="url(#mask-2)"></path>
                    <path d="M96.0184428,175.777421 C98.0024732,188.571871 109.2525,198.780407 122.605887,198.780407 C135.957836,198.780407 147.176234,188.587682 149.160264,175.793233 C146.47751,174.696484 144.08661,174.026648 142.413124,173.550862 C142.006254,184.16475 133.321089,192.753317 122.605887,192.753317 C111.890686,192.753317 103.080441,184.219372 102.672133,173.605484 C101.112225,173.80816 98.7026346,174.680672 96.0184428,175.777421" id="Fill-44" fill="#39B44A" sketch:type="MSShapeGroup" mask="url(#mask-2)"></path>
                </g>
            </g>
        </g>
    </g>
</svg>