<?xml version="1.0" encoding="UTF-8" standalone="no"?>
<svg width="255px" height="255px" viewBox="0 0 255 255" version="1.1" xmlns="http://www.w3.org/2000/svg" xmlns:xlink="http://www.w3.org/1999/xlink" xmlns:sketch="http://www.bohemiancoding.com/sketch/ns">
    <!-- Generator: Sketch 3.3.2 (12043) - http://www.bohemiancoding.com/sketch -->
    <title>img_profile_avatar_04</title>
    <desc>Created with Sketch.</desc>
    <defs>
        <path id="path-1" d="M247.758154,123.888492 C247.758154,55.838537 192.584151,0.674063336 124.520652,0.674063336 C56.4586028,0.674063336 1.28315006,55.838537 1.28315006,123.888492 C1.28315006,191.936998 56.4586028,247.102921 124.520652,247.102921 C192.584151,247.102921 247.758154,191.936998 247.758154,123.888492"></path>
    </defs>
    <g id="Smartphone" stroke="none" stroke-width="1" fill="none" fill-rule="evenodd" sketch:type="MSPage">
        <g id="avatars_profile" sketch:type="MSLayerGroup" transform="translate(-934.000000, 0.000000)">
            <g id="img_profile_avatar_04" transform="translate(936.000000, 1.881356)">
                <path d="M248.655848,123.889942 C248.655848,55.8399866 193.480395,0.675512935 125.416896,0.675512935 C57.3548468,0.675512935 2.17939406,55.8399866 2.17939406,123.889942 C2.17939406,191.938448 57.3548468,247.102921 125.416896,247.102921 C193.480395,247.102921 248.655848,191.938448 248.655848,123.889942" id="Fill-46" fill="#C4D11C" sketch:type="MSShapeGroup"></path>
                <path d="M248.655848,123.889942 C248.655848,55.8399866 193.480395,0.675512935 125.416896,0.675512935 L125.416896,247.102921 C193.480395,247.102921 248.655848,191.938448 248.655848,123.889942" id="Fill-47" fill="#BBBF10" sketch:type="MSShapeGroup"></path>
                <g id="Group-64" transform="translate(0.896244, 0.000000)">
                    <mask id="mask-2" sketch:name="Clip 49" fill="white">
                        <use xlink:href="#path-1"></use>
                    </mask>
                    <g id="Clip-49"></g>
                    <path d="M142.567396,196.071253 L124.29302,247.321811 L106.475357,196.071253 L106.475357,156.50446 L142.567396,156.50446 L142.567396,196.071253" id="Fill-48" fill="#C18148" sketch:type="MSShapeGroup" mask="url(#mask-2)"></path>
                    <path d="M142.567396,189.339318 L106.475357,163.065343 L106.475357,156.50446 L142.567396,156.50446 L142.567396,189.339318" id="Fill-50" fill="#915324" sketch:type="MSShapeGroup" mask="url(#mask-2)"></path>
                    <path d="M124.29302,247.321811 L124.29302,198.036909 C124.29302,198.036909 110.827918,194.699933 107.861449,183.796053 C106.434761,178.555754 106.475357,174.350468 106.475357,174.350468 C106.475357,174.350468 72.6871889,184.291815 66.1134009,194.559322 C60.6458767,210.836864 59.1452436,247.321811 59.1452436,247.321811 L124.29302,247.321811" id="Fill-51" fill="#1E88E6" sketch:type="MSShapeGroup" mask="url(#mask-2)"></path>
                    <path d="M124.29302,247.321811 L124.29302,198.036909 C124.29302,198.036909 137.755221,194.699933 140.72604,183.796053 C142.151279,178.555754 142.567396,174.486731 142.567396,174.486731 C142.567396,174.486731 175.9003,184.291815 182.472639,194.559322 C187.941613,210.836864 189.442246,247.321811 189.442246,247.321811 L124.29302,247.321811" id="Fill-52" fill="#1976D3" sketch:type="MSShapeGroup" mask="url(#mask-2)"></path>
                    <path d="M102.997078,175.439117 C103.078272,177.243867 103.392897,181.120094 104.628201,185.655888 C108.177525,198.705174 124.29302,202.697368 124.29302,202.697368 C124.29302,202.697368 140.405615,198.705174 143.960738,185.655888 C145.193142,181.121543 145.791945,177.329393 146.031177,175.57103 C143.886794,174.876673 142.567396,174.486731 142.567396,174.486731 C142.567396,174.486731 142.151279,178.555754 140.72604,183.796053 C137.755221,194.699933 124.29302,198.036909 124.29302,198.036909 C124.29302,198.036909 110.827918,194.699933 107.861449,183.796053 C106.434761,178.555754 106.475357,174.350468 106.475357,174.350468 C106.475357,174.350468 105.15161,174.74041 102.997078,175.439117" id="Fill-53" fill="#FFFFFF" sketch:type="MSShapeGroup" mask="url(#mask-2)"></path>
                    <path d="M124.520652,31.9911909 C102.781045,31.9911909 80.2570494,43.5923283 76.2075147,63.0937779 C74.2095704,72.713314 76.2075147,102.396744 76.2075147,102.396744 C84.1369472,120.667484 102.781045,133.497881 124.520652,133.497881 C146.010878,133.497881 164.467941,120.957404 172.549611,103.022971 C172.549611,103.022971 174.678046,72.3784567 172.549611,62.4661017 C168.415983,43.2342774 146.010878,31.9911909 124.520652,31.9911909" id="Fill-54" fill="#482B1B" sketch:type="MSShapeGroup" mask="url(#mask-2)"></path>
                    <path d="M124.520652,50.0488403 C106.998767,50.0488403 79.285625,59.698818 79.285625,104.924844 C79.285625,131.036463 86.8902827,144.797502 90.7194345,149.530442 C94.2455599,153.883586 115.228326,166.50669 124.520652,166.50669 L124.520652,50.0488403" id="Fill-55" fill="#C18148" sketch:type="MSShapeGroup" mask="url(#mask-2)"></path>
                    <path d="M70.5689039,115.708408 C69.7946642,108.482159 73.3512372,102.069135 78.5041359,101.383475 C83.6628341,100.699264 88.4677599,106.001896 89.2419996,113.228145 C90.0147894,120.451494 86.4596663,126.863069 81.3038678,127.548729 C76.1466195,128.234389 71.3416937,122.931757 70.5689039,115.708408" id="Fill-56" fill="#C18148" sketch:type="MSShapeGroup" mask="url(#mask-2)"></path>
                    <path d="M124.378563,50.0488403 C141.901898,50.0488403 169.61359,59.698818 169.61359,104.924844 C169.61359,131.036463 162.008932,144.797502 158.178331,149.530442 C154.656555,153.883586 133.670889,166.50669 124.378563,166.50669 L124.378563,50.0488403" id="Fill-57" fill="#AA6A35" sketch:type="MSShapeGroup" mask="url(#mask-2)"></path>
                    <path d="M178.47385,115.708408 C179.24809,108.482159 175.692967,102.069135 170.538618,101.383475 C165.37992,100.699264 160.574994,106.001896 159.802204,113.228145 C159.027964,120.451494 162.583088,126.863069 167.738886,127.548729 C172.896134,128.234389 177.70106,122.931757 178.47385,115.708408" id="Fill-58" fill="#AA6A35" sketch:type="MSShapeGroup" mask="url(#mask-2)"></path>
                    <path d="M124.520652,150.579951 C131.35252,150.579951 136.889639,146.516726 136.889639,141.502565 L112.153115,141.502565 C112.153115,146.516726 117.690234,150.579951 124.520652,150.579951" id="Fill-59" fill="#FFFFFF" sketch:type="MSShapeGroup" mask="url(#mask-2)"></path>
                    <path d="M143.867945,112.001784 C143.867945,114.00368 142.245522,115.625781 140.243227,115.625781 C138.240933,115.625781 136.61851,114.00368 136.61851,112.001784 C136.61851,110.001338 138.240933,108.379237 140.243227,108.379237 C142.245522,108.379237 143.867945,110.001338 143.867945,112.001784" id="Fill-60" fill="#482B1B" sketch:type="MSShapeGroup" mask="url(#mask-2)"></path>
                    <path d="M112.422794,112.001784 C112.422794,114.00368 110.800371,115.625781 108.798077,115.625781 C106.795782,115.625781 105.173359,114.00368 105.173359,112.001784 C105.173359,110.001338 106.795782,108.379237 108.798077,108.379237 C110.800371,108.379237 112.422794,110.001338 112.422794,112.001784" id="Fill-61" fill="#482B1B" sketch:type="MSShapeGroup" mask="url(#mask-2)"></path>
                    <path d="M170.735803,99.9454728 C170.735803,99.9454728 166.750063,104.294269 166.386141,109.730263 L162.400402,109.730263 C162.400402,109.730263 164.154765,87.6963649 157.28665,82.654661 C150.418535,77.6115076 144.458049,82.7445361 124.378563,82.7445361 L121.478789,46.1291258 L159.138156,51.5651204 L172.549611,88.1674844 L170.735803,99.9454728" id="Fill-62" fill="#482B1B" sketch:type="MSShapeGroup" mask="url(#mask-2)"></path>
                    <path d="M78.0198736,99.9454728 C78.0198736,99.9454728 82.0070631,104.294269 82.3695348,109.730263 L86.3567243,109.730263 C86.3567243,109.730263 83.7918741,87.3919492 90.6585393,82.3502453 C97.5266544,77.3070919 104.299077,82.7445361 124.378563,82.7445361 L127.278337,46.1291258 L89.6189702,51.5651204 L76.2075147,88.1674844 L78.0198736,99.9454728" id="Fill-63" fill="#482B1B" sketch:type="MSShapeGroup" mask="url(#mask-2)"></path>
                </g>
            </g>
        </g>
    </g>
</svg>