<?xml version="1.0" encoding="UTF-8" standalone="no"?>
<svg width="247px" height="248px" viewBox="0 0 247 248" version="1.1" xmlns="http://www.w3.org/2000/svg" xmlns:xlink="http://www.w3.org/1999/xlink" xmlns:sketch="http://www.bohemiancoding.com/sketch/ns">
    <!-- Generator: Sketch 3.3 (11970) - http://www.bohemiancoding.com/sketch -->
    <title>img_profile_avatar_01</title>
    <desc>Created with Sketch.</desc>
    <defs>
        <path id="path-1" d="M247.604466,123.887043 C247.604466,55.838537 192.430463,0.674063336 124.365514,0.674063336 C56.3049148,0.674063336 1.12946203,55.838537 1.12946203,123.887043 C1.12946203,191.938448 56.3049148,247.102921 124.365514,247.102921 C192.430463,247.102921 247.604466,191.938448 247.604466,123.887043"></path>
    </defs>
    <g id="GdS-md" stroke="none" stroke-width="1" fill="none" fill-rule="evenodd" sketch:type="MSPage">
        <g id="img_profile_avatar_01" sketch:type="MSLayerGroup" transform="translate(-1.000000, 0.118644)">
            <path d="M247.605916,123.889942 C247.605916,55.8399866 192.430463,0.675512935 124.366964,0.675512935 C56.3049148,0.675512935 1.12801215,55.8399866 1.12801215,123.889942 C1.12801215,191.939897 56.3049148,247.102921 124.366964,247.102921 C192.430463,247.102921 247.605916,191.939897 247.605916,123.889942" id="Fill-1" fill="#B5332B" sketch:type="MSShapeGroup"></path>
            <path d="M247.605916,123.889942 C247.605916,55.8399866 192.430463,0.675512935 124.366964,0.675512935 L124.366964,247.102921 C192.430463,247.102921 247.605916,191.939897 247.605916,123.889942" id="Fill-2" fill="#A22F26" sketch:type="MSShapeGroup"></path>
            <g id="Group-24">
                <mask id="mask-2" sketch:name="Clip 4" fill="white">
                    <use xlink:href="#path-1"></use>
                </mask>
                <g id="Clip-4"></g>
                <path d="M124.366964,214.78847 L80.2773478,214.78847 C80.2773478,214.78847 59.9281826,195.120317 70.1034901,165.958742 C80.2773478,136.798617 76.6221825,125.271409 77.3007296,94.0774978 L124.366964,94.0774978 L124.366964,214.78847" id="Fill-3" fill="#472B1B" sketch:type="MSShapeGroup" mask="url(#mask-2)"></path>
                <path d="M123.228803,214.78847 L167.318419,214.78847 C167.318419,214.78847 187.667584,195.120317 177.493726,165.958742 C167.318419,136.798617 175.12896,125.271409 174.451863,94.0774978 L123.228803,94.0774978 L123.228803,214.78847" id="Fill-5" fill="#472B1B" sketch:type="MSShapeGroup" mask="url(#mask-2)"></path>
                <path d="M142.413708,196.071253 L124.139332,247.321811 L106.321669,196.071253 L106.321669,156.50446 L142.413708,156.50446 L142.413708,196.071253" id="Fill-6" fill="#C18148" sketch:type="MSShapeGroup" mask="url(#mask-2)"></path>
                <path d="M142.413708,189.340767 L106.321669,163.066793 L106.321669,156.50446 L142.413708,156.50446 L142.413708,189.340767" id="Fill-7" fill="#915324" sketch:type="MSShapeGroup" mask="url(#mask-2)"></path>
                <path d="M124.139332,247.321811 L124.139332,202.385705 C124.139332,202.385705 110.67423,194.699933 107.707761,183.796053 C106.281073,178.555754 106.321669,174.350468 106.321669,174.350468 C106.321669,174.350468 72.532051,184.291815 65.9597129,194.559322 C60.4921887,210.836864 58.9901057,247.321811 58.9901057,247.321811 L124.139332,247.321811" id="Fill-8" fill="#C18148" sketch:type="MSShapeGroup" mask="url(#mask-2)"></path>
                <path d="M124.139332,247.321811 L124.139332,202.385705 C124.139332,202.385705 137.601533,194.699933 140.572352,183.796053 C141.996141,178.555754 141.956994,174.350468 141.956994,174.350468 C141.956994,174.350468 175.746612,184.291815 182.31895,194.559322 C187.786475,210.836864 189.288558,247.321811 189.288558,247.321811 L124.139332,247.321811" id="Fill-9" fill="#C18148" sketch:type="MSShapeGroup" mask="url(#mask-2)"></path>
                <path d="M124.139332,247.321811 L124.139332,211.083296 C124.139332,211.083296 110.67423,194.699933 107.707761,183.796053 C106.281073,178.555754 106.321669,174.350468 106.321669,174.350468 C106.321669,174.350468 72.532051,184.291815 65.9597129,194.559322 C60.4921887,210.836864 58.9901057,247.321811 58.9901057,247.321811 L124.139332,247.321811" id="Fill-10" fill="#1BC9B4" sketch:type="MSShapeGroup" mask="url(#mask-2)"></path>
                <path d="M124.139332,247.321811 L124.139332,211.083296 C124.139332,211.083296 137.601533,194.699933 140.572352,183.796053 C141.996141,178.555754 142.451405,174.496878 142.451405,174.496878 C142.451405,174.496878 175.746612,184.291815 182.31895,194.559322 C187.786475,210.836864 189.288558,247.321811 189.288558,247.321811 L124.139332,247.321811" id="Fill-11" fill="#12B2A3" sketch:type="MSShapeGroup" mask="url(#mask-2)"></path>
                <path d="M178.305663,80.8658564 C178.305663,51.0809545 154.156344,26.9378903 124.366964,26.9378903 C94.577584,26.9378903 70.4282648,51.0809545 70.4282648,80.8658564 C70.4282648,110.647859 94.577584,134.792373 124.366964,134.792373 C154.156344,134.792373 178.305663,110.647859 178.305663,80.8658564" id="Fill-12" fill="#472B1B" sketch:type="MSShapeGroup" mask="url(#mask-2)"></path>
                <path d="M124.366964,50.0488403 C106.843629,50.0488403 79.131937,59.7002676 79.131937,104.923394 C79.131937,131.036463 91.0862559,143.347904 94.9154077,148.080843 C98.4400832,152.433988 115.074638,166.50814 124.366964,166.50814 L124.366964,50.0488403" id="Fill-13" fill="#C18148" sketch:type="MSShapeGroup" mask="url(#mask-2)"></path>
                <path d="M70.413766,115.708408 C69.6409762,108.482159 73.1960993,102.069135 78.3504478,101.384924 C83.5091461,100.699264 88.3140719,106.001896 89.0868617,113.228145 C89.8596515,120.451494 86.3045284,126.863069 81.1501798,127.548729 C75.9929315,128.232939 71.1880057,122.931757 70.413766,115.708408" id="Fill-14" fill="#C18148" sketch:type="MSShapeGroup" mask="url(#mask-2)"></path>
                <path d="M124.224875,50.0488403 C141.74821,50.0488403 169.459902,59.7002676 169.459902,104.923394 C169.459902,131.036463 157.505583,143.347904 153.674981,148.080843 C150.151756,152.433988 133.517201,166.50814 124.224875,166.50814 L124.224875,50.0488403" id="Fill-15" fill="#AA6A35" sketch:type="MSShapeGroup" mask="url(#mask-2)"></path>
                <path d="M178.320162,115.708408 C179.092952,108.482159 175.537829,102.069135 170.38493,101.384924 C165.226232,100.699264 160.419856,106.001896 159.647066,113.228145 C158.874276,120.451494 162.4294,126.863069 167.585198,127.548729 C172.742446,128.232939 177.547372,122.931757 178.320162,115.708408" id="Fill-16" fill="#AA6A35" sketch:type="MSShapeGroup" mask="url(#mask-2)"></path>
                <path d="M124.366964,150.578501 C131.198832,150.578501 136.735951,146.516726 136.735951,141.502565 L111.999427,141.502565 C111.999427,146.516726 117.535096,150.578501 124.366964,150.578501" id="Fill-17" fill="#FFFFFF" sketch:type="MSShapeGroup" mask="url(#mask-2)"></path>
                <path d="M126.680984,36.6038136 C125.840049,36.4965433 122.055844,35.6398305 121.114867,35.6311329 C121.114867,35.6311329 91.5154225,37.8461195 83.278614,76.3880464 C79.324772,79.3524755 72.0767865,90.8840321 81.6315423,103.728925 C79.8423817,96.0011151 89.159356,75.5458296 89.7059634,75.3370874 C90.4077088,75.0703613 91.0761067,79.2669492 91.7416049,79.448149 C98.2747961,81.2268064 110.29726,81.8979706 124.224875,81.8979706 L126.680984,36.6038136" id="Fill-18" fill="#472B1B" sketch:type="MSShapeGroup" mask="url(#mask-2)"></path>
                <path d="M121.768766,36.6038136 C122.608251,36.4965433 126.393906,35.6398305 127.333433,35.6311329 C127.333433,35.6311329 156.932878,37.8461195 165.169686,76.3880464 C169.123528,79.3524755 176.371514,90.8840321 166.818208,103.728925 C165.50026,92.859835 159.288944,75.5458296 158.742337,75.3370874 C158.042041,75.0703613 157.372193,79.2669492 156.706695,79.448149 C150.174954,81.2268064 138.15104,81.8979706 124.224875,81.8979706 L121.768766,36.6038136" id="Fill-19" fill="#472B1B" sketch:type="MSShapeGroup" mask="url(#mask-2)"></path>
                <path d="M143.714257,112.001784 C143.714257,114.00368 142.091833,115.625781 140.089539,115.625781 C138.087245,115.625781 136.464822,114.00368 136.464822,112.001784 C136.464822,110.001338 138.087245,108.377788 140.089539,108.377788 C142.091833,108.377788 143.714257,110.001338 143.714257,112.001784" id="Fill-20" fill="#482B1B" sketch:type="MSShapeGroup" mask="url(#mask-2)"></path>
                <path d="M112.269106,112.001784 C112.269106,114.00368 110.645233,115.625781 108.644388,115.625781 C106.642094,115.625781 105.019671,114.00368 105.019671,112.001784 C105.019671,110.001338 106.642094,108.377788 108.644388,108.377788 C110.645233,108.377788 112.269106,110.001338 112.269106,112.001784" id="Fill-21" fill="#482B1B" sketch:type="MSShapeGroup" mask="url(#mask-2)"></path>
                <path d="M82.7827526,126.431088 L79.7510388,129.463649 L76.717875,126.431088 L79.7510388,123.399978 L82.7827526,126.431088" id="Fill-22" fill="#FF8B00" sketch:type="MSShapeGroup" mask="url(#mask-2)"></path>
                <path d="M172.016053,126.431088 L168.984339,129.463649 L165.951175,126.431088 L168.984339,123.399978 L172.016053,126.431088" id="Fill-23" fill="#FF8B00" sketch:type="MSShapeGroup" mask="url(#mask-2)"></path>
            </g>
        </g>
    </g>
</svg>