<?xml version="1.0" encoding="UTF-8" standalone="no"?>
<svg width="249px" height="249px" viewBox="0 0 249 249" version="1.1" xmlns="http://www.w3.org/2000/svg" xmlns:xlink="http://www.w3.org/1999/xlink" xmlns:sketch="http://www.bohemiancoding.com/sketch/ns">
    <!-- Generator: Sketch 3.3.2 (12043) - http://www.bohemiancoding.com/sketch -->
    <title>Imported Layers</title>
    <desc>Created with Sketch.</desc>
    <defs>
        <path id="path-1" d="M249.811404,124.703216 C249.811404,56.0716374 194.176901,0.435672515 125.54386,0.435672515 C56.9152047,0.435672515 1.27923977,56.0716374 1.27923977,124.703216 C1.27923977,193.334795 56.9152047,248.972222 125.54386,248.972222 C194.176901,248.972222 249.811404,193.334795 249.811404,124.703216"></path>
    </defs>
    <g id="GdS-md" stroke="none" stroke-width="1" fill="none" fill-rule="evenodd" sketch:type="MSPage">
        <g id="zzz---Assets" sketch:type="MSArtboardGroup" transform="translate(-388.000000, -259.000000)">
            <g id="Imported-Layers" sketch:type="MSLayerGroup" transform="translate(387.000000, 259.000000)">
                <path d="M249.812865,124.704678 C249.812865,56.0730994 194.176901,0.437134503 125.545322,0.437134503 C56.9152047,0.437134503 1.27777778,56.0730994 1.27777778,124.704678 C1.27777778,193.336257 56.9152047,248.972222 125.545322,248.972222 C194.176901,248.972222 249.812865,193.336257 249.812865,124.704678" id="Fill-1" fill="#7A2CB7" sketch:type="MSShapeGroup"></path>
                <path d="M249.812865,124.704678 C249.812865,56.0730994 194.176901,0.437134503 125.545322,0.437134503 L125.545322,248.972222 C194.176901,248.972222 249.812865,193.336257 249.812865,124.704678" id="Fill-2" fill="#7027A0" sketch:type="MSShapeGroup"></path>
                <g id="Group-22">
                    <mask id="mask-2" sketch:name="Clip 4" fill="white">
                        <use xlink:href="#path-1"></use>
                    </mask>
                    <g id="Clip-4"></g>
                    <path d="M125.001462,193.584795 C125.001462,193.584795 162.225146,200.182749 165.937135,193.769006 C167.649123,190.812865 166.204678,167.230994 169.347953,142.172515 C171.906433,121.777778 178.353801,82.8947368 178.353801,82.8947368 L125.001462,82.8947368 L125.001462,193.584795" id="Fill-3" fill="#F9A11C" sketch:type="MSShapeGroup" mask="url(#mask-2)"></path>
                    <path d="M125.545322,193.584795 C125.545322,193.584795 88.3216374,200.182749 84.6096491,193.769006 C82.8976608,190.812865 84.3435673,167.230994 81.1988304,142.172515 C78.6403509,121.777778 72.7368421,82.8947368 72.7368421,82.8947368 L125.545322,82.8947368 L125.545322,193.584795" id="Fill-5" fill="#F9A11C" sketch:type="MSShapeGroup" mask="url(#mask-2)"></path>
                    <path d="M143.74269,197.504386 L125.315789,249.192982 L107.349415,197.504386 L107.349415,157.599415 L143.74269,157.599415 L143.74269,197.504386" id="Fill-6" fill="#E9C7AC" sketch:type="MSShapeGroup" mask="url(#mask-2)"></path>
                    <path d="M143.74269,190.714912 L107.349415,164.216374 L107.349415,157.599415 L143.74269,157.599415 L143.74269,190.714912" id="Fill-7" fill="#CE9C88" sketch:type="MSShapeGroup" mask="url(#mask-2)"></path>
                    <path d="M125.315789,249.192982 L125.315789,199.48538 C125.315789,199.48538 111.738304,196.119883 108.747076,185.124269 C107.30848,179.839181 107.349415,175.596491 107.349415,175.596491 C107.349415,175.596491 73.2777778,185.624269 66.6505848,195.979532 C61.1374269,212.394737 59.622807,249.192982 59.622807,249.192982 L125.315789,249.192982" id="Fill-8" fill="#E9C7AC" sketch:type="MSShapeGroup" mask="url(#mask-2)"></path>
                    <path d="M125.315789,249.192982 L125.315789,212.643275 C125.315789,212.643275 138.890351,196.119883 141.885965,185.124269 C143.323099,179.839181 143.282164,175.596491 143.282164,175.596491 C143.282164,175.596491 177.353801,185.624269 183.980994,195.979532 C189.495614,212.394737 191.008772,249.192982 191.008772,249.192982 L125.315789,249.192982" id="Fill-9" fill="#CE9C88" sketch:type="MSShapeGroup" mask="url(#mask-2)"></path>
                    <path d="M125.315789,249.192982 L125.315789,212.643275 C125.315789,212.643275 138.890351,196.119883 141.885965,185.124269 C143.323099,179.839181 143.780702,175.745614 143.780702,175.745614 C143.780702,175.745614 148.751462,177.207602 155.245614,179.596491 C155.245614,179.596491 174.745614,222.584795 174.745614,249.192982 L125.315789,249.192982" id="Fill-10" fill="#A22F26" sketch:type="MSShapeGroup" mask="url(#mask-2)"></path>
                    <path d="M125.315789,249.192982 L125.315789,212.643275 C125.315789,212.643275 111.741228,196.119883 108.745614,185.124269 C107.309942,179.839181 107.349415,175.596491 107.349415,175.596491 C107.349415,175.596491 101.880117,177.207602 95.3859649,179.596491 C95.3859649,179.596491 75.8859649,222.584795 75.8859649,249.192982 L125.315789,249.192982" id="Fill-11" fill="#B5332B" sketch:type="MSShapeGroup" mask="url(#mask-2)"></path>
                    <path d="M178.353801,82.8947368 C178.353801,53.7280702 154.710526,30.0862573 125.545322,30.0862573 C96.3815789,30.0862573 72.7368421,53.7280702 72.7368421,82.8947368 C72.7368421,112.059942 96.3815789,135.701754 125.545322,135.701754 C154.710526,135.701754 178.353801,112.059942 178.353801,82.8947368" id="Fill-12" fill="#F9A11C" sketch:type="MSShapeGroup" mask="url(#mask-2)"></path>
                    <path d="M125.545322,50.2324561 C107.875731,50.2324561 79.9327485,59.9663743 79.9327485,105.577485 C79.9327485,131.912281 91.9868421,144.330409 95.8479532,149.102339 C99.4020468,153.49269 116.175439,167.687135 125.545322,167.687135 L125.545322,50.2324561" id="Fill-13" fill="#F1D6BB" sketch:type="MSShapeGroup" mask="url(#mask-2)"></path>
                    <path d="M71.1418129,116.453216 C70.3625731,109.165205 73.9473684,102.69883 79.1447368,102.00731 C84.3464912,101.317251 89.1915205,106.663743 89.9707602,113.951754 C90.751462,121.238304 87.1652047,127.703216 81.9678363,128.396199 C76.7675439,129.086257 71.9225146,123.738304 71.1418129,116.453216" id="Fill-14" fill="#F1D6BB" sketch:type="MSShapeGroup" mask="url(#mask-2)"></path>
                    <path d="M125.402047,50.2324561 C143.071637,50.2324561 171.01462,59.9663743 171.01462,105.577485 C171.01462,131.912281 158.960526,144.330409 155.097953,149.102339 C151.546784,153.49269 134.77193,167.687135 125.402047,167.687135 L125.402047,50.2324561" id="Fill-15" fill="#EBC7A7" sketch:type="MSShapeGroup" mask="url(#mask-2)"></path>
                    <path d="M179.94883,116.453216 C180.729532,109.165205 177.143275,102.69883 171.947368,102.00731 C166.745614,101.317251 161.899123,106.663743 161.119883,113.951754 C160.340643,121.238304 163.925439,127.703216 169.124269,128.396199 C174.324561,129.086257 179.169591,123.738304 179.94883,116.453216" id="Fill-16" fill="#EBC7A7" sketch:type="MSShapeGroup" mask="url(#mask-2)"></path>
                    <path d="M125.545322,151.622807 C132.434211,151.622807 138.017544,147.526316 138.017544,142.469298 L113.074561,142.469298 C113.074561,147.526316 118.656433,151.622807 125.545322,151.622807" id="Fill-17" fill="#FFFFFF" sketch:type="MSShapeGroup" mask="url(#mask-2)"></path>
                    <path d="M124.945906,35.8830409 C124.099415,35.7748538 123.214912,35.7002924 122.266082,35.6929825 C122.266082,35.6929825 92.4195906,37.9269006 84.1140351,76.7982456 C80.127193,79.7880117 72.4459064,107.669591 92.1535088,122.687135 C90.6798246,117.754386 86.5994152,92.3815789 101.438596,86.247076 C113.861111,81.1125731 116.855263,83.7953216 130.520468,74.3347953 C139.168129,68.3479532 137.776316,51.8260234 135.932749,44.630117 C132.614035,35.6929825 124.143275,36.0263158 124.945906,35.8830409" id="Fill-18" fill="#F9A11C" sketch:type="MSShapeGroup" mask="url(#mask-2)"></path>
                    <path d="M125.195906,45.2105263 C114.217836,98.5555556 166.30117,89.0526316 169.225146,125.356725 C194.809942,92.2178363 159.416667,40.4722222 125.195906,45.2105263" id="Fill-19" fill="#F9A11C" sketch:type="MSShapeGroup" mask="url(#mask-2)"></path>
                    <path d="M145.054094,112.716374 C145.054094,114.435673 143.418129,115.828947 141.399123,115.828947 C139.380117,115.828947 137.744152,114.435673 137.744152,112.716374 C137.744152,110.997076 139.380117,109.602339 141.399123,109.602339 C143.418129,109.602339 145.054094,110.997076 145.054094,112.716374" id="Fill-20" fill="#482B1B" sketch:type="MSShapeGroup" mask="url(#mask-2)"></path>
                    <path d="M113.346491,112.716374 C113.346491,114.435673 111.710526,115.828947 109.69152,115.828947 C107.672515,115.828947 106.03655,114.435673 106.03655,112.716374 C106.03655,110.997076 107.672515,109.602339 109.69152,109.602339 C111.710526,109.602339 113.346491,110.997076 113.346491,112.716374" id="Fill-21" fill="#482B1B" sketch:type="MSShapeGroup" mask="url(#mask-2)"></path>
                </g>
            </g>
        </g>
    </g>
</svg>