<?xml version="1.0" encoding="UTF-8" standalone="no"?>
<svg width="255px" height="255px" viewBox="0 0 255 255" version="1.1" xmlns="http://www.w3.org/2000/svg" xmlns:xlink="http://www.w3.org/1999/xlink" xmlns:sketch="http://www.bohemiancoding.com/sketch/ns">
    <!-- Generator: Sketch 3.3.2 (12043) - http://www.bohemiancoding.com/sketch -->
    <title>img_profile_avatar_09</title>
    <desc>Created with Sketch.</desc>
    <defs>
        <path id="path-1" d="M246.956366,123.281111 C246.956366,55.2311552 191.782363,0.0666815343 123.717415,0.0666815343 C55.6568153,0.0666815343 0.48136251,55.2311552 0.48136251,123.281111 C0.48136251,191.332516 55.6568153,246.49554 123.717415,246.49554 C191.782363,246.49554 246.956366,191.332516 246.956366,123.281111"></path>
    </defs>
    <g id="Smartphone" stroke="none" stroke-width="1" fill="none" fill-rule="evenodd" sketch:type="MSPage">
        <g id="avatars_profile" sketch:type="MSLayerGroup" transform="translate(-2493.000000, 0.000000)">
            <g id="img_profile_avatar_09" transform="translate(2496.000000, 1.881356)">
                <path d="M248.130882,123.28256 C248.130882,55.2340544 192.955429,0.0681311329 124.89193,0.0681311329 C56.8298808,0.0681311329 1.65297816,55.2340544 1.65297816,123.28256 C1.65297816,191.332516 56.8298808,246.49554 124.89193,246.49554 C192.955429,246.49554 248.130882,191.332516 248.130882,123.28256" id="Fill-176" fill="#5A4980" sketch:type="MSShapeGroup"></path>
                <path d="M248.130882,123.28256 C248.130882,55.2340544 192.955429,0.0681311329 124.89193,0.0681311329 L124.89193,246.49554 C192.955429,246.49554 248.130882,191.332516 248.130882,123.28256" id="Fill-177" fill="#534378" sketch:type="MSShapeGroup"></path>
                <g id="Group-203" transform="translate(1.173066, 0.000000)">
                    <mask id="mask-2" sketch:name="Clip 179" fill="white">
                        <use xlink:href="#path-1"></use>
                    </mask>
                    <g id="Clip-179"></g>
                    <path d="M141.765609,195.465321 L123.491232,246.714429 L105.67357,195.465321 L105.67357,155.898528 L141.765609,155.898528 L141.765609,195.465321" id="Fill-178" fill="#E9C7AC" sketch:type="MSShapeGroup" mask="url(#mask-2)"></path>
                    <path d="M141.765609,188.733385 L105.67357,162.459411 L105.67357,155.898528 L141.765609,155.898528 L141.765609,188.733385" id="Fill-180" fill="#CE9C88" sketch:type="MSShapeGroup" mask="url(#mask-2)"></path>
                    <path d="M123.491232,246.714429 L123.491232,197.430977 C123.491232,197.430977 110.026131,194.092551 107.059662,183.188671 C105.632973,177.948372 105.67357,173.744536 105.67357,173.744536 C105.67357,173.744536 71.8839515,183.684434 65.3116133,193.95339 C59.8440892,210.230932 58.343456,246.714429 58.343456,246.714429 L123.491232,246.714429" id="Fill-181" fill="#E9C7AC" sketch:type="MSShapeGroup" mask="url(#mask-2)"></path>
                    <path d="M123.491232,246.714429 L123.491232,201.779773 C123.491232,201.779773 136.953434,194.092551 139.924252,183.188671 C141.349491,177.948372 141.308894,173.744536 141.308894,173.744536 C141.308894,173.744536 175.098513,183.684434 181.670851,193.95339 C187.139825,210.230932 188.640458,246.714429 188.640458,246.714429 L123.491232,246.714429" id="Fill-182" fill="#CE9C88" sketch:type="MSShapeGroup" mask="url(#mask-2)"></path>
                    <path d="M123.491232,246.714429 L123.491232,201.779773 C123.491232,201.779773 110.026131,194.092551 107.059662,183.188671 C105.632973,177.948372 105.67357,173.744536 105.67357,173.744536 C105.67357,173.744536 71.8839515,183.684434 65.3116133,193.95339 C59.8440892,210.230932 58.343456,246.714429 58.343456,246.714429 L123.491232,246.714429" id="Fill-183" fill="#1E88E6" sketch:type="MSShapeGroup" mask="url(#mask-2)"></path>
                    <path d="M123.491232,246.714429 L123.491232,201.779773 C123.491232,201.779773 136.953434,194.092551 139.924252,183.188671 C141.349491,177.948372 141.803306,173.890946 141.803306,173.890946 C141.803306,173.890946 175.098513,183.684434 181.670851,193.95339 C187.139825,210.230932 188.640458,246.714429 188.640458,246.714429 L123.491232,246.714429" id="Fill-184" fill="#1976D3" sketch:type="MSShapeGroup" mask="url(#mask-2)"></path>
                    <path d="M139.455939,28.5121543 C139.455939,19.110058 131.832433,11.4880687 122.428465,11.4880687 C113.023047,11.4880687 105.399541,19.110058 105.399541,28.5121543 C105.399541,37.9157003 113.023047,45.53624 122.428465,45.53624 C131.832433,45.53624 139.455939,37.9157003 139.455939,28.5121543" id="Fill-185" fill="#E5E6E7" sketch:type="MSShapeGroup" mask="url(#mask-2)"></path>
                    <path d="M177.659013,80.2584746 C177.659013,50.4750223 153.508244,26.3305085 123.718864,26.3305085 C93.9294845,26.3305085 69.7801653,50.4750223 69.7801653,80.2584746 C69.7801653,110.041927 93.9294845,134.186441 123.718864,134.186441 C153.508244,134.186441 177.659013,110.041927 177.659013,80.2584746" id="Fill-186" fill="#E5E6E7" sketch:type="MSShapeGroup" mask="url(#mask-2)"></path>
                    <path d="M123.718864,49.4414585 C106.195529,49.4414585 78.4838375,59.0928858 78.4838375,104.317462 C78.4838375,130.429081 90.4381564,142.741971 94.2673082,147.473461 C97.7934336,151.828055 114.426538,165.900758 123.718864,165.900758 L123.718864,49.4414585" id="Fill-187" fill="#F1D6BB" sketch:type="MSShapeGroup" mask="url(#mask-2)"></path>
                    <path d="M69.7656665,115.101026 C68.9928766,107.874777 72.5479998,101.463202 77.7023483,100.777542 C82.8610465,100.091882 87.6659723,105.394514 88.4387621,112.620763 C89.2130018,119.845562 85.6564288,126.255687 80.5020803,126.941347 C75.3448319,127.627007 70.5399062,122.325825 69.7656665,115.101026" id="Fill-188" fill="#F1D6BB" sketch:type="MSShapeGroup" mask="url(#mask-2)"></path>
                    <path d="M123.576775,49.4414585 C141.100111,49.4414585 168.811802,59.0928858 168.811802,104.317462 C168.811802,130.429081 156.857484,142.741971 153.026882,147.473461 C149.505106,151.828055 132.869102,165.900758 123.576775,165.900758 L123.576775,49.4414585" id="Fill-189" fill="#EBC7A7" sketch:type="MSShapeGroup" mask="url(#mask-2)"></path>
                    <path d="M177.672062,115.101026 C178.446302,107.874777 174.889729,101.463202 169.73683,100.777542 C164.578132,100.091882 159.773206,105.394514 158.998967,112.620763 C158.226177,119.845562 161.7813,126.255687 166.937098,126.941347 C172.094347,127.627007 176.899273,122.325825 177.672062,115.101026" id="Fill-190" fill="#EBC7A7" sketch:type="MSShapeGroup" mask="url(#mask-2)"></path>
                    <path d="M123.718864,149.972569 C130.550732,149.972569 136.087851,145.910794 136.087851,140.896632 L111.351328,140.896632 C111.351328,145.910794 116.886997,149.972569 123.718864,149.972569" id="Fill-191" fill="#FFFFFF" sketch:type="MSShapeGroup" mask="url(#mask-2)"></path>
                    <path d="M132.148508,45.9218332 C132.148508,45.9218332 121.480239,85.7147636 168.060761,102.37645 C179.221992,65.9494871 158.83223,42.1891169 132.148508,45.9218332" id="Fill-192" fill="#E5E6E7" sketch:type="MSShapeGroup" mask="url(#mask-2)"></path>
                    <path d="M143.066158,111.395852 C143.066158,113.396298 141.443734,115.019848 139.44144,115.019848 C137.439146,115.019848 135.816722,113.396298 135.816722,111.395852 C135.816722,109.395406 137.439146,107.771855 139.44144,107.771855 C141.443734,107.771855 143.066158,109.395406 143.066158,111.395852" id="Fill-193" fill="#482B1B" sketch:type="MSShapeGroup" mask="url(#mask-2)"></path>
                    <path d="M111.621007,111.395852 C111.621007,113.396298 109.998583,115.019848 107.996289,115.019848 C105.993995,115.019848 104.371571,113.396298 104.371571,111.395852 C104.371571,109.395406 105.993995,107.771855 107.996289,107.771855 C109.998583,107.771855 111.621007,109.395406 111.621007,111.395852" id="Fill-194" fill="#482B1B" sketch:type="MSShapeGroup" mask="url(#mask-2)"></path>
                    <path d="M123.124411,35.2136485 C122.284926,35.1063782 121.407744,35.0324487 120.466768,35.0237511 C120.466768,35.0237511 90.867323,37.2401873 82.6319644,75.7821142 C78.6766724,78.7465433 71.4286869,90.2766503 80.9834428,103.122993 C82.2999403,92.2524532 86.2842299,84.3782337 93.1740933,81.3804639 C105.399541,76.0633363 110.433549,81.0035682 124.601846,70.1344781 C132.876351,63.7852364 135.85007,51.021521 134.020312,43.8865968 C130.729068,35.0237511 122.328423,35.3557092 123.124411,35.2136485" id="Fill-195" fill="#E5E6E7" sketch:type="MSShapeGroup" mask="url(#mask-2)"></path>
                    <path d="M170.757551,125.699041 C170.757551,127.034121 169.675935,128.115522 168.340589,128.115522 C167.005243,128.115522 165.923627,127.034121 165.923627,125.699041 C165.923627,124.363961 167.005243,123.28256 168.340589,123.28256 C169.675935,123.28256 170.757551,124.363961 170.757551,125.699041" id="Fill-196" fill="#6C9525" sketch:type="MSShapeGroup" mask="url(#mask-2)"></path>
                    <path d="M81.2748701,125.699041 C81.2748701,127.034121 80.1932543,128.115522 78.8579083,128.115522 C77.5225623,128.115522 76.4409466,127.034121 76.4409466,125.699041 C76.4409466,124.363961 77.5225623,123.28256 78.8579083,123.28256 C80.1932543,123.28256 81.2748701,124.363961 81.2748701,125.699041" id="Fill-197" fill="#6C9525" sketch:type="MSShapeGroup" mask="url(#mask-2)"></path>
                    <path d="M129.738796,217.726806 C129.738796,218.770517 128.892062,219.617083 127.848143,219.617083 C126.804224,219.617083 125.95749,218.770517 125.95749,217.726806 C125.95749,216.684545 126.804224,215.837979 127.848143,215.837979 C128.892062,215.837979 129.738796,216.684545 129.738796,217.726806" id="Fill-198" fill="#E8E8E8" sketch:type="MSShapeGroup" mask="url(#mask-2)"></path>
                    <path d="M129.738796,228.553858 C129.738796,229.597569 128.892062,230.444135 127.848143,230.444135 C126.804224,230.444135 125.95749,229.597569 125.95749,228.553858 C125.95749,227.511597 126.804224,226.665031 127.848143,226.665031 C128.892062,226.665031 129.738796,227.511597 129.738796,228.553858" id="Fill-199" fill="#E8E8E8" sketch:type="MSShapeGroup" mask="url(#mask-2)"></path>
                    <path d="M129.738796,239.38091 C129.738796,240.424621 128.892062,241.271186 127.848143,241.271186 C126.804224,241.271186 125.95749,240.424621 125.95749,239.38091 C125.95749,238.337199 126.804224,237.490633 127.848143,237.490633 C128.892062,237.490633 129.738796,238.337199 129.738796,239.38091" id="Fill-200" fill="#E8E8E8" sketch:type="MSShapeGroup" mask="url(#mask-2)"></path>
                    <path d="M141.803306,173.890946 C141.803306,173.890946 141.349491,177.948372 139.924252,183.188671 C136.953434,194.092551 123.491232,201.779773 123.491232,201.779773 L123.491232,211.561664 C123.491232,211.561664 155.407596,201.630464 154.934933,178.370205 C147.6565,175.615968 141.803306,173.890946 141.803306,173.890946" id="Fill-201" fill="#E8E8E8" sketch:type="MSShapeGroup" mask="url(#mask-2)"></path>
                    <path d="M123.340444,201.689897 C122.073243,200.937556 113.221682,195.474019 108.88217,187.578055 C108.11663,186.183541 107.475779,184.722346 107.058212,183.188671 C107.048063,183.150981 107.039363,183.113292 107.030664,183.075602 C105.635873,177.888938 105.67357,173.744536 105.67357,173.744536 C105.67357,173.744536 99.5680954,175.542038 92.048981,178.394848 C91.5980661,201.637712 123.491232,211.561664 123.491232,211.561664 L123.491232,201.779773 C123.491232,201.779773 123.439036,201.749331 123.340444,201.689897" id="Fill-202" fill="#FFFFFF" sketch:type="MSShapeGroup" mask="url(#mask-2)"></path>
                </g>
            </g>
        </g>
    </g>
</svg>