<?xml version="1.0" encoding="UTF-8" standalone="no"?>
<svg width="255px" height="255px" viewBox="0 0 255 255" version="1.1" xmlns="http://www.w3.org/2000/svg" xmlns:xlink="http://www.w3.org/1999/xlink" xmlns:sketch="http://www.bohemiancoding.com/sketch/ns">
    <!-- Generator: Sketch 3.3.2 (12043) - http://www.bohemiancoding.com/sketch -->
    <title>img_profile_avatar_02</title>
    <desc>Created with Sketch.</desc>
    <defs>
        <path id="path-1" d="M247.604466,124.310326 C247.604466,56.2589206 192.430463,1.09589652 124.365514,1.09589652 C56.3049148,1.09589652 1.12946203,56.2589206 1.12946203,124.310326 C1.12946203,192.358831 56.3049148,247.524755 124.365514,247.524755 C192.430463,247.524755 247.604466,192.358831 247.604466,124.310326"></path>
    </defs>
    <g id="Smartphone" stroke="none" stroke-width="1" fill="none" fill-rule="evenodd" sketch:type="MSPage">
        <g id="avatars_profile" sketch:type="MSLayerGroup" transform="translate(-309.000000, -2.000000)">
            <g id="img_profile_avatar_02" transform="translate(312.000000, 3.000000)">
                <path d="M247.605916,124.646298 C247.605916,56.5963426 192.430463,1.43186887 124.366964,1.43186887 C56.3049148,1.43186887 1.12801215,56.5963426 1.12801215,124.646298 C1.12801215,192.696253 56.3049148,247.859277 124.366964,247.859277 C192.430463,247.859277 247.605916,192.696253 247.605916,124.646298" id="Fill-65" fill="#FF8B00" sketch:type="MSShapeGroup"></path>
                <path d="M247.605916,124.646298 C247.605916,56.5963426 192.430463,1.43186887 124.366964,1.43186887 L124.366964,247.859277 C192.430463,247.859277 247.605916,192.696253 247.605916,124.646298" id="Fill-66" fill="#E57700" sketch:type="MSShapeGroup"></path>
                <g id="Group-85" transform="translate(0.000000, 0.334523)">
                    <mask id="mask-2" sketch:name="Clip 68" fill="white">
                        <use xlink:href="#path-1"></use>
                    </mask>
                    <g id="Clip-68"></g>
                    <path d="M142.413708,196.493087 L124.139332,247.742194 L106.321669,196.493087 L106.321669,156.926293 L142.413708,156.926293 L142.413708,196.493087" id="Fill-67" fill="#C18148" sketch:type="MSShapeGroup" mask="url(#mask-2)"></path>
                    <path d="M142.413708,189.7626 L106.321669,163.488626 L106.321669,156.926293 L142.413708,156.926293 L142.413708,189.7626" id="Fill-69" fill="#915324" sketch:type="MSShapeGroup" mask="url(#mask-2)"></path>
                    <path d="M124.139332,247.742194 L124.139332,198.457293 C124.139332,198.457293 110.67423,195.121766 107.707761,184.219335 C106.281073,178.979037 106.321669,174.770852 106.321669,174.770852 C106.321669,174.770852 72.532051,184.713649 65.9597129,194.981155 C60.4921887,211.257248 58.9915556,247.742194 58.9915556,247.742194 L124.139332,247.742194" id="Fill-70" fill="#7A2CB7" sketch:type="MSShapeGroup" mask="url(#mask-2)"></path>
                    <path d="M124.139332,247.742194 L124.139332,198.457293 C124.139332,198.457293 137.601533,195.121766 140.572352,184.219335 C141.997591,178.979037 142.413708,174.908564 142.413708,174.908564 C142.413708,174.908564 175.746612,184.713649 182.31895,194.981155 C187.787925,211.257248 189.288558,247.742194 189.288558,247.742194 L124.139332,247.742194" id="Fill-71" fill="#7027A0" sketch:type="MSShapeGroup" mask="url(#mask-2)"></path>
                    <path d="M102.84339,175.86095 C102.923134,177.664251 103.239209,181.541927 104.474513,186.077721 C108.023837,199.127007 124.139332,203.120651 124.139332,203.120651 C124.139332,203.120651 140.250477,199.127007 143.80705,186.077721 C145.039454,181.543376 145.638257,177.751227 145.877489,175.994313 C143.733106,175.297056 142.413708,174.908564 142.413708,174.908564 C142.413708,174.908564 141.997591,178.979037 140.572352,184.219335 C137.601533,195.121766 124.139332,198.457293 124.139332,198.457293 C124.139332,198.457293 110.67423,195.121766 107.707761,184.219335 C106.281073,178.979037 106.321669,174.770852 106.321669,174.770852 C106.321669,174.770852 104.997922,175.162244 102.84339,175.86095" id="Fill-72" fill="#142833" sketch:type="MSShapeGroup" mask="url(#mask-2)"></path>
                    <path d="M193.49758,82.8561552 C193.49758,44.6824264 162.545391,13.7392953 124.366964,13.7392953 C86.1885374,13.7392953 55.2377979,44.6824264 55.2377979,82.8561552 C55.2377979,121.026985 86.1885374,151.970116 124.366964,151.970116 C162.545391,151.970116 193.49758,121.026985 193.49758,82.8561552" id="Fill-73" fill="#472B1B" sketch:type="MSShapeGroup" mask="url(#mask-2)"></path>
                    <path d="M124.366964,50.4706735 C106.843629,50.4706735 79.131937,60.1206512 79.131937,105.346677 C79.131937,131.458296 86.7365947,145.217886 90.5657465,149.952275 C94.0918719,154.30397 115.074638,166.928524 124.366964,166.928524 L124.366964,50.4706735" id="Fill-74" fill="#C18148" sketch:type="MSShapeGroup" mask="url(#mask-2)"></path>
                    <path d="M70.413766,116.128791 C69.6409762,108.903992 73.1960993,102.490968 78.3504478,101.805308 C83.5091461,101.121097 88.3140719,106.423729 89.0868617,113.648528 C89.8611014,120.873327 86.3045284,127.283452 81.1501798,127.970562 C75.9929315,128.656222 71.1880057,123.353591 70.413766,116.128791" id="Fill-75" fill="#C18148" sketch:type="MSShapeGroup" mask="url(#mask-2)"></path>
                    <path d="M124.224875,50.4706735 C141.74821,50.4706735 169.459902,60.1206512 169.459902,105.346677 C169.459902,131.458296 161.855244,145.217886 158.024643,149.952275 C154.502867,154.30397 133.517201,166.928524 124.224875,166.928524 L124.224875,50.4706735" id="Fill-76" fill="#AA6A35" sketch:type="MSShapeGroup" mask="url(#mask-2)"></path>
                    <path d="M178.320162,116.128791 C179.092952,108.903992 175.537829,102.490968 170.38493,101.805308 C165.226232,101.121097 160.421306,106.423729 159.647066,113.648528 C158.874276,120.873327 162.4294,127.283452 167.585198,127.970562 C172.742446,128.656222 177.547372,123.353591 178.320162,116.128791" id="Fill-77" fill="#AA6A35" sketch:type="MSShapeGroup" mask="url(#mask-2)"></path>
                    <path d="M98.5053281,136.671053 C92.9015146,135.657783 83.3728567,132.230932 81.379262,125.707739 L81.379262,127.345785 C81.3908611,127.592217 81.3879613,127.837199 81.3952107,128.082181 C81.8417759,130.149309 81.7533328,132.185995 82.2796418,133.963202 C82.9030933,136.06512 84.1557957,137.851026 84.8372426,139.563002 C86.861285,144.646744 89.018717,148.041704 90.5657465,149.952275 C93.9773308,154.164808 113.747991,166.126896 123.439036,166.889384 C123.768161,166.90678 124.078436,166.919826 124.366964,166.922725 L124.366964,135.946253 C118.26004,135.946253 108.020937,138.391726 98.5053281,136.671053" id="Fill-78" fill="#472B1B" sketch:type="MSShapeGroup" mask="url(#mask-2)"></path>
                    <path d="M158.168181,149.952275 C159.715211,148.041704 161.874093,144.645294 163.899585,139.561552 C164.624529,137.740856 165.76704,135.759255 166.423838,133.496432 C166.91245,131.810549 167.760634,129.872435 167.356116,128.009701 L167.356116,125.707739 C165.362521,132.230932 155.832413,135.657783 150.2286,136.671053 C140.714441,138.391726 130.473888,135.946253 124.366964,135.946253 L124.366964,166.928524 C133.66074,166.928524 154.644956,154.305419 158.168181,149.952275" id="Fill-79" fill="#472B1B" sketch:type="MSShapeGroup" mask="url(#mask-2)"></path>
                    <path d="M124.366964,151.001784 C129.16754,151.001784 133.057587,148.146075 133.057587,144.62355 L115.676341,144.62355 C115.676341,148.146075 119.567838,151.001784 124.366964,151.001784" id="Fill-80" fill="#FFFFFF" sketch:type="MSShapeGroup" mask="url(#mask-2)"></path>
                    <path d="M143.714257,112.423617 C143.714257,114.424063 142.091833,116.047614 140.089539,116.047614 C138.087245,116.047614 136.464822,114.424063 136.464822,112.423617 C136.464822,110.423171 138.087245,108.799621 140.089539,108.799621 C142.091833,108.799621 143.714257,110.423171 143.714257,112.423617" id="Fill-81" fill="#482B1B" sketch:type="MSShapeGroup" mask="url(#mask-2)"></path>
                    <path d="M112.269106,112.423617 C112.269106,114.424063 110.645233,116.047614 108.644388,116.047614 C106.642094,116.047614 105.019671,114.424063 105.019671,112.423617 C105.019671,110.423171 106.642094,108.799621 108.644388,108.799621 C110.645233,108.799621 112.269106,110.423171 112.269106,112.423617" id="Fill-82" fill="#482B1B" sketch:type="MSShapeGroup" mask="url(#mask-2)"></path>
                    <path d="M170.582115,100.367306 C170.582115,100.367306 166.594925,104.716102 166.232453,110.152096 L162.245264,110.152096 C162.245264,110.152096 163.999627,88.118198 157.132962,83.0764942 C150.264847,78.0333408 144.302911,83.1663693 124.224875,83.1663693 L121.325101,46.5495094 L158.983018,51.985504 L172.394473,88.5893176 L170.582115,100.367306" id="Fill-83" fill="#482B1B" sketch:type="MSShapeGroup" mask="url(#mask-2)"></path>
                    <path d="M77.8661856,100.367306 C77.8661856,100.367306 81.853375,104.716102 82.2158468,110.152096 L86.2030363,110.152096 C86.2030363,110.152096 83.638186,87.8137823 90.5048512,82.7720785 C97.3729663,77.7289251 104.145389,83.1663693 124.224875,83.1663693 L124.224875,46.5495094 L89.4652822,51.985504 L76.0538267,88.5893176 L77.8661856,100.367306" id="Fill-84" fill="#482B1B" sketch:type="MSShapeGroup" mask="url(#mask-2)"></path>
                </g>
            </g>
        </g>
    </g>
</svg>