<?xml version="1.0" encoding="UTF-8" standalone="no"?>
<svg width="256px" height="256px" viewBox="0 0 256 256" version="1.1" xmlns="http://www.w3.org/2000/svg" xmlns:xlink="http://www.w3.org/1999/xlink" xmlns:sketch="http://www.bohemiancoding.com/sketch/ns">
    <!-- Generator: Sketch 3.3.2 (12043) - http://www.bohemiancoding.com/sketch -->
    <title>img_profile_avatar_12</title>
    <desc>Created with Sketch.</desc>
    <defs>
        <path id="path-1" d="M247.753167,123.77476 C247.753167,55.4529671 192.357581,0.0669493317 124.019279,0.0669493317 C55.6853442,0.0669493317 0.288303278,55.4529671 0.288303278,123.77476 C0.288303278,192.099464 55.6853442,247.485482 124.019279,247.485482 C192.357581,247.485482 247.753167,192.099464 247.753167,123.77476"></path>
    </defs>
    <g id="Smartphone" stroke="none" stroke-width="1" fill="none" fill-rule="evenodd" sketch:type="MSPage">
        <g id="avatars_profile" sketch:type="MSLayerGroup" transform="translate(-3438.000000, 0.000000)">
            <g id="img_profile_avatar_12" transform="translate(3441.000000, 1.881356)">
                <path d="M248.654466,123.777671 C248.654466,55.4544225 193.257425,0.0669493317 124.920578,0.0669493317 C56.5851876,0.0669493317 1.18669094,55.4544225 1.18669094,123.777671 C1.18669094,192.100919 56.5851876,247.485482 124.920578,247.485482 C193.257425,247.485482 248.654466,192.100919 248.654466,123.777671" id="Fill-257" fill="#6C9525" sketch:type="MSShapeGroup"></path>
                <path d="M248.654466,123.777671 C248.654466,55.4544225 193.257425,0.0669493317 124.920578,0.0669493317 L124.920578,247.485482 C193.257425,247.485482 248.654466,192.100919 248.654466,123.777671" id="Fill-258" fill="#678D23" sketch:type="MSShapeGroup"></path>
                <g id="Group-283" transform="translate(0.899843, 0.000000)">
                    <mask id="mask-2" sketch:name="Clip 260" fill="white">
                        <use xlink:href="#path-1"></use>
                    </mask>
                    <g id="Clip-260"></g>
                    <path d="M142.139956,196.248867 L123.792188,247.70525 L105.902969,196.248867 L105.902969,156.523171 L142.139956,156.523171 L142.139956,196.248867" id="Fill-259" fill="#C18148" sketch:type="MSShapeGroup" mask="url(#mask-2)"></path>
                    <path d="M142.139956,189.491351 L105.902969,163.111859 L105.902969,156.523171 L142.139956,156.523171 L142.139956,189.491351" id="Fill-261" fill="#915324" sketch:type="MSShapeGroup" mask="url(#mask-2)"></path>
                    <path d="M123.792188,247.70525 L123.792188,198.222417 C123.792188,198.222417 110.27301,194.872039 107.294628,183.924368 C105.862209,178.663024 105.902969,174.44085 105.902969,174.44085 C105.902969,174.44085 69.0662298,185.877542 62.4674967,196.186284 C56.9780146,212.529198 55.4713549,249.16067 55.4713549,249.16067 L123.792188,247.70525" id="Fill-262" fill="#E9C7AC" sketch:type="MSShapeGroup" mask="url(#mask-2)"></path>
                    <path d="M123.792188,247.70525 L123.792188,198.222417 C123.792188,198.222417 137.308455,194.872039 140.291205,183.924368 C141.722168,178.663024 141.681408,174.44085 141.681408,174.44085 C141.681408,174.44085 178.518147,185.877542 185.11688,196.186284 C190.607818,212.529198 192.114478,249.16067 192.114478,249.16067 L123.792188,247.70525" id="Fill-263" fill="#CE9C88" sketch:type="MSShapeGroup" mask="url(#mask-2)"></path>
                    <path d="M123.792188,247.70525 L123.792188,198.222417 C123.792188,198.222417 110.27301,194.872039 107.294628,183.924368 C105.862209,178.663024 105.902969,174.44085 105.902969,174.44085 C105.902969,174.44085 69.0662298,185.877542 62.4674967,196.186284 C56.9780146,212.529198 55.4713549,249.16067 55.4713549,249.16067 L123.792188,247.70525" id="Fill-264" fill="#344650" sketch:type="MSShapeGroup" mask="url(#mask-2)"></path>
                    <path d="M123.792188,247.70525 L123.792188,198.222417 C123.792188,198.222417 137.308455,194.872039 140.291205,183.924368 C141.722168,178.663024 141.681408,174.44085 141.681408,174.44085 C141.681408,174.44085 178.518147,185.877542 185.11688,196.186284 C190.607818,212.529198 192.114478,249.16067 192.114478,249.16067 L123.792188,247.70525" id="Fill-265" fill="#2D404E" sketch:type="MSShapeGroup" mask="url(#mask-2)"></path>
                    <path d="M146.488162,175.96322 L123.792188,180.667138 L101.096215,175.96322 L124.019279,247.485482 L146.488162,175.96322" id="Fill-266" fill="#8E8E8E" sketch:type="MSShapeGroup" mask="url(#mask-2)"></path>
                    <path d="M128.936667,185.534063 L123.792188,180.667138 L118.988346,185.534063 L122.068628,189.127496 L119.049486,238.917423 L124.020735,247.485482 L129.057491,239.22015 L125.776321,189.149327 L128.936667,185.534063" id="Fill-267" fill="#990000" sketch:type="MSShapeGroup" mask="url(#mask-2)"></path>
                    <path d="M145.205681,174.894941 L124.020735,247.485482 L149.073503,208.413269 L147.012217,205.138574 L151.379347,203.560898 L154.56444,178.933732 L145.205681,174.894941" id="Fill-268" fill="#142833" sketch:type="MSShapeGroup" mask="url(#mask-2)"></path>
                    <path d="M102.837244,174.894941 L124.020735,247.485482 L98.9679672,208.413269 L101.029252,205.138574 L96.6621227,203.560898 L93.4624723,178.814388 L102.837244,174.894941" id="Fill-269" fill="#142833" sketch:type="MSShapeGroup" mask="url(#mask-2)"></path>
                    <path d="M111.596251,194.356821 L123.792188,180.667138 L105.902969,172.345045 L101.336407,175.522227 L111.596251,194.356821" id="Fill-270" fill="#D6D6D6" sketch:type="MSShapeGroup" mask="url(#mask-2)"></path>
                    <path d="M135.988126,194.356821 L123.792188,180.667138 L142.139956,172.345045 L146.016512,175.234054 L135.988126,194.356821" id="Fill-271" fill="#D6D6D6" sketch:type="MSShapeGroup" mask="url(#mask-2)"></path>
                    <path d="M124.020735,49.6400186 C106.428481,49.6400186 78.6040412,59.3302066 78.6040412,104.734952 C78.6040412,130.952893 86.2392397,144.769197 90.0837696,149.521144 C93.6240561,153.891771 114.69109,166.565571 124.020735,166.565571 L124.020735,49.6400186" id="Fill-272" fill="#C18148" sketch:type="MSShapeGroup" mask="url(#mask-2)"></path>
                    <path d="M69.8523131,115.563279 C69.0749641,108.308009 72.6443648,101.870685 77.8194135,101.182271 C82.9988294,100.493858 87.8230521,105.817785 88.5989455,113.073055 C89.3762946,120.325414 85.8054381,126.762738 80.6303894,127.451152 C75.4524292,128.13811 70.6282065,122.815638 69.8523131,115.563279" id="Fill-273" fill="#C18148" sketch:type="MSShapeGroup" mask="url(#mask-2)"></path>
                    <path d="M123.878075,49.6400186 C141.471785,49.6400186 169.294769,59.3302066 169.294769,104.734952 C169.294769,130.952893 161.659571,144.769197 157.813585,149.521144 C154.277666,153.891771 133.20772,166.565571 123.878075,166.565571 L123.878075,49.6400186" id="Fill-274" fill="#AA6A35" sketch:type="MSShapeGroup" mask="url(#mask-2)"></path>
                    <path d="M178.190612,115.563279 C178.967962,108.308009 175.397105,101.870685 170.223512,101.182271 C165.044096,100.493858 160.219873,105.817785 159.442524,113.073055 C158.666631,120.325414 162.236032,126.762738 167.412536,127.451152 C172.590496,128.13811 177.414719,122.815638 178.190612,115.563279" id="Fill-275" fill="#AA6A35" sketch:type="MSShapeGroup" mask="url(#mask-2)"></path>
                    <path d="M157.813585,149.521144 C160.337786,146.403634 164.479281,139.352123 167.038419,127.490448 L165.696254,111.841769 C165.039729,110.987438 162.896924,111.94656 162.779012,113.620293 C162.592681,116.295355 161.621722,133.335416 149.843573,136.186584 C140.407661,138.470138 130.009526,135.458874 123.878075,135.458874 L123.878075,166.565571 C133.20772,166.565571 154.277666,153.891771 157.813585,149.521144" id="Fill-276" fill="#D3D3D3" sketch:type="MSShapeGroup" mask="url(#mask-2)"></path>
                    <path d="M143.445728,111.841769 C143.445728,113.851705 141.816789,115.48032 139.806453,115.48032 C137.796118,115.48032 136.167178,113.851705 136.167178,111.841769 C136.167178,109.833289 137.796118,108.203219 139.806453,108.203219 C141.816789,108.203219 143.445728,109.833289 143.445728,111.841769" id="Fill-277" fill="#482B1B" sketch:type="MSShapeGroup" mask="url(#mask-2)"></path>
                    <path d="M111.874291,111.841769 C111.874291,113.851705 110.245352,115.48032 108.235017,115.48032 C106.224681,115.48032 104.595742,113.851705 104.595742,111.841769 C104.595742,109.833289 106.224681,108.203219 108.235017,108.203219 C110.245352,108.203219 111.874291,109.833289 111.874291,111.841769" id="Fill-278" fill="#482B1B" sketch:type="MSShapeGroup" mask="url(#mask-2)"></path>
                    <path d="M165.696254,111.841769 C165.895686,104.643261 168.764891,101.62763 169.226351,101.186638 C169.226351,101.179361 169.226351,101.172084 169.224895,101.164806 C169.211794,100.783486 169.173945,100.415265 169.182679,100.039767 C169.390846,91.005973 169.390846,75.2408609 159.975314,67.9724921 C157.503519,69.29838 154.762417,71.1060119 154.383932,75.6512894 C154.020005,80.0175501 154.475642,83.314077 157.159971,85.3109136 C164.655422,90.888084 162.779012,113.620293 162.779012,113.620293 L165.696254,111.841769" id="Fill-279" fill="#D3D3D3" sketch:type="MSShapeGroup" mask="url(#mask-2)"></path>
                    <path d="M82.2025561,111.841769 C82.0031238,104.643261 79.1339196,101.62763 78.6724595,101.186638 C78.6724595,101.179361 78.6724595,101.172084 78.6739153,101.164806 C78.6870166,100.783486 78.7248651,100.415265 78.7161308,100.039767 C78.5079643,91.005973 78.5079643,75.2408609 87.9249518,67.9724921 C90.3952915,69.29838 93.137849,71.1060119 93.5148779,75.6512894 C93.8788054,80.0175501 93.4231681,83.314077 90.7388391,85.3109136 C83.2448444,90.888084 85.1197988,113.620293 85.1197988,113.620293 L82.2025561,111.841769" id="Fill-280" fill="#D3D3D3" sketch:type="MSShapeGroup" mask="url(#mask-2)"></path>
                    <path d="M97.9125775,136.186584 C86.1344286,133.335416 85.3075854,116.315731 85.1197988,113.640669 C85.0018863,111.968391 82.8590813,111.009269 82.2025561,111.863601 L80.7614033,127.027624 C83.3103513,139.171651 87.5289987,146.362882 90.0837696,149.521144 C93.6065876,153.86994 114.480012,166.436039 123.878075,166.559749 L123.878075,135.458874 C117.746625,135.458874 107.347034,138.470138 97.9125775,136.186584" id="Fill-281" fill="#D3D3D3" sketch:type="MSShapeGroup" mask="url(#mask-2)"></path>
                    <path d="M124.020735,150.574869 C128.312168,150.574869 131.788403,148.023517 131.788403,144.873987 L116.254523,144.873987 C116.254523,148.023517 119.730758,150.574869 124.020735,150.574869" id="Fill-282" fill="#FFFFFF" sketch:type="MSShapeGroup" mask="url(#mask-2)"></path>
                </g>
            </g>
        </g>
    </g>
</svg>