<?xml version="1.0" encoding="UTF-8" standalone="no"?>
<svg width="128px" height="128px" viewBox="0 0 128 128" version="1.1" xmlns="http://www.w3.org/2000/svg" xmlns:xlink="http://www.w3.org/1999/xlink" xmlns:sketch="http://www.bohemiancoding.com/sketch/ns">
    <!-- Generator: Sketch 3.5.2 (25235) - http://www.bohemiancoding.com/sketch -->
    <title>Imported Layers miyagi</title>
    <desc>Created with Sketch.</desc>
    <defs>
        <path id="path-1" d="M127.351766,64.0464094 C127.351766,28.9077895 98.866152,0.422175439 63.7267836,0.422175439 C28.5881637,0.422175439 0.102549708,28.9077895 0.102549708,64.0464094 C0.102549708,99.1865263 28.5881637,127.67214 63.7267836,127.67214 C98.866152,127.67214 127.351766,99.1865263 127.351766,64.0464094"></path>
    </defs>
    <g id="Page-1" stroke="none" stroke-width="1" fill="none" fill-rule="evenodd" sketch:type="MSPage">
        <g id="17.3.2---selecionar-avatar" sketch:type="MSArtboardGroup" transform="translate(-373.000000, -825.000000)">
            <g id="screen" sketch:type="MSLayerGroup">
                <g id="day-info-copy">
                    <g id="day-info" transform="translate(41.000000, 311.000000)">
                        <g id="Imported-Layers-miyagi" transform="translate(332.000000, 514.000000)">
                            <path d="M127.352515,64.0479064 C127.352515,28.908538 98.866152,0.422175439 63.7267836,0.422175439 C28.5881637,0.422175439 0.10180117,28.908538 0.10180117,64.0479064 C0.10180117,99.1872749 28.5881637,127.67214 63.7267836,127.67214 C98.866152,127.67214 127.352515,99.1872749 127.352515,64.0479064" id="Fill-1" fill="#6C9525" sketch:type="MSShapeGroup"></path>
                            <path d="M127.352515,64.0479064 C127.352515,28.908538 98.866152,0.422175439 63.7267836,0.422175439 L63.7267836,127.67214 C98.866152,127.67214 127.352515,99.1872749 127.352515,64.0479064" id="Fill-2" fill="#678D23" sketch:type="MSShapeGroup"></path>
                            <g id="Group-21">
                                <mask id="mask-2" sketch:name="Clip 4" fill="white">
                                    <use xlink:href="#path-1"></use>
                                </mask>
                                <g id="Clip-4"></g>
                                <path d="M73.0438363,101.320608 L63.6092632,127.78517 L54.4104795,101.320608 L54.4104795,80.8892632 L73.0438363,80.8892632 L73.0438363,101.320608" id="Fill-3" fill="#EFCEA3" sketch:type="MSShapeGroup" mask="url(#mask-2)"></path>
                                <path d="M73.0438363,97.8451462 L54.4104795,84.2778947 L54.4104795,80.8892632 L73.0438363,80.8892632 L73.0438363,97.8451462" id="Fill-5" fill="#DBB27B" sketch:type="MSShapeGroup" mask="url(#mask-2)"></path>
                                <path d="M63.6092632,127.78517 L63.6092632,102.335626 C63.6092632,102.335626 56.6575906,100.612491 55.1260819,94.9827368 C54.3895205,92.2760234 54.4104795,90.1045146 54.4104795,90.1045146 C54.4104795,90.1045146 35.4694737,95.9865263 32.0756023,101.288421 C29.2528655,109.693754 28.4781287,128.533708 28.4781287,128.533708 L63.6092632,127.78517" id="Fill-6" fill="#E9C7AC" sketch:type="MSShapeGroup" mask="url(#mask-2)"></path>
                                <path d="M63.6092632,127.78517 L63.6092632,102.335626 C63.6092632,102.335626 70.5601871,100.612491 72.093193,94.9827368 C72.8290058,92.2760234 72.8080468,90.1045146 72.8080468,90.1045146 C72.8080468,90.1045146 91.7498012,95.9865263 95.142924,101.288421 C97.9664094,109.693754 98.7411462,128.533708 98.7411462,128.533708 L63.6092632,127.78517" id="Fill-7" fill="#CE9C88" sketch:type="MSShapeGroup" mask="url(#mask-2)"></path>
                                <path d="M63.7267836,25.9181287 C54.6807018,25.9181287 40.3731462,30.9018947 40.3731462,54.2540351 C40.3731462,67.7381988 44.2992281,74.8440702 46.276117,77.2880468 C48.0965614,79.5359064 58.9294035,86.0541754 63.7267836,86.0541754 L63.7267836,25.9181287" id="Fill-8" fill="#EFCEA3" sketch:type="MSShapeGroup" mask="url(#mask-2)"></path>
                                <path d="M35.8729357,59.8231579 C35.4732164,56.0916959 37.3093801,52.7809123 39.9696842,52.4268538 C42.6329825,52.0727953 45.1136374,54.8109474 45.5126082,58.5424094 C45.9123275,62.2723743 44.0761637,65.5831579 41.4151111,65.9372164 C38.7525614,66.2905263 36.2719064,63.5531228 35.8729357,59.8231579" id="Fill-9" fill="#EFCEA3" sketch:type="MSShapeGroup" mask="url(#mask-2)"></path>
                                <path d="M63.6534269,25.9181287 C72.7002573,25.9181287 87.0070643,30.9018947 87.0070643,54.2540351 C87.0070643,67.7381988 83.0809825,74.8440702 81.103345,77.2880468 C79.2851462,79.5359064 68.450807,86.0541754 63.6534269,86.0541754 L63.6534269,25.9181287" id="Fill-10" fill="#EDC68C" sketch:type="MSShapeGroup" mask="url(#mask-2)"></path>
                                <path d="M91.5821287,59.8231579 C91.9810994,56.0916959 90.1449357,52.7809123 87.4846316,52.4268538 C84.8213333,52.0727953 82.3406784,54.8109474 81.9409591,58.5424094 C81.5419883,62.2723743 83.3774035,65.5831579 86.0392047,65.9372164 C88.7017544,66.2905263 91.1824094,63.5531228 91.5821287,59.8231579" id="Fill-11" fill="#EDC68C" sketch:type="MSShapeGroup" mask="url(#mask-2)"></path>
                                <path d="M63.7267836,77.8299883 C65.9334737,77.8299883 67.721731,76.5178012 67.721731,74.8979649 L59.7333333,74.8979649 C59.7333333,76.5178012 61.5208421,77.8299883 63.7267836,77.8299883" id="Fill-12" fill="#FFFFFF" sketch:type="MSShapeGroup" mask="url(#mask-2)"></path>
                                <path d="M73.7152749,57.9091462 C73.7152749,58.6359766 72.8776608,59.2265731 71.8439298,59.2265731 C70.8101988,59.2265731 69.9725848,58.6359766 69.9725848,57.9091462 C69.9725848,57.1823158 70.8101988,56.5917193 71.8439298,56.5917193 C72.8776608,56.5917193 73.7152749,57.1823158 73.7152749,57.9091462" id="Fill-13" fill="#482B1B" sketch:type="MSShapeGroup" mask="url(#mask-2)"></path>
                                <path d="M57.4809825,57.9091462 C57.4809825,58.6359766 56.6433684,59.2265731 55.6096374,59.2265731 C54.5759064,59.2265731 53.7382924,58.6359766 53.7382924,57.9091462 C53.7382924,57.1823158 54.5759064,56.5917193 55.6096374,56.5917193 C56.6433684,56.5917193 57.4809825,57.1823158 57.4809825,57.9091462" id="Fill-14" fill="#482B1B" sketch:type="MSShapeGroup" mask="url(#mask-2)"></path>
                                <path d="M86.4576374,52.1326784 C86.4509006,51.9365614 86.2495439,41.2055205 85.957614,38.754807 C85.8707836,38.0287251 85.7929357,37.4815439 85.7315556,37.1941053 C83.8370058,28.3785731 73.5685614,23.2241404 63.7200468,23.2241404 C53.7570058,23.2241404 43.4339181,28.5417544 41.5775439,37.4815439 C41.5184094,37.7652398 41.3387602,38.7630409 41.2811228,39.7226667 C41.0341053,43.8156725 40.940538,52.2254971 40.9345497,52.3961637 C41.1718363,52.6214737 42.5169591,53.593076 42.6195088,57.2960936 L43.2385497,57.6621287 C43.2385497,57.6621287 43.0012632,47.4430877 46.6129591,44.2752749 C46.7709006,44.1367953 46.9348304,43.9983158 47.1002573,43.8583392 C50.4297544,41.7631813 53.9336608,44.2887485 63.6534269,44.2887485 C73.7265029,44.2887485 77.321731,41.7339883 80.7672515,44.2647953 L80.768,44.2647953 C84.3789474,47.4326082 84.1139649,57.9091462 84.1139649,57.9091462 L84.8460351,57.442807 C84.9485848,53.740538 86.458386,52.1364211 86.4576374,52.1326784" id="Fill-15" fill="#3F3F3F" sketch:type="MSShapeGroup" mask="url(#mask-2)"></path>
                                <path d="M41.2811228,39.7226667 C40.950269,42.7879298 40.5400702,47.9618246 40.4337778,50.9806784 C40.4337778,50.9806784 40.4158129,52.2292398 40.4083275,52.4403275 C40.645614,52.6656374 42.1209825,54.2173567 42.2235322,57.9203743 L43.7236023,58.8350877 C43.7236023,58.8350877 43.0791111,48.6414971 46.0687719,44.859883 L41.2811228,39.7226667" id="Fill-16" fill="#D3D3D3" sketch:type="MSShapeGroup" mask="url(#mask-2)"></path>
                                <path d="M85.1566784,57.9091462 C85.2592281,54.2068772 86.7345965,52.6559064 86.971883,52.4290994 C86.971883,52.4253567 86.971883,52.421614 86.9711345,52.4178713 C86.9643977,52.2217544 86.8408889,49.024 86.8408889,49.024 C86.6395322,45.6795322 86.2480468,41.1972865 85.956117,38.7503158 L80.7934503,44.2894971 C84.3744561,47.4894971 83.6566082,58.8238596 83.6566082,58.8238596 L85.1566784,57.9091462" id="Fill-17" fill="#D3D3D3" sketch:type="MSShapeGroup" mask="url(#mask-2)"></path>
                                <path d="M63.7267836,127.67214 L63.7267836,102.222596 C63.7267836,102.222596 56.7751111,100.500211 55.2436023,94.8704561 C54.5070409,92.1644912 54.528,89.9914854 54.528,89.9914854 C54.528,89.9914854 35.4694737,95.9872749 32.0756023,101.288421 C29.2528655,109.693754 28.4122573,127.67214 28.4122573,127.67214 L63.7267836,127.67214" id="Fill-18" fill="#7A2CB7" sketch:type="MSShapeGroup" mask="url(#mask-2)"></path>
                                <path d="M63.7267836,127.67214 L63.7267836,102.222596 C63.7267836,102.222596 70.6777076,100.500211 72.2107135,94.8704561 C72.9465263,92.1644912 73.1613567,90.0625965 73.1613567,90.0625965 C73.1613567,90.0625965 91.7498012,95.9872749 95.142924,101.288421 C97.9664094,109.693754 98.8002807,127.67214 98.8002807,127.67214 L63.7267836,127.67214" id="Fill-19" fill="#7027A0" sketch:type="MSShapeGroup" mask="url(#mask-2)"></path>
                                <path d="M52.7322573,90.554386 C52.7741754,91.4863158 52.9366082,93.4879064 53.5743626,95.8300819 C55.4067836,102.568421 63.7267836,104.630643 63.7267836,104.630643 C63.7267836,104.630643 72.0452865,102.568421 73.8807018,95.8300819 C74.5169591,93.488655 74.8268538,91.5304795 74.9503626,90.6232515 C73.8425263,90.2639532 73.1613567,90.0625965 73.1613567,90.0625965 C73.1613567,90.0625965 72.9465263,92.1644912 72.2107135,94.8704561 C70.6777076,100.500211 63.7267836,102.222596 63.7267836,102.222596 C63.7267836,102.222596 56.7751111,100.500211 55.2436023,94.8704561 C54.5070409,92.1644912 54.528,89.9914854 54.528,89.9914854 C54.528,89.9914854 53.8445848,90.1935906 52.7322573,90.554386" id="Fill-20" fill="#D3D3D3" sketch:type="MSShapeGroup" mask="url(#mask-2)"></path>
                            </g>
                        </g>
                    </g>
                </g>
            </g>
        </g>
    </g>
</svg>