<svg width="258" height="258" viewBox="0 0 258 258" xmlns="http://www.w3.org/2000/svg" xmlns:xlink="http://www.w3.org/1999/xlink"><title>img_profile_avatar_13</title><defs><path id="a" d="M249.926 125.08c0 69-55.93 124.92-124.924 124.92-69 0-124.928-55.92-124.928-124.92C.074 56.077 56 .148 125.002.148c68.995 0 124.924 55.93 124.924 124.932"/><path id="c" d="M258.196 129.453c0-71.107-57.65-128.75-128.767-128.75C58.313.704.664 58.347.664 129.454c0 71.104 57.65 128.748 128.764 128.748 71.116 0 128.766-57.643 128.766-128.747"/></defs><g transform="translate(4 2)" fill="none" fill-rule="evenodd"><mask id="b" fill="#fff"><use xlink:href="#a"/></mask><use fill="#FFF" xlink:href="#a"/><g mask="url(#b)"><path d="M250.37 123.994c0-69.29-56.173-125.464-125.463-125.464C55.617-1.47-.555 54.703-.555 123.994c0 69.29 56.17 125.46 125.462 125.46 69.29 0 125.462-56.17 125.462-125.46" fill="#1E88E6"/><path d="M250.37 123.994c0-69.29-56.173-125.464-125.463-125.464v250.925c69.29 0 125.462-56.17 125.462-125.46" fill="#1976D3"/><g transform="translate(-4.507 -8.714)"><mask id="d" fill="#fff"><use xlink:href="#c"/></mask><path d="M148.285 204.877L129.19 258.43l-18.616-53.553v-41.343h37.71v41.343" fill="#B6B3B7" mask="url(#d)"/><path d="M148.285 197.843l-37.71-27.454v-6.856h37.71v34.31" fill="#9B9B9B" mask="url(#d)"/><path d="M129.19 258.43v-51.5s-14.068-3.486-17.167-14.88c-1.49-5.475-1.45-9.87-1.45-9.87s-35.302 10.39-42.17 21.118c-5.714 17.008-7.282 55.132-7.282 55.132h68.07" fill="#B6B3B7" mask="url(#d)"/><path d="M129.19 258.43v-51.5s14.07-3.486 17.17-14.88c1.49-5.475 1.448-9.87 1.448-9.87s35.305 10.39 42.173 21.118c5.715 17.008 7.283 55.132 7.283 55.132H129.19" fill="#9B9B9B" mask="url(#d)"/><path d="M129.19 258.43v-51.5s-21.84-3.616-24.453-22.887c-10.328 3.46-31.22 11.264-36.335 19.255-5.713 17.008-7.28 55.132-7.28 55.132h68.07" fill="#B6B3B7" mask="url(#d)"/><path d="M129.19 258.43v-51.5s21.213-2.36 25.158-22.65c10.545 3.57 30.63 11.203 35.633 19.018 5.715 17.008 7.283 55.132 7.283 55.132H129.19" fill="#9B9B9B" mask="url(#d)"/><path d="M183.907 86.46c0-29.148-24.392-52.78-54.476-52.78-30.086 0-54.476 23.632-54.476 52.78 0 29.15 24.39 52.78 54.477 52.78 30.085 0 54.477-23.63 54.477-52.78" fill="#C0BFC1" mask="url(#d)"/><path d="M129.43 52.297c-18.31 0-47.265 10.083-47.265 57.34 0 27.285 7.946 41.664 11.947 46.61 3.684 4.548 25.608 17.738 35.32 17.738V52.297" fill="#9B9B9B" mask="url(#d)"/><path d="M73.057 120.905c-.81-7.55 2.907-14.252 8.29-14.968 5.39-.715 10.412 4.826 11.22 12.377.808 7.547-2.906 14.247-8.293 14.963-5.39.717-10.41-4.824-11.217-12.372" fill="#9B9B9B" mask="url(#d)"/><path d="M127.98 52.297c18.308 0 47.263 10.083 47.263 57.34 0 27.285-7.946 41.664-11.948 46.61-3.68 4.548-25.607 17.738-35.316 17.738V52.297" fill="#B6B3B7" mask="url(#d)"/><path d="M184.5 120.905c.81-7.55-2.906-14.252-8.29-14.968-5.39-.715-10.41 4.826-11.218 12.377-.81 7.547 2.905 14.247 8.292 14.963 5.39.717 10.41-4.824 11.217-12.372" fill="#B6B3B7" mask="url(#d)"/><path d="M126.766 38.7C93.31 38.7 83.14 67.097 83.14 80.174c-9.012 12.136-4.093 23.376 2.958 30.38 1.425 1.413 6.25-21.525 33.443-21.048 14.038.247 22.75-6.182 30.175-19.176 9.17-17.402-2.273-31.63-22.95-31.63" fill="#C0BFC1" mask="url(#d)"/><path d="M148.285 64.988s7.817 30.747 29.226 40.95c3.81-27.64 6.062-21.82 0-36.375-6.06-14.557-29.225-25.367-29.225-25.367v20.792" fill="#C0BFC1" mask="url(#d)"/><path d="M101.176 185.23c2.09 13.48 13.945 24.238 28.015 24.238s25.89-10.74 27.982-24.223c-2.827-1.155-5.346-1.86-7.11-2.363-.428 11.185-9.58 20.235-20.87 20.235-11.292 0-20.575-8.993-21.005-20.177-1.644.213-4.183 1.133-7.01 2.29" fill="#9B9B9B" mask="url(#d)"/></g></g></g></svg>