<svg width="255" height="255" viewBox="0 0 255 255" xmlns="http://www.w3.org/2000/svg" xmlns:xlink="http://www.w3.org/1999/xlink"><title>img_profile_avatar_09</title><defs><path id="a" d="M246.956 123.28c0-68.05-55.174-123.213-123.24-123.213C55.657.067.482 55.23.482 123.28c0 68.053 55.177 123.216 123.237 123.216 68.065 0 123.24-55.163 123.24-123.215"/></defs><g fill="none" fill-rule="evenodd"><path d="M251.13 125.164c0-68.05-55.175-123.215-123.238-123.215-68.062 0-123.24 55.165-123.24 123.214 0 68.05 55.178 123.213 123.24 123.213 68.063 0 123.24-55.163 123.24-123.213" fill="#5A4980"/><path d="M251.13 125.164c0-68.05-55.175-123.215-123.238-123.215v246.427c68.063 0 123.24-55.163 123.24-123.213" fill="#534378"/><g transform="translate(4.173 1.88)"><mask id="b" fill="#fff"><use xlink:href="#a"/></mask><path d="M141.766 195.465l-18.275 51.25-17.816-51.25V155.9h36.092v39.565" fill="#E9C7AC" mask="url(#b)"/><path d="M141.766 188.733l-36.092-26.274v-6.56h36.092v32.833" fill="#CE9C88" mask="url(#b)"/><path d="M123.49 246.714V197.43s-13.464-3.337-16.43-14.24c-1.427-5.242-1.386-9.445-1.386-9.445s-33.79 9.94-40.362 20.208c-5.468 16.278-6.97 52.76-6.97 52.76h65.15" fill="#E9C7AC" mask="url(#b)"/><path d="M123.49 246.714V201.78s13.463-7.687 16.434-18.59c1.425-5.242 1.385-9.445 1.385-9.445s33.79 9.94 40.36 20.208c5.47 16.278 6.97 52.76 6.97 52.76h-65.15" fill="#CE9C88" mask="url(#b)"/><path d="M123.49 246.714V201.78s-13.464-7.687-16.43-18.59c-1.427-5.242-1.386-9.445-1.386-9.445s-33.79 9.94-40.362 20.208c-5.468 16.278-6.97 52.76-6.97 52.76h65.15" fill="#1E88E6" mask="url(#b)"/><path d="M123.49 246.714V201.78s13.463-7.687 16.434-18.59c1.425-5.242 1.88-9.3 1.88-9.3s33.295 9.794 39.867 20.063c5.47 16.278 6.97 52.76 6.97 52.76h-65.15" fill="#1976D3" mask="url(#b)"/><path d="M139.456 28.512c0-9.402-7.624-17.024-17.028-17.024-9.405 0-17.028 7.622-17.028 17.024 0 9.404 7.623 17.024 17.028 17.024 9.404 0 17.028-7.62 17.028-17.024" fill="#E5E6E7" mask="url(#b)"/><path d="M177.66 80.258c0-29.783-24.152-53.927-53.94-53.927-29.79 0-53.94 24.145-53.94 53.928 0 29.784 24.15 53.928 53.94 53.928 29.788 0 53.94-24.144 53.94-53.928" fill="#E5E6E7" mask="url(#b)"/><path d="M123.72 49.44c-17.524 0-45.236 9.653-45.236 54.877 0 26.112 11.954 38.425 15.783 43.156 3.526 4.355 20.16 18.428 29.452 18.428V49.44" fill="#F1D6BB" mask="url(#b)"/><path d="M69.766 115.1c-.773-7.225 2.782-13.637 7.936-14.322 5.16-.686 9.964 4.617 10.737 11.843.773 7.226-2.784 13.636-7.938 14.32-5.157.687-9.962-4.614-10.736-11.84" fill="#F1D6BB" mask="url(#b)"/><path d="M123.577 49.44c17.523 0 45.235 9.653 45.235 54.877 0 26.112-11.955 38.425-15.785 43.156-3.522 4.355-20.158 18.428-29.45 18.428V49.44" fill="#EBC7A7" mask="url(#b)"/><path d="M177.672 115.1c.774-7.225-2.782-13.637-7.935-14.322-5.16-.686-9.964 4.617-10.738 11.843-.774 7.226 2.78 13.636 7.937 14.32 5.157.687 9.962-4.614 10.735-11.84" fill="#EBC7A7" mask="url(#b)"/><path d="M123.72 149.973c6.83 0 12.368-4.062 12.368-9.076H111.35c0 5.014 5.537 9.076 12.37 9.076" fill="#FFF" mask="url(#b)"/><path d="M132.15 45.922s-10.67 39.793 35.91 56.454c11.162-36.427-9.228-60.187-35.91-56.454" fill="#E5E6E7" mask="url(#b)"/><path d="M143.066 111.396c0 2-1.622 3.624-3.625 3.624-2 0-3.623-1.624-3.623-3.624s1.622-3.624 3.624-3.624c2.004 0 3.626 1.623 3.626 3.624M111.62 111.396c0 2-1.62 3.624-3.624 3.624-2.002 0-3.624-1.624-3.624-3.624s1.622-3.624 3.624-3.624c2.003 0 3.625 1.623 3.625 3.624" fill="#482B1B" mask="url(#b)"/><path d="M123.124 35.214c-.84-.108-1.716-.182-2.657-.19 0 0-29.6 2.216-37.835 40.758-3.955 2.965-11.203 14.495-1.65 27.34C82.3 92.253 86.285 84.38 93.175 81.38c12.226-5.317 17.26-.376 31.428-11.246 8.274-6.35 11.248-19.112 9.418-26.247-3.29-8.863-11.692-8.53-10.896-8.673" fill="#E5E6E7" mask="url(#b)"/><path d="M170.758 125.7c0 1.334-1.082 2.416-2.417 2.416-1.335 0-2.416-1.082-2.416-2.417 0-1.336 1.08-2.417 2.417-2.417 1.336 0 2.418 1.08 2.418 2.416M81.275 125.7c0 1.334-1.082 2.416-2.417 2.416-1.335 0-2.417-1.082-2.417-2.417 0-1.336 1.083-2.417 2.418-2.417 1.335 0 2.417 1.08 2.417 2.416" fill="#6C9525" mask="url(#b)"/><path d="M129.74 217.727c0 1.044-.848 1.89-1.892 1.89s-1.89-.846-1.89-1.89c0-1.042.846-1.89 1.89-1.89s1.89.848 1.89 1.89M129.74 228.554c0 1.044-.848 1.89-1.892 1.89s-1.89-.846-1.89-1.89c0-1.042.846-1.89 1.89-1.89s1.89.848 1.89 1.89M129.74 239.38c0 1.045-.848 1.89-1.892 1.89s-1.89-.845-1.89-1.89c0-1.043.846-1.89 1.89-1.89s1.89.847 1.89 1.89M141.803 173.89s-.454 4.058-1.88 9.3c-2.97 10.903-16.432 18.59-16.432 18.59v9.782s31.918-9.932 31.445-33.192c-7.28-2.754-13.132-4.48-13.132-4.48" fill="#E8E8E8" mask="url(#b)"/><path d="M123.34 201.69c-1.267-.752-10.118-6.216-14.458-14.112-.765-1.394-1.406-2.856-1.824-4.39-.01-.037-.02-.075-.027-.112-1.394-5.187-1.356-9.33-1.356-9.33s-6.106 1.796-13.625 4.65c-.452 23.242 31.44 33.166 31.44 33.166v-9.782l-.15-.09" fill="#FFF" mask="url(#b)"/></g></g></svg>