<svg width="249" height="249" viewBox="0 0 249 249" xmlns="http://www.w3.org/2000/svg" xmlns:xlink="http://www.w3.org/1999/xlink"><title>Imported Layers</title><defs><path id="a" d="M249.808 124.338C249.808 55.706 194.173.07 125.538.07 56.912.07 1.276 55.706 1.276 124.338c0 68.63 55.636 124.27 124.264 124.27 68.633 0 124.268-55.64 124.268-124.27"/></defs><g fill="none" fill-rule="evenodd"><path d="M248.808 124.34C248.808 55.705 193.173.07 124.54.07 55.91.072.274 55.706.274 124.34c0 68.63 55.638 124.267 124.268 124.267 68.633 0 124.268-55.638 124.268-124.268" fill="#6C9525"/><path d="M248.808 124.34C248.808 55.705 193.173.07 124.54.07v248.535c68.633 0 124.268-55.638 124.268-124.268" fill="#678D23"/><g transform="translate(-1)"><mask id="b" fill="#fff"><use xlink:href="#a"/></mask><path d="M143.738 197.14l-18.427 51.686-17.965-51.687v-39.906h36.393v39.905" fill="#E9C7AC" mask="url(#b)"/><path d="M143.738 190.348l-36.393-26.5v-6.614h36.393v33.114" fill="#CE9C88" mask="url(#b)"/><path d="M125.31 248.826V199.12s-13.576-3.367-16.567-14.363c-1.44-5.285-1.398-9.526-1.398-9.526s-34.072 10.027-40.7 20.384c-5.512 16.415-7.027 53.212-7.027 53.212h65.693" fill="#E9C7AC" mask="url(#b)"/><path d="M125.31 248.826V199.12s14.357-3.127 17.35-14.124c1.438-5.285.618-9.765.618-9.765s34.07 10.027 40.7 20.384c5.512 16.415 7.026 53.212 7.026 53.212H125.31" fill="#CE9C88" mask="url(#b)"/><path d="M125.31 248.826V195.96s-13.953-.207-16.945-11.203c-1.438-5.285-1.02-9.526-1.02-9.526s-34.072 10.027-40.7 20.384c-5.512 16.415-7.027 53.212-7.027 53.212h65.693" fill="#1E88E6" mask="url(#b)"/><path d="M125.31 248.826V195.96s14.053-.207 17.047-11.203c1.437-5.285 1.38-9.39 1.38-9.39s33.612 9.89 40.24 20.247c5.513 16.415 7.027 53.212 7.027 53.212H125.31" fill="#1976D3" mask="url(#b)"/><path d="M102.444 176.785c-.03 2.067.126 5.994 1.363 10.537 3.797 13.954 21.504 14.216 21.504 14.216s17.83-.262 21.633-14.216c1.23-4.535 1.596-8.376 1.705-10.395-2.993-.993-4.91-1.56-4.91-1.56s.056 4.105-1.38 9.39c-2.995 10.996-17.047 11.204-17.047 11.204s-13.953-.207-16.945-11.203c-1.438-5.285-1.02-9.526-1.02-9.526s-1.912.565-4.9 1.555" fill="#534378" mask="url(#b)"/><path d="M174.13 102.323c0-53.598-4.91-71.02-47.49-62.612-19.644 3.88-52.083 2.68-49.32 62.432 1.298 28.105 19.187 31.643 48.22 31.643 29.036 0 48.59-3.327 48.59-31.462" fill="#F9A11C" mask="url(#b)"/><path d="M125.54 49.867c-17.667 0-45.612 9.732-45.612 55.345 0 26.333 7.668 40.215 11.53 44.985 3.555 4.392 24.713 17.123 34.083 17.123V49.867" fill="#F1D6BB" mask="url(#b)"/><path d="M71.137 116.088c-.78-7.288 2.806-13.755 8.003-14.448 5.202-.688 10.047 4.658 10.826 11.946.78 7.285-2.805 13.752-8.003 14.443-5.2.69-10.045-4.657-10.826-11.942" fill="#F1D6BB" mask="url(#b)"/><path d="M125.398 49.867c17.67 0 45.612 9.732 45.612 55.345 0 26.333-7.668 40.215-11.53 44.985-3.553 4.392-24.712 17.123-34.082 17.123V49.867" fill="#EBC7A7" mask="url(#b)"/><path d="M179.944 116.088c.78-7.288-2.805-13.755-8-14.448-5.203-.688-10.048 4.658-10.83 11.946-.778 7.285 2.807 13.752 8.006 14.443 5.2.69 10.045-4.657 10.824-11.942" fill="#EBC7A7" mask="url(#b)"/><path d="M125.54 151.257c6.89 0 12.473-4.098 12.473-9.155H113.07c0 5.057 5.582 9.155 12.47 9.155" fill="#FFF" mask="url(#b)"/><path d="M145.05 112.35c0 2.018-1.636 3.656-3.655 3.656-2.02 0-3.655-1.638-3.655-3.655 0-2.018 1.636-3.654 3.655-3.654 2.02 0 3.655 1.636 3.655 3.655M113.342 112.35c0 2.018-1.636 3.656-3.655 3.656-2.02 0-3.655-1.638-3.655-3.655 0-2.018 1.636-3.654 3.655-3.654 2.02 0 3.655 1.636 3.655 3.655" fill="#482B1B" mask="url(#b)"/><path d="M82.687 112.35h2.2s8.044-19.116 4.022-31.644c0 0 24.9 6.19 43.305-3.558 18.405-9.743 26.074 2.006 27.956 4.766 3.194 4.685 2.204 29.26 2.204 29.26l2.474-.155s.222-7.736 6.1-9.438c0 0 6.404-56.912-45.55-56.912-51.955 0-46.233 56.14-46.233 56.14s3.522 4.054 3.522 11.54" fill="#F9A11C" mask="url(#b)"/></g></g></svg>