<svg width="128" height="128" viewBox="0 0 128 128" xmlns="http://www.w3.org/2000/svg" xmlns:xlink="http://www.w3.org/1999/xlink"><title>Imported Layers miyagi</title><defs><path id="a" d="M127.352 64.046c0-35.138-28.486-63.624-63.625-63.624C28.587.422.103 28.908.103 64.046c0 35.14 28.485 63.626 63.624 63.626 35.14 0 63.625-28.485 63.625-63.626"/></defs><g fill="none" fill-rule="evenodd"><path d="M127.353 64.048c0-35.14-28.487-63.626-63.626-63.626C28.587.422.102 28.91.102 64.048c0 35.14 28.486 63.624 63.625 63.624 35.14 0 63.626-28.485 63.626-63.624" fill="#6C9525"/><path d="M127.353 64.048c0-35.14-28.487-63.626-63.626-63.626v127.25c35.14 0 63.626-28.485 63.626-63.624" fill="#678D23"/><g><mask id="b" fill="#fff"><use xlink:href="#a"/></mask><path d="M73.044 101.32l-9.435 26.465-9.2-26.464V80.89h18.634v20.43" fill="#EFCEA3" mask="url(#b)"/><path d="M73.044 97.845L54.41 84.278v-3.39h18.634v16.957" fill="#DBB27B" mask="url(#b)"/><path d="M63.61 127.785v-25.45s-6.952-1.723-8.484-7.352c-.736-2.707-.716-4.878-.716-4.878s-18.94 5.882-22.334 11.183c-2.823 8.406-3.598 27.246-3.598 27.246l35.13-.75" fill="#E9C7AC" mask="url(#b)"/><path d="M63.61 127.785v-25.45s6.95-1.723 8.483-7.352c.736-2.707.715-4.878.715-4.878s18.942 5.882 22.335 11.183c2.823 8.406 3.598 27.246 3.598 27.246l-35.13-.75" fill="#CE9C88" mask="url(#b)"/><path d="M63.727 25.918c-9.046 0-23.354 4.984-23.354 28.336 0 13.484 3.926 20.59 5.903 23.034 1.82 2.248 12.653 8.766 17.45 8.766V25.918" fill="#EFCEA3" mask="url(#b)"/><path d="M35.873 59.823c-.4-3.73 1.436-7.042 4.097-7.396 2.663-.354 5.144 2.384 5.543 6.115.4 3.73-1.437 7.04-4.098 7.395-2.662.354-5.143-2.384-5.542-6.114" fill="#EFCEA3" mask="url(#b)"/><path d="M63.653 25.918c9.047 0 23.354 4.984 23.354 28.336 0 13.484-3.926 20.59-5.904 23.034-1.818 2.248-12.652 8.766-17.45 8.766V25.918" fill="#EDC68C" mask="url(#b)"/><path d="M91.582 59.823c.4-3.73-1.437-7.042-4.097-7.396-2.664-.354-5.144 2.384-5.544 6.115-.398 3.73 1.437 7.04 4.1 7.395 2.662.354 5.142-2.384 5.542-6.114" fill="#EDC68C" mask="url(#b)"/><path d="M63.727 77.83c2.206 0 3.995-1.312 3.995-2.932h-7.99c0 1.62 1.79 2.932 3.995 2.932" fill="#FFF" mask="url(#b)"/><path d="M73.715 57.91c0 .726-.837 1.317-1.87 1.317-1.035 0-1.872-.59-1.872-1.318 0-.728.837-1.318 1.87-1.318 1.035 0 1.872.59 1.872 1.317M57.48 57.91c0 .726-.837 1.317-1.87 1.317-1.034 0-1.872-.59-1.872-1.318 0-.728.838-1.318 1.872-1.318 1.033 0 1.87.59 1.87 1.317" fill="#482B1B" mask="url(#b)"/><path d="M86.458 52.133c-.007-.196-.208-10.927-.5-13.378-.087-.726-.165-1.273-.226-1.56-1.895-8.816-12.163-13.97-22.012-13.97-9.963 0-20.286 5.317-22.142 14.257-.06.283-.24 1.28-.297 2.24-.246 4.094-.34 12.503-.345 12.674.237.225 1.582 1.197 1.685 4.9l.62.366s-.24-10.22 3.373-13.387c.158-.138.322-.277.487-.417 3.33-2.095 6.834.43 16.553.43 10.074 0 13.67-2.554 17.114-.023 3.612 3.168 3.347 13.644 3.347 13.644l.732-.467c.103-3.702 1.612-5.307 1.612-5.31" fill="#3F3F3F" mask="url(#b)"/><path d="M41.28 39.723c-.33 3.065-.74 8.24-.846 11.258 0 0-.018 1.25-.026 1.46.238.226 1.713 1.777 1.816 5.48l1.5.915S43.08 48.64 46.07 44.86l-4.79-5.137M85.157 57.91c.102-3.703 1.578-5.254 1.815-5.48v-.012l-.13-3.394c-.202-3.344-.594-7.827-.886-10.274l-5.163 5.54c3.58 3.2 2.864 14.534 2.864 14.534l1.5-.915" fill="#D3D3D3" mask="url(#b)"/><path d="M63.727 127.672v-25.45s-6.952-1.722-8.483-7.352c-.737-2.706-.716-4.88-.716-4.88s-19.06 5.997-22.452 11.298c-2.823 8.406-3.664 26.384-3.664 26.384h35.315" fill="#7A2CB7" mask="url(#b)"/><path d="M63.727 127.672v-25.45s6.95-1.722 8.484-7.352c.737-2.706.95-4.807.95-4.807s18.59 5.924 21.983 11.225c2.823 8.406 3.657 26.384 3.657 26.384H63.727" fill="#7027A0" mask="url(#b)"/><path d="M52.732 90.554c.042.932.205 2.934.842 5.276 1.833 6.738 10.153 8.8 10.153 8.8s8.318-2.062 10.154-8.8c.637-2.34.947-4.3 1.07-5.207-1.107-.36-1.79-.56-1.79-.56s-.213 2.1-.95 4.807c-1.532 5.63-8.483 7.353-8.483 7.353s-6.952-1.723-8.483-7.353c-.737-2.706-.716-4.88-.716-4.88s-.683.204-1.796.564" fill="#D3D3D3" mask="url(#b)"/></g></g></svg>