<svg width="255" height="255" viewBox="0 0 255 255" xmlns="http://www.w3.org/2000/svg" xmlns:xlink="http://www.w3.org/1999/xlink"><title>img_profile_avatar_07</title><defs><path id="a" d="M247.76 124.31c0-68.05-55.176-123.216-123.24-123.216C56.46 1.094 1.284 56.26 1.284 124.31c0 68.05 55.176 123.215 123.238 123.215 68.064 0 123.24-55.166 123.24-123.216"/></defs><g fill="none" fill-rule="evenodd"><path d="M250.657 125.528c0-68.05-55.177-123.216-123.24-123.216-68.062 0-123.24 55.166-123.24 123.216 0 68.048 55.178 123.213 123.24 123.213 68.063 0 123.24-55.164 123.24-123.212" fill="#1E88E6"/><path d="M250.657 125.528c0-68.05-55.177-123.216-123.24-123.216v246.43c68.063 0 123.24-55.166 123.24-123.214" fill="#1976D3"/><g transform="translate(2.896 1.216)"><mask id="b" fill="#fff"><use xlink:href="#a"/></mask><path d="M124.52 215.21H80.43s-20.348-19.668-10.173-48.83c10.174-29.16 18.992-40.687 19.67-71.882h34.594V215.21" fill="#472B1B" mask="url(#b)"/><path d="M123.382 215.21h44.092s20.35-19.668 10.173-48.83c-10.173-29.16-18.993-40.687-19.67-71.882h-34.595V215.21" fill="#472B1B" mask="url(#b)"/><path d="M142.567 196.493l-18.274 51.25-17.818-51.25v-39.567h36.092v39.567" fill="#C18148" mask="url(#b)"/><path d="M142.567 189.76l-36.092-26.273v-6.56h36.092v32.834" fill="#915324" mask="url(#b)"/><path d="M124.293 247.742v-44.936s-13.465-7.684-16.432-18.588c-1.425-5.24-1.385-9.447-1.385-9.447s-33.788 9.944-40.362 20.21c-5.467 16.277-6.968 52.762-6.968 52.762h65.148" fill="#C18148" mask="url(#b)"/><path d="M124.293 247.742v-44.936s13.462-7.684 16.433-18.588c1.425-5.24 1.385-9.447 1.385-9.447s33.79 9.944 40.363 20.21c5.47 16.277 6.97 52.762 6.97 52.762h-65.15" fill="#CE9C88" mask="url(#b)"/><path d="M124.293 247.742v-44.936s-13.465-7.684-16.432-18.588c-1.425-5.24-1.385-9.447-1.385-9.447s-33.788 9.944-40.362 20.21c-5.467 16.277-6.968 52.762-6.968 52.762h65.148" fill="#C4D11C" mask="url(#b)"/><path d="M124.293 247.742v-44.936s13.462-7.684 16.433-18.588c1.425-5.24 1.88-9.3 1.88-9.3s33.294 9.796 39.867 20.063c5.47 16.277 6.97 52.762 6.97 52.762h-65.15" fill="#BBBF10" mask="url(#b)"/><path d="M178.46 81.288c0-29.785-24.15-53.93-53.94-53.93-29.787 0-53.938 24.145-53.938 53.93 0 29.782 24.15 53.925 53.94 53.925 29.788 0 53.94-24.143 53.94-53.925" fill="#472B1B" mask="url(#b)"/><path d="M124.52 50.47c-17.52 0-45.234 9.652-45.234 54.875 0 26.113 11.954 38.425 15.783 43.156 3.525 4.354 20.158 18.43 29.45 18.43V50.47" fill="#C18148" mask="url(#b)"/><path d="M70.57 116.13c-.775-7.226 2.78-13.64 7.934-14.325 5.16-.684 9.964 4.62 10.737 11.844.775 7.223-2.78 13.635-7.936 14.32-5.157.685-9.962-4.616-10.735-11.84" fill="#C18148" mask="url(#b)"/><path d="M124.38 50.47c17.522 0 45.234 9.652 45.234 54.875 0 26.113-11.955 38.425-15.785 43.156-3.523 4.354-20.16 18.43-29.45 18.43V50.47" fill="#AA6A35" mask="url(#b)"/><path d="M178.474 116.13c.774-7.226-2.782-13.64-7.935-14.325-5.16-.684-9.965 4.62-10.74 11.844-.772 7.223 2.783 13.635 7.94 14.32 5.156.685 9.96-4.616 10.734-11.84" fill="#AA6A35" mask="url(#b)"/><path d="M124.52 151c6.833 0 12.37-4.063 12.37-9.077h-24.737c0 5.014 5.537 9.077 12.368 9.077" fill="#FFF" mask="url(#b)"/><path d="M123.926 36.24c-.84-.106-1.716-.18-2.657-.187 0 0-29.6 2.215-37.836 40.755-3.956 2.965-11.204 14.496-1.65 27.343 1.318-10.868 5.302-18.743 12.192-21.74 12.225-5.317 17.26-.377 31.428-11.246 8.274-6.35 11.248-19.115 9.418-26.25-3.29-8.86-11.69-8.53-10.896-8.673" fill="#472B1B" mask="url(#b)"/><path d="M132.95 46.95s-10.668 39.794 35.913 56.456c11.16-36.427-9.23-60.19-35.913-56.456" fill="#472B1B" mask="url(#b)"/><path d="M143.868 112.424c0 2-1.622 3.624-3.625 3.624-2.002 0-3.624-1.624-3.624-3.624s1.62-3.624 3.623-3.624 3.625 1.623 3.625 3.624M112.423 112.424c0 2-1.623 3.624-3.625 3.624s-3.625-1.624-3.625-3.624 1.623-3.624 3.625-3.624 3.625 1.623 3.625 3.624" fill="#482B1B" mask="url(#b)"/><path d="M82.936 126.853l-3.03 3.03-3.034-3.03 3.033-3.03 3.03 3.03M172.17 126.853l-3.032 3.03-3.033-3.03 3.033-3.03 3.032 3.03" fill="#472B1B" mask="url(#b)"/></g></g></svg>