<svg width="255" height="255" viewBox="0 0 255 255" xmlns="http://www.w3.org/2000/svg" xmlns:xlink="http://www.w3.org/1999/xlink"><title>img_profile_avatar_04</title><defs><path id="a" d="M247.758 123.888C247.758 55.838 192.584.674 124.52.674 56.46.674 1.284 55.84 1.284 123.888c0 68.05 55.176 123.215 123.238 123.215 68.064 0 123.238-55.166 123.238-123.215"/></defs><g fill="none" fill-rule="evenodd"><path d="M250.656 125.77c0-68.05-55.176-123.213-123.24-123.213C59.357 2.557 4.18 57.72 4.18 125.77s55.175 123.214 123.237 123.214c68.063 0 123.24-55.164 123.24-123.213" fill="#C4D11C"/><path d="M250.656 125.77c0-68.05-55.176-123.213-123.24-123.213v246.427c68.064 0 123.24-55.164 123.24-123.213" fill="#BBBF10"/><g transform="translate(2.896 1.88)"><mask id="b" fill="#fff"><use xlink:href="#a"/></mask><path d="M142.567 196.07l-18.274 51.252-17.818-51.25v-39.568h36.092v39.567" fill="#C18148" mask="url(#b)"/><path d="M142.567 189.34l-36.092-26.275v-6.56h36.092v32.834" fill="#915324" mask="url(#b)"/><path d="M124.293 247.322v-49.285s-13.465-3.337-16.432-14.24c-1.425-5.24-1.385-9.447-1.385-9.447s-33.788 9.942-40.362 20.21c-5.467 16.277-6.968 52.762-6.968 52.762h65.148" fill="#1E88E6" mask="url(#b)"/><path d="M124.293 247.322v-49.285s13.462-3.337 16.433-14.24c1.425-5.24 1.84-9.31 1.84-9.31s33.334 9.805 39.907 20.072c5.47 16.277 6.97 52.762 6.97 52.762h-65.15" fill="#1976D3" mask="url(#b)"/><path d="M102.997 175.44c.08 1.804.396 5.68 1.63 10.216 3.55 13.05 19.666 17.04 19.666 17.04s16.113-3.99 19.668-17.04c1.233-4.534 1.832-8.327 2.07-10.085-2.143-.693-3.463-1.083-3.463-1.083s-.416 4.07-1.84 9.31c-2.972 10.903-16.434 14.24-16.434 14.24s-13.465-3.337-16.432-14.24c-1.425-5.24-1.385-9.447-1.385-9.447s-1.323.39-3.478 1.09" fill="#FFF" mask="url(#b)"/><path d="M124.52 31.99c-21.74 0-44.263 11.602-48.312 31.104-1.998 9.62 0 39.303 0 39.303 7.93 18.27 26.573 31.1 48.313 31.1 21.49 0 39.948-12.54 48.03-30.474 0 0 2.128-30.645 0-40.557-4.134-19.232-26.54-30.475-48.03-30.475" fill="#482B1B" mask="url(#b)"/><path d="M124.52 50.05c-17.52 0-45.234 9.65-45.234 54.875 0 26.11 7.604 39.873 11.433 44.605 3.526 4.354 24.508 16.977 33.8 16.977V50.05" fill="#C18148" mask="url(#b)"/><path d="M70.57 115.708c-.775-7.226 2.78-13.64 7.934-14.325 5.16-.684 9.964 4.62 10.738 11.845.773 7.223-2.782 13.635-7.938 14.32-5.157.686-9.962-4.616-10.735-11.84" fill="#C18148" mask="url(#b)"/><path d="M124.38 50.05c17.522 0 45.234 9.65 45.234 54.875 0 26.11-7.605 39.873-11.436 44.605-3.52 4.354-24.507 16.977-33.8 16.977V50.05" fill="#AA6A35" mask="url(#b)"/><path d="M178.474 115.708c.774-7.226-2.78-13.64-7.935-14.325-5.16-.684-9.965 4.62-10.738 11.845-.774 7.223 2.78 13.635 7.937 14.32 5.156.686 9.96-4.616 10.734-11.84" fill="#AA6A35" mask="url(#b)"/><path d="M124.52 150.58c6.833 0 12.37-4.063 12.37-9.077h-24.737c0 5.014 5.537 9.077 12.368 9.077" fill="#FFF" mask="url(#b)"/><path d="M143.868 112.002c0 2.002-1.622 3.624-3.625 3.624-2.002 0-3.624-1.622-3.624-3.624 0-2 1.62-3.623 3.623-3.623s3.625 1.62 3.625 3.622M112.423 112.002c0 2.002-1.623 3.624-3.625 3.624s-3.625-1.622-3.625-3.624c0-2 1.623-3.623 3.625-3.623s3.625 1.62 3.625 3.622M170.736 99.945s-3.986 4.35-4.35 9.785H162.4s1.755-22.034-5.113-27.075c-6.868-5.043-12.83.09-32.908.09l-2.9-36.616 37.658 5.435 13.412 36.602-1.814 11.778" fill="#482B1B" mask="url(#b)"/><path d="M78.02 99.945s3.987 4.35 4.35 9.785h3.987s-2.565-22.338 4.302-27.38c6.867-5.043 13.64.395 33.72.395l2.898-36.616-37.66 5.435-13.41 36.602 1.812 11.778" fill="#482B1B" mask="url(#b)"/></g></g></svg>