<svg width="253" height="253" viewBox="0 0 253 253" xmlns="http://www.w3.org/2000/svg" xmlns:xlink="http://www.w3.org/1999/xlink"><title>img_profile_avatar_08</title><defs><path id="a" d="M245.035 123.264c0-67.478-54.712-122.18-122.203-122.18-67.49 0-122.2 54.702-122.2 122.18 0 67.478 54.71 122.18 122.2 122.18 67.49 0 122.203-54.702 122.203-122.18"/></defs><g fill="none" fill-rule="evenodd"><path d="M249.088 124.48c0-67.478-54.713-122.18-122.203-122.18C59.393 2.3 4.68 57.002 4.68 124.48c0 67.477 54.713 122.178 122.205 122.178 67.49 0 122.203-54.7 122.203-122.178" fill="#B5332B"/><path d="M249.088 124.48c0-67.478-54.713-122.18-122.203-122.18v244.358c67.49 0 122.203-54.7 122.203-122.178" fill="#A22F26"/><g transform="translate(4.052 1.213)"><mask id="b" fill="#fff"><use xlink:href="#a"/></mask><path d="M122.833 213.402h-43.72s-20.18-19.503-10.09-48.42c10.09-28.915 18.834-40.345 19.506-71.278h34.303v119.698" fill="#472B1B" mask="url(#b)"/><path d="M121.703 213.402h43.72s20.18-19.503 10.09-48.42c-10.09-28.915-18.834-40.345-19.506-71.278h-34.304v119.698" fill="#472B1B" mask="url(#b)"/><path d="M140.727 194.842l-18.12 50.818-17.67-50.818v-39.234h35.79v39.234" fill="#E9C7AC" mask="url(#b)"/><path d="M140.727 188.167l-35.79-26.054v-6.505h35.79v32.56" fill="#CE9C88" mask="url(#b)"/><path d="M122.606 245.66v-48.87s-13.352-3.308-16.294-14.12c-1.414-5.196-1.374-9.368-1.374-9.368s-33.504 9.86-40.023 20.04c-5.42 16.14-6.91 52.318-6.91 52.318h64.6" fill="#E9C7AC" mask="url(#b)"/><path d="M122.606 245.66v-44.558s13.35-7.62 16.295-18.432c1.414-5.196 1.374-9.368 1.374-9.368s33.505 9.86 40.023 20.04c5.423 16.14 6.91 52.318 6.91 52.318h-64.6" fill="#CE9C88" mask="url(#b)"/><path d="M122.606 245.66v-44.558s-13.352-7.62-16.294-18.432c-1.414-5.196-1.374-9.368-1.374-9.368s-33.504 9.86-40.023 20.04c-5.42 16.14-6.91 52.318-6.91 52.318h64.6" fill="#FFCF06" mask="url(#b)"/><path d="M122.606 245.66v-44.558s13.35-7.62 16.295-18.432c1.414-5.196 1.864-9.22 1.864-9.22s33.015 9.71 39.533 19.893c5.423 16.14 6.91 52.317 6.91 52.317h-64.6" fill="#E5BB09" mask="url(#b)"/><path d="M176.318 80.605c0-29.535-23.947-53.477-53.485-53.477-29.54 0-53.487 23.942-53.487 53.477 0 29.53 23.948 53.472 53.487 53.472 29.538 0 53.485-23.94 53.485-53.472" fill="#472B1B" mask="url(#b)"/><path d="M122.833 50.045c-17.376 0-44.856 9.572-44.856 54.415 0 25.894 11.854 38.102 15.65 42.793 3.497 4.317 19.99 18.273 29.206 18.273V50.046" fill="#F1D6BB" mask="url(#b)"/><path d="M69.333 115.153c-.767-7.164 2.76-13.523 7.87-14.203 5.114-.68 9.88 4.58 10.646 11.743.766 7.165-2.76 13.522-7.872 14.2-5.114.68-9.878-4.576-10.645-11.74" fill="#F1D6BB" mask="url(#b)"/><path d="M122.69 50.045c17.377 0 44.856 9.572 44.856 54.415 0 25.894-11.854 38.102-15.653 42.793-3.492 4.317-19.988 18.273-29.202 18.273V50.046" fill="#EBC7A7" mask="url(#b)"/><path d="M176.33 115.153c.77-7.164-2.758-13.523-7.867-14.203-5.115-.68-9.88 4.58-10.646 11.743-.768 7.165 2.757 13.522 7.87 14.2 5.114.68 9.878-4.576 10.644-11.74" fill="#EBC7A7" mask="url(#b)"/><path d="M122.833 149.73c6.775 0 12.264-4.028 12.264-9h-24.53c0 4.972 5.492 9 12.266 9" fill="#FFF" mask="url(#b)"/><path d="M122.242 35.937c-.832-.107-1.702-.18-2.635-.187 0 0-29.35 2.196-37.517 40.413-3.922 2.94-11.11 14.374-1.635 27.113 1.306-10.778 5.257-18.586 12.09-21.56 12.12-5.27 17.114-.373 31.162-11.15 8.205-6.298 11.154-18.954 9.34-26.03-3.263-8.786-11.593-8.458-10.805-8.6" fill="#472B1B" mask="url(#b)"/><path d="M131.19 46.555s-10.577 39.46 35.612 55.982c11.066-36.12-9.152-59.683-35.612-55.982" fill="#472B1B" mask="url(#b)"/><path d="M142.016 111.48c0 1.983-1.608 3.592-3.594 3.592-1.985 0-3.594-1.61-3.594-3.593 0-1.985 1.61-3.595 3.594-3.595 1.986 0 3.594 1.61 3.594 3.594M110.835 111.48c0 1.983-1.608 3.592-3.594 3.592-1.984 0-3.593-1.61-3.593-3.593 0-1.985 1.61-3.595 3.594-3.595 1.987 0 3.595 1.61 3.595 3.594" fill="#482B1B" mask="url(#b)"/><path d="M81.597 125.787l-3.006 3.006-3.007-3.006 3.008-3.006 3.007 3.007M170.08 125.787l-3.006 3.006-3.008-3.006 3.008-3.006 3.006 3.007" fill="#472B1B" mask="url(#b)"/></g></g></svg>