<svg width="247" height="248" viewBox="0 0 247 248" xmlns="http://www.w3.org/2000/svg" xmlns:xlink="http://www.w3.org/1999/xlink"><title>img_profile_avatar_01</title><defs><path id="a" d="M247.604 123.887C247.604 55.84 192.43.674 124.366.674 56.306.674 1.13 55.84 1.13 123.887c0 68.05 55.175 123.216 123.236 123.216 68.064 0 123.238-55.165 123.238-123.216"/></defs><g fill="none" fill-rule="evenodd"><path d="M246.606 124.01C246.606 55.96 191.43.793 123.366.793 55.307.794.13 55.96.13 124.01c0 68.05 55.177 123.212 123.24 123.212 68.062 0 123.238-55.163 123.238-123.213" fill="#B5332B"/><path d="M246.606 124.01C246.606 55.96 191.43.793 123.366.793v246.428c68.064 0 123.24-55.163 123.24-123.213" fill="#A22F26"/><g transform="translate(-1 .12)"><mask id="b" fill="#fff"><use xlink:href="#a"/></mask><path d="M124.367 214.788h-44.09s-20.35-19.668-10.174-48.83c10.174-29.16 6.52-40.687 7.198-71.88h47.067v120.71" fill="#472B1B" mask="url(#b)"/><path d="M123.23 214.788h44.088s20.35-19.668 10.176-48.83c-10.176-29.16-2.365-40.687-3.042-71.88H123.23v120.71" fill="#472B1B" mask="url(#b)"/><path d="M142.414 196.07l-18.275 51.252-17.818-51.25v-39.568h36.092v39.567" fill="#C18148" mask="url(#b)"/><path d="M142.414 189.34l-36.092-26.273v-6.563h36.092v32.837" fill="#915324" mask="url(#b)"/><path d="M124.14 247.322v-44.936s-13.466-7.686-16.432-18.59c-1.427-5.24-1.386-9.446-1.386-9.446s-33.79 9.942-40.362 20.21c-5.468 16.277-6.97 52.762-6.97 52.762h65.15" fill="#C18148" mask="url(#b)"/><path d="M124.14 247.322v-44.936s13.462-7.686 16.432-18.59c1.424-5.24 1.385-9.446 1.385-9.446s33.79 9.942 40.362 20.21c5.466 16.277 6.97 52.762 6.97 52.762h-65.15" fill="#C18148" mask="url(#b)"/><path d="M124.14 247.322v-36.24s-13.466-16.382-16.432-27.286c-1.427-5.24-1.386-9.446-1.386-9.446s-33.79 9.942-40.362 20.21c-5.468 16.277-6.97 52.762-6.97 52.762h65.15" fill="#1BC9B4" mask="url(#b)"/><path d="M124.14 247.322v-36.24S137.6 194.7 140.57 183.797c1.424-5.24 1.88-9.3 1.88-9.3s33.295 9.796 39.867 20.063c5.466 16.277 6.97 52.762 6.97 52.762h-65.15" fill="#12B2A3" mask="url(#b)"/><path d="M178.306 80.866c0-29.785-24.15-53.928-53.94-53.928-29.788 0-53.938 24.143-53.938 53.928 0 29.782 24.15 53.926 53.94 53.926 29.788 0 53.938-24.144 53.938-53.926" fill="#472B1B" mask="url(#b)"/><path d="M124.367 50.05c-17.523 0-45.235 9.65-45.235 54.873 0 26.113 11.954 38.425 15.783 43.158 3.525 4.354 20.16 18.428 29.452 18.428V50.048" fill="#C18148" mask="url(#b)"/><path d="M70.414 115.708c-.773-7.226 2.782-13.64 7.936-14.323 5.16-.686 9.964 4.617 10.737 11.843.773 7.223-2.782 13.635-7.937 14.32-5.157.685-9.962-4.616-10.736-11.84" fill="#C18148" mask="url(#b)"/><path d="M124.225 50.05c17.523 0 45.235 9.65 45.235 54.873 0 26.113-11.954 38.425-15.785 43.158-3.523 4.354-20.158 18.428-29.45 18.428V50.048" fill="#AA6A35" mask="url(#b)"/><path d="M178.32 115.708c.773-7.226-2.782-13.64-7.935-14.323-5.16-.686-9.965 4.617-10.738 11.843-.773 7.223 2.782 13.635 7.938 14.32 5.157.685 9.962-4.616 10.735-11.84" fill="#AA6A35" mask="url(#b)"/><path d="M124.367 150.58c6.832 0 12.37-4.063 12.37-9.077h-24.738c0 5.014 5.535 9.076 12.367 9.076" fill="#FFF" mask="url(#b)"/><path d="M126.68 36.604c-.84-.107-4.624-.964-5.565-.973 0 0-29.6 2.216-37.836 40.758-3.955 2.964-11.203 14.496-1.648 27.34-1.79-7.727 7.527-28.182 8.074-28.39.702-.268 1.37 3.93 2.036 4.11 6.533 1.78 18.555 2.45 32.483 2.45l2.456-45.294" fill="#472B1B" mask="url(#b)"/><path d="M121.77 36.604c.838-.107 4.624-.964 5.563-.973 0 0 29.6 2.216 37.837 40.758 3.954 2.964 11.202 14.496 1.648 27.34-1.318-10.868-7.53-28.182-8.076-28.39-.7-.268-1.37 3.93-2.035 4.11-6.532 1.78-18.556 2.45-32.482 2.45l-2.456-45.294" fill="#472B1B" mask="url(#b)"/><path d="M143.714 112.002c0 2.002-1.622 3.624-3.624 3.624-2.003 0-3.625-1.622-3.625-3.624 0-2 1.622-3.624 3.625-3.624 2.002 0 3.624 1.623 3.624 3.624M112.27 112.002c0 2.002-1.625 3.624-3.626 3.624-2.002 0-3.624-1.622-3.624-3.624 0-2 1.622-3.624 3.624-3.624 2 0 3.625 1.623 3.625 3.624" fill="#482B1B" mask="url(#b)"/><path d="M82.783 126.43l-3.032 3.034-3.032-3.033 3.033-3.03 3.033 3.03M172.016 126.43l-3.032 3.034-3.033-3.033 3.034-3.03 3.032 3.03" fill="#FF8B00" mask="url(#b)"/></g></g></svg>