<svg width="249" height="249" viewBox="0 0 249 249" xmlns="http://www.w3.org/2000/svg" xmlns:xlink="http://www.w3.org/1999/xlink"><title>Imported Layers</title><defs><path id="a" d="M249.81 124.703C249.81 56.073 194.178.436 125.545.436 56.914.436 1.28 56.072 1.28 124.703c0 68.632 55.635 124.27 124.264 124.27 68.633 0 124.267-55.638 124.267-124.27"/></defs><g fill="none" fill-rule="evenodd"><path d="M248.813 124.705C248.813 56.073 193.177.437 124.545.437 55.915.437.278 56.073.278 124.705c0 68.63 55.637 124.267 124.267 124.267 68.632 0 124.268-55.636 124.268-124.267" fill="#7A2CB7"/><path d="M248.813 124.705C248.813 56.073 193.177.437 124.545.437v248.535c68.632 0 124.268-55.636 124.268-124.267" fill="#7027A0"/><g transform="translate(-1)"><mask id="b" fill="#fff"><use xlink:href="#a"/></mask><path d="M125 193.585s37.225 6.598 40.937.184c1.712-2.957.268-26.54 3.41-51.597 2.56-20.395 9.007-59.278 9.007-59.278H125v110.69" fill="#F9A11C" mask="url(#b)"/><path d="M125.545 193.585s-37.223 6.598-40.935.184c-1.712-2.957-.266-26.54-3.41-51.597-2.56-20.395-8.463-59.278-8.463-59.278h52.808v110.69" fill="#F9A11C" mask="url(#b)"/><path d="M143.743 197.504l-18.427 51.69-17.967-51.69V157.6h36.393v39.904" fill="#E9C7AC" mask="url(#b)"/><path d="M143.743 190.715l-36.394-26.5V157.6h36.393v33.115" fill="#CE9C88" mask="url(#b)"/><path d="M125.316 249.193v-49.708s-13.578-3.365-16.57-14.36c-1.438-5.286-1.397-9.53-1.397-9.53s-34.072 10.03-40.7 20.385c-5.513 16.415-7.027 53.213-7.027 53.213h65.693" fill="#E9C7AC" mask="url(#b)"/><path d="M125.316 249.193v-36.55s13.574-16.523 16.57-27.52c1.437-5.284 1.396-9.527 1.396-9.527s34.072 10.028 40.7 20.384c5.514 16.415 7.027 53.213 7.027 53.213h-65.694" fill="#CE9C88" mask="url(#b)"/><path d="M125.316 249.193v-36.55s13.574-16.523 16.57-27.52c1.437-5.284 1.895-9.377 1.895-9.377s4.97 1.462 11.466 3.85c0 0 19.5 42.99 19.5 69.597h-49.43" fill="#A22F26" mask="url(#b)"/><path d="M125.316 249.193v-36.55s-13.575-16.523-16.57-27.52c-1.436-5.284-1.397-9.527-1.397-9.527s-5.47 1.612-11.964 4c0 0-19.5 42.99-19.5 69.597h49.43" fill="#B5332B" mask="url(#b)"/><path d="M178.354 82.895c0-29.167-23.643-52.81-52.81-52.81-29.162 0-52.807 23.643-52.807 52.81 0 29.165 23.645 52.807 52.808 52.807 29.166 0 52.81-23.642 52.81-52.807" fill="#F9A11C" mask="url(#b)"/><path d="M125.545 50.232c-17.67 0-45.612 9.734-45.612 55.345 0 26.335 12.054 38.753 15.915 43.525 3.554 4.39 20.327 18.585 29.697 18.585V50.232" fill="#F1D6BB" mask="url(#b)"/><path d="M71.142 116.453c-.78-7.288 2.805-13.754 8.003-14.446 5.2-.69 10.047 4.657 10.826 11.945.78 7.286-2.805 13.75-8.002 14.444-5.2.69-10.045-4.658-10.826-11.943" fill="#F1D6BB" mask="url(#b)"/><path d="M125.402 50.232c17.67 0 45.613 9.734 45.613 55.345 0 26.335-12.054 38.753-15.917 43.525-3.55 4.39-20.326 18.585-29.696 18.585V50.232" fill="#EBC7A7" mask="url(#b)"/><path d="M179.95 116.453c.78-7.288-2.807-13.754-8.003-14.446-5.2-.69-10.048 4.657-10.827 11.945-.78 7.286 2.805 13.75 8.004 14.444 5.2.69 10.046-4.658 10.825-11.943" fill="#EBC7A7" mask="url(#b)"/><path d="M125.545 151.623c6.89 0 12.473-4.097 12.473-9.154h-24.943c0 5.056 5.58 9.153 12.47 9.153" fill="#FFF" mask="url(#b)"/><path d="M124.946 35.883c-.847-.108-1.73-.183-2.68-.19 0 0-29.846 2.234-38.152 41.105-3.987 2.99-11.668 30.872 8.04 45.89-1.474-4.934-5.555-30.306 9.285-36.44 12.42-5.135 15.415-2.453 29.08-11.913 8.648-5.987 7.256-22.51 5.413-29.705-3.32-8.937-11.79-8.604-10.987-8.747" fill="#F9A11C" mask="url(#b)"/><path d="M125.196 45.21c-10.978 53.346 41.105 43.843 44.03 80.147 25.584-33.14-9.81-84.885-44.03-80.146" fill="#F9A11C" mask="url(#b)"/><path d="M145.054 112.716c0 1.72-1.636 3.113-3.655 3.113-2.02 0-3.656-1.394-3.656-3.114s1.636-3.114 3.655-3.114c2.018 0 3.654 1.395 3.654 3.114M113.346 112.716c0 1.72-1.635 3.113-3.654 3.113-2.02 0-3.655-1.394-3.655-3.114s1.636-3.114 3.655-3.114c2.02 0 3.654 1.395 3.654 3.114" fill="#482B1B" mask="url(#b)"/></g></g></svg>