<svg width="255" height="255" viewBox="0 0 255 255" xmlns="http://www.w3.org/2000/svg" xmlns:xlink="http://www.w3.org/1999/xlink"><title>img_profile_avatar_05</title><defs><path id="a" d="M246.956 123.888c0-68.05-55.174-123.214-123.24-123.214C55.657.674.482 55.84.482 123.888c0 68.05 55.177 123.216 123.237 123.216 68.065 0 123.24-55.166 123.24-123.216"/></defs><g fill="none" fill-rule="evenodd"><path d="M251.13 125.77c0-68.05-55.175-123.213-123.238-123.213C59.83 2.557 4.652 57.72 4.652 125.77s55.178 123.216 123.24 123.216c68.063 0 123.24-55.165 123.24-123.215" fill="#FF8B00"/><path d="M251.13 125.77c0-68.05-55.175-123.213-123.238-123.213v246.43c68.063 0 123.24-55.166 123.24-123.216" fill="#E57700"/><g transform="translate(4.173 1.88)"><mask id="b" fill="#fff"><use xlink:href="#a"/></mask><path d="M123.18 192.186s36.915 6.542 40.596.183c1.698-2.932.266-26.314 3.383-51.16 2.536-20.222 8.93-58.776 8.93-58.776h-52.91v109.752" fill="#472B1B" mask="url(#b)"/><path d="M123.72 192.186s-36.917 6.542-40.598.183c-1.698-2.932-.264-26.314-3.383-51.16-2.538-20.222-8.393-58.776-8.393-58.776h52.372v109.752" fill="#472B1B" mask="url(#b)"/><path d="M141.766 196.073l-18.275 51.25-17.816-51.25v-39.567h36.092v39.567" fill="#E9C7AC" mask="url(#b)"/><path d="M141.766 189.34l-36.092-26.273v-6.56h36.092v32.834" fill="#CE9C88" mask="url(#b)"/><path d="M123.49 247.323v-49.286s-13.464-3.337-16.43-14.24c-1.427-5.24-1.386-9.447-1.386-9.447s-33.79 9.943-40.362 20.21c-5.468 16.277-6.97 52.763-6.97 52.763h65.15" fill="#E9C7AC" mask="url(#b)"/><path d="M123.49 247.323v-36.24s13.463-16.383 16.434-27.285c1.425-5.24 1.385-9.448 1.385-9.448s33.79 9.943 40.36 20.21c5.47 16.277 6.97 52.763 6.97 52.763h-65.15" fill="#CE9C88" mask="url(#b)"/><path d="M123.49 247.323v-36.24s13.463-16.383 16.434-27.285c1.425-5.24 1.88-9.3 1.88-9.3s4.93 1.45 11.37 3.82c0 0 19.338 42.623 19.338 69.005h-49.02" fill="#A22F26" mask="url(#b)"/><path d="M123.49 247.323v-36.24s-13.46-16.383-16.432-27.285c-1.424-5.24-1.384-9.448-1.384-9.448s-5.424 1.598-11.865 3.967c0 0-19.338 42.624-19.338 69.006h49.02" fill="#B5332B" mask="url(#b)"/><path d="M176.09 82.434c0-28.92-23.447-52.36-52.37-52.36s-52.373 23.44-52.373 52.36c0 28.918 23.45 52.36 52.372 52.36 28.923 0 52.37-23.442 52.37-52.36" fill="#472B1B" mask="url(#b)"/><path d="M123.72 50.05c-17.524 0-45.236 9.65-45.236 54.875 0 26.11 11.954 38.423 15.783 43.156 3.526 4.354 20.16 18.428 29.452 18.428V50.048" fill="#F1D6BB" mask="url(#b)"/><path d="M69.766 115.708c-.773-7.226 2.782-13.637 7.936-14.323 5.16-.684 9.964 4.617 10.737 11.843.773 7.225-2.784 13.635-7.938 14.322-5.157.684-9.962-4.617-10.736-11.842" fill="#F1D6BB" mask="url(#b)"/><path d="M123.577 50.05c17.523 0 45.235 9.65 45.235 54.875 0 26.11-11.955 38.423-15.785 43.156-3.522 4.354-20.158 18.428-29.45 18.428V50.048" fill="#EBC7A7" mask="url(#b)"/><path d="M177.672 115.708c.774-7.226-2.782-13.637-7.935-14.323-5.16-.684-9.964 4.617-10.738 11.843-.774 7.225 2.78 13.635 7.937 14.322 5.157.684 9.962-4.617 10.735-11.842" fill="#EBC7A7" mask="url(#b)"/><path d="M123.72 150.58c6.83 0 12.368-4.062 12.368-9.077H111.35c0 5.015 5.537 9.077 12.37 9.077" fill="#FFF" mask="url(#b)"/><path d="M123.124 35.82c-.84-.106-1.716-.18-2.657-.19 0 0-29.6 2.218-37.835 40.76-3.955 2.964-10.17 25.218 3.172 37.733-1.46-4.893-7.346-26.054 7.37-32.135 12.32-5.09 17.26-.377 31.428-11.246 8.274-6.35 11.248-19.115 9.418-26.248-3.29-8.863-11.692-8.53-10.896-8.673" fill="#472B1B" mask="url(#b)"/><path d="M123.372 45.07c-10.887 52.892 40.765 43.47 43.665 79.466 25.373-32.858-9.727-84.165-43.665-79.467" fill="#472B1B" mask="url(#b)"/><path d="M143.066 112.003c0 1.705-1.622 3.086-3.625 3.086-2 0-3.623-1.382-3.623-3.087 0-1.704 1.622-3.087 3.624-3.087 2.004 0 3.626 1.383 3.626 3.087M111.62 112.003c0 1.705-1.62 3.086-3.624 3.086-2.002 0-3.624-1.382-3.624-3.087 0-1.704 1.622-3.087 3.624-3.087 2.003 0 3.625 1.383 3.625 3.087" fill="#482B1B" mask="url(#b)"/></g></g></svg>