<svg width="128" height="128" viewBox="0 0 128 128" xmlns="http://www.w3.org/2000/svg" xmlns:xlink="http://www.w3.org/1999/xlink"><title>Imported Layers</title><defs><path id="a" d="M127.79 64.047c0-35.14-28.484-63.625-63.624-63.625C29.028.422.543 28.908.543 64.047c0 35.14 28.485 63.625 63.623 63.625 35.14 0 63.625-28.485 63.625-63.625"/></defs><g fill="none" fill-rule="evenodd"><path d="M127.792 64.048c0-35.14-28.486-63.625-63.625-63.625C29.027.423.542 28.91.542 64.048c0 35.14 28.486 63.624 63.625 63.624 35.14 0 63.625-28.485 63.625-63.624" fill="#FF8B00"/><path d="M127.792 64.048c0-35.14-28.486-63.625-63.625-63.625v127.25c35.14 0 63.625-28.486 63.625-63.625" fill="#E57700"/><g><mask id="b" fill="#fff"><use xlink:href="#a"/></mask><path d="M73.484 101.32l-9.435 26.465-9.2-26.464V80.89h18.634v20.43" fill="#EFCEA3" mask="url(#b)"/><path d="M73.484 97.845L54.85 84.278V80.89h18.634v16.955" fill="#DBB27B" mask="url(#b)"/><path d="M64.05 127.785v-25.45s-6.952-1.723-8.484-7.352c-.736-2.707-.715-4.878-.715-4.878s-17.444 5.133-20.837 10.436c-2.823 8.406-3.598 27.245-3.598 27.245H64.05M64.05 127.785v-25.45s7.25-1.723 8.784-7.352c.736-2.707.67-4.802.67-4.802 0 .002 17.19 5.058 20.582 10.36 2.823 8.406 3.598 27.245 3.598 27.245H64.05" fill="#EFCEA3" mask="url(#b)"/><path d="M64.05 127.785V104.58s-6.952-3.968-8.484-9.598c-.736-2.706-.715-4.877-.715-4.877s-17.444 5.133-20.837 10.435c-2.823 8.405-3.598 27.245-3.598 27.245H64.05" fill="#B5332B" mask="url(#b)"/><path d="M64.05 127.785V104.58s6.95-3.968 8.483-9.598c.735-2.706.97-4.802.97-4.802s17.19 5.058 20.583 10.36c2.823 8.405 3.598 27.245 3.598 27.245H64.05" fill="#A22F26" mask="url(#b)"/><path d="M72.292 15.11c0-4.854-3.936-8.79-8.79-8.79-4.856 0-8.793 3.936-8.793 8.79 0 4.857 3.936 8.792 8.79 8.792 4.856 0 8.792-3.935 8.792-8.79" fill="#3F3F3F" mask="url(#b)"/><path d="M92.015 41.832c0-15.38-12.47-27.848-27.848-27.848-15.38 0-27.847 12.468-27.847 27.848 0 15.38 12.467 27.846 27.847 27.846s27.848-12.466 27.848-27.846" fill="#3F3F3F" mask="url(#b)"/><path d="M64.167 25.918c-9.047 0-23.354 4.984-23.354 28.337 0 13.483 6.172 19.84 8.15 22.285 1.82 2.248 10.407 9.515 15.204 9.515V25.918" fill="#EFCEA3" mask="url(#b)"/><path d="M36.312 59.823c-.4-3.73 1.437-7.042 4.098-7.396 2.663-.354 5.144 2.384 5.543 6.115.4 3.73-1.437 7.04-4.098 7.396-2.662.353-5.143-2.384-5.543-6.115" fill="#EFCEA3" mask="url(#b)"/><path d="M64.094 25.918c9.046 0 23.353 4.984 23.353 28.337 0 13.483-6.17 19.84-8.15 22.285-1.818 2.248-10.406 9.515-15.203 9.515V25.918" fill="#EDC68C" mask="url(#b)"/><path d="M92.022 59.823c.398-3.73-1.437-7.042-4.097-7.396-2.664-.354-5.145 2.384-5.544 6.115-.398 3.73 1.438 7.04 4.1 7.396 2.662.353 5.143-2.384 5.542-6.115" fill="#EDC68C" mask="url(#b)"/><path d="M64.167 77.83c3.527 0 6.386-2.097 6.386-4.687h-12.77c0 2.59 2.857 4.687 6.384 4.687" fill="#FFF" mask="url(#b)"/><path d="M74.155 57.91c0 .727-.837 1.317-1.87 1.317-1.035 0-1.872-.59-1.872-1.317s.837-1.318 1.87-1.318c1.035 0 1.872.59 1.872 1.318M57.92 57.91c0 .727-.836 1.317-1.87 1.317-1.034 0-1.872-.59-1.872-1.317s.838-1.318 1.872-1.318c1.034 0 1.87.59 1.87 1.318" fill="#482B1B" mask="url(#b)"/><path d="M64.61 19.32c-.435-.056-.888-.094-1.374-.098 0 0-15.28 1.144-19.533 21.046-2.042 1.53-4.292 15.184 2.053 18.034-2.15-4.73.424-15.03 3.314-17.302 4.06-3.194 6.555-5.23 15.097-5.23 5.386 0 7.01-8.287 6.067-11.972-1.7-4.576-6.036-4.405-5.625-4.478" fill="#DBB27B" mask="url(#b)"/><path d="M63.86 18.57c-.433-.054-.886-.092-1.372-.097 0 0-15.28 1.145-19.533 21.047-2.042 1.53-4.96 14.505 1.386 17.355-2.15-4.732.482-14.824 3.723-16.955 4.315-2.838 7.34-4.14 15.883-4.14 5.386 0 6.483-9.046 5.54-12.73-1.7-4.577-6.037-4.405-5.626-4.48" fill="#D3D3D3" mask="url(#b)"/><path d="M64.786 18.57c.433-.054.886-.092 1.37-.097 0 0 15.283 1.145 19.535 21.047 2.043 1.53 5.785 7.484.852 14.118-.68-5.613-2.718-11.587-5.96-13.718-4.315-2.838-8.094-4.14-16.636-4.14-5.385 0-5.73-9.046-4.785-12.73 1.7-4.577 6.036-4.405 5.626-4.48" fill="#3F3F3F" mask="url(#b)"/><path d="M88.452 65.296c0 .69-.56 1.248-1.248 1.248-.69 0-1.248-.56-1.248-1.248 0-.69.56-1.248 1.248-1.248.69 0 1.248.558 1.248 1.248M42.254 65.296c0 .69-.558 1.248-1.248 1.248s-1.247-.56-1.247-1.248c0-.69.557-1.248 1.246-1.248.69 0 1.248.558 1.248 1.248" fill="#F9E103" mask="url(#b)"/></g></g></svg>