<svg width="253" height="253" viewBox="0 0 253 253" xmlns="http://www.w3.org/2000/svg" xmlns:xlink="http://www.w3.org/1999/xlink"><title>img_profile_avatar_10</title><defs><path id="a" d="M245.035 122.245c0-67.478-54.712-122.18-122.205-122.18C55.342.066.63 54.768.63 122.246c0 67.48 54.712 122.18 122.2 122.18 67.493 0 122.205-54.7 122.205-122.18"/></defs><g fill="none" fill-rule="evenodd"><path d="M249.087 124.128c0-67.477-54.712-122.18-122.202-122.18C59.393 1.95 4.68 56.652 4.68 124.13c0 67.478 54.713 122.178 122.205 122.178 67.49 0 122.202-54.7 122.202-122.178" fill="#7A2CB7"/><path d="M249.087 124.128c0-67.477-54.712-122.18-122.202-122.18v244.358c67.49 0 122.202-54.7 122.202-122.178" fill="#7027A0"/><g transform="translate(4.052 1.88)"><mask id="b" fill="#fff"><use xlink:href="#a"/></mask><path d="M140.727 193.823l-18.12 50.818-17.67-50.817v-39.235h35.79v39.235" fill="#C18148" mask="url(#b)"/><path d="M140.727 187.147l-35.79-26.053v-6.506h35.79v32.56" fill="#915324" mask="url(#b)"/><path d="M122.606 244.64v-48.868s-13.352-3.31-16.294-14.123c-1.414-5.197-1.374-9.366-1.374-9.366s-33.504 9.857-40.023 20.04c-5.42 16.14-6.91 52.317-6.91 52.317h64.6M122.606 244.64v-48.868s13.928-3.31 16.874-14.123c1.412-5.197 1.284-9.22 1.284-9.22s33.015 9.71 39.533 19.894c5.423 16.14 6.91 52.317 6.91 52.317h-64.6" fill="#C18148" mask="url(#b)"/><path d="M138.012 185.157l6.412 4.663 4.795-14.616c-4.946-1.74-8.456-2.774-8.456-2.774s-3.16 1.554-4.572 6.75c-.346 1.273 1.82 5.977 1.82 5.977" fill="#915324" mask="url(#b)"/><path d="M100.513 184.984c-1.23-4.52-1.648-8.455-1.79-10.704-10.008 3.388-29.06 10.628-33.808 18.044-5.42 16.14-6.91 52.317-6.91 52.317h64.6v-40.508s-18.103-4.488-22.092-19.148" fill="#6C9525" mask="url(#b)"/><path d="M180.297 192.324c-4.7-7.34-23.17-14.438-33.112-17.824-.112 2.203-.486 6.02-1.7 10.484-3.993 14.66-22.88 19.148-22.88 19.148v40.51h64.603s-1.488-36.178-6.91-52.318" fill="#678D23" mask="url(#b)"/><path d="M127.178 211.224c2.907.96 20.53-8.11 24.59-15.93 4.464-8.595 3.98-17.658 3.983-17.668-3.148-1.232-6.117-2.293-8.565-3.126-.112 2.203-.486 6.02-1.7 10.484-3.993 14.66-22.88 19.148-22.88 19.148s2.574 6.434 4.573 7.092M89.46 177.652c-.01.282-.41 9.18 3.984 17.64 4.06 7.82 21.684 16.89 24.59 15.932 1.998-.658 4.572-7.092 4.572-7.092s-18.104-4.488-22.093-19.148c-1.23-4.52-1.648-8.455-1.79-10.704-.754.257-1.63.56-2.565.887-2.045.72-4.32 1.555-6.697 2.485" fill="#E2E2E2" mask="url(#b)"/><path d="M138.436 28.273c0-9.324-7.56-16.88-16.884-16.88-9.325 0-16.886 7.556-16.886 16.88 0 9.324 7.56 16.88 16.886 16.88 9.325 0 16.884-7.556 16.884-16.88" fill="#D3D3D3" mask="url(#b)"/><path d="M176.318 79.584c0-29.533-23.947-53.475-53.485-53.475-29.54 0-53.487 23.94-53.487 53.474 0 29.533 23.948 53.475 53.487 53.475 29.538 0 53.485-23.943 53.485-53.476" fill="#D3D3D3" mask="url(#b)"/><path d="M122.833 49.026c-17.376 0-44.856 9.57-44.856 54.415 0 25.893 11.854 38.102 15.65 42.794 3.497 4.318 19.99 18.273 29.206 18.273V49.027" fill="#C18148" mask="url(#b)"/><path d="M69.333 114.134c-.767-7.166 2.76-13.523 7.87-14.203 5.114-.68 9.88 4.58 10.646 11.744s-2.76 13.52-7.872 14.2c-5.114.68-9.878-4.576-10.645-11.74" fill="#C18148" mask="url(#b)"/><path d="M122.69 49.026c17.377 0 44.856 9.57 44.856 54.415 0 25.893-11.854 38.102-15.653 42.794-3.492 4.318-19.988 18.273-29.202 18.273V49.027" fill="#AA6A35" mask="url(#b)"/><path d="M176.33 114.134c.77-7.166-2.758-13.523-7.867-14.203-5.115-.68-9.88 4.58-10.646 11.744-.768 7.164 2.757 13.52 7.87 14.2 5.114.68 9.878-4.576 10.644-11.74" fill="#AA6A35" mask="url(#b)"/><path d="M122.833 148.712c6.773 0 12.264-4.027 12.264-9h-24.53c0 4.973 5.492 9 12.266 9" fill="#FFF" mask="url(#b)"/><path d="M142.016 110.46c0 1.983-1.608 3.593-3.594 3.593-1.985 0-3.594-1.61-3.594-3.593 0-1.984 1.61-3.594 3.594-3.594 1.986 0 3.594 1.61 3.594 3.594M110.835 110.46c0 1.983-1.608 3.593-3.594 3.593-1.984 0-3.593-1.61-3.593-3.593 0-1.984 1.61-3.594 3.594-3.594 1.987 0 3.595 1.61 3.595 3.594" fill="#482B1B" mask="url(#b)"/><path d="M122.242 34.918c-.832-.107-1.702-.18-2.635-.19 0 0-29.35 2.2-37.517 40.417-3.922 2.94-9.523 27.855 2.663 33.327-4.13-9.086.923-28.465 7.148-32.56 8.29-5.448 14.1-7.95 30.51-7.95 10.342 0 12.45-17.37 10.636-24.444-3.262-8.79-11.593-8.46-10.804-8.6" fill="#D3D3D3" mask="url(#b)"/><path d="M124.02 34.918c.833-.107 1.703-.18 2.636-.19 0 0 29.35 2.2 37.517 40.417 3.922 2.94 11.11 14.373 1.634 27.11-1.305-10.778-5.22-22.248-11.445-26.342-8.288-5.45-15.546-7.952-31.953-7.952-10.345 0-11.008-17.367-9.194-24.442 3.264-8.79 11.594-8.46 10.805-8.6" fill="#D3D3D3" mask="url(#b)"/><path d="M169.475 124.643c0 1.324-1.073 2.396-2.397 2.396-1.324 0-2.396-1.073-2.396-2.397 0-1.324 1.072-2.396 2.396-2.396 1.324 0 2.397 1.072 2.397 2.396M80.744 124.643c0 1.324-1.072 2.396-2.396 2.396-1.324 0-2.397-1.073-2.397-2.397 0-1.324 1.074-2.396 2.398-2.396s2.396 1.072 2.396 2.396" fill="#F9E103" mask="url(#b)"/></g></g></svg>