<svg width="128" height="128" viewBox="0 0 128 128" xmlns="http://www.w3.org/2000/svg" xmlns:xlink="http://www.w3.org/1999/xlink"><title>Imported Layers</title><defs><path id="a" d="M127.458 63.8c0-35.14-28.486-63.626-63.625-63.626C28.693.174.21 28.66.21 63.8c0 35.14 28.484 63.624 63.623 63.624 35.14 0 63.625-28.485 63.625-63.625"/></defs><g fill="none" fill-rule="evenodd"><path d="M127.46 63.8C127.46 28.66 98.97.175 63.833.175 28.694.175.21 28.66.21 63.8c0 35.14 28.484 63.624 63.624 63.624 35.138 0 63.625-28.484 63.625-63.624" fill="#FF8B00"/><path d="M127.46 63.8C127.46 28.66 98.97.175 63.833.175v127.25c35.138 0 63.625-28.485 63.625-63.625" fill="#E57700"/><g><mask id="b" fill="#fff"><use xlink:href="#a"/></mask><path d="M73.15 101.073l-9.434 26.464-9.2-26.464v-20.43H73.15v20.43" fill="#E9C7AC" mask="url(#b)"/><path d="M73.15 97.597L54.517 84.03v-3.388H73.15v16.955" fill="#CE9C88" mask="url(#b)"/><path d="M63.834 19.266C49.44 14.44 40.98 22.336 38.89 32.406c-1.03 4.97 0 20.296 0 20.296 4.094 9.434 13.72 16.06 24.944 16.06 11.094 0 20.623-6.475 24.795-15.737 0 0 1.098-15.823 0-20.943-2.135-9.93-9.945-7.838-24.796-12.816" fill="#482B1B" mask="url(#b)"/><path d="M63.834 25.67c-9.047 0-23.354 4.984-23.354 28.337 0 13.483 3.926 20.59 5.902 23.033 1.82 2.248 12.654 8.766 17.452 8.766V25.67" fill="#F1D6BB" mask="url(#b)"/><path d="M35.98 59.575c-.4-3.73 1.436-7.042 4.096-7.396 2.663-.355 5.145 2.383 5.544 6.115.4 3.73-1.437 7.04-4.1 7.394-2.66.354-5.142-2.385-5.54-6.115" fill="#F1D6BB" mask="url(#b)"/><path d="M63.76 25.67c9.047 0 23.353 4.984 23.353 28.337 0 13.483-3.926 20.59-5.903 23.033-1.82 2.248-12.653 8.766-17.45 8.766V25.67" fill="#EBC7A7" mask="url(#b)"/><path d="M91.688 59.575c.4-3.73-1.436-7.042-4.097-7.396-2.662-.355-5.143 2.383-5.542 6.115-.4 3.73 1.436 7.04 4.097 7.394 2.663.354 5.144-2.385 5.543-6.115" fill="#EBC7A7" mask="url(#b)"/><path d="M63.834 77.582c3.527 0 6.385-2.098 6.385-4.687H57.447c0 2.59 2.86 4.687 6.386 4.687" fill="#FFF" mask="url(#b)"/><path d="M73.822 57.662c0 1.033-.838 1.87-1.872 1.87-1.033 0-1.87-.837-1.87-1.87 0-1.034.837-1.87 1.87-1.87 1.034 0 1.872.836 1.872 1.87M57.587 57.662c0 1.033-.837 1.87-1.87 1.87-1.035 0-1.872-.837-1.872-1.87 0-1.034.837-1.87 1.87-1.87 1.035 0 1.872.836 1.872 1.87M87.693 51.436s-2.058 2.245-2.245 5.052h-2.06s.907-11.377-2.64-13.98c-3.545-2.605-6.622.046-16.988.046l-1.497-18.908 19.442 2.807 6.924 18.9-.937 6.083" fill="#482B1B" mask="url(#b)"/><path d="M39.826 51.436s2.058 2.245 2.246 5.052h2.058s-1.324-11.534 2.22-14.137c3.547-2.603 7.043.204 17.41.204l1.497-18.908-19.443 2.807-6.924 18.9.936 6.083" fill="#482B1B" mask="url(#b)"/><path d="M63.716 127.537V100.47s-7.144-.106-8.676-5.736c-.737-2.706-.523-4.877-.523-4.877S37.073 94.99 33.68 100.292c-2.824 8.405-3.6 27.245-3.6 27.245h33.636" fill="#5A4980" mask="url(#b)"/><path d="M63.716 127.537V100.47s7.194-.106 8.728-5.736c.735-2.706.706-4.807.706-4.807s17.21 5.062 20.602 10.365c2.824 8.405 3.598 27.245 3.598 27.245H63.716" fill="#534378" mask="url(#b)"/><path d="M52.008 90.652c-.015 1.06.065 3.07.697 5.394 1.944 7.145 11.01 7.28 11.01 7.28s9.13-.135 11.076-7.28c.63-2.32.818-4.287.874-5.32-1.533-.51-2.514-.8-2.514-.8s.03 2.102-.706 4.808c-1.534 5.63-8.728 5.736-8.728 5.736s-7.144-.106-8.676-5.736c-.737-2.706-.523-4.877-.523-4.877s-.98.29-2.51.795" fill="#482B1B" mask="url(#b)"/></g></g></svg>