<svg width="253" height="253" viewBox="0 0 253 253" xmlns="http://www.w3.org/2000/svg" xmlns:xlink="http://www.w3.org/1999/xlink"><title>img_profile_avatar_06</title><defs><path id="a" d="M245.035 122.847c0-67.478-54.712-122.18-122.203-122.18C55.342.668.632 55.37.632 122.848c0 67.477 54.71 122.18 122.2 122.18 67.49 0 122.203-54.703 122.203-122.18"/></defs><g fill="none" fill-rule="evenodd"><path d="M249.088 124.73c0-67.478-54.713-122.18-122.203-122.18C59.393 2.55 4.68 57.253 4.68 124.73c0 67.477 54.713 122.178 122.205 122.178 67.49 0 122.203-54.7 122.203-122.178" fill="#1E88E6"/><path d="M249.088 124.73c0-67.478-54.713-122.18-122.203-122.18V246.91c67.49 0 122.203-54.7 122.203-122.178" fill="#1976D3"/><g transform="translate(4.052 1.88)"><mask id="b" fill="#fff"><use xlink:href="#a"/></mask><path d="M140.727 194.424l-18.12 50.82-17.67-50.82V155.19h35.79v39.234" fill="#E9C7AC" mask="url(#b)"/><path d="M140.727 187.748l-35.79-26.053v-6.506h35.79v32.558" fill="#CE9C88" mask="url(#b)"/><path d="M122.606 245.243v-48.87s-13.352-3.31-16.294-14.12c-1.414-5.198-1.374-9.368-1.374-9.368s-33.504 9.858-40.023 20.04c-5.42 16.14-6.91 52.318-6.91 52.318h64.6" fill="#E9C7AC" mask="url(#b)"/><path d="M122.606 245.243v-48.87s13.35-3.31 16.295-14.12c1.414-5.198 1.374-9.368 1.374-9.368s33.505 9.858 40.023 20.04c5.423 16.14 6.91 52.318 6.91 52.318h-64.6" fill="#CE9C88" mask="url(#b)"/><path d="M122.606 245.243v-48.87s-20.73-3.433-23.208-21.72c-9.802 3.283-29.63 10.69-34.483 18.27-5.42 16.142-6.91 52.32-6.91 52.32h64.6" fill="#F9A11C" mask="url(#b)"/><path d="M122.606 245.243v-48.87s20.13-2.24 23.874-21.497c10.008 3.39 29.07 10.633 33.817 18.048 5.423 16.14 6.91 52.32 6.91 52.32h-64.6" fill="#F68D1F" mask="url(#b)"/><path d="M174.533 82.05c0-27.662-23.15-50.088-51.7-50.088-28.553 0-51.7 22.426-51.7 50.087 0 27.66 23.147 50.086 51.7 50.086 28.55 0 51.7-22.425 51.7-50.087" fill="#482B1B" mask="url(#b)"/><path d="M122.833 49.628c-17.376 0-44.856 9.57-44.856 54.415 0 25.892 7.54 39.538 11.337 44.23 3.497 4.317 24.303 16.834 33.52 16.834V49.627" fill="#F1D6BB" mask="url(#b)"/><path d="M69.333 114.736c-.767-7.165 2.76-13.525 7.87-14.204 5.114-.68 9.88 4.58 10.646 11.745.766 7.162-2.76 13.52-7.872 14.2-5.114.68-9.878-4.578-10.645-11.74" fill="#F1D6BB" mask="url(#b)"/><path d="M122.69 49.628c17.377 0 44.856 9.57 44.856 54.415 0 25.892-7.54 39.538-11.34 44.23-3.492 4.317-24.3 16.834-33.515 16.834V49.627" fill="#EBC7A7" mask="url(#b)"/><path d="M176.33 114.736c.77-7.165-2.758-13.525-7.867-14.204-5.115-.68-9.88 4.58-10.646 11.745-.768 7.162 2.757 13.52 7.87 14.2 5.114.68 9.878-4.578 10.644-11.74" fill="#EBC7A7" mask="url(#b)"/><path d="M122.833 149.315c6.775 0 12.264-4.03 12.264-9.002h-24.53c0 4.972 5.492 9.002 12.266 9.002" fill="#FFF" mask="url(#b)"/><path d="M120.304 36.725c-31.75 0-41.403 26.95-41.403 39.36-8.55 11.516-3.882 22.183 2.81 28.828 1.352 1.342 5.93-20.426 31.738-19.973 13.32.234 21.59-5.866 28.636-18.198 8.7-16.514-2.158-30.017-21.78-30.017" fill="#482B1B" mask="url(#b)"/><path d="M140.727 61.672s7.418 29.18 27.736 38.86c3.616-26.23 5.752-20.705 0-34.52-5.752-13.812-27.736-24.07-27.736-24.07v19.73M142.016 111.06c0 1.986-1.608 3.594-3.594 3.594-1.985 0-3.594-1.608-3.594-3.593 0-1.983 1.61-3.592 3.594-3.592 1.986 0 3.594 1.61 3.594 3.593M110.835 111.06c0 1.986-1.608 3.594-3.594 3.594-1.984 0-3.593-1.608-3.593-3.593 0-1.983 1.61-3.592 3.594-3.592 1.987 0 3.595 1.61 3.595 3.593" fill="#482B1B" mask="url(#b)"/><path d="M96.018 175.777c1.984 12.795 13.234 23.003 26.588 23.003 13.352 0 24.57-10.192 26.554-22.987-2.682-1.097-5.073-1.766-6.747-2.242-.407 10.615-9.092 19.203-19.807 19.203-10.715 0-19.526-8.534-19.934-19.148-1.56.203-3.97 1.076-6.654 2.172" fill="#39B44A" mask="url(#b)"/></g></g></svg>