<svg width="255" height="255" viewBox="0 0 255 255" xmlns="http://www.w3.org/2000/svg" xmlns:xlink="http://www.w3.org/1999/xlink"><title>img_profile_avatar_03</title><defs><path id="a" d="M246.956 124.31c0-68.05-55.174-123.216-123.24-123.216C55.657 1.094.482 56.26.482 124.31c0 68.05 55.177 123.215 123.237 123.215 68.065 0 123.24-55.165 123.24-123.216"/></defs><g fill="none" fill-rule="evenodd"><path d="M251.13 125.526c0-68.05-55.175-123.214-123.238-123.214-68.062 0-123.24 55.164-123.24 123.214S59.83 248.74 127.893 248.74c68.063 0 123.24-55.164 123.24-123.214" fill="#1BC9B4"/><path d="M251.13 125.526c0-68.05-55.175-123.214-123.238-123.214v246.43c68.063 0 123.24-55.166 123.24-123.216" fill="#12B2A3"/><g transform="translate(4.173 1.216)"><mask id="b" fill="#fff"><use xlink:href="#a"/></mask><path d="M141.766 196.493l-18.275 51.25-17.816-51.25v-39.567h36.092v39.567" fill="#E9C7AC" mask="url(#b)"/><path d="M141.766 189.76l-36.092-26.273v-6.56h36.092v32.834" fill="#CE9C88" mask="url(#b)"/><path d="M123.49 247.744V198.46s-13.464-3.34-16.43-14.244c-1.427-5.24-1.386-9.444-1.386-9.444s-33.79 9.94-40.362 20.21c-5.468 16.277-6.97 52.762-6.97 52.762h65.15" fill="#E9C7AC" mask="url(#b)"/><path d="M123.49 247.744V198.46s14.238-3.103 17.207-14.006c1.425-5.24.612-9.682.612-9.682s33.79 9.94 40.36 20.21c5.47 16.277 6.97 52.762 6.97 52.762h-65.15" fill="#CE9C88" mask="url(#b)"/><path d="M123.49 247.744v-52.418s-13.838-.206-16.804-11.11c-1.427-5.24-1.012-9.444-1.012-9.444s-33.79 9.94-40.362 20.21c-5.468 16.277-6.97 52.762-6.97 52.762h65.15" fill="#471B1B" mask="url(#b)"/><path d="M123.49 247.744v-52.418s13.936-.206 16.905-11.11c1.426-5.24 1.37-9.307 1.37-9.307s33.334 9.802 39.906 20.07c5.47 16.28 6.97 52.764 6.97 52.764h-65.15" fill="#3A1616" mask="url(#b)"/><path d="M100.814 176.313c-.03 2.05.124 5.944 1.35 10.446 3.766 13.835 21.327 14.095 21.327 14.095s17.683-.26 21.454-14.096c1.22-4.496 1.583-8.304 1.69-10.306-2.968-.986-4.868-1.545-4.868-1.545s.055 4.066-1.37 9.306c-2.97 10.904-16.905 11.11-16.905 11.11s-13.838-.206-16.804-11.11c-1.427-5.24-1.012-9.444-1.012-9.444s-1.897.56-4.86 1.54" fill="#311" mask="url(#b)"/><path d="M171.906 102.482c0-53.143-4.87-70.417-47.097-62.082-19.483 3.845-51.653 2.657-48.914 61.903 1.29 27.867 19.03 31.373 47.823 31.373 28.794 0 48.186-3.298 48.186-31.194" fill="#AD5A31" mask="url(#b)"/><path d="M123.72 50.47c-17.524 0-45.236 9.65-45.236 54.875 0 26.112 7.604 39.874 11.434 44.606 3.526 4.355 24.51 16.98 33.8 16.98V50.47" fill="#F1D6BB" mask="url(#b)"/><path d="M69.766 116.13c-.773-7.227 2.782-13.638 7.936-14.325 5.16-.684 9.964 4.62 10.737 11.845.773 7.222-2.784 13.635-7.938 14.32-5.157.685-9.962-4.618-10.736-11.84" fill="#F1D6BB" mask="url(#b)"/><path d="M123.577 50.47c17.523 0 45.235 9.65 45.235 54.875 0 26.112-7.605 39.874-11.435 44.606-3.522 4.355-24.508 16.98-33.8 16.98V50.47" fill="#EBC7A7" mask="url(#b)"/><path d="M177.672 116.13c.774-7.227-2.782-13.638-7.935-14.325-5.16-.684-9.964 4.62-10.738 11.845-.774 7.222 2.78 13.635 7.937 14.32 5.157.685 9.962-4.618 10.735-11.84" fill="#EBC7A7" mask="url(#b)"/><path d="M123.72 151c6.83 0 12.368-4.06 12.368-9.076H111.35c0 5.015 5.537 9.076 12.37 9.076" fill="#FFF" mask="url(#b)"/><path d="M143.066 112.424c0 2.002-1.622 3.624-3.625 3.624-2 0-3.623-1.622-3.623-3.624s1.622-3.624 3.624-3.624c2.004 0 3.626 1.622 3.626 3.624M111.62 112.424c0 2.002-1.62 3.624-3.624 3.624-2.002 0-3.624-1.622-3.624-3.624s1.622-3.624 3.624-3.624c2.003 0 3.625 1.622 3.625 3.624" fill="#482B1B" mask="url(#b)"/><path d="M81.22 112.424h2.182S91.38 93.47 87.39 81.05c0 0 24.695 6.133 42.948-3.53 18.252-9.66 25.858 1.988 27.724 4.726 3.167 4.646 2.185 29.012 2.185 29.012l2.454-.154s.22-7.67 6.05-9.357c0 0 6.35-56.43-45.173-56.43-51.525 0-45.85 55.666-45.85 55.666s3.493 4.02 3.493 11.44" fill="#AD5A31" mask="url(#b)"/></g></g></svg>