<svg width="255" height="255" viewBox="0 0 255 255" xmlns="http://www.w3.org/2000/svg" xmlns:xlink="http://www.w3.org/1999/xlink"><title>img_profile_avatar_11</title><defs><path id="a" d="M247.604 123.28C247.604 55.23 192.43.067 124.366.067 56.306.067 1.13 55.23 1.13 123.28c0 68.05 55.175 123.216 123.236 123.216 68.064 0 123.238-55.165 123.238-123.216"/></defs><g fill="none" fill-rule="evenodd"><path d="M250.606 125.164c0-68.05-55.176-123.216-123.24-123.216C59.307 1.948 4.13 57.114 4.13 125.164s55.177 123.213 123.24 123.213c68.062 0 123.238-55.163 123.238-123.213" fill="#6C9525"/><path d="M250.606 125.164c0-68.05-55.176-123.216-123.24-123.216v246.43c68.064 0 123.24-55.164 123.24-123.214" fill="#678D23"/><g transform="translate(3 1.88)"><mask id="b" fill="#fff"><use xlink:href="#a"/></mask><path d="M142.414 195.464l-18.275 51.25-17.818-51.25v-39.567h36.092v39.567" fill="#E9C7AC" mask="url(#b)"/><path d="M142.414 188.733l-36.092-26.274v-6.563h36.092v32.836" fill="#CE9C88" mask="url(#b)"/><path d="M124.14 246.714V197.43s-13.466-3.337-16.432-14.24c-1.427-5.242-1.386-9.447-1.386-9.447s-36.69 11.39-43.262 21.66c-5.468 16.276-6.968 52.76-6.968 52.76l68.047-1.45" fill="#E9C7AC" mask="url(#b)"/><path d="M124.14 246.714V197.43s13.462-3.337 16.432-14.24c1.426-5.242 1.385-9.447 1.385-9.447s36.69 11.39 43.262 21.66c5.468 16.276 6.968 52.76 6.968 52.76l-68.05-1.45" fill="#CE9C88" mask="url(#b)"/><path d="M124.14 246.714V197.43s-13.466-3.337-16.432-14.24c-1.427-5.242-1.386-9.447-1.386-9.447s-36.69 11.39-43.262 21.66c-5.468 16.276-6.968 52.76-6.968 52.76l68.047-1.45" fill="#344650" mask="url(#b)"/><path d="M124.14 246.714V197.43s13.462-3.337 16.432-14.24c1.426-5.242 1.385-9.447 1.385-9.447s36.69 11.39 43.262 21.66c5.468 16.276 6.968 52.76 6.968 52.76l-68.05-1.45" fill="#2D404E" mask="url(#b)"/><path d="M146.745 175.26l-22.606 4.684-22.606-4.685 22.832 71.236 22.38-71.237" fill="#8E8E8E" mask="url(#b)"/><path d="M129.263 184.792l-5.124-4.848-4.785 4.848 3.068 3.58-3.007 49.59 4.95 8.534 5.018-8.233-3.27-49.87 3.15-3.6" fill="#900" mask="url(#b)"/><path d="M145.467 174.195l-21.1 72.3 24.953-38.915-2.054-3.262 4.35-1.57 3.172-24.53-9.32-4.023" fill="#142833" mask="url(#b)"/><path d="M103.268 174.195l21.1 72.3-24.954-38.915 2.053-3.262-4.35-1.57-3.186-24.65 9.338-3.903" fill="#142833" mask="url(#b)"/><path d="M111.992 197.928l12.147-17.984-17.818-8.288-4.55 3.164 10.22 23.108" fill="#D6D6D6" mask="url(#b)"/><path d="M136.286 197.928l-12.147-17.984 18.274-8.288 3.86 2.877-9.988 23.395" fill="#D6D6D6" mask="url(#b)"/><path d="M124.367 49.44c-17.523 0-45.235 9.653-45.235 54.876 0 26.113 7.605 39.874 11.434 44.607 3.526 4.353 24.51 16.976 33.8 16.976V49.44" fill="#F1D6BB" mask="url(#b)"/><path d="M70.414 115.1c-.773-7.225 2.782-13.637 7.936-14.322 5.16-.686 9.964 4.617 10.737 11.843.774 7.224-2.782 13.636-7.937 14.32-5.157.686-9.962-4.616-10.736-11.84" fill="#F1D6BB" mask="url(#b)"/><path d="M124.225 49.44c17.523 0 45.235 9.653 45.235 54.876 0 26.113-7.605 39.874-11.435 44.607-3.522 4.353-24.508 16.976-33.8 16.976V49.44" fill="#EBC7A7" mask="url(#b)"/><path d="M178.32 115.1c.774-7.225-2.782-13.637-7.935-14.322-5.16-.686-9.964 4.617-10.738 11.843-.773 7.224 2.782 13.636 7.938 14.32 5.157.686 9.962-4.616 10.735-11.84" fill="#EBC7A7" mask="url(#b)"/><path d="M98.363 135.642c-5.604-1.015-15.134-4.44-17.127-10.963v1.637c2.534 12.22 6.77 19.443 9.33 22.606 3.508 4.33 24.298 16.847 33.66 16.97v-30.976c-6.108 0-16.35 2.446-25.863.725" fill="#E5E6E7" mask="url(#b)"/><path d="M158.025 148.923c2.514-3.105 6.64-10.128 9.188-21.943v-2.3c-1.994 6.522-11.523 9.947-17.126 10.962-9.516 1.72-19.755-.725-25.862-.725V165.9c9.292 0 30.278-12.624 33.8-16.977" fill="#D3D3D3" mask="url(#b)"/><path d="M124.367 149.973c4.274 0 7.737-2.542 7.737-5.68H116.63c0 3.138 3.464 5.68 7.737 5.68" fill="#FFF" mask="url(#b)"/><path d="M143.714 111.394c0 2.002-1.622 3.624-3.624 3.624-2.003 0-3.625-1.622-3.625-3.624 0-2 1.622-3.624 3.625-3.624 2.002 0 3.624 1.624 3.624 3.624M112.27 111.394c0 2.002-1.623 3.624-3.626 3.624-2.002 0-3.624-1.622-3.624-3.624 0-2 1.622-3.624 3.624-3.624 2.003 0 3.625 1.624 3.625 3.624" fill="#482B1B" mask="url(#b)"/><path d="M165.876 111.394c.198-7.17 3.056-10.173 3.516-10.612 0-.007 0-.015-.002-.022-.013-.38-.027-.746-.042-1.12-1.026-22.798-9.552-35.733-19.83-42.74-.425 2.58-1.258 5.98-1.1 10.52.4 11.37 5.35 14.39 8.956 17.55 6.995 6.134 5.596 28.196 5.596 28.196l2.906-1.772M79.246 99.6c-.014.402-.03.795-.046 1.202.458.438 3.317 3.442 3.516 10.614l2.906 1.77s-1.4-22.06 5.596-28.195c3.605-3.16 8.555-6.178 8.955-17.547.16-4.552-.68-7.96-1.102-10.54C88.8 63.906 80.28 76.83 79.247 99.6" fill="#E5E6E7" mask="url(#b)"/></g></g></svg>