<svg width="255" height="255" viewBox="0 0 255 255" xmlns="http://www.w3.org/2000/svg" xmlns:xlink="http://www.w3.org/1999/xlink"><title>img_profile_avatar_02</title><defs><path id="a" d="M247.604 124.31c0-68.05-55.174-123.214-123.238-123.214C56.306 1.096 1.13 56.26 1.13 124.31c0 68.05 55.175 123.215 123.236 123.215 68.064 0 123.238-55.166 123.238-123.215"/></defs><g fill="none" fill-rule="evenodd"><path d="M250.606 125.646c0-68.05-55.176-123.214-123.24-123.214C59.307 2.432 4.13 57.596 4.13 125.646S59.305 248.86 127.368 248.86c68.062 0 123.238-55.164 123.238-123.214" fill="#FF8B00"/><path d="M250.606 125.646c0-68.05-55.176-123.214-123.24-123.214V248.86c68.064 0 123.24-55.164 123.24-123.214" fill="#E57700"/><g transform="translate(3 1.335)"><mask id="b" fill="#fff"><use xlink:href="#a"/></mask><path d="M142.414 196.493l-18.275 51.25-17.818-51.25v-39.567h36.092v39.567" fill="#C18148" mask="url(#b)"/><path d="M142.414 189.763l-36.092-26.274v-6.564h36.092v32.837" fill="#915324" mask="url(#b)"/><path d="M124.14 247.742v-49.285s-13.466-3.335-16.432-14.238c-1.427-5.24-1.386-9.45-1.386-9.45s-33.79 9.944-40.362 20.21c-5.468 16.277-6.968 52.762-6.968 52.762h65.147" fill="#7A2CB7" mask="url(#b)"/><path d="M124.14 247.742v-49.285s13.462-3.335 16.432-14.238c1.426-5.24 1.842-9.31 1.842-9.31s33.333 9.804 39.905 20.07c5.468 16.277 6.97 52.762 6.97 52.762h-65.15" fill="#7027A0" mask="url(#b)"/><path d="M102.843 175.86c.08 1.804.396 5.682 1.632 10.218 3.55 13.05 19.664 17.043 19.664 17.043s16.11-3.993 19.667-17.042c1.232-4.535 1.83-8.327 2.07-10.084-2.144-.697-3.463-1.085-3.463-1.085s-.416 4.07-1.842 9.31c-2.97 10.902-16.433 14.237-16.433 14.237s-13.466-3.335-16.432-14.238c-1.427-5.24-1.386-9.45-1.386-9.45s-1.324.392-3.48 1.09" fill="#142833" mask="url(#b)"/><path d="M193.498 82.856c0-38.174-30.953-69.117-69.13-69.117-38.18 0-69.13 30.942-69.13 69.116 0 38.17 30.95 69.114 69.13 69.114 38.177 0 69.13-30.943 69.13-69.114" fill="#472B1B" mask="url(#b)"/><path d="M124.367 50.47c-17.523 0-45.235 9.65-45.235 54.877 0 26.11 7.605 39.87 11.434 44.605 3.526 4.352 24.51 16.977 33.8 16.977V50.47" fill="#C18148" mask="url(#b)"/><path d="M70.414 116.13c-.773-7.226 2.782-13.64 7.936-14.325 5.16-.684 9.964 4.62 10.737 11.844.774 7.223-2.782 13.633-7.937 14.32-5.157.686-9.962-4.616-10.736-11.84" fill="#C18148" mask="url(#b)"/><path d="M124.225 50.47c17.523 0 45.235 9.65 45.235 54.877 0 26.11-7.605 39.87-11.435 44.605-3.522 4.352-24.508 16.977-33.8 16.977V50.47" fill="#AA6A35" mask="url(#b)"/><path d="M178.32 116.13c.773-7.226-2.782-13.64-7.935-14.325-5.16-.684-9.964 4.62-10.738 11.844-.773 7.223 2.782 13.633 7.938 14.32 5.157.686 9.962-4.616 10.735-11.84" fill="#AA6A35" mask="url(#b)"/><path d="M98.505 136.67c-5.603-1.012-15.132-4.44-17.126-10.962v1.638c.01.246.008.49.015.736.447 2.067.358 4.104.885 5.88.623 2.103 1.876 3.89 2.557 5.6 2.024 5.085 4.182 8.48 5.73 10.39 3.41 4.213 23.18 16.175 32.872 16.937.328.017.638.03.927.033v-30.977c-6.107 0-16.346 2.446-25.862.725M158.168 149.952c1.547-1.91 3.706-5.307 5.732-10.39.725-1.82 1.867-3.803 2.524-6.066.488-1.685 1.337-3.624.932-5.486v-2.302c-1.993 6.523-11.524 9.95-17.127 10.963-9.516 1.722-19.756-.724-25.863-.724v30.983c9.294 0 30.278-12.625 33.8-16.978" fill="#472B1B" mask="url(#b)"/><path d="M124.367 151.002c4.8 0 8.69-2.856 8.69-6.378h-17.38c0 3.522 3.89 6.378 8.69 6.378" fill="#FFF" mask="url(#b)"/><path d="M143.714 112.424c0 2-1.622 3.624-3.624 3.624-2.003 0-3.625-1.624-3.625-3.624s1.622-3.624 3.625-3.624c2.002 0 3.624 1.623 3.624 3.624M112.27 112.424c0 2-1.625 3.624-3.626 3.624-2.002 0-3.624-1.624-3.624-3.624s1.622-3.624 3.624-3.624c2 0 3.625 1.623 3.625 3.624M170.582 100.367s-3.987 4.35-4.35 9.785h-3.987s1.755-22.034-5.112-27.076c-6.868-5.043-12.83.09-32.908.09l-2.9-36.616 37.658 5.436 13.41 36.603-1.81 11.777" fill="#482B1B" mask="url(#b)"/><path d="M77.866 100.367s3.987 4.35 4.35 9.785h3.987s-2.565-22.338 4.302-27.38c6.868-5.043 13.64.394 33.72.394V46.55l-34.76 5.436-13.41 36.603 1.81 11.777" fill="#482B1B" mask="url(#b)"/></g></g></svg>