<svg width="256" height="256" viewBox="0 0 256 256" xmlns="http://www.w3.org/2000/svg" xmlns:xlink="http://www.w3.org/1999/xlink"><title>img_profile_avatar_12</title><defs><path id="a" d="M247.753 123.775C247.753 55.453 192.358.067 124.02.067 55.684.067.287 55.453.287 123.775c0 68.324 55.397 123.71 123.73 123.71 68.34 0 123.735-55.386 123.735-123.71"/></defs><g fill="none" fill-rule="evenodd"><path d="M251.654 125.66c0-68.324-55.397-123.712-123.733-123.712-68.335 0-123.733 55.388-123.733 123.71 0 68.324 55.398 123.71 123.734 123.71 68.337 0 123.734-55.386 123.734-123.71" fill="#6C9525"/><path d="M251.654 125.66c0-68.324-55.397-123.712-123.733-123.712v247.42c68.337 0 123.734-55.386 123.734-123.71" fill="#678D23"/><g transform="translate(3.9 1.88)"><mask id="b" fill="#fff"><use xlink:href="#a"/></mask><path d="M142.14 196.25l-18.348 51.455-17.89-51.456v-39.727h36.238v39.726" fill="#C18148" mask="url(#b)"/><path d="M142.14 189.49l-36.237-26.378v-6.59h36.237v32.97" fill="#915324" mask="url(#b)"/><path d="M123.792 247.705v-49.483s-13.52-3.35-16.497-14.298c-1.433-5.26-1.392-9.483-1.392-9.483s-36.837 11.438-43.436 21.746c-5.49 16.343-6.996 52.975-6.996 52.975l68.322-1.455" fill="#E9C7AC" mask="url(#b)"/><path d="M123.792 247.705v-49.483s13.516-3.35 16.5-14.298c1.43-5.26 1.39-9.483 1.39-9.483s36.836 11.438 43.435 21.746c5.49 16.343 6.997 52.975 6.997 52.975l-68.322-1.455" fill="#CE9C88" mask="url(#b)"/><path d="M123.792 247.705v-49.483s-13.52-3.35-16.497-14.298c-1.433-5.26-1.392-9.483-1.392-9.483s-36.837 11.438-43.436 21.746c-5.49 16.343-6.996 52.975-6.996 52.975l68.322-1.455" fill="#344650" mask="url(#b)"/><path d="M123.792 247.705v-49.483s13.516-3.35 16.5-14.298c1.43-5.26 1.39-9.483 1.39-9.483s36.836 11.438 43.435 21.746c5.49 16.343 6.997 52.975 6.997 52.975l-68.322-1.455" fill="#2D404E" mask="url(#b)"/><path d="M146.488 175.963l-22.696 4.704-22.696-4.704 22.923 71.522 22.468-71.522" fill="#8E8E8E" mask="url(#b)"/><path d="M128.937 185.534l-5.145-4.867-4.804 4.867 3.08 3.593-3.02 49.79 4.973 8.568 5.037-8.265-3.28-50.07 3.16-3.616" fill="#900" mask="url(#b)"/><path d="M145.206 174.895l-21.185 72.59 25.054-39.072-2.062-3.274 4.367-1.58 3.184-24.626-9.358-4.04" fill="#142833" mask="url(#b)"/><path d="M102.837 174.895l21.184 72.59-25.052-39.072 2.06-3.274-4.366-1.58-3.2-24.746 9.375-3.92" fill="#142833" mask="url(#b)"/><path d="M111.596 194.357l12.196-13.69-17.89-8.322-4.566 3.177 10.26 18.835M135.988 194.357l-12.196-13.69 18.348-8.322 3.877 2.89-10.03 19.122" fill="#D6D6D6" mask="url(#b)"/><path d="M124.02 49.64c-17.592 0-45.416 9.69-45.416 55.095 0 26.218 7.635 40.034 11.48 44.786 3.54 4.372 24.607 17.046 33.937 17.046V49.64" fill="#C18148" mask="url(#b)"/><path d="M69.852 115.563c-.777-7.255 2.792-13.692 7.967-14.38 5.18-.69 10.003 4.635 10.78 11.89.776 7.252-2.795 13.69-7.97 14.378-5.178.688-10.002-4.634-10.778-11.887" fill="#C18148" mask="url(#b)"/><path d="M123.878 49.64c17.594 0 45.417 9.69 45.417 55.095 0 26.218-7.635 40.034-11.48 44.786-3.537 4.372-24.607 17.046-33.937 17.046V49.64" fill="#AA6A35" mask="url(#b)"/><path d="M178.19 115.563c.778-7.255-2.793-13.692-7.966-14.38-5.18-.69-10.004 4.635-10.78 11.89-.777 7.252 2.792 13.69 7.97 14.378 5.176.688 10-4.634 10.777-11.887" fill="#AA6A35" mask="url(#b)"/><path d="M157.814 149.52c2.524-3.116 6.665-10.168 9.224-22.03l-1.342-15.648c-.656-.855-2.8.105-2.917 1.778-.187 2.675-1.158 19.715-12.936 22.567-9.436 2.283-19.834-.728-25.966-.728v31.106c9.33 0 30.4-12.674 33.936-17.045" fill="#D3D3D3" mask="url(#b)"/><path d="M143.446 111.842c0 2.01-1.63 3.638-3.64 3.638-2.01 0-3.64-1.628-3.64-3.638s1.63-3.64 3.64-3.64c2.01 0 3.64 1.63 3.64 3.64M111.874 111.842c0 2.01-1.63 3.638-3.64 3.638-2.01 0-3.638-1.628-3.638-3.638s1.63-3.64 3.64-3.64c2.01 0 3.638 1.63 3.638 3.64" fill="#482B1B" mask="url(#b)"/><path d="M165.696 111.842c.2-7.2 3.07-10.214 3.53-10.655v-.022c-.014-.382-.052-.75-.043-1.125.208-9.034.208-24.8-9.208-32.068-2.47 1.326-5.213 3.134-5.59 7.68-.365 4.366.09 7.662 2.775 9.66 7.495 5.576 5.62 28.308 5.62 28.308l2.916-1.778M82.203 111.842c-.2-7.2-3.07-10.214-3.53-10.655v-.022c.014-.382.052-.75.043-1.125-.208-9.034-.208-24.8 9.21-32.068 2.47 1.326 5.212 3.134 5.59 7.68.363 4.366-.093 7.662-2.777 9.66-7.495 5.576-5.62 28.308-5.62 28.308l-2.917-1.778" fill="#D3D3D3" mask="url(#b)"/><path d="M97.913 136.187c-11.78-2.852-12.605-19.87-12.793-22.546-.118-1.672-2.26-2.63-2.917-1.776l-1.442 15.164c2.55 12.144 6.77 19.335 9.324 22.493 3.523 4.35 24.396 16.916 33.794 17.04v-31.1c-6.13 0-16.53 3.01-25.965.727" fill="#D3D3D3" mask="url(#b)"/><path d="M124.02 150.575c4.292 0 7.768-2.55 7.768-5.7h-15.533c0 3.15 3.476 5.7 7.766 5.7" fill="#FFF" mask="url(#b)"/></g></g></svg>