<?xml version="1.0" encoding="UTF-8" standalone="no"?>
<svg width="15px" height="15px" viewBox="0 0 15 15" version="1.1" xmlns="http://www.w3.org/2000/svg" xmlns:xlink="http://www.w3.org/1999/xlink" xmlns:sketch="http://www.bohemiancoding.com/sketch/ns">
    <!-- Generator: Sketch 3.3.2 (12043) - http://www.bohemiancoding.com/sketch -->
    <title>Ajuda - icone</title>
    <desc>Created with Sketch.</desc>
    <defs></defs>
    <g id="GdS-md" stroke="none" stroke-width="1" fill="none" fill-rule="evenodd" sketch:type="MSPage">
        <g id="13---diario-da-saude" sketch:type="MSArtboardGroup" transform="translate(-15.000000, -448.000000)" fill="#FFFFFF">
            <g id="menu" sketch:type="MSLayerGroup" transform="translate(0.000000, 62.000000)">
                <g id="Menu" transform="translate(0.000000, 22.000000)" sketch:type="MSShapeGroup">
                    <g id="Ajuda-Copy" transform="translate(0.000000, 349.000000)">
                        <path d="M18.7374729,16.0048995 C19.8890531,15.3349665 21.1432794,15 22.4995445,15 C23.8567206,15 25.1106432,15.3349665 26.2625271,16.0048995 C27.4138036,16.6748325 28.3248638,17.5858927 28.9944931,18.7374729 C29.6647298,19.8890531 30,21.1429757 30,22.4998482 C30,23.8567206 29.6647298,25.1109469 28.9944931,26.2622234 C28.3248638,27.4144109 27.4138036,28.3248638 26.2625271,28.9947968 C25.1106432,29.6650335 23.8567206,29.9996963 22.4995445,29.9996963 C21.1432794,29.9996963 19.8890531,29.6650335 18.7374729,28.9947968 C17.5855891,28.3248638 16.6751362,27.4144109 16.0055069,26.2622234 C15.3352702,25.1109469 15,23.8567206 15,22.4998482 C15,21.1429757 15.3352702,19.8890531 16.0055069,18.7374729 C16.6751362,17.5858927 17.5855891,16.6748325 18.7374729,16.0048995 L18.7374729,16.0048995 Z M21.2441034,23.7562003 L23.7562003,23.7562003 C23.798109,23.7306906 23.8567206,23.6975887 23.9320349,23.65568 C24.0073492,23.6137712 24.1397566,23.5071771 24.3280424,23.3352904 C24.5163282,23.1640111 24.6818375,22.9735995 24.8242666,22.7634483 C24.9660883,22.5548155 25.0957626,22.2657057 25.2138967,21.8970299 C25.3308161,21.5280505 25.3894277,21.1350799 25.3894277,20.7159921 C25.3894277,20.2893123 25.3159355,19.9160812 25.1692548,19.5978175 C25.0228777,19.2798575 24.8467394,19.0372118 24.6420545,18.869273 C24.4367623,18.7013342 24.1919908,18.5674083 23.9071326,18.4674954 C23.6219707,18.3666714 23.3768955,18.3041119 23.1722106,18.2789059 C22.966311,18.2533962 22.7513008,18.2412488 22.5250542,18.2412488 C21.6455773,18.2412488 20.9249286,18.4756949 20.3643229,18.9445873 C19.8028061,19.414087 19.5225032,20.1802887 19.5225032,21.243496 L21.3318689,21.243496 C21.3649707,21.243496 21.4135606,21.2477477 21.4758164,21.2559472 C21.5386796,21.2647541 21.5851436,21.2690057 21.6139939,21.2690057 C21.6437552,21.2690057 21.6704796,21.2559472 21.6959893,21.2313486 C21.7208916,21.2058389 21.7336465,21.1681817 21.7336465,21.1180734 C21.7336465,21.0679651 21.7375944,21.0221084 21.7464013,20.9795922 C21.7546009,20.9379872 21.7688741,20.9024558 21.7895248,20.8733019 C21.8107829,20.8438443 21.8259672,20.8186383 21.8341668,20.7979876 C21.8423663,20.7764258 21.8660539,20.7603304 21.9031037,20.7472719 C21.9410645,20.7348207 21.967789,20.7241917 21.9847954,20.7159921 C22.0014982,20.7077926 22.039459,20.7014152 22.0980706,20.6971636 C22.1563784,20.6932156 22.1943393,20.6907861 22.2107384,20.6907861 L22.3555969,20.6907861 L22.512603,20.6907861 C22.6717349,20.6907861 22.7974612,20.7329986 22.8894783,20.8168161 C22.9811917,20.90033 23.0276557,21.0093536 23.0276557,21.1429757 C23.0276557,21.3276173 23.0106493,21.4445367 22.9772437,21.494645 C22.9435345,21.5453607 22.8308667,21.6373778 22.6383293,21.7713036 C22.5958132,21.7798069 22.5441864,21.792258 22.4813233,21.8089608 C22.4184601,21.8259672 22.3051849,21.882453 22.1418015,21.978418 C21.978418,22.0749904 21.8362926,22.1882655 21.7148179,22.3176361 C21.5933432,22.4473103 21.4824975,22.6401514 21.3816735,22.8958557 C21.2814569,23.1509526 21.2349928,23.4379365 21.2441034,23.7562003 L21.2441034,23.7562003 Z M21.2441034,26.2686008 L23.7562003,26.2686008 L23.7562003,25.0122487 L21.2441034,25.0122487 L21.2441034,26.2686008 Z" id="Ajuda---icone"></path>
                    </g>
                </g>
            </g>
        </g>
    </g>
</svg>