<?xml version="1.0" encoding="UTF-8" standalone="no"?>
<svg width="22px" height="23px" viewBox="0 0 22 23" version="1.1" xmlns="http://www.w3.org/2000/svg" xmlns:xlink="http://www.w3.org/1999/xlink">
    <!-- Generator: sketchtool 3.8.3 (29802) - http://www.bohemiancoding.com/sketch -->
    <title>50E252F3-027F-4744-A04F-DBD8361BCEAC</title>
    <desc>Created with sketchtool.</desc>
    <defs></defs>
    <g id="GdS-md" stroke="none" stroke-width="1" fill="none" fill-rule="evenodd">
        <g id="14.8---dicas-de-saude" transform="translate(-254.000000, -185.000000)" fill="#FCB315">
            <g id="Group" transform="translate(239.000000, 126.000000)">
                <g id="Urgencias-e-emergencias" transform="translate(0.000000, 50.000000)">
                    <g id="Group-2" transform="translate(15.000000, 9.000000)">
                        <path d="M18.9762129,0.598250611 C19.384517,0.824595522 19.5205448,1.14390746 19.5205448,1.91723418 C19.5205448,2.69056089 19.4315526,3.23511362 18.8845708,4.19017873 C18.0655335,5.64541089 17.2018896,7.10042223 16.3382458,8.60004007 C18.1571755,11.7377326 19.9761053,14.8732169 21.7948143,18.0555159 C21.9310629,18.3748279 21.9310629,18.7387463 21.7948143,19.0108019 C21.6130759,19.329893 21.4311167,19.6494257 21.2034468,20.0129025 C20.9313913,20.4671381 20.4760516,20.6031659 20.0207118,20.3297854 C19.9303947,20.2853997 19.793042,20.1021156 19.703829,20.0129025 C18.0657543,18.2388001 16.4298878,16.4666851 14.7472066,14.6923618 C14.2929711,14.4203062 13.7919207,14.1480299 13.2919745,13.8289388 C12.611394,15.0116737 11.9283844,16.1919796 11.2480247,17.4195419 C11.0190299,17.6942474 10.8372915,17.8748816 10.6096217,18.1025515 C10.4289874,18.2845107 10.2013175,18.4662491 9.97364768,18.6484292 C10.4289874,19.2844032 10.9287128,19.9217021 11.4284382,20.6033867 C11.7007146,20.9213737 11.7464252,21.3767134 11.5200803,21.7404111 C11.4730447,21.8307282 11.3827276,21.9680809 11.2924104,22.1030046 C11.0647406,22.5583443 10.6553323,22.6488823 10.2013175,22.4209916 C9.83761991,22.1946467 9.42777,21.9680809 9.01836174,21.7404111 C8.47270489,21.42132 7.92726886,21.1044371 7.33568055,20.7407395 C6.7900237,20.4216483 6.24458767,20.1021156 5.65299936,19.7856743 C5.28930173,19.5580045 4.88210171,19.3303346 4.47114769,19.1024439 C4.01713292,18.8303884 3.92549083,18.4220843 4.19909214,17.9665237 C4.2450236,17.8751025 4.28940928,17.7390747 4.38105137,17.6028261 C4.6085004,17.2393493 5.01702536,17.0558443 5.42643362,17.1474864 C6.24436684,17.2391285 7.06340418,17.3305497 7.88244153,17.4195419 C7.88244153,17.1474864 7.88244153,16.8306035 7.97408361,16.5558981 C8.06440075,16.2838425 8.15449707,16.0115662 8.29096649,15.6935792 C8.97397606,14.5119483 9.65433574,13.3292134 10.3375661,12.1462576 C9.88222642,11.874202 9.38228019,11.6021465 8.88233397,11.2828345 C6.51796815,10.7369569 4.15338151,10.1915208 1.79011982,9.64696809 C1.69847773,9.64696809 1.4710287,9.59993252 1.3347801,9.55554683 C0.880544511,9.28349129 0.790227371,8.82793075 1.01546816,8.37281186 C1.19853151,8.05482487 1.37916579,7.73683787 1.60838142,7.37314024 C1.79011982,7.10086388 2.10700269,6.91780053 2.42609381,6.87319402 L13.3836166,6.87319402 C14.2026539,5.41796186 15.0662978,3.96295052 15.9299416,2.46200773 C16.4742735,1.50804674 16.8836818,1.1887348 17.5655872,0.780430661 C18.2485968,0.416512209 18.5665838,0.369476633 18.9762129,0.598250611" id="Fill-1"></path>
                    </g>
                </g>
            </g>
        </g>
    </g>
</svg>