<?xml version="1.0" encoding="UTF-8" standalone="no"?>
<svg width="27px" height="26px" viewBox="0 0 27 26" version="1.1" xmlns="http://www.w3.org/2000/svg" xmlns:xlink="http://www.w3.org/1999/xlink">
    <!-- Generator: sketchtool 3.8.3 (29802) - http://www.bohemiancoding.com/sketch -->
    <title>DC381A74-6A4B-49F0-B3ED-274275F9D937</title>
    <desc>Created with sketchtool.</desc>
    <defs>
        <polyline id="path-1" points="-3.0908609e-13 0.107909923 17.6628729 0.107909923 17.6628729 15.8267887 -3.0908609e-13 15.8267887"></polyline>
    </defs>
    <g id="GdS-md" stroke="none" stroke-width="1" fill="none" fill-rule="evenodd">
        <g id="14.1---dicas-de-saude" transform="translate(-251.000000, -232.000000)">
            <g id="Group" transform="translate(239.000000, 126.000000)">
                <g id="Urgencias-e-emergencias" transform="translate(0.000000, 100.000000)">
                    <g id="02" transform="translate(24.892693, 18.737299) rotate(-15.000000) translate(-24.892693, -18.737299) translate(13.392693, 8.237299)">
                        <path d="M16.3391608,11.1272824 C16.3391608,13.5192857 14.4311126,15.4616643 12.0813866,15.4616643 C9.73166056,15.4616643 7.82361236,13.5192857 7.82361236,11.1272824 C7.82361236,8.73527913 9.73166056,6.79290052 12.0813866,6.79290052 C14.4311126,6.79290052 16.3391608,8.75326412 16.3391608,11.1272824 M12.0813866,6.28932088 C9.44898675,6.28932088 7.32893319,8.46550432 7.32893319,11.1272824 C7.32893319,13.8070455 9.46665386,15.965244 12.0813866,15.965244 C14.7137864,15.965244 16.83384,13.7890605 16.83384,11.1272824 C16.8515071,8.46550432 14.7137864,6.28932088 12.0813866,6.28932088" id="Fill-1" fill="#1E88E5"></path>
                        <path d="M14.6784522,11.8107119 C14.6784522,11.8107119 14.183773,11.720787 13.9364334,11.3431023 C13.7774294,11.1092974 13.7597623,10.7855677 13.8480979,10.3898979 C14.0071019,9.7604234 13.865765,9.2028888 13.4770885,8.82520407 C13.088412,8.44751934 12.4877302,8.32162443 11.9577168,8.48348931 C11.3923692,8.66333918 11.0036927,9.14893384 10.8623558,9.79639337 C10.7740202,10.2280331 10.6150162,10.5157929 10.3676766,10.6596728 C10.0320015,10.8575076 9.66099211,10.7316127 9.64332499,10.7136277 C9.5196552,10.6596728 9.36065119,10.7316127 9.32531696,10.8754926 C9.27231562,11.0013875 9.34298407,11.1632524 9.48432098,11.1992224 C9.50198809,11.1992224 10.0850028,11.4150422 10.6150162,11.1092974 C11.0036927,10.8934776 11.2510323,10.4798229 11.3747021,9.88631831 C11.4630376,9.41870864 11.7280443,9.09497887 12.1167208,8.96908396 C12.4700631,8.86117404 12.8764067,8.93311399 13.1414134,9.18490381 C13.4064201,9.43669363 13.4770885,9.81437836 13.3710858,10.2460181 C13.2297489,10.7855677 13.2827503,11.2531773 13.5300898,11.6308621 C13.9010992,12.2063817 14.5901166,12.3142916 14.6254508,12.3142916 L14.6607851,12.3142916 C14.7844549,12.3142916 14.8904575,12.2243666 14.9081247,12.0984717 C14.9081247,11.9545918 14.802122,11.8286969 14.6784522,11.8107119" id="Fill-3" fill="#1E88E5"></path>
                        <g id="Group-7" transform="translate(3.258819, 3.034074)">
                            <mask id="mask-2" fill="white">
                                <use xlink:href="#path-1"></use>
                            </mask>
                            <g id="Clip-6"></g>
                            <path d="M13.8576947,9.69387211 C13.1863444,11.8700556 11.1899607,13.4527344 8.84023465,13.4527344 C6.66717975,13.4527344 4.79446578,12.1038604 3.9994457,10.1794668 C3.734439,9.53200722 3.5931021,8.83059272 3.5931021,8.09320825 C3.5931021,7.35582378 3.734439,6.65440928 3.9994457,6.00694974 C4.79446578,4.08255611 6.66717975,2.73368208 8.84023465,2.73368208 C11.1899607,2.73368208 13.1863444,4.31636095 13.8576947,6.49254439 C14.0166987,6.99612403 14.0873672,7.53567365 14.0873672,8.07522326 C14.0873672,8.65074285 13.9990316,9.19029246 13.8576947,9.69387211 M17.656124,2.35599735 C17.656124,2.24808742 17.6207898,2.15816249 17.5501213,2.08622254 L17.3557831,1.88838768 L17.5501213,1.69055282 C17.6914582,1.54667293 17.6914582,1.2948831 17.5501213,1.15100321 L17.3557831,0.953168349 L17.5501213,0.75533349 C17.656124,0.647423568 17.6914582,0.485558683 17.6384569,0.341678786 C17.5854556,0.197798889 17.4441187,0.107873953 17.2851146,0.107873953 L16.3487577,0.107873953 L1.31404453,0.107873953 L0.377687541,0.107873953 C0.218683524,0.107873953 0.0773466205,0.197798889 0.0243452817,0.341678786 C-0.0286560572,0.485558683 0.0066781687,0.647423568 0.112680846,0.75533349 L0.307019089,0.953168349 L0.112680846,1.15100321 C-0.0286560572,1.2948831 -0.0286560572,1.54667293 0.112680846,1.69055282 L0.307019089,1.88838768 L0.112680846,2.08622254 C0.0420123946,2.15816249 0.0066781687,2.26607241 0.0066781687,2.35599735 C0.0066781687,2.46390727 0.0420123946,2.55383221 0.112680846,2.62577215 L0.307019089,2.82360701 L0.112680846,3.02144187 C-0.0286560572,3.16532177 -0.0286560572,3.41711159 0.112680846,3.56099149 L0.307019089,3.75882634 L0.112680846,3.9566612 C0.0420123946,4.02860115 0.0066781687,4.13651108 0.0066781687,4.22643601 C0.0066781687,4.31636095 0.0420123946,4.42427087 0.112680846,4.49621082 L0.307019089,4.69404568 L0.112680846,4.89188054 C-0.0286560572,5.03576043 -0.0286560572,5.28755025 0.112680846,5.43143015 L0.307019089,5.62926501 L0.112680846,5.82709987 C0.0420123946,5.89903982 0.0066781687,6.00694974 0.0066781687,6.09687467 C0.0066781687,6.2047846 0.0420123946,6.29470953 0.112680846,6.36664948 L0.307019089,6.56448434 L0.112680846,6.7623192 C-0.0286560572,6.9061991 -0.0286560572,7.15798892 0.112680846,7.30186881 L0.307019089,7.49970367 L0.112680846,7.69753853 C0.0420123946,7.76947848 0.0066781687,7.8773884 0.0066781687,7.96731334 C0.0066781687,8.07522326 0.0420123946,8.1651482 0.112680846,8.23708815 L0.307019089,8.434923 L0.112680846,8.63275786 C-0.0286560572,8.77663776 -0.0286560572,9.02842758 0.112680846,9.17230748 L0.307019089,9.37014234 L0.112680846,9.5679772 C0.0420123946,9.63991714 0.0066781687,9.74782707 0.0066781687,9.837752 C0.0066781687,9.94566193 0.0420123946,10.0355869 0.112680846,10.1075268 L0.307019089,10.3053617 L0.112680846,10.5031965 C-0.0286560572,10.6470764 -0.0286560572,10.8988662 0.112680846,11.0427461 L0.307019089,11.240581 L0.112680846,11.4384159 C0.0420123946,11.5103558 0.0066781687,11.6182657 0.0066781687,11.7081907 C0.0066781687,11.7981156 0.0420123946,11.9060255 0.112680846,11.9779655 L0.307019089,12.1758003 L0.112680846,12.3736352 C-0.0286560572,12.5175151 -0.0286560572,12.7693049 0.112680846,12.9131848 L0.307019089,13.1110197 L0.112680846,13.3088545 C0.0420123946,13.3807945 0.0066781687,13.4887044 0.0066781687,13.5786293 C0.0066781687,13.6865393 0.0420123946,13.7764642 0.112680846,13.8484041 L0.307019089,14.046239 L0.112680846,14.2440739 C0.0420123946,14.3160138 0.0066781687,14.4239237 0.0066781687,14.5138487 C0.0066781687,14.6217586 0.0420123946,14.7116835 0.112680846,14.7836235 L0.307019089,14.9814583 L0.112680846,15.1792932 C0.0066781687,15.2872031 -0.0286560572,15.449068 0.0243452817,15.5929479 C0.0773466205,15.7368278 0.218683524,15.8267527 0.377687541,15.8267527 L1.31404453,15.8267527 L16.3487577,15.8267527 L17.2851146,15.8267527 C17.4441187,15.8267527 17.5854556,15.7368278 17.6384569,15.5929479 C17.6914582,15.449068 17.656124,15.2872031 17.5501213,15.1792932 L17.3557831,14.9814583 L17.5501213,14.7836235 C17.6207898,14.7116835 17.656124,14.6037736 17.656124,14.5138487 C17.656124,14.4059387 17.6207898,14.3160138 17.5501213,14.2440739 L17.3557831,14.046239 L17.5501213,13.8484041 C17.6207898,13.7764642 17.656124,13.6685543 17.656124,13.5786293 C17.656124,13.4707194 17.6207898,13.3807945 17.5501213,13.3088545 L17.3557831,13.1110197 L17.5501213,12.9131848 C17.6914582,12.7693049 17.6914582,12.5175151 17.5501213,12.3736352 L17.3557831,12.1758003 L17.5501213,11.9779655 C17.6207898,11.9060255 17.656124,11.7981156 17.656124,11.7081907 C17.656124,11.6182657 17.6207898,11.5103558 17.5501213,11.4384159 L17.3557831,11.240581 L17.5501213,11.0427461 C17.6914582,10.8988662 17.6914582,10.6470764 17.5501213,10.5031965 L17.3557831,10.3053617 L17.5501213,10.1075268 C17.6207898,10.0355869 17.656124,9.92767694 17.656124,9.837752 C17.656124,9.72984208 17.6207898,9.63991714 17.5501213,9.5679772 L17.3557831,9.37014234 L17.5501213,9.17230748 C17.6914582,9.02842758 17.6914582,8.77663776 17.5501213,8.63275786 L17.3557831,8.434923 L17.5501213,8.23708815 C17.6207898,8.1651482 17.656124,8.05723827 17.656124,7.96731334 C17.656124,7.85940342 17.6207898,7.76947848 17.5501213,7.69753853 L17.3557831,7.49970367 L17.5501213,7.30186881 C17.6914582,7.15798892 17.6914582,6.9061991 17.5501213,6.7623192 L17.3557831,6.56448434 L17.5501213,6.36664948 C17.6207898,6.29470953 17.656124,6.18679961 17.656124,6.09687467 C17.656124,5.98896475 17.6207898,5.89903982 17.5501213,5.82709987 L17.3557831,5.62926501 L17.5501213,5.43143015 C17.6914582,5.28755025 17.6914582,5.03576043 17.5501213,4.89188054 L17.3557831,4.69404568 L17.5501213,4.49621082 C17.6207898,4.42427087 17.656124,4.31636095 17.656124,4.22643601 C17.656124,4.13651108 17.6207898,4.02860115 17.5501213,3.9566612 L17.3557831,3.75882634 L17.5501213,3.56099149 C17.6914582,3.41711159 17.6914582,3.16532177 17.5501213,3.02144187 L17.3557831,2.82360701 L17.5501213,2.62577215 C17.6207898,2.57181719 17.656124,2.46390727 17.656124,2.35599735" id="Fill-5" fill="#1E88E5" mask="url(#mask-2)"></path>
                        </g>
                    </g>
                </g>
            </g>
        </g>
    </g>
</svg>