<?xml version="1.0" encoding="UTF-8" standalone="no"?>
<svg width="9px" height="21px" viewBox="0 0 9 21" version="1.1" xmlns="http://www.w3.org/2000/svg" xmlns:xlink="http://www.w3.org/1999/xlink">
    <!-- Generator: sketchtool 3.8.1 (29687) - http://www.bohemiancoding.com/sketch -->
    <title>B5012C25-6534-4AD5-A924-CB892E691EEF</title>
    <desc>Created with sketchtool.</desc>
    <defs></defs>
    <g id="GdS-md" stroke="none" stroke-width="1" fill="none" fill-rule="evenodd">
        <g id="14.5---denguezikachiku" transform="translate(-261.000000, -385.000000)" fill="#68BA44">
            <g id="Group" transform="translate(239.000000, 126.000000)">
                <g id="Vacina" transform="translate(0.000000, 250.000000)">
                    <path d="M27.4296,13.4837156 L27.4296,12.1226489 L29.8325333,10.0917156 L29.8325333,9.89651558 C29.8304,9.89651558 29.8288,9.89571558 29.8266667,9.89571558 L23.976,9.89571558 L23.976,10.1026489 L26.3637333,12.1223822 L26.3637333,13.4837156 L22.8962667,13.4837156 C22.8861333,13.4837156 22.8765333,13.4863822 22.8666667,13.4869156 L22.8666667,14.9023822 C22.8768,14.9029156 22.8864,14.9053156 22.8962667,14.9053156 L23.9669333,14.9053156 L23.9669333,26.2749156 L26.3637333,28.1005156 L26.5650667,29.6325156 L27.2282667,29.6325156 L27.4296,28.1007822 L29.8266667,26.2749156 L29.8266667,14.9053156 L30.9325333,14.9053156 L30.9325333,13.4874489 C30.9205333,13.4869156 27.4296,13.4837156 27.4296,13.4837156 L27.4296,13.4837156 Z M28.5314667,15.7050489 L26.6709333,15.7050489 L26.6709333,16.7695822 L28.5314667,16.7695822 L28.5314667,17.5743822 L26.6709333,17.5743822 L26.6709333,18.6389156 L28.5314667,18.6389156 L28.5314667,19.4437156 L26.6709333,19.4437156 L26.6709333,20.5082489 L28.5314667,20.5082489 L28.5314667,21.3130489 L25.2626667,21.3130489 L25.2626667,14.9002489 L28.5314667,14.9002489 L28.5314667,15.7050489 L28.5314667,15.7050489 Z" id="Imported-Layers"></path>
                </g>
            </g>
        </g>
    </g>
</svg>