<?xml version="1.0" encoding="UTF-8" standalone="no"?>
<svg width="20px" height="21px" viewBox="0 0 20 21" version="1.1" xmlns="http://www.w3.org/2000/svg" xmlns:xlink="http://www.w3.org/1999/xlink" xmlns:sketch="http://www.bohemiancoding.com/sketch/ns">
    <!-- Generator: Sketch 3.3.2 (12043) - http://www.bohemiancoding.com/sketch -->
    <title>farmacia</title>
    <desc>Created with Sketch.</desc>
    <defs></defs>
    <g id="GdS-md" stroke="none" stroke-width="1" fill="none" fill-rule="evenodd" sketch:type="MSPage">
        <g id="14---dicas-de-saude" sketch:type="MSArtboardGroup" transform="translate(-254.000000, -185.000000)" fill="#1E88E5">
            <g id="content" sketch:type="MSLayerGroup" transform="translate(224.000000, 1.000000)">
                <g id="Farmácias" transform="translate(15.000000, 175.000000)" sketch:type="MSShapeGroup">
                    <path d="M28.6651479,22.8053586 C28.6851029,22.7133395 28.6979925,22.6174121 28.7036954,22.5175359 C28.7443036,22.4874557 28.7840094,22.4549692 28.8207072,22.4179706 L33.2133135,18.0250635 C35.0406834,16.1976935 35.0406834,13.2239685 33.2133135,11.395997 L33.0692295,11.2516122 C32.1839703,10.3666538 31.0072343,9.87935514 29.7549971,9.87935514 C28.5027599,9.87935514 27.3254223,10.3669546 26.4404638,11.2522138 L22.0478575,15.6448201 C22.0126638,15.6800139 21.9813804,15.7164109 21.9528042,15.7543119 C21.759088,15.7639376 21.5789078,15.7988305 21.4155725,15.8604949 C21.4907729,15.6682826 21.6017687,15.4962241 21.7503647,15.3476281 L26.142971,10.9550218 C27.1079427,9.98974934 28.3905609,9.45883446 29.7552979,9.45883446 C31.1191325,9.45883446 32.4023523,9.98974934 33.3667223,10.9544202 L33.5114079,11.098805 C35.5030155,13.0907134 35.5030155,16.3315502 33.5114079,18.3228571 L29.1178992,22.7154634 C28.9656936,22.867669 28.7888222,22.9816728 28.5890899,23.0574748 C28.620771,22.9769521 28.6461586,22.892925 28.6651479,22.8053586 C28.6461053,22.8928005 28.6207378,22.9767358 28.5890899,23.057174 C28.5138895,23.2493863 28.4028937,23.4214448 28.2545985,23.56974 L23.8616914,27.9629479 C22.8970206,28.927318 21.6144024,29.4588345 20.2499662,29.4588345 C18.8855299,29.4588345 17.602611,28.927318 16.6379401,27.9629479 L16.4935553,27.8188639 C14.5019477,25.8266547 14.5022485,22.5867203 16.4938561,20.5948118 L20.8867632,16.2028071 C21.0392697,16.0499999 21.216141,15.9362969 21.4155725,15.8607957 C21.5795094,15.7991313 21.7593888,15.7639376 21.9528042,15.7546127 C21.9882988,15.7528079 22.022891,15.7501007 22.059288,15.7501007 C23.0305765,15.7501007 24.3426732,16.404645 25.6580788,17.5464881 C26.9076088,18.6311788 27.936952,19.9625268 28.411617,21.108581 C28.6293974,21.6343823 28.7259547,22.1078441 28.7036954,22.5172351 C28.6979869,22.6172111 28.6850772,22.7132303 28.6650881,22.8053335 Z M34.0456316,13.2781128 C34.196634,14.6392402 33.7517484,16.0545119 32.7082675,17.0985944 C32.7082675,17.0985944 31.2917926,18.5147685 29.4499842,20.3565769 C29.5414279,20.6275992 29.5979786,20.8880934 29.6136203,21.1317428 C29.6710734,21.0917361 30.1466408,20.6275992 30.1977771,20.5767637 C32.2140505,18.5598888 32.8688956,17.9053444 32.8688956,17.9053444 C34.1220352,16.651904 34.513679,14.8648415 34.0456316,13.2781128 Z M27.3771601,23.3880558 C25.3602852,25.40463 23.4438779,27.3210372 23.4438779,27.3210372 C22.1907383,28.5741768 20.4039766,28.9655198 18.8169472,28.4974724 C20.1777738,28.6484748 21.5933463,28.20389 22.6374288,27.1598075 C22.6374288,27.1598075 25.251395,24.5461421 27.7209764,22.0759591 C27.8018921,22.6002563 27.7080419,23.0577756 27.3771601,23.3880558 L27.3771601,23.3880558 Z" id="farmacia"></path>
                </g>
            </g>
        </g>
    </g>
</svg>