<?xml version="1.0" encoding="UTF-8" standalone="no"?>
<svg width="23px" height="28px" viewBox="0 0 23 28" version="1.1" xmlns="http://www.w3.org/2000/svg" xmlns:xlink="http://www.w3.org/1999/xlink" xmlns:sketch="http://www.bohemiancoding.com/sketch/ns">
    <!-- Generator: bin/sketchtool 1.4 (305) - http://www.bohemiancoding.com/sketch -->
    <title>icon_zika</title>
    <desc>Created with bin/sketchtool.</desc>
    <defs></defs>
    <g id="GdS-md" stroke="none" stroke-width="1" fill="none" fill-rule="evenodd" sketch:type="MSPage">
        <g id="14---dicas-de-saude" sketch:type="MSArtboardGroup" transform="translate(-254.000000, -132.000000)" fill="#1E88E5">
            <g id="content" sketch:type="MSLayerGroup" transform="translate(224.000000, 1.000000)">
                <g id="Urgencias-e-emergencias" transform="translate(15.000000, 125.000000)" sketch:type="MSShapeGroup">
                    <g id="icon_zika" transform="translate(15.000000, 6.000000)">
                        <path d="M11.5290685,5.52915329 C12.1915652,5.52915329 12.7285372,6.05574903 12.7285372,6.70544386 C12.7285372,7.3550455 12.1915652,7.88164124 11.5290685,7.88164124 C10.8666669,7.88164124 10.3296949,7.3550455 10.3296949,6.70544386 C10.3296949,6.05574903 10.8666669,5.52915329 11.5290685,5.52915329 Z M11.5290685,5.14858048 C11.6349236,5.14858048 11.7407786,5.04486413 11.7407786,4.9410546 L11.7407786,4.90648249 L11.6349236,0.478176705 C11.6349236,0.409032477 11.5996702,0.374460362 11.5290685,0.374460362 C11.4585619,0.374460362 11.4233085,0.409032477 11.4233085,0.478176705 L11.3174535,4.9410546 L11.3174535,4.97562672 C11.3174535,5.07943625 11.4233085,5.14858048 11.5290685,5.14858048 Z M11.5290685,13.3131906 C11.1057434,13.3131906 10.964635,13.624526 10.75302,14.0742431 C10.75302,14.0742431 10.3296949,15.1812962 10.3296949,16.7035875 C10.3296949,17.7759754 10.4355499,19.0214101 10.858875,19.6441741 C10.964635,19.8171279 11.1410918,19.9555095 11.3174535,20.024747 L11.3527068,20.024747 L11.4233085,20.024747 L11.4585619,20.024747 L11.5290685,20.024747 L11.6349236,20.024747 L11.7055253,20.024747 C11.9172354,19.9900817 12.0582487,19.8517 12.1993571,19.6441741 C12.6226822,19.0214101 12.7285372,17.7759754 12.7285372,16.6689222 C12.7285372,15.1467241 12.3052121,14.039671 12.3052121,14.039671 C12.0935971,13.5553818 11.9523937,13.3131906 11.5290685,13.3131906 Z M22.0064367,12.725092 C22.0064367,12.725092 21.9006767,12.6212824 20.6659546,12.1369001 L12.1993571,8.43516781 C12.0229954,8.29678617 11.776127,8.22764194 11.5290685,8.22764194 C11.2822002,8.22764194 11.0352367,8.29678617 10.858875,8.43516781 L2.39227747,12.1369001 C1.19290379,12.6212824 1.05179541,12.725092 1.05179541,12.725092 C0.522615247,13.0018552 0.134638481,13.5899539 0.134638481,14.2126247 C0.134638481,15.1467241 0.875433697,15.8040602 1.89844566,15.9424419 C1.89844566,15.9424419 2.95680599,16.0115861 3.23892772,16.0115861 C3.90921626,16.0115861 4.50899812,15.977014 4.50899812,15.977014 C5.1439383,15.8732045 5.67311847,15.4234874 5.67311847,15.4234874 L10.2944415,11.5833735 L10.2944415,11.7564204 C10.2944415,12.4136634 10.8236217,12.9326178 11.4939102,12.9326178 C12.1641037,12.9326178 12.6932839,12.4136634 12.6932839,11.7564204 L12.6932839,11.5833735 L17.314607,15.4234874 C17.314607,15.4234874 17.9142938,15.8386323 18.4787273,15.9078698 C18.4787273,15.9078698 19.1137625,16.0462514 19.7487977,16.0462514 C20.0309194,16.0462514 21.0892798,15.977014 21.0892798,15.977014 C22.1122917,15.8386323 22.853182,15.2159615 22.853182,14.24729 C22.8883403,13.5899539 22.5356169,13.0364274 22.0064367,12.725092 Z M4.72061318,1.96580267 L6.73138377,4.56048179 L5.81422684,6.63620644 C5.81422684,6.67077856 5.7789735,6.70544386 5.7789735,6.74001597 C5.7789735,6.8438255 5.84948018,6.94754184 5.95533522,7.01677926 L8.74224939,8.60821475 C8.74224939,8.60821475 8.77750273,8.60821475 8.77750273,8.64278687 C8.81275607,8.67735898 8.88335777,8.67735898 8.91861111,8.67735898 C9.09497282,8.67735898 9.23608119,8.53897734 9.23608119,8.36602358 C9.23608119,8.22764194 9.16557452,8.12383241 9.05971948,8.08926029 L6.37866034,6.63620644 L7.19005726,4.6297192 L7.19005726,4.56048179 C7.19005726,4.49133756 7.1547089,4.42210014 7.11945556,4.38752803 L4.86172155,1.82742103 C4.82646821,1.79284891 4.79111985,1.7582768 4.75586651,1.7582768 C4.68535984,1.7582768 4.61475814,1.82742103 4.61475814,1.89665844 C4.68535984,1.93123056 4.68535984,1.96580267 4.72061318,1.96580267 Z M14.139621,8.67735898 C14.1749694,8.67735898 14.245476,8.67735898 14.2807294,8.64278687 C14.2807294,8.64278687 14.3160777,8.64278687 14.3160777,8.60821475 L17.1028969,7.01677926 C17.2087519,6.98220714 17.2793536,6.87839762 17.2793536,6.74001597 C17.2793536,6.70544386 17.2793536,6.67077856 17.2440053,6.63620644 L16.3268483,4.56048179 L18.337714,1.96580267 C18.3728723,1.93123056 18.3728723,1.89665844 18.3728723,1.86208633 C18.3728723,1.79284891 18.3023656,1.7236115 18.2318589,1.7236115 C18.1965106,1.7236115 18.1260039,1.7582768 18.1260039,1.79284891 L15.8682699,4.35295591 C15.8329215,4.38752803 15.7976682,4.45667226 15.7976682,4.52590967 L15.7976682,4.5950539 L16.6090651,6.60163433 L13.9632593,8.05468818 C13.8574043,8.12383241 13.7868976,8.22764194 13.7868976,8.33145147 C13.7868976,8.53897734 13.9280059,8.67735898 14.139621,8.67735898 Z M10.0122248,12.5174729 C9.94171809,12.5174729 9.8711164,12.552045 9.83586306,12.552045 C9.8005147,12.5867103 9.76526136,12.5867103 9.76526136,12.6212824 L7.36641897,14.662435 C7.29581727,14.6970071 7.2253106,14.8008166 7.2253106,14.9045329 C7.2253106,14.9737704 7.2253106,15.0083425 7.26056394,15.0429146 L8.95395947,19.7825558 L7.68388906,27.7395469 C7.68388906,27.8086911 7.75449076,27.8779285 7.82499744,27.8779285 C7.89559914,27.8779285 7.96620084,27.8086911 7.96620084,27.7395469 L9.44779127,19.8517 L9.44779127,19.7825558 L9.44779127,19.7479837 C9.44779127,19.7133184 9.44779127,19.7133184 9.41244291,19.6787462 L7.82499744,15.0083425 L10.1885865,13.1402369 C10.2944415,13.0709995 10.3296949,12.9671899 10.3296949,12.8634736 C10.3296949,12.6904266 10.1885865,12.5174729 10.0122248,12.5174729 Z M7.08420222,17.8797849 L6.27280531,15.8732045 C6.23755197,15.7694881 6.13169693,15.7002507 6.02584189,15.7002507 C5.84948018,15.7002507 5.74362514,15.8386323 5.74362514,15.977014 C5.74362514,16.0115861 5.74362514,16.0462514 5.7789735,16.0808235 L6.62562376,17.9490223 L4.61475814,20.8203715 C4.5795048,20.8550368 4.5795048,20.8896089 4.5795048,20.924181 C4.5795048,20.9934185 4.6501065,21.0625627 4.72061318,21.0625627 C4.75586651,21.0625627 4.79111985,21.0279906 4.82646821,21.0279906 L7.08420222,18.1565482 C7.11945556,18.1219761 7.1547089,18.0527386 7.1547089,17.9835944 C7.11945556,17.9490223 7.11945556,17.914357 7.08420222,17.8797849 Z M15.7271615,14.6970071 L13.3283191,12.6558545 C13.2577174,12.5867103 13.1872107,12.552045 13.0812607,12.552045 C12.904994,12.552045 12.7638856,12.6904266 12.7638856,12.8634736 C12.7638856,12.9671899 12.8343923,13.0709995 12.904994,13.1402369 L15.268488,15.0083425 L13.6810425,19.6787462 C13.6810425,19.7133184 13.6457892,19.7133184 13.6457892,19.7479837 L13.6457892,19.7825558 L13.6457892,19.8517 L15.1273796,27.7395469 C15.1273796,27.8086911 15.1979813,27.8779285 15.268488,27.8779285 C15.3390897,27.8779285 15.4095964,27.8086911 15.4095964,27.7395469 L14.139621,19.7825558 L15.8329215,15.0429146 C15.8682699,15.0083425 15.8682699,14.9391982 15.8682699,14.9045329 C15.8329215,14.8353887 15.7976682,14.7315792 15.7271615,14.6970071 Z M18.4787273,20.8203715 L16.4679567,17.9490223 L17.314607,16.0808235 C17.314607,16.0462514 17.3499553,16.0115861 17.3499553,15.977014 C17.3499553,15.8040602 17.2087519,15.7002507 17.0676436,15.7002507 C16.9617885,15.7002507 16.8560285,15.7694881 16.8206801,15.8732045 L16.0093782,17.8797849 C16.0093782,17.914357 15.9740299,17.9490223 15.9740299,17.9835944 C15.9740299,18.0527386 16.0093782,18.1219761 16.0446316,18.1565482 L18.3023656,21.0279906 C18.337714,21.0625627 18.3728723,21.0625627 18.4082206,21.0625627 C18.4787273,21.0625627 18.549329,20.9934185 18.549329,20.924181 C18.5139806,20.8896089 18.5139806,20.8550368 18.4787273,20.8203715 Z" id="Fill-1"></path>
                    </g>
                </g>
            </g>
        </g>
    </g>
</svg>