<?xml version="1.0" encoding="UTF-8" standalone="no"?>
<svg width="21px" height="21px" viewBox="0 0 21 21" version="1.1" xmlns="http://www.w3.org/2000/svg" xmlns:xlink="http://www.w3.org/1999/xlink" xmlns:sketch="http://www.bohemiancoding.com/sketch/ns">
    <!-- Generator: Sketch 3.3.2 (12043) - http://www.bohemiancoding.com/sketch -->
    <title>Imported Layers</title>
    <desc>Created with Sketch.</desc>
    <defs></defs>
    <g id="GdS-md" stroke="none" stroke-width="1" fill="none" fill-rule="evenodd" sketch:type="MSPage">
        <g id="14---dicas-de-saude" sketch:type="MSArtboardGroup" transform="translate(-254.000000, -385.000000)" fill="#FFFFFF">
            <g id="content" sketch:type="MSLayerGroup" transform="translate(224.000000, 1.000000)">
                <g id="Prevenção" transform="translate(15.000000, 375.000000)" sketch:type="MSShapeGroup">
                    <path d="M30.6066667,9.94071558 C30.2855556,9.91127113 29.9788889,9.89571558 29.6944444,9.89571558 C27.4155556,9.89571558 26.3216667,10.8884934 25.0683333,12.3934934 C23.815,10.8884934 22.7266667,9.89571558 20.4383333,9.89571558 C20.155,9.89571558 19.8533333,9.91127113 19.5277778,9.94071558 C17.5566667,10.1368267 15.2755556,11.9607156 15,15.4507156 L15,16.6123822 C15.2527778,19.9562711 17.7594444,24.0796045 25.0683333,29.2540489 C32.3788889,24.08016 34.8811111,19.9568267 35.1433333,16.6129378 L35.1433333,15.4507156 C34.8616667,11.9607156 32.5838889,10.1368267 30.6066667,9.94071558 L30.6066667,9.94071558 Z M28.6755556,20.4734934 L26.0644444,20.4734934 L26.0644444,23.2162711 L24.1338889,23.2162711 L24.1338889,20.4734934 L21.4677778,20.4734934 L21.4677778,18.5529378 L24.1338889,18.5529378 L24.1338889,15.9329378 L26.0644444,15.9329378 L26.0644444,18.5523822 L28.6755556,18.5523822 L28.6755556,20.4734934 L28.6755556,20.4734934 Z" id="Imported-Layers"></path>
                </g>
            </g>
        </g>
    </g>
</svg>