<?xml version="1.0" encoding="UTF-8" standalone="no"?>
<svg width="20px" height="20px" viewBox="0 0 20 20" version="1.1" xmlns="http://www.w3.org/2000/svg" xmlns:xlink="http://www.w3.org/1999/xlink" xmlns:sketch="http://www.bohemiancoding.com/sketch/ns">
    <!-- Generator: Sketch 3.3.2 (12043) - http://www.bohemiancoding.com/sketch -->
    <title>Imported Layers</title>
    <desc>Created with Sketch.</desc>
    <defs></defs>
    <g id="GdS-md" stroke="none" stroke-width="1" fill="none" fill-rule="evenodd" sketch:type="MSPage">
        <g id="14---dicas-de-saude" sketch:type="MSArtboardGroup" transform="translate(-254.000000, -285.000000)" fill="#FFFFFF">
            <g id="content" sketch:type="MSLayerGroup" transform="translate(224.000000, 1.000000)">
                <g id="Telefones-úteis" transform="translate(15.000000, 275.000000)" sketch:type="MSShapeGroup">
                    <path d="M29.4404444,20.8685841 C29.116,20.6716276 28.6306667,20.7259754 28.3533333,20.9911928 L26.2026667,23.0942363 C25.9275556,23.3590189 25.4906667,23.3590189 25.2195556,23.0942363 L20.3875556,18.364671 C20.1168889,18.0998884 20.1168889,17.6672797 20.3875556,17.4029319 L22.4128889,15.4220623 C22.6826667,15.1572797 22.7226667,14.690758 22.504,14.3855406 L18.8191111,9.27423625 C18.6008889,8.96901886 18.1742222,8.90945364 17.8751111,9.14162756 C17.8751111,9.14162756 15,11.3742363 15,13.4238015 C15,21.814671 21.9546667,28.6164102 30.5306667,28.6164102 C32.6288889,28.6164102 34.668,24.8524971 34.668,24.8524971 C34.8453333,24.5229319 34.7288889,24.0894536 34.4013333,23.8920623 L29.4404444,20.8685841" id="Imported-Layers"></path>
                </g>
            </g>
        </g>
    </g>
</svg>