<?xml version="1.0" encoding="UTF-8" standalone="no"?>
<svg width="17px" height="17px" viewBox="0 0 17 17" version="1.1" xmlns="http://www.w3.org/2000/svg" xmlns:xlink="http://www.w3.org/1999/xlink" xmlns:sketch="http://www.bohemiancoding.com/sketch/ns">
    <!-- Generator: Sketch 3.3.2 (12043) - http://www.bohemiancoding.com/sketch -->
    <title>Fill 2</title>
    <desc>Created with Sketch.</desc>
    <defs></defs>
    <g id="GdS-md" stroke="none" stroke-width="1" fill="none" fill-rule="evenodd" sketch:type="MSPage">
        <g id="13---diario-da-saude" sketch:type="MSArtboardGroup" transform="translate(-14.000000, -402.000000)" fill="#FFFFFF">
            <g id="menu" sketch:type="MSLayerGroup" transform="translate(0.000000, 62.000000)">
                <g id="Menu" transform="translate(0.000000, 22.000000)" sketch:type="MSShapeGroup">
                    <g id="Noticias" transform="translate(0.000000, 304.000000)">
                        <path d="M29.6231931,14 L18.2455341,14 C17.6739489,14 17.210455,14.4635425 17.210455,15.0346147 L17.210455,21.2298885 L15.1414425,21.2298885 C14.5702392,21.2298885 14.1078911,21.7050817 14.1078911,22.2763449 L14.1078911,27.977899 C14.1078911,29.1211894 15.0333512,30.5519258 16.1769036,30.5519258 L28.5888778,30.5519258 C29.7301386,30.5519258 30.6578903,29.1211894 30.6578903,27.977899 L30.6578903,15.0346147 C30.6578903,14.4635425 30.1945874,14 29.6231931,14 L29.6231931,14 Z M17.210455,27.977899 C17.210455,28.5495442 16.7482979,29.0123228 16.1769036,29.0123228 C15.6053184,29.0123228 15.1414425,28.5495442 15.1414425,27.977899 L15.1414425,22.2645032 L17.210455,22.2645032 L17.210455,27.977899 L17.210455,27.977899 Z M27.5545626,27.0437472 C27.5545626,27.2698841 27.3689358,27.4562943 27.1422497,27.4562943 L20.7260956,27.4562943 C20.4997914,27.4562943 20.3143557,27.2698841 20.3143557,27.0437472 L20.3143557,26.8344177 C20.3143557,26.6075168 20.4997914,26.4222526 20.7260956,26.4222526 L27.1422497,26.4222526 C27.3689358,26.4222526 27.5545626,26.6075168 27.5545626,26.8344177 L27.5545626,27.0437472 L27.5545626,27.0437472 Z M27.5545626,25.2298767 C27.5545626,25.4562047 27.3689358,25.6416599 27.1422497,25.6416599 L20.7260956,25.6416599 C20.4997914,25.6416599 20.3143557,25.4562047 20.3143557,25.2298767 L20.3143557,25.0195923 C20.3143557,24.7934554 20.4997914,24.6074272 20.7260956,24.6074272 L27.1422497,24.6074272 C27.3689358,24.6074272 27.5545626,24.7934554 27.5545626,25.0195923 L27.5545626,25.2298767 L27.5545626,25.2298767 Z M27.5545626,23.4152423 C27.5545626,23.6421433 27.3689358,23.8275985 27.1422497,23.8275985 L20.7260956,23.8275985 C20.4997914,23.8275985 20.3143557,23.6421433 20.3143557,23.4152423 L20.3143557,23.2059129 C20.3143557,22.9792029 20.4997914,22.7935567 20.7260956,22.7935567 L27.1422497,22.7935567 C27.3689358,22.7935567 27.5545626,22.9792029 27.5545626,23.2059129 L27.5545626,23.4152423 L27.5545626,23.4152423 Z M27.5545626,20.828992 C27.5545626,21.0558929 27.3689358,21.2409662 27.1422497,21.2409662 L20.7260956,21.2409662 C20.4997914,21.2409662 20.3143557,21.0558929 20.3143557,20.828992 L20.3143557,18.5506241 C20.3143557,18.3235322 20.4997914,18.1382679 20.7260956,18.1382679 L27.1422497,18.1382679 C27.3689358,18.1382679 27.5545626,18.3235322 27.5545626,18.5506241 L27.5545626,20.828992 L27.5545626,20.828992 Z" id="Fill-2"></path>
                    </g>
                </g>
            </g>
        </g>
    </g>
</svg>