<?xml version="1.0" encoding="UTF-8" standalone="no"?>
<svg width="11px" height="15px" viewBox="0 0 11 15" version="1.1" xmlns="http://www.w3.org/2000/svg" xmlns:xlink="http://www.w3.org/1999/xlink" xmlns:sketch="http://www.bohemiancoding.com/sketch/ns">
    <!-- Generator: Sketch 3.3.2 (12043) - http://www.bohemiancoding.com/sketch -->
    <title>dicas-icone</title>
    <desc>Created with Sketch.</desc>
    <defs></defs>
    <g id="GdS-md" stroke="none" stroke-width="1" fill="none" fill-rule="evenodd" sketch:type="MSPage">
        <g id="13---diario-da-saude" sketch:type="MSArtboardGroup" transform="translate(-17.000000, -358.000000)" fill="#FFFFFF">
            <g id="menu" sketch:type="MSLayerGroup" transform="translate(0.000000, 62.000000)">
                <g id="Menu" transform="translate(0.000000, 22.000000)" sketch:type="MSShapeGroup">
                    <g id="Dicas-de-Saude" transform="translate(0.000000, 259.000000)">
                        <path d="M23.4000022,27.7237479 C23.3077536,27.6584331 23.031681,28.1573838 22.1324251,28.198458 C22.0245211,28.194923 21.9166171,28.1930713 21.8137632,28.1930713 C21.0124794,28.1235481 20.7220982,27.6587698 20.6325429,27.7224012 C20.4401338,27.8579124 20.327348,28.0238926 20.327348,28.2023298 C20.327348,28.2373439 20.3330715,28.2718529 20.3414883,28.3056887 L20.4339053,28.975838 L20.4349153,28.975838 C20.466226,29.1593253 20.6246311,29.3246322 20.8666996,29.4505482 C21.0378983,29.7708934 21.4868529,30 22.0155992,30 C22.5440089,30 22.9931319,29.7708934 23.1644989,29.4505482 C23.420371,29.3173937 23.5819745,29.1403032 23.5996499,28.9441907 L23.6031849,28.9440224 L23.6900468,28.3045103 C23.6982953,28.2710113 23.7038504,28.2371755 23.7038504,28.2023298 C23.7038504,28.0249026 23.591233,27.8590908 23.4000022,27.7237479 L23.4000022,27.7237479 Z M22.0155992,15 C19.2456148,15 17,17.1217188 17,20.2100284 C17,22.5362766 18.3502306,23.4193722 19.8671148,26.3331164 C20.3041175,27.1726127 21.0166878,27.7165094 22.0155992,27.7165094 C23.0148473,27.7165094 23.7418946,27.1800195 24.164252,26.3331164 C25.5345147,23.5865308 27.0310301,22.6079881 27.0310301,20.2100284 C27.0310301,17.1217188 24.7860886,15 22.0155992,15 L22.0155992,15 Z M24.4539598,21.1379016 C24.4539598,21.3479861 24.2820878,21.5198581 24.0720033,21.5198581 L23.2107915,21.5198581 C23.000707,21.5198581 22.8290033,21.6915618 22.8290033,21.9018147 L22.8290033,22.7628581 C22.8290033,22.9729426 22.6571313,23.1448147 22.4470468,23.1448147 L21.585835,23.1448147 C21.3759188,23.1448147 21.2040468,22.9729426 21.2040468,22.7628581 L21.2040468,21.9018147 C21.2040468,21.6915618 21.0321748,21.5198581 20.8220903,21.5198581 L19.9608785,21.5198581 C19.750794,21.5198581 19.578922,21.3479861 19.578922,21.1379016 L19.578922,20.2770265 C19.578922,20.066942 19.750794,19.8952383 19.9608785,19.8952383 L20.8220903,19.8952383 C21.0321748,19.8952383 21.2040468,19.7233663 21.2040468,19.5132818 L21.2040468,18.6519016 C21.2040468,18.4418171 21.3759188,18.2699451 21.585835,18.2699451 L22.4470468,18.2699451 C22.6571313,18.2699451 22.8290033,18.4418171 22.8290033,18.6519016 L22.8290033,19.5132818 C22.8290033,19.7233663 23.000707,19.8952383 23.2107915,19.8952383 L24.0720033,19.8952383 C24.2820878,19.8952383 24.4539598,20.066942 24.4539598,20.2770265 L24.4539598,21.1379016 L24.4539598,21.1379016 Z" id="dicas-icone"></path>
                    </g>
                </g>
            </g>
        </g>
    </g>
</svg>