<?xml version="1.0" encoding="UTF-8" standalone="no"?>
<svg width="23px" height="21px" viewBox="0 0 23 21" version="1.1" xmlns="http://www.w3.org/2000/svg" xmlns:xlink="http://www.w3.org/1999/xlink">
    <!-- Generator: sketchtool 3.8.3 (29802) - http://www.bohemiancoding.com/sketch -->
    <title>4CFE73EA-5F51-4D46-8F7E-60F734B22C90</title>
    <desc>Created with sketchtool.</desc>
    <defs>
        <polyline id="path-1" points="-2.54019028e-13 0.107909923 17.6628729 0.107909923 17.6628729 15.8267887 -2.54019028e-13 15.8267887"></polyline>
    </defs>
    <g id="GdS-md" stroke="none" stroke-width="1" fill="none" fill-rule="evenodd">
        <g id="14.8---dicas-de-saude" transform="translate(-254.000000, -236.000000)">
            <g id="Group" transform="translate(239.000000, 126.000000)">
                <g id="Urgencias-e-emergencias" transform="translate(0.000000, 100.000000)">
                    <g id="Page-1" transform="translate(25.893294, 20.539741) rotate(-15.000000) translate(-25.893294, -20.539741) translate(15.893294, 12.039741)">
                        <path d="M14.0803418,8.09320825 C14.0803418,10.4852115 12.1722936,12.4275902 9.82256754,12.4275902 C7.47284151,12.4275902 5.56479331,10.4852115 5.56479331,8.09320825 C5.56479331,5.70120496 7.47284151,3.75882634 9.82256754,3.75882634 C12.1722936,3.75882634 14.0803418,5.71918994 14.0803418,8.09320825 M9.82256754,3.2552467 C7.1901677,3.2552467 5.07011415,5.43143015 5.07011415,8.09320825 C5.07011415,10.7729713 7.20783482,12.9311698 9.82256754,12.9311698 C12.4549674,12.9311698 14.5750209,10.7549863 14.5750209,8.09320825 C14.592688,5.43143015 12.4549674,3.2552467 9.82256754,3.2552467" id="Fill-1" fill="#FFFFFF"></path>
                        <path d="M12.4196331,8.77663776 C12.4196331,8.77663776 11.924954,8.68671282 11.6776144,8.30902809 C11.5186104,8.07522326 11.5009433,7.75149349 11.5892788,7.35582378 C11.7482828,6.72634922 11.6069459,6.16881462 11.2182695,5.79112989 C10.829593,5.41344516 10.2289111,5.28755025 9.69889775,5.44941514 C9.13355013,5.62926501 8.74487365,6.11485966 8.60353674,6.7623192 C8.51520118,7.19395889 8.35619716,7.48171869 8.10885758,7.62559858 C7.77318243,7.82343344 7.40217306,7.69753853 7.38450595,7.67955354 C7.26083616,7.62559858 7.10183214,7.69753853 7.06649791,7.84141843 C7.01349658,7.96731334 7.08416503,8.12917822 7.22550193,8.1651482 C7.24316904,8.1651482 7.82618377,8.38096804 8.35619716,8.07522326 C8.74487365,7.85940342 8.99221323,7.44574871 9.11588302,6.85224414 C9.20421858,6.38463447 9.46922528,6.0609047 9.85790176,5.93500979 C10.211244,5.82709987 10.6175876,5.89903982 10.8825943,6.15082964 C11.147601,6.40261946 11.2182695,6.78030419 11.1122668,7.21194388 C10.9709299,7.75149349 11.0239312,8.21910316 11.2712708,8.59678789 C11.6422802,9.17230748 12.3312976,9.2802174 12.3666318,9.2802174 L12.401966,9.2802174 C12.5256358,9.2802174 12.6316385,9.19029246 12.6493056,9.06439755 C12.6493056,8.92051766 12.5433029,8.79462275 12.4196331,8.77663776" id="Fill-3" fill="#FFFFFF"></path>
                        <g id="Group-7" transform="translate(1.000000, 0.000000)">
                            <mask id="mask-2" fill="white">
                                <use xlink:href="#path-1"></use>
                            </mask>
                            <g id="Clip-6"></g>
                            <path d="M13.8576947,9.69387211 C13.1863444,11.8700556 11.1899607,13.4527344 8.84023465,13.4527344 C6.66717975,13.4527344 4.79446578,12.1038604 3.9994457,10.1794668 C3.734439,9.53200722 3.5931021,8.83059272 3.5931021,8.09320825 C3.5931021,7.35582378 3.734439,6.65440928 3.9994457,6.00694974 C4.79446578,4.08255611 6.66717975,2.73368208 8.84023465,2.73368208 C11.1899607,2.73368208 13.1863444,4.31636095 13.8576947,6.49254439 C14.0166987,6.99612403 14.0873672,7.53567365 14.0873672,8.07522326 C14.0873672,8.65074285 13.9990316,9.19029246 13.8576947,9.69387211 M17.656124,2.35599735 C17.656124,2.24808742 17.6207898,2.15816249 17.5501213,2.08622254 L17.3557831,1.88838768 L17.5501213,1.69055282 C17.6914582,1.54667293 17.6914582,1.2948831 17.5501213,1.15100321 L17.3557831,0.953168349 L17.5501213,0.75533349 C17.656124,0.647423568 17.6914582,0.485558683 17.6384569,0.341678786 C17.5854556,0.197798889 17.4441187,0.107873953 17.2851146,0.107873953 L16.3487577,0.107873953 L1.31404453,0.107873953 L0.377687541,0.107873953 C0.218683524,0.107873953 0.0773466205,0.197798889 0.0243452817,0.341678786 C-0.0286560572,0.485558683 0.0066781687,0.647423568 0.112680846,0.75533349 L0.307019089,0.953168349 L0.112680846,1.15100321 C-0.0286560572,1.2948831 -0.0286560572,1.54667293 0.112680846,1.69055282 L0.307019089,1.88838768 L0.112680846,2.08622254 C0.0420123946,2.15816249 0.0066781687,2.26607241 0.0066781687,2.35599735 C0.0066781687,2.46390727 0.0420123946,2.55383221 0.112680846,2.62577215 L0.307019089,2.82360701 L0.112680846,3.02144187 C-0.0286560572,3.16532177 -0.0286560572,3.41711159 0.112680846,3.56099149 L0.307019089,3.75882634 L0.112680846,3.9566612 C0.0420123946,4.02860115 0.0066781687,4.13651108 0.0066781687,4.22643601 C0.0066781687,4.31636095 0.0420123946,4.42427087 0.112680846,4.49621082 L0.307019089,4.69404568 L0.112680846,4.89188054 C-0.0286560572,5.03576043 -0.0286560572,5.28755025 0.112680846,5.43143015 L0.307019089,5.62926501 L0.112680846,5.82709987 C0.0420123946,5.89903982 0.0066781687,6.00694974 0.0066781687,6.09687467 C0.0066781687,6.2047846 0.0420123946,6.29470953 0.112680846,6.36664948 L0.307019089,6.56448434 L0.112680846,6.7623192 C-0.0286560572,6.9061991 -0.0286560572,7.15798892 0.112680846,7.30186881 L0.307019089,7.49970367 L0.112680846,7.69753853 C0.0420123946,7.76947848 0.0066781687,7.8773884 0.0066781687,7.96731334 C0.0066781687,8.07522326 0.0420123946,8.1651482 0.112680846,8.23708815 L0.307019089,8.434923 L0.112680846,8.63275786 C-0.0286560572,8.77663776 -0.0286560572,9.02842758 0.112680846,9.17230748 L0.307019089,9.37014234 L0.112680846,9.5679772 C0.0420123946,9.63991714 0.0066781687,9.74782707 0.0066781687,9.837752 C0.0066781687,9.94566193 0.0420123946,10.0355869 0.112680846,10.1075268 L0.307019089,10.3053617 L0.112680846,10.5031965 C-0.0286560572,10.6470764 -0.0286560572,10.8988662 0.112680846,11.0427461 L0.307019089,11.240581 L0.112680846,11.4384159 C0.0420123946,11.5103558 0.0066781687,11.6182657 0.0066781687,11.7081907 C0.0066781687,11.7981156 0.0420123946,11.9060255 0.112680846,11.9779655 L0.307019089,12.1758003 L0.112680846,12.3736352 C-0.0286560572,12.5175151 -0.0286560572,12.7693049 0.112680846,12.9131848 L0.307019089,13.1110197 L0.112680846,13.3088545 C0.0420123946,13.3807945 0.0066781687,13.4887044 0.0066781687,13.5786293 C0.0066781687,13.6865393 0.0420123946,13.7764642 0.112680846,13.8484041 L0.307019089,14.046239 L0.112680846,14.2440739 C0.0420123946,14.3160138 0.0066781687,14.4239237 0.0066781687,14.5138487 C0.0066781687,14.6217586 0.0420123946,14.7116835 0.112680846,14.7836235 L0.307019089,14.9814583 L0.112680846,15.1792932 C0.0066781687,15.2872031 -0.0286560572,15.449068 0.0243452817,15.5929479 C0.0773466205,15.7368278 0.218683524,15.8267527 0.377687541,15.8267527 L1.31404453,15.8267527 L16.3487577,15.8267527 L17.2851146,15.8267527 C17.4441187,15.8267527 17.5854556,15.7368278 17.6384569,15.5929479 C17.6914582,15.449068 17.656124,15.2872031 17.5501213,15.1792932 L17.3557831,14.9814583 L17.5501213,14.7836235 C17.6207898,14.7116835 17.656124,14.6037736 17.656124,14.5138487 C17.656124,14.4059387 17.6207898,14.3160138 17.5501213,14.2440739 L17.3557831,14.046239 L17.5501213,13.8484041 C17.6207898,13.7764642 17.656124,13.6685543 17.656124,13.5786293 C17.656124,13.4707194 17.6207898,13.3807945 17.5501213,13.3088545 L17.3557831,13.1110197 L17.5501213,12.9131848 C17.6914582,12.7693049 17.6914582,12.5175151 17.5501213,12.3736352 L17.3557831,12.1758003 L17.5501213,11.9779655 C17.6207898,11.9060255 17.656124,11.7981156 17.656124,11.7081907 C17.656124,11.6182657 17.6207898,11.5103558 17.5501213,11.4384159 L17.3557831,11.240581 L17.5501213,11.0427461 C17.6914582,10.8988662 17.6914582,10.6470764 17.5501213,10.5031965 L17.3557831,10.3053617 L17.5501213,10.1075268 C17.6207898,10.0355869 17.656124,9.92767694 17.656124,9.837752 C17.656124,9.72984208 17.6207898,9.63991714 17.5501213,9.5679772 L17.3557831,9.37014234 L17.5501213,9.17230748 C17.6914582,9.02842758 17.6914582,8.77663776 17.5501213,8.63275786 L17.3557831,8.434923 L17.5501213,8.23708815 C17.6207898,8.1651482 17.656124,8.05723827 17.656124,7.96731334 C17.656124,7.85940342 17.6207898,7.76947848 17.5501213,7.69753853 L17.3557831,7.49970367 L17.5501213,7.30186881 C17.6914582,7.15798892 17.6914582,6.9061991 17.5501213,6.7623192 L17.3557831,6.56448434 L17.5501213,6.36664948 C17.6207898,6.29470953 17.656124,6.18679961 17.656124,6.09687467 C17.656124,5.98896475 17.6207898,5.89903982 17.5501213,5.82709987 L17.3557831,5.62926501 L17.5501213,5.43143015 C17.6914582,5.28755025 17.6914582,5.03576043 17.5501213,4.89188054 L17.3557831,4.69404568 L17.5501213,4.49621082 C17.6207898,4.42427087 17.656124,4.31636095 17.656124,4.22643601 C17.656124,4.13651108 17.6207898,4.02860115 17.5501213,3.9566612 L17.3557831,3.75882634 L17.5501213,3.56099149 C17.6914582,3.41711159 17.6914582,3.16532177 17.5501213,3.02144187 L17.3557831,2.82360701 L17.5501213,2.62577215 C17.6207898,2.57181719 17.656124,2.46390727 17.656124,2.35599735" id="Fill-5" fill="#FFFFFF" mask="url(#mask-2)"></path>
                        </g>
                    </g>
                </g>
            </g>
        </g>
    </g>
</svg>