<?xml version="1.0" encoding="UTF-8" standalone="no"?>
<svg width="15px" height="10px" viewBox="0 0 15 10" version="1.1" xmlns="http://www.w3.org/2000/svg" xmlns:xlink="http://www.w3.org/1999/xlink" xmlns:sketch="http://www.bohemiancoding.com/sketch/ns">
    <!-- Generator: Sketch 3.3.2 (12043) - http://www.bohemiancoding.com/sketch -->
    <title>painel-icone</title>
    <desc>Created with Sketch.</desc>
    <defs></defs>
    <g id="GdS-md" stroke="none" stroke-width="1" fill="none" fill-rule="evenodd" sketch:type="MSPage">
        <g id="13---diario-da-saude" sketch:type="MSArtboardGroup" transform="translate(-15.000000, -101.000000)" fill="#FFFFFF">
            <g id="menu" sketch:type="MSLayerGroup" transform="translate(0.000000, 62.000000)">
                <g id="Menu" transform="translate(0.000000, 22.000000)" sketch:type="MSShapeGroup">
                    <g id="Painel-de-controle">
                        <path d="M20.5935714,20.9921429 L20.6114286,21.0217714 C20.4957143,20.9228571 20.3271429,20.8971429 20.1868,20.9742857 C20.0468,21.0510571 19.9853429,21.2032 20.0171429,21.3474857 L19.9989143,21.3182286 C20.5228571,25.0424857 21.1618,26.1 21.1742857,26.1189143 C21.6857143,26.9607143 22.8189429,27.2489143 23.7046571,26.7632 C24.5903714,26.2774857 24.8946286,25.2010571 24.3828571,24.3592857 C24.3710571,24.3396286 23.7271429,23.285 20.5935714,20.9921429 L20.5935714,20.9921429 Z M29.9642857,25.2039143 C29.9860857,24.9717714 30,24.7374857 30,24.5 C30,20.3574857 26.6421429,17 22.5,17 C18.3578571,17 15,20.3574857 15,24.5 C15,24.7374857 15.0139143,24.9717714 15.0357143,25.2039143 C15.0357143,25.2071429 15.0335714,25.21 15.0335714,25.2139143 C15.0335714,25.2157143 15.0346286,25.2174857 15.0346286,25.2196286 C15.0342857,25.2214286 15.0335714,25.2232 15.0335714,25.2253429 C15.0335714,25.4224857 15.1932,25.5824857 15.3907143,25.5824857 C15.3886857,25.5824857 17.7145143,25.5824857 20.4852857,25.5825143 C20.2346571,24.8637143 19.8823429,23.566 19.5745429,21.3779143 L19.5869143,21.3734 C19.5451429,21.0590286 19.6977429,20.7537143 19.9806857,20.5985143 C20.0971143,20.5345429 20.2292857,20.5006 20.3625714,20.5006 C20.5330286,20.5006 20.6992857,20.5549429 20.8374,20.6547143 L20.8466286,20.6462857 C23.9778571,22.9374 24.6804286,24.0223714 24.7502286,24.1385714 C25.0173714,24.5779714 25.1147143,25.0843143 25.0312857,25.5825714 C27.5686286,25.5826286 29.6113143,25.5827143 29.6092857,25.5828571 C29.8067714,25.5828571 29.9664286,25.4228571 29.9664286,25.2257143 C29.9664286,25.2235714 29.9657143,25.2217714 29.9653429,25.22 C29.9653429,25.2178571 29.9664286,25.2160571 29.9664286,25.2142857 C29.9664286,25.2107143 29.9642857,25.2078571 29.9642857,25.2039143 L29.9642857,25.2039143 Z M18.7156,20.4646571 C18.5142,20.6660571 18.1876571,20.6660571 17.9862571,20.4646571 C17.7848571,20.2632571 17.7848571,19.9367143 17.9862571,19.7353143 C18.1876571,19.5339143 18.5142,19.5339143 18.7156,19.7353143 C18.917,19.9367143 18.917,20.2632571 18.7156,20.4646571 L18.7156,20.4646571 Z M22.5,18.8971143 C22.2151714,18.8971143 21.9842857,18.6662 21.9842857,18.3813714 C21.9842857,18.0965429 22.2151714,17.8656571 22.5,17.8656571 C22.7848286,17.8656571 23.0157143,18.0965429 23.0157143,18.3813714 C23.0157143,18.6662 22.7848286,18.8971143 22.5,18.8971143 L22.5,18.8971143 Z M27.0137429,20.4646571 C26.8123429,20.6660571 26.4858,20.6660571 26.2844,20.4646571 C26.083,20.2632571 26.083,19.9367143 26.2844,19.7353143 C26.4858,19.5339143 26.8123429,19.5339143 27.0137429,19.7353143 C27.2151429,19.9367143 27.2151429,20.2632571 27.0137429,20.4646571 L27.0137429,20.4646571 Z" id="painel-icone"></path>
                    </g>
                </g>
            </g>
        </g>
    </g>
</svg>