<?xml version="1.0" encoding="UTF-8" standalone="no"?>
<svg width="24px" height="20px" viewBox="0 0 24 20" version="1.1" xmlns="http://www.w3.org/2000/svg" xmlns:xlink="http://www.w3.org/1999/xlink" xmlns:sketch="http://www.bohemiancoding.com/sketch/ns">
    <!-- Generator: Sketch 3.3.2 (12043) - http://www.bohemiancoding.com/sketch -->
    <title>Imported Layers</title>
    <desc>Created with Sketch.</desc>
    <defs></defs>
    <g id="GdS-md" stroke="none" stroke-width="1" fill="none" fill-rule="evenodd" sketch:type="MSPage">
        <g id="14---dicas-de-saude" sketch:type="MSArtboardGroup" transform="translate(-254.000000, -135.000000)" fill="#1E88E5">
            <g id="content" sketch:type="MSLayerGroup" transform="translate(224.000000, 1.000000)">
                <g id="Urgencias-e-emergencias" transform="translate(15.000000, 125.000000)" sketch:type="MSShapeGroup">
                    <path d="M25.6650794,13.7580952 L27.4828571,13.7580952 L27.4828571,9 L25.6650794,9 L25.6650794,13.7580952 Z M33.8304762,21.0434921 L38.4939683,20.1012698 L38.1349206,18.3209524 L33.4704762,19.2631746 L33.8304762,21.0434921 L33.8304762,21.0434921 Z M35.5866667,13.1098413 L34.3015873,11.8257143 L30.9371429,15.1898413 L32.2222222,16.4746032 L35.5866667,13.1098413 L35.5866667,13.1098413 Z M20.0231746,19.2631746 L15.3590476,18.3209524 L15,20.1012698 L19.6631746,21.0434921 L20.0231746,19.2631746 L20.0231746,19.2631746 Z M32.832381,25.7349206 L31.2209524,16.9711111 C31.0479365,16.0215873 30.0155556,15.3079365 28.9044444,15.3079365 L25.1647619,15.3079365 C24.0530159,15.3079365 23.0228571,16.0215873 22.8498413,16.9711111 L21.2368254,25.7349206 C21.2257143,25.7977778 21.2279365,25.8561905 21.2203175,26.6415873 L19.0292063,26.6415873 L19.0292063,28.6895238 L35.0396825,28.6895238 L35.0396825,26.6415873 L32.8488889,26.6415873 C32.8419048,25.8561905 32.844127,25.7977778 32.832381,25.7349206 L32.832381,25.7349206 Z M26.8136508,25.655873 L26.8136508,16.5987302 L28.4844444,16.5987302 C29.3460317,16.5987302 30.1463492,17.1511111 30.2809524,17.8873016 L31.5311111,24.6847619 C31.5409524,24.7349206 31.5380952,24.784127 31.5438095,25.655873 L26.8136508,25.655873 L26.8136508,25.655873 Z M22.5565079,15.1898413 L19.191746,11.8257143 L17.9073016,13.1098413 L21.2714286,16.4746032 L22.5565079,15.1898413 L22.5565079,15.1898413 Z" id="Imported-Layers"></path>
                </g>
            </g>
        </g>
    </g>
</svg>