<?xml version="1.0" encoding="UTF-8" standalone="no"?>
<svg width="15px" height="14px" viewBox="0 0 15 14" version="1.1" xmlns="http://www.w3.org/2000/svg" xmlns:xlink="http://www.w3.org/1999/xlink" xmlns:sketch="http://www.bohemiancoding.com/sketch/ns">
    <!-- Generator: Sketch 3.3.2 (12043) - http://www.bohemiancoding.com/sketch -->
    <title>Diario icon</title>
    <desc>Created with Sketch.</desc>
    <defs></defs>
    <g id="GdS-md" stroke="none" stroke-width="1" fill="none" fill-rule="evenodd" sketch:type="MSPage">
        <g id="13---diario-da-saude" sketch:type="MSArtboardGroup" transform="translate(-15.000000, -190.000000)" fill="#FFFFFF">
            <g id="menu" sketch:type="MSLayerGroup" transform="translate(0.000000, 62.000000)">
                <g id="Menu" transform="translate(0.000000, 22.000000)" sketch:type="MSShapeGroup">
                    <g id="Diario-da-saúde" transform="translate(0.000000, 90.000000)">
                        <path d="M16.2501052,16 L28.7500752,16 C29.0918656,16 29.3853183,16.1230085 29.6315157,16.3686647 C29.8769915,16.6146817 30,16.9084952 30,17.2502856 L30,18.5000301 C30,18.8418205 29.8769915,19.1358143 29.6315157,19.3814706 C29.3853183,19.6271268 29.0918656,19.7503156 28.7500752,19.7503156 L16.2501052,19.7503156 C15.9079541,19.7503156 15.6145013,19.6271268 15.3686647,19.3814706 C15.1230085,19.1358143 15,18.8418205 15,18.5000301 L15,17.2502856 C15,16.9084952 15.1230085,16.6146817 15.3686647,16.3686647 C15.6145013,16.1230085 15.9079541,16 16.2501052,16 L16.2501052,16 Z M16.2501052,21.0002405 L28.7500752,21.0002405 C29.0918656,21.0002405 29.3853183,21.123249 29.6315157,21.3687248 C29.8769915,21.6145614 30,21.9081946 30,22.2501653 L30,23.4999098 C30,23.842061 29.8769915,24.1358745 29.6315157,24.3813503 C29.3853183,24.6271869 29.0918656,24.750015 28.7500752,24.750015 L16.2501052,24.750015 C15.9079541,24.750015 15.6145013,24.6271869 15.3686647,24.3813503 C15.1230085,24.1358745 15,23.842061 15,23.4999098 L15,22.2501653 C15,21.9081946 15.1230085,21.6145614 15.3686647,21.3687248 C15.6145013,21.123249 15.9079541,21.0002405 16.2501052,21.0002405 L16.2501052,21.0002405 Z M16.2501052,26.0001202 L28.7500752,26.0001202 C29.0918656,26.0001202 29.3853183,26.1231287 29.6315157,26.3686046 C29.8769915,26.6144412 30,26.9082547 30,27.2500451 L30,28.5001503 C30,28.8419407 29.8769915,29.1353935 29.6315157,29.3814104 C29.3853183,29.6274274 29.0918656,29.7502555 28.7500752,29.7502555 L16.2501052,29.7502555 C15.9079541,29.7502555 15.6145013,29.6274274 15.3686647,29.3814104 C15.1230085,29.1353935 15,28.8419407 15,28.5001503 L15,27.2500451 C15,26.9082547 15.1230085,26.6144412 15.3686647,26.3686046 C15.6145013,26.1231287 15.9079541,26.0001202 16.2501052,26.0001202 L16.2501052,26.0001202 Z M22.4999098,23.4999098 L28.7500752,23.4999098 L28.7500752,22.249985 L22.4999098,22.249985 L22.4999098,23.4999098 Z M24.9999399,28.5001503 L28.7500752,28.5001503 L28.7500752,27.2500451 L24.9999399,27.2500451 L24.9999399,28.5001503 Z M26.2504058,18.5000301 L28.7502555,18.5000301 L28.7502555,17.2502856 L26.2504058,17.2502856 L26.2504058,18.5000301 Z" id="Diario-icon"></path>
                    </g>
                </g>
            </g>
        </g>
    </g>
</svg>