<?xml version="1.0" encoding="UTF-8" standalone="no"?>
<svg width="20px" height="20px" viewBox="0 0 20 20" version="1.1" xmlns="http://www.w3.org/2000/svg" xmlns:xlink="http://www.w3.org/1999/xlink" xmlns:sketch="http://www.bohemiancoding.com/sketch/ns">
    <!-- Generator: Sketch 3.3.2 (12043) - http://www.bohemiancoding.com/sketch -->
    <title>Imported Layers</title>
    <desc>Created with Sketch.</desc>
    <defs></defs>
    <g id="GdS-md" stroke="none" stroke-width="1" fill="none" fill-rule="evenodd" sketch:type="MSPage">
        <g id="14---dicas-de-saude" sketch:type="MSArtboardGroup" transform="translate(-254.000000, -335.000000)" fill="#1E88E5">
            <g id="content" sketch:type="MSLayerGroup" transform="translate(224.000000, 1.000000)">
                <g id="Cuidados-básicos" transform="translate(15.000000, 325.000000)" sketch:type="MSShapeGroup">
                    <path d="M33.745,12.6267647 L30.98,9.86147059 C30.4238235,9.30558824 29.6855882,9 28.8994118,9 C28.1126471,9 27.3729412,9.30558824 26.8188235,9.86147059 L15.8623529,20.8173529 C15.3061765,21.3723529 15,22.1108824 15,22.8982353 C15,23.6841176 15.3061765,24.4229412 15.8620588,24.9788235 L18.6273529,27.7441176 C19.1835294,28.3011765 19.9226471,28.6067647 20.7094118,28.6067647 C21.4952941,28.6067647 22.2344118,28.3011765 22.7897059,27.7452941 L33.7464706,16.7891176 C34.3017647,16.2335294 34.6076471,15.4947059 34.6076471,14.7085294 C34.6076471,13.9226471 34.3011765,13.1826471 33.745,12.6267647 L33.745,12.6267647 Z M24.6017647,15.5864706 C24.3661765,15.3505882 24.3661765,14.9682353 24.6023529,14.7320588 C24.8379412,14.4961765 25.2208824,14.4961765 25.4564706,14.7320588 C25.6926471,14.9679412 25.6926471,15.3505882 25.4564706,15.5864706 C25.2205882,15.8226471 24.8379412,15.8226471 24.6017647,15.5864706 L24.6017647,15.5864706 Z M23.5220588,16.6679412 C23.7588235,16.9038235 23.7582353,17.285 23.5220588,17.5211765 C23.2861765,17.7570588 22.9044118,17.7570588 22.6676471,17.5211765 C22.4320588,17.2852941 22.4320588,16.9041176 22.6676471,16.6679412 C22.9035294,16.4317647 23.2861765,16.4305882 23.5220588,16.6679412 L23.5220588,16.6679412 Z M21.5882353,18.6020588 C21.8241176,18.8382353 21.8238235,19.2205882 21.5876471,19.4555882 C21.3514706,19.6926471 20.9691176,19.6926471 20.7332353,19.4555882 C20.4976471,19.2191176 20.4976471,18.8382353 20.7332353,18.6020588 C20.9685294,18.3661765 21.3514706,18.3647059 21.5882353,18.6020588 L21.5882353,18.6020588 Z M25.4564706,16.4611765 C25.6935294,16.6973529 25.6926471,17.0785294 25.4564706,17.3147059 C25.2208824,17.5505882 24.8379412,17.5505882 24.6017647,17.3147059 C24.3661765,17.0788235 24.3661765,16.6973529 24.6017647,16.4611765 C24.8379412,16.2252941 25.2208824,16.2252941 25.4564706,16.4611765 L25.4564706,16.4611765 Z M23.5220588,18.3955882 C23.7582353,18.6314706 23.7582353,19.0138235 23.5220588,19.25 C23.2861765,19.4858824 22.9044118,19.4858824 22.6676471,19.2485294 C22.4317647,19.0126471 22.4317647,18.6314706 22.6679412,18.3952941 C22.9035294,18.1594118 23.2861765,18.1594118 23.5220588,18.3955882 L23.5220588,18.3955882 Z M27.165,16.4423529 C27.4014706,16.6782353 27.4008824,17.0597059 27.1655882,17.2955882 C26.9294118,17.5317647 26.5470588,17.5317647 26.3108824,17.2955882 C26.0747059,17.0597059 26.0747059,16.6785294 26.3108824,16.4411765 C26.5470588,16.2064706 26.9294118,16.205 27.165,16.4423529 L27.165,16.4423529 Z M25.2311765,18.3755882 C25.4670588,18.6114706 25.4670588,18.9941176 25.2311765,19.23 C24.9947059,19.4661765 24.6129412,19.4661765 24.3767647,19.23 C24.1405882,18.9941176 24.1405882,18.6117647 24.3767647,18.3755882 C24.6129412,18.1391176 24.9947059,18.1397059 25.2311765,18.3755882 L25.2311765,18.3755882 Z M23.2967647,20.3097059 C23.5323529,20.5458824 23.5323529,20.9294118 23.2958824,21.1644118 C23.0605882,21.4005882 22.6782353,21.4005882 22.4423529,21.1644118 C22.2061765,20.9282353 22.2061765,20.5458824 22.4423529,20.3097059 C22.6782353,20.0741176 23.0608824,20.0741176 23.2967647,20.3097059 L23.2967647,20.3097059 Z M27.1655882,18.1702941 C27.4014706,18.4061765 27.4008824,18.7885294 27.165,19.0235294 C26.9294118,19.2608824 26.5470588,19.2597059 26.3108824,19.0235294 C26.0747059,18.7876471 26.0747059,18.4064706 26.3108824,18.1691176 C26.5470588,17.9341176 26.9294118,17.9341176 27.1655882,18.1702941 L27.1655882,18.1702941 Z M25.2302941,20.1032353 C25.4670588,20.3397059 25.4670588,20.7217647 25.2302941,20.9579412 C24.9947059,21.1941176 24.6129412,21.1941176 24.3767647,20.9579412 C24.14,20.7217647 24.14,20.3397059 24.3758824,20.1032353 C24.6129412,19.8673529 24.9947059,19.8673529 25.2302941,20.1032353 L25.2302941,20.1032353 Z M28.8747059,18.15 C29.1105882,18.3858824 29.1094118,18.7685294 28.8747059,19.0044118 C28.6379412,19.2402941 28.2558824,19.2402941 28.0191176,19.0044118 C27.7832353,18.7670588 27.7838235,18.3858824 28.0191176,18.15 C28.2552941,17.9141176 28.6379412,17.9129412 28.8747059,18.15 L28.8747059,18.15 Z M26.94,20.0847059 C27.1758824,20.3205882 27.1752941,20.7029412 26.9394118,20.9391176 C26.7035294,21.175 26.3214706,21.175 26.085,20.9391176 C25.8497059,20.7029412 25.8485294,20.3205882 26.085,20.0847059 C26.3214706,19.8485294 26.7035294,19.8485294 26.94,20.0847059 L26.94,20.0847059 Z M25.0055882,22.0188235 C25.2417647,22.255 25.2411765,22.6373529 25.0055882,22.8735294 C24.7697059,23.1094118 24.3873529,23.1094118 24.1511765,22.8735294 C23.9141176,22.6373529 23.9152941,22.255 24.1511765,22.0188235 C24.3864706,21.7829412 24.7697059,21.7829412 25.0055882,22.0188235 L25.0055882,22.0188235 Z" id="Imported-Layers"></path>
                </g>
            </g>
        </g>
    </g>
</svg>