<?xml version="1.0" encoding="UTF-8" standalone="no"?>
<svg width="10px" height="16px" viewBox="0 0 10 16" version="1.1" xmlns="http://www.w3.org/2000/svg" xmlns:xlink="http://www.w3.org/1999/xlink" xmlns:sketch="http://www.bohemiancoding.com/sketch/ns">
    <!-- Generator: Sketch 3.3.2 (12043) - http://www.bohemiancoding.com/sketch -->
    <title>Fill 2</title>
    <desc>Created with Sketch.</desc>
    <defs></defs>
    <g id="GdS-md" stroke="none" stroke-width="1" fill="none" fill-rule="evenodd" sketch:type="MSPage">
        <path d="M9.50555173,5.25115456 C9.50555173,2.62685467 7.37737054,0.5 4.75233369,0.5 C2.12773902,0.5 0,2.62685467 0,5.25115456 C0,6.00167043 0.178048541,6.70811634 0.487717402,7.33909797 L0.481674364,7.33909797 L4.30706495,15.2265894 L4.31207625,15.2243785 C4.39549966,15.3859192 4.5585143,15.5 4.75233369,15.5 C4.94615309,15.5 5.11034686,15.3851823 5.19347548,15.2234942 L5.19804461,15.2259998 L5.2132259,15.1935737 L5.21396286,15.1929842 L9.02299302,7.33909797 L9.0166552,7.33909797 C9.32676624,6.70811634 9.50555173,6.00167043 9.50555173,5.25115456 L9.50555173,5.25115456 Z M4.75233369,7.0311978 C3.76982411,7.0311978 2.97405915,6.2344011 2.97405915,5.25159674 C2.97405915,4.27115063 3.76982411,3.4749435 4.75233369,3.4749435 C5.73454849,3.4749435 6.53060823,4.27115063 6.53060823,5.25159674 C6.53060823,6.2344011 5.73454849,7.0311978 4.75233369,7.0311978 L4.75233369,7.0311978 Z" id="Fill-2" fill="#FFFFFF" sketch:type="MSShapeGroup"></path>
    </g>
</svg>