<?xml version="1.0" encoding="UTF-8" standalone="no"?>
<svg width="132px" height="132px" viewBox="0 0 132 132" version="1.1" xmlns="http://www.w3.org/2000/svg" xmlns:xlink="http://www.w3.org/1999/xlink" xmlns:sketch="http://www.bohemiancoding.com/sketch/ns">
    <!-- Generator: Sketch 3.3.2 (12043) - http://www.bohemiancoding.com/sketch -->
    <title>Foto Copy</title>
    <desc>Created with Sketch.</desc>
    <defs></defs>
    <g id="GdS-md" stroke="none" stroke-width="1" fill="none" fill-rule="evenodd" sketch:type="MSPage">
        <g id="07---quem-vai-participar" sketch:type="MSArtboardGroup" transform="translate(-284.000000, -532.000000)">
            <g id="content" sketch:type="MSLayerGroup">
                <g id="Familiares" transform="translate(285.000000, 474.000000)" sketch:type="MSShapeGroup">
                    <g id="Familiar-item-Copy" transform="translate(0.000000, 59.000000)">
                        <g id="Foto-Copy">
                            <path d="M129.923082,64.9648934 C129.923082,100.845048 100.840219,129.923082 64.962379,129.923082 C29.0823038,129.923082 0,100.845048 0,64.9648934 C0,29.0830624 29.0823038,0 64.962379,0 C100.840219,0 129.923082,29.0830624 129.923082,64.9648934" id="Mask" stroke="#FFFFFF" stroke-width="2"></path>
                            <path d="M66.6115702,67.5964187 L66.6115702,97.4699283 L63.3884298,97.4699283 L63.3884298,67.5964187 L33.5149202,67.5964187 L33.5149202,64.3732782 L63.3884298,64.3732782 L63.3884298,34.4997687 L66.6115702,34.4997687 L66.6115702,64.3732782 L96.4850798,64.3732782 L96.4850798,67.5964187 L66.6115702,67.5964187 Z" id="Fill-2-Copy" fill="#FFFFFF"></path>
                        </g>
                    </g>
                </g>
            </g>
        </g>
    </g>
</svg>