<?xml version="1.0" encoding="UTF-8" standalone="no"?>
<svg width="32px" height="48px" viewBox="0 0 32 48" version="1.1" xmlns="http://www.w3.org/2000/svg" xmlns:xlink="http://www.w3.org/1999/xlink" xmlns:sketch="http://www.bohemiancoding.com/sketch/ns">
    <!-- Generator: Sketch 3.3.2 (12043) - http://www.bohemiancoding.com/sketch -->
    <title>btn_google</title>
    <desc>Created with Sketch.</desc>
    <defs></defs>
    <g id="Smartphone" stroke="none" stroke-width="1" fill="none" fill-rule="evenodd" sketch:type="MSPage">
        <g id="botoes-sociais" sketch:type="MSLayerGroup" transform="translate(-38.000000, -131.000000)" fill="#FFFFFF">
            <g id="default" sketch:type="MSShapeGroup">
                <g id="btn_google_default" transform="translate(0.000000, 110.000000)">
                    <path d="M63.1590359,48.107132 L60.8574455,46.3620736 C60.1557582,45.7975451 59.1984011,45.0477698 59.1984011,43.6758554 C59.1984011,42.3007326 60.1557582,41.4234606 60.9862638,40.6123084 C63.6677065,38.5539485 66.3492898,36.3637677 66.3492898,31.7430594 C66.3492898,26.9930411 63.4397109,24.6997749 61.9719974,23.5129678 L65.7564729,23.5129678 L69.8907385,21.0026504 L56.5786281,21 C53.1284901,21 48.4764228,21.3537544 44.8355158,24.2899443 C42.0924032,26.5995312 41.1919396,29.9943742 41.1919396,32.8679316 C41.1919396,37.736798 45.0236157,42.6734581 51.7912806,42.6734581 C52.4307362,42.6734581 53.1303163,42.6112442 53.8352346,42.5498672 C53.517052,43.2986661 53.195779,43.9248505 53.195779,44.9862533 C53.195779,46.9211618 54.2169131,48.107132 55.1124599,49.2317252 C52.2399671,49.4219937 46.8731482,49.7333423 42.9178515,52.1061196 C39.1462999,54.2954634 38,57.477998 38,59.7284398 C38,64.3531934 42.2855603,68.7074698 51.5457252,68.7074698 C62.5267448,68.7074698 68.5205168,62.7282385 68.5205168,56.8568353 C68.5205168,52.5452438 65.9676113,50.4199272 63.1590359,48.107132 L63.1590359,48.107132 Z M54.7942774,41.082679 C49.3021521,41.082679 46.8114784,34.1477806 46.8114784,29.9636857 C46.8114784,28.3376149 47.1293799,26.4967248 48.2141505,25.1840949 C49.2387966,23.9336789 51.0245521,23.2784799 52.6869679,23.2784799 C57.9848122,23.2784799 60.730032,30.2750343 60.730032,34.7729886 C60.730032,35.8977213 60.6028995,37.736798 59.1350455,39.1769246 C58.1103995,40.1772294 56.3895448,41.082679 54.7942774,41.082679 L54.7942774,41.082679 Z M54.8493448,66.0409201 C48.0183243,66.0409201 43.6108291,62.8536428 43.6108291,58.4176234 C43.6108291,53.981325 47.6967703,52.4837273 49.1012687,51.9840631 C51.7829924,51.108744 55.2328495,50.9825028 55.808809,50.9825028 C56.4448931,50.9825028 56.7643399,50.9825028 57.2730105,51.0465301 C62.1297541,54.4217047 64.2369231,56.1031542 64.2369231,59.2946164 C64.2369231,63.162062 60.9775541,66.0409201 54.8493448,66.0409201 L54.8493448,66.0409201 Z" id="btn_google"></path>
                </g>
            </g>
        </g>
    </g>
</svg>