<?xml version="1.0" encoding="UTF-8" standalone="no"?>
<svg width="44px" height="36px" viewBox="0 0 44 36" version="1.1" xmlns="http://www.w3.org/2000/svg" xmlns:xlink="http://www.w3.org/1999/xlink" xmlns:sketch="http://www.bohemiancoding.com/sketch/ns">
    <!-- Generator: Sketch 3.3.2 (12043) - http://www.bohemiancoding.com/sketch -->
    <title>btn_twitter</title>
    <desc>Created with Sketch.</desc>
    <defs></defs>
    <g id="Smartphone" stroke="none" stroke-width="1" fill="none" fill-rule="evenodd" sketch:type="MSPage">
        <g id="botoes-sociais" sketch:type="MSLayerGroup" transform="translate(-32.000000, -248.000000)" fill="#5E9FCB">
            <g id="default" sketch:type="MSShapeGroup">
                <g id="btn_twitter_default" transform="translate(0.000000, 221.000000)">
                    <path d="M61.9763427,27 C57.070478,27 53.093302,31.0140928 53.093302,35.9651749 C53.093302,36.667837 53.1718541,37.3519574 53.323257,38.0082655 C45.9407834,37.6343969 39.39546,34.0651422 35.0141207,28.6409301 C34.2495046,29.9650548 33.8116082,31.5051251 33.8116082,33.1482929 C33.8116082,36.2584836 35.3797998,39.0026378 37.7632864,40.6104807 C36.3072216,40.5639669 34.9374691,40.1606875 33.739866,39.4890347 C33.7392325,39.5265974 33.7390742,39.5640002 33.7390742,39.6018826 C33.7390742,43.9457278 36.801023,47.5693285 40.8646697,48.3928305 C40.1192164,48.5975872 39.3344871,48.7072382 38.5244184,48.7072382 C37.9519065,48.7072382 37.3955485,48.6509741 36.8531271,48.546438 C37.9834224,52.1081801 41.2639235,54.7003253 45.1509862,54.7727334 C42.1108926,57.177225 38.2806851,58.6105213 34.1190067,58.6105213 C33.4020603,58.6105213 32.6949328,58.5680036 32,58.4853656 C35.93109,61.029079 40.6003481,62.5132048 45.6167559,62.5132048 C61.9557545,62.5132048 70.8904242,48.8520544 70.8904242,37.0046224 C70.8904242,36.6160484 70.8817138,36.2293925 70.8647681,35.8449743 C72.6001997,34.58079 74.1061515,33.0017185 75.2971029,31.2038243 C73.704047,31.9168761 71.9922127,32.3989572 70.1951746,32.6155421 C72.0292715,31.5060841 73.437825,29.7491093 74.1009252,27.6555089 C72.3846565,28.6829683 70.4835686,29.4291072 68.4602181,29.8312677 C66.8399223,28.0886786 64.531187,27 61.9763427,27" id="btn_twitter"></path>
                </g>
            </g>
        </g>
    </g>
</svg>