<?xml version="1.0" encoding="UTF-8" standalone="no"?>
<svg width="206px" height="60px" viewBox="0 0 206 60" version="1.1" xmlns="http://www.w3.org/2000/svg" xmlns:xlink="http://www.w3.org/1999/xlink" xmlns:sketch="http://www.bohemiancoding.com/sketch/ns">
    <!-- Generator: sketchtool 3.5.2 (25235) - http://www.bohemiancoding.com/sketch -->
    <title>bttn_googleplay</title>
    <desc>Created with sketchtool.</desc>
    <defs></defs>
    <g id="GdS-md" stroke="none" stroke-width="1" fill="none" fill-rule="evenodd" sketch:type="MSPage">
        <g id="01--home-search" sketch:type="MSArtboardGroup" transform="translate(-818.000000, -2328.000000)">
            <g id="available" sketch:type="MSLayerGroup" transform="translate(-2.000000, 1996.000000)">
                <g id="text" transform="translate(594.000000, 106.000000)" sketch:type="MSShapeGroup">
                    <g id="stores" transform="translate(0.000000, 226.000000)">
                        <g id="Rectangle-1-+-Fill-1-+-google-play" transform="translate(226.000000, 0.000000)">
                            <rect id="Rectangle-1" stroke="#FFFFFF" stroke-width="1.44" x="0" y="0" width="206" height="60" rx="12"></rect>
                            <path d="M136.430128,35.9146726 L135.055976,37.2291667 C134.738406,37.4061012 134.422539,37.6115179 134.107522,37.757381 C133.153109,38.1966964 132.182518,38.3071726 131.320055,38.3071726 C130.402251,38.3071726 128.963394,38.246756 127.495589,37.1704762 C125.456498,35.7144345 124.565087,33.2114583 124.565087,31.0304167 C124.565087,26.5147024 128.191178,24.3 131.148925,24.3 C132.182518,24.3 133.244208,24.562381 134.107522,25.115625 C135.542974,26.0779762 135.914183,27.3286012 136.12022,27.9983631 L129.366104,30.7645833 L127.154179,30.9389286 C127.870202,34.6416071 130.340951,36.7950298 133.071375,36.7950298 C134.43531,36.7950298 135.447618,36.343631 136.37649,35.8784226 C136.37649,35.8784226 136.562946,35.7800298 136.430128,35.9146726 L136.430128,35.9146726 Z M132.355351,28.549881 C132.90365,28.3479167 133.188867,28.1735714 133.188867,27.7679167 C133.188867,26.6044643 131.89049,25.260625 130.340951,25.260625 C129.19327,25.260625 127.038389,26.166875 127.038389,29.3137202 C127.038389,29.8048214 127.096284,30.3278571 127.125232,30.8508929 L132.355351,28.549881 Z M122.308039,35.6894048 C122.308039,36.8209226 122.507265,36.996994 123.451462,37.0858929 C123.943569,37.1445833 124.433972,37.1704762 124.919267,37.2291667 L123.856726,37.8704464 L118.79348,37.8704464 C119.457568,36.996994 119.571655,36.9098214 119.571655,36.3280952 L119.571655,35.6781845 L119.560587,18.3610417 L117.324824,18.3610417 L119.47715,17.3097917 L123.585983,17.3097917 C122.695423,17.8328274 122.428937,18.1513095 122.31485,19.170625 L122.308039,35.6894048 Z M114.455622,25.7292857 C115.115453,26.2790774 116.492159,27.4459821 116.492159,29.6589583 C116.492159,31.8158333 115.292544,32.8325595 114.082711,33.7949107 C113.711503,34.1738095 113.277292,34.5846429 113.277292,35.219881 C113.277292,35.8646131 113.711503,36.2141667 114.023965,36.4748214 L115.061816,37.286994 C116.323583,38.3667262 117.473818,39.3566964 117.473818,41.3677083 C117.473818,44.1071726 114.858332,46.8699405 109.915984,46.8699405 C105.752662,46.8699405 103.739964,44.8597917 103.739964,42.7046429 C103.739964,41.6559821 104.255058,40.1705952 105.954443,39.153006 C107.735561,38.0491071 110.148415,37.9015179 111.440833,37.8152083 C111.037271,37.286994 110.576667,36.73375 110.576667,35.8309524 C110.576667,35.3372619 110.723106,35.0429464 110.864438,34.6959821 C110.550273,34.7261905 110.233554,34.7572619 109.945783,34.7572619 C106.89864,34.7572619 105.176268,32.4527976 105.176268,30.181994 C105.176268,28.8424702 105.779056,27.3562202 107.016984,26.2790774 C108.655068,24.9119345 110.608168,24.6763095 112.160261,24.6763095 L118.080862,24.6763095 L116.240146,25.7292857 L114.455622,25.7292857 Z M112.419937,38.6593155 C112.1841,38.628244 112.042769,38.628244 111.758403,38.628244 C111.497876,38.628244 109.945783,38.6852083 108.743613,39.0943155 C108.107621,39.3299405 106.269459,40.0264583 106.269459,42.0952976 C106.269459,44.1598214 108.254061,45.6486607 111.324191,45.6486607 C114.082711,45.6486607 115.547111,44.3082738 115.547111,42.5035417 C115.547111,41.0181548 114.599508,40.2344643 112.419937,38.6593155 L112.419937,38.6593155 Z M113.24579,33.1251488 C113.909878,32.4527976 113.967773,31.5241071 113.967773,30.996756 C113.967773,28.9020238 112.735804,25.6395238 110.347641,25.6395238 C109.602671,25.6395238 108.795548,26.0184226 108.337498,26.6044643 C107.851351,27.2112202 107.705763,27.9983631 107.705763,28.7552976 C107.705763,30.7058929 108.827901,33.9407738 111.296095,33.9407738 C112.016376,33.9407738 112.791145,33.5860417 113.24579,33.1251488 Z M96.6427355,38.246756 C92.0758525,38.246756 89.6323488,34.6416071 89.6323488,31.377381 C89.6323488,27.5633631 92.7041821,24.3 97.0735414,24.3 C101.297312,24.3 103.942596,27.6522619 103.942596,31.1719643 C103.942596,34.6096726 101.327962,38.246756 96.6427355,38.246756 Z M100.235623,35.890506 C100.930361,34.9583631 101.098937,33.7949107 101.098937,32.6608036 C101.098937,30.0956845 99.8933617,25.2036607 96.3302735,25.2036607 C95.3826708,25.2036607 94.428257,25.5791071 93.7403298,26.1919048 C92.6181912,27.2112202 92.4181133,28.4920536 92.4181133,29.7487202 C92.4181133,32.6262798 93.8212123,37.3724405 97.303418,37.3724405 C98.4272595,37.3724405 99.5740886,36.8209226 100.235623,35.890506 Z M81.3525321,38.246756 C76.7847978,38.246756 74.345551,34.6416071 74.345551,31.377381 C74.345551,27.5633631 77.4182357,24.3 81.7858922,24.3 C86.0071087,24.3 88.6498389,27.6522619 88.6498389,31.1719643 C88.6498389,34.6096726 86.0386104,38.246756 81.3525321,38.246756 Z M84.9462705,35.890506 C85.6359005,34.9583631 85.8078823,33.7949107 85.8078823,32.6608036 C85.8078823,30.0956845 84.5989014,25.2036607 81.0392187,25.2036607 C80.0882105,25.2036607 79.1440134,25.5791071 78.4543834,26.1919048 C77.330542,27.2112202 77.1313155,28.4920536 77.1313155,29.7487202 C77.1313155,32.6262798 78.5403743,37.3724405 82.0166202,37.3724405 C83.1379075,37.3724405 84.2830338,36.8209226 84.9462705,35.890506 Z M72.5193086,37.2360714 L68.6675975,38.1302381 C67.1069904,38.3796726 65.7055942,38.5988988 64.2216127,38.5988988 C56.7923396,38.5988988 53.9614511,33.0552381 53.9614511,28.7164583 C53.9614511,23.4179167 57.9723731,18.5051786 64.8414283,18.5051786 C66.2947596,18.5051786 67.6927502,18.7218155 68.9664372,19.0739583 C70.9850948,19.6487798 71.9292919,20.357381 72.5193086,20.7725298 L70.2818425,22.9268155 L69.3384968,23.1408631 L70.0110989,22.0542262 C69.1001062,21.1522917 67.4254122,19.487381 64.2471545,19.487381 C59.9978419,19.487381 56.7923396,22.7619643 56.7923396,27.5426488 C56.7923396,32.6772024 60.4524869,37.5070833 66.3228556,37.5070833 C68.0477819,37.5070833 68.935787,37.1558036 69.7420581,36.8278274 L69.7420581,32.4260417 L65.674944,32.6478571 L67.8306762,31.4740476 L73.5384285,31.4740476 L72.8402846,32.1550298 C72.6521263,32.3172917 72.6265844,32.3725298 72.5737979,32.5900298 C72.5457019,32.8386012 72.5193086,33.6291964 72.5193086,33.9071131 L72.5193086,37.2360714 Z M144.711648,36.0389583 L144.711648,43.4572619 L143.258316,43.4572619 L143.258316,24.580506 L144.711648,24.580506 L144.711648,26.7304762 C145.658399,25.3408929 147.388434,24.2395833 149.397726,24.2395833 C153.001681,24.2395833 155.429008,27.0109821 155.429008,31.3980952 C155.429008,35.7558631 153.001681,38.5850893 149.397726,38.5850893 C147.500818,38.5850893 145.801433,37.5933929 144.711648,36.0389583 Z M153.86755,31.3980952 C153.86755,28.0915774 152.167314,25.5696131 149.152524,25.5696131 C147.280306,25.5696131 145.489823,27.0610417 144.711648,28.3617262 L144.711648,34.404256 C145.489823,35.7075298 147.280306,37.2533333 149.152524,37.2533333 C152.167314,37.2533333 153.86755,34.7097917 153.86755,31.3980952 Z M157.41361,19.3682738 L158.86609,19.3682738 L158.86609,38.2450298 L157.41361,38.2450298 L157.41361,19.3682738 Z M175.17371,42.2368452 C175.48447,42.3775298 176.014889,42.4638393 176.35119,42.4638393 C177.240046,42.4638393 177.85901,42.0952976 178.414971,40.79375 L179.474958,38.3589583 L173.750178,24.580506 L175.371234,24.580506 L180.282081,36.5205655 L185.145249,24.580506 L186.789293,24.580506 L179.807002,41.2503274 C179.082465,42.9678869 177.942447,43.793869 176.376732,43.793869 C175.906761,43.793869 175.286946,43.7092857 174.924252,43.5962202 L175.17371,42.2368452 Z M170.928655,38.2044643 C170.831596,37.730625 170.758376,37.3128869 170.704738,36.9641964 C170.660465,36.616369 170.634923,36.2607738 170.634923,35.8991369 C170.136857,36.6405357 169.431051,37.2576488 168.529424,37.7435714 C167.626945,38.2329464 166.76959,38.4728869 165.593813,38.4728869 C164.177944,38.4728869 163.078793,38.119881 162.294658,37.4035119 C161.513077,36.688006 161.119733,35.71875 161.119733,34.4922917 C161.119733,33.2675595 161.689316,32.2732738 162.825077,31.5128869 C163.960838,30.7490476 165.428643,30.3692857 167.24552,30.3692857 L170.634923,30.3692857 L170.634923,28.6715774 C170.634923,27.6936905 170.306285,26.9246726 169.649859,26.3671131 C168.99088,25.8086905 168.066265,25.5264583 166.8675,25.5264583 C165.771755,25.5264583 164.882899,25.7845238 164.20604,26.2868452 C163.53514,26.7995238 163.197136,27.4347619 163.197136,28.2003274 L161.709749,28.2003274 L161.679099,28.1269643 C161.625461,27.0947024 162.091174,26.1893155 163.081347,25.4073512 C164.067262,24.62625 165.358828,24.2335417 166.948383,24.2335417 C168.532829,24.2335417 169.81503,24.6202083 170.781363,25.3918155 C171.746845,26.1556548 172.231289,27.2595536 172.231289,28.7026488 L172.231289,35.4434226 C172.231289,35.927619 172.254277,36.3954167 172.313874,36.851131 C172.375175,37.3077083 172.473085,37.7634226 172.603349,38.2044643 L170.928655,38.2044643 Z M165.771755,37.1307738 C167.006278,37.1307738 167.893431,36.851131 168.800167,36.2978869 C169.700943,35.7480952 170.313948,35.0308631 170.634923,34.1625893 L170.634923,31.5387798 L167.229343,31.5387798 C165.928412,31.5387798 164.851397,31.830506 164.004259,32.4191369 C163.155418,33.0060417 162.725464,33.716369 162.725464,34.5423512 C162.725464,35.3217262 162.99791,35.944881 163.539397,36.416994 C164.082587,36.8942857 164.825004,37.1307738 165.771755,37.1307738 L165.771755,37.1307738 Z" id="Fill-1" fill="#FFFFFF"></path>
                            <path d="M18.7373108,43.3980897 C18.2695686,43.2718544 17.9651163,42.8065678 17.9651163,42.0865578 L17.9651163,18.3200879 C17.9651163,17.653249 18.2229005,17.2035147 18.6315383,17.04 L18.6315383,17.04 L30.2882365,30.284716 L18.7373108,43.3980897 L18.7373108,43.3980897 Z M20.3419391,42.8936037 L34.3729249,34.9258706 L30.9554789,31.0428583 L20.3419391,42.8936037 L20.3419391,42.8936037 Z M34.4695435,25.53782 L20.6340946,17.6792998 L30.9757097,29.504251 L34.4695435,25.53782 L34.4695435,25.53782 Z M35.4082675,26.0710143 L40.8282346,29.1495498 C41.8544404,29.7324336 41.8638252,30.672036 40.8282346,31.2601136 L35.2711476,34.4157996 L31.6465135,30.2712707 L35.4082675,26.0710143 L35.4082675,26.0710143 Z" id="google-play" fill="#FFFFFF"></path>
                        </g>
                    </g>
                </g>
            </g>
        </g>
    </g>
</svg>