<?xml version="1.0" encoding="UTF-8" standalone="no"?>
<svg width="206px" height="60px" viewBox="0 0 206 60" version="1.1" xmlns="http://www.w3.org/2000/svg" xmlns:xlink="http://www.w3.org/1999/xlink" xmlns:sketch="http://www.bohemiancoding.com/sketch/ns">
    <!-- Generator: Sketch 3.5.2 (25235) - http://www.bohemiancoding.com/sketch -->
    <title>bttn_appstore_hover</title>
    <desc>Created with Sketch.</desc>
    <defs></defs>
    <g id="GdS-md" stroke="none" stroke-width="1" fill="none" fill-rule="evenodd" sketch:type="MSPage">
        <g id="01--home-search" sketch:type="MSArtboardGroup" transform="translate(-592.000000, -2328.000000)">
            <g id="available" sketch:type="MSLayerGroup" transform="translate(-2.000000, 1996.000000)">
                <g id="stores" transform="translate(594.000000, 332.000000)" sketch:type="MSShapeGroup">
                    <g id="Rectangle-1-+-Imported-Layers">
                        <rect id="Rectangle-1" fill="#FFFFFF" x="0" y="0" width="206" height="60" rx="12"></rect>
                        <path d="M37.9527282,19.4985714 C41.8364784,19.4985714 44.3199761,23.2636 44.3199761,23.2636 C44.3199761,23.2636 40.5314924,25.3234286 40.5314924,29.7968857 C40.5314924,35.1063714 45.2907083,36.6508286 45.2907083,36.6508286 C45.2907083,36.6508286 41.5342538,45.5811714 37.3162498,45.5811714 C34.9444439,45.5811714 34.7859402,44.2140286 31.6339349,44.2140286 C28.8966671,44.2140286 27.9735681,45.5811714 25.8883827,45.5811714 C21.9085449,45.5811714 16.7674419,36.8762 16.7674419,29.7968857 C16.7674419,22.4433143 21.9726033,19.4985714 25.2354791,19.4985714 C28.1008638,19.4985714 29.2941581,21.1880286 31.6019056,21.1880286 C33.5441914,21.1880286 35.0725608,19.4985714 37.9527282,19.4985714 L37.9527282,19.4985714 Z M37.2850419,12 C37.8574618,15.6042857 34.594586,20.062 30.6952319,19.917 C30.1219907,15.3308571 34.3243907,12.2419429 37.2850419,12 Z M66.7261741,21.3770028 L59.7112558,39.4287193 L62.1589072,39.4287193 L64.1775887,33.9929783 L71.7981114,33.9929783 L73.7663259,39.4287193 L76.4158454,39.4287193 L69.3756936,21.3770028 L66.7261741,21.3770028 Z M64.9345943,31.970377 L67.9878501,23.5512992 L68.0383171,23.5512992 L71.0411059,31.970377 L64.9345943,31.970377 Z M77.904623,26.3576585 L77.904623,44.409375 L80.0494722,44.409375 L80.0494722,37.6842257 L80.0999392,37.6842257 C80.3354532,38.0718929 80.6256358,38.3963486 80.9704956,38.6576026 C81.3153554,38.9188565 81.6812378,39.1253284 82.0681537,39.2770242 C82.4550696,39.4287201 82.8461852,39.5382765 83.2415123,39.6056969 C83.6368394,39.6731173 83.9943107,39.706827 84.3139369,39.706827 C85.3064603,39.706827 86.177008,39.5298512 86.9256061,39.1758942 C87.6742042,38.8219372 88.2966248,38.3373604 88.7928865,37.7221495 C89.2891482,37.1069385 89.6592361,36.386394 89.9031613,35.5604943 C90.1470866,34.7345947 90.2690474,33.8581429 90.2690474,32.9311127 C90.2690474,32.0040824 90.142881,31.1276306 89.8905446,30.301731 C89.6382081,29.4758313 89.2639147,28.7468594 88.767653,28.1147933 C88.2713913,27.4827273 87.6489707,26.9812957 86.9003726,26.6104836 C86.1517744,26.2396715 85.2728156,26.0542683 84.2634698,26.0542683 C83.3550586,26.0542683 82.5223608,26.218603 81.7653515,26.5472773 C81.0083421,26.8759517 80.4532102,27.4026655 80.0999392,28.1274346 L80.0494722,28.1274346 L80.0494722,26.3576585 L77.904623,26.3576585 Z M87.9980307,32.7794176 C87.9980307,33.4199112 87.9307419,34.0435403 87.7961625,34.6503238 C87.6615831,35.2571072 87.4428948,35.7964621 87.140091,36.2684048 C86.8372873,36.7403475 86.4377605,37.1195814 85.9414989,37.406118 C85.4452372,37.6926546 84.8270221,37.8359208 84.0868352,37.8359208 C83.3466483,37.8359208 82.7158166,37.6968683 82.1943213,37.4187593 C81.6728259,37.1406502 81.248066,36.7740574 80.9200286,36.3189698 C80.5919912,35.8638823 80.3522751,35.3371684 80.2008733,34.7388126 C80.0494714,34.1404567 79.9737716,33.5210412 79.9737716,32.8805476 C79.9737716,32.2737642 80.0452659,31.6754173 80.1882565,31.085489 C80.3312472,30.4955607 80.5625521,29.9688468 80.8821783,29.5053317 C81.2018045,29.0418166 81.6139478,28.6667964 82.1186207,28.3802598 C82.6232936,28.0937231 83.2373031,27.950457 83.9606676,27.950457 C84.6503872,27.950457 85.2517801,28.0852957 85.7648642,28.3549772 C86.2779483,28.6246588 86.6985028,28.9870379 87.0265402,29.4421254 C87.3545776,29.897213 87.5984991,30.4154994 87.7583122,30.9970002 C87.9181253,31.578501 87.9980307,32.1726341 87.9980307,32.7794176 Z M92.8680998,26.3576585 L92.8680998,44.409375 L95.012949,44.409375 L95.012949,37.6842257 L95.063416,37.6842257 C95.29893,38.0718929 95.5891126,38.3963486 95.9339724,38.6576026 C96.2788322,38.9188565 96.6447146,39.1253284 97.0316305,39.2770242 C97.4185464,39.4287201 97.809662,39.5382765 98.2049891,39.6056969 C98.6003162,39.6731173 98.9577875,39.706827 99.2774137,39.706827 C100.269937,39.706827 101.140485,39.5298512 101.889083,39.1758942 C102.637681,38.8219372 103.260102,38.3373604 103.756363,37.7221495 C104.252625,37.1069385 104.622713,36.386394 104.866638,35.5604943 C105.110563,34.7345947 105.232524,33.8581429 105.232524,32.9311127 C105.232524,32.0040824 105.106358,31.1276306 104.854021,30.301731 C104.601685,29.4758313 104.227391,28.7468594 103.73113,28.1147933 C103.234868,27.4827273 102.612448,26.9812957 101.863849,26.6104836 C101.115251,26.2396715 100.236292,26.0542683 99.2269466,26.0542683 C98.3185354,26.0542683 97.4858376,26.218603 96.7288282,26.5472773 C95.9718189,26.8759517 95.416687,27.4026655 95.063416,28.1274346 L95.012949,28.1274346 L95.012949,26.3576585 L92.8680998,26.3576585 Z M102.961507,32.7794176 C102.961507,33.4199112 102.894219,34.0435403 102.759639,34.6503238 C102.62506,35.2571072 102.406372,35.7964621 102.103568,36.2684048 C101.800764,36.7403475 101.401237,37.1195814 100.904976,37.406118 C100.408714,37.6926546 99.7904989,37.8359208 99.050312,37.8359208 C98.3101251,37.8359208 97.6792934,37.6968683 97.1577981,37.4187593 C96.6363027,37.1406502 96.2115427,36.7740574 95.8835054,36.3189698 C95.555468,35.8638823 95.3157519,35.3371684 95.1643501,34.7388126 C95.0129482,34.1404567 94.9372484,33.5210412 94.9372484,32.8805476 C94.9372484,32.2737642 95.0087426,31.6754173 95.1517333,31.085489 C95.294724,30.4955607 95.5260289,29.9688468 95.8456551,29.5053317 C96.1652813,29.0418166 96.5774246,28.6667964 97.0820975,28.3802598 C97.5867704,28.0937231 98.2007799,27.950457 98.9241444,27.950457 C99.613864,27.950457 100.215257,28.0852957 100.728341,28.3549772 C101.241425,28.6246588 101.66198,28.9870379 101.990017,29.4421254 C102.318054,29.897213 102.561976,30.4154994 102.721789,30.9970002 C102.881602,31.578501 102.961507,32.1726341 102.961507,32.7794176 Z M125.545507,26.6610487 L127.816524,26.6610487 C127.782879,25.666598 127.593629,24.8112148 127.24877,24.0948733 C126.90391,23.3785317 126.432889,22.7843985 125.835692,22.3124559 C125.238496,21.8405132 124.544581,21.4949889 123.753927,21.2758727 C122.963273,21.0567565 122.105342,20.9472 121.180108,20.9472 C120.355809,20.9472 119.55255,21.0525428 118.770307,21.2632315 C117.988064,21.4739201 117.289944,21.7941621 116.675925,22.2239671 C116.061906,22.653772 115.569858,23.2015544 115.199764,23.8673306 C114.829671,24.5331069 114.644627,25.3210707 114.644627,26.2312459 C114.644627,27.0571455 114.808643,27.7439804 115.13668,28.2917709 C115.464718,28.8395615 115.902094,29.2862149 116.448823,29.6317443 C116.995552,29.9772738 117.613767,30.2553786 118.303487,30.4660673 C118.993207,30.676756 119.695533,30.8621593 120.410486,31.0222827 C121.125439,31.1824061 121.827765,31.3383134 122.517485,31.4900092 C123.207204,31.6417051 123.825419,31.8397495 124.372148,32.0841484 C124.918877,32.3285472 125.356254,32.6445755 125.684291,33.0322427 C126.012329,33.4199099 126.176345,33.9255552 126.176345,34.5491937 C126.176345,35.2065424 126.041768,35.7458974 125.772609,36.1672747 C125.50345,36.5886521 125.150184,36.9215352 124.712801,37.1659341 C124.275418,37.410333 123.783369,37.5830951 123.23664,37.6842257 C122.689911,37.7853563 122.147396,37.8359208 121.609078,37.8359208 C120.936181,37.8359208 120.280116,37.7516466 119.640864,37.5830956 C119.001611,37.4145447 118.442274,37.1532946 117.962835,36.7993376 C117.483395,36.4453806 117.096485,35.9945136 116.802093,35.446723 C116.5077,34.8989324 116.360506,34.2458073 116.360506,33.487328 L114.089489,33.487328 C114.089489,34.5829092 114.28715,35.5309941 114.682477,36.3316111 C115.077804,37.1322281 115.616114,37.7895669 116.297422,38.3036473 C116.978731,38.8177277 117.769373,39.2011754 118.669373,39.4540018 C119.569373,39.7068283 120.524032,39.8332396 121.533377,39.8332396 C122.357677,39.8332396 123.186169,39.7363242 124.018879,39.5424906 C124.851589,39.348657 125.604382,39.0368425 126.277279,38.6070375 C126.950176,38.1772326 127.501103,37.6210228 127.930075,36.9383915 C128.359047,36.2557601 128.573529,35.4340866 128.573529,34.4733461 C128.573529,33.5800261 128.409513,32.8384131 128.081476,32.2484847 C127.753438,31.6585564 127.316062,31.169766 126.769333,30.7820988 C126.222604,30.3944316 125.604389,30.0868307 124.914669,29.8592869 C124.224949,29.6317432 123.522623,29.4336988 122.80767,29.2651478 C122.092717,29.0965969 121.390391,28.9406896 120.700671,28.7974213 C120.010952,28.654153 119.392737,28.4729634 118.846008,28.2538472 C118.299279,28.0347309 117.861902,27.7524123 117.533865,27.4068829 C117.205827,27.0613534 117.041811,26.6104864 117.041811,26.0542683 C117.041811,25.4643399 117.155361,24.9713358 117.382464,24.5752411 C117.609566,24.1791463 117.912366,23.863118 118.29087,23.6271467 C118.669375,23.3911754 119.102546,23.222627 119.590396,23.1214964 C120.078247,23.0203658 120.574501,22.9698013 121.079174,22.9698013 C122.324034,22.9698013 123.345981,23.2605473 124.145047,23.8420481 C124.944112,24.4235489 125.410928,25.3632063 125.545507,26.6610487 Z M134.09967,26.3576585 L134.09967,22.4388685 L131.954821,22.4388685 L131.954821,26.3576585 L129.734271,26.3576585 L129.734271,28.2538472 L131.954821,28.2538472 L131.954821,36.571795 C131.954821,37.1785784 132.013698,37.6673688 132.131455,38.0381809 C132.249212,38.408993 132.430051,38.6955253 132.673976,38.8977865 C132.917901,39.1000476 133.237523,39.2391001 133.63285,39.314948 C134.028177,39.3907959 134.503403,39.4287193 135.058544,39.4287193 L136.698722,39.4287193 L136.698722,37.5325306 L135.714615,37.5325306 C135.378167,37.5325306 135.104806,37.5198895 134.894526,37.4946068 C134.684245,37.4693242 134.520229,37.4145459 134.402472,37.3302705 C134.284715,37.245995 134.20481,37.1280111 134.162754,36.9763152 C134.120698,36.8246194 134.09967,36.6223613 134.09967,36.3695349 L134.09967,28.2538472 L136.698722,28.2538472 L136.698722,26.3576585 L134.09967,26.3576585 Z M138.364135,32.9058301 C138.364135,33.8665706 138.498712,34.7598772 138.767871,35.5857769 C139.03703,36.4116765 139.440762,37.132221 139.97908,37.747432 C140.517398,38.362643 141.181874,38.843006 141.972528,39.1885354 C142.763182,39.5340649 143.67158,39.706827 144.697748,39.706827 C145.740739,39.706827 146.653342,39.5340649 147.435585,39.1885354 C148.217828,38.843006 148.878098,38.362643 149.416416,37.747432 C149.954734,37.132221 150.358466,36.4116765 150.627625,35.5857769 C150.896784,34.7598772 151.031361,33.8665706 151.031361,32.9058301 C151.031361,31.9450897 150.896784,31.0475694 150.627625,30.2132422 C150.358466,29.378915 149.954734,28.6541568 149.416416,28.0389458 C148.878098,27.4237348 148.217828,26.9391581 147.435585,26.5852011 C146.653342,26.2312441 145.740739,26.0542683 144.697748,26.0542683 C143.67158,26.0542683 142.763182,26.2312441 141.972528,26.5852011 C141.181874,26.9391581 140.517398,27.4237348 139.97908,28.0389458 C139.440762,28.6541568 139.03703,29.378915 138.767871,30.2132422 C138.498712,31.0475694 138.364135,31.9450897 138.364135,32.9058301 Z M140.635151,32.9058301 C140.635151,32.1136407 140.74029,31.409951 140.95057,30.79474 C141.160851,30.1795291 141.451033,29.6612427 141.821127,29.2398653 C142.19122,28.8184879 142.624391,28.4982459 143.120653,28.2791297 C143.616915,28.0600135 144.142608,27.950457 144.697748,27.950457 C145.252888,27.950457 145.778581,28.0600135 146.274843,28.2791297 C146.771105,28.4982459 147.204276,28.8184879 147.574369,29.2398653 C147.944463,29.6612427 148.234645,30.1795291 148.444926,30.79474 C148.655206,31.409951 148.760345,32.1136407 148.760345,32.9058301 C148.760345,33.6980196 148.655206,34.4017093 148.444926,35.0169202 C148.234645,35.6321312 147.944463,36.1462039 147.574369,36.5591537 C147.204276,36.9721036 146.771105,37.2881319 146.274843,37.5072481 C145.778581,37.7263643 145.252888,37.8359208 144.697748,37.8359208 C144.142608,37.8359208 143.616915,37.7263643 143.120653,37.5072481 C142.624391,37.2881319 142.19122,36.9721036 141.821127,36.5591537 C141.451033,36.1462039 141.160851,35.6321312 140.95057,35.0169202 C140.74029,34.4017093 140.635151,33.6980196 140.635151,32.9058301 Z M153.479013,26.3576585 L153.479013,39.4287193 L155.623862,39.4287193 L155.623862,33.6137406 C155.623862,32.7709858 155.707973,32.0251591 155.876197,31.3762379 C156.044421,30.7273168 156.313576,30.1753207 156.683669,29.7202331 C157.053763,29.2651455 157.541606,28.9196213 158.147214,28.6836499 C158.752821,28.4476786 159.484586,28.3296947 160.34253,28.3296947 L160.34253,26.0542683 C159.181782,26.0205581 158.222918,26.2565259 157.465909,26.7621787 C156.708899,27.2678316 156.069656,28.0515817 155.548161,29.1134527 L155.497694,29.1134527 L155.497694,26.3576585 L153.479013,26.3576585 Z M172.631254,35.2823867 L170.511638,35.2823867 C170.326591,36.1419965 169.943887,36.7824805 169.363513,37.2038579 C168.783139,37.6252353 168.038758,37.8359208 167.130346,37.8359208 C166.423804,37.8359208 165.809795,37.7179369 165.288299,37.4819656 C164.766804,37.2459942 164.337839,36.9299659 164.00139,36.5338712 C163.664941,36.1377765 163.42102,35.6826957 163.269618,35.1686153 C163.118216,34.6545349 163.050927,34.1109663 163.06775,33.537893 L172.833122,33.537893 C172.866767,32.7457036 172.795272,31.9113889 172.618637,31.0349239 C172.442001,30.158459 172.12238,29.3494266 171.659763,28.6078024 C171.197146,27.8661782 170.583137,27.2551902 169.817716,26.77482 C169.052296,26.2944498 168.089226,26.0542683 166.928478,26.0542683 C166.036889,26.0542683 165.216808,26.2228167 164.46821,26.5599186 C163.719612,26.8970205 163.071958,27.3689561 162.525229,27.9757395 C161.9785,28.5825229 161.55374,29.2988537 161.250936,30.1247534 C160.948133,30.950653 160.796733,31.8608145 160.796733,32.8552651 C160.830378,33.8497157 160.977572,34.7683046 161.23832,35.6110594 C161.499067,36.4538141 161.890183,37.1785723 162.411678,37.7853558 C162.933174,38.3921392 163.576622,38.8640748 164.342043,39.2011767 C165.107463,39.5382786 166.011655,39.706827 167.054646,39.706827 C168.53502,39.706827 169.763039,39.3360205 170.73874,38.5943963 C171.714441,37.8527721 172.345272,36.7487799 172.631254,35.2823867 Z M170.562105,31.6417043 L163.06775,31.6417043 C163.101395,31.1360515 163.210739,30.6599022 163.395786,30.2132422 C163.580832,29.7665822 163.833165,29.3747071 164.152791,29.0376052 C164.472417,28.7005033 164.855122,28.4350395 165.300916,28.2412059 C165.746711,28.0473723 166.24717,27.950457 166.802311,27.950457 C167.340628,27.950457 167.832677,28.0473723 168.278471,28.2412059 C168.724266,28.4350395 169.111176,28.6962896 169.439213,29.0249639 C169.767251,29.3536383 170.027995,29.7455133 170.221452,30.2006009 C170.41491,30.6556885 170.52846,31.1360515 170.562105,31.6417043 Z" id="Imported-Layers" fill="#1976D2"></path>
                    </g>
                </g>
            </g>
        </g>
    </g>
</svg>