<?xml version="1.0" encoding="UTF-8" standalone="no"?>
<svg width="18px" height="21px" viewBox="0 0 18 21" version="1.1" xmlns="http://www.w3.org/2000/svg" xmlns:xlink="http://www.w3.org/1999/xlink" xmlns:sketch="http://www.bohemiancoding.com/sketch/ns">
    <!-- Generator: Sketch 3.3.2 (12043) - http://www.bohemiancoding.com/sketch -->
    <title>icon_cluster</title>
    <desc>Created with Sketch.</desc>
    <defs></defs>
    <g id="GdS-md" stroke="none" stroke-width="1" fill="none" fill-rule="evenodd" sketch:type="MSPage">
        <g id="icon_cluster" sketch:type="MSLayerGroup" transform="translate(-3.000000, -1.000000)">
            <rect id="Rectangle-558" sketch:type="MSShapeGroup" x="0" y="0" width="24" height="24"></rect>
            <path d="M10.01,20.01 C10.01,21.11 10.9,22 12,22 C13.1,22 13.99,21.11 13.99,20.01 L10.01,20.01 L10.01,20.01 Z M18.88,15.82 L18.88,10 C18.88,6.75 16.63,4.03 13.59,3.31 L13.59,2.59 C13.59,1.71 12.88,1 12,1 C11.12,1 10.41,1.71 10.41,2.59 L10.41,3.31 C7.37,4.03 5.12,6.75 5.12,10 L5.12,15.82 L3,17.94 L3,19 L21,19 L21,17.94 L18.88,15.82 L18.88,15.82 Z M16,12.01 L13,12.01 L13,15.01 L11,15.01 L11,12.01 L8,12.01 L8,10 L11,10 L11,7 L13,7 L13,10 L16,10 L16,12.01 L16,12.01 Z" id="Imported-Layers" fill="#FFFFFF" sketch:type="MSShapeGroup"></path>
        </g>
    </g>
</svg>