<?xml version="1.0" encoding="UTF-8" standalone="no"?>
<svg width="80px" height="80px" viewBox="0 0 80 80" version="1.1" xmlns="http://www.w3.org/2000/svg" xmlns:xlink="http://www.w3.org/1999/xlink" xmlns:sketch="http://www.bohemiancoding.com/sketch/ns">
    <!-- Generator: Sketch 3.3.2 (12043) - http://www.bohemiancoding.com/sketch -->
    <title>icon_sinusoid</title>
    <desc>Created with Sketch.</desc>
    <defs></defs>
    <g id="GdS-md" stroke="none" stroke-width="1" fill="none" fill-rule="evenodd" sketch:type="MSPage">
        <g id="icon_sinusoid" sketch:type="MSLayerGroup">
            <circle id="Oval-129" fill="#1E88E5" sketch:type="MSShapeGroup" cx="40" cy="40" r="40"></circle>
            <g id="Imported-Layers" transform="translate(21.000000, 18.000000)" fill="#FFFFFF" sketch:type="MSShapeGroup">
                <path d="M0.89673913,23.0923739 L43.9299826,23.0923739 L43.9299826,24.5684874 L0.89673913,24.5684874 L0.89673913,23.0923739 Z" id="Fill-1"></path>
                <path d="M0.00573913043,0.0692016807 L1.49370435,0.0692016807 L1.49370435,44.9527311 L0.00573913043,44.9527311 L0.00573913043,0.0692016807 Z" id="Fill-2"></path>
                <path d="M4.06732174,19.9933298 C4.70532174,19.9933298 5.22241739,20.5044958 5.22241739,21.135063 C5.22241739,21.7656303 4.70532174,22.2767962 4.06732174,22.2767962 C3.42932174,22.2767962 2.91213043,21.7656303 2.91213043,21.135063 C2.91213043,20.5044958 3.42932174,19.9933298 4.06732174,19.9933298" id="Fill-3"></path>
                <path d="M4.65108696,16.4619643 C5.28908696,16.4619643 5.80627826,16.9731303 5.80627826,17.6036975 C5.80627826,18.2342647 5.28908696,18.7454307 4.65108696,18.7454307 C4.01308696,18.7454307 3.4959913,18.2342647 3.4959913,17.6036975 C3.4959913,16.9731303 4.01308696,16.4619643 4.65108696,16.4619643" id="Fill-4"></path>
                <path d="M5.78370435,12.9288971 C6.42170435,12.9288971 6.93889565,13.440063 6.93889565,14.0706303 C6.93889565,14.7011975 6.42170435,15.2123634 5.78370435,15.2123634 C5.1458,15.2123634 4.6286087,14.7011975 4.6286087,14.0706303 C4.6286087,13.440063 5.1458,12.9288971 5.78370435,12.9288971" id="Fill-5"></path>
                <path d="M7.39305217,9.5124895 C8.03105217,9.5124895 8.54824348,10.0236555 8.54824348,10.6542227 C8.54824348,11.2847899 8.03105217,11.7959559 7.39305217,11.7959559 C6.75505217,11.7959559 6.23786087,11.2847899 6.23786087,10.6542227 C6.23786087,10.0236555 6.75505217,9.5124895 7.39305217,9.5124895" id="Fill-6"></path>
                <path d="M9.84767826,6.6762605 C10.4856783,6.6762605 11.0028696,7.18742647 11.0028696,7.8179937 C11.0028696,8.44856092 10.4856783,8.95972689 9.84767826,8.95972689 C9.20967826,8.95972689 8.69248696,8.44856092 8.69248696,7.8179937 C8.69248696,7.18742647 9.20967826,6.6762605 9.84767826,6.6762605" id="Fill-7"></path>
                <path d="M12.3023043,9.5124895 C12.9403043,9.5124895 13.4574957,10.0236555 13.4574957,10.6542227 C13.4574957,11.2847899 12.9403043,11.7959559 12.3023043,11.7959559 C11.6643043,11.7959559 11.147113,11.2847899 11.147113,10.6542227 C11.147113,10.0236555 11.6643043,9.5124895 12.3023043,9.5124895" id="Fill-8"></path>
                <path d="M13.9116522,12.9288971 C14.5495565,12.9288971 15.0667478,13.440063 15.0667478,14.0706303 C15.0667478,14.7011975 14.5495565,15.2123634 13.9116522,15.2123634 C13.2736522,15.2123634 12.7564609,14.7011975 12.7564609,14.0706303 C12.7564609,13.440063 13.2736522,12.9288971 13.9116522,12.9288971" id="Fill-9"></path>
                <path d="M15.0442696,16.4619643 C15.6821739,16.4619643 16.1993652,16.9731303 16.1993652,17.6036975 C16.1993652,18.2342647 15.6821739,18.7454307 15.0442696,18.7454307 C14.4062696,18.7454307 13.8890783,18.2342647 13.8890783,17.6036975 C13.8890783,16.9731303 14.4062696,16.4619643 15.0442696,16.4619643" id="Fill-10"></path>
                <path d="M15.6280348,19.9933298 C16.2660348,19.9933298 16.7832261,20.5044958 16.7832261,21.135063 C16.7832261,21.7656303 16.2660348,22.2767962 15.6280348,22.2767962 C14.9900348,22.2767962 14.4728435,21.7656303 14.4728435,21.135063 C14.4728435,20.5044958 14.9900348,19.9933298 15.6280348,19.9933298" id="Fill-11"></path>
                <path d="M29.049087,19.9921008 C29.687087,19.9921008 30.2042783,20.5032668 30.2042783,21.133834 C30.2042783,21.7644013 29.687087,22.2755672 29.049087,22.2755672 C28.411087,22.2755672 27.8939913,21.7644013 27.8939913,21.133834 C27.8939913,20.5032668 28.411087,19.9921008 29.049087,19.9921008" id="Fill-12"></path>
                <path d="M29.6329478,16.4607353 C30.2709478,16.4607353 30.7881391,16.9719013 30.7881391,17.6024685 C30.7881391,18.2330357 30.2709478,18.7442017 29.6329478,18.7442017 C28.9949478,18.7442017 28.4777565,18.2330357 28.4777565,17.6024685 C28.4777565,16.9719013 28.9949478,16.4607353 29.6329478,16.4607353" id="Fill-13"></path>
                <path d="M30.7655652,12.9276681 C31.4035652,12.9276681 31.9207565,13.438834 31.9207565,14.0694013 C31.9207565,14.6998739 31.4035652,15.2110399 30.7655652,15.2110399 C30.1275652,15.2110399 29.6103739,14.6998739 29.6103739,14.0694013 C29.6103739,13.438834 30.1275652,12.9276681 30.7655652,12.9276681" id="Fill-14"></path>
                <path d="M32.374913,9.5112605 C33.012913,9.5112605 33.5300087,10.0224265 33.5300087,10.6529937 C33.5300087,11.2834664 33.012913,11.7947269 32.374913,11.7947269 C31.736913,11.7947269 31.2197217,11.2834664 31.2197217,10.6529937 C31.2197217,10.0224265 31.736913,9.5112605 32.374913,9.5112605" id="Fill-15"></path>
                <path d="M34.8294435,6.67503151 C35.4674435,6.67503151 35.9846348,7.18619748 35.9846348,7.81676471 C35.9846348,8.44733193 35.4674435,8.9584979 34.8294435,8.9584979 C34.1915391,8.9584979 33.6743478,8.44733193 33.6743478,7.81676471 C33.6743478,7.18619748 34.1915391,6.67503151 34.8294435,6.67503151" id="Fill-16"></path>
                <path d="M37.2841652,9.5112605 C37.9221652,9.5112605 38.4392609,10.0224265 38.4392609,10.6529937 C38.4392609,11.2834664 37.9221652,11.7947269 37.2841652,11.7947269 C36.6461652,11.7947269 36.1289739,11.2834664 36.1289739,10.6529937 C36.1289739,10.0224265 36.6461652,9.5112605 37.2841652,9.5112605" id="Fill-17"></path>
                <path d="M38.8934174,12.9276681 C39.5314174,12.9276681 40.0486087,13.438834 40.0486087,14.0694013 C40.0486087,14.6998739 39.5314174,15.2110399 38.8934174,15.2110399 C38.2554174,15.2110399 37.7382261,14.6998739 37.7382261,14.0694013 C37.7382261,13.438834 38.2554174,12.9276681 38.8934174,12.9276681" id="Fill-18"></path>
                <path d="M40.0260348,16.4607353 C40.6640348,16.4607353 41.1812261,16.9719013 41.1812261,17.6024685 C41.1812261,18.2330357 40.6640348,18.7442017 40.0260348,18.7442017 C39.3880348,18.7442017 38.8708435,18.2330357 38.8708435,17.6024685 C38.8708435,16.9719013 39.3880348,16.4607353 40.0260348,16.4607353" id="Fill-19"></path>
                <path d="M40.6098957,19.9921008 C41.2478957,19.9921008 41.765087,20.5032668 41.765087,21.133834 C41.765087,21.7644013 41.2478957,22.2755672 40.6098957,22.2755672 C39.9718957,22.2755672 39.4547043,21.7644013 39.4547043,21.133834 C39.4547043,20.5032668 39.9718957,19.9921008 40.6098957,19.9921008" id="Fill-20"></path>
                <path d="M16.5582522,27.668666 C17.1961565,27.668666 17.7133478,27.1575 17.7133478,26.5269328 C17.7133478,25.8963655 17.1961565,25.3851996 16.5582522,25.3851996 C15.9202522,25.3851996 15.4030609,25.8963655 15.4030609,26.5269328 C15.4030609,27.1575 15.9202522,27.668666 16.5582522,27.668666" id="Fill-21"></path>
                <path d="M17.1420174,31.2000315 C17.7800174,31.2000315 18.2972087,30.6888655 18.2972087,30.0582983 C18.2972087,29.4277311 17.7800174,28.9165651 17.1420174,28.9165651 C16.5040174,28.9165651 15.9868261,29.4277311 15.9868261,30.0582983 C15.9868261,30.6888655 16.5040174,31.2000315 17.1420174,31.2000315" id="Fill-22"></path>
                <path d="M18.2746348,34.7330987 C18.9126348,34.7330987 19.4298261,34.2219328 19.4298261,33.5913655 C19.4298261,32.9608929 18.9126348,32.4497269 18.2746348,32.4497269 C17.6366348,32.4497269 17.1195391,32.9608929 17.1195391,33.5913655 C17.1195391,34.2219328 17.6366348,34.7330987 18.2746348,34.7330987" id="Fill-23"></path>
                <path d="M19.8839826,38.1495063 C20.5219826,38.1495063 21.0391739,37.6383403 21.0391739,37.0077731 C21.0391739,36.3773004 20.5219826,35.8661345 19.8839826,35.8661345 C19.2459826,35.8661345 18.7287913,36.3773004 18.7287913,37.0077731 C18.7287913,37.6383403 19.2459826,38.1495063 19.8839826,38.1495063" id="Fill-24"></path>
                <path d="M22.3386087,40.9857353 C22.9766087,40.9857353 23.4938,40.4745693 23.4938,39.8440021 C23.4938,39.2134349 22.9766087,38.7023634 22.3386087,38.7023634 C21.7006087,38.7023634 21.1834174,39.2134349 21.1834174,39.8440021 C21.1834174,40.4745693 21.7006087,40.9857353 22.3386087,40.9857353" id="Fill-25"></path>
                <path d="M24.7932348,38.1495063 C25.4312348,38.1495063 25.9484261,37.6383403 25.9484261,37.0077731 C25.9484261,36.3773004 25.4312348,35.8661345 24.7932348,35.8661345 C24.1552348,35.8661345 23.6380435,36.3773004 23.6380435,37.0077731 C23.6380435,37.6383403 24.1552348,38.1495063 24.7932348,38.1495063" id="Fill-26"></path>
                <path d="M26.402487,34.7330987 C27.040487,34.7330987 27.5576783,34.2219328 27.5576783,33.5913655 C27.5576783,32.9608929 27.040487,32.4497269 26.402487,32.4497269 C25.7645826,32.4497269 25.2473913,32.9608929 25.2473913,33.5913655 C25.2473913,34.2219328 25.7645826,34.7330987 26.402487,34.7330987" id="Fill-27"></path>
                <path d="M27.5352,31.2000315 C28.1731043,31.2000315 28.6902957,30.6888655 28.6902957,30.0582983 C28.6902957,29.4277311 28.1731043,28.9165651 27.5352,28.9165651 C26.8972,28.9165651 26.3800087,29.4277311 26.3800087,30.0582983 C26.3800087,30.6888655 26.8972,31.2000315 27.5352,31.2000315" id="Fill-28"></path>
                <path d="M28.1189652,27.668666 C28.7569652,27.668666 29.2741565,27.1575 29.2741565,26.5269328 C29.2741565,25.8963655 28.7569652,25.3851996 28.1189652,25.3851996 C27.4809652,25.3851996 26.9637739,25.8963655 26.9637739,26.5269328 C26.9637739,27.1575 27.4809652,27.668666 28.1189652,27.668666" id="Fill-29"></path>
            </g>
        </g>
    </g>
</svg>