<?xml version="1.0" encoding="UTF-8" standalone="no"?>
<svg width="52px" height="52px" viewBox="0 0 52 52" version="1.1" xmlns="http://www.w3.org/2000/svg" xmlns:xlink="http://www.w3.org/1999/xlink" xmlns:sketch="http://www.bohemiancoding.com/sketch/ns">
    <!-- Generator: sketchtool 3.5.2 (25235) - http://www.bohemiancoding.com/sketch -->
    <title>icon_news_twitter</title>
    <desc>Created with sketchtool.</desc>
    <defs></defs>
    <g id="GdS-md" stroke="none" stroke-width="1" fill="none" fill-rule="evenodd" sketch:type="MSPage">
        <g id="15---noticias" sketch:type="MSArtboardGroup" transform="translate(-613.000000, -257.000000)" fill="#5E9FCB">
            <g id="content" sketch:type="MSLayerGroup" transform="translate(-82.000000, 62.000000)">
                <g id="Content" transform="translate(425.000000, 195.000000)" sketch:type="MSShapeGroup">
                    <path d="M295.360197,16.5149286 C295.360197,17.2606786 295.443467,17.98675 295.603964,18.6833036 C287.778088,18.2865089 280.839642,14.4983839 276.195153,8.74155357 C275.384613,10.146875 274.920416,11.7813839 274.920416,13.5253125 C274.920416,16.8262232 276.582796,19.7386518 279.109438,21.4450893 C277.56592,21.3957232 276.113898,20.9677143 274.844365,20.254875 C274.843693,20.2947411 274.843526,20.3344375 274.843526,20.3746429 C274.843526,24.9848571 278.08938,28.8306607 282.397095,29.7046607 C281.606869,29.9219732 280.775007,30.0383482 279.916285,30.0383482 C279.309387,30.0383482 278.719613,29.9786339 278.144613,29.8676875 C279.342796,33.6478393 282.820328,36.3989375 286.940854,36.4757857 C283.718168,39.0277232 279.657912,40.5489107 275.246277,40.5489107 C274.48627,40.5489107 273.736672,40.5037857 273,40.4160804 C277.167197,43.1157768 282.116898,44.6909107 287.434599,44.6909107 C304.754942,44.6909107 314.226241,30.1920446 314.226241,17.6181161 C314.226241,17.2057143 314.217007,16.7953482 314.199044,16.3873571 C316.038708,15.0456518 317.635109,13.36975 318.897591,11.4616071 C317.208854,12.2183839 315.394204,12.7300268 313.489234,12.9598929 C315.433489,11.7824018 316.926642,9.9176875 317.629569,7.69570536 C315.810219,8.78616964 313.794949,9.5780625 311.650073,10.0048839 C309.93246,8.1554375 307.485058,7 304.776766,7 C299.576248,7 295.360197,11.2602411 295.360197,16.5149286 Z" id="Imported-Layers-Copy"></path>
                </g>
            </g>
        </g>
    </g>
</svg>