<?xml version="1.0" encoding="UTF-8" standalone="no"?>
<svg width="10px" height="16px" viewBox="0 0 10 16" version="1.1" xmlns="http://www.w3.org/2000/svg" xmlns:xlink="http://www.w3.org/1999/xlink" xmlns:sketch="http://www.bohemiancoding.com/sketch/ns">
    <!-- Generator: Sketch 3.3.2 (12043) - http://www.bohemiancoding.com/sketch -->
    <title>icon_healthtips</title>
    <desc>Created with Sketch.</desc>
    <defs></defs>
    <g id="GdS-md" stroke="none" stroke-width="1" fill="none" fill-rule="evenodd" sketch:type="MSPage">
        <g id="menu" sketch:type="MSLayerGroup" transform="translate(-87.000000, -3.000000)" fill="#FFFFFF">
            <path d="M93.4000022,16.4740034 C93.3077536,16.4086886 93.031681,16.9076393 92.1324251,16.9487135 C92.0245211,16.9451785 91.9166171,16.9433268 91.8137632,16.9433268 C91.0124794,16.8738036 90.7220982,16.4090253 90.6325429,16.4726567 C90.4401338,16.6081679 90.327348,16.7741481 90.327348,16.9525853 C90.327348,16.9875994 90.3330715,17.0221085 90.3414883,17.0559442 L90.4339053,17.7260936 L90.4349153,17.7260936 C90.466226,17.9095808 90.6246311,18.0748877 90.8666996,18.2008037 C91.0378983,18.5211489 91.4868529,18.7502555 92.0155992,18.7502555 C92.5440089,18.7502555 92.9931319,18.5211489 93.1644989,18.2008037 C93.420371,18.0676492 93.5819745,17.8905587 93.5996499,17.6944462 L93.6031849,17.6942779 L93.6900468,17.0547658 C93.6982953,17.0212668 93.7038504,16.987431 93.7038504,16.9525853 C93.7038504,16.7751582 93.591233,16.6093463 93.4000022,16.4740034 L93.4000022,16.4740034 Z M92.0155992,3.75025552 C89.2456148,3.75025552 87,5.87197435 87,8.96028391 C87,11.2865321 88.3502306,12.1696277 89.8671148,15.0833719 C90.3041175,15.9228682 91.0166878,16.4667649 92.0155992,16.4667649 C93.0148473,16.4667649 93.7418946,15.930275 94.164252,15.0833719 C95.5345147,12.3367863 97.0310301,11.3582437 97.0310301,8.96028391 C97.0310301,5.87197435 94.7860886,3.75025552 92.0155992,3.75025552 L92.0155992,3.75025552 Z M94.4539598,9.88815714 C94.4539598,10.0982416 94.2820878,10.2701137 94.0720033,10.2701137 L93.2107915,10.2701137 C93.000707,10.2701137 92.8290033,10.4418173 92.8290033,10.6520702 L92.8290033,11.5131137 C92.8290033,11.7231982 92.6571313,11.8950702 92.4470468,11.8950702 L91.585835,11.8950702 C91.3759188,11.8950702 91.2040468,11.7231982 91.2040468,11.5131137 L91.2040468,10.6520702 C91.2040468,10.4418173 91.0321748,10.2701137 90.8220903,10.2701137 L89.9608785,10.2701137 C89.750794,10.2701137 89.578922,10.0982416 89.578922,9.88815714 L89.578922,9.02728201 C89.578922,8.81719751 89.750794,8.64549383 89.9608785,8.64549383 L90.8220903,8.64549383 C91.0321748,8.64549383 91.2040468,8.47362181 91.2040468,8.2635373 L91.2040468,7.40215716 C91.2040468,7.19207266 91.3759188,7.02020064 91.585835,7.02020064 L92.4470468,7.02020064 C92.6571313,7.02020064 92.8290033,7.19207266 92.8290033,7.40215716 L92.8290033,8.2635373 C92.8290033,8.47362181 93.000707,8.64549383 93.2107915,8.64549383 L94.0720033,8.64549383 C94.2820878,8.64549383 94.4539598,8.81719751 94.4539598,9.02728201 L94.4539598,9.88815714 L94.4539598,9.88815714 Z" id="icon_healthtips" sketch:type="MSShapeGroup"></path>
        </g>
    </g>
</svg>