<?xml version="1.0" encoding="UTF-8" standalone="no"?>
<svg width="18px" height="16px" viewBox="0 0 18 16" version="1.1" xmlns="http://www.w3.org/2000/svg" xmlns:xlink="http://www.w3.org/1999/xlink" xmlns:sketch="http://www.bohemiancoding.com/sketch/ns">
    <!-- Generator: Sketch 3.3.2 (12043) - http://www.bohemiancoding.com/sketch -->
    <title>icon_participate</title>
    <desc>Created with Sketch.</desc>
    <defs></defs>
    <g id="GdS-md" stroke="none" stroke-width="1" fill="none" fill-rule="evenodd" sketch:type="MSPage">
        <path d="M4.52673797,0.727272727 L4.52673797,3.63636364 C4.52673797,3.84 4.45643494,4.01212121 4.31631373,4.15272727 C4.17522282,4.29333333 4.0031016,4.36363636 3.79946524,4.36363636 L0.890374332,4.36363636 C0.686737968,4.36363636 0.514616756,4.29333333 0.374010695,4.15272727 C0.233404635,4.01212121 0.163101604,3.84 0.163101604,3.63636364 L0.163101604,0.727272727 C0.163101604,0.523636364 0.233404635,0.351515152 0.374010695,0.210909091 C0.514616756,0.0707878788 0.686737968,0 0.890374332,0 L3.79946524,0 C4.0031016,0 4.17522282,0.0707878788 4.31631373,0.210909091 C4.45643494,0.351515152 4.52673797,0.523636364 4.52673797,0.727272727 C4.52673797,0.727272727 4.52673797,0.523636364 4.52673797,0.727272727 L4.52673797,0.727272727 L4.52673797,0.727272727 Z M4.52673797,9.45454545 L4.52673797,6.54545455 C4.52673797,6.34181818 4.45643494,6.16969697 4.31631373,6.02909091 C4.17522282,5.8889697 4.0031016,5.81818182 3.79946524,5.81818182 L0.890374332,5.81818182 C0.686737968,5.81818182 0.514616756,5.8889697 0.374010695,6.02909091 C0.233404635,6.16969697 0.163101604,6.34181818 0.163101604,6.54545455 L0.163101604,9.45454545 C0.163101604,9.65818182 0.233404635,9.83030303 0.374010695,9.97090909 C0.514616756,10.1115152 0.686737968,10.1818182 0.890374332,10.1818182 L3.79946524,10.1818182 C4.0031016,10.1818182 4.17522282,10.1115152 4.31631373,9.97090909 C4.45643494,9.83030303 4.52673797,9.65818182 4.52673797,9.45454545 C4.52673797,9.45454545 4.52673797,9.65818182 4.52673797,9.45454545 L4.52673797,9.45454545 L4.52673797,9.45454545 Z M4.52673797,12.3636364 L4.52673797,15.2727273 C4.52673797,15.4763636 4.45643494,15.6484848 4.31631373,15.7890909 C4.17522282,15.929697 4.0031016,16 3.79946524,16 L0.890374332,16 C0.686737968,16 0.514616756,15.929697 0.374010695,15.7890909 C0.233404635,15.6484848 0.163101604,15.4763636 0.163101604,15.2727273 L0.163101604,12.3636364 C0.163101604,12.16 0.233404635,11.9878788 0.374010695,11.8472727 C0.514616756,11.7071515 0.686737968,11.6363636 0.890374332,11.6363636 L3.79946524,11.6363636 C4.0031016,11.6363636 4.17522282,11.7071515 4.31631373,11.8472727 C4.45643494,11.9878788 4.52673797,12.16 4.52673797,12.3636364 C4.52673797,12.3636364 4.52673797,12.16 4.52673797,12.3636364 L4.52673797,12.3636364 L4.52673797,12.3636364 Z M17.6176471,0.727272727 L17.6176471,3.63636364 C17.6176471,3.84 17.547344,4.01212121 17.4072228,4.15272727 C17.2661319,4.29333333 17.0940107,4.36363636 16.8903743,4.36363636 L6.70855615,4.36363636 C6.50491979,4.36363636 6.33279857,4.29333333 6.19219251,4.15272727 C6.05158645,4.01212121 5.98128342,3.84 5.98128342,3.63636364 L5.98128342,0.727272727 C5.98128342,0.523636364 6.05158645,0.351515152 6.19219251,0.210909091 C6.33279857,0.0707878788 6.50491979,0 6.70855615,0 L16.8903743,0 C17.0940107,0 17.2661319,0.0707878788 17.4072228,0.210909091 C17.547344,0.351515152 17.6176471,0.523636364 17.6176471,0.727272727 C17.6176471,0.727272727 17.6176471,0.523636364 17.6176471,0.727272727 L17.6176471,0.727272727 L17.6176471,0.727272727 Z M17.6176471,6.54545455 L17.6176471,9.45454545 C17.6176471,9.65818182 17.547344,9.83030303 17.4072228,9.97090909 C17.2661319,10.1115152 17.0940107,10.1818182 16.8903743,10.1818182 L6.70855615,10.1818182 C6.50491979,10.1818182 6.33279857,10.1115152 6.19219251,9.97090909 C6.05158645,9.83030303 5.98128342,9.65818182 5.98128342,9.45454545 L5.98128342,6.54545455 C5.98128342,6.34181818 6.05158645,6.16969697 6.19219251,6.02909091 C6.33279857,5.8889697 6.50491979,5.81818182 6.70855615,5.81818182 L16.8903743,5.81818182 C17.0940107,5.81818182 17.2661319,5.8889697 17.4072228,6.02909091 C17.547344,6.16969697 17.6176471,6.34181818 17.6176471,6.54545455 C17.6176471,6.54545455 17.6176471,6.34181818 17.6176471,6.54545455 L17.6176471,6.54545455 L17.6176471,6.54545455 Z M17.6176471,12.3636364 L17.6176471,15.2727273 C17.6176471,15.4763636 17.547344,15.6484848 17.4072228,15.7890909 C17.2661319,15.929697 17.0940107,16 16.8903743,16 L6.70855615,16 C6.50491979,16 6.33279857,15.929697 6.19219251,15.7890909 C6.05158645,15.6484848 5.98128342,15.4763636 5.98128342,15.2727273 L5.98128342,12.3636364 C5.98128342,12.16 6.05158645,11.9878788 6.19219251,11.8472727 C6.33279857,11.7071515 6.50491979,11.6363636 6.70855615,11.6363636 L16.8903743,11.6363636 C17.0940107,11.6363636 17.2661319,11.7071515 17.4072228,11.8472727 C17.547344,11.9878788 17.6176471,12.16 17.6176471,12.3636364 L17.6176471,12.3636364 Z" id="icon_participate" fill="#1E88E5" sketch:type="MSShapeGroup"></path>
    </g>
</svg>