<?xml version="1.0" encoding="UTF-8" standalone="no"?>
<svg width="55px" height="56px" viewBox="0 0 55 56" version="1.1" xmlns="http://www.w3.org/2000/svg" xmlns:xlink="http://www.w3.org/1999/xlink" xmlns:sketch="http://www.bohemiancoding.com/sketch/ns">
    <!-- Generator: Sketch 3.3 (11970) - http://www.bohemiancoding.com/sketch -->
    <title>Bem</title>
    <desc>Created with Sketch.</desc>
    <defs></defs>
    <g id="GdS-md" stroke="none" stroke-width="1" fill="none" fill-rule="evenodd" sketch:type="MSPage">
        <g id="13---diario-da-saude" sketch:type="MSArtboardGroup" transform="translate(-660.000000, -320.000000)">
            <g id="dashboard" sketch:type="MSLayerGroup" transform="translate(224.000000, 1.000000)">
                <g id="Usuário" transform="translate(15.000000, 125.000000)" sketch:type="MSShapeGroup">
                    <g id="Geral" transform="translate(181.000000, 0.000000)">
                        <g id="box-bootstrap">
                            <g id="Bem" transform="translate(245.000000, 195.500000)">
                                <g id="Imported-Layers">
                                    <path d="M22.5373127,0.851465653 C10.6374343,0.851465653 0.955892128,10.532702 0.955892128,22.4325805 C0.955892128,34.3326118 10.6374343,44.014154 22.5373127,44.014154 C34.4371912,44.014154 44.1182746,34.3326118 44.1182746,22.4325805 C44.1182746,10.532702 34.4371912,0.851465653 22.5373127,0.851465653" id="Fill-1" fill="#F8E71C"></path>
                                    <path d="M22.5373127,0.851465653 L22.5373127,44.014154 C34.4371912,44.014154 44.1182746,34.3326118 44.1182746,22.4325805 C44.1182746,10.532702 34.4371912,0.851465653 22.5373127,0.851465653" id="Fill-2" fill="#E0D433"></path>
                                    <path d="M22.5373127,44.8283135 C10.1883851,44.8283135 0.141732566,34.781661 0.141732566,22.4325805 C0.141732566,10.0836529 10.1883851,0.0371531969 22.5373127,0.0371531969 C34.8860874,0.0371531969 44.9325871,10.0836529 44.9325871,22.4325805 C44.9325871,34.781661 34.8860874,44.8283135 22.5373127,44.8283135 L22.5373127,44.8283135 Z M22.5373127,2.33056041 C11.4529699,2.33056041 2.43513978,11.3482376 2.43513978,22.4325805 C2.43513978,33.5170762 11.4529699,42.5349063 22.5373127,42.5349063 C33.6215027,42.5349063 42.6391799,33.5170762 42.6391799,22.4325805 C42.6391799,11.3482376 33.6215027,2.33056041 22.5373127,2.33056041 L22.5373127,2.33056041 Z" id="Fill-3" fill="#FFFFFF"></path>
                                    <path d="M22.5374656,36.230177 C18.0816812,36.230177 13.8923907,34.495138 10.7415549,31.344608 C10.2052034,30.8084094 10.044512,30.0018945 10.3350103,29.3013351 C10.6255085,28.6007756 11.3090968,28.1436231 12.067603,28.1436231 L33.0079398,28.1436231 C33.7662931,28.1436231 34.4495756,28.6007756 34.7391565,29.3005706 C35.0299605,30.0018945 34.8695749,30.8084094 34.3329176,31.3439964 C31.181929,34.495138 26.9930972,36.230177 22.5374656,36.230177" id="Fill-4" fill="#797979"></path>
                                    <path d="M32.0879777,19.1314501 C32.0879777,20.1585908 31.2559296,20.9912505 30.2295534,20.9912505 C29.2027186,20.9912505 28.3700589,20.1585908 28.3700589,19.1314501 L28.3700589,16.2900715 C28.3700589,15.2632366 29.2027186,14.4311885 30.2295534,14.4311885 C31.2559296,14.4311885 32.0879777,15.2632366 32.0879777,16.2900715 L32.0879777,19.1314501" id="Fill-5" fill="#797979"></path>
                                    <path d="M16.7042608,19.1314501 C16.7042608,20.1585908 15.8722127,20.9912505 14.8449191,20.9912505 C13.818543,20.9912505 12.9863419,20.1585908 12.9863419,19.1314501 L12.9863419,16.2900715 C12.9863419,15.2632366 13.818543,14.4311885 14.8449191,14.4311885 C15.8722127,14.4311885 16.7042608,15.2632366 16.7042608,16.2900715 L16.7042608,19.1314501" id="Fill-6" fill="#797979"></path>
                                </g>
                            </g>
                        </g>
                    </g>
                </g>
            </g>
        </g>
    </g>
</svg>