<?xml version="1.0" encoding="UTF-8" standalone="no"?>
<svg width="34px" height="34px" viewBox="0 0 34 34" version="1.1" xmlns="http://www.w3.org/2000/svg" xmlns:xlink="http://www.w3.org/1999/xlink" xmlns:sketch="http://www.bohemiancoding.com/sketch/ns">
    <!-- Generator: Sketch 3.3.2 (12043) - http://www.bohemiancoding.com/sketch -->
    <title>Fill 10 Copy</title>
    <desc>Created with Sketch.</desc>
    <defs></defs>
    <g id="GdS-md" stroke="none" stroke-width="1" fill="none" fill-rule="evenodd" sketch:type="MSPage">
        <g id="01--home-search" sketch:type="MSArtboardGroup" transform="translate(-308.000000, -338.000000)" fill="#1E88E5">
            <g id="seaech-box" sketch:type="MSLayerGroup" transform="translate(-208.000000, 62.000000)">
                <g id="search-box" transform="translate(492.000000, 254.000000)" sketch:type="MSShapeGroup">
                    <g id="search-box-copy" transform="translate(1.000000, 0.000000)">
                        <path d="M47.747106,43.0368391 L55.901106,51.2092529 C56.02704,51.3545402 56.09046,51.5179885 56.09046,51.6995977 C56.09046,51.8812069 56.02704,52.0446552 55.901106,52.1899425 L52.93758,55.1592529 C52.791714,55.2863793 52.62954,55.3499425 52.44834,55.3499425 C52.26714,55.3499425 52.10406,55.2863793 51.9591,55.1592529 L43.8051,46.9868391 C41.64882,48.4033908 39.28416,49.1116667 36.71112,49.1116667 C33.086214,49.1116667 29.987694,47.8222414 27.416466,45.2433908 C24.84252,42.6645402 23.556,39.559023 23.556,35.9268391 C23.556,32.2946552 24.84252,29.1891379 27.416466,26.6102874 C29.987694,24.0314368 33.086214,22.7420115 36.71112,22.7420115 C40.33512,22.7420115 43.43364,24.0314368 46.007586,26.6102874 C48.57972,29.1891379 49.867146,32.2946552 49.867146,35.9268391 C49.867146,38.5056897 49.160466,40.8756897 47.747106,43.0368391 C47.747106,43.0368391 49.160466,40.8756897 47.747106,43.0368391 L47.747106,43.0368391 L47.747106,43.0368391 Z M30.351,29.5795977 C28.59336,31.3412069 27.71454,33.456954 27.71454,35.9268391 C27.71454,38.3967241 28.59336,40.5124713 30.351,42.2740805 C32.10864,44.0356897 34.22868,44.9164943 36.71112,44.9164943 C39.19356,44.9164943 41.30907,44.0411379 43.05765,42.2877011 C44.80623,40.5351724 45.68052,38.4148851 45.68052,35.9268391 C45.68052,33.4387931 44.80623,31.3185057 43.05765,29.565977 C41.30907,27.8134483 39.19356,26.9371839 36.71112,26.9371839 C34.22868,26.9371839 32.10864,27.8179885 30.351,29.5795977 L30.351,29.5795977 Z" id="Fill-10-Copy"></path>
                    </g>
                </g>
            </g>
        </g>
    </g>
</svg>