<?xml version="1.0" encoding="UTF-8" standalone="no"?>
<svg width="55px" height="56px" viewBox="0 0 55 56" version="1.1" xmlns="http://www.w3.org/2000/svg" xmlns:xlink="http://www.w3.org/1999/xlink" xmlns:sketch="http://www.bohemiancoding.com/sketch/ns">
    <!-- Generator: Sketch 3.3 (11970) - http://www.bohemiancoding.com/sketch -->
    <title>Mal</title>
    <desc>Created with Sketch.</desc>
    <defs></defs>
    <g id="GdS-md" stroke="none" stroke-width="1" fill="none" fill-rule="evenodd" sketch:type="MSPage">
        <g id="13---diario-da-saude" sketch:type="MSArtboardGroup" transform="translate(-827.000000, -322.000000)">
            <g id="dashboard" sketch:type="MSLayerGroup" transform="translate(224.000000, 1.000000)">
                <g id="Usuário" transform="translate(15.000000, 125.000000)" sketch:type="MSShapeGroup">
                    <g id="Geral" transform="translate(181.000000, 0.000000)">
                        <g id="box-bootstrap">
                            <g id="Mal" transform="translate(412.000000, 197.500000)">
                                <g id="Imported-Layers">
                                    <path d="M0.956938776,22.4802551 C0.956938776,34.3934694 10.6490816,44.0854592 22.5619898,44.0854592 C34.474898,44.0854592 44.1665816,34.3934694 44.1665816,22.4802551 C44.1665816,10.5675 34.474898,0.875663265 22.5619898,0.875663265 C10.6490816,0.875663265 0.956938776,10.5675 0.956938776,22.4802551 Z" id="Fill-1" fill="#DC1105"></path>
                                    <path d="M22.5619898,0.875663265 L22.5619898,44.0854592 C34.474898,44.0854592 44.1665816,34.3934694 44.1665816,22.4802551 C44.1665816,10.5675 34.474898,0.875663265 22.5619898,0.875663265" id="Fill-2" fill="#C81204"></path>
                                    <path d="M22.5619898,44.9006633 C10.1995408,44.9006633 0.141887755,34.8430102 0.141887755,22.4804082 C0.141887755,10.1179592 10.1995408,0.0604591837 22.5619898,0.0604591837 C34.9242857,0.0604591837 44.9817857,10.1179592 44.9817857,22.4804082 C44.9817857,34.8430102 34.9242857,44.9006633 22.5619898,44.9006633 L22.5619898,44.9006633 Z M22.5619898,2.35637755 C11.4655102,2.35637755 2.43780612,11.3839286 2.43780612,22.4804082 C2.43780612,33.5770408 11.4655102,42.6047449 22.5619898,42.6047449 C33.6583163,42.6047449 42.6858673,33.5770408 42.6858673,22.4804082 C42.6858673,11.3839286 33.6583163,2.35637755 22.5619898,2.35637755 L22.5619898,2.35637755 Z" id="Fill-3" fill="#FFFFFF"></path>
                                    <path d="M34.4540816,32.1955102 C31.277449,29.0190306 27.0535714,27.2669388 22.5615306,27.2669388 C18.0694898,27.2669388 13.8440816,29.0190306 10.667602,32.1955102 C10.1282143,32.7368878 9.96612245,33.5504082 10.2580102,34.2547959 C10.5509694,34.960102 11.2405102,35.4229592 12.0052041,35.4229592 L33.12,35.4229592 C33.8830102,35.4229592 34.5745408,34.960102 34.8658163,34.2534184 C35.1570918,33.5504082 34.9956122,32.734898 34.4540816,32.1955102" id="Fill-4" fill="#797979"></path>
                                    <path d="M30.3172959,21.0266327 C31.3510714,21.0266327 32.1929082,20.1864796 32.1929082,19.1504082 L32.1929082,18.3081122 L28.4430612,16.2858673 L28.4430612,19.1504082 C28.4430612,20.1864796 29.2829082,21.0266327 30.3172959,21.0266327" id="Fill-5" fill="#797979"></path>
                                    <path d="M14.8065306,21.0266327 C15.8401531,21.0266327 16.6804592,20.1864796 16.6804592,19.1504082 L16.6804592,16.2858673 C16.6804592,15.8912755 16.5577041,15.5265306 16.3513776,15.2277551 L12.9322959,17.1996429 L12.9322959,19.1504082 C12.9322959,20.1864796 13.7704592,21.0266327 14.8065306,21.0266327" id="Fill-6" fill="#797979"></path>
                                </g>
                            </g>
                        </g>
                    </g>
                </g>
            </g>
        </g>
    </g>
</svg>