<?xml version="1.0" encoding="UTF-8" standalone="no"?>
<svg width="49px" height="49px" viewBox="0 0 49 49" version="1.1" xmlns="http://www.w3.org/2000/svg" xmlns:xlink="http://www.w3.org/1999/xlink" xmlns:sketch="http://www.bohemiancoding.com/sketch/ns">
    <!-- Generator: Sketch 3.3.2 (12043) - http://www.bohemiancoding.com/sketch -->
    <title>icon_care_default</title>
    <desc>Created with Sketch.</desc>
    <defs></defs>
    <g id="Smartphone" stroke="none" stroke-width="1" fill="none" fill-rule="evenodd" sketch:type="MSPage">
        <g id="health-tips-icons-web-blue" sketch:type="MSLayerGroup" transform="translate(-419.000000, -4.000000)" fill="#1E88E5">
            <path d="M465.8625,13.0669118 L458.95,6.15367647 C457.559559,4.76397059 455.713971,4 453.748529,4 C451.781618,4 449.932353,4.76397059 448.547059,6.15367647 L421.155882,33.5433824 C419.765441,34.9308824 419,36.7772059 419,38.7455882 C419,40.7102941 419.765441,42.5573529 421.155147,43.9470588 L428.068382,50.8602941 C429.458824,52.2529412 431.306618,53.0169118 433.273529,53.0169118 C435.238235,53.0169118 437.086029,52.2529412 438.474265,50.8632353 L465.866176,23.4727941 C467.254412,22.0838235 468.019118,20.2367647 468.019118,18.2713235 C468.019118,16.3066176 467.252941,14.4566176 465.8625,13.0669118 L465.8625,13.0669118 Z M443.004412,20.4661765 C442.415441,19.8764706 442.415441,18.9205882 443.005882,18.3301471 C443.594853,17.7404412 444.552206,17.7404412 445.141176,18.3301471 C445.731618,18.9198529 445.731618,19.8764706 445.141176,20.4661765 C444.551471,21.0566176 443.594853,21.0566176 443.004412,20.4661765 L443.004412,20.4661765 Z M440.305147,23.1698529 C440.897059,23.7595588 440.895588,24.7125 440.305147,25.3029412 C439.715441,25.8926471 438.761029,25.8926471 438.169118,25.3029412 C437.580147,24.7132353 437.580147,23.7602941 438.169118,23.1698529 C438.758824,22.5794118 439.715441,22.5764706 440.305147,23.1698529 L440.305147,23.1698529 Z M435.470588,28.0051471 C436.060294,28.5955882 436.059559,29.5514706 435.469118,30.1389706 C434.878676,30.7316176 433.922794,30.7316176 433.333088,30.1389706 C432.744118,29.5477941 432.744118,28.5955882 433.333088,28.0051471 C433.921324,27.4154412 434.878676,27.4117647 435.470588,28.0051471 L435.470588,28.0051471 Z M445.141176,22.6529412 C445.733824,23.2433824 445.731618,24.1963235 445.141176,24.7867647 C444.552206,25.3764706 443.594853,25.3764706 443.004412,24.7867647 C442.415441,24.1970588 442.415441,23.2433824 443.004412,22.6529412 C443.594853,22.0632353 444.552206,22.0632353 445.141176,22.6529412 L445.141176,22.6529412 Z M440.305147,27.4889706 C440.895588,28.0786765 440.895588,29.0345588 440.305147,29.625 C439.715441,30.2147059 438.761029,30.2147059 438.169118,29.6213235 C437.579412,29.0316176 437.579412,28.0786765 438.169853,27.4882353 C438.758824,26.8985294 439.715441,26.8985294 440.305147,27.4889706 L440.305147,27.4889706 Z M449.4125,22.6058824 C450.003676,23.1955882 450.002206,24.1492647 449.413971,24.7389706 C448.823529,25.3294118 447.867647,25.3294118 447.277206,24.7389706 C446.686765,24.1492647 446.686765,23.1963235 447.277206,22.6029412 C447.867647,22.0161765 448.823529,22.0125 449.4125,22.6058824 L449.4125,22.6058824 Z M444.577941,27.4389706 C445.167647,28.0286765 445.167647,28.9852941 444.577941,29.575 C443.986765,30.1654412 443.032353,30.1654412 442.441912,29.575 C441.851471,28.9852941 441.851471,28.0294118 442.441912,27.4389706 C443.032353,26.8477941 443.986765,26.8492647 444.577941,27.4389706 L444.577941,27.4389706 Z M439.741912,32.2742647 C440.330882,32.8647059 440.330882,33.8235294 439.739706,34.4110294 C439.151471,35.0014706 438.195588,35.0014706 437.605882,34.4110294 C437.015441,33.8205882 437.015441,32.8647059 437.605882,32.2742647 C438.195588,31.6852941 439.152206,31.6852941 439.741912,32.2742647 L439.741912,32.2742647 Z M449.413971,26.9257353 C450.003676,27.5154412 450.002206,28.4713235 449.4125,29.0588235 C448.823529,29.6522059 447.867647,29.6492647 447.277206,29.0588235 C446.686765,28.4691176 446.686765,27.5161765 447.277206,26.9227941 C447.867647,26.3352941 448.823529,26.3352941 449.413971,26.9257353 L449.413971,26.9257353 Z M444.575735,31.7580882 C445.167647,32.3492647 445.167647,33.3044118 444.575735,33.8948529 C443.986765,34.4852941 443.032353,34.4852941 442.441912,33.8948529 C441.85,33.3044118 441.85,32.3492647 442.439706,31.7580882 C443.032353,31.1683824 443.986765,31.1683824 444.575735,31.7580882 L444.575735,31.7580882 Z M453.686765,26.875 C454.276471,27.4647059 454.273529,28.4213235 453.686765,29.0110294 C453.094853,29.6007353 452.139706,29.6007353 451.547794,29.0110294 C450.958088,28.4176471 450.959559,27.4647059 451.547794,26.875 C452.138235,26.2852941 453.094853,26.2823529 453.686765,26.875 L453.686765,26.875 Z M448.85,31.7117647 C449.439706,32.3014706 449.438235,33.2573529 448.848529,33.8477941 C448.258824,34.4375 447.303676,34.4375 446.7125,33.8477941 C446.124265,33.2573529 446.121324,32.3014706 446.7125,31.7117647 C447.303676,31.1213235 448.258824,31.1213235 448.85,31.7117647 L448.85,31.7117647 Z M444.013971,36.5470588 C444.604412,37.1375 444.602941,38.0933824 444.013971,38.6838235 C443.424265,39.2735294 442.468382,39.2735294 441.877941,38.6838235 C441.285294,38.0933824 441.288235,37.1375 441.877941,36.5470588 C442.466176,35.9573529 443.424265,35.9573529 444.013971,36.5470588 L444.013971,36.5470588 Z" id="icon_care_default" sketch:type="MSShapeGroup"></path>
        </g>
    </g>
</svg>