<?xml version="1.0" encoding="UTF-8" standalone="no"?>
<svg width="37px" height="34px" viewBox="0 0 37 34" version="1.1" xmlns="http://www.w3.org/2000/svg" xmlns:xlink="http://www.w3.org/1999/xlink" xmlns:sketch="http://www.bohemiancoding.com/sketch/ns">
    <!-- Generator: Sketch 3.3 (11970) - http://www.bohemiancoding.com/sketch -->
    <title>Rectangle 28 Copy + Imported Layers</title>
    <desc>Created with Sketch.</desc>
    <defs></defs>
    <g id="GdS-md" stroke="none" stroke-width="1" fill="none" fill-rule="evenodd" sketch:type="MSPage">
        <g id="11.1---perfil-usuario" sketch:type="MSArtboardGroup" transform="translate(-767.000000, -398.000000)">
            <g id="Rectangle-28-Copy-+-Imported-Layers" sketch:type="MSLayerGroup" transform="translate(768.000000, 399.000000)">
                <rect id="Rectangle-28-Copy" stroke="#1976D2" fill="#1E88E5" sketch:type="MSShapeGroup" x="0" y="0" width="35" height="32" rx="3"></rect>
                <path d="M26,23 L26,9 C26,7.9 25.1,7 24,7 L10,7 C8.9,7 8,7.9 8,9 L8,23 C8,24.1 8.9,25 10,25 L24,25 C25.1,25 26,24.1 26,23 L26,23 Z M13.5,17.5 L16,20.51 L19.5,16 L24,22 L10,22 L13.5,17.5 L13.5,17.5 Z" id="Imported-Layers" fill="#FFFFFF" sketch:type="MSShapeGroup"></path>
            </g>
        </g>
    </g>
</svg>