<?xml version="1.0" encoding="UTF-8" standalone="no"?>
<svg width="110px" height="98px" viewBox="0 0 110 98" version="1.1" xmlns="http://www.w3.org/2000/svg" xmlns:xlink="http://www.w3.org/1999/xlink" xmlns:sketch="http://www.bohemiancoding.com/sketch/ns">
    <!-- Generator: Sketch 3.3.2 (12043) - http://www.bohemiancoding.com/sketch -->
    <title>icon_thankyou</title>
    <desc>Created with Sketch.</desc>
    <defs></defs>
    <g id="GdS-md" stroke="none" stroke-width="1" fill="none" fill-rule="evenodd" sketch:type="MSPage">
        <g id="icon_thankyou" sketch:type="MSLayerGroup" fill="#1E88E5">
            <path d="M92.6028476,38.3504225 C90.1279297,38.3504225 88.1205183,40.3580444 88.1205183,42.8272909 L88.1205183,86.5887042 C88.1205183,87.5989403 87.2991697,88.416421 86.2969466,88.416421 L11.1806194,88.416421 C10.1813614,88.416421 9.36297803,87.5989403 9.36297803,86.5887042 L9.36297803,11.3676279 C9.36297803,10.3544262 10.1813614,9.53002611 11.1806194,9.53002611 L74.6666117,9.53002611 C77.1435063,9.53002611 79.1439991,7.53228907 79.1439991,5.0541462 C79.1439991,2.58193426 77.1435063,0.578266287 74.6666117,0.578266287 L11.1806194,0.578266287 C5.24239792,0.578266287 0.408203307,5.4169218 0.408203307,11.3676279 L0.408203307,86.5887042 C0.408203307,92.5354563 5.24239792,97.3849852 11.1806194,97.3849852 L86.2969466,97.3849852 C92.24011,97.3849852 97.0812233,92.5354563 97.0812233,86.5887042 L97.0812233,42.8272909 C97.0812233,40.3580444 95.0738119,38.3504225 92.6028476,38.3504225 L92.6028476,38.3504225 Z M101.445935,0.41417705 C100.32214,1.09524623 99.1953804,1.80695859 98.11804,2.52361339 C97.3431455,3.02873146 96.5880188,3.54966536 95.8664973,4.06367984 L95.0866609,4.61229144 C94.5934564,4.9612282 94.1022287,5.30621099 93.6198965,5.66107868 L91.4118428,7.28813219 L89.2492548,8.97350659 C87.8309213,10.1023615 86.4175297,11.260871 85.0486154,12.4124611 C79.9149399,16.7341367 74.7585316,21.5352296 69.2789211,27.082632 C64.5208322,31.9084372 59.6510557,37.1988323 54.8010469,42.7778664 C53.5388783,44.2339112 52.2915355,45.6840252 51.0708791,47.1489664 L49.9292936,48.5031969 L47.0689053,46.0131921 C46.5757008,45.5792453 46.0607519,45.1502409 45.5507448,44.7330984 C45.2809155,44.5166192 42.3849453,42.1234864 42.3849453,42.1234864 C40.9972518,40.9639884 39.4454862,39.7214572 37.6673802,38.3217563 L36.5999236,37.4874712 C35.3782789,36.531602 34.1269825,35.5401471 32.8608604,34.5941628 L30.3968148,32.7397567 C29.8947148,32.342384 29.3669169,31.9568731 28.8361537,31.5852011 C28.5406264,31.364768 28.2619016,31.1601507 27.9841652,30.9565219 L25.4894796,29.1564827 C25.4894796,29.1564827 24.5198732,28.4625632 24.2549859,28.2767272 L15.1519533,38.8881607 C15.3170137,39.0710312 16.0365585,39.8895004 16.0365585,39.8895004 L17.913503,42.0384763 L18.5213602,42.7511772 C18.9631686,43.2473988 19.3901513,43.7297817 19.7963778,44.2418192 L21.6387288,46.441208 C22.6300797,47.610591 23.6105584,48.8402717 24.5623738,50.0205281 L25.2858722,50.9220304 C26.7131012,52.680553 27.8576518,54.1306669 28.8826078,55.4799549 L30.6350157,57.7712733 C30.866298,58.0589237 31.0857196,58.360413 31.3081064,58.6559713 C31.6777627,59.1245152 32.0444538,59.5930592 32.3824817,60.0635802 L35.7647377,64.7114572 C35.9732871,65.0129465 36.1848016,65.3005969 36.4071884,65.5892358 C36.7511467,66.0745841 37.1188261,66.5648748 37.4370864,67.0531886 L41.7247037,73.3221882 L61.1622975,73.3221882 C61.6851535,72.4809837 62.4501641,71.2256022 62.706156,70.7956094 L63.9742549,68.6545414 L66.567779,64.3990946 C68.3241405,61.5809114 70.1437586,58.7370274 71.9910515,55.9573953 C75.9366874,50.0205281 79.7231931,44.6629156 83.5838278,39.5761493 C87.9673185,33.788544 92.1126083,28.7759143 96.2638283,24.246656 C97.3559946,23.0416874 98.4985685,21.8446268 99.6411424,20.663382 L101.372794,18.9137558 L103.085667,17.26199 C103.523522,16.8221123 103.982133,16.4059582 104.439755,15.9957351 L104.881564,15.5973739 C105.481514,15.029981 106.083441,14.4695075 106.67746,13.9782283 C107.482995,13.2793663 108.298413,12.5973087 109.109878,11.9468826 L101.445935,0.41417705 L101.445935,0.41417705 Z" id="Fill-2" sketch:type="MSShapeGroup"></path>
        </g>
    </g>
</svg>