<?xml version="1.0" encoding="UTF-8" standalone="no"?>
<svg width="225px" height="335px" viewBox="0 0 225 335" version="1.1" xmlns="http://www.w3.org/2000/svg" xmlns:xlink="http://www.w3.org/1999/xlink" xmlns:sketch="http://www.bohemiancoding.com/sketch/ns">
    <!-- Generator: Sketch 3.3.2 (12043) - http://www.bohemiancoding.com/sketch -->
    <title>dicas-icone copy</title>
    <desc>Created with Sketch.</desc>
    <defs></defs>
    <g id="GdS-md" stroke="none" stroke-width="1" fill="none" fill-rule="evenodd" sketch:type="MSPage">
        <g id="14---dicas-de-saude" sketch:type="MSArtboardGroup" transform="translate(-677.000000, -196.000000)" fill="#1E88E5">
            <g id="content" sketch:type="MSLayerGroup" transform="translate(224.000000, 1.000000)">
                <g id="Inicio" transform="translate(347.000000, 125.000000)" sketch:type="MSShapeGroup">
                    <g id="box-bootstrap">
                        <path d="M249.420214,354.163702 C247.359994,352.705006 241.194373,363.848239 221.11099,364.765563 C218.701135,364.686613 216.291279,364.645258 213.994209,364.645258 C196.09887,363.092574 189.613689,352.712525 187.613622,354.133626 C183.316485,357.160044 180.797603,360.866935 180.797603,364.852032 C180.797603,365.634013 180.925427,366.404716 181.113403,367.16038 L183.177382,382.12705 L183.199939,382.12705 C183.899211,386.224932 187.436924,389.916785 192.843121,392.72891 C196.666558,399.883286 206.693212,405 218.50188,405 C230.303029,405 240.333442,399.883286 244.160638,392.72891 C249.875116,389.755126 253.48426,385.800105 253.879011,381.420259 L253.957961,381.416499 L255.897876,367.134064 C256.082092,366.385918 256.206157,365.630254 256.206157,364.852032 C256.206157,360.889492 253.691034,357.18636 249.420214,354.163702 L249.420214,354.163702 Z M218.50188,70 C156.638895,70 106.48683,117.385054 106.48683,186.357301 C106.48683,238.310178 136.641981,258.032646 170.519061,323.106266 C180.278788,341.855017 196.192858,354.002042 218.50188,354.002042 C240.818421,354.002042 257.055809,342.020436 266.488458,323.106266 C297.090992,261.765855 330.51317,239.911735 330.51317,186.357301 C330.51317,117.385054 280.376143,70 218.50188,70 L218.50188,70 Z M272.9586,207.079803 C272.9586,211.77169 269.120125,215.610165 264.428238,215.610165 L245.194508,215.610165 C240.50262,215.610165 236.667905,219.444881 236.667905,224.140528 L236.667905,243.370498 C236.667905,248.062386 232.82943,251.900861 228.137543,251.900861 L208.903812,251.900861 C204.215685,251.900861 200.377209,248.062386 200.377209,243.370498 L200.377209,224.140528 C200.377209,219.444881 196.538734,215.610165 191.846847,215.610165 L172.613117,215.610165 C167.92123,215.610165 164.082754,211.77169 164.082754,207.079803 L164.082754,187.853592 C164.082754,183.161704 167.92123,179.326989 172.613117,179.326989 L191.846847,179.326989 C196.538734,179.326989 200.377209,175.488514 200.377209,170.796627 L200.377209,151.559137 C200.377209,146.867249 204.215685,143.028774 208.903812,143.028774 L228.137543,143.028774 C232.82943,143.028774 236.667905,146.867249 236.667905,151.559137 L236.667905,170.796627 C236.667905,175.488514 240.50262,179.326989 245.194508,179.326989 L264.428238,179.326989 C269.120125,179.326989 272.9586,183.161704 272.9586,187.853592 L272.9586,207.079803 L272.9586,207.079803 Z" id="dicas-icone-copy"></path>
                    </g>
                </g>
            </g>
        </g>
    </g>
</svg>