<?xml version="1.0" encoding="UTF-8" standalone="no"?>
<svg width="241px" height="241px" viewBox="0 0 241 241" version="1.1" xmlns="http://www.w3.org/2000/svg" xmlns:xlink="http://www.w3.org/1999/xlink" xmlns:sketch="http://www.bohemiancoding.com/sketch/ns">
    <!-- Generator: Sketch 3.3.2 (12043) - http://www.bohemiancoding.com/sketch -->
    <title>icon_good</title>
    <desc>Created with Sketch.</desc>
    <defs></defs>
    <g id="Smartphone" stroke="none" stroke-width="1" fill="none" fill-rule="evenodd" sketch:type="MSPage">
        <g id="big-icons" sketch:type="MSLayerGroup" transform="translate(5.000000, 2.000000)">
            <g id="icon_good" sketch:type="MSShapeGroup">
                <path d="M115.316837,4.35670068 C54.4286395,4.35670068 4.89102041,53.8927551 4.89102041,114.780952 C4.89102041,175.669932 54.4286395,225.207551 115.316837,225.207551 C176.205034,225.207551 225.740306,175.669932 225.740306,114.780952 C225.740306,53.8927551 176.205034,4.35670068 115.316837,4.35670068" id="Fill-1" fill="#C4D11C"></path>
                <path d="M115.316837,4.35670068 L115.316837,225.207551 C176.205034,225.207551 225.740306,175.669932 225.740306,114.780952 C225.740306,53.8927551 176.205034,4.35670068 115.316837,4.35670068" id="Fill-2" fill="#BBBF10"></path>
                <path d="M115.316837,229.373367 C52.1309864,229.373367 0.725204082,177.967585 0.725204082,114.780952 C0.725204082,51.595102 52.1309864,0.190102041 115.316837,0.190102041 C178.501905,0.190102041 229.906905,51.595102 229.906905,114.780952 C229.906905,177.967585 178.501905,229.373367 115.316837,229.373367 L115.316837,229.373367 Z M115.316837,11.9247959 C58.6014966,11.9247959 12.459898,58.0656122 12.459898,114.780952 C12.459898,171.497075 58.6014966,217.638673 115.316837,217.638673 C172.031395,217.638673 218.172211,171.497075 218.172211,114.780952 C218.172211,58.0656122 172.031395,11.9247959 115.316837,11.9247959 L115.316837,11.9247959 Z" id="Fill-3" fill="#FFFFFF"></path>
                <path d="M115.317619,185.379218 C92.5186735,185.379218 71.0832993,176.501531 54.9613946,160.38119 C52.2170408,157.637619 51.3948299,153.510918 52.8812245,149.926361 C54.367619,146.341803 57.8653401,144.002687 61.7463946,144.002687 L168.891973,144.002687 C172.772245,144.002687 176.268401,146.341803 177.750102,149.922449 C179.238061,153.510918 178.417415,157.637619 175.671497,160.378061 C159.54881,176.501531 138.115782,185.379218 115.317619,185.379218" id="Fill-4" fill="#797979"></path>
                <path d="M164.184796,97.890034 C164.184796,103.145612 159.927449,107.406088 154.675782,107.406088 C149.421769,107.406088 145.161293,103.145612 145.161293,97.890034 L145.161293,83.3515306 C145.161293,78.097517 149.421769,73.8401701 154.675782,73.8401701 C159.927449,73.8401701 164.184796,78.097517 164.184796,83.3515306 L164.184796,97.890034" id="Fill-5" fill="#797979"></path>
                <path d="M85.4708163,97.890034 C85.4708163,103.145612 81.2134694,107.406088 75.9571088,107.406088 C70.7054422,107.406088 66.4473129,103.145612 66.4473129,97.890034 L66.4473129,83.3515306 C66.4473129,78.097517 70.7054422,73.8401701 75.9571088,73.8401701 C81.2134694,73.8401701 85.4708163,78.097517 85.4708163,83.3515306 L85.4708163,97.890034" id="Fill-6" fill="#797979"></path>
            </g>
        </g>
    </g>
</svg>