<?xml version="1.0" encoding="UTF-8" standalone="no"?>
<svg width="52px" height="52px" viewBox="0 0 52 52" version="1.1" xmlns="http://www.w3.org/2000/svg" xmlns:xlink="http://www.w3.org/1999/xlink" xmlns:sketch="http://www.bohemiancoding.com/sketch/ns">
    <!-- Generator: Sketch 3.3.2 (12043) - http://www.bohemiancoding.com/sketch -->
    <title>icon_search</title>
    <desc>Created with Sketch.</desc>
    <defs></defs>
    <g id="GdS-md" stroke="none" stroke-width="1" fill="none" fill-rule="evenodd" sketch:type="MSPage">
        <path d="M35.25875,20.8721042 L34.0784167,20.1410208 C36.9627917,23.5046458 38.7170833,27.8652292 38.7170833,32.6429375 C38.7170833,43.2633542 30.1083333,51.8721042 19.4879167,51.8721042 C8.8675,51.8721042 0.25875,43.2633542 0.25875,32.6429375 C0.25875,22.0225208 8.8675,13.4137708 19.4879167,13.4137708 C24.265625,13.4137708 28.62325,15.1651042 31.986875,18.0465208 L31.25875,16.8721042 L32.803375,14.8929375 L47.589125,0.127895833 L52,4.53877083 L37.2438333,19.3304375 L35.25875,20.8721042 Z M19.4879167,19.3304375 C12.1335,19.3304375 6.17541667,25.2885208 6.17541667,32.6429375 C6.17541667,39.9943958 12.1335,45.9554375 19.4879167,45.9554375 C26.839375,45.9554375 32.8004167,39.9943958 32.8004167,32.6429375 C32.8004167,25.2885208 26.839375,19.3304375 19.4879167,19.3304375 L19.4879167,19.3304375 Z" id="icon_search" fill="#1E88E5" sketch:type="MSShapeGroup" transform="translate(26.129375, 26.000000) scale(1, -1) translate(-26.129375, -26.000000) "></path>
    </g>
</svg>