<?xml version="1.0" encoding="UTF-8" standalone="no"?>
<svg width="15px" height="14px" viewBox="0 0 15 14" version="1.1" xmlns="http://www.w3.org/2000/svg" xmlns:xlink="http://www.w3.org/1999/xlink" xmlns:sketch="http://www.bohemiancoding.com/sketch/ns">
    <!-- Generator: Sketch 3.3.2 (12043) - http://www.bohemiancoding.com/sketch -->
    <title>icon_healthdiary</title>
    <desc>Created with Sketch.</desc>
    <defs></defs>
    <g id="GdS-md" stroke="none" stroke-width="1" fill="none" fill-rule="evenodd" sketch:type="MSPage">
        <g id="menu" sketch:type="MSLayerGroup" transform="translate(-59.000000, -5.000000)" fill="#FFFFFF">
            <path d="M60.2501052,5 L72.7500752,5 C73.0918656,5 73.3853183,5.12300848 73.6315157,5.3686647 C73.8769915,5.61468166 74,5.90849516 74,6.25028558 L74,7.50003006 C74,7.84182048 73.8769915,8.13581434 73.6315157,8.38147057 C73.3853183,8.6271268 73.0918656,8.75031564 72.7500752,8.75031564 L60.2501052,8.75031564 C59.9079541,8.75031564 59.6145013,8.6271268 59.3686647,8.38147057 C59.1230085,8.13581434 59,7.84182048 59,7.50003006 L59,6.25028558 C59,5.90849516 59.1230085,5.61468166 59.3686647,5.3686647 C59.6145013,5.12300848 59.9079541,5 60.2501052,5 L60.2501052,5 Z M60.2501052,10.0002405 L72.7500752,10.0002405 C73.0918656,10.0002405 73.3853183,10.123249 73.6315157,10.3687248 C73.8769915,10.6145614 74,10.9081946 74,11.2501653 L74,12.4999098 C74,12.842061 73.8769915,13.1358745 73.6315157,13.3813503 C73.3853183,13.6271869 73.0918656,13.750015 72.7500752,13.750015 L60.2501052,13.750015 C59.9079541,13.750015 59.6145013,13.6271869 59.3686647,13.3813503 C59.1230085,13.1358745 59,12.842061 59,12.4999098 L59,11.2501653 C59,10.9081946 59.1230085,10.6145614 59.3686647,10.3687248 C59.6145013,10.123249 59.9079541,10.0002405 60.2501052,10.0002405 L60.2501052,10.0002405 Z M60.2501052,15.0001202 L72.7500752,15.0001202 C73.0918656,15.0001202 73.3853183,15.1231287 73.6315157,15.3686046 C73.8769915,15.6144412 74,15.9082547 74,16.2500451 L74,17.5001503 C74,17.8419407 73.8769915,18.1353935 73.6315157,18.3814104 C73.3853183,18.6274274 73.0918656,18.7502555 72.7500752,18.7502555 L60.2501052,18.7502555 C59.9079541,18.7502555 59.6145013,18.6274274 59.3686647,18.3814104 C59.1230085,18.1353935 59,17.8419407 59,17.5001503 L59,16.2500451 C59,15.9082547 59.1230085,15.6144412 59.3686647,15.3686046 C59.6145013,15.1231287 59.9079541,15.0001202 60.2501052,15.0001202 L60.2501052,15.0001202 Z M66.4999098,12.4999098 L72.7500752,12.4999098 L72.7500752,11.249985 L66.4999098,11.249985 L66.4999098,12.4999098 Z M68.9999399,17.5001503 L72.7500752,17.5001503 L72.7500752,16.2500451 L68.9999399,16.2500451 L68.9999399,17.5001503 Z M70.2504058,7.50003006 L72.7502555,7.50003006 L72.7502555,6.25028558 L70.2504058,6.25028558 L70.2504058,7.50003006 Z" id="icon_healthdiary" sketch:type="MSShapeGroup"></path>
        </g>
    </g>
</svg>