<?xml version="1.0" encoding="UTF-8" standalone="no"?>
<svg width="20px" height="20px" viewBox="0 0 20 20" version="1.1" xmlns="http://www.w3.org/2000/svg" xmlns:xlink="http://www.w3.org/1999/xlink" xmlns:sketch="http://www.bohemiancoding.com/sketch/ns">
    <!-- Generator: Sketch 3.3.2 (12043) - http://www.bohemiancoding.com/sketch -->
    <title>icon_calendar</title>
    <desc>Created with Sketch.</desc>
    <defs></defs>
    <g id="GdS-md" stroke="none" stroke-width="1" fill="none" fill-rule="evenodd" sketch:type="MSPage">
        <path d="M0.882352941,5 L0.882352941,2.5 C0.882352941,2.26666667 0.962477718,2.06944444 1.12327986,1.90777778 C1.28297683,1.74722222 1.47914439,1.66666667 1.71122995,1.66666667 L4.19786096,1.66666667 L4.19786096,0 L5.85561497,0 L5.85561497,1.66666667 L14.144385,1.66666667 L14.144385,0 L15.802139,0 L15.802139,1.66666667 L18.2887701,1.66666667 C18.5208556,1.66666667 18.7175758,1.74722222 18.8772727,1.90777778 C19.0375223,2.06944444 19.1176471,2.26666667 19.1176471,2.5 L19.1176471,5 L0.882352941,5 L0.882352941,5 L0.882352941,5 L0.882352941,5 Z M19.1176471,6.66666667 L19.1176471,19.1666667 C19.1176471,19.3888889 19.0375223,19.5833333 18.8772727,19.7494444 C18.7175758,19.9166667 18.5208556,20 18.2887701,20 L1.71122995,20 C1.47914439,20 1.28297683,19.9166667 1.12327986,19.7494444 C0.962477718,19.5833333 0.882352941,19.3888889 0.882352941,19.1666667 L0.882352941,6.66666667 L19.1176471,6.66666667 L19.1176471,6.66666667 L19.1176471,6.66666667 L19.1176471,6.66666667 Z M2.54010695,11.6666667 L4.19786096,11.6666667 L4.19786096,10 L2.54010695,10 L2.54010695,10 L2.54010695,11.6666667 L2.54010695,11.6666667 Z M2.54010695,15 L4.19786096,15 L4.19786096,13.3333333 L2.54010695,13.3333333 L2.54010695,13.3333333 L2.54010695,15 L2.54010695,15 Z M2.54010695,18.3333333 L4.19786096,18.3333333 L4.19786096,16.6666667 L2.54010695,16.6666667 L2.54010695,16.6666667 L2.54010695,18.3333333 L2.54010695,18.3333333 Z M5.85561497,11.6666667 L7.51336898,11.6666667 L7.51336898,10 L5.85561497,10 L5.85561497,10 L5.85561497,11.6666667 L5.85561497,11.6666667 Z M5.85561497,15 L7.51336898,15 L7.51336898,13.3333333 L5.85561497,13.3333333 L5.85561497,13.3333333 L5.85561497,15 L5.85561497,15 Z M5.85561497,18.3333333 L7.51336898,18.3333333 L7.51336898,16.6666667 L5.85561497,16.6666667 L5.85561497,16.6666667 L5.85561497,18.3333333 L5.85561497,18.3333333 Z M9.17112299,11.6666667 L10.828877,11.6666667 L10.828877,10 L9.17112299,10 L9.17112299,10 L9.17112299,11.6666667 L9.17112299,11.6666667 Z M9.17112299,15 L10.828877,15 L10.828877,13.3333333 L9.17112299,13.3333333 L9.17112299,13.3333333 L9.17112299,15 L9.17112299,15 Z M9.17112299,18.3333333 L10.828877,18.3333333 L10.828877,16.6666667 L9.17112299,16.6666667 L9.17112299,16.6666667 L9.17112299,18.3333333 L9.17112299,18.3333333 Z M12.486631,11.6666667 L14.144385,11.6666667 L14.144385,10 L12.486631,10 L12.486631,10 L12.486631,11.6666667 L12.486631,11.6666667 Z M12.486631,15 L14.144385,15 L14.144385,13.3333333 L12.486631,13.3333333 L12.486631,13.3333333 L12.486631,15 L12.486631,15 Z M12.486631,18.3333333 L14.144385,18.3333333 L14.144385,16.6666667 L12.486631,16.6666667 L12.486631,16.6666667 L12.486631,18.3333333 L12.486631,18.3333333 Z M15.802139,11.6666667 L17.459893,11.6666667 L17.459893,10 L15.802139,10 L15.802139,10 L15.802139,11.6666667 L15.802139,11.6666667 Z M15.802139,15 L17.459893,15 L17.459893,13.3333333 L15.802139,13.3333333 L15.802139,13.3333333 L15.802139,15 L15.802139,15 Z M15.802139,18.3333333 L17.459893,18.3333333 L17.459893,16.6666667 L15.802139,16.6666667 L15.802139,16.6666667 L15.802139,18.3333333 L15.802139,18.3333333 Z" id="icon_calendar" fill="#FFFFFF" sketch:type="MSShapeGroup"></path>
    </g>
</svg>