<?xml version="1.0" encoding="UTF-8" standalone="no"?>
<svg width="82px" height="85px" viewBox="0 0 82 85" version="1.1" xmlns="http://www.w3.org/2000/svg" xmlns:xlink="http://www.w3.org/1999/xlink" xmlns:sketch="http://www.bohemiancoding.com/sketch/ns">
    <!-- Generator: Sketch 3.3.2 (12043) - http://www.bohemiancoding.com/sketch -->
    <title>pin_upa</title>
    <desc>Created with Sketch.</desc>
    <defs>
        <filter x="-50%" y="-50%" width="200%" height="200%" filterUnits="objectBoundingBox" id="filter-1">
            <feOffset dx="0" dy="4" in="SourceAlpha" result="shadowOffsetOuter1"></feOffset>
            <feGaussianBlur stdDeviation="3" in="shadowOffsetOuter1" result="shadowBlurOuter1"></feGaussianBlur>
            <feColorMatrix values="0 0 0 0 0   0 0 0 0 0   0 0 0 0 0  0 0 0 0.35 0" in="shadowBlurOuter1" type="matrix" result="shadowMatrixOuter1"></feColorMatrix>
            <feMerge>
                <feMergeNode in="shadowMatrixOuter1"></feMergeNode>
                <feMergeNode in="SourceGraphic"></feMergeNode>
            </feMerge>
        </filter>
    </defs>
    <g id="Smartphone" stroke="none" stroke-width="1" fill="none" fill-rule="evenodd" sketch:type="MSPage">
        <g id="pin_upa" sketch:type="MSLayerGroup" transform="translate(6.000000, 2.000000)">
            <path d="M49.8681518,59.4165015 L64.3958233,59.4165015 C67.1685486,59.4165015 69.3990272,57.1771004 69.3990272,54.4146591 L69.3990272,5.00184247 C69.3990272,2.23866749 67.1590165,0 64.3958233,0 L5.60417674,0 C2.83145139,0 0.600972795,2.23940115 0.600972795,5.00184247 L0.600972795,54.4146591 C0.600972795,57.177834 2.8409835,59.4165015 5.60417674,59.4165015 L21.174243,59.4165015 L35.5211974,73.763456 L49.8681518,59.4165015 Z" id="Rectangle-993-Copy" fill="#DB1105" filter="url(#filter-1)" sketch:type="MSShapeGroup"></path>
            <path d="M33.2434862,1 L65.2860504,1 C66.3920423,1 67.2886259,1.89559326 67.2886259,3.00480986 L67.2886259,56.7496102 C67.2886259,57.8568361 66.3859244,58.7986685 65.2908602,58.8510433 C65.2908602,58.8510433 53.8278275,59.4288071 48.7157762,59.4288071 C46.9506636,59.4288071 43.2954864,63.5515196 41.1892319,65.8891718 C37.6555768,69.8110418 33.7498571,73.763456 33.7498571,73.763456 L33.2434862,1 Z" id="Rectangle-993" opacity="0.2" fill="#000000" sketch:type="MSShapeGroup"></path>
            <path d="M32.5206349,17.5161905 L36.1561905,17.5161905 L36.1561905,8 L32.5206349,8 L32.5206349,17.5161905 Z M48.8514286,32.0869841 L58.1784127,30.2025397 L57.4603175,26.6419048 L48.1314286,28.5263492 L48.8514286,32.0869841 L48.8514286,32.0869841 Z M52.3638095,16.2196825 L49.7936508,13.6514286 L43.0647619,20.3796825 L45.6349206,22.9492063 L52.3638095,16.2196825 L52.3638095,16.2196825 Z M21.2368254,28.5263492 L11.9085714,26.6419048 L11.1904762,30.2025397 L20.5168254,32.0869841 L21.2368254,28.5263492 L21.2368254,28.5263492 Z M46.8552381,41.4698413 L43.632381,23.9422222 C43.2863492,22.0431746 41.2215873,20.615873 38.9993651,20.615873 L31.52,20.615873 C29.2965079,20.615873 27.2361905,22.0431746 26.8901587,23.9422222 L23.664127,41.4698413 C23.6419048,41.5955556 23.6463492,41.712381 23.6311111,43.2831746 L19.2488889,43.2831746 L19.2488889,47.3790476 L51.2698413,47.3790476 L51.2698413,43.2831746 L46.888254,43.2831746 C46.8742857,41.712381 46.8787302,41.5955556 46.8552381,41.4698413 L46.8552381,41.4698413 Z M34.8177778,41.311746 L34.8177778,23.1974603 L38.1593651,23.1974603 C39.8825397,23.1974603 41.4831746,24.3022222 41.752381,25.7746032 L44.2526984,39.3695238 C44.272381,39.4698413 44.2666667,39.568254 44.2780952,41.311746 L34.8177778,41.311746 L34.8177778,41.311746 Z M26.3034921,20.3796825 L19.5739683,13.6514286 L17.0050794,16.2196825 L23.7333333,22.9492063 L26.3034921,20.3796825 L26.3034921,20.3796825 Z" id="Imported-Layers-Copy" fill="#FFFFFF" sketch:type="MSShapeGroup"></path>
        </g>
    </g>
</svg>