<?xml version="1.0" encoding="UTF-8" standalone="no"?>
<svg width="64px" height="54px" viewBox="0 0 64 54" version="1.1" xmlns="http://www.w3.org/2000/svg" xmlns:xlink="http://www.w3.org/1999/xlink" xmlns:sketch="http://www.bohemiancoding.com/sketch/ns">
    <!-- Generator: Sketch 3.3.2 (12043) - http://www.bohemiancoding.com/sketch -->
    <title>icon_emergency_selected</title>
    <desc>Created with Sketch.</desc>
    <defs></defs>
    <g id="Smartphone" stroke="none" stroke-width="1" fill="none" fill-rule="evenodd" sketch:type="MSPage">
        <g id="health-tips-icons-web-white" sketch:type="MSLayerGroup" transform="translate(0.000000, -2.000000)" fill="#FFFFFF">
            <path d="M28.7957143,14.8468571 L33.7037143,14.8468571 L33.7037143,2 L28.7957143,2 L28.7957143,14.8468571 Z M50.8422857,34.5174286 L63.4337143,31.9734286 L62.4642857,27.1665714 L49.8702857,29.7105714 L50.8422857,34.5174286 L50.8422857,34.5174286 Z M55.584,13.0965714 L52.1142857,9.62942857 L43.0302857,18.7125714 L46.5,22.1814286 L55.584,13.0965714 L55.584,13.0965714 Z M13.5625714,29.7105714 L0.969428571,27.1665714 L0,31.9734286 L12.5905714,34.5174286 L13.5625714,29.7105714 L13.5625714,29.7105714 Z M48.1474286,47.1842857 L43.7965714,23.522 C43.3294286,20.9582857 40.542,19.0314286 37.542,19.0314286 L27.4448571,19.0314286 C24.4431429,19.0314286 21.6617143,20.9582857 21.1945714,23.522 L16.8394286,47.1842857 C16.8094286,47.354 16.8154286,47.5117143 16.7948571,49.6322857 L10.8788571,49.6322857 L10.8788571,55.1617143 L54.1071429,55.1617143 L54.1071429,49.6322857 L48.192,49.6322857 C48.1731429,47.5117143 48.1791429,47.354 48.1474286,47.1842857 L48.1474286,47.1842857 Z M31.8968571,46.9708571 L31.8968571,22.5165714 L36.408,22.5165714 C38.7342857,22.5165714 40.8951429,24.008 41.2585714,25.9957143 L44.634,44.3488571 C44.6605714,44.4842857 44.6528571,44.6171429 44.6682857,46.9708571 L31.8968571,46.9708571 L31.8968571,46.9708571 Z M20.4025714,18.7125714 L11.3177143,9.62942857 L7.84971429,13.0965714 L16.9328571,22.1814286 L20.4025714,18.7125714 L20.4025714,18.7125714 Z" id="icon_emergency_selected" sketch:type="MSShapeGroup"></path>
        </g>
    </g>
</svg>