<?xml version="1.0" encoding="UTF-8" standalone="no"?>
<svg width="34px" height="34px" viewBox="0 0 34 34" version="1.1" xmlns="http://www.w3.org/2000/svg" xmlns:xlink="http://www.w3.org/1999/xlink" xmlns:sketch="http://www.bohemiancoding.com/sketch/ns">
    <!-- Generator: Sketch 3.3 (11970) - http://www.bohemiancoding.com/sketch -->
    <title>calendar</title>
    <desc>Created with Sketch.</desc>
    <defs></defs>
    <g id="GdS-md" stroke="none" stroke-width="1" fill="none" fill-rule="evenodd" sketch:type="MSPage">
        <g id="07.1---quem-vai-participar" sketch:type="MSArtboardGroup" transform="translate(-616.000000, -375.000000)">
            <g id="calendar" sketch:type="MSLayerGroup" transform="translate(616.000000, 375.000000)">
                <rect id="Rectangle-245" fill="#1E88E5" sketch:type="MSShapeGroup" x="0" y="0" width="34" height="34" rx="3"></rect>
                <path d="M7.88235294,12 L7.88235294,9.5 C7.88235294,9.26666667 7.96247772,9.06944444 8.12327986,8.90777778 C8.28297683,8.74722222 8.47914439,8.66666667 8.71122995,8.66666667 L11.197861,8.66666667 L11.197861,7 L12.855615,7 L12.855615,8.66666667 L21.144385,8.66666667 L21.144385,7 L22.802139,7 L22.802139,8.66666667 L25.2887701,8.66666667 C25.5208556,8.66666667 25.7175758,8.74722222 25.8772727,8.90777778 C26.0375223,9.06944444 26.1176471,9.26666667 26.1176471,9.5 L26.1176471,12 L7.88235294,12 L7.88235294,12 L7.88235294,12 L7.88235294,12 Z M26.1176471,13.6666667 L26.1176471,26.1666667 C26.1176471,26.3888889 26.0375223,26.5833333 25.8772727,26.7494444 C25.7175758,26.9166667 25.5208556,27 25.2887701,27 L8.71122995,27 C8.47914439,27 8.28297683,26.9166667 8.12327986,26.7494444 C7.96247772,26.5833333 7.88235294,26.3888889 7.88235294,26.1666667 L7.88235294,13.6666667 L26.1176471,13.6666667 L26.1176471,13.6666667 L26.1176471,13.6666667 L26.1176471,13.6666667 Z M9.54010695,18.6666667 L11.197861,18.6666667 L11.197861,17 L9.54010695,17 L9.54010695,17 L9.54010695,18.6666667 L9.54010695,18.6666667 Z M9.54010695,22 L11.197861,22 L11.197861,20.3333333 L9.54010695,20.3333333 L9.54010695,20.3333333 L9.54010695,22 L9.54010695,22 Z M9.54010695,25.3333333 L11.197861,25.3333333 L11.197861,23.6666667 L9.54010695,23.6666667 L9.54010695,23.6666667 L9.54010695,25.3333333 L9.54010695,25.3333333 Z M12.855615,18.6666667 L14.513369,18.6666667 L14.513369,17 L12.855615,17 L12.855615,17 L12.855615,18.6666667 L12.855615,18.6666667 Z M12.855615,22 L14.513369,22 L14.513369,20.3333333 L12.855615,20.3333333 L12.855615,20.3333333 L12.855615,22 L12.855615,22 Z M12.855615,25.3333333 L14.513369,25.3333333 L14.513369,23.6666667 L12.855615,23.6666667 L12.855615,23.6666667 L12.855615,25.3333333 L12.855615,25.3333333 Z M16.171123,18.6666667 L17.828877,18.6666667 L17.828877,17 L16.171123,17 L16.171123,17 L16.171123,18.6666667 L16.171123,18.6666667 Z M16.171123,22 L17.828877,22 L17.828877,20.3333333 L16.171123,20.3333333 L16.171123,20.3333333 L16.171123,22 L16.171123,22 Z M16.171123,25.3333333 L17.828877,25.3333333 L17.828877,23.6666667 L16.171123,23.6666667 L16.171123,23.6666667 L16.171123,25.3333333 L16.171123,25.3333333 Z M19.486631,18.6666667 L21.144385,18.6666667 L21.144385,17 L19.486631,17 L19.486631,17 L19.486631,18.6666667 L19.486631,18.6666667 Z M19.486631,22 L21.144385,22 L21.144385,20.3333333 L19.486631,20.3333333 L19.486631,20.3333333 L19.486631,22 L19.486631,22 Z M19.486631,25.3333333 L21.144385,25.3333333 L21.144385,23.6666667 L19.486631,23.6666667 L19.486631,23.6666667 L19.486631,25.3333333 L19.486631,25.3333333 Z M22.802139,18.6666667 L24.459893,18.6666667 L24.459893,17 L22.802139,17 L22.802139,17 L22.802139,18.6666667 L22.802139,18.6666667 Z M22.802139,22 L24.459893,22 L24.459893,20.3333333 L22.802139,20.3333333 L22.802139,20.3333333 L22.802139,22 L22.802139,22 Z M22.802139,25.3333333 L24.459893,25.3333333 L24.459893,23.6666667 L22.802139,23.6666667 L22.802139,23.6666667 L22.802139,25.3333333 L22.802139,25.3333333 Z" id="Fill-192" fill="#FFFFFF" sketch:type="MSShapeGroup"></path>
            </g>
        </g>
    </g>
</svg>