<?xml version="1.0" encoding="UTF-8" standalone="no"?>
<svg width="17px" height="18px" viewBox="0 0 17 18" version="1.1" xmlns="http://www.w3.org/2000/svg" xmlns:xlink="http://www.w3.org/1999/xlink" xmlns:sketch="http://www.bohemiancoding.com/sketch/ns">
    <!-- Generator: Sketch 3.3.2 (12043) - http://www.bohemiancoding.com/sketch -->
    <title>icon_news</title>
    <desc>Created with Sketch.</desc>
    <defs></defs>
    <g id="GdS-md" stroke="none" stroke-width="1" fill="none" fill-rule="evenodd" sketch:type="MSPage">
        <g id="menu" sketch:type="MSLayerGroup" transform="translate(-110.000000, 0.000000)" fill="#FFFFFF">
            <path d="M125.623193,0.476645669 L114.245534,0.476645669 C113.673949,0.476645669 113.210455,0.940188212 113.210455,1.5112604 L113.210455,7.70653417 L111.141442,7.70653417 C110.570239,7.70653417 110.107891,8.18172735 110.107891,8.75299054 L110.107891,14.4545447 C110.107891,15.5978351 111.033351,17.0285714 112.176904,17.0285714 L124.588878,17.0285714 C125.730139,17.0285714 126.65789,15.5978351 126.65789,14.4545447 L126.65789,1.5112604 C126.65789,0.940188212 126.194587,0.476645669 125.623193,0.476645669 L125.623193,0.476645669 Z M113.210455,14.4545447 C113.210455,15.0261899 112.748298,15.4889684 112.176904,15.4889684 C111.605318,15.4889684 111.141442,15.0261899 111.141442,14.4545447 L111.141442,8.74114891 L113.210455,8.74114891 L113.210455,14.4545447 L113.210455,14.4545447 Z M123.554563,13.5203928 C123.554563,13.7465298 123.368936,13.93294 123.14225,13.93294 L116.726096,13.93294 C116.499791,13.93294 116.314356,13.7465298 116.314356,13.5203928 L116.314356,13.3110634 C116.314356,13.0841625 116.499791,12.8988982 116.726096,12.8988982 L123.14225,12.8988982 C123.368936,12.8988982 123.554563,13.0841625 123.554563,13.3110634 L123.554563,13.5203928 L123.554563,13.5203928 Z M123.554563,11.7065224 C123.554563,11.9328504 123.368936,12.1183056 123.14225,12.1183056 L116.726096,12.1183056 C116.499791,12.1183056 116.314356,11.9328504 116.314356,11.7065224 L116.314356,11.496238 C116.314356,11.270101 116.499791,11.0840728 116.726096,11.0840728 L123.14225,11.0840728 C123.368936,11.0840728 123.554563,11.270101 123.554563,11.496238 L123.554563,11.7065224 L123.554563,11.7065224 Z M123.554563,9.89188802 C123.554563,10.1187889 123.368936,10.3042442 123.14225,10.3042442 L116.726096,10.3042442 C116.499791,10.3042442 116.314356,10.1187889 116.314356,9.89188802 L116.314356,9.68255854 C116.314356,9.45584862 116.499791,9.27020241 116.726096,9.27020241 L123.14225,9.27020241 C123.368936,9.27020241 123.554563,9.45584862 123.554563,9.68255854 L123.554563,9.89188802 L123.554563,9.89188802 Z M123.554563,7.30563768 C123.554563,7.5325386 123.368936,7.71761183 123.14225,7.71761183 L116.726096,7.71761183 C116.499791,7.71761183 116.314356,7.5325386 116.314356,7.30563768 L116.314356,5.02726974 C116.314356,4.80017782 116.499791,4.6149136 116.726096,4.6149136 L123.14225,4.6149136 C123.368936,4.6149136 123.554563,4.80017782 123.554563,5.02726974 L123.554563,7.30563768 L123.554563,7.30563768 Z" id="icon_news" sketch:type="MSShapeGroup"></path>
        </g>
    </g>
</svg>