<?xml version="1.0" encoding="UTF-8" standalone="no"?>
<svg width="20px" height="16px" viewBox="0 0 20 16" version="1.1" xmlns="http://www.w3.org/2000/svg" xmlns:xlink="http://www.w3.org/1999/xlink" xmlns:sketch="http://www.bohemiancoding.com/sketch/ns">
    <!-- Generator: Sketch 3.3.2 (12043) - http://www.bohemiancoding.com/sketch -->
    <title>icon_web</title>
    <desc>Created with Sketch.</desc>
    <defs></defs>
    <g id="GdS-md" stroke="none" stroke-width="1" fill="none" fill-rule="evenodd" sketch:type="MSPage">
        <g id="plataforms-icon" sketch:type="MSLayerGroup" transform="translate(-2.000000, -4.000000)">
            <g id="icon_web" sketch:type="MSShapeGroup">
                <path d="M20,4 L4,4 C2.9,4 2.01,4.9 2.01,6 L2,18 C2,19.1 2.9,20 4,20 L20,20 C21.1,20 22,19.1 22,18 L22,6 C22,4.9 21.1,4 20,4 L20,4 Z M4,14 L15,14 L15,18 L4,18 L4,14 Z M4,9 L15,9 L15,13 L4,13 L4,9 Z M16,9 L20,9 L20,18 L16,18 L16,9 Z" id="Imported-Layers" fill="#FFBE00"></path>
                <rect id="Rectangle-352" x="0" y="0" width="24" height="24"></rect>
            </g>
        </g>
    </g>
</svg>