<?xml version="1.0" encoding="UTF-8" standalone="no"?>
<svg width="241px" height="242px" viewBox="0 0 241 242" version="1.1" xmlns="http://www.w3.org/2000/svg" xmlns:xlink="http://www.w3.org/1999/xlink" xmlns:sketch="http://www.bohemiancoding.com/sketch/ns">
    <!-- Generator: Sketch 3.3.2 (12043) - http://www.bohemiancoding.com/sketch -->
    <title>icon_bad</title>
    <desc>Created with Sketch.</desc>
    <defs></defs>
    <g id="Smartphone" stroke="none" stroke-width="1" fill="none" fill-rule="evenodd" sketch:type="MSPage">
        <g id="big-icons" sketch:type="MSLayerGroup" transform="translate(-268.000000, 2.000000)">
            <g id="icon_bad" transform="translate(273.000000, 0.000000)" sketch:type="MSShapeGroup">
                <path d="M4.89102041,114.899082 C4.89102041,175.788844 54.4286395,225.32568 115.316837,225.32568 C176.205034,225.32568 225.740306,175.788844 225.740306,114.899082 C225.740306,54.0116667 176.205034,4.47561224 115.316837,4.47561224 C54.4286395,4.47561224 4.89102041,54.0116667 4.89102041,114.899082 Z" id="Fill-1" fill="#DC1105"></path>
                <path d="M115.316837,4.47561224 L115.316837,225.32568 C176.205034,225.32568 225.740306,175.788844 225.740306,114.899082 C225.740306,54.0116667 176.205034,4.47561224 115.316837,4.47561224" id="Fill-2" fill="#C81204"></path>
                <path d="M115.316837,229.492279 C52.1309864,229.492279 0.725204082,178.086497 0.725204082,114.899864 C0.725204082,51.7140136 52.1309864,0.309013605 115.316837,0.309013605 C178.501905,0.309013605 229.906905,51.7140136 229.906905,114.899864 C229.906905,178.086497 178.501905,229.492279 115.316837,229.492279 L115.316837,229.492279 Z M115.316837,12.0437075 C58.6014966,12.0437075 12.459898,58.1845238 12.459898,114.899864 C12.459898,171.615986 58.6014966,217.757585 115.316837,217.757585 C172.031395,217.757585 218.172211,171.615986 218.172211,114.899864 C218.172211,58.1845238 172.031395,12.0437075 115.316837,12.0437075 L115.316837,12.0437075 Z" id="Fill-3" fill="#FFFFFF"></path>
                <path d="M176.098639,164.55483 C159.862517,148.31949 138.27381,139.364354 115.31449,139.364354 C92.3551701,139.364354 70.7586395,148.31949 54.5232993,164.55483 C51.7664286,167.321871 50.9379592,171.479864 52.4298299,175.080068 C53.9271769,178.684966 57.4514966,181.05068 61.359932,181.05068 L169.28,181.05068 C173.17983,181.05068 176.71432,178.684966 178.203061,175.073027 C179.691803,171.479864 178.866463,167.311701 176.098639,164.55483" id="Fill-4" fill="#797979"></path>
                <path d="M154.955068,107.469456 C160.23881,107.469456 164.541531,103.17534 164.541531,97.8798639 L164.541531,93.5747959 L145.375646,83.2388776 L145.375646,97.8798639 C145.375646,103.17534 149.668197,107.469456 154.955068,107.469456" id="Fill-5" fill="#797979"></path>
                <path d="M75.6778231,107.469456 C80.9607823,107.469456 85.2556803,103.17534 85.2556803,97.8798639 L85.2556803,83.2388776 C85.2556803,81.2220748 84.6282653,79.3578231 83.5737075,77.8307483 L66.0984014,87.9092857 L66.0984014,97.8798639 C66.0984014,103.17534 70.3823469,107.469456 75.6778231,107.469456" id="Fill-6" fill="#797979"></path>
            </g>
        </g>
    </g>
</svg>