<?xml version="1.0" encoding="UTF-8" standalone="no"?>
<svg width="152px" height="152px" viewBox="0 0 152 152" version="1.1" xmlns="http://www.w3.org/2000/svg" xmlns:xlink="http://www.w3.org/1999/xlink" xmlns:sketch="http://www.bohemiancoding.com/sketch/ns">
    <!-- Generator: Sketch 3.3.2 (12043) - http://www.bohemiancoding.com/sketch -->
    <title>icon_samu</title>
    <desc>Created with Sketch.</desc>
    <defs></defs>
    <g id="GdS-md" stroke="none" stroke-width="1" fill="none" fill-rule="evenodd" sketch:type="MSPage">
        <g id="icons_telefones" sketch:type="MSLayerGroup" transform="translate(-183.000000, -13.000000)">
            <g id="icon_samu" transform="translate(183.000000, 12.000000)" sketch:type="MSShapeGroup">
                <g id="SAMU" transform="translate(0.146816, 0.821862)">
                    <path d="M151.177873,76.0459614 C150.922304,34.2549376 116.92967,0.583191573 75.2528738,0.839472991 C33.5750711,1.09575441 -0.00201235105,35.182192 0.253556233,76.9752338 C0.510130992,118.767267 34.5017588,152.439013 76.1785553,152.18374 C117.854346,151.927459 151.433441,117.837994 151.177873,76.0459614" id="Fill-1" fill="#FFFFFF"></path>
                    <path d="M86.2755267,33.4830664 L87.7053021,33.4830664 L87.7053021,56.0075797 C87.7053021,56.0075797 105.753072,45.8128259 107.373015,44.8966703 C108.267505,46.4716912 118.291026,64.0844803 119.195578,65.6776628 C117.566579,66.5988633 100.016866,76.5111021 100.016866,76.5111021 C100.016866,76.5111021 117.566579,86.4283858 119.195578,87.3505953 C118.291026,88.9427688 108.267505,106.550513 107.373015,108.128561 C105.753072,107.213414 87.7053021,97.0166425 87.7053021,97.0166425 L87.7053021,119.539138 L63.7251208,119.539138 L63.7251208,97.0166425 C63.7241146,97.0166425 45.6783565,107.213414 44.0594201,108.128561 C43.1639239,106.550513 33.1434218,88.9417599 32.2378639,87.3505953 C33.8698806,86.4283858 51.413557,76.5111021 51.413557,76.5111021 C51.413557,76.5111021 33.8698806,66.5988633 32.2378639,65.6776628 C33.1434218,64.0844803 43.1639239,46.4737091 44.0594201,44.8966703 C45.6783565,45.8128259 63.7251208,56.0075797 63.7251208,56.0075797 C63.7241146,56.0075797 63.7251208,35.3557369 63.7251208,33.4830664 L86.2755267,33.4830664 L86.2755267,33.4830664 Z M88.736632,31.4207072 L61.6695042,31.4207072 L61.6695042,52.4781608 C59.0755837,51.0141279 43.2836588,42.0917005 43.2836588,42.0917005 L29.4235909,66.4555879 C29.4235909,66.4565969 44.5665326,75.0097369 47.2238421,76.5111021 C44.5665326,78.0124673 29.4235909,86.5696433 29.4235909,86.5696433 L43.2836588,110.932522 C43.2836588,110.932522 59.077596,102.011103 61.6695042,100.546061 L61.6695042,121.602506 L89.7639372,121.602506 L89.7639372,100.546061 C92.3558454,102.011103 108.145758,110.932522 108.145758,110.932522 L122.008844,86.5696433 C122.007838,86.5696433 106.864896,78.0124673 104.207587,76.5111021 C106.864896,75.0097369 122.008844,66.4555879 122.008844,66.4555879 L108.145758,42.0917005 C108.145758,42.0917005 92.3558454,51.0141279 89.7639372,52.4781608 L89.7639372,31.4207072 L88.736632,31.4207072 L88.736632,31.4207072 Z" id="Fill-2" fill="#E85900"></path>
                    <path d="M83.8224707,36.2073177 L66.4629244,36.2073177 L66.4629244,60.686229 C63.5500462,59.0385615 45.09075,48.6107329 45.09075,48.6107329 L35.964738,64.6505191 C35.964738,64.6505191 53.9843355,74.8311471 56.9555718,76.5111021 C53.9843355,78.1910571 35.964738,88.372694 35.964738,88.372694 L45.09075,104.413489 C45.09075,104.413489 63.5500462,93.9856607 66.4629244,92.3390021 L66.4629244,116.821949 L84.9674985,116.821949 L84.9674985,92.3390021 C87.8844013,93.9856607 106.33766,104.413489 106.33766,104.413489 L115.466691,88.372694 C115.466691,88.372694 97.4460874,78.1910571 94.4738448,76.5111021 C97.4460874,74.8311471 115.466691,64.6505191 115.466691,64.6505191 L106.33766,48.6107329 C106.33766,48.6107329 87.8844013,59.0385615 84.9674985,60.686229 L84.9674985,36.2073177 L83.8224707,36.2073177" id="Fill-3" fill="#C60000"></path>
                    <path d="M136.716112,106.937962 L135.887023,108.492803 L135.071015,108.061968 L135.669689,106.937962 L134.845632,106.506118 L134.252994,107.628106 L133.438998,107.204333 L134.173506,105.825055 L133.361523,105.403301 L132.110847,107.763309 L136.176802,109.901342 L137.523065,107.364761 L136.716112,106.937962 L136.716112,106.937962 Z M77.8357263,142.964672 C77.8005102,142.097957 78.4494934,141.501648 79.2846191,141.466334 C79.7776451,141.447163 80.143893,141.570259 80.390406,141.713534 L80.4296469,140.741885 C80.1499301,140.594573 79.6901078,140.489639 79.1155816,140.512846 C77.9121957,140.563295 76.6403898,141.432028 76.7098159,143.013103 C76.7691803,144.584088 78.1003505,145.355959 79.3117858,145.309546 C79.8671947,145.284322 80.2505476,145.174343 80.5041038,145.013914 L80.556425,144.011995 C80.3078996,144.190585 79.9305838,144.309645 79.4345393,144.330834 C78.5611789,144.368166 77.8719487,143.824325 77.8357263,142.964672 L77.8357263,142.964672 Z M86.6850401,143.539792 C86.0058716,143.65078 85.2733758,143.201783 85.1355298,142.35222 C85.0017084,141.504675 85.5540988,140.847828 86.2332673,140.741885 C86.9144481,140.632915 87.6519748,141.078885 87.790827,141.92643 C87.9266607,142.772965 87.3682333,143.433849 86.6850401,143.539792 L86.6850401,143.539792 Z M86.0773101,139.774271 C84.8256277,139.980103 83.7872546,141.085948 84.0196811,142.528792 C84.2561324,143.988789 85.5903211,144.713238 86.8440158,144.514468 C88.1027414,144.309645 89.1451393,143.203801 88.9046633,141.740777 C88.6732429,140.295915 87.3370418,139.578529 86.0773101,139.774271 L86.0773101,139.774271 Z M71.6034751,145.145082 L72.7193238,145.209657 L72.9708677,140.632915 L71.8560252,140.573385 L71.6034751,145.145082 L71.6034751,145.145082 Z M131.895525,114.980557 L131.698315,115.262063 L129.474667,113.769779 L129.672883,113.486255 C130.118619,112.823354 130.869226,112.513596 131.608765,113.013042 C132.34931,113.512489 132.342267,114.317656 131.895525,114.980557 L131.895525,114.980557 Z M132.235612,112.089824 C131.047319,111.289701 129.692001,111.74677 128.952462,112.842525 L128.085138,114.121914 L131.8915,116.683719 L132.758824,115.405339 C133.5044,114.311602 133.421893,112.885911 132.235612,112.089824 L132.235612,112.089824 Z M66.7235238,141.783154 C66.6772398,142.067687 66.6400113,142.360292 66.6128445,142.631708 L66.5967457,142.637762 C66.4307268,142.341121 66.1691211,141.92643 65.9930404,141.655013 L64.7202284,139.72584 L63.8277507,139.589627 L63.1163846,144.113902 L64.2211653,144.288456 L64.5240241,142.3724 C64.5682959,142.08484 64.6155861,141.739768 64.6538208,141.415885 L64.6648887,141.412858 C64.8620991,141.74784 65.1206862,142.181702 65.3571375,142.539891 L66.8181043,144.742498 L67.3715009,144.828262 L68.0969534,140.259591 L66.9911665,140.082011 L66.7235238,141.783154 L66.7235238,141.783154 Z M120.22087,124.95838 C120.363747,125.050197 120.516686,125.144033 120.642458,125.205581 L121.507769,125.659622 L120.796403,126.308398 L120.419087,125.408386 C120.367772,125.279236 120.295327,125.112754 120.208796,124.967461 L120.22087,124.95838 L120.22087,124.95838 Z M118.982268,124.137069 L120.770242,128.763251 L121.54701,128.057973 L121.164663,127.114574 L122.277493,126.09853 L123.194119,126.560643 L124.013146,125.813997 L119.551764,123.623497 L118.982268,124.137069 L118.982268,124.137069 Z M115.183956,129.506871 C114.640621,129.680416 114.429324,129.670326 114.302546,129.493754 C114.167718,129.313146 114.218027,129.062919 114.538997,128.834889 C114.831794,128.620984 115.216153,128.51605 115.473734,128.505961 L114.994795,127.701802 C114.753313,127.71391 114.384046,127.808754 113.926236,128.140709 C113.108216,128.731972 113.003573,129.57649 113.464402,130.20105 C113.836687,130.711595 114.480639,130.873032 115.295641,130.626841 C115.87218,130.457332 116.081464,130.471457 116.244465,130.693433 C116.40344,130.913391 116.320934,131.186826 115.986884,131.430999 C115.574352,131.734703 115.086357,131.876969 114.515855,131.853763 L115.232252,132.660948 C115.640759,132.660948 116.121711,132.486394 116.580527,132.154439 C117.492122,131.488511 117.619907,130.669218 117.085627,129.946787 C116.663034,129.36864 115.923495,129.271778 115.183956,129.506871 L115.183956,129.506871 Z M105.983487,137.353723 L105.570955,136.533421 L106.71397,135.965364 L106.302444,135.13699 L105.158423,135.704038 L104.752934,134.886762 L106.15353,134.192583 L105.747035,133.374298 L103.344288,134.564897 L105.390849,138.668427 L107.972696,137.38702 L107.566201,136.572771 L105.983487,137.353723 L105.983487,137.353723 Z M98.9271777,140.303987 L98.6031892,140.421028 L97.6744892,137.915726 L97.9964654,137.797675 C98.751097,137.521214 99.541951,137.702831 99.8468222,138.535241 C100.158737,139.377741 99.6787908,140.025508 98.9271777,140.303987 L98.9271777,140.303987 Z M97.7861747,136.857304 L96.3332572,137.392065 L97.931064,141.693355 L99.3829752,141.154558 C100.626608,140.696481 101.392308,139.494783 100.900288,138.152837 C100.399213,136.813918 99.0328262,136.39519 97.7861747,136.857304 L97.7861747,136.857304 Z M21.2886618,110.433076 L17.4028119,112.881875 L17.9984678,113.819219 L21.88633,111.371429 L21.2886618,110.433076 L21.2886618,110.433076 Z M17.4923615,106.148938 C17.6925905,106.046022 17.9310541,106.137839 18.1101533,106.482911 C18.2761723,106.804776 18.3184316,107.204333 18.2892525,107.461624 L19.1626129,107.105453 C19.1857549,106.868342 19.151545,106.491992 18.8909455,105.986492 C18.4281048,105.091525 17.6131026,104.861477 16.9188415,105.213612 C16.3563894,105.500163 16.0947837,106.114633 16.2125063,106.95007 C16.2919941,107.546378 16.2447039,107.750193 15.999197,107.874297 C15.7557026,107.999411 15.4981216,107.874297 15.310973,107.510055 C15.0745217,107.056013 15.0121388,106.550513 15.1177873,105.992546 L14.2092108,106.570693 C14.141797,106.974285 14.2373837,107.477767 14.5010017,107.98024 C15.0151574,108.985187 15.8090299,109.233396 16.6129641,108.820722 C17.2549041,108.492803 17.4591577,107.776426 17.340429,107.01969 C17.2508794,106.446588 17.3011882,106.247818 17.4923615,106.148938 L17.4923615,106.148938 Z M25.0376718,115.629333 C24.4239047,114.831228 23.5787173,114.747482 22.9609255,115.21565 C22.4558254,115.598054 22.3079176,116.242794 22.5705294,117.047961 C22.7586842,117.621063 22.7476163,117.830931 22.5262577,117.995395 C22.3109361,118.15885 22.0302131,118.083177 21.7837001,117.758285 C21.4748043,117.35671 21.3178409,116.867354 21.3268965,116.300306 L20.5320178,117.030809 C20.5400672,117.439446 20.7252035,117.913668 21.0693155,118.365692 C21.754521,119.258641 22.5805912,119.365593 23.295982,118.819734 C23.8705082,118.379818 23.9469775,117.649315 23.6944275,116.916794 C23.5042603,116.37497 23.5153282,116.165102 23.6883904,116.032926 C23.8654773,115.89974 24.116015,115.942117 24.3585033,116.255911 C24.5768434,116.540443 24.6905412,116.924866 24.7096586,117.183165 L25.5045372,116.683719 C25.4854199,116.447617 25.3848023,116.07833 25.0376718,115.629333 L25.0376718,115.629333 Z M128.144503,118.997315 L125.858472,117.020719 L125.147106,117.845057 L127.354655,119.750015 C127.711847,120.054728 127.721909,120.53803 127.369747,120.938596 C127.024629,121.34118 126.54569,121.397683 126.194534,121.091961 L123.979942,119.183976 L123.250465,120.027485 L125.54052,121.998027 C126.314269,122.664964 127.386852,122.415745 128.104256,121.591407 C128.823671,120.756979 128.918252,119.663243 128.144503,118.997315 L128.144503,118.997315 Z M58.3913843,141.29178 C58.2646062,141.739768 57.8309445,141.953672 57.3167888,141.80737 C56.801627,141.661067 56.5510893,141.251421 56.6839044,140.809487 L57.483814,138.004517 L56.4092185,137.698795 L55.575099,140.594573 C55.3004131,141.577322 55.9805877,142.442019 57.0340535,142.744714 C58.0925502,143.043373 59.1329357,142.666013 59.4126525,141.68831 L60.2387226,138.789505 L59.1963247,138.488828 L58.3913843,141.29178 L58.3913843,141.29178 Z M124.159041,118.302126 C124.383419,117.84203 124.529314,117.473752 124.589685,116.936973 L123.900454,116.572731 C123.931646,117.185183 123.726386,117.873309 123.501003,118.354593 L124.159041,118.302126 L124.159041,118.302126 Z M59.7849374,137.603951 L59.8271968,136.829053 C59.2818496,137.115604 58.5684712,137.219529 58.0382167,137.216502 L58.3601929,137.790613 C58.8753547,137.804738 59.2697755,137.782541 59.7849374,137.603951 L59.7849374,137.603951 Z M27.7774877,119.162788 L27.1315231,119.769186 L28.0853775,120.77615 L25.38279,123.308694 L26.1424525,124.113862 L28.8400091,121.586362 L29.7868203,122.591308 L30.4368097,121.982892 L27.7774877,119.162788 L27.7774877,119.162788 Z M46.3283459,135.607176 L46.2146481,136.575798 L45.3513495,136.142945 L46.0586909,135.471972 C46.1633331,135.380155 46.2911174,135.248987 46.3957597,135.114792 L46.4118585,135.125891 C46.3776485,135.291364 46.3424324,135.467936 46.3283459,135.607176 L46.3283459,135.607176 Z M43.038152,137.004616 L43.9829508,137.472783 L44.7285268,136.775577 L46.0808267,137.453613 L45.9771907,138.465621 L46.9672674,138.958005 L47.4210525,134.024083 L46.7338347,133.679011 L43.038152,137.004616 L43.038152,137.004616 Z M39.2941728,131.629769 C38.9862831,131.804323 38.647202,132.010155 38.383584,132.194799 L38.3705037,132.1837 C38.440936,131.870915 38.5013065,131.415864 38.5365226,131.125278 L38.779011,128.966056 L38.028404,128.465601 L35.133637,132.04446 L36.0261147,132.644805 L37.0906484,131.322029 C37.2536489,131.117206 37.4287234,130.897248 37.5947424,130.650047 L37.6078226,130.653074 C37.5383965,130.963841 37.4820507,131.287724 37.4468346,131.583355 L37.2305068,133.464098 L37.6037979,133.713316 L39.260969,132.79817 C39.524587,132.656912 39.8143656,132.48034 40.068928,132.297715 L40.0820083,132.306796 C39.9159893,132.550969 39.7721062,132.79817 39.6433157,133.032254 L38.8242888,134.517475 L39.7318592,135.125891 L41.9555071,131.095008 L41.1998693,130.585472 L39.2941728,131.629769 L39.2941728,131.629769 Z M29.8864317,127.738125 L32.0658078,129.620886 L32.6675008,128.927715 L31.327275,127.780502 L31.928968,127.083296 L32.8948965,127.913688 L33.5036327,127.215473 L32.5397165,126.386089 L33.1363786,125.690901 L34.3206472,126.711991 L34.9183155,126.023865 L32.8868471,124.27429 L29.8864317,127.738125 L29.8864317,127.738125 Z" id="Fill-4" fill="#E85900"></path>
                    <path d="M142.103176,104.635465 C138.471888,113.241072 133.27801,120.965838 126.662406,127.602922 C120.046802,134.240005 112.339497,139.441307 103.759839,143.084741 C94.8803398,146.854297 85.4424133,148.7643 75.7167207,148.7643 C65.9859972,148.7643 56.5541078,146.854297 47.6705841,143.084741 C39.0909254,139.441307 31.384627,134.240005 24.7700291,127.602922 C18.154425,120.965838 12.9575284,113.241072 9.32724713,104.635465 C8.67021451,103.070534 7.92966932,100.869945 7.38532836,99.2737351 L17.6483187,93.4297116 C20.3730421,103.08466 25.8456307,112.174578 33.0005449,119.352476 C44.4075568,130.791305 59.58169,137.08937 75.7167207,137.08937 C91.8527576,137.08937 106.989662,130.759017 118.432896,119.352476 C125.875577,111.930405 130.942677,102.899007 133.761981,93.351011 L144.120558,99.2596094 C143.546031,100.969834 142.806492,102.9656 142.103176,104.635465 L142.103176,104.635465 Z M75.7167207,17.5431694 C108.191036,17.5431694 134.520637,43.9452003 134.520637,76.5111021 C134.520637,109.078013 108.191036,135.479035 75.7167207,135.479035 C43.2403932,135.479035 16.9117982,109.078013 16.9117982,76.5111021 C16.9117982,43.9452003 43.2403932,17.5431694 75.7167207,17.5431694 L75.7167207,17.5431694 Z M143.670797,47.7238378 C139.957003,38.9154253 134.640372,31.0080336 127.870823,24.2125401 C121.091212,17.4231005 113.204808,12.0896219 104.420896,8.36546944 C95.3311064,4.50409547 85.6738337,2.55171538 75.7167207,2.55171538 C65.7606139,2.55171538 56.1033412,4.50409547 47.0075144,8.36546944 C38.2246082,12.0896219 30.3392106,17.4231005 23.565637,24.2125401 C16.7910572,31.0080336 11.4714072,38.9154253 7.75962566,47.7238378 C3.91502897,56.8409988 1.96204228,66.5302525 1.96204228,76.5111021 C1.96204228,86.4980055 3.91502897,96.1852414 7.75962566,105.302402 C11.4714072,114.109806 16.7910572,122.020224 23.565637,128.810673 C30.3392106,135.602131 38.2246082,140.935609 47.0075144,144.659762 C56.1033412,148.513064 65.7606139,150.472507 75.7167207,150.472507 C85.6738337,150.472507 95.3311064,148.513064 104.420896,144.659762 C113.204808,140.935609 121.091212,135.602131 127.870823,128.810673 C134.640372,122.020224 139.957003,114.109806 143.670797,105.302402 C147.520425,96.1852414 149.469387,86.4980055 149.469387,76.5111021 C149.469387,66.5302525 147.520425,56.8409988 143.670797,47.7238378 L143.670797,47.7238378 Z" id="Fill-5" fill="#E85900"></path>
                    <path d="M12.7683674,85.7725475 C12.8599294,86.3960984 12.7794354,86.9621372 12.5590829,87.3647211 L11.3878946,87.648245 C11.7068522,87.0983498 11.8245748,86.5424008 11.7390499,85.9763619 C11.6756608,85.524338 11.4502775,85.298326 11.1474187,85.3407032 C10.8415413,85.3871164 10.7157694,85.579832 10.5859727,86.2417241 C10.4038549,87.1679696 9.90680423,87.7148378 9.20650606,87.817754 C8.34622599,87.9438767 7.56643996,87.4000354 7.40343952,86.2871283 C7.3138899,85.6625685 7.4165198,85.2509038 7.52719911,85.0026943 L8.57664018,84.9512362 C8.45086824,85.2155895 8.35125687,85.6494517 8.4116274,86.0449726 C8.47501646,86.4798439 8.6953689,86.6634786 8.94490043,86.6241283 C9.18336403,86.5878049 9.30611744,86.3930714 9.41780292,85.7614487 C9.56872925,84.9139039 10.0476688,84.237886 10.8475783,84.122862 C11.8406736,83.9755506 12.5872558,84.5254458 12.7683674,85.7725475" id="Fill-6" fill="#FFFFFF"></path>
                    <path d="M12.186798,81.9585957 L7.06536454,82.2733981 L6.88123442,79.2969013 L7.89847788,79.2343444 L8.00613866,80.9697934 L9.02438829,80.9082455 L8.93986955,79.4916348 L9.97623034,79.4280689 L10.0637676,80.8456886 L11.0910728,80.7821227 L10.9703318,78.8196528 L11.9875752,78.7611319 L12.186798,81.9585957" id="Fill-7" fill="#FFFFFF"></path>
                    <path d="M7.8441444,75.0511052 L7.83307647,75.5777938 L8.98112275,75.6050363 L8.99420303,75.0793567 C9.00225243,74.7595094 8.83723965,74.4325993 8.43275708,74.4204915 C8.04638568,74.4124196 7.85219381,74.727222 7.8441444,75.0511052 L7.8441444,75.0511052 Z M12.0288284,73.8655514 L9.97421799,75.1903447 L9.96113771,75.6332878 L11.9825443,75.6847459 L11.9513529,76.8793805 L6.81583301,76.7461949 L6.86916032,74.837201 C6.89129618,73.9624137 7.50003237,73.2036592 8.46696705,73.2278748 C9.06765384,73.2440185 9.54055634,73.60927 9.73374204,74.0461592 L12.0630384,72.4812281 L12.0288284,73.8655514 L12.0288284,73.8655514 Z" id="Fill-8" fill="#FFFFFF"></path>
                    <path d="M12.5007247,68.8014709 L12.3830022,69.8124709 L7.03316693,71.0666354 L7.18409326,69.802381 L9.521439,69.2666116 C9.87058191,69.186902 10.301225,69.1162733 10.6946397,69.0668332 L10.696652,69.0537164 C10.3243671,68.908423 9.92390921,68.739923 9.60193305,68.5825218 L7.45173595,67.5240998 L7.58656347,66.3516627 L12.5007247,68.8014709" id="Fill-9" fill="#FFFFFF"></path>
                    <path d="M13.0339978,65.1529922 L7.99909543,64.1692348 L8.23755903,62.9534115 L13.2764861,63.934142 L13.0339978,65.1529922" id="Fill-10" fill="#FFFFFF"></path>
                    <path d="M11.0940914,56.8541155 C10.8586463,57.0670107 10.6081086,57.4130915 10.4602008,57.9438161 C10.2116754,58.84181 10.6252136,59.7287051 11.5639753,59.9870045 C12.4967,60.23925 13.3056652,59.6893548 13.5642523,58.7550375 C13.7111539,58.2202771 13.7081354,57.779352 13.6065116,57.4605137 L14.6539404,57.8560346 C14.7404715,58.170837 14.7233665,58.615798 14.5674093,59.2060525 L14.6559527,59.2474207 C14.7756876,58.8710705 15.202306,58.5895645 15.6711838,58.7156873 C16.2195495,58.8690525 16.3755067,59.3937231 16.2497347,59.8407021 C16.1752778,60.1121183 16.0696293,60.2664925 15.9146783,60.3966512 L15.4337264,60.181738 C15.6047762,60.0455255 15.6762147,59.904268 15.7245111,59.7287051 C15.7788446,59.5369986 15.6852703,59.3765704 15.5132143,59.3271303 C15.3220409,59.2746633 15.1660837,59.3876692 15.1097379,59.5955195 C15.0886082,59.6711932 15.0694909,59.7498938 15.0614415,59.8618908 L14.4366064,59.5854297 C13.9576669,60.7154895 12.7744045,61.6195373 11.2289189,61.1967739 C9.52244518,60.7336512 9.02740682,59.0910285 9.38057443,57.7995316 C9.55162427,57.1800167 9.81826078,56.7300108 10.0698047,56.4828102 L11.0940914,56.8541155" id="Fill-11" fill="#FFFFFF"></path>
                    <path d="M12.4926753,52.0291638 C12.20994,52.74655 12.5329224,53.642526 13.4254,53.9926427 C14.3229086,54.3427594 15.1711146,53.8988074 15.4548561,53.1794032 C15.7335667,52.463026 15.4146091,51.5559513 14.514082,51.2068435 C13.6236166,50.8597537 12.7723921,51.3158136 12.4926753,52.0291638 L12.4926753,52.0291638 Z M16.4821613,53.5789601 C15.9680056,54.8946726 14.5070387,55.765424 12.9645717,55.1630618 C11.4351849,54.5707894 10.9572515,52.9453194 11.4714072,51.6306159 C11.9895876,50.3068316 13.4435112,49.442134 14.9769227,50.0333975 C16.5173774,50.6377777 16.9983293,52.2571937 16.4821613,53.5789601 L16.4821613,53.5789601 Z" id="Fill-12" fill="#FFFFFF"></path>
                    <path d="M16.9490267,42.9735507 L16.7528225,43.3105507 L19.3336627,44.8189787 L19.5278546,44.4900506 C19.9826459,43.7191884 19.931331,42.8171585 19.0740694,42.3126675 C18.2137894,41.8132214 17.4007995,42.2097514 16.9490267,42.9735507 L16.9490267,42.9735507 Z M20.5269869,44.9017152 L19.650608,46.3889546 L15.2234357,43.8009159 L16.1008208,42.3136765 C16.8494154,41.0423592 18.3234625,40.4359611 19.701923,41.2441556 C21.0854143,42.0493232 21.272563,43.62838 20.5269869,44.9017152 L20.5269869,44.9017152 Z" id="Fill-13" fill="#FFFFFF"></path>
                    <path d="M23.0414195,40.884958 L18.8678035,37.9054343 L20.6115057,35.4818596 L21.4456252,36.07615 L20.4263694,37.4867068 L21.2594827,38.0809972 L22.0825343,36.9287398 L22.9317464,37.53312 L22.0986331,38.6853774 L22.9377835,39.2826947 L24.0858297,37.6874942 L24.9169307,38.2807756 L23.0414195,40.884958" id="Fill-14" fill="#FFFFFF"></path>
                    <path d="M27.4474622,30.709375 C27.3055914,30.650854 27.1244798,30.5580277 26.9554423,30.4682283 L26.9463868,30.4793271 C27.0540475,30.6377372 27.148628,30.8133001 27.2130233,30.9555666 L27.7030308,31.9322611 L28.4445821,31.153327 L27.4474622,30.709375 L27.4474622,30.709375 Z M30.3895194,32.0271054 L29.3390722,31.5821444 L28.1729147,32.7979676 L28.672984,33.8200663 L27.8599941,34.6645842 L25.514599,29.6499439 L26.1092487,29.031438 L31.246781,31.1381923 L30.3895194,32.0271054 L30.3895194,32.0271054 Z" id="Fill-15" fill="#FFFFFF"></path>
                    <path d="M31.2256513,25.6311688 L33.958424,28.7206715 L33.029724,29.5379469 L30.2919204,26.4403723 L29.125763,27.46348 L28.472755,26.7228872 L31.728739,23.8654503 L32.3857717,24.6141149 L31.2256513,25.6311688" id="Fill-16" fill="#FFFFFF"></path>
                    <path d="M36.5463075,26.5957555 L33.4955833,22.483145 L35.8983304,20.7103637 L36.5070666,21.5286481 L35.1054641,22.5628546 L35.7111818,23.3851749 L36.8572157,22.539648 L37.4719889,23.3710492 L36.3279674,24.2125401 L36.9397221,25.0358694 L38.5254547,23.8715042 L39.1351971,24.6918065 L36.5463075,26.5957555" id="Fill-17" fill="#FFFFFF"></path>
                    <path d="M44.2978837,21.5205762 L41.4584564,20.6750494 C41.0006465,20.5378278 40.4653611,20.3562111 40.05786,20.2068817 L40.0498106,20.2210075 C40.2490334,20.5216841 40.4573117,20.8546482 40.6243369,21.1290912 L41.7462226,22.9815821 L40.6776642,23.6253126 L38.028404,19.241286 L38.8917026,18.7226693 L41.3679006,19.466289 C41.7110064,19.5702141 42.2362301,19.7407321 42.5904038,19.8749267 L42.6014718,19.858783 C42.4284096,19.6055285 42.2523289,19.3300764 42.0873161,19.0556333 L41.0901961,17.4069568 L42.1567422,16.7652443 L44.8351814,21.1916481 L44.2978837,21.5205762" id="Fill-18" fill="#FFFFFF"></path>
                    <path d="M46.4168894,15.8188192 L46.0657341,15.9832832 L47.3345214,18.68231 L47.6836644,18.5198639 C48.4906171,18.1425046 48.9685505,17.3726514 48.5459568,16.4736485 C48.1243692,15.5726276 47.2278668,15.439442 46.4168894,15.8188192 L46.4168894,15.8188192 Z M48.2682523,19.4249207 L46.6996247,20.1554237 L44.5272917,15.5211695 L46.0969256,14.7916755 C47.4371514,14.1681247 48.9997419,14.5031067 49.6748857,15.9449419 C50.353048,17.392831 49.6094843,18.8013699 48.2682523,19.4249207 L48.2682523,19.4249207 Z" id="Fill-19" fill="#FFFFFF"></path>
                    <path d="M52.720579,17.5189538 L50.9225434,12.7262895 L52.0917193,12.2914182 L53.8887488,17.0810556 L52.720579,17.5189538" id="Fill-20" fill="#FFFFFF"></path>
                    <path d="M60.7086065,15.0096157 L60.046543,13.2348164 C59.9408946,12.9543194 59.8352462,12.6516248 59.7477089,12.3378314 L59.736641,12.3408584 C59.7054495,12.6889571 59.6370296,13.0632894 59.5686097,13.3881816 L59.1329357,15.4545767 L58.6550023,15.5817084 L57.2181836,14.0278762 C56.990788,13.7816846 56.7573553,13.4991697 56.5450522,13.2146367 L56.5299596,13.2206906 C56.6205154,13.5465918 56.6768612,13.8513044 56.7322009,14.1348283 L57.0722882,15.995391 L55.9151863,16.3122114 L54.9915172,11.2632656 L55.9685136,10.9938674 L57.6166292,12.7757296 C57.8430186,13.0199032 58.1790813,13.4002894 58.4014461,13.6888583 L58.4175449,13.6868403 C58.452761,13.3286517 58.5262118,12.8947895 58.6036873,12.5073404 L59.1057689,10.1443046 L60.0918209,9.87591543 L61.8858319,14.6877504 L60.7086065,15.0096157" id="Fill-21" fill="#FFFFFF"></path>
                    <path d="M63.8740347,14.3426786 L63.0459523,9.29373284 L65.9990775,8.81547539 L66.1650964,9.81739448 L64.4395054,10.1009184 L64.6065305,11.1048555 L66.0111516,10.8737986 L66.1801891,11.8958973 L64.7715433,12.1249362 L64.9395746,13.1379541 L66.8845119,12.8201248 L67.0495247,13.8240618 L63.8740347,14.3426786" id="Fill-22" fill="#FFFFFF"></path>
                    <path d="M73.0966396,13.3569032 L70.960529,11.3157327 C70.6174231,10.9807507 70.2280332,10.574131 69.9291991,10.2583196 L69.9110879,10.2684094 C69.9543535,10.6235711 69.9915819,11.018083 70.0117055,11.3369213 L70.1555886,13.4951337 L68.9129618,13.5819062 L68.5668374,8.47746644 L69.5720068,8.40986464 L71.4344377,10.1977807 C71.6920186,10.4459902 72.0834209,10.8354573 72.3339586,11.1179722 L72.3500574,11.1088914 C72.3128289,10.8072058 72.2806313,10.4792866 72.2605078,10.1604483 L72.135742,8.23833771 L73.3743441,8.15459221 L73.7265055,13.314526 L73.0966396,13.3569032" id="Fill-23" fill="#FFFFFF"></path>
                    <path d="M78.4344008,9.21503225 L78.2945424,13.3357146 L77.0589588,13.2953553 L77.1978111,9.16660112 L75.6483008,9.11514304 L75.678486,8.13037664 L80.0080593,8.27869699 L79.977874,9.27153524 L78.4344008,9.21503225" id="Fill-24" fill="#FFFFFF"></path>
                    <path d="M84.4976145,9.73465796 C83.7278902,9.6317418 82.9320054,10.1543945 82.8032149,11.0967836 C82.6734183,12.0502716 83.3103274,12.7686667 84.0740146,12.8675469 C84.8377018,12.9714721 85.6456608,12.4518464 85.778476,11.4993674 C85.9082726,10.5519333 85.2602956,9.83454717 84.4976145,9.73465796 L84.4976145,9.73465796 Z M83.927113,13.9582564 C82.5234981,13.7715948 81.3291678,12.5678793 81.5495202,10.9282836 C81.7678603,9.30886757 83.2368766,8.46434967 84.64351,8.65202032 C86.0531619,8.84170892 87.2484984,10.0454244 87.0261336,11.6658494 C86.8077935,13.3024182 85.3357587,14.1459271 83.927113,13.9582564 L83.927113,13.9582564 Z" id="Fill-25" fill="#FFFFFF"></path>
                    <path d="M96.3372819,16.7511185 L96.7427707,14.9026636 C96.8071659,14.6110678 96.8826291,14.2992924 96.9802281,13.9865079 L96.9641293,13.983481 C96.7508201,14.2589331 96.4942453,14.5384211 96.2588002,14.7765408 L94.7746913,16.278915 L94.2987703,16.1326126 L93.9365471,14.0520918 C93.8761766,13.7271996 93.8319049,13.3579122 93.8087628,13.0037595 L93.7916578,13.0007326 C93.6930526,13.3205798 93.5763363,13.6121756 93.465657,13.8785469 L92.7452353,15.6301396 L91.597189,15.271951 L93.5592313,10.5236819 L94.526166,10.8243585 L94.9477535,13.2095918 C95.0071179,13.53852 95.082581,14.039984 95.1137725,14.4052355 L95.1288651,14.4082624 C95.3512299,14.1207025 95.6490579,13.7948014 95.92475,13.5122864 L97.6282051,11.7919722 L98.5991645,12.0976937 L97.5054517,17.1123341 L96.3372819,16.7511185" id="Fill-26" fill="#FFFFFF"></path>
                    <path d="M103.83329,13.702984 L103.568665,13.0188942 C104.153253,13.1046577 104.958194,13.1066757 105.606171,12.8806637 L105.437133,13.7292175 C104.839465,13.8381876 104.399766,13.7998463 103.83329,13.702984 L103.83329,13.702984 Z M103.448931,15.1397743 C102.743601,14.821945 101.823957,15.0953791 101.430542,15.9671395 C101.036122,16.8439449 101.435573,17.7066244 102.139896,18.0244538 C102.842207,18.3412741 103.771913,18.0718759 104.168346,17.1930526 C104.561761,16.3263371 104.152247,15.4515497 103.448931,15.1397743 L103.448931,15.1397743 Z M101.68913,19.0273818 C100.399213,18.4451992 99.5982968,16.9539239 100.283502,15.4485228 C100.953615,13.9592654 102.606762,13.5657625 103.896679,14.1459271 C105.194645,14.7291187 105.993548,16.222412 105.319411,17.7096514 C104.63823,19.2180794 102.987096,19.6085554 101.68913,19.0273818 L101.68913,19.0273818 Z" id="Fill-27" fill="#FFFFFF"></path>
                    <path d="M108.081363,22.2430073 L107.200959,21.7294355 L108.184999,16.3414718 L109.292798,16.9872203 L108.84505,19.3361303 C108.780655,19.686247 108.671988,20.1090105 108.562315,20.4853608 L108.574389,20.4964596 C108.854105,20.2149536 109.172057,19.912259 109.442718,19.6822111 L111.277982,18.1425046 L112.29925,18.737804 L108.081363,22.2430073" id="Fill-28" fill="#FFFFFF"></path>
                    <path d="M111.150198,24.1277856 L114.120428,19.9566542 L116.564429,21.6799954 L115.969779,22.5124055 L114.545034,21.5034236 L113.955415,22.3338157 L115.117548,23.156136 L114.516861,24.0006539 L113.354729,23.1803516 L112.760079,24.0137707 L114.366941,25.1498844 L113.771285,25.9812855 L111.150198,24.1277856" id="Fill-29" fill="#FFFFFF"></path>
                    <path d="M115.270487,27.1446417 L118.56873,23.2297917 L119.521578,24.0299144 L116.912565,27.12648 L118.488236,28.4462284 L117.799006,29.2665308 L115.270487,27.1446417" id="Fill-30" fill="#FFFFFF"></path>
                    <path d="M125.450971,31.1472731 L125.196408,30.8617312 L122.96773,32.8524526 L123.225311,33.1379945 C123.820966,33.7998867 124.696339,34.0299346 125.440909,33.3670334 C126.181454,32.7011054 126.048639,31.8091653 125.450971,31.1472731 L125.450971,31.1472731 Z M122.526019,33.9582969 L121.368917,32.6758808 L125.191377,29.2604769 L126.347473,30.5439019 C127.336544,31.6406653 127.462316,33.224767 126.274022,34.2902519 C125.080698,35.3567459 123.513077,35.0540513 122.526019,33.9582969 L122.526019,33.9582969 Z" id="Fill-31" fill="#FFFFFF"></path>
                    <path d="M125.601897,37.5643984 L129.714136,34.509201 L131.50211,36.9004883 L130.686102,37.5089044 L129.643704,36.1144913 L128.825683,36.7198805 L129.672883,37.8610391 L128.838764,38.479545 L127.988545,37.3404044 L127.165494,37.9518475 L128.339701,39.5298953 L127.520674,40.1352844 L125.601897,37.5643984" id="Fill-32" fill="#FFFFFF"></path>
                    <path d="M131.229437,46.3334606 C130.643843,45.2649487 130.804831,44.0501345 131.803963,43.5042752 L134.769162,41.8909131 L135.367837,42.9826315 L132.501243,44.5404997 C132.040414,44.7927452 131.910618,45.308335 132.196371,45.8279607 C132.479107,46.3496043 132.995275,46.5292031 133.450066,46.2789756 L136.317666,44.7200985 L136.900242,45.7855834 L133.935043,47.3979366 C132.93088,47.9407689 131.819056,47.4130713 131.229437,46.3334606" id="Fill-33" fill="#FFFFFF"></path>
                    <path d="M137.814856,50.1403496 L137.605571,49.6520023 L136.547074,50.0999903 L136.755353,50.5853106 C136.882131,50.8819513 137.169897,51.1109902 137.539164,50.9515711 C137.893337,50.8032507 137.941634,50.4349723 137.814856,50.1403496 L137.814856,50.1403496 Z M134.496489,52.9443104 L135.815585,50.8880052 L135.644535,50.4844124 L133.786129,51.2694004 L133.317251,50.1686011 L138.044264,48.1687988 L138.791852,49.9264454 C139.128921,50.732622 138.895488,51.6740021 138.009048,52.0513614 C137.452632,52.2864542 136.869051,52.1512506 136.513871,51.8283764 L135.043848,54.2216816 L134.496489,52.9443104 L134.496489,52.9443104 Z" id="Fill-34" fill="#FFFFFF"></path>
                    <path d="M136.172777,58.0275616 C135.749177,56.6835976 136.205981,55.0429929 137.876232,54.5142864 C139.566607,53.9805349 140.880672,55.1005049 141.288174,56.379894 C141.503495,57.0639838 141.503495,57.6542382 141.389797,58.056822 L140.320233,58.2939328 C140.457073,57.8842861 140.469147,57.3646604 140.300109,56.8309089 C140.017374,55.9419958 139.187279,55.3991635 138.221351,55.7028671 C137.302712,55.991436 136.922378,56.8753042 137.203101,57.7632083 C137.292651,58.0467322 137.404336,58.2424747 137.560293,58.3847412 L138.252542,58.1647831 L137.970813,57.277888 L138.882408,56.9923461 L139.506237,58.9608699 L137.252404,59.6732111 C136.790569,59.3634537 136.42734,58.8135585 136.172777,58.0275616" id="Fill-35" fill="#FFFFFF"></path>
                    <path d="M143.354858,62.8757199 C143.417241,62.5982498 143.495723,62.3581121 143.678847,62.0927499 C143.401142,61.9212229 143.230092,61.7375882 143.056024,61.5105673 L143.428309,60.9213218 C143.710038,61.2956541 144.164829,61.6548517 144.704139,61.8687559 C144.300663,62.2834475 144.038051,62.8000462 143.93844,63.2550971 L143.354858,62.8757199 L143.354858,62.8757199 Z M137.360064,61.8273876 L142.381886,60.7487859 L143.012758,63.6607078 L142.014632,63.87663 L141.646372,62.1734684 L140.645227,62.3924175 L140.946074,63.7787587 L139.932855,63.9977078 L139.632009,62.6123756 L138.624827,62.8303157 L139.040377,64.7483904 L138.044264,64.9633036 L137.360064,61.8273876 L137.360064,61.8273876 Z" id="Fill-36" fill="#FFFFFF"></path>
                    <path d="M138.82405,70.9556474 L140.760938,68.7247883 C141.073858,68.3645817 141.462242,67.9549351 141.768119,67.6461866 L141.758058,67.6310519 C141.395834,67.6925998 141.007451,67.7430489 140.687487,67.7803812 L138.531253,68.0386806 L138.384351,66.8026777 L143.482642,66.2013244 L143.598353,67.1951717 L141.905965,69.1374619 C141.67052,69.411905 141.297229,69.8195337 141.027574,70.083887 L141.03663,70.0970038 C141.339489,70.0435277 141.666496,69.9991325 141.984447,69.9638182 L143.906242,69.7337703 L144.049119,70.9697732 L138.8975,71.5751623 L138.82405,70.9556474" id="Fill-37" fill="#FFFFFF"></path>
                    <path d="M142.986598,77.6381349 C143.153623,77.3707547 143.297506,76.964135 143.289457,76.4132308 C143.276376,75.4859764 142.627393,74.7484106 141.654421,74.7615274 C140.689499,74.7786801 140.063658,75.5313806 140.080763,76.5020213 C140.085794,77.0569613 140.21559,77.4777068 140.406764,77.7551769 L139.284878,77.6684044 C139.11081,77.3858895 139.001137,76.9500093 138.992081,76.3345303 C138.967933,74.9905663 139.874497,73.5295604 141.637316,73.5043359 C143.406173,73.4760844 144.346947,74.9128747 144.367071,76.2528027 C144.374114,76.8924973 144.243311,77.4010242 144.074274,77.7077547 L142.986598,77.6381349" id="Fill-38" fill="#FFFFFF"></path>
                    <path d="M139.028303,79.8276258 L144.154768,80.1414192 L144.074274,81.380449 L138.951834,81.0656467 L139.028303,79.8276258" id="Fill-39" fill="#FFFFFF"></path>
                    <path d="M141.482365,85.9299487 C141.637316,85.8956433 141.833521,85.8663828 142.021676,85.8462032 L142.027713,85.8280415 C141.848613,85.7624577 141.666496,85.6736673 141.52865,85.5969847 L140.560709,85.0874488 L140.414813,86.1549517 L141.482365,85.9299487 L141.482365,85.9299487 Z M138.321968,86.5716612 L139.435804,86.3254696 L139.671249,84.6556045 L138.669099,84.1188261 L138.834111,82.9605148 L143.670797,85.6706403 L143.552068,86.5181852 L138.151924,87.7925294 L138.321968,86.5716612 L138.321968,86.5716612 Z" id="Fill-40" fill="#FFFFFF"></path>
                    <path d="M73.4457825,73.3630784 L73.3169921,70.6014948 C73.1831707,70.4975696 73.0423061,70.3946535 72.9104971,70.2877014 C68.3444726,65.8683604 72.0793962,63.7182198 72.0793962,63.7182198 C72.0793962,63.7182198 72.3520697,64.2701329 73.6510423,64.320582 C73.8774318,64.3296629 74.1299819,64.3347078 74.3915875,64.3347078 C75.1130154,64.323609 75.8364556,64.2539892 76.3224384,64.1076869 C76.5951119,64.0007348 76.779242,63.8453515 76.8003717,63.6264025 C76.8174767,63.4720282 76.7510691,63.3358157 76.6232848,63.2086839 C76.4743709,63.1027408 76.2681049,62.9957887 76.0054931,62.8646211 C75.7167207,62.7273995 75.3907198,62.5629355 75.0586819,62.3449954 C74.6411191,62.0644984 74.2839267,61.7910643 73.9639629,61.5478996 C73.6862585,61.3380314 73.1499669,60.9435194 72.4788478,60.8496841 C70.7049604,60.7699745 69.453278,61.804181 68.6825476,63.1774055 C66.8996046,66.3718424 68.1130522,69.6288361 71.4183388,71.9505036 C72.0693344,72.4075725 72.7635955,72.882803 73.4457825,73.3630784" id="Fill-41" fill="#FFFFFF"></path>
                    <path d="M77.0589588,90.668128 L76.9573351,93.0493254 C77.2068666,93.3631188 77.3547744,93.6769122 77.3547744,94.0068493 C77.3547744,94.6758043 76.8889152,95.1792863 76.2650864,95.6403911 L76.7933285,83.2500926 L76.796347,83.1340597 C78.7060682,81.4087005 80.8522406,79.5572186 80.8804135,77.4797248 C80.8804135,76.1448416 79.5401877,74.9128747 77.8196275,73.6909975 L77.6687012,77.0509074 C77.8196275,77.3142517 77.908171,77.5675062 77.9121957,77.7985631 C77.931313,78.476599 77.5459478,79.147572 76.9523042,79.8225809 L76.9523042,79.8195539 C76.3013087,80.541985 75.4027939,81.2845958 75.4027939,81.2845958 C75.4027939,81.2845958 76.6102046,79.9577845 76.9875204,79.1092306 L77.9806156,58.0759927 L75.6422637,56.2406545 L73.3018994,58.0759927 L73.4528258,60.5843218 C73.8402033,60.7699745 74.1501054,60.9919506 74.331217,61.1281631 C74.331217,61.1281631 75.3605346,61.8788457 75.3605346,61.8798547 C75.3605346,61.8808637 76.2409381,62.3621481 76.2499937,62.366184 L76.9482795,62.75666 L76.9583413,62.7606959 L77.0116686,62.812154 C77.289373,63.0865971 77.3587991,63.3681031 77.3587991,63.5840252 C77.3587991,63.6193396 77.3557806,63.652636 77.3537683,63.6829054 C77.3245892,63.9765192 77.1535393,64.379103 76.4824203,64.6394203 C75.86161,64.829109 75.0083731,64.880567 74.3915875,64.8916658 L73.6299126,64.8765311 C73.6268941,64.8755221 73.6228694,64.8755221 73.6228694,64.8755221 L74.4388778,82.1159969 C72.680083,83.5971824 70.9162573,85.1651404 70.9162573,86.9409486 C70.9162573,88.5855892 72.5804716,89.8236101 74.2175192,90.9274364 L74.0947657,87.8893917 C73.9579259,87.6270564 73.8774318,87.3556402 73.8834689,87.0811971 C73.8915183,86.5242391 74.1601672,85.9632451 74.5847732,85.3941793 L75.0546572,96.4374868 C73.9951544,97.1114868 72.966843,97.8490526 72.966843,99.055795 C72.966843,100.265564 73.9840864,101.127235 75.2820529,101.738678 L75.3665716,103.741507 C75.3665716,103.74857 75.3605346,103.753615 75.3605346,103.75866 C75.3605346,103.912025 75.4873127,104.035121 75.6422637,104.035121 C75.7941962,104.035121 75.9199681,103.912025 75.9199681,103.75866 C75.9199681,103.75866 75.9199681,103.75866 75.9199681,103.753615 L75.9924128,102.041373 C76.4814141,102.227025 76.9875204,102.387453 77.4835649,102.518621 C77.7874299,102.600349 77.7954793,102.506513 77.5248181,102.389471 C76.9573351,102.139244 76.452235,101.877918 76.0105239,101.608519 L76.2027035,97.1417563 C77.7220285,96.3053102 79.5039654,95.422451 79.5824471,93.9624541 C79.6458361,92.7668105 78.3991846,91.6993076 77.0589588,90.668128" id="Fill-42" fill="#FFFFFF"></path>
                    <path d="M75.1260957,98.0447951 L75.2528738,101.080822 C74.4751001,100.466352 74.0354014,99.8206034 74.044457,99.1869627 C74.050494,98.6562382 74.4901927,98.2122861 75.1130154,97.7915406 C75.1240833,97.7844778 75.1391759,97.7753969 75.1492377,97.7653071 C75.3132443,97.657346 75.4873127,97.548376 75.6734551,97.4404149 C75.5426523,97.5614927 75.2760158,97.8228191 75.1260957,98.0447951" id="Fill-43" fill="#FFFFFF"></path>
                </g>
            </g>
        </g>
    </g>
</svg>