<?xml version="1.0" encoding="UTF-8" standalone="no"?>
<svg width="46px" height="44px" viewBox="0 0 46 44" version="1.1" xmlns="http://www.w3.org/2000/svg" xmlns:xlink="http://www.w3.org/1999/xlink" xmlns:sketch="http://www.bohemiancoding.com/sketch/ns">
    <!-- Generator: Sketch 3.3.2 (12043) - http://www.bohemiancoding.com/sketch -->
    <title>icon_prevention_selected</title>
    <desc>Created with Sketch.</desc>
    <defs></defs>
    <g id="Smartphone" stroke="none" stroke-width="1" fill="none" fill-rule="evenodd" sketch:type="MSPage">
        <g id="health-tips-icons-web-white" sketch:type="MSLayerGroup" transform="translate(-533.000000, -7.000000)" fill="#FFFFFF">
            <path d="M568.115,7.10125 C567.3925,7.035 566.7025,7 566.0625,7 C560.935,7 558.47375,9.23375 555.65375,12.62 C552.83375,9.23375 550.385,7 545.23625,7 C544.59875,7 543.92,7.035 543.1875,7.10125 C538.7525,7.5425 533.62,11.64625 533,19.49875 L533,22.1125 C533.56875,29.63625 539.20875,38.91375 555.65375,50.55625 C572.1025,38.915 577.7325,29.6375 578.3225,22.11375 L578.3225,19.49875 C577.68875,11.64625 572.56375,7.5425 568.115,7.10125 L568.115,7.10125 Z M563.77,30.8 L557.895,30.8 L557.895,36.97125 L553.55125,36.97125 L553.55125,30.8 L547.5525,30.8 L547.5525,26.47875 L553.55125,26.47875 L553.55125,20.58375 L557.895,20.58375 L557.895,26.4775 L563.77,26.4775 L563.77,30.8 L563.77,30.8 Z" id="icon_prevention_selected" sketch:type="MSShapeGroup"></path>
        </g>
    </g>
</svg>