<?xml version="1.0" encoding="UTF-8" standalone="no"?>
<svg width="50px" height="50px" viewBox="0 0 50 50" version="1.1" xmlns="http://www.w3.org/2000/svg" xmlns:xlink="http://www.w3.org/1999/xlink" xmlns:sketch="http://www.bohemiancoding.com/sketch/ns">
    <!-- Generator: Sketch 3.3.2 (12043) - http://www.bohemiancoding.com/sketch -->
    <title>icon_ pharmacy_default</title>
    <desc>Created with Sketch.</desc>
    <defs></defs>
    <g id="Smartphone" stroke="none" stroke-width="1" fill="none" fill-rule="evenodd" sketch:type="MSPage">
        <g id="health-tips-icons-web-blue" sketch:type="MSLayerGroup" transform="translate(-310.000000, -4.000000)" fill="#1E88E5">
            <g id="icon_-pharmacy_default" transform="translate(310.000000, 4.000000)" sketch:type="MSShapeGroup">
                <path d="M45.6948529,4.48529412 L45.3411765,4.13235294 C42.9838235,1.77426471 39.8470588,0.476470588 36.5132353,0.476470588 C33.1772059,0.476470588 30.0419118,1.77426471 27.6830882,4.13382353 L16.9455882,14.8713235 C16.5823529,15.2345588 16.3110294,15.6551471 16.1272059,16.125 C16.5264706,15.9742647 16.9669118,15.8889706 17.4404412,15.8654412 C17.5102941,15.7727941 17.5867647,15.6838235 17.6727941,15.5977941 L28.4102941,4.86029412 C30.5735294,2.69632353 33.4514706,1.50441176 36.5125,1.50441176 C39.5735294,1.50441176 42.45,2.69558824 44.6139706,4.85882353 L44.9661765,5.21176471 C49.4330882,9.68014706 49.4330882,16.9492647 44.9661765,21.4161765 L34.2286765,32.1544118 C34.1389706,32.2448529 34.0419118,32.3242647 33.9426471,32.3977941 C33.9154412,32.8742647 33.8213235,33.3139706 33.6625,33.7176471 C34.1507353,33.5323529 34.5830882,33.2536765 34.9551471,32.8816176 L45.6948529,22.1441176 C50.5632353,17.2764706 50.5632353,9.35441176 45.6948529,4.48529412" id="Fill-1"></path>
                <path d="M47.0007353,9.8125 C47.3698529,13.1397059 46.2823529,16.5992647 43.7316176,19.1514706 C43.7316176,19.1514706 40.2691176,22.6132353 35.7669118,27.1154412 C35.9904412,27.7779412 36.1286765,28.4147059 36.1669118,29.0102941 C36.3073529,28.9125 37.4698529,27.7779412 37.5948529,27.6536765 C42.5235294,22.7235294 44.1242647,21.1235294 44.1242647,21.1235294 C47.1875,18.0595588 48.1448529,13.6911765 47.0007353,9.8125" id="Fill-2"></path>
                <path d="M33.2286765,28.9536765 C32.0683824,26.1522059 29.5522059,22.8977941 26.4977941,20.2463235 C23.2823529,17.4551471 20.075,15.8551471 17.7007353,15.8551471 C17.6117647,15.8551471 17.5272059,15.8617647 17.4404412,15.8661765 C16.9676471,15.8889706 16.5279412,15.975 16.1272059,16.1257353 C15.6397059,16.3102941 15.2073529,16.5882353 14.8345588,16.9617647 L4.09632353,27.6977941 C-0.772058824,32.5669118 -0.772794118,40.4867647 4.09558824,45.3566176 L4.44852941,45.7088235 C6.80661765,48.0661765 9.94264706,49.3654412 13.2779412,49.3654412 C16.6132353,49.3654412 19.7485294,48.0661765 22.1066176,45.7088235 L32.8448529,34.9698529 C33.2073529,34.6073529 33.4786765,34.1867647 33.6625,33.7169118 C33.8213235,33.3132353 33.9154412,32.8735294 33.9426471,32.3970588 C33.9970588,31.3963235 33.7610294,30.2389706 33.2286765,28.9536765 L33.2286765,28.9536765 Z M30.7,34.5257353 C25.7698529,39.4551471 21.0852941,44.1397059 21.0852941,44.1397059 C18.0220588,47.2029412 13.6544118,48.1595588 9.775,47.0154412 C13.1014706,47.3845588 16.5617647,46.2977941 19.1139706,43.7455882 C19.1139706,43.7455882 25.5036765,37.3566176 31.5404412,31.3183824 C31.7382353,32.6 31.5088235,33.7183824 30.7,34.5257353 L30.7,34.5257353 Z" id="Fill-3"></path>
            </g>
        </g>
    </g>
</svg>