<?xml version="1.0" encoding="UTF-8" standalone="no"?>
<svg width="45px" height="42px" viewBox="0 0 45 42" version="1.1" xmlns="http://www.w3.org/2000/svg" xmlns:xlink="http://www.w3.org/1999/xlink" xmlns:sketch="http://www.bohemiancoding.com/sketch/ns">
    <!-- Generator: Sketch 3.3.2 (12043) - http://www.bohemiancoding.com/sketch -->
    <title>icon_participations</title>
    <desc>Created with Sketch.</desc>
    <defs></defs>
    <g id="GdS-md" stroke="none" stroke-width="1" fill="none" fill-rule="evenodd" sketch:type="MSPage">
        <path d="M40.78125,18.5385937 L40.78125,26.8298438 C40.78125,30.8840625 39.2160937,34.4123438 36.3290625,37.2979687 C33.4420312,40.1864063 29.8532813,41.6854688 25.7990625,41.6854688 L14.7403125,41.6854688 C10.6903125,41.6854688 7.216875,40.1864063 4.33125,37.2979687 C1.4428125,34.4123438 0,30.8840625 0,26.8298438 L0,15.7739062 C0,11.7210938 1.4428125,8.251875 4.33125,5.36203125 C7.216875,2.47640625 10.6903125,1.03078125 14.7403125,1.03078125 C23.7360937,1.17984375 28.6101562,1.1165625 29.3751562,1.31484375 L22.5196875,7.93546875 L11.0559375,7.93546875 C10.0490625,7.93546875 9.01265625,8.53171875 8.28703125,9.2559375 C7.5628125,9.9815625 7.03125,11.08125 7.03125,12.088125 L7.03125,30.5170312 C7.03125,31.5239063 7.5628125,32.6165625 8.28703125,33.3407813 C9.01265625,34.0664062 10.0490625,34.6542188 11.0559375,34.6542188 L29.4848437,34.6542188 C30.493125,34.6542188 31.6490625,34.0664062 32.3746875,33.3407813 C33.0960938,32.6165625 33.75,31.5239063 33.75,30.5170312 L33.75,25.9101562 L40.78125,18.5385937 L40.78125,18.5385937 L40.78125,18.5385937 L40.78125,18.5385937 Z M16.0678125,29.0053125 L22.0021875,27.1617187 L37.1854687,11.9784375 L32.985,7.813125 L18.0590625,22.7390625 L16.0678125,29.0053125 L16.0678125,29.0053125 L16.0678125,29.0053125 L16.0678125,29.0053125 Z M40.8360938,8.32921875 L45,4.16390625 L44.2251563,1.03078125 L40.8360938,0 L36.6721875,4.16390625 L40.8360938,8.32921875 L40.8360938,8.32921875 Z" id="icon_participations" fill="#1E88E5" sketch:type="MSShapeGroup"></path>
    </g>
</svg>