<?xml version="1.0" encoding="UTF-8" standalone="no"?>
<svg width="80px" height="80px" viewBox="0 0 80 80" version="1.1" xmlns="http://www.w3.org/2000/svg" xmlns:xlink="http://www.w3.org/1999/xlink" xmlns:sketch="http://www.bohemiancoding.com/sketch/ns">
    <!-- Generator: Sketch 3.3.2 (12043) - http://www.bohemiancoding.com/sketch -->
    <title>icon_linha</title>
    <desc>Created with Sketch.</desc>
    <defs></defs>
    <g id="GdS-md" stroke="none" stroke-width="1" fill="none" fill-rule="evenodd" sketch:type="MSPage">
        <g id="icon_linha" sketch:type="MSLayerGroup">
            <path d="M19.932,5.36066667 C26.074,1.78733333 32.7626667,0 40,0 C47.2366667,0 53.9246667,1.78733333 60.0673333,5.36066667 C66.2073333,8.934 71.0666667,13.7913333 74.6393333,19.9333333 C78.212,26.0746667 80,32.7633333 80,40 C80,47.2366667 78.212,53.926 74.6393333,60.0666667 C71.0666667,66.2093333 66.2073333,71.0666667 60.0673333,74.6386667 C53.9246667,78.2133333 47.2366667,80 40,80 C32.7626667,80 26.074,78.2133333 19.932,74.6386667 C13.7906667,71.0666667 8.93333333,66.2093333 5.36066667,60.0666667 C1.78666667,53.926 0,47.2366667 0,40 C0,32.7633333 1.78666667,26.0746667 5.36066667,19.9333333 C8.93333333,13.7913333 13.7906667,8.934 19.932,5.36066667 C19.932,5.36066667 13.7906667,8.934 19.932,5.36066667 L19.932,5.36066667 L19.932,5.36066667 Z" id="Imported-Layers-Copy" fill="#1E88E5" sketch:type="MSShapeGroup"></path>
            <g id="Path-8326-+-Path-8345" transform="translate(18.000000, 24.000000)" sketch:type="MSShapeGroup">
                <path d="M0.505208333,0 L0.505208333,32.4538614 L44.6666667,32.4538614" id="Path-8326" stroke="#FFFFFF" stroke-width="2"></path>
                <path d="M5.17382812,27.6901042 C5.17382812,27.6901042 8.92382813,9.42903643 17.5651042,10.1627604 C26.2063802,10.8964843 24.3883464,25.0000011 31.1302083,25 C37.8720703,24.9999989 41.6783854,13.7988282 42.9505208,12.7226562" id="Path-8345" stroke="#FFFFFF"></path>
                <ellipse id="Oval-133" fill="#FFFFFF" cx="17" cy="10.3333333" rx="1.66666667" ry="1.66666667"></ellipse>
                <ellipse id="Oval-133-Copy" fill="#FFFFFF" cx="31" cy="25" rx="1.66666667" ry="1.66666667"></ellipse>
            </g>
        </g>
    </g>
</svg>