<?xml version="1.0" encoding="UTF-8" standalone="no"?>
<svg width="258px" height="258px" viewBox="0 0 258 258" version="1.1" xmlns="http://www.w3.org/2000/svg" xmlns:xlink="http://www.w3.org/1999/xlink" xmlns:sketch="http://www.bohemiancoding.com/sketch/ns">
    <!-- Generator: Sketch 3.3.2 (12043) - http://www.bohemiancoding.com/sketch -->
    <title>img_profile_avatar_13</title>
    <desc>Created with Sketch.</desc>
    <defs>
        <path id="path-1" d="M249.92604,125.080127 C249.92604,194.080425 193.997458,249.99972 125.001612,249.99972 C56.0014671,249.99972 0.0739597573,194.080425 0.0739597573,125.080127 C0.0739597573,56.076606 56.0014671,0.147639866 125.001612,0.147639866 C193.997458,0.147639866 249.92604,56.076606 249.92604,125.080127"></path>
        <path id="path-3" d="M258.196106,129.452682 C258.196106,58.3464069 200.545665,0.704337466 129.429064,0.704337466 C58.3139772,0.704337466 0.665051723,58.3464069 0.665051723,129.452682 C0.665051723,200.557443 58.3139772,258.201027 129.429064,258.201027 C200.545665,258.201027 258.196106,200.557443 258.196106,129.452682"></path>
    </defs>
    <g id="Smartphone" stroke="none" stroke-width="1" fill="none" fill-rule="evenodd" sketch:type="MSPage">
        <g id="avatars_profile" sketch:type="MSLayerGroup" transform="translate(-3757.000000, -3.000000)">
            <g id="img_profile_avatar_13" transform="translate(3761.000000, 5.000000)">
                <mask id="mask-2" sketch:name="Mask" fill="white">
                    <use xlink:href="#path-1"></use>
                </mask>
                <use id="Mask" fill="#FFFFFF" sketch:type="MSShapeGroup" xlink:href="#path-1"></use>
                <g id="Imported-EPS" mask="url(#mask-2)">
                    <g transform="translate(-4.807692, -9.615385)" id="Page-1">
                        <g>
                            <path d="M255.177126,133.609776 C255.177126,64.3182777 199.004723,8.14587551 129.714701,8.14587551 C60.4232034,8.14587551 4.25227733,64.3182777 4.25227733,133.609776 C4.25227733,202.899798 60.4232034,259.070724 129.714701,259.070724 C199.004723,259.070724 255.177126,202.899798 255.177126,133.609776" id="Fill-1" fill="#1E88E6" sketch:type="MSShapeGroup"></path>
                            <path d="M255.177126,133.609776 C255.177126,64.3182777 199.004723,8.14587551 129.714701,8.14587551 L129.714701,259.070724 C199.004723,259.070724 255.177126,202.899798 255.177126,133.609776" id="Fill-2" fill="#1976D3" sketch:type="MSShapeGroup"></path>
                            <g id="Group-45" transform="translate(0.300481, 0.901442)">
                                <mask id="mask-4" sketch:name="Clip 28" fill="white">
                                    <use xlink:href="#path-3"></use>
                                </mask>
                                <g id="Clip-28"></g>
                                <path d="M148.285325,204.877379 L129.191221,258.429747 L110.574317,204.877379 L110.574317,163.533527 L148.285325,163.533527 L148.285325,204.877379" id="Fill-27" fill="#B6B3B7" sketch:type="MSShapeGroup" mask="url(#mask-4)"></path>
                                <path d="M148.285325,197.843093 L110.574317,170.389079 L110.574317,163.533527 L148.285325,163.533527 L148.285325,197.843093" id="Fill-29" fill="#9B9B9B" sketch:type="MSShapeGroup" mask="url(#mask-4)"></path>
                                <path d="M129.191221,258.429747 L129.191221,206.931318 C129.191221,206.931318 115.12212,203.444469 112.022585,192.050864 C110.531899,186.575208 110.574317,182.181051 110.574317,182.181051 C110.574317,182.181051 75.2705237,192.568893 68.4018574,203.297543 C62.6890782,220.306157 61.1211317,258.429747 61.1211317,258.429747 L129.191221,258.429747" id="Fill-30" fill="#B6B3B7" sketch:type="MSShapeGroup" mask="url(#mask-4)"></path>
                                <path d="M129.191221,258.429747 L129.191221,206.931318 C129.191221,206.931318 143.258807,203.444469 146.361372,192.050864 C147.850542,186.575208 147.808124,182.181051 147.808124,182.181051 C147.808124,182.181051 183.113433,192.568893 189.980584,203.297543 C195.694878,220.306157 197.262825,258.429747 197.262825,258.429747 L129.191221,258.429747" id="Fill-31" fill="#9B9B9B" sketch:type="MSShapeGroup" mask="url(#mask-4)"></path>
                                <path d="M129.191221,258.429747 L129.191221,206.931318 C129.191221,206.931318 107.349044,203.314204 104.737314,184.042623 C94.4085611,187.503722 73.5162415,195.307478 68.4018574,203.297543 C62.6890782,220.306157 61.1211317,258.429747 61.1211317,258.429747 L129.191221,258.429747" id="Fill-32" fill="#B6B3B7" sketch:type="MSShapeGroup" mask="url(#mask-4)"></path>
                                <path d="M129.191221,258.429747 L129.191221,206.931318 C129.191221,206.931318 150.403189,204.571409 154.348052,184.278916 C164.893439,187.850589 184.978304,195.483184 189.980584,203.297543 C195.694878,220.306157 197.262825,258.429747 197.262825,258.429747 L129.191221,258.429747" id="Fill-33" fill="#9B9B9B" sketch:type="MSShapeGroup" mask="url(#mask-4)"></path>
                                <path d="M183.907253,86.4608321 C183.907253,57.3118639 159.515458,33.6809632 129.430579,33.6809632 C99.3441842,33.6809632 74.9539046,57.3118639 74.9539046,86.4608321 C74.9539046,115.6098 99.3441842,139.240701 129.430579,139.240701 C159.515458,139.240701 183.907253,115.6098 183.907253,86.4608321" id="Fill-34" fill="#C0BFC1" sketch:type="MSShapeGroup" mask="url(#mask-4)"></path>
                                <path d="M129.430579,52.2966782 C111.121205,52.2966782 82.1649437,62.3800642 82.1649437,109.637321 C82.1649437,136.921689 90.1107212,151.300776 94.111636,156.246285 C97.7959316,160.794942 119.719915,173.984987 129.430579,173.984987 L129.430579,52.2966782" id="Fill-35" fill="#9B9B9B" sketch:type="MSShapeGroup" mask="url(#mask-4)"></path>
                                <path d="M73.0572195,120.905206 C72.2482499,113.354406 75.964359,106.653354 81.3483996,105.936899 C86.7384999,105.221959 91.7589587,110.762747 92.5679282,118.313547 C93.3753828,125.861318 89.6607887,132.560855 84.2737182,133.27731 C78.8851329,133.993765 73.8646741,128.452977 73.0572195,120.905206" id="Fill-36" fill="#9B9B9B" sketch:type="MSShapeGroup" mask="url(#mask-4)"></path>
                                <path d="M127.979021,52.2966782 C146.288395,52.2966782 175.243141,62.3800642 175.243141,109.637321 C175.243141,136.921689 167.297364,151.300776 163.294934,156.246285 C159.615183,160.794942 137.68817,173.984987 127.979021,173.984987 L127.979021,52.2966782" id="Fill-37" fill="#B6B3B7" sketch:type="MSShapeGroup" mask="url(#mask-4)"></path>
                                <path d="M184.500843,120.905206 C185.309813,113.354406 181.593704,106.653354 176.209663,105.936899 C170.819563,105.221959 165.799104,110.762747 164.991649,118.313547 C164.18268,125.861318 167.897274,132.560855 173.284344,133.27731 C178.67293,133.993765 183.693388,128.452977 184.500843,120.905206" id="Fill-38" fill="#B6B3B7" sketch:type="MSShapeGroup" mask="url(#mask-4)"></path>
                                <path d="M126.765827,38.6991783 C93.3102411,38.6991783 83.13904,67.0983679 83.13904,80.1748095 C74.1282709,92.3106198 79.0472297,103.55124 86.097687,110.553718 C87.5232306,111.968451 92.3482642,89.0297704 119.541154,89.5069023 C133.578441,89.7537991 142.29077,83.3253943 149.715414,70.3307467 C158.883735,52.9283099 147.441513,38.6991783 126.765827,38.6991783" id="Fill-40" fill="#C0BFC1" sketch:type="MSShapeGroup" mask="url(#mask-4)"></path>
                                <path d="M148.285325,64.9883849 C148.285325,64.9883849 156.102334,95.7353661 177.511243,105.936899 C181.321277,78.2965763 183.572455,84.1190993 177.511243,69.5627917 C171.450031,55.0064841 148.285325,44.19604 148.285325,44.19604 L148.285325,64.9883849" id="Fill-41" fill="#C0BFC1" sketch:type="MSShapeGroup" mask="url(#mask-4)"></path>
                                <path d="M101.175728,185.228636 C103.266323,198.711018 115.120605,209.468448 129.191221,209.468448 C143.260322,209.468448 155.081275,198.72768 157.171871,185.245298 C154.345022,184.089578 151.825703,183.383726 150.062331,182.882359 C149.633608,194.066935 140.481951,203.117293 129.191221,203.117293 C117.900491,203.117293 108.617035,194.124494 108.186797,182.939918 C106.543104,183.153491 104.004091,184.072917 101.175728,185.228636" id="Fill-44" fill="#9B9B9B" sketch:type="MSShapeGroup" mask="url(#mask-4)"></path>
                            </g>
                        </g>
                    </g>
                </g>
            </g>
        </g>
    </g>
</svg>