<?xml version="1.0" encoding="UTF-8" standalone="no"?>
<svg width="119px" height="119px" viewBox="0 0 119 119" version="1.1" xmlns="http://www.w3.org/2000/svg" xmlns:xlink="http://www.w3.org/1999/xlink" xmlns:sketch="http://www.bohemiancoding.com/sketch/ns">
    <!-- Generator: Sketch 3.3.2 (12043) - http://www.bohemiancoding.com/sketch -->
    <title>img_selected_avatar_13</title>
    <desc>Created with Sketch.</desc>
    <defs>
        <path id="path-1" d="M118.964795,59.5381405 C118.964795,92.3822822 92.3427902,118.999867 59.5007671,118.999867 C26.6566984,118.999867 0.0352048445,92.3822822 0.0352048445,59.5381405 C0.0352048445,26.6924645 26.6566984,0.0702765761 59.5007671,0.0702765761 C92.3427902,0.0702765761 118.964795,26.6924645 118.964795,59.5381405"></path>
        <path id="path-3" d="M122.901346,61.6194767 C122.901346,27.7728897 95.4597367,0.335264634 61.6082344,0.335264634 C27.7574531,0.335264634 0.31656462,27.7728897 0.31656462,61.6194767 C0.31656462,95.4653428 27.7574531,122.903689 61.6082344,122.903689 C95.4597367,122.903689 122.901346,95.4653428 122.901346,61.6194767"></path>
    </defs>
    <g id="Smartphone" stroke="none" stroke-width="1" fill="none" fill-rule="evenodd" sketch:type="MSPage">
        <g id="avatar_selected" sketch:type="MSLayerGroup" transform="translate(-1907.000000, 0.000000)">
            <g id="img_selected_avatar_13" transform="translate(1907.000000, 0.000000)">
                <mask id="mask-2" sketch:name="Mask" fill="white">
                    <use xlink:href="#path-1"></use>
                </mask>
                <use id="Mask" fill="#FFFFFF" sketch:type="MSShapeGroup" xlink:href="#path-1"></use>
                <g id="Imported-EPS" mask="url(#mask-2)">
                    <g transform="translate(-2.288462, -4.576923)" id="Page-1">
                        <g>
                            <path d="M121.464312,63.5982532 C121.464312,30.6155002 94.7262483,3.87743674 61.7441979,3.87743674 C28.7614448,3.87743674 2.02408401,30.6155002 2.02408401,63.5982532 C2.02408401,96.5803036 28.7614448,123.317664 61.7441979,123.317664 C94.7262483,123.317664 121.464312,96.5803036 121.464312,63.5982532" id="Fill-1" fill="#1E88E6" sketch:type="MSShapeGroup"></path>
                            <path d="M121.464312,63.5982532 C121.464312,30.6155002 94.7262483,3.87743674 61.7441979,3.87743674 L61.7441979,123.317664 C94.7262483,123.317664 121.464312,96.5803036 121.464312,63.5982532" id="Fill-2" fill="#1976D3" sketch:type="MSShapeGroup"></path>
                            <g id="Group-45" transform="translate(0.143029, 0.429087)">
                                <mask id="mask-4" sketch:name="Clip 28" fill="white">
                                    <use xlink:href="#path-3"></use>
                                </mask>
                                <g id="Clip-28"></g>
                                <path d="M70.5838148,97.5216325 L61.4950211,123.01256 L52.633375,97.5216325 L52.633375,77.841959 L70.5838148,77.841959 L70.5838148,97.5216325" id="Fill-27" fill="#B6B3B7" sketch:type="MSShapeGroup" mask="url(#mask-4)"></path>
                                <path d="M70.5838148,94.1733122 L52.633375,81.1052014 L52.633375,77.841959 L70.5838148,77.841959 L70.5838148,94.1733122" id="Fill-29" fill="#9B9B9B" sketch:type="MSShapeGroup" mask="url(#mask-4)"></path>
                                <path d="M61.4950211,123.01256 L61.4950211,98.4993075 C61.4950211,98.4993075 54.798129,96.8395673 53.3227503,91.4162112 C52.6131841,88.809799 52.633375,86.7181803 52.633375,86.7181803 C52.633375,86.7181803 35.8287693,91.6627929 32.5592841,96.7696303 C29.8400012,104.865731 29.0936587,123.01256 29.0936587,123.01256 L61.4950211,123.01256" id="Fill-30" fill="#B6B3B7" sketch:type="MSShapeGroup" mask="url(#mask-4)"></path>
                                <path d="M61.4950211,123.01256 L61.4950211,98.4993075 C61.4950211,98.4993075 68.191192,96.8395673 69.6680129,91.4162112 C70.376858,88.809799 70.3566671,86.7181803 70.3566671,86.7181803 C70.3566671,86.7181803 87.1619939,91.6627929 90.430758,96.7696303 C93.150762,104.865731 93.8971045,123.01256 93.8971045,123.01256 L61.4950211,123.01256" id="Fill-31" fill="#9B9B9B" sketch:type="MSShapeGroup" mask="url(#mask-4)"></path>
                                <path d="M61.4950211,123.01256 L61.4950211,98.4993075 C61.4950211,98.4993075 51.0981448,96.7775613 49.8549616,87.6042883 C44.9384751,89.2517716 34.993731,92.9663595 32.5592841,96.7696303 C29.8400012,104.865731 29.0936587,123.01256 29.0936587,123.01256 L61.4950211,123.01256" id="Fill-32" fill="#B6B3B7" sketch:type="MSShapeGroup" mask="url(#mask-4)"></path>
                                <path d="M61.4950211,123.01256 L61.4950211,98.4993075 C61.4950211,98.4993075 71.5919181,97.3759907 73.4696727,87.7167642 C78.4892771,89.4168804 88.0496729,93.0499954 90.430758,96.7696303 C93.150762,104.865731 93.8971045,123.01256 93.8971045,123.01256 L61.4950211,123.01256" id="Fill-33" fill="#9B9B9B" sketch:type="MSShapeGroup" mask="url(#mask-4)"></path>
                                <path d="M87.5398524,41.1553561 C87.5398524,27.2804472 75.9293582,16.0321385 61.6089555,16.0321385 C47.2878317,16.0321385 35.6780586,27.2804472 35.6780586,41.1553561 C35.6780586,55.0302649 47.2878317,66.2785736 61.6089555,66.2785736 C75.9293582,66.2785736 87.5398524,55.0302649 87.5398524,41.1553561" id="Fill-34" fill="#C0BFC1" sketch:type="MSShapeGroup" mask="url(#mask-4)"></path>
                                <path d="M61.6089555,24.8932188 C52.8936935,24.8932188 39.1105132,29.6929106 39.1105132,52.187365 C39.1105132,65.1747238 42.8927033,72.0191694 44.7971387,74.3732318 C46.5508635,76.5383924 56.9866794,82.8168536 61.6089555,82.8168536 L61.6089555,24.8932188" id="Fill-35" fill="#9B9B9B" sketch:type="MSShapeGroup" mask="url(#mask-4)"></path>
                                <path d="M34.7752365,57.5508782 C34.390167,53.9566971 36.1590349,50.7669966 38.7218382,50.4259639 C41.287526,50.0856523 43.6772643,52.7230674 44.0623338,56.3172485 C44.4466822,59.9099876 42.6785354,63.0989671 40.1142899,63.4399997 C37.5493232,63.7810324 35.1595849,61.1436172 34.7752365,57.5508782" id="Fill-36" fill="#9B9B9B" sketch:type="MSShapeGroup" mask="url(#mask-4)"></path>
                                <path d="M60.9180141,24.8932188 C69.6332761,24.8932188 83.4157352,29.6929106 83.4157352,52.187365 C83.4157352,65.1747238 79.6335452,72.0191694 77.7283886,74.3732318 C75.9768272,76.5383924 65.5395691,82.8168536 60.9180141,82.8168536 L60.9180141,24.8932188" id="Fill-37" fill="#B6B3B7" sketch:type="MSShapeGroup" mask="url(#mask-4)"></path>
                                <path d="M87.8224013,57.5508782 C88.2074708,53.9566971 86.4386029,50.7669966 83.8757995,50.4259639 C81.3101118,50.0856523 78.9203734,52.7230674 78.536025,56.3172485 C78.1509555,59.9099876 79.9191023,63.0989671 82.4833479,63.4399997 C85.0483145,63.7810324 87.4380529,61.1436172 87.8224013,57.5508782" id="Fill-38" fill="#B6B3B7" sketch:type="MSShapeGroup" mask="url(#mask-4)"></path>
                                <path d="M60.3405337,18.4208089 C44.4156747,18.4208089 39.574183,31.9388231 39.574183,38.1632093 C35.2850569,43.939855 37.6264814,49.2903902 40.982499,52.6235695 C41.6610578,53.2969828 43.9577738,42.3781707 56.9015891,42.6052855 C63.583338,42.7228084 67.7304066,39.6628877 71.2645369,33.4774354 C75.6286579,25.1938755 70.18216,18.4208089 60.3405337,18.4208089" id="Fill-40" fill="#C0BFC1" sketch:type="MSShapeGroup" mask="url(#mask-4)"></path>
                                <path d="M70.5838148,30.9344712 C70.5838148,30.9344712 74.3047111,45.5700342 84.4953516,50.4259639 C86.308928,37.2691703 87.3804884,40.0406913 84.4953516,33.1118888 C81.6102149,26.1830864 70.5838148,21.037315 70.5838148,21.037315 L70.5838148,30.9344712" id="Fill-41" fill="#C0BFC1" sketch:type="MSShapeGroup" mask="url(#mask-4)"></path>
                                <path d="M48.1596463,88.1688307 C49.1547697,94.5864447 54.7974079,99.7069811 61.4950211,99.7069811 C68.1919131,99.7069811 73.818687,94.5943757 74.8138104,88.1767617 C73.4682305,87.6266393 72.2690347,87.2906537 71.4296697,87.052003 C71.2255973,92.3758611 66.8694086,96.6838314 61.4950211,96.6838314 C56.1206336,96.6838314 51.7017087,92.4032591 51.4969152,87.0794009 C50.7145175,87.1810618 49.5059473,87.6187083 48.1596463,88.1688307" id="Fill-44" fill="#9B9B9B" sketch:type="MSShapeGroup" mask="url(#mask-4)"></path>
                            </g>
                        </g>
                    </g>
                </g>
            </g>
        </g>
    </g>
</svg>