<?xml version="1.0" encoding="UTF-8" standalone="no"?>
<svg width="255px" height="255px" viewBox="0 0 255 255" version="1.1" xmlns="http://www.w3.org/2000/svg" xmlns:xlink="http://www.w3.org/1999/xlink" xmlns:sketch="http://www.bohemiancoding.com/sketch/ns">
    <!-- Generator: Sketch 3.3.2 (12043) - http://www.bohemiancoding.com/sketch -->
    <title>img_profile_avatar_07</title>
    <desc>Created with Sketch.</desc>
    <defs>
        <path id="path-1" d="M247.759604,124.308876 C247.759604,56.2589206 192.584151,1.09444692 124.520652,1.09444692 C56.4586028,1.09444692 1.28315006,56.2589206 1.28315006,124.308876 C1.28315006,192.358831 56.4586028,247.524755 124.520652,247.524755 C192.584151,247.524755 247.759604,192.358831 247.759604,124.308876"></path>
    </defs>
    <g id="Smartphone" stroke="none" stroke-width="1" fill="none" fill-rule="evenodd" sketch:type="MSPage">
        <g id="avatars_profile" sketch:type="MSLayerGroup" transform="translate(-1870.000000, 0.000000)">
            <g id="img_profile_avatar_07" transform="translate(1872.000000, 0.881356)">
                <path d="M248.657298,124.646298 C248.657298,56.5963426 193.480395,1.43041927 125.416896,1.43041927 C57.3548468,1.43041927 2.17794418,56.5963426 2.17794418,124.646298 C2.17794418,192.694804 57.3548468,247.859277 125.416896,247.859277 C193.480395,247.859277 248.657298,192.694804 248.657298,124.646298" id="Fill-130" fill="#1E88E6" sketch:type="MSShapeGroup"></path>
                <path d="M248.657298,124.646298 C248.657298,56.5963426 193.480395,1.43041927 125.416896,1.43041927 L125.416896,247.859277 C193.480395,247.859277 248.657298,192.694804 248.657298,124.646298" id="Fill-131" fill="#1976D3" sketch:type="MSShapeGroup"></path>
                <g id="Group-153" transform="translate(0.896244, 0.334523)">
                    <mask id="mask-2" sketch:name="Clip 133" fill="white">
                        <use xlink:href="#path-1"></use>
                    </mask>
                    <g id="Clip-133"></g>
                    <path d="M124.520652,215.210303 L80.4310358,215.210303 C80.4310358,215.210303 60.0818707,195.54215 70.2571782,166.379126 C80.4310358,137.22045 89.249249,125.693243 89.9277962,94.4978814 L124.520652,94.4978814 L124.520652,215.210303" id="Fill-132" fill="#472B1B" sketch:type="MSShapeGroup" mask="url(#mask-2)"></path>
                    <path d="M123.382491,215.210303 L167.473557,215.210303 C167.473557,215.210303 187.822722,195.54215 177.647414,166.379126 C167.473557,137.22045 158.653894,125.693243 157.976796,94.4978814 L123.382491,94.4978814 L123.382491,215.210303" id="Fill-134" fill="#472B1B" sketch:type="MSShapeGroup" mask="url(#mask-2)"></path>
                    <path d="M142.567396,196.493087 L124.29302,247.742194 L106.475357,196.493087 L106.475357,156.926293 L142.567396,156.926293 L142.567396,196.493087" id="Fill-135" fill="#C18148" sketch:type="MSShapeGroup" mask="url(#mask-2)"></path>
                    <path d="M142.567396,189.761151 L106.475357,163.487177 L106.475357,156.926293 L142.567396,156.926293 L142.567396,189.761151" id="Fill-136" fill="#915324" sketch:type="MSShapeGroup" mask="url(#mask-2)"></path>
                    <path d="M124.29302,247.742194 L124.29302,202.806088 C124.29302,202.806088 110.827918,195.121766 107.861449,184.217886 C106.434761,178.977587 106.475357,174.770852 106.475357,174.770852 C106.475357,174.770852 72.6871889,184.713649 66.1134009,194.981155 C60.6458767,211.257248 59.1452436,247.742194 59.1452436,247.742194 L124.29302,247.742194" id="Fill-137" fill="#C18148" sketch:type="MSShapeGroup" mask="url(#mask-2)"></path>
                    <path d="M124.29302,247.742194 L124.29302,202.806088 C124.29302,202.806088 137.755221,195.121766 140.72604,184.217886 C142.151279,178.977587 142.110682,174.770852 142.110682,174.770852 C142.110682,174.770852 175.9003,184.713649 182.472639,194.981155 C187.941613,211.257248 189.442246,247.742194 189.442246,247.742194 L124.29302,247.742194" id="Fill-138" fill="#CE9C88" sketch:type="MSShapeGroup" mask="url(#mask-2)"></path>
                    <path d="M124.29302,247.742194 L124.29302,202.806088 C124.29302,202.806088 110.827918,195.121766 107.861449,184.217886 C106.434761,178.977587 106.475357,174.770852 106.475357,174.770852 C106.475357,174.770852 72.6871889,184.713649 66.1134009,194.981155 C60.6458767,211.257248 59.1452436,247.742194 59.1452436,247.742194 L124.29302,247.742194" id="Fill-139" fill="#C4D11C" sketch:type="MSShapeGroup" mask="url(#mask-2)"></path>
                    <path d="M124.29302,247.742194 L124.29302,202.806088 C124.29302,202.806088 137.755221,195.121766 140.72604,184.217886 C142.151279,178.977587 142.605094,174.918711 142.605094,174.918711 C142.605094,174.918711 175.9003,184.713649 182.472639,194.981155 C187.941613,211.257248 189.442246,247.742194 189.442246,247.742194 L124.29302,247.742194" id="Fill-140" fill="#BBBF10" sketch:type="MSShapeGroup" mask="url(#mask-2)"></path>
                    <path d="M178.460801,81.2876896 C178.460801,51.5027877 154.310032,27.3582739 124.520652,27.3582739 C94.732722,27.3582739 70.5819529,51.5027877 70.5819529,81.2876896 C70.5819529,111.069692 94.732722,135.212756 124.520652,135.212756 C154.310032,135.212756 178.460801,111.069692 178.460801,81.2876896" id="Fill-141" fill="#472B1B" sketch:type="MSShapeGroup" mask="url(#mask-2)"></path>
                    <path d="M124.520652,50.4692239 C106.998767,50.4692239 79.285625,60.1221008 79.285625,105.345227 C79.285625,131.458296 91.239944,143.769737 95.0690958,148.501227 C98.5952211,152.854371 115.228326,166.928524 124.520652,166.928524 L124.520652,50.4692239" id="Fill-142" fill="#C18148" sketch:type="MSShapeGroup" mask="url(#mask-2)"></path>
                    <path d="M70.5689039,116.128791 C69.7946642,108.903992 73.3512372,102.490968 78.5041359,101.805308 C83.6628341,101.121097 88.4677599,106.423729 89.2405497,113.648528 C90.0147894,120.873327 86.4596663,127.284902 81.3038678,127.969112 C76.1466195,128.654773 71.3416937,123.353591 70.5689039,116.128791" id="Fill-143" fill="#C18148" sketch:type="MSShapeGroup" mask="url(#mask-2)"></path>
                    <path d="M124.378563,50.4692239 C141.901898,50.4692239 169.61359,60.1221008 169.61359,105.345227 C169.61359,131.458296 157.659271,143.769737 153.828669,148.501227 C150.306894,152.854371 133.670889,166.928524 124.378563,166.928524 L124.378563,50.4692239" id="Fill-144" fill="#AA6A35" sketch:type="MSShapeGroup" mask="url(#mask-2)"></path>
                    <path d="M178.47385,116.128791 C179.24809,108.903992 175.691517,102.490968 170.538618,101.805308 C165.37992,101.121097 160.574994,106.423729 159.800754,113.648528 C159.027964,120.873327 162.583088,127.284902 167.738886,127.969112 C172.896134,128.654773 177.70106,123.353591 178.47385,116.128791" id="Fill-145" fill="#AA6A35" sketch:type="MSShapeGroup" mask="url(#mask-2)"></path>
                    <path d="M124.520652,151.000335 C131.35252,151.000335 136.889639,146.93711 136.889639,141.922948 L112.153115,141.922948 C112.153115,146.93711 117.690234,151.000335 124.520652,151.000335" id="Fill-146" fill="#FFFFFF" sketch:type="MSShapeGroup" mask="url(#mask-2)"></path>
                    <path d="M123.926198,36.2414139 C123.086714,36.1341436 122.209532,36.0602141 121.268555,36.0529661 C121.268555,36.0529661 91.6691106,38.2679527 83.4337519,76.80843 C79.47846,79.7728591 72.2304745,91.3044157 81.7852303,104.150758 C83.1017278,93.2816682 87.0860175,85.4074487 93.9758809,82.4096789 C106.201329,77.0925513 111.235337,82.0327832 125.403633,71.1636931 C133.678139,64.8130018 136.651857,52.0492864 134.8221,44.9143622 C131.530856,36.0529661 123.13166,36.3834746 123.926198,36.2414139" id="Fill-147" fill="#472B1B" sketch:type="MSShapeGroup" mask="url(#mask-2)"></path>
                    <path d="M132.950295,46.9495986 C132.950295,46.9495986 122.282026,86.7439786 168.862549,103.405665 C180.023779,66.9787021 159.634017,43.2168822 132.950295,46.9495986" id="Fill-148" fill="#472B1B" sketch:type="MSShapeGroup" mask="url(#mask-2)"></path>
                    <path d="M143.867945,112.423617 C143.867945,114.424063 142.245522,116.047614 140.243227,116.047614 C138.240933,116.047614 136.61851,114.424063 136.61851,112.423617 C136.61851,110.423171 138.240933,108.799621 140.243227,108.799621 C142.245522,108.799621 143.867945,110.423171 143.867945,112.423617" id="Fill-149" fill="#482B1B" sketch:type="MSShapeGroup" mask="url(#mask-2)"></path>
                    <path d="M112.422794,112.423617 C112.422794,114.424063 110.800371,116.047614 108.798077,116.047614 C106.795782,116.047614 105.173359,114.424063 105.173359,112.423617 C105.173359,110.423171 106.795782,108.799621 108.798077,108.799621 C110.800371,108.799621 112.422794,110.423171 112.422794,112.423617" id="Fill-150" fill="#482B1B" sketch:type="MSShapeGroup" mask="url(#mask-2)"></path>
                    <path d="M82.9364407,126.852921 L79.9047268,129.884032 L76.871563,126.852921 L79.9047268,123.821811 L82.9364407,126.852921" id="Fill-151" fill="#472B1B" sketch:type="MSShapeGroup" mask="url(#mask-2)"></path>
                    <path d="M172.169741,126.852921 L169.138027,129.884032 L166.104863,126.852921 L169.138027,123.821811 L172.169741,126.852921" id="Fill-152" fill="#472B1B" sketch:type="MSShapeGroup" mask="url(#mask-2)"></path>
                </g>
            </g>
        </g>
    </g>
</svg>