<?xml version="1.0" encoding="UTF-8" standalone="no"?>
<svg width="118px" height="118px" viewBox="0 0 118 118" version="1.1" xmlns="http://www.w3.org/2000/svg" xmlns:xlink="http://www.w3.org/1999/xlink" xmlns:sketch="http://www.bohemiancoding.com/sketch/ns">
    <!-- Generator: Sketch 3.3.2 (12043) - http://www.bohemiancoding.com/sketch -->
    <title>img_selected_avatar_12</title>
    <desc>Created with Sketch.</desc>
    <defs>
        <path id="path-1" d="M118.406507,58.9167858 C118.406507,26.3956123 92.0382087,0.0318678819 59.5091769,0.0318678819 C26.9822239,0.0318678819 0.61323236,26.3956123 0.61323236,58.9167858 C0.61323236,91.4393448 26.9822239,117.803089 59.5091769,117.803089 C92.0382087,117.803089 118.406507,91.4393448 118.406507,58.9167858"></path>
    </defs>
    <g id="Smartphone" stroke="none" stroke-width="1" fill="none" fill-rule="evenodd" sketch:type="MSPage">
        <g id="avatar_selected" sketch:type="MSLayerGroup" transform="translate(-1749.000000, -1.000000)">
            <g id="img_selected_avatar_12" transform="translate(1748.000000, 1.000000)">
                <path d="M118.835526,58.9181713 C118.835526,26.3963051 92.4665342,0.0318678819 59.9381953,0.0318678819 C27.4105493,0.0318678819 1.04086489,26.3963051 1.04086489,58.9181713 C1.04086489,91.4400376 27.4105493,117.803089 59.9381953,117.803089 C92.4665342,117.803089 118.835526,91.4400376 118.835526,58.9181713" id="Fill-257" fill="#6C9525" sketch:type="MSShapeGroup"></path>
                <path d="M118.835526,58.9181713 C118.835526,26.3963051 92.4665342,0.0318678819 59.9381953,0.0318678819 L59.9381953,117.803089 C92.4665342,117.803089 118.835526,91.4400376 118.835526,58.9181713" id="Fill-258" fill="#678D23" sketch:type="MSShapeGroup"></path>
                <g id="Group-283" transform="translate(0.428325, 0.000000)">
                    <mask id="mask-2" sketch:name="Clip 260" fill="white">
                        <use xlink:href="#path-1"></use>
                    </mask>
                    <g id="Clip-260"></g>
                    <path d="M68.1346192,93.4144607 L59.4010817,117.907699 L50.8858134,93.4144607 L50.8858134,74.5050295 L68.1346192,74.5050295 L68.1346192,93.4144607" id="Fill-259" fill="#C18148" sketch:type="MSShapeGroup" mask="url(#mask-2)"></path>
                    <path d="M68.1346192,90.197883 L50.8858134,77.6412447 L50.8858134,74.5050295 L68.1346192,74.5050295 L68.1346192,90.197883" id="Fill-261" fill="#915324" sketch:type="MSShapeGroup" mask="url(#mask-2)"></path>
                    <path d="M59.4010817,117.907699 L59.4010817,94.3538704 C59.4010817,94.3538704 52.965953,92.7590908 51.5482429,87.5479993 C50.8664117,85.0435995 50.8858134,83.0338446 50.8858134,83.0338446 C50.8858134,83.0338446 33.3515254,88.4777101 30.2105284,93.3846712 C27.597535,101.163898 26.8803649,118.600479 26.8803649,118.600479 L59.4010817,117.907699" id="Fill-262" fill="#E9C7AC" sketch:type="MSShapeGroup" mask="url(#mask-2)"></path>
                    <path d="M59.4010817,117.907699 L59.4010817,94.3538704 C59.4010817,94.3538704 65.8348246,92.7590908 67.2546134,87.5479993 C67.9357517,85.0435995 67.91635,83.0338446 67.91635,83.0338446 C67.91635,83.0338446 85.450638,88.4777101 88.591635,93.3846712 C91.2053214,101.163898 91.9224914,118.600479 91.9224914,118.600479 L59.4010817,117.907699" id="Fill-263" fill="#CE9C88" sketch:type="MSShapeGroup" mask="url(#mask-2)"></path>
                    <path d="M59.4010817,117.907699 L59.4010817,94.3538704 C59.4010817,94.3538704 52.965953,92.7590908 51.5482429,87.5479993 C50.8664117,85.0435995 50.8858134,83.0338446 50.8858134,83.0338446 C50.8858134,83.0338446 33.3515254,88.4777101 30.2105284,93.3846712 C27.597535,101.163898 26.8803649,118.600479 26.8803649,118.600479 L59.4010817,117.907699" id="Fill-264" fill="#344650" sketch:type="MSShapeGroup" mask="url(#mask-2)"></path>
                    <path d="M59.4010817,117.907699 L59.4010817,94.3538704 C59.4010817,94.3538704 65.8348246,92.7590908 67.2546134,87.5479993 C67.9357517,85.0435995 67.91635,83.0338446 67.91635,83.0338446 C67.91635,83.0338446 85.450638,88.4777101 88.591635,93.3846712 C91.2053214,101.163898 91.9224914,118.600479 91.9224914,118.600479 L59.4010817,117.907699" id="Fill-265" fill="#2D404E" sketch:type="MSShapeGroup" mask="url(#mask-2)"></path>
                    <path d="M70.204365,83.7584925 L59.4010817,85.9975576 L48.5977984,83.7584925 L59.5091769,117.803089 L70.204365,83.7584925" id="Fill-266" fill="#8E8E8E" sketch:type="MSShapeGroup" mask="url(#mask-2)"></path>
                    <path d="M61.8498536,88.314214 L59.4010817,85.9975576 L57.1144526,88.314214 L58.5806669,90.024688 L57.1435551,113.724693 L59.5098698,117.803089 L61.9073658,113.868791 L60.3455288,90.0350797 L61.8498536,88.314214" id="Fill-267" fill="#990000" sketch:type="MSShapeGroup" mask="url(#mask-2)"></path>
                    <path d="M69.5939043,83.2499919 L59.5098698,117.803089 L71.4349872,99.2047163 L70.4538155,97.6459612 L72.5325692,96.8949876 L74.0486736,85.1724566 L69.5939043,83.2499919" id="Fill-268" fill="#142833" sketch:type="MSShapeGroup" mask="url(#mask-2)"></path>
                    <path d="M49.4265282,83.2499919 L59.5098698,117.803089 L47.5847524,99.2047163 L48.5659242,97.6459612 L46.4871704,96.8949876 L44.9641368,85.1156486 L49.4265282,83.2499919" id="Fill-269" fill="#142833" sketch:type="MSShapeGroup" mask="url(#mask-2)"></path>
                    <path d="M53.5958154,92.5138466 L59.4010817,85.9975576 L50.8858134,82.0362413 L48.7121299,83.5485801 L53.5958154,92.5138466" id="Fill-270" fill="#D6D6D6" sketch:type="MSShapeGroup" mask="url(#mask-2)"></path>
                    <path d="M65.2063481,92.5138466 L59.4010817,85.9975576 L68.1346192,82.0362413 L69.9798596,83.4114097 L65.2063481,92.5138466" id="Fill-271" fill="#D6D6D6" sketch:type="MSShapeGroup" mask="url(#mask-2)"></path>
                    <path d="M59.5098698,23.6286489 C51.1359567,23.6286489 37.8915236,28.2411784 37.8915236,49.8538373 C37.8915236,62.3335769 41.5258781,68.9101379 43.3558743,71.1720647 C45.0410507,73.2524832 55.0689589,79.2852118 59.5098698,79.2852118 L59.5098698,23.6286489" id="Fill-272" fill="#C18148" sketch:type="MSShapeGroup" mask="url(#mask-2)"></path>
                    <path d="M33.7257011,55.0081208 C33.3556829,51.5546123 35.0547176,48.4904462 37.5180408,48.1627612 C39.9834428,47.8350763 42.2797728,50.3692656 42.649098,53.8227741 C43.0191162,57.2748971 41.3193886,60.3390632 38.8560653,60.6667482 C36.3913563,60.9937403 34.0950263,58.4602437 33.7257011,55.0081208" id="Fill-273" fill="#C18148" sketch:type="MSShapeGroup" mask="url(#mask-2)"></path>
                    <path d="M59.4419639,23.6286489 C67.8165699,23.6286489 81.0603101,28.2411784 81.0603101,49.8538373 C81.0603101,62.3335769 77.4259556,68.9101379 75.5952664,71.1720647 C73.9121688,73.2524832 63.8828748,79.2852118 59.4419639,79.2852118 L59.4419639,23.6286489" id="Fill-274" fill="#AA6A35" sketch:type="MSShapeGroup" mask="url(#mask-2)"></path>
                    <path d="M85.2947315,55.0081208 C85.6647497,51.5546123 83.965022,48.4904462 81.5023917,48.1627612 C79.0369898,47.8350763 76.7406598,50.3692656 76.3706416,53.8227741 C76.0013163,57.2748971 77.7003511,60.3390632 80.1643672,60.6667482 C82.6290763,60.9937403 84.9254063,58.4602437 85.2947315,55.0081208" id="Fill-275" fill="#AA6A35" sketch:type="MSShapeGroup" mask="url(#mask-2)"></path>
                    <path d="M75.5952664,71.1720647 C76.7967861,69.6881299 78.7681376,66.3316106 79.9862873,60.6854532 L79.347417,53.2366822 C79.034911,52.8300203 78.0149358,53.2865624 77.9588095,54.0832594 C77.870116,55.3565892 77.4079397,63.4676579 71.8015408,64.824814 C67.3100469,65.9117859 62.3605342,64.478424 59.4419639,64.478424 L59.4419639,79.2852118 C63.8828748,79.2852118 73.9121688,73.2524832 75.5952664,71.1720647" id="Fill-276" fill="#D3D3D3" sketch:type="MSShapeGroup" mask="url(#mask-2)"></path>
                    <path d="M68.7561666,53.2366822 C68.7561666,54.1934115 67.9807914,54.9686323 67.0238718,54.9686323 C66.0669521,54.9686323 65.291577,54.1934115 65.291577,53.2366822 C65.291577,52.2806458 66.0669521,51.5047321 67.0238718,51.5047321 C67.9807914,51.5047321 68.7561666,52.2806458 68.7561666,53.2366822" id="Fill-277" fill="#482B1B" sketch:type="MSShapeGroup" mask="url(#mask-2)"></path>
                    <path d="M53.7281627,53.2366822 C53.7281627,54.1934115 52.9527875,54.9686323 51.9958679,54.9686323 C51.0389482,54.9686323 50.2635731,54.1934115 50.2635731,53.2366822 C50.2635731,52.2806458 51.0389482,51.5047321 51.9958679,51.5047321 C52.9527875,51.5047321 53.7281627,52.2806458 53.7281627,53.2366822" id="Fill-278" fill="#482B1B" sketch:type="MSShapeGroup" mask="url(#mask-2)"></path>
                    <path d="M79.347417,53.2366822 C79.4423467,49.8101922 80.808088,48.3747519 81.0277429,48.1648396 C81.0277429,48.1613757 81.0277429,48.1579118 81.02705,48.1544479 C81.0208138,47.9729395 81.0027979,47.7976661 81.0069554,47.6189289 C81.1060427,43.3188432 81.1060427,35.8146498 76.6242496,32.3549062 C75.4476749,32.9860289 74.1429105,33.8464617 73.9627518,36.0100137 C73.7895223,38.0883539 74.0064057,39.6575007 75.2841463,40.6079949 C78.8519807,43.262728 77.9588095,54.0832594 77.9588095,54.0832594 L79.347417,53.2366822" id="Fill-279" fill="#D3D3D3" sketch:type="MSShapeGroup" mask="url(#mask-2)"></path>
                    <path d="M39.6044167,53.2366822 C39.5094869,49.8101922 38.1437457,48.3747519 37.9240907,48.1648396 C37.9240907,48.1613757 37.9240907,48.1579118 37.9247837,48.1544479 C37.9310199,47.9729395 37.9490358,47.7976661 37.9448783,47.6189289 C37.845791,43.3188432 37.845791,35.8146498 42.3282771,32.3549062 C43.5041588,32.9860289 44.8096161,33.8464617 44.9890819,36.0100137 C45.1623113,38.0883539 44.945428,39.6575007 43.6676874,40.6079949 C40.1005459,43.262728 40.9930242,54.0832594 40.9930242,54.0832594 L39.6044167,53.2366822" id="Fill-280" fill="#D3D3D3" sketch:type="MSShapeGroup" mask="url(#mask-2)"></path>
                    <path d="M47.0823869,64.824814 C41.475988,63.4676579 41.0824106,55.3662881 40.9930242,54.0929584 C40.9368979,53.2969541 39.9169227,52.840412 39.6044167,53.2470739 L38.918428,60.4651492 C40.1317272,66.2457058 42.1398034,69.668732 43.3558743,71.1720647 C45.0327357,73.2420915 54.9684858,79.2235543 59.4419639,79.2824406 L59.4419639,64.478424 C56.5233936,64.478424 51.573188,65.9117859 47.0823869,64.824814" id="Fill-281" fill="#D3D3D3" sketch:type="MSShapeGroup" mask="url(#mask-2)"></path>
                    <path d="M59.5098698,71.6736375 C61.5525919,71.6736375 63.2072799,70.459194 63.2072799,68.960018 L55.8131527,68.960018 C55.8131527,70.459194 57.4678407,71.6736375 59.5098698,71.6736375" id="Fill-282" fill="#FFFFFF" sketch:type="MSShapeGroup" mask="url(#mask-2)"></path>
                </g>
            </g>
        </g>
    </g>
</svg>