<?xml version="1.0" encoding="UTF-8" standalone="no"?>
<svg width="118px" height="118px" viewBox="0 0 118 118" version="1.1" xmlns="http://www.w3.org/2000/svg" xmlns:xlink="http://www.w3.org/1999/xlink" xmlns:sketch="http://www.bohemiancoding.com/sketch/ns">
    <!-- Generator: Sketch 3.3.2 (12043) - http://www.bohemiancoding.com/sketch -->
    <title>img_selected_avatar_11</title>
    <desc>Created with Sketch.</desc>
    <defs>
        <path id="path-1" d="M117.859726,58.6811186 C117.859726,26.2900299 91.5969004,0.0317404103 59.1979847,0.0317404103 C26.8011395,0.0317404103 0.537623928,26.2900299 0.537623928,58.6811186 C0.537623928,91.0735874 26.8011395,117.331877 59.1979847,117.331877 C91.5969004,117.331877 117.859726,91.0735874 117.859726,58.6811186"></path>
    </defs>
    <g id="Smartphone" stroke="none" stroke-width="1" fill="none" fill-rule="evenodd" sketch:type="MSPage">
        <g id="avatar_selected" sketch:type="MSLayerGroup" transform="translate(-1583.000000, -1.000000)">
            <g id="img_selected_avatar_11" transform="translate(1583.000000, 1.000000)">
                <path d="M117.860416,58.6824987 C117.860416,26.2907199 91.5969004,0.0317404103 59.1986748,0.0317404103 C26.8011395,0.0317404103 0.536933782,26.2907199 0.536933782,58.6824987 C0.536933782,91.0742774 26.8011395,117.331877 59.1986748,117.331877 C91.5969004,117.331877 117.860416,91.0742774 117.860416,58.6824987" id="Fill-230" fill="#6C9525" sketch:type="MSShapeGroup"></path>
                <path d="M117.860416,58.6824987 C117.860416,26.2907199 91.5969004,0.0317404103 59.1986748,0.0317404103 L59.1986748,117.331877 C91.5969004,117.331877 117.860416,91.0742774 117.860416,58.6824987" id="Fill-231" fill="#678D23" sketch:type="MSShapeGroup"></path>
                <g id="Group-256">
                    <mask id="mask-2" sketch:name="Clip 233" fill="white">
                        <use xlink:href="#path-1"></use>
                    </mask>
                    <g id="Clip-233"></g>
                    <path d="M67.7889252,93.0408029 L59.0903219,117.436068 L50.6091146,93.0408029 L50.6091146,74.2070094 L67.7889252,74.2070094 L67.7889252,93.0408029" id="Fill-232" fill="#E9C7AC" sketch:type="MSShapeGroup" mask="url(#mask-2)"></path>
                    <path d="M67.7889252,89.8370914 L50.6091146,77.3306798 L50.6091146,74.2070094 L67.7889252,74.2070094 L67.7889252,89.8370914" id="Fill-234" fill="#CE9C88" sketch:type="MSShapeGroup" mask="url(#mask-2)"></path>
                    <path d="M59.0903219,117.436068 L59.0903219,93.976455 C59.0903219,93.976455 52.6809337,92.3880544 51.2688944,87.1978073 C50.5897905,84.7034251 50.6091146,82.7017092 50.6091146,82.7017092 C50.6091146,82.7017092 33.1449638,88.1237993 30.0165308,93.0111325 C27.4139893,100.759243 26.699688,118.126077 26.699688,118.126077 L59.0903219,117.436068" id="Fill-235" fill="#E9C7AC" sketch:type="MSShapeGroup" mask="url(#mask-2)"></path>
                    <path d="M59.0903219,117.436068 L59.0903219,93.976455 C59.0903219,93.976455 65.4983298,92.3880544 66.9124395,87.1978073 C67.5908532,84.7034251 67.5715291,82.7017092 67.5715291,82.7017092 C67.5715291,82.7017092 85.03568,88.1237993 88.1641129,93.0111325 C90.7673446,100.759243 91.481646,118.126077 91.481646,118.126077 L59.0903219,117.436068" id="Fill-236" fill="#CE9C88" sketch:type="MSShapeGroup" mask="url(#mask-2)"></path>
                    <path d="M59.0903219,117.436068 L59.0903219,93.976455 C59.0903219,93.976455 52.6809337,92.3880544 51.2688944,87.1978073 C50.5897905,84.7034251 50.6091146,82.7017092 50.6091146,82.7017092 C50.6091146,82.7017092 33.1449638,88.1237993 30.0165308,93.0111325 C27.4139893,100.759243 26.699688,118.126077 26.699688,118.126077 L59.0903219,117.436068" id="Fill-237" fill="#344650" sketch:type="MSShapeGroup" mask="url(#mask-2)"></path>
                    <path d="M59.0903219,117.436068 L59.0903219,93.976455 C59.0903219,93.976455 65.4983298,92.3880544 66.9124395,87.1978073 C67.5908532,84.7034251 67.5715291,82.7017092 67.5715291,82.7017092 C67.5715291,82.7017092 85.03568,88.1237993 88.1641129,93.0111325 C90.7673446,100.759243 91.481646,118.126077 91.481646,118.126077 L59.0903219,117.436068" id="Fill-238" fill="#2D404E" sketch:type="MSShapeGroup" mask="url(#mask-2)"></path>
                    <path d="M69.8503921,83.4234585 L59.0903219,85.6535674 L48.3302517,83.4234585 L59.1979847,117.331877 L69.8503921,83.4234585" id="Fill-239" fill="#8E8E8E" sketch:type="MSShapeGroup" mask="url(#mask-2)"></path>
                    <path d="M61.5292987,87.9609572 L59.0903219,85.6535674 L56.8128393,87.9609572 L58.2731887,89.6645892 L56.8418254,113.269794 L59.1986748,117.331877 L61.5865809,113.413316 L60.0303011,89.6749393 L61.5292987,87.9609572" id="Fill-240" fill="#990000" sketch:type="MSShapeGroup" mask="url(#mask-2)"></path>
                    <path d="M69.2423732,82.916992 L59.1986748,117.331877 L71.0760918,98.8078974 L70.0988447,97.2553773 L72.1692835,96.5074077 L73.6793234,84.8317667 L69.2423732,82.916992" id="Fill-241" fill="#142833" sketch:type="MSShapeGroup" mask="url(#mask-2)"></path>
                    <path d="M49.1556666,82.916992 L59.1986748,117.331877 L47.3212579,98.8078974 L48.298505,97.2553773 L46.2280662,96.5074077 L44.7111248,84.775186 L49.1556666,82.916992" id="Fill-242" fill="#142833" sketch:type="MSShapeGroup" mask="url(#mask-2)"></path>
                    <path d="M53.3082766,94.213818 L59.0903219,85.6535674 L50.6091146,81.7080963 L48.4441258,83.2143858 L53.3082766,94.213818" id="Fill-243" fill="#D6D6D6" sketch:type="MSShapeGroup" mask="url(#mask-2)"></path>
                    <path d="M64.8723672,94.213818 L59.0903219,85.6535674 L67.7889252,81.7080963 L69.6267847,83.077764 L64.8723672,94.213818" id="Fill-244" fill="#D6D6D6" sketch:type="MSShapeGroup" mask="url(#mask-2)"></path>
                    <path d="M59.1986748,23.5341343 C50.8575673,23.5341343 37.666802,28.1282136 37.666802,49.6544219 C37.666802,62.0842426 41.2866191,68.6344973 43.1092953,70.8873764 C44.787731,72.9594732 54.7755275,78.9680709 59.1986748,78.9680709 L59.1986748,23.5341343" id="Fill-245" fill="#F1D6BB" sketch:type="MSShapeGroup" mask="url(#mask-2)"></path>
                    <path d="M33.5169526,54.7880883 C33.1491047,51.3483938 34.8413433,48.2964844 37.2948132,47.9701102 C39.7503535,47.643736 42.0374982,50.1677886 42.4053462,53.6074831 C42.7738843,57.0457975 41.0809555,60.097707 38.6274856,60.4240812 C36.1726354,60.7497654 33.8854907,58.2264028 33.5169526,54.7880883" id="Fill-246" fill="#F1D6BB" sketch:type="MSShapeGroup" mask="url(#mask-2)"></path>
                    <path d="M59.1310405,23.5341343 C67.4721481,23.5341343 80.6629133,28.1282136 80.6629133,49.6544219 C80.6629133,62.0842426 77.0430963,68.6344973 75.2197299,70.8873764 C73.5433646,72.9594732 63.5541878,78.9680709 59.1310405,78.9680709 L59.1310405,23.5341343" id="Fill-247" fill="#EBC7A7" sketch:type="MSShapeGroup" mask="url(#mask-2)"></path>
                    <path d="M84.8803971,54.7880883 C85.2489352,51.3483938 83.5560064,48.2964844 81.1032267,47.9701102 C78.6476863,47.643736 76.3605416,50.1677886 75.9920035,53.6074831 C75.6241556,57.0457975 77.3163942,60.097707 79.7705542,60.4240812 C82.2254045,60.7497654 84.5125491,58.2264028 84.8803971,54.7880883" id="Fill-248" fill="#EBC7A7" sketch:type="MSShapeGroup" mask="url(#mask-2)"></path>
                    <path d="M46.8209019,64.5655147 C44.1534866,64.0825085 39.6171553,62.4520174 38.6682042,59.3469773 L38.6682042,60.1266873 C39.8745799,65.9434625 41.8911872,69.381777 43.1092953,70.8873764 C44.7794493,72.9491231 54.6754563,78.9066601 59.1310405,78.9653109 L59.1310405,64.2205103 C56.2241445,64.2205103 51.3496415,65.3845553 46.8209019,64.5655147" id="Fill-249" fill="#E5E6E7" sketch:type="MSShapeGroup" mask="url(#mask-2)"></path>
                    <path d="M75.2197299,70.8873764 C76.4164435,69.4093773 78.3799096,66.0662841 79.5931867,60.4427114 L79.5931867,59.3469773 C78.6442356,62.4520174 74.1085944,64.0825085 71.4411792,64.5655147 C66.9117493,65.3845553 62.0379365,64.2205103 59.1310405,64.2205103 L59.1310405,78.9680709 C63.5541878,78.9680709 73.5433646,72.9594732 75.2197299,70.8873764" id="Fill-250" fill="#D3D3D3" sketch:type="MSShapeGroup" mask="url(#mask-2)"></path>
                    <path d="M59.1986748,71.3869429 C61.233226,71.3869429 62.8812952,70.1773573 62.8812952,68.684178 L55.5160545,68.684178 C55.5160545,70.1773573 57.1648138,71.3869429 59.1986748,71.3869429" id="Fill-251" fill="#FFFFFF" sketch:type="MSShapeGroup" mask="url(#mask-2)"></path>
                    <path d="M68.4079864,53.0237355 C68.4079864,53.9766378 67.6357127,54.7487578 66.6826208,54.7487578 C65.7295288,54.7487578 64.9572551,53.9766378 64.9572551,53.0237355 C64.9572551,52.0715232 65.7295288,51.2987132 66.6826208,51.2987132 C67.6357127,51.2987132 68.4079864,52.0715232 68.4079864,53.0237355" id="Fill-252" fill="#482B1B" sketch:type="MSShapeGroup" mask="url(#mask-2)"></path>
                    <path d="M53.4400945,53.0237355 C53.4400945,53.9766378 52.6678209,54.7487578 51.7147289,54.7487578 C50.7616369,54.7487578 49.9893633,53.9766378 49.9893633,53.0237355 C49.9893633,52.0715232 50.7616369,51.2987132 51.7147289,51.2987132 C52.6678209,51.2987132 53.4400945,52.0715232 53.4400945,53.0237355" id="Fill-253" fill="#482B1B" sketch:type="MSShapeGroup" mask="url(#mask-2)"></path>
                    <path d="M78.9568718,53.0237355 C79.0514219,49.6109514 80.4117001,48.1812529 80.6304765,47.9721802 C80.6304765,47.9687302 80.6304765,47.9652801 80.6297863,47.9618301 C80.623575,47.7810477 80.6166735,47.6064755 80.6097721,47.4284532 C80.1211485,36.5766829 76.0630886,30.4197333 71.1699517,27.0849202 C70.968429,28.312446 70.5715949,29.931207 70.647511,32.0923149 C70.8379913,37.5047449 73.1941506,38.9413434 74.9098542,40.4455629 C78.2398099,43.3656806 77.5738187,53.8669264 77.5738187,53.8669264 L78.9568718,53.0237355" id="Fill-254" fill="#E5E6E7" sketch:type="MSShapeGroup" mask="url(#mask-2)"></path>
                    <path d="M37.7213236,47.4091329 C37.7144221,47.6009554 37.7061403,47.7879478 37.6992389,47.9818403 C37.9173251,48.190223 39.2782935,49.6199215 39.3728435,53.0340856 L40.7558966,53.8765865 C40.7558966,53.8765865 40.0899055,43.3760308 43.4198611,40.455913 C45.1355647,38.9510036 47.491724,37.514405 47.6822044,32.102665 C47.7581205,29.936037 47.3592159,28.3145161 47.1576932,27.0856102 C42.2686972,30.4190433 38.2133978,36.5711628 37.7213236,47.4091329" id="Fill-255" fill="#E5E6E7" sketch:type="MSShapeGroup" mask="url(#mask-2)"></path>
                </g>
            </g>
        </g>
    </g>
</svg>