<?xml version="1.0" encoding="UTF-8" standalone="no"?>
<svg width="118px" height="117px" viewBox="0 0 118 117" version="1.1" xmlns="http://www.w3.org/2000/svg" xmlns:xlink="http://www.w3.org/1999/xlink" xmlns:sketch="http://www.bohemiancoding.com/sketch/ns">
    <!-- Generator: Sketch 3.3.2 (12043) - http://www.bohemiancoding.com/sketch -->
    <title>img_selected_avatar_09</title>
    <desc>Created with Sketch.</desc>
    <defs>
        <path id="path-1" d="M116.563405,58.1886842 C116.563405,26.0691053 90.5212755,0.0314736842 58.3946197,0.0314736842 C26.2700168,0.0314736842 0.227203105,26.0691053 0.227203105,58.1886842 C0.227203105,90.3089474 26.2700168,116.345895 58.3946197,116.345895 C90.5212755,116.345895 116.563405,90.3089474 116.563405,58.1886842"></path>
    </defs>
    <g id="Smartphone" stroke="none" stroke-width="1" fill="none" fill-rule="evenodd" sketch:type="MSPage">
        <g id="avatar_selected" sketch:type="MSLayerGroup" transform="translate(-1266.000000, -1.000000)">
            <g id="img_selected_avatar_09" transform="translate(1266.000000, 1.000000)">
                <path d="M117.117776,58.1893684 C117.117776,26.0704737 91.0749625,0.0321578947 58.9489909,0.0321578947 C26.8237038,0.0321578947 0.780205692,26.0704737 0.780205692,58.1893684 C0.780205692,90.3089474 26.8237038,116.345895 58.9489909,116.345895 C91.0749625,116.345895 117.117776,90.3089474 117.117776,58.1893684" id="Fill-176" fill="#5A4980" sketch:type="MSShapeGroup"></path>
                <path d="M117.117776,58.1893684 C117.117776,26.0704737 91.0749625,0.0321578947 58.9489909,0.0321578947 L58.9489909,116.345895 C91.0749625,116.345895 117.117776,90.3089474 117.117776,58.1893684" id="Fill-177" fill="#534378" sketch:type="MSShapeGroup"></path>
                <g id="Group-203" transform="translate(0.553687, 0.000000)">
                    <mask id="mask-2" sketch:name="Clip 179" fill="white">
                        <use xlink:href="#path-1"></use>
                    </mask>
                    <g id="Clip-179"></g>
                    <path d="M66.9133674,92.2596316 L58.2878616,116.449211 L49.877925,92.2596316 L49.877925,73.5841053 L66.9133674,73.5841053 L66.9133674,92.2596316" id="Fill-178" fill="#E9C7AC" sketch:type="MSShapeGroup" mask="url(#mask-2)"></path>
                    <path d="M66.9133674,89.0821579 L49.877925,76.6808421 L49.877925,73.5841053 L66.9133674,73.5841053 L66.9133674,89.0821579" id="Fill-180" fill="#CE9C88" sketch:type="MSShapeGroup" mask="url(#mask-2)"></path>
                    <path d="M58.2878616,116.449211 L58.2878616,93.1874211 C58.2878616,93.1874211 51.9323338,91.6116842 50.5321604,86.4650526 C49.8587633,83.9916316 49.877925,82.0074211 49.877925,82.0074211 C49.877925,82.0074211 33.9292251,86.6990526 30.8270815,91.546 C28.2464101,99.229 27.5381113,116.449211 27.5381113,116.449211 L58.2878616,116.449211" id="Fill-181" fill="#E9C7AC" sketch:type="MSShapeGroup" mask="url(#mask-2)"></path>
                    <path d="M58.2878616,116.449211 L58.2878616,95.2400526 C58.2878616,95.2400526 64.6420207,91.6116842 66.0442471,86.4650526 C66.7169599,83.9916316 66.6977982,82.0074211 66.6977982,82.0074211 C66.6977982,82.0074211 82.6464981,86.6990526 85.7486417,91.546 C88.3299974,99.229 89.0382962,116.449211 89.0382962,116.449211 L58.2878616,116.449211" id="Fill-182" fill="#CE9C88" sketch:type="MSShapeGroup" mask="url(#mask-2)"></path>
                    <path d="M58.2878616,116.449211 L58.2878616,95.2400526 C58.2878616,95.2400526 51.9323338,91.6116842 50.5321604,86.4650526 C49.8587633,83.9916316 49.877925,82.0074211 49.877925,82.0074211 C49.877925,82.0074211 33.9292251,86.6990526 30.8270815,91.546 C28.2464101,99.229 27.5381113,116.449211 27.5381113,116.449211 L58.2878616,116.449211" id="Fill-183" fill="#1E88E6" sketch:type="MSShapeGroup" mask="url(#mask-2)"></path>
                    <path d="M58.2878616,116.449211 L58.2878616,95.2400526 C58.2878616,95.2400526 64.6420207,91.6116842 66.0442471,86.4650526 C66.7169599,83.9916316 66.9311604,82.0765263 66.9311604,82.0765263 C66.9311604,82.0765263 82.6464981,86.6990526 85.7486417,91.546 C88.3299974,99.229 89.0382962,116.449211 89.0382962,116.449211 L58.2878616,116.449211" id="Fill-184" fill="#1976D3" sketch:type="MSShapeGroup" mask="url(#mask-2)"></path>
                    <path d="M65.8232031,13.4577368 C65.8232031,9.01994737 62.2249082,5.42236842 57.7862354,5.42236842 C53.3468784,5.42236842 49.7485834,9.01994737 49.7485834,13.4577368 C49.7485834,17.8962105 53.3468784,21.4931053 57.7862354,21.4931053 C62.2249082,21.4931053 65.8232031,17.8962105 65.8232031,13.4577368" id="Fill-185" fill="#E5E6E7" sketch:type="MSShapeGroup" mask="url(#mask-2)"></path>
                    <path d="M83.8550543,37.882 C83.8550543,23.8242105 72.4558913,12.428 58.395304,12.428 C44.3347167,12.428 32.936238,23.8242105 32.936238,37.882 C32.936238,51.9397895 44.3347167,63.336 58.395304,63.336 C72.4558913,63.336 83.8550543,51.9397895 83.8550543,37.882" id="Fill-186" fill="#E5E6E7" sketch:type="MSShapeGroup" mask="url(#mask-2)"></path>
                    <path d="M58.395304,23.3363684 C50.1242898,23.3363684 37.0443713,27.8918421 37.0443713,49.2378421 C37.0443713,61.5625263 42.6868098,67.3742105 44.4941695,69.6074737 C46.1585006,71.6628421 54.009326,78.3051579 58.395304,78.3051579 L58.395304,23.3363684" id="Fill-187" fill="#F1D6BB" sketch:type="MSShapeGroup" mask="url(#mask-2)"></path>
                    <path d="M32.9293946,54.3276842 C32.5646378,50.9168947 34.2426559,47.8906316 36.6755084,47.567 C39.110414,47.2433684 41.3783389,49.7462105 41.7430957,53.157 C42.1085369,56.5671053 40.4298344,59.5926842 37.9969819,59.9163158 C35.5627607,60.2399474 33.2948357,57.7377895 32.9293946,54.3276842" id="Fill-188" fill="#F1D6BB" sketch:type="MSShapeGroup" mask="url(#mask-2)"></path>
                    <path d="M58.328238,23.3363684 C66.5992523,23.3363684 79.6791708,27.8918421 79.6791708,49.2378421 C79.6791708,61.5625263 74.0367322,67.3742105 72.2286882,69.6074737 C70.5664101,71.6628421 62.714216,78.3051579 58.328238,78.3051579 L58.328238,23.3363684" id="Fill-189" fill="#EBC7A7" sketch:type="MSShapeGroup" mask="url(#mask-2)"></path>
                    <path d="M83.8612135,54.3276842 C84.2266546,50.9168947 82.5479521,47.8906316 80.115784,47.567 C77.6808784,47.2433684 75.4129534,49.7462105 75.0475123,53.157 C74.6827555,56.5671053 76.3607736,59.5926842 78.7943105,59.9163158 C81.2285317,60.2399474 83.4964567,57.7377895 83.8612135,54.3276842" id="Fill-190" fill="#EBC7A7" sketch:type="MSShapeGroup" mask="url(#mask-2)"></path>
                    <path d="M58.395304,70.7870526 C61.6199457,70.7870526 64.2334657,68.8698947 64.2334657,66.5032105 L52.5578266,66.5032105 C52.5578266,68.8698947 55.1706624,70.7870526 58.395304,70.7870526" id="Fill-191" fill="#FFFFFF" sketch:type="MSShapeGroup" mask="url(#mask-2)"></path>
                    <path d="M62.3740957,21.6751053 C62.3740957,21.6751053 57.3386727,40.4573684 79.3246792,48.3216842 C84.5927801,31.1281579 74.9688124,19.9132632 62.3740957,21.6751053" id="Fill-192" fill="#E5E6E7" sketch:type="MSShapeGroup" mask="url(#mask-2)"></path>
                    <path d="M67.5272264,52.5788421 C67.5272264,53.5230526 66.7614424,54.2893684 65.8163596,54.2893684 C64.8712768,54.2893684 64.1054929,53.5230526 64.1054929,52.5788421 C64.1054929,51.6346316 64.8712768,50.8683158 65.8163596,50.8683158 C66.7614424,50.8683158 67.5272264,51.6346316 67.5272264,52.5788421" id="Fill-193" fill="#482B1B" sketch:type="MSShapeGroup" mask="url(#mask-2)"></path>
                    <path d="M52.6851151,52.5788421 C52.6851151,53.5230526 51.9193312,54.2893684 50.9742484,54.2893684 C50.0291656,54.2893684 49.2633816,53.5230526 49.2633816,52.5788421 C49.2633816,51.6346316 50.0291656,50.8683158 50.9742484,50.8683158 C51.9193312,50.8683158 52.6851151,51.6346316 52.6851151,52.5788421" id="Fill-194" fill="#482B1B" sketch:type="MSShapeGroup" mask="url(#mask-2)"></path>
                    <path d="M58.1147219,16.6208421 C57.7184851,16.5702105 57.3044554,16.5353158 56.8603144,16.5312105 C56.8603144,16.5312105 42.8893765,17.5773684 39.0022872,35.7691579 C37.1353894,37.1683684 33.7143402,42.6105789 38.224185,48.6740526 C38.8455718,43.5431579 40.7261565,39.8265263 43.9781721,38.4115789 C49.7485834,35.9018947 52.1246352,38.2336842 58.8120712,33.1034737 C62.7176378,30.1066316 64.1212329,24.0821579 63.2575873,20.7144737 C61.7041203,16.5312105 57.7390155,16.6878947 58.1147219,16.6208421" id="Fill-195" fill="#E5E6E7" sketch:type="MSShapeGroup" mask="url(#mask-2)"></path>
                    <path d="M80.597564,59.3299474 C80.597564,59.9601053 80.0870414,60.4705263 79.4567581,60.4705263 C78.8264748,60.4705263 78.3159521,59.9601053 78.3159521,59.3299474 C78.3159521,58.6997895 78.8264748,58.1893684 79.4567581,58.1893684 C80.0870414,58.1893684 80.597564,58.6997895 80.597564,59.3299474" id="Fill-196" fill="#6C9525" sketch:type="MSShapeGroup" mask="url(#mask-2)"></path>
                    <path d="M38.3617387,59.3299474 C38.3617387,59.9601053 37.851216,60.4705263 37.2209327,60.4705263 C36.5906494,60.4705263 36.0801268,59.9601053 36.0801268,59.3299474 C36.0801268,58.6997895 36.5906494,58.1893684 37.2209327,58.1893684 C37.851216,58.1893684 38.3617387,58.6997895 38.3617387,59.3299474" id="Fill-197" fill="#6C9525" sketch:type="MSShapeGroup" mask="url(#mask-2)"></path>
                    <path d="M61.2367115,102.767053 C61.2367115,103.259684 60.837053,103.659263 60.3443234,103.659263 C59.8515938,103.659263 59.4519353,103.259684 59.4519353,102.767053 C59.4519353,102.275105 59.8515938,101.875526 60.3443234,101.875526 C60.837053,101.875526 61.2367115,102.275105 61.2367115,102.767053" id="Fill-198" fill="#E8E8E8" sketch:type="MSShapeGroup" mask="url(#mask-2)"></path>
                    <path d="M61.2367115,107.877421 C61.2367115,108.370053 60.837053,108.769632 60.3443234,108.769632 C59.8515938,108.769632 59.4519353,108.370053 59.4519353,107.877421 C59.4519353,107.385474 59.8515938,106.985895 60.3443234,106.985895 C60.837053,106.985895 61.2367115,107.385474 61.2367115,107.877421" id="Fill-199" fill="#E8E8E8" sketch:type="MSShapeGroup" mask="url(#mask-2)"></path>
                    <path d="M61.2367115,112.987789 C61.2367115,113.480421 60.837053,113.88 60.3443234,113.88 C59.8515938,113.88 59.4519353,113.480421 59.4519353,112.987789 C59.4519353,112.495158 59.8515938,112.095579 60.3443234,112.095579 C60.837053,112.095579 61.2367115,112.495158 61.2367115,112.987789" id="Fill-200" fill="#E8E8E8" sketch:type="MSShapeGroup" mask="url(#mask-2)"></path>
                    <path d="M66.9311604,82.0765263 C66.9311604,82.0765263 66.7169599,83.9916316 66.0442471,86.4650526 C64.6420207,91.6116842 58.2878616,95.2400526 58.2878616,95.2400526 L58.2878616,99.8571053 C58.2878616,99.8571053 73.3523855,95.1695789 73.1292885,84.1907368 C69.693868,82.8907368 66.9311604,82.0765263 66.9311604,82.0765263" id="Fill-201" fill="#E8E8E8" sketch:type="MSShapeGroup" mask="url(#mask-2)"></path>
                    <path d="M58.2166895,95.1976316 C57.6185705,94.8425263 53.4406339,92.2637368 51.3923842,88.5368421 C51.0310492,87.8786316 50.7285679,87.1889474 50.5314761,86.4650526 C50.5266856,86.4472632 50.5225796,86.4294737 50.5184735,86.4116842 C49.860132,83.9635789 49.877925,82.0074211 49.877925,82.0074211 C49.877925,82.0074211 46.996141,82.8558421 43.447119,84.2023684 C43.2342872,95.173 58.2878616,99.8571053 58.2878616,99.8571053 L58.2878616,95.2400526 C58.2878616,95.2400526 58.2632251,95.2256842 58.2166895,95.1976316" id="Fill-202" fill="#FFFFFF" sketch:type="MSShapeGroup" mask="url(#mask-2)"></path>
                </g>
            </g>
        </g>
    </g>
</svg>