<?xml version="1.0" encoding="UTF-8" standalone="no"?>
<svg width="117px" height="117px" viewBox="0 0 117 117" version="1.1" xmlns="http://www.w3.org/2000/svg" xmlns:xlink="http://www.w3.org/1999/xlink" xmlns:sketch="http://www.bohemiancoding.com/sketch/ns">
    <!-- Generator: Sketch 3.3.2 (12043) - http://www.bohemiancoding.com/sketch -->
    <title>img_selected_avatar_07</title>
    <desc>Created with Sketch.</desc>
    <defs>
        <path id="path-1" d="M116.942533,58.6737895 C116.942533,26.5542105 90.8997193,0.516578947 58.7737477,0.516578947 C26.6484605,0.516578947 0.605646831,26.5542105 0.605646831,58.6737895 C0.605646831,90.7933684 26.6484605,116.831684 58.7737477,116.831684 C90.8997193,116.831684 116.942533,90.7933684 116.942533,58.6737895"></path>
    </defs>
    <g id="Smartphone" stroke="none" stroke-width="1" fill="none" fill-rule="evenodd" sketch:type="MSPage">
        <g id="avatar_selected" sketch:type="MSLayerGroup" transform="translate(-950.000000, -1.000000)">
            <g id="img_selected_avatar_07" transform="translate(949.000000, 1.000000)">
                <path d="M117.366245,58.8330526 C117.366245,26.7134737 91.3227464,0.675157895 59.1967749,0.675157895 C27.0714877,0.675157895 1.02798965,26.7134737 1.02798965,58.8330526 C1.02798965,90.9519474 27.0714877,116.989579 59.1967749,116.989579 C91.3227464,116.989579 117.366245,90.9519474 117.366245,58.8330526" id="Fill-130" fill="#1E88E6" sketch:type="MSShapeGroup"></path>
                <path d="M117.366245,58.8330526 C117.366245,26.7134737 91.3227464,0.675157895 59.1967749,0.675157895 L59.1967749,116.989579 C91.3227464,116.989579 117.366245,90.9519474 117.366245,58.8330526" id="Fill-131" fill="#1976D3" sketch:type="MSShapeGroup"></path>
                <g id="Group-153" transform="translate(0.423027, 0.157895)">
                    <mask id="mask-2" sketch:name="Clip 133" fill="white">
                        <use xlink:href="#path-1"></use>
                    </mask>
                    <g id="Clip-133"></g>
                    <path d="M58.7737477,101.579263 L37.9634489,101.579263 C37.9634489,101.579263 28.3586429,92.2958947 33.1613881,78.5309474 C37.9634489,64.7680526 42.1256455,59.3272105 42.4459198,44.603 L58.7737477,44.603 L58.7737477,101.579263" id="Fill-132" fill="#472B1B" sketch:type="MSShapeGroup" mask="url(#mask-2)"></path>
                    <path d="M58.2365356,101.579263 L79.0475188,101.579263 C79.0475188,101.579263 88.6523247,92.2958947 83.8495796,78.5309474 C79.0475188,64.7680526 74.8846378,59.3272105 74.5650479,44.603 L58.2365356,44.603 L58.2365356,101.579263" id="Fill-134" fill="#472B1B" sketch:type="MSShapeGroup" mask="url(#mask-2)"></path>
                    <path d="M67.2918111,92.7447368 L58.6663053,116.934316 L50.2563687,92.7447368 L50.2563687,74.0692105 L67.2918111,74.0692105 L67.2918111,92.7447368" id="Fill-135" fill="#C18148" sketch:type="MSShapeGroup" mask="url(#mask-2)"></path>
                    <path d="M67.2918111,89.5672632 L50.2563687,77.1659474 L50.2563687,74.0692105 L67.2918111,74.0692105 L67.2918111,89.5672632" id="Fill-136" fill="#915324" sketch:type="MSShapeGroup" mask="url(#mask-2)"></path>
                    <path d="M58.6663053,116.934316 L58.6663053,95.7244737 C58.6663053,95.7244737 52.3107775,92.0974737 50.9106041,86.9508421 C50.237207,84.4774211 50.2563687,82.4918421 50.2563687,82.4918421 C50.2563687,82.4918421 34.3083532,87.1848421 31.2055252,92.0311053 C28.6248538,99.7134211 27.916555,116.934316 27.916555,116.934316 L58.6663053,116.934316" id="Fill-137" fill="#C18148" sketch:type="MSShapeGroup" mask="url(#mask-2)"></path>
                    <path d="M58.6663053,116.934316 L58.6663053,95.7244737 C58.6663053,95.7244737 65.0204644,92.0974737 66.4226908,86.9508421 C67.0954036,84.4774211 67.0762419,82.4918421 67.0762419,82.4918421 C67.0762419,82.4918421 83.0249418,87.1848421 86.1270854,92.0311053 C88.7084411,99.7134211 89.41674,116.934316 89.41674,116.934316 L58.6663053,116.934316" id="Fill-138" fill="#CE9C88" sketch:type="MSShapeGroup" mask="url(#mask-2)"></path>
                    <path d="M58.6663053,116.934316 L58.6663053,95.7244737 C58.6663053,95.7244737 52.3107775,92.0974737 50.9106041,86.9508421 C50.237207,84.4774211 50.2563687,82.4918421 50.2563687,82.4918421 C50.2563687,82.4918421 34.3083532,87.1848421 31.2055252,92.0311053 C28.6248538,99.7134211 27.916555,116.934316 27.916555,116.934316 L58.6663053,116.934316" id="Fill-139" fill="#C4D11C" sketch:type="MSShapeGroup" mask="url(#mask-2)"></path>
                    <path d="M58.6663053,116.934316 L58.6663053,95.7244737 C58.6663053,95.7244737 65.0204644,92.0974737 66.4226908,86.9508421 C67.0954036,84.4774211 67.3096041,82.5616316 67.3096041,82.5616316 C67.3096041,82.5616316 83.0249418,87.1848421 86.1270854,92.0311053 C88.7084411,99.7134211 89.41674,116.934316 89.41674,116.934316 L58.6663053,116.934316" id="Fill-140" fill="#BBBF10" sketch:type="MSShapeGroup" mask="url(#mask-2)"></path>
                    <path d="M84.2334981,38.3677895 C84.2334981,24.3093158 72.8343351,12.9131053 58.7737477,12.9131053 C44.7138448,12.9131053 33.3146818,24.3093158 33.3146818,38.3677895 C33.3146818,52.4248947 44.7138448,63.8204211 58.7737477,63.8204211 C72.8343351,63.8204211 84.2334981,52.4248947 84.2334981,38.3677895" id="Fill-141" fill="#472B1B" sketch:type="MSShapeGroup" mask="url(#mask-2)"></path>
                    <path d="M58.7737477,23.8214737 C50.5034179,23.8214737 37.422815,28.3776316 37.422815,49.7229474 C37.422815,62.0483158 43.0652536,67.8593158 44.8726132,70.0925789 C46.5369444,72.1472632 54.3877697,78.7902632 58.7737477,78.7902632 L58.7737477,23.8214737" id="Fill-142" fill="#C18148" sketch:type="MSShapeGroup" mask="url(#mask-2)"></path>
                    <path d="M33.3085226,54.8127895 C32.9430815,51.4026842 34.621784,48.3757368 37.0539521,48.0521053 C39.4888577,47.7291579 41.7567827,50.232 42.1215395,53.6421053 C42.4869806,57.0522105 40.8089625,60.0784737 38.3754256,60.4014211 C35.9412044,60.7250526 33.6732794,58.2228947 33.3085226,54.8127895" id="Fill-143" fill="#C18148" sketch:type="MSShapeGroup" mask="url(#mask-2)"></path>
                    <path d="M58.7066818,23.8214737 C66.977696,23.8214737 80.0576145,28.3776316 80.0576145,49.7229474 C80.0576145,62.0483158 74.4151759,67.8593158 72.607132,70.0925789 C70.9448538,72.1472632 63.0926598,78.7902632 58.7066818,78.7902632 L58.7066818,23.8214737" id="Fill-144" fill="#AA6A35" sketch:type="MSShapeGroup" mask="url(#mask-2)"></path>
                    <path d="M84.2396572,54.8127895 C84.6050983,51.4026842 82.9263959,48.3757368 80.4942277,48.0521053 C78.0593221,47.7291579 75.7913972,50.232 75.425956,53.6421053 C75.0611992,57.0522105 76.7392173,60.0784737 79.1727542,60.4014211 C81.6069754,60.7250526 83.8749004,58.2228947 84.2396572,54.8127895" id="Fill-145" fill="#AA6A35" sketch:type="MSShapeGroup" mask="url(#mask-2)"></path>
                    <path d="M58.7737477,71.2721579 C61.9983894,71.2721579 64.6119094,69.3543158 64.6119094,66.9876316 L52.9362704,66.9876316 C52.9362704,69.3543158 55.5497904,71.2721579 58.7737477,71.2721579" id="Fill-146" fill="#FFFFFF" sketch:type="MSShapeGroup" mask="url(#mask-2)"></path>
                    <path d="M58.4931656,17.1059474 C58.0969288,17.0553158 57.6828991,17.0204211 57.2387581,17.017 C57.2387581,17.017 43.2678202,18.0624737 39.3807309,36.2535789 C37.5138331,37.6527895 34.092784,43.0956842 38.6026287,49.1591579 C39.2240155,44.0289474 41.1046003,40.3123158 44.3566158,38.8973684 C50.1270272,36.3876842 52.5030789,38.7194737 59.1905149,33.5892632 C63.0960815,30.5917368 64.4996766,24.5672632 63.636031,21.1995789 C62.082564,17.017 58.1181436,17.173 58.4931656,17.1059474" id="Fill-147" fill="#472B1B" sketch:type="MSShapeGroup" mask="url(#mask-2)"></path>
                    <path d="M62.7525395,22.1602105 C62.7525395,22.1602105 57.7171164,40.9431579 79.7031229,48.8074737 C84.9712238,31.6139474 75.3472561,20.3983684 62.7525395,22.1602105" id="Fill-148" fill="#472B1B" sketch:type="MSShapeGroup" mask="url(#mask-2)"></path>
                    <path d="M67.9056701,53.0639474 C67.9056701,54.0081579 67.1398862,54.7744737 66.1948034,54.7744737 C65.2497206,54.7744737 64.4839366,54.0081579 64.4839366,53.0639474 C64.4839366,52.1197368 65.2497206,51.3534211 66.1948034,51.3534211 C67.1398862,51.3534211 67.9056701,52.1197368 67.9056701,53.0639474" id="Fill-149" fill="#482B1B" sketch:type="MSShapeGroup" mask="url(#mask-2)"></path>
                    <path d="M53.0635589,53.0639474 C53.0635589,54.0081579 52.2977749,54.7744737 51.3526921,54.7744737 C50.4076093,54.7744737 49.6418254,54.0081579 49.6418254,53.0639474 C49.6418254,52.1197368 50.4076093,51.3534211 51.3526921,51.3534211 C52.2977749,51.3534211 53.0635589,52.1197368 53.0635589,53.0639474" id="Fill-150" fill="#482B1B" sketch:type="MSShapeGroup" mask="url(#mask-2)"></path>
                    <path d="M39.146,59.8745789 L37.715031,61.3052632 L36.2833777,59.8745789 L37.715031,58.4438947 L39.146,59.8745789" id="Fill-151" fill="#472B1B" sketch:type="MSShapeGroup" mask="url(#mask-2)"></path>
                    <path d="M81.2641177,59.8745789 L79.8331488,61.3052632 L78.4014955,59.8745789 L79.8331488,58.4438947 L81.2641177,59.8745789" id="Fill-152" fill="#472B1B" sketch:type="MSShapeGroup" mask="url(#mask-2)"></path>
                </g>
            </g>
        </g>
    </g>
</svg>