<?xml version="1.0" encoding="UTF-8" standalone="no"?>
<svg width="118px" height="117px" viewBox="0 0 118 117" version="1.1" xmlns="http://www.w3.org/2000/svg" xmlns:xlink="http://www.w3.org/1999/xlink" xmlns:sketch="http://www.bohemiancoding.com/sketch/ns">
    <!-- Generator: Sketch 3.3.2 (12043) - http://www.bohemiancoding.com/sketch -->
    <title>img_selected_avatar_03</title>
    <desc>Created with Sketch.</desc>
    <defs>
        <path id="path-1" d="M116.563405,58.6737895 C116.563405,26.5548947 90.5212755,0.516578947 58.3946197,0.516578947 C26.2700168,0.516578947 0.227203105,26.5548947 0.227203105,58.6737895 C0.227203105,90.7940526 26.2700168,116.831684 58.3946197,116.831684 C90.5212755,116.831684 116.563405,90.7940526 116.563405,58.6737895"></path>
    </defs>
    <g id="Smartphone" stroke="none" stroke-width="1" fill="none" fill-rule="evenodd" sketch:type="MSPage">
        <g id="avatar_selected" sketch:type="MSLayerGroup" transform="translate(-316.000000, -1.000000)">
            <g id="img_selected_avatar_03" transform="translate(316.000000, 1.000000)">
                <path d="M117.117776,58.8323684 C117.117776,26.7127895 91.0749625,0.675157895 58.9489909,0.675157895 C26.8237038,0.675157895 0.780205692,26.7127895 0.780205692,58.8323684 C0.780205692,90.9519474 26.8237038,116.989579 58.9489909,116.989579 C91.0749625,116.989579 117.117776,90.9519474 117.117776,58.8323684" id="Fill-86" fill="#1BC9B4" sketch:type="MSShapeGroup"></path>
                <path d="M117.117776,58.8323684 C117.117776,26.7127895 91.0749625,0.675157895 58.9489909,0.675157895 L58.9489909,116.989579 C91.0749625,116.989579 117.117776,90.9519474 117.117776,58.8323684" id="Fill-87" fill="#12B2A3" sketch:type="MSShapeGroup"></path>
                <g id="Group-105" transform="translate(0.553687, 0.157895)">
                    <mask id="mask-2" sketch:name="Clip 89" fill="white">
                        <use xlink:href="#path-1"></use>
                    </mask>
                    <g id="Clip-89"></g>
                    <path d="M66.9133674,92.7447368 L58.2878616,116.935 L49.877925,92.7447368 L49.877925,74.0692105 L66.9133674,74.0692105 L66.9133674,92.7447368" id="Fill-88" fill="#E9C7AC" sketch:type="MSShapeGroup" mask="url(#mask-2)"></path>
                    <path d="M66.9133674,89.5672632 L49.877925,77.1659474 L49.877925,74.0692105 L66.9133674,74.0692105 L66.9133674,89.5672632" id="Fill-90" fill="#CE9C88" sketch:type="MSShapeGroup" mask="url(#mask-2)"></path>
                    <path d="M58.2878616,116.935 L58.2878616,93.6725263 C58.2878616,93.6725263 51.9323338,92.0967895 50.5321604,86.9501579 C49.8587633,84.4767368 49.877925,82.4925263 49.877925,82.4925263 C49.877925,82.4925263 33.9292251,87.1841579 30.8270815,92.0311053 C28.2464101,99.7141053 27.5381113,116.935 27.5381113,116.935 L58.2878616,116.935" id="Fill-91" fill="#E9C7AC" sketch:type="MSShapeGroup" mask="url(#mask-2)"></path>
                    <path d="M58.2878616,116.935 L58.2878616,93.6725263 C58.2878616,93.6725263 65.0074618,92.2083158 66.4090039,87.0623684 C67.0817167,84.5889474 66.6977982,82.4925263 66.6977982,82.4925263 C66.6977982,82.4925263 82.6464981,87.1841579 85.7486417,92.0311053 C88.3299974,99.7141053 89.0382962,116.935 89.0382962,116.935 L58.2878616,116.935" id="Fill-92" fill="#CE9C88" sketch:type="MSShapeGroup" mask="url(#mask-2)"></path>
                    <path d="M58.2878616,116.935 L58.2878616,92.1939474 C58.2878616,92.1939474 51.7557723,92.0967895 50.355599,86.9501579 C49.6822018,84.4767368 49.877925,82.4925263 49.877925,82.4925263 C49.877925,82.4925263 33.9292251,87.1841579 30.8270815,92.0311053 C28.2464101,99.7141053 27.5381113,116.935 27.5381113,116.935 L58.2878616,116.935" id="Fill-93" fill="#471B1B" sketch:type="MSShapeGroup" mask="url(#mask-2)"></path>
                    <path d="M58.2878616,116.935 L58.2878616,92.1939474 C58.2878616,92.1939474 64.8651177,92.0967895 66.2666598,86.9501579 C66.9393726,84.4767368 66.9133674,82.5568421 66.9133674,82.5568421 C66.9133674,82.5568421 82.6464981,87.1841579 85.7486417,92.0311053 C88.3299974,99.7141053 89.0382962,116.935 89.0382962,116.935 L58.2878616,116.935" id="Fill-94" fill="#3A1616" sketch:type="MSShapeGroup" mask="url(#mask-2)"></path>
                    <path d="M47.5839948,83.2198421 C47.5703079,84.1866316 47.6428486,86.0251053 48.221806,88.1502632 C49.9990543,94.6810526 58.2878616,94.8035263 58.2878616,94.8035263 C58.2878616,94.8035263 66.6334696,94.6810526 68.4134554,88.1502632 C68.9896753,86.0285263 69.160762,84.2311053 69.2114036,83.2862105 C67.8105459,82.8209474 66.9133674,82.5568421 66.9133674,82.5568421 C66.9133674,82.5568421 66.9393726,84.4767368 66.2666598,86.9501579 C64.8651177,92.0967895 58.2878616,92.1939474 58.2878616,92.1939474 C58.2878616,92.1939474 51.7557723,92.0967895 50.355599,86.9501579 C49.6822018,84.4767368 49.877925,82.4925263 49.877925,82.4925263 C49.877925,82.4925263 48.9827995,82.7566316 47.5839948,83.2198421" id="Fill-95" fill="#331111" sketch:type="MSShapeGroup" mask="url(#mask-2)"></path>
                    <path d="M81.1395666,48.3716316 C81.1395666,23.2877895 78.8415304,15.1347368 58.9099327,19.0689474 C49.7143661,20.8834737 34.5300815,20.3231053 35.8228124,48.2867895 C36.4311966,61.4400526 44.8048629,63.0951579 58.395304,63.0951579 C71.9864295,63.0951579 81.1395666,61.5385789 81.1395666,48.3716316" id="Fill-96" fill="#AD5A31" sketch:type="MSShapeGroup" mask="url(#mask-2)"></path>
                    <path d="M58.395304,23.8214737 C50.1242898,23.8214737 37.0443713,28.3769474 37.0443713,49.7229474 C37.0443713,62.0476316 40.6337697,68.5435263 42.4411294,70.7767895 C44.1054605,72.8321579 54.009326,78.7902632 58.395304,78.7902632 L58.395304,23.8214737" id="Fill-97" fill="#F1D6BB" sketch:type="MSShapeGroup" mask="url(#mask-2)"></path>
                    <path d="M32.9293946,54.8134737 C32.5646378,51.402 34.2426559,48.3764211 36.6755084,48.0521053 C39.110414,47.7291579 41.3783389,50.232 41.7430957,53.6427895 C42.1085369,57.0515263 40.4298344,60.0784737 37.9969819,60.4021053 C35.5627607,60.7250526 33.2948357,58.2222105 32.9293946,54.8134737" id="Fill-98" fill="#F1D6BB" sketch:type="MSShapeGroup" mask="url(#mask-2)"></path>
                    <path d="M58.328238,23.8214737 C66.5992523,23.8214737 79.6791708,28.3769474 79.6791708,49.7229474 C79.6791708,62.0476316 76.0897723,68.5435263 74.2817283,70.7767895 C72.6194502,72.8321579 62.714216,78.7902632 58.328238,78.7902632 L58.328238,23.8214737" id="Fill-99" fill="#EBC7A7" sketch:type="MSShapeGroup" mask="url(#mask-2)"></path>
                    <path d="M83.8612135,54.8134737 C84.2266546,51.402 82.5479521,48.3764211 80.115784,48.0521053 C77.6808784,47.7291579 75.4129534,50.232 75.0475123,53.6427895 C74.6827555,57.0515263 76.3607736,60.0784737 78.7943105,60.4021053 C81.2285317,60.7250526 83.4964567,58.2222105 83.8612135,54.8134737" id="Fill-100" fill="#EBC7A7" sketch:type="MSShapeGroup" mask="url(#mask-2)"></path>
                    <path d="M58.395304,71.2721579 C61.6199457,71.2721579 64.2334657,69.355 64.2334657,66.9883158 L52.5578266,66.9883158 C52.5578266,69.355 55.1706624,71.2721579 58.395304,71.2721579" id="Fill-101" fill="#FFFFFF" sketch:type="MSShapeGroup" mask="url(#mask-2)"></path>
                    <path d="M67.5272264,53.0639474 C67.5272264,54.0088421 66.7614424,54.7744737 65.8163596,54.7744737 C64.8712768,54.7744737 64.1054929,54.0088421 64.1054929,53.0639474 C64.1054929,52.1190526 64.8712768,51.3534211 65.8163596,51.3534211 C66.7614424,51.3534211 67.5272264,52.1190526 67.5272264,53.0639474" id="Fill-102" fill="#482B1B" sketch:type="MSShapeGroup" mask="url(#mask-2)"></path>
                    <path d="M52.6851151,53.0639474 C52.6851151,54.0088421 51.9193312,54.7744737 50.9742484,54.7744737 C50.0291656,54.7744737 49.2633816,54.0088421 49.2633816,53.0639474 C49.2633816,52.1190526 50.0291656,51.3534211 50.9742484,51.3534211 C51.9193312,51.3534211 52.6851151,52.1190526 52.6851151,53.0639474" id="Fill-103" fill="#482B1B" sketch:type="MSShapeGroup" mask="url(#mask-2)"></path>
                    <path d="M38.3357335,53.0639474 L39.3656753,53.0639474 C39.3656753,53.0639474 43.1309508,44.1178947 41.2483131,38.2548947 C41.2483131,38.2548947 52.9041061,41.1504737 61.5193467,36.5895263 C70.1345873,32.0299474 73.7246701,37.5275789 74.6054243,38.8200526 C76.1000375,41.0129474 75.6367348,52.5138421 75.6367348,52.5138421 L76.7946494,52.4413158 C76.7946494,52.4413158 76.8986701,48.8211579 79.6504282,48.0247368 C79.6504282,48.0247368 82.6478668,21.3891053 58.328238,21.3891053 C34.0086093,21.3891053 36.6871423,47.6641579 36.6871423,47.6641579 C36.6871423,47.6641579 38.3357335,49.5607895 38.3357335,53.0639474" id="Fill-104" fill="#AD5A31" sketch:type="MSShapeGroup" mask="url(#mask-2)"></path>
                </g>
            </g>
        </g>
    </g>
</svg>