<?xml version="1.0" encoding="UTF-8" standalone="no"?>
<svg width="118px" height="117px" viewBox="0 0 118 117" version="1.1" xmlns="http://www.w3.org/2000/svg" xmlns:xlink="http://www.w3.org/1999/xlink" xmlns:sketch="http://www.bohemiancoding.com/sketch/ns">
    <!-- Generator: Sketch 3.3.2 (12043) - http://www.bohemiancoding.com/sketch -->
    <title>img_selected_avatar_05</title>
    <desc>Created with Sketch.</desc>
    <defs>
        <path id="path-1" d="M116.563405,58.4753684 C116.563405,26.3557895 90.5212755,0.318157895 58.3946197,0.318157895 C26.2700168,0.318157895 0.227203105,26.3557895 0.227203105,58.4753684 C0.227203105,90.5949474 26.2700168,116.633263 58.3946197,116.633263 C90.5212755,116.633263 116.563405,90.5949474 116.563405,58.4753684"></path>
    </defs>
    <g id="Smartphone" stroke="none" stroke-width="1" fill="none" fill-rule="evenodd" sketch:type="MSPage">
        <g id="avatar_selected" sketch:type="MSLayerGroup" transform="translate(-632.000000, -1.000000)">
            <g id="img_selected_avatar_05" transform="translate(632.000000, 1.000000)">
                <path d="M117.117776,58.4760526 C117.117776,26.3564737 91.0749625,0.318842105 58.9489909,0.318842105 C26.8237038,0.318842105 0.780205692,26.3564737 0.780205692,58.4760526 C0.780205692,90.5956316 26.8237038,116.633263 58.9489909,116.633263 C91.0749625,116.633263 117.117776,90.5956316 117.117776,58.4760526" id="Fill-154" fill="#FF8B00" sketch:type="MSShapeGroup"></path>
                <path d="M117.117776,58.4760526 C117.117776,26.3564737 91.0749625,0.318842105 58.9489909,0.318842105 L58.9489909,116.633263 C91.0749625,116.633263 117.117776,90.5956316 117.117776,58.4760526" id="Fill-155" fill="#E57700" sketch:type="MSShapeGroup"></path>
                <g id="Group-175" transform="translate(0.553687, 0.000000)">
                    <mask id="mask-2" sketch:name="Clip 157" fill="white">
                        <use xlink:href="#path-1"></use>
                    </mask>
                    <g id="Clip-157"></g>
                    <path d="M58.140727,90.7119474 C58.140727,90.7119474 75.5648784,93.7997895 77.3024347,90.7981579 C78.1038047,89.4146842 77.4276701,78.3783684 78.8990155,66.651 C80.0966223,57.1062632 83.1145912,38.909 83.1145912,38.909 L58.140727,38.909 L58.140727,90.7119474" id="Fill-156" fill="#472B1B" sketch:type="MSShapeGroup" mask="url(#mask-2)"></path>
                    <path d="M58.395304,90.7119474 C58.395304,90.7119474 40.9711527,93.7997895 39.2335964,90.7981579 C38.4322264,89.4146842 39.1090453,78.3783684 37.6370155,66.651 C36.4394088,57.1062632 33.6760168,38.909 33.6760168,38.909 L58.395304,38.909 L58.395304,90.7119474" id="Fill-158" fill="#472B1B" sketch:type="MSShapeGroup" mask="url(#mask-2)"></path>
                    <path d="M66.9133674,92.5463158 L58.2878616,116.736579 L49.877925,92.5463158 L49.877925,73.8707895 L66.9133674,73.8707895 L66.9133674,92.5463158" id="Fill-159" fill="#E9C7AC" sketch:type="MSShapeGroup" mask="url(#mask-2)"></path>
                    <path d="M66.9133674,89.3688421 L49.877925,76.9675263 L49.877925,73.8707895 L66.9133674,73.8707895 L66.9133674,89.3688421" id="Fill-160" fill="#CE9C88" sketch:type="MSShapeGroup" mask="url(#mask-2)"></path>
                    <path d="M58.2878616,116.736579 L58.2878616,93.4734211 C58.2878616,93.4734211 51.9323338,91.8983684 50.5321604,86.7524211 C49.8587633,84.279 49.877925,82.2934211 49.877925,82.2934211 C49.877925,82.2934211 33.9292251,86.9864211 30.8270815,91.8326842 C28.2464101,99.515 27.5381113,116.736579 27.5381113,116.736579 L58.2878616,116.736579" id="Fill-161" fill="#E9C7AC" sketch:type="MSShapeGroup" mask="url(#mask-2)"></path>
                    <path d="M58.2878616,116.736579 L58.2878616,99.6313158 C58.2878616,99.6313158 64.6420207,91.8983684 66.0442471,86.7524211 C66.7169599,84.279 66.6977982,82.2934211 66.6977982,82.2934211 C66.6977982,82.2934211 82.6464981,86.9864211 85.7486417,91.8326842 C88.3299974,99.515 89.0382962,116.736579 89.0382962,116.736579 L58.2878616,116.736579" id="Fill-162" fill="#CE9C88" sketch:type="MSShapeGroup" mask="url(#mask-2)"></path>
                    <path d="M58.2878616,116.736579 L58.2878616,99.6313158 C58.2878616,99.6313158 64.6420207,91.8983684 66.0442471,86.7524211 C66.7169599,84.279 66.9311604,82.3632105 66.9311604,82.3632105 C66.9311604,82.3632105 69.2579392,83.0474211 72.2978072,84.1654211 C72.2978072,84.1654211 81.4256235,104.283947 81.4256235,116.736579 L58.2878616,116.736579" id="Fill-163" fill="#A22F26" sketch:type="MSShapeGroup" mask="url(#mask-2)"></path>
                    <path d="M58.2878616,116.736579 L58.2878616,99.6313158 C58.2878616,99.6313158 51.9337025,91.8983684 50.5314761,86.7524211 C49.8594476,84.279 49.877925,82.2934211 49.877925,82.2934211 C49.877925,82.2934211 47.317784,83.0474211 44.2779159,84.1654211 C44.2779159,84.1654211 35.150784,104.283947 35.150784,116.736579 L58.2878616,116.736579" id="Fill-164" fill="#B5332B" sketch:type="MSShapeGroup" mask="url(#mask-2)"></path>
                    <path d="M83.1145912,38.909 C83.1145912,25.259 72.0473364,14.1946316 58.395304,14.1946316 C44.743956,14.1946316 33.6760168,25.259 33.6760168,38.909 C33.6760168,52.5583158 44.743956,63.6226842 58.395304,63.6226842 C72.0473364,63.6226842 83.1145912,52.5583158 83.1145912,38.909" id="Fill-165" fill="#472B1B" sketch:type="MSShapeGroup" mask="url(#mask-2)"></path>
                    <path d="M58.395304,23.6230526 C50.1242898,23.6230526 37.0443713,28.1785263 37.0443713,49.5245263 C37.0443713,61.8492105 42.6868098,67.6602105 44.4941695,69.8941579 C46.1585006,71.9488421 54.009326,78.5918421 58.395304,78.5918421 L58.395304,23.6230526" id="Fill-166" fill="#F1D6BB" sketch:type="MSShapeGroup" mask="url(#mask-2)"></path>
                    <path d="M32.9293946,54.6143684 C32.5646378,51.2035789 34.2426559,48.1773158 36.6755084,47.8536842 C39.110414,47.5307368 41.3783389,50.0328947 41.7430957,53.4436842 C42.1085369,56.8537895 40.4298344,59.8793684 37.9969819,60.2036842 C35.5627607,60.5266316 33.2948357,58.0244737 32.9293946,54.6143684" id="Fill-167" fill="#F1D6BB" sketch:type="MSShapeGroup" mask="url(#mask-2)"></path>
                    <path d="M58.328238,23.6230526 C66.5992523,23.6230526 79.6791708,28.1785263 79.6791708,49.5245263 C79.6791708,61.8492105 74.0367322,67.6602105 72.2286882,69.8941579 C70.5664101,71.9488421 62.714216,78.5918421 58.328238,78.5918421 L58.328238,23.6230526" id="Fill-168" fill="#EBC7A7" sketch:type="MSShapeGroup" mask="url(#mask-2)"></path>
                    <path d="M83.8612135,54.6143684 C84.2266546,51.2035789 82.5479521,48.1773158 80.115784,47.8536842 C77.6808784,47.5307368 75.4129534,50.0328947 75.0475123,53.4436842 C74.6827555,56.8537895 76.3607736,59.8793684 78.7943105,60.2036842 C81.2285317,60.5266316 83.4964567,58.0244737 83.8612135,54.6143684" id="Fill-169" fill="#EBC7A7" sketch:type="MSShapeGroup" mask="url(#mask-2)"></path>
                    <path d="M58.395304,71.0737368 C61.6199457,71.0737368 64.2334657,69.1565789 64.2334657,66.7892105 L52.5578266,66.7892105 C52.5578266,69.1565789 55.1706624,71.0737368 58.395304,71.0737368" id="Fill-170" fill="#FFFFFF" sketch:type="MSShapeGroup" mask="url(#mask-2)"></path>
                    <path d="M58.1147219,16.9075263 C57.7184851,16.8568947 57.3044554,16.822 56.8603144,16.8178947 C56.8603144,16.8178947 42.8893765,17.8640526 39.0022872,36.0558421 C37.1353894,37.4550526 34.2015951,47.9590526 40.4996378,53.8658421 C39.8098163,51.5566316 37.032053,41.5685263 43.9781721,38.6982632 C49.793066,36.2953158 52.1246352,38.5203684 58.8120712,33.3901579 C62.7176378,30.3933158 64.1212329,24.3681579 63.2575873,21.0011579 C61.7041203,16.8178947 57.7390155,16.9745789 58.1147219,16.9075263" id="Fill-171" fill="#472B1B" sketch:type="MSShapeGroup" mask="url(#mask-2)"></path>
                    <path d="M58.2317451,21.2727895 C53.0929858,46.2382632 77.472837,41.7908947 78.8415304,58.7812105 C90.8175977,43.2722105 74.2502484,19.0552632 58.2317451,21.2727895" id="Fill-172" fill="#472B1B" sketch:type="MSShapeGroup" mask="url(#mask-2)"></path>
                    <path d="M67.5272264,52.8655263 C67.5272264,53.6701579 66.7614424,54.3222105 65.8163596,54.3222105 C64.8712768,54.3222105 64.1054929,53.6701579 64.1054929,52.8655263 C64.1054929,52.0608947 64.8712768,51.4081579 65.8163596,51.4081579 C66.7614424,51.4081579 67.5272264,52.0608947 67.5272264,52.8655263" id="Fill-173" fill="#482B1B" sketch:type="MSShapeGroup" mask="url(#mask-2)"></path>
                    <path d="M52.6851151,52.8655263 C52.6851151,53.6701579 51.9193312,54.3222105 50.9742484,54.3222105 C50.0291656,54.3222105 49.2633816,53.6701579 49.2633816,52.8655263 C49.2633816,52.0608947 50.0291656,51.4081579 50.9742484,51.4081579 C51.9193312,51.4081579 52.6851151,52.0608947 52.6851151,52.8655263" id="Fill-174" fill="#482B1B" sketch:type="MSShapeGroup" mask="url(#mask-2)"></path>
                </g>
            </g>
        </g>
    </g>
</svg>