<?xml version="1.0" encoding="UTF-8" standalone="no"?>
<svg width="117px" height="117px" viewBox="0 0 117 117" version="1.1" xmlns="http://www.w3.org/2000/svg" xmlns:xlink="http://www.w3.org/1999/xlink" xmlns:sketch="http://www.bohemiancoding.com/sketch/ns">
    <!-- Generator: Sketch 3.3.2 (12043) - http://www.bohemiancoding.com/sketch -->
    <title>img_selected_avatar_06</title>
    <desc>Created with Sketch.</desc>
    <defs>
        <path id="path-1" d="M116.63663,58.4753684 C116.63663,26.3557895 90.5938163,0.318157895 58.4678448,0.318157895 C26.3425576,0.318157895 0.300428202,26.3557895 0.300428202,58.4753684 C0.300428202,90.5942632 26.3425576,116.632579 58.4678448,116.632579 C90.5938163,116.632579 116.63663,90.5942632 116.63663,58.4753684"></path>
    </defs>
    <g id="Smartphone" stroke="none" stroke-width="1" fill="none" fill-rule="evenodd" sketch:type="MSPage">
        <g id="avatar_selected" sketch:type="MSLayerGroup" transform="translate(-791.000000, -1.000000)">
            <g id="img_selected_avatar_06" transform="translate(790.000000, 1.000000)">
                <path d="M117.614028,58.4760526 C117.614028,26.3564737 91.5705304,0.318842105 59.4452432,0.318842105 C27.3192717,0.318842105 1.27577361,26.3564737 1.27577361,58.4760526 C1.27577361,90.5949474 27.3192717,116.632579 59.4452432,116.632579 C91.5705304,116.632579 117.614028,90.5949474 117.614028,58.4760526" id="Fill-25" fill="#1E88E6" sketch:type="MSShapeGroup"></path>
                <path d="M117.614028,58.4760526 C117.614028,26.3564737 91.5705304,0.318842105 59.4452432,0.318842105 L59.4452432,116.632579 C91.5705304,116.632579 117.614028,90.5949474 117.614028,58.4760526" id="Fill-26" fill="#1976D3" sketch:type="MSShapeGroup"></path>
                <g id="Group-45" transform="translate(0.976714, 0.000000)">
                    <mask id="mask-2" sketch:name="Clip 28" fill="white">
                        <use xlink:href="#path-1"></use>
                    </mask>
                    <g id="Clip-28"></g>
                    <path d="M66.9859082,92.5456316 L58.3604023,116.735895 L49.9504657,92.5456316 L49.9504657,73.8701053 L66.9859082,73.8701053 L66.9859082,92.5456316" id="Fill-27" fill="#E9C7AC" sketch:type="MSShapeGroup" mask="url(#mask-2)"></path>
                    <path d="M66.9859082,89.3681579 L49.9504657,76.9668421 L49.9504657,73.8701053 L66.9859082,73.8701053 L66.9859082,89.3681579" id="Fill-29" fill="#CE9C88" sketch:type="MSShapeGroup" mask="url(#mask-2)"></path>
                    <path d="M58.3604023,116.735895 L58.3604023,93.4734211 C58.3604023,93.4734211 52.0048745,91.8983684 50.6047012,86.7517368 C49.931304,84.2783158 49.9504657,82.2934211 49.9504657,82.2934211 C49.9504657,82.2934211 34.0024502,86.9857368 30.8996223,91.832 C28.3189508,99.515 27.610652,116.735895 27.610652,116.735895 L58.3604023,116.735895" id="Fill-30" fill="#E9C7AC" sketch:type="MSShapeGroup" mask="url(#mask-2)"></path>
                    <path d="M58.3604023,116.735895 L58.3604023,93.4734211 C58.3604023,93.4734211 64.7152458,91.8983684 66.1167878,86.7517368 C66.7895006,84.2783158 66.7703389,82.2934211 66.7703389,82.2934211 C66.7703389,82.2934211 82.7190388,86.9857368 85.8211824,91.832 C88.4025382,99.515 89.110837,116.735895 89.110837,116.735895 L58.3604023,116.735895" id="Fill-31" fill="#CE9C88" sketch:type="MSShapeGroup" mask="url(#mask-2)"></path>
                    <path d="M58.3604023,116.735895 L58.3604023,93.4734211 C58.3604023,93.4734211 48.4934916,91.8395263 47.3136779,83.1343158 C42.6478021,84.6977368 33.2099767,88.2227895 30.8996223,91.832 C28.3189508,99.515 27.610652,116.735895 27.610652,116.735895 L58.3604023,116.735895" id="Fill-32" fill="#F9A11C" sketch:type="MSShapeGroup" mask="url(#mask-2)"></path>
                    <path d="M58.3604023,116.735895 L58.3604023,93.4734211 C58.3604023,93.4734211 67.9426248,92.4074211 69.7246636,83.2410526 C74.488401,84.8544211 83.5614696,88.3021579 85.8211824,91.832 C88.4025382,99.515 89.110837,116.735895 89.110837,116.735895 L58.3604023,116.735895" id="Fill-33" fill="#F68D1F" sketch:type="MSShapeGroup" mask="url(#mask-2)"></path>
                    <path d="M83.0776365,39.0554211 C83.0776365,25.8884737 72.0589702,15.2141053 58.4685291,15.2141053 C44.8774036,15.2141053 33.8594217,25.8884737 33.8594217,39.0554211 C33.8594217,52.2223684 44.8774036,62.8967368 58.4685291,62.8967368 C72.0589702,62.8967368 83.0776365,52.2223684 83.0776365,39.0554211" id="Fill-34" fill="#482B1B" sketch:type="MSShapeGroup" mask="url(#mask-2)"></path>
                    <path d="M58.4685291,23.6230526 C50.1975149,23.6230526 37.116912,28.1778421 37.116912,49.5245263 C37.116912,61.8492105 40.7063105,68.3444211 42.5136701,70.5783684 C44.1780013,72.6330526 54.0818668,78.5911579 58.4685291,78.5911579 L58.4685291,23.6230526" id="Fill-35" fill="#F1D6BB" sketch:type="MSShapeGroup" mask="url(#mask-2)"></path>
                    <path d="M33.0026197,54.6143684 C32.6371785,51.2035789 34.315881,48.1766316 36.7480492,47.853 C39.1829547,47.5300526 41.4508797,50.0328947 41.8163208,53.4436842 C42.1810776,56.8531053 40.5030595,59.8793684 38.0695226,60.203 C35.6353014,60.5266316 33.3673765,58.0237895 33.0026197,54.6143684" id="Fill-36" fill="#F1D6BB" sketch:type="MSShapeGroup" mask="url(#mask-2)"></path>
                    <path d="M58.4007788,23.6230526 C66.671793,23.6230526 79.7517115,28.1778421 79.7517115,49.5245263 C79.7517115,61.8492105 76.1623131,68.3444211 74.3542691,70.5783684 C72.6919909,72.6330526 62.7867568,78.5911579 58.4007788,78.5911579 L58.4007788,23.6230526" id="Fill-37" fill="#EBC7A7" sketch:type="MSShapeGroup" mask="url(#mask-2)"></path>
                    <path d="M83.9337542,54.6143684 C84.2991953,51.2035789 82.6204929,48.1766316 80.1883247,47.853 C77.7534191,47.5300526 75.4854942,50.0328947 75.1207374,53.4436842 C74.7552962,56.8531053 76.4333144,59.8793684 78.8668512,60.203 C81.3010724,60.5266316 83.5689974,58.0237895 83.9337542,54.6143684" id="Fill-38" fill="#EBC7A7" sketch:type="MSShapeGroup" mask="url(#mask-2)"></path>
                    <path d="M58.4685291,71.0737368 C61.6931708,71.0737368 64.3060065,69.1558947 64.3060065,66.7892105 L52.6303674,66.7892105 C52.6303674,69.1558947 55.2438875,71.0737368 58.4685291,71.0737368" id="Fill-39" fill="#FFFFFF" sketch:type="MSShapeGroup" mask="url(#mask-2)"></path>
                    <path d="M57.2647633,17.4808947 C42.1516507,17.4808947 37.556947,30.3091579 37.556947,36.2159474 C33.4864528,41.6978421 35.7085265,46.7753684 38.8934761,49.9384737 C39.5374463,50.5775263 41.7170906,40.2158421 54.0011138,40.4313684 C60.3422704,40.5428947 64.2779483,37.6391053 67.6319314,31.7692632 C71.7735977,23.9083684 66.604727,17.4808947 57.2647633,17.4808947" id="Fill-40" fill="#482B1B" sketch:type="MSShapeGroup" mask="url(#mask-2)"></path>
                    <path d="M66.9859082,29.3560526 C66.9859082,29.3560526 70.5171371,43.2448421 80.1883247,47.853 C81.9094567,35.3675263 82.9263959,37.9976316 80.1883247,31.4223684 C77.4502536,24.8471053 66.9859082,19.9638947 66.9859082,19.9638947 L66.9859082,29.3560526" id="Fill-41" fill="#482B1B" sketch:type="MSShapeGroup" mask="url(#mask-2)"></path>
                    <path d="M67.5997671,52.8648421 C67.5997671,53.8097368 66.8339832,54.5753684 65.8889004,54.5753684 C64.9438176,54.5753684 64.1780336,53.8097368 64.1780336,52.8648421 C64.1780336,51.9206316 64.9438176,51.155 65.8889004,51.155 C66.8339832,51.155 67.5997671,51.9206316 67.5997671,52.8648421" id="Fill-42" fill="#482B1B" sketch:type="MSShapeGroup" mask="url(#mask-2)"></path>
                    <path d="M52.7576559,52.8648421 C52.7576559,53.8097368 51.9918719,54.5753684 51.0467891,54.5753684 C50.1017063,54.5753684 49.3359224,53.8097368 49.3359224,52.8648421 C49.3359224,51.9206316 50.1017063,51.155 51.0467891,51.155 C51.9918719,51.155 52.7576559,51.9206316 52.7576559,52.8648421" id="Fill-43" fill="#482B1B" sketch:type="MSShapeGroup" mask="url(#mask-2)"></path>
                    <path d="M45.7047788,83.6700526 C46.6491772,89.7602105 52.0041902,94.6194737 58.3604023,94.6194737 C64.7159301,94.6194737 70.0558875,89.7677368 71.0002859,83.6775789 C69.723295,83.1555263 68.5852264,82.8366842 67.7886468,82.6102105 C67.5949767,87.6624211 63.4608383,91.7505789 58.3604023,91.7505789 C53.2599664,91.7505789 49.0662898,87.6884211 48.8719353,82.6362105 C48.1294191,82.7326842 46.9824541,83.148 45.7047788,83.6700526" id="Fill-44" fill="#39B44A" sketch:type="MSShapeGroup" mask="url(#mask-2)"></path>
                </g>
            </g>
        </g>
    </g>
</svg>