<?xml version="1.0" encoding="UTF-8" standalone="no"?>
<svg width="117px" height="117px" viewBox="0 0 117 117" version="1.1" xmlns="http://www.w3.org/2000/svg" xmlns:xlink="http://www.w3.org/1999/xlink" xmlns:sketch="http://www.bohemiancoding.com/sketch/ns">
    <!-- Generator: Sketch 3.3.2 (12043) - http://www.bohemiancoding.com/sketch -->
    <title>img_selected_avatar_04</title>
    <desc>Created with Sketch.</desc>
    <defs>
        <path id="path-1" d="M116.941849,58.4753684 C116.941849,26.3557895 90.8997193,0.318157895 58.7737477,0.318157895 C26.6484605,0.318157895 0.605646831,26.3557895 0.605646831,58.4753684 C0.605646831,90.5942632 26.6484605,116.632579 58.7737477,116.632579 C90.8997193,116.632579 116.941849,90.5942632 116.941849,58.4753684"></path>
    </defs>
    <g id="Smartphone" stroke="none" stroke-width="1" fill="none" fill-rule="evenodd" sketch:type="MSPage">
        <g id="avatar_selected" sketch:type="MSLayerGroup" transform="translate(-475.000000, -1.000000)">
            <g id="img_selected_avatar_04" transform="translate(474.000000, 1.000000)">
                <path d="M117.36556,58.4760526 C117.36556,26.3564737 91.3227464,0.318842105 59.1967749,0.318842105 C27.0714877,0.318842105 1.028674,26.3564737 1.028674,58.4760526 C1.028674,90.5949474 27.0714877,116.632579 59.1967749,116.632579 C91.3227464,116.632579 117.36556,90.5949474 117.36556,58.4760526" id="Fill-46" fill="#C4D11C" sketch:type="MSShapeGroup"></path>
                <path d="M117.36556,58.4760526 C117.36556,26.3564737 91.3227464,0.318842105 59.1967749,0.318842105 L59.1967749,116.632579 C91.3227464,116.632579 117.36556,90.5949474 117.36556,58.4760526" id="Fill-47" fill="#BBBF10" sketch:type="MSShapeGroup"></path>
                <g id="Group-64" transform="translate(0.423027, 0.000000)">
                    <mask id="mask-2" sketch:name="Clip 49" fill="white">
                        <use xlink:href="#path-1"></use>
                    </mask>
                    <g id="Clip-49"></g>
                    <path d="M67.2918111,92.5456316 L58.6663053,116.735895 L50.2563687,92.5456316 L50.2563687,73.8701053 L67.2918111,73.8701053 L67.2918111,92.5456316" id="Fill-48" fill="#C18148" sketch:type="MSShapeGroup" mask="url(#mask-2)"></path>
                    <path d="M67.2918111,89.3681579 L50.2563687,76.9668421 L50.2563687,73.8701053 L67.2918111,73.8701053 L67.2918111,89.3681579" id="Fill-50" fill="#915324" sketch:type="MSShapeGroup" mask="url(#mask-2)"></path>
                    <path d="M58.6663053,116.735895 L58.6663053,93.4734211 C58.6663053,93.4734211 52.3107775,91.8983684 50.9106041,86.7517368 C50.237207,84.2783158 50.2563687,82.2934211 50.2563687,82.2934211 C50.2563687,82.2934211 34.3083532,86.9857368 31.2055252,91.832 C28.6248538,99.515 27.916555,116.735895 27.916555,116.735895 L58.6663053,116.735895" id="Fill-51" fill="#1E88E6" sketch:type="MSShapeGroup" mask="url(#mask-2)"></path>
                    <path d="M58.6663053,116.735895 L58.6663053,93.4734211 C58.6663053,93.4734211 65.0204644,91.8983684 66.4226908,86.7517368 C67.0954036,84.2783158 67.2918111,82.3577368 67.2918111,82.3577368 C67.2918111,82.3577368 83.0249418,86.9857368 86.1270854,91.832 C88.7084411,99.515 89.41674,116.735895 89.41674,116.735895 L58.6663053,116.735895" id="Fill-52" fill="#1976D3" sketch:type="MSShapeGroup" mask="url(#mask-2)"></path>
                    <path d="M48.614621,82.8072632 C48.6529444,83.6591053 48.8014476,85.4886842 49.384511,87.6295789 C51.0597917,93.7888421 58.6663053,95.6731579 58.6663053,95.6731579 C58.6663053,95.6731579 66.2714502,93.7888421 67.9494683,87.6295789 C68.531163,85.4893684 68.8137982,83.6994737 68.9267154,82.8695263 C67.9145666,82.5417895 67.2918111,82.3577368 67.2918111,82.3577368 C67.2918111,82.3577368 67.0954036,84.2783158 66.4226908,86.7517368 C65.0204644,91.8983684 58.6663053,93.4734211 58.6663053,93.4734211 C58.6663053,93.4734211 52.3107775,91.8983684 50.9106041,86.7517368 C50.237207,84.2783158 50.2563687,82.2934211 50.2563687,82.2934211 C50.2563687,82.2934211 49.6315602,82.4774737 48.614621,82.8072632" id="Fill-53" fill="#FFFFFF" sketch:type="MSShapeGroup" mask="url(#mask-2)"></path>
                    <path d="M58.7737477,15.0998421 C48.5126533,15.0998421 37.8813273,20.5755789 35.969947,29.7802632 C35.0269172,34.3206842 35.969947,48.3312632 35.969947,48.3312632 C39.7126391,56.9550526 48.5126533,63.011 58.7737477,63.011 C68.9171345,63.011 77.628868,57.0918947 81.4434166,48.6268421 C81.4434166,48.6268421 82.4480375,34.1626316 81.4434166,29.484 C79.4923441,20.4065789 68.9171345,15.0998421 58.7737477,15.0998421" id="Fill-54" fill="#482B1B" sketch:type="MSShapeGroup" mask="url(#mask-2)"></path>
                    <path d="M58.7737477,23.6230526 C50.5034179,23.6230526 37.422815,28.1778421 37.422815,49.5245263 C37.422815,61.8492105 41.0122135,68.3444211 42.8195731,70.5783684 C44.4839043,72.6330526 54.3877697,78.5911579 58.7737477,78.5911579 L58.7737477,23.6230526" id="Fill-55" fill="#C18148" sketch:type="MSShapeGroup" mask="url(#mask-2)"></path>
                    <path d="M33.3085226,54.6143684 C32.9430815,51.2035789 34.621784,48.1766316 37.0539521,47.853 C39.4888577,47.5300526 41.7567827,50.0328947 42.1222238,53.4436842 C42.4869806,56.8531053 40.8089625,59.8793684 38.3754256,60.203 C35.9412044,60.5266316 33.6732794,58.0237895 33.3085226,54.6143684" id="Fill-56" fill="#C18148" sketch:type="MSShapeGroup" mask="url(#mask-2)"></path>
                    <path d="M58.7066818,23.6230526 C66.977696,23.6230526 80.0576145,28.1778421 80.0576145,49.5245263 C80.0576145,61.8492105 76.468216,68.3444211 74.6601721,70.5783684 C72.9978939,72.6330526 63.0926598,78.5911579 58.7066818,78.5911579 L58.7066818,23.6230526" id="Fill-57" fill="#AA6A35" sketch:type="MSShapeGroup" mask="url(#mask-2)"></path>
                    <path d="M84.2396572,54.6143684 C84.6050983,51.2035789 82.9270802,48.1766316 80.4942277,47.853 C78.0593221,47.5300526 75.7913972,50.0328947 75.4266404,53.4436842 C75.0611992,56.8531053 76.7392173,59.8793684 79.1727542,60.203 C81.6069754,60.5266316 83.8749004,58.0237895 84.2396572,54.6143684" id="Fill-58" fill="#AA6A35" sketch:type="MSShapeGroup" mask="url(#mask-2)"></path>
                    <path d="M58.7737477,71.0737368 C61.9983894,71.0737368 64.6119094,69.1558947 64.6119094,66.7892105 L52.9362704,66.7892105 C52.9362704,69.1558947 55.5497904,71.0737368 58.7737477,71.0737368" id="Fill-59" fill="#FFFFFF" sketch:type="MSShapeGroup" mask="url(#mask-2)"></path>
                    <path d="M67.9056701,52.8648421 C67.9056701,53.8097368 67.1398862,54.5753684 66.1948034,54.5753684 C65.2497206,54.5753684 64.4839366,53.8097368 64.4839366,52.8648421 C64.4839366,51.9206316 65.2497206,51.155 66.1948034,51.155 C67.1398862,51.155 67.9056701,51.9206316 67.9056701,52.8648421" id="Fill-60" fill="#482B1B" sketch:type="MSShapeGroup" mask="url(#mask-2)"></path>
                    <path d="M53.0635589,52.8648421 C53.0635589,53.8097368 52.2977749,54.5753684 51.3526921,54.5753684 C50.4076093,54.5753684 49.6418254,53.8097368 49.6418254,52.8648421 C49.6418254,51.9206316 50.4076093,51.155 51.3526921,51.155 C52.2977749,51.155 53.0635589,51.9206316 53.0635589,52.8648421" id="Fill-61" fill="#482B1B" sketch:type="MSShapeGroup" mask="url(#mask-2)"></path>
                    <path d="M80.5872988,47.1742632 C80.5872988,47.1742632 78.7060298,49.2268947 78.5342587,51.7926842 L76.6529897,51.7926842 C76.6529897,51.7926842 77.4810492,41.3926842 74.2392988,39.013 C70.9975485,36.6326316 68.1841992,39.0554211 58.7066818,39.0554211 L57.3379884,21.7729474 L75.1132096,24.3387368 L81.4434166,41.6150526 L80.5872988,47.1742632" id="Fill-62" fill="#482B1B" sketch:type="MSShapeGroup" mask="url(#mask-2)"></path>
                    <path d="M36.8253803,47.1742632 C36.8253803,47.1742632 38.7073338,49.2268947 38.8784204,51.7926842 L40.7603739,51.7926842 C40.7603739,51.7926842 39.5497646,41.249 42.7908305,38.8693158 C46.0325809,36.4889474 49.2291643,39.0554211 58.7066818,39.0554211 L60.0753752,21.7729474 L42.3001539,24.3387368 L35.969947,41.6150526 L36.8253803,47.1742632" id="Fill-63" fill="#482B1B" sketch:type="MSShapeGroup" mask="url(#mask-2)"></path>
                </g>
            </g>
        </g>
    </g>
</svg>