<?xml version="1.0" encoding="UTF-8" standalone="no"?>
<svg width="130px" height="130px" viewBox="0 0 130 130" version="1.1" xmlns="http://www.w3.org/2000/svg" xmlns:xlink="http://www.w3.org/1999/xlink" xmlns:sketch="http://www.bohemiancoding.com/sketch/ns">
    <!-- Generator: Sketch 3.3 (11970) - http://www.bohemiancoding.com/sketch -->
    <title>Imported Layers</title>
    <desc>Created with Sketch.</desc>
    <defs>
        <path id="path-1" d="M130.607032,65.6203874 C130.607032,29.6464589 101.444884,0.484311579 65.4709558,0.484311579 C29.4977937,0.484311579 0.336412632,29.6464589 0.336412632,65.6203874 C0.336412632,101.594316 29.4977937,130.757229 65.4709558,130.757229 C101.444884,130.757229 130.607032,101.594316 130.607032,65.6203874"></path>
    </defs>
    <g id="GdS-md" stroke="none" stroke-width="1" fill="none" fill-rule="evenodd" sketch:type="MSPage">
        <g id="07---quem-vai-participar" sketch:type="MSArtboardGroup" transform="translate(-446.000000, -238.000000)">
            <g id="Imported-Layers" sketch:type="MSLayerGroup" transform="translate(445.480000, 237.480000)">
                <path d="M130.607798,65.62192 C130.607798,29.6479916 101.444884,0.485077895 65.4717221,0.485077895 C29.4977937,0.485077895 0.335646316,29.6479916 0.335646316,65.62192 C0.335646316,101.595082 29.4977937,130.757229 65.4717221,130.757229 C101.444884,130.757229 130.607798,101.595082 130.607798,65.62192" id="Fill-1" fill="#1E88E6" sketch:type="MSShapeGroup"></path>
                <path d="M130.607798,65.62192 C130.607798,29.6479916 101.444884,0.485077895 65.4717221,0.485077895 L65.4717221,130.757229 C101.444884,130.757229 130.607798,101.595082 130.607798,65.62192" id="Fill-2" fill="#1976D3" sketch:type="MSShapeGroup"></path>
                <g id="Group-24">
                    <mask id="mask-2" sketch:name="Clip 4" fill="white">
                        <use xlink:href="#path-1"></use>
                    </mask>
                    <g id="Clip-4"></g>
                    <path d="M65.4717221,113.674518 L42.1680589,113.674518 C42.1680589,113.674518 31.4128168,103.277145 36.7908211,87.8604042 C42.1680589,72.4459621 46.8287916,66.3522189 47.1874274,49.8611032 L65.4717221,49.8611032 L65.4717221,113.674518" id="Fill-3" fill="#472B1B" sketch:type="MSShapeGroup" mask="url(#mask-2)"></path>
                    <path d="M64.8693979,113.674518 L88.1730611,113.674518 C88.1730611,113.674518 98.9283032,103.277145 93.5502989,87.8604042 C88.1730611,72.4459621 83.5123284,66.3522189 83.1536926,49.8611032 L64.8693979,49.8611032 L64.8693979,113.674518" id="Fill-5" fill="#472B1B" sketch:type="MSShapeGroup" mask="url(#mask-2)"></path>
                    <path d="M75.0092884,103.779848 L65.3506442,130.872177 L55.9333895,103.779848 L55.9333895,82.8632589 L75.0092884,82.8632589 L75.0092884,103.779848" id="Fill-6" fill="#C18148" sketch:type="MSShapeGroup" mask="url(#mask-2)"></path>
                    <path d="M75.0092884,100.221078 L55.9333895,86.3316042 L55.9333895,82.8632589 L75.0092884,82.8632589 L75.0092884,100.221078" id="Fill-7" fill="#915324" sketch:type="MSShapeGroup" mask="url(#mask-2)"></path>
                    <path d="M65.3506442,130.872177 L65.3506442,107.117154 C65.3506442,107.117154 58.2338695,103.054914 56.6659874,97.2906863 C55.9119326,94.5204547 55.9333895,92.2966063 55.9333895,92.2966063 C55.9333895,92.2966063 38.0751663,97.5527663 34.6006905,102.980581 C31.7109137,111.584775 30.9177768,130.872177 30.9177768,130.872177 L65.3506442,130.872177" id="Fill-8" fill="#C18148" sketch:type="MSShapeGroup" mask="url(#mask-2)"></path>
                    <path d="M65.3506442,130.872177 L65.3506442,107.117154 C65.3506442,107.117154 72.4666526,103.054914 74.0360674,97.2906863 C74.7893558,94.5204547 74.7678989,92.2966063 74.7678989,92.2966063 C74.7678989,92.2966063 92.6268884,97.5527663 96.1005979,102.980581 C98.9911411,111.584775 99.7842779,130.872177 99.7842779,130.872177 L65.3506442,130.872177" id="Fill-9" fill="#CE9C88" sketch:type="MSShapeGroup" mask="url(#mask-2)"></path>
                    <path d="M65.3506442,130.872177 L65.3506442,107.117154 C65.3506442,107.117154 58.2338695,103.054914 56.6659874,97.2906863 C55.9119326,94.5204547 55.9333895,92.2966063 55.9333895,92.2966063 C55.9333895,92.2966063 38.0751663,97.5527663 34.6006905,102.980581 C31.7109137,111.584775 30.9177768,130.872177 30.9177768,130.872177 L65.3506442,130.872177" id="Fill-10" fill="#C4D11C" sketch:type="MSShapeGroup" mask="url(#mask-2)"></path>
                    <path d="M65.3506442,130.872177 L65.3506442,107.117154 C65.3506442,107.117154 72.4666526,103.054914 74.0360674,97.2906863 C74.7893558,94.5204547 75.0292126,92.3747705 75.0292126,92.3747705 C75.0292126,92.3747705 92.6268884,97.5527663 96.1005979,102.980581 C98.9911411,111.584775 99.7842779,130.872177 99.7842779,130.872177 L65.3506442,130.872177" id="Fill-11" fill="#BBBF10" sketch:type="MSShapeGroup" mask="url(#mask-2)"></path>
                    <path d="M93.9802021,42.8776674 C93.9802021,27.1321768 81.21568,14.3684211 65.4717221,14.3684211 C49.7269979,14.3684211 36.9624758,27.1321768 36.9624758,42.8776674 C36.9624758,58.6216253 49.7269979,71.3846147 65.4717221,71.3846147 C81.21568,71.3846147 93.9802021,58.6216253 93.9802021,42.8776674" id="Fill-12" fill="#472B1B" sketch:type="MSShapeGroup" mask="url(#mask-2)"></path>
                    <path d="M65.4717221,26.5857937 C56.2100295,26.5857937 41.5626695,31.6886905 41.5626695,55.5954442 C41.5626695,69.3990905 47.8809432,75.9081768 49.9047832,78.4094316 C51.7684632,80.7106779 60.5596379,88.1508379 65.4717221,88.1508379 L65.4717221,26.5857937" id="Fill-13" fill="#C18148" sketch:type="MSShapeGroup" mask="url(#mask-2)"></path>
                    <path d="M36.9555789,61.2960674 C36.5463663,57.4767495 38.4261389,54.0865684 41.1496253,53.7241011 C43.8761768,53.3624 46.4157474,56.1655832 46.82496,59.9849011 C47.2334063,63.8042189 45.3544,67.1936337 42.6293811,67.5553347 C39.9035958,67.9178021 37.3640253,65.1153853 36.9555789,61.2960674" id="Fill-14" fill="#C18148" sketch:type="MSShapeGroup" mask="url(#mask-2)"></path>
                    <path d="M65.3958568,26.5857937 C74.6575495,26.5857937 89.3041432,31.6886905 89.3041432,55.5954442 C89.3041432,69.3990905 82.9858695,75.9081768 80.9612632,78.4094316 C79.0998821,80.7106779 70.3071747,88.1508379 65.3958568,88.1508379 L65.3958568,26.5857937" id="Fill-15" fill="#AA6A35" sketch:type="MSShapeGroup" mask="url(#mask-2)"></path>
                    <path d="M93.9870989,61.2960674 C94.3963116,57.4767495 92.5165389,54.0865684 89.7930526,53.7241011 C87.0665011,53.3624 84.5269305,56.1655832 84.1177179,59.9849011 C83.7092716,63.8042189 85.5882779,67.1936337 88.3132968,67.5553347 C91.0390821,67.9178021 93.5786526,65.1153853 93.9870989,61.2960674" id="Fill-16" fill="#AA6A35" sketch:type="MSShapeGroup" mask="url(#mask-2)"></path>
                    <path d="M65.4717221,79.73056 C69.0826021,79.73056 72.0083958,77.5825768 72.0083958,74.9318905 L58.9342821,74.9318905 C58.9342821,77.5825768 61.8608421,79.73056 65.4717221,79.73056" id="Fill-17" fill="#FFFFFF" sketch:type="MSShapeGroup" mask="url(#mask-2)"></path>
                    <path d="M65.1567663,19.0644042 C64.7130695,19.0076968 64.2494484,18.9686147 63.7521095,18.9647832 C63.7528758,18.9647832 48.1077726,20.1357137 43.7550989,40.5097516 C41.6645895,42.0768674 37.8337768,48.1729095 42.8837979,54.964 C43.5796126,49.2181642 45.6854484,45.0555368 49.3269811,43.4707958 C55.7885558,40.6599495 58.4499705,43.2715537 65.9376421,37.5257179 C70.3110063,34.1684884 71.88272,27.4210779 70.9156295,23.6492716 C69.1768589,18.9647832 64.7368253,19.1395032 65.1567663,19.0644042" id="Fill-18" fill="#472B1B" sketch:type="MSShapeGroup" mask="url(#mask-2)"></path>
                    <path d="M69.9263158,24.7251789 C69.9263158,24.7251789 64.2885305,45.76208 88.9071916,54.5701137 C94.8062905,35.3133642 84.0295916,22.7519158 69.9263158,24.7251789" id="Fill-19" fill="#472B1B" sketch:type="MSShapeGroup" mask="url(#mask-2)"></path>
                    <path d="M75.6966737,59.3373642 C75.6966737,60.39488 74.8391663,61.2531537 73.7808842,61.2531537 C72.7226021,61.2531537 71.8650947,60.39488 71.8650947,59.3373642 C71.8650947,58.2798484 72.7226021,57.4215747 73.7808842,57.4215747 C74.8391663,57.4215747 75.6966737,58.2798484 75.6966737,59.3373642" id="Fill-20" fill="#482B1B" sketch:type="MSShapeGroup" mask="url(#mask-2)"></path>
                    <path d="M59.0768168,59.3373642 C59.0768168,60.39488 58.2193095,61.2531537 57.1610274,61.2531537 C56.1027453,61.2531537 55.2452379,60.39488 55.2452379,59.3373642 C55.2452379,58.2798484 56.1027453,57.4215747 57.1610274,57.4215747 C58.2193095,57.4215747 59.0768168,58.2798484 59.0768168,59.3373642" id="Fill-21" fill="#482B1B" sketch:type="MSShapeGroup" mask="url(#mask-2)"></path>
                    <path d="M43.4922526,66.9652716 L41.8898863,68.5684042 L40.2867537,66.9652716 L41.8898863,65.3629053 L43.4922526,66.9652716" id="Fill-22" fill="#472B1B" sketch:type="MSShapeGroup" mask="url(#mask-2)"></path>
                    <path d="M90.6551579,66.9652716 L89.0527916,68.5684042 L87.4496589,66.9652716 L89.0527916,65.3629053 L90.6551579,66.9652716" id="Fill-23" fill="#472B1B" sketch:type="MSShapeGroup" mask="url(#mask-2)"></path>
                </g>
            </g>
        </g>
    </g>
</svg>