<?xml version="1.0" encoding="UTF-8" standalone="no"?>
<svg width="253px" height="253px" viewBox="0 0 253 253" version="1.1" xmlns="http://www.w3.org/2000/svg" xmlns:xlink="http://www.w3.org/1999/xlink" xmlns:sketch="http://www.bohemiancoding.com/sketch/ns">
    <!-- Generator: Sketch 3.3.2 (12043) - http://www.bohemiancoding.com/sketch -->
    <title>img_profile_avatar_08</title>
    <desc>Created with Sketch.</desc>
    <defs>
        <path id="path-1" d="M245.034937,123.264264 C245.034937,55.7861566 190.323143,1.08524989 122.831607,1.08524989 C55.3415075,1.08524989 0.631151684,55.7861566 0.631151684,123.264264 C0.631151684,190.742371 55.3415075,245.444715 122.831607,245.444715 C190.323143,245.444715 245.034937,190.742371 245.034937,123.264264"></path>
    </defs>
    <g id="Smartphone" stroke="none" stroke-width="1" fill="none" fill-rule="evenodd" sketch:type="MSPage">
        <g id="avatars_profile" sketch:type="MSLayerGroup" transform="translate(-2182.000000, -1.000000)">
            <g id="img_profile_avatar_08" transform="translate(2184.000000, 1.881356)">
                <path d="M247.088295,123.59885 C247.088295,56.120743 192.375064,1.41839894 124.884965,1.41839894 C57.3934279,1.41839894 2.68019666,56.120743 2.68019666,123.59885 C2.68019666,191.07552 57.3934279,245.776426 124.884965,245.776426 C192.375064,245.776426 247.088295,191.07552 247.088295,123.59885" id="Fill-106" fill="#B5332B" sketch:type="MSShapeGroup"></path>
                <path d="M247.088295,123.59885 C247.088295,56.120743 192.375064,1.41839894 124.884965,1.41839894 L124.884965,245.776426 C192.375064,245.776426 247.088295,191.07552 247.088295,123.59885" id="Fill-107" fill="#A22F26" sketch:type="MSShapeGroup"></path>
                <g id="Group-129" transform="translate(2.051920, 0.331712)">
                    <mask id="mask-2" sketch:name="Clip 109" fill="white">
                        <use xlink:href="#path-1"></use>
                    </mask>
                    <g id="Clip-109"></g>
                    <path d="M122.833044,213.401813 L79.1124914,213.401813 C79.1124914,213.401813 58.9343277,193.898939 69.0241284,164.980982 C79.1124914,136.067337 87.856602,124.636997 88.5294471,93.7037815 L122.833044,93.7037815 L122.833044,213.401813" id="Fill-108" fill="#472B1B" sketch:type="MSShapeGroup" mask="url(#mask-2)"></path>
                    <path d="M121.70301,213.401813 L165.423563,213.401813 C165.423563,213.401813 185.601726,193.898939 175.511926,164.980982 C165.423563,136.067337 156.679452,124.636997 156.006607,93.7037815 L121.70301,93.7037815 L121.70301,213.401813" id="Fill-110" fill="#472B1B" sketch:type="MSShapeGroup" mask="url(#mask-2)"></path>
                    <path d="M140.726698,194.841884 L122.605887,245.660327 L104.937953,194.841884 L104.937953,155.607585 L140.726698,155.607585 L140.726698,194.841884" id="Fill-111" fill="#E9C7AC" sketch:type="MSShapeGroup" mask="url(#mask-2)"></path>
                    <path d="M140.726698,188.166519 L104.937953,162.113335 L104.937953,155.607585 L140.726698,155.607585 L140.726698,188.166519" id="Fill-112" fill="#CE9C88" sketch:type="MSShapeGroup" mask="url(#mask-2)"></path>
                    <path d="M122.605887,245.660327 L122.605887,196.789584 C122.605887,196.789584 109.253938,193.482088 106.312397,182.669836 C104.897698,177.473574 104.937953,173.302189 104.937953,173.302189 C104.937953,173.302189 71.4337189,183.161433 64.9151728,193.342658 C59.4935942,209.481977 58.0055714,245.660327 58.0055714,245.660327 L122.605887,245.660327" id="Fill-113" fill="#E9C7AC" sketch:type="MSShapeGroup" mask="url(#mask-2)"></path>
                    <path d="M122.605887,245.660327 L122.605887,201.101835 C122.605887,201.101835 135.956399,193.482088 138.900815,182.669836 C140.314077,177.473574 140.273821,173.302189 140.273821,173.302189 C140.273821,173.302189 173.779493,183.161433 180.296602,193.342658 C185.719618,209.481977 187.207641,245.660327 187.207641,245.660327 L122.605887,245.660327" id="Fill-114" fill="#CE9C88" sketch:type="MSShapeGroup" mask="url(#mask-2)"></path>
                    <path d="M122.605887,245.660327 L122.605887,201.101835 C122.605887,201.101835 109.253938,193.482088 106.312397,182.669836 C104.897698,177.473574 104.937953,173.302189 104.937953,173.302189 C104.937953,173.302189 71.4337189,183.161433 64.9151728,193.342658 C59.4935942,209.481977 58.0055714,245.660327 58.0055714,245.660327 L122.605887,245.660327" id="Fill-115" fill="#FFCF06" sketch:type="MSShapeGroup" mask="url(#mask-2)"></path>
                    <path d="M122.605887,245.660327 L122.605887,201.101835 C122.605887,201.101835 135.956399,193.482088 138.900815,182.669836 C140.314077,177.473574 140.764078,173.448806 140.764078,173.448806 C140.764078,173.448806 173.779493,183.161433 180.296602,193.342658 C185.719618,209.481977 187.207641,245.660327 187.207641,245.660327 L122.605887,245.660327" id="Fill-116" fill="#E5BB09" sketch:type="MSShapeGroup" mask="url(#mask-2)"></path>
                    <path d="M176.318477,80.6045997 C176.318477,51.0699912 152.370656,27.1283724 122.833044,27.1283724 C93.2939953,27.1283724 69.3461739,51.0699912 69.3461739,80.6045997 C69.3461739,110.136333 93.2939953,134.076515 122.833044,134.076515 C152.370656,134.076515 176.318477,110.136333 176.318477,80.6045997" id="Fill-117" fill="#472B1B" sketch:type="MSShapeGroup" mask="url(#mask-2)"></path>
                    <path d="M122.833044,50.0451128 C105.456964,50.0451128 77.9767059,59.6168731 77.9767059,104.459973 C77.9767059,130.353605 89.8305684,142.561588 93.6275425,147.253317 C97.1240365,151.569881 113.617367,165.525763 122.833044,165.525763 L122.833044,50.0451128" id="Fill-118" fill="#F1D6BB" sketch:type="MSShapeGroup" mask="url(#mask-2)"></path>
                    <path d="M69.3332346,115.152919 C68.5655011,107.988832 72.0921869,101.629699 77.2017839,100.949801 C82.3171318,100.27134 87.08168,105.529412 87.8494135,112.693498 C88.6157093,119.857585 85.0904612,126.215281 79.9779887,126.893742 C74.8640786,127.57364 70.0995304,122.317006 69.3332346,115.152919" id="Fill-119" fill="#F1D6BB" sketch:type="MSShapeGroup" mask="url(#mask-2)"></path>
                    <path d="M122.690712,50.0451128 C140.066792,50.0451128 167.545612,59.6168731 167.545612,104.459973 C167.545612,130.353605 155.69175,142.561588 151.893338,147.253317 C148.401157,151.569881 131.904951,165.525763 122.690712,165.525763 L122.690712,50.0451128" id="Fill-120" fill="#EBC7A7" sketch:type="MSShapeGroup" mask="url(#mask-2)"></path>
                    <path d="M176.331416,115.152919 C177.09915,107.988832 173.572464,101.629699 168.462867,100.949801 C163.347519,100.27134 158.582971,105.529412 157.816675,112.693498 C157.048942,119.857585 160.57419,126.215281 165.686662,126.893742 C170.800572,127.57364 175.565121,122.317006 176.331416,115.152919" id="Fill-121" fill="#EBC7A7" sketch:type="MSShapeGroup" mask="url(#mask-2)"></path>
                    <path d="M122.833044,149.731424 C129.607502,149.731424 135.096652,145.702344 135.096652,140.730318 L110.567999,140.730318 C110.567999,145.702344 116.058587,149.731424 122.833044,149.731424" id="Fill-122" fill="#FFFFFF" sketch:type="MSShapeGroup" mask="url(#mask-2)"></path>
                    <path d="M122.242148,35.9368642 C121.409718,35.8304954 120.539908,35.7571871 119.606838,35.75 C119.606838,35.75 90.2561286,37.9463733 82.0899747,76.162981 C78.1679205,79.1024989 70.9808424,90.5371517 80.4553062,103.275542 C81.7607406,92.4977886 85.7115489,84.6897391 92.5435143,81.7171605 C104.666227,76.4447147 109.65937,81.3434321 123.707168,70.5656789 C131.91214,64.2683547 134.860869,51.6118974 133.046488,44.5369306 C129.784339,35.75 121.454287,36.0777311 122.242148,35.9368642" id="Fill-123" fill="#472B1B" sketch:type="MSShapeGroup" mask="url(#mask-2)"></path>
                    <path d="M131.190413,46.5550641 C131.190413,46.5550641 120.613231,86.0150376 166.80232,102.536709 C177.868321,66.4158558 157.649902,42.8537152 131.190413,46.5550641" id="Fill-124" fill="#472B1B" sketch:type="MSShapeGroup" mask="url(#mask-2)"></path>
                    <path d="M142.016318,111.478881 C142.016318,113.462517 140.407528,115.072424 138.42206,115.072424 C136.436592,115.072424 134.827802,113.462517 134.827802,111.478881 C134.827802,109.495245 136.436592,107.885338 138.42206,107.885338 C140.407528,107.885338 142.016318,109.495245 142.016318,111.478881" id="Fill-125" fill="#482B1B" sketch:type="MSShapeGroup" mask="url(#mask-2)"></path>
                    <path d="M110.835412,111.478881 C110.835412,113.462517 109.226622,115.072424 107.241154,115.072424 C105.255686,115.072424 103.646896,113.462517 103.646896,111.478881 C103.646896,109.495245 105.255686,107.885338 107.241154,107.885338 C109.226622,107.885338 110.835412,109.495245 110.835412,111.478881" id="Fill-126" fill="#482B1B" sketch:type="MSShapeGroup" mask="url(#mask-2)"></path>
                    <path d="M81.5968425,125.786931 L78.5906052,128.79257 L75.5829302,125.786931 L78.5906052,122.781291 L81.5968425,125.786931" id="Fill-127" fill="#472B1B" sketch:type="MSShapeGroup" mask="url(#mask-2)"></path>
                    <path d="M170.080283,125.786931 L167.074046,128.79257 L164.066371,125.786931 L167.074046,122.781291 L170.080283,125.786931" id="Fill-128" fill="#472B1B" sketch:type="MSShapeGroup" mask="url(#mask-2)"></path>
                </g>
            </g>
        </g>
    </g>
</svg>