<?xml version="1.0" encoding="UTF-8" standalone="no"?>
<svg width="117px" height="117px" viewBox="0 0 117 117" version="1.1" xmlns="http://www.w3.org/2000/svg" xmlns:xlink="http://www.w3.org/1999/xlink" xmlns:sketch="http://www.bohemiancoding.com/sketch/ns">
    <!-- Generator: Sketch 3.3.2 (12043) - http://www.bohemiancoding.com/sketch -->
    <title>img_selected_avatar_08</title>
    <desc>Created with Sketch.</desc>
    <defs>
        <path id="path-1" d="M116.63663,58.6737895 C116.63663,26.5542105 90.5938163,0.516578947 58.4678448,0.516578947 C26.3425576,0.516578947 0.300428202,26.5542105 0.300428202,58.6737895 C0.300428202,90.7933684 26.3425576,116.831684 58.4678448,116.831684 C90.5938163,116.831684 116.63663,90.7933684 116.63663,58.6737895"></path>
    </defs>
    <g id="Smartphone" stroke="none" stroke-width="1" fill="none" fill-rule="evenodd" sketch:type="MSPage">
        <g id="avatar_selected" sketch:type="MSLayerGroup" transform="translate(-1108.000000, -1.000000)">
            <g id="img_selected_avatar_08" transform="translate(1107.000000, 1.000000)">
                <path d="M117.614028,58.8330526 C117.614028,26.7134737 91.5705304,0.675157895 59.4452432,0.675157895 C27.3192717,0.675157895 1.27577361,26.7134737 1.27577361,58.8330526 C1.27577361,90.9519474 27.3192717,116.989579 59.4452432,116.989579 C91.5705304,116.989579 117.614028,90.9519474 117.614028,58.8330526" id="Fill-106" fill="#B5332B" sketch:type="MSShapeGroup"></path>
                <path d="M117.614028,58.8330526 C117.614028,26.7134737 91.5705304,0.675157895 59.4452432,0.675157895 L59.4452432,116.989579 C91.5705304,116.989579 117.614028,90.9519474 117.614028,58.8330526" id="Fill-107" fill="#A22F26" sketch:type="MSShapeGroup"></path>
                <g id="Group-129" transform="translate(0.976714, 0.157895)">
                    <mask id="mask-2" sketch:name="Clip 109" fill="white">
                        <use xlink:href="#path-1"></use>
                    </mask>
                    <g id="Clip-109"></g>
                    <path d="M58.4685291,101.579263 L37.6575459,101.579263 C37.6575459,101.579263 28.05274,92.2958947 32.8554851,78.5309474 C37.6575459,64.7680526 41.8197426,59.3272105 42.1400168,44.603 L58.4685291,44.603 L58.4685291,101.579263" id="Fill-108" fill="#472B1B" sketch:type="MSShapeGroup" mask="url(#mask-2)"></path>
                    <path d="M57.9306326,101.579263 L78.7416158,101.579263 C78.7416158,101.579263 88.3464217,92.2958947 83.5436766,78.5309474 C78.7416158,64.7680526 74.5794191,59.3272105 74.2591449,44.603 L57.9306326,44.603 L57.9306326,101.579263" id="Fill-110" fill="#472B1B" sketch:type="MSShapeGroup" mask="url(#mask-2)"></path>
                    <path d="M66.9859082,92.7447368 L58.3604023,116.934316 L49.9504657,92.7447368 L49.9504657,74.0692105 L66.9859082,74.0692105 L66.9859082,92.7447368" id="Fill-111" fill="#E9C7AC" sketch:type="MSShapeGroup" mask="url(#mask-2)"></path>
                    <path d="M66.9859082,89.5672632 L49.9504657,77.1659474 L49.9504657,74.0692105 L66.9859082,74.0692105 L66.9859082,89.5672632" id="Fill-112" fill="#CE9C88" sketch:type="MSShapeGroup" mask="url(#mask-2)"></path>
                    <path d="M58.3604023,116.934316 L58.3604023,93.6718421 C58.3604023,93.6718421 52.0048745,92.0974737 50.6047012,86.9508421 C49.931304,84.4774211 49.9504657,82.4918421 49.9504657,82.4918421 C49.9504657,82.4918421 34.0024502,87.1848421 30.8996223,92.0311053 C28.3189508,99.7134211 27.610652,116.934316 27.610652,116.934316 L58.3604023,116.934316" id="Fill-113" fill="#E9C7AC" sketch:type="MSShapeGroup" mask="url(#mask-2)"></path>
                    <path d="M58.3604023,116.934316 L58.3604023,95.7244737 C58.3604023,95.7244737 64.7152458,92.0974737 66.1167878,86.9508421 C66.7895006,84.4774211 66.7703389,82.4918421 66.7703389,82.4918421 C66.7703389,82.4918421 82.7190388,87.1848421 85.8211824,92.0311053 C88.4025382,99.7134211 89.110837,116.934316 89.110837,116.934316 L58.3604023,116.934316" id="Fill-114" fill="#CE9C88" sketch:type="MSShapeGroup" mask="url(#mask-2)"></path>
                    <path d="M58.3604023,116.934316 L58.3604023,95.7244737 C58.3604023,95.7244737 52.0048745,92.0974737 50.6047012,86.9508421 C49.931304,84.4774211 49.9504657,82.4918421 49.9504657,82.4918421 C49.9504657,82.4918421 34.0024502,87.1848421 30.8996223,92.0311053 C28.3189508,99.7134211 27.610652,116.934316 27.610652,116.934316 L58.3604023,116.934316" id="Fill-115" fill="#FFCF06" sketch:type="MSShapeGroup" mask="url(#mask-2)"></path>
                    <path d="M58.3604023,116.934316 L58.3604023,95.7244737 C58.3604023,95.7244737 64.7152458,92.0974737 66.1167878,86.9508421 C66.7895006,84.4774211 67.0037012,82.5616316 67.0037012,82.5616316 C67.0037012,82.5616316 82.7190388,87.1848421 85.8211824,92.0311053 C88.4025382,99.7134211 89.110837,116.934316 89.110837,116.934316 L58.3604023,116.934316" id="Fill-116" fill="#E5BB09" sketch:type="MSShapeGroup" mask="url(#mask-2)"></path>
                    <path d="M83.9275951,38.3677895 C83.9275951,24.3093158 72.5284321,12.9131053 58.4685291,12.9131053 C44.4079418,12.9131053 33.0087788,24.3093158 33.0087788,38.3677895 C33.0087788,52.4248947 44.4079418,63.8204211 58.4685291,63.8204211 C72.5284321,63.8204211 83.9275951,52.4248947 83.9275951,38.3677895" id="Fill-117" fill="#472B1B" sketch:type="MSShapeGroup" mask="url(#mask-2)"></path>
                    <path d="M58.4685291,23.8214737 C50.1975149,23.8214737 37.116912,28.3776316 37.116912,49.7229474 C37.116912,62.0483158 42.7593506,67.8593158 44.5667102,70.0925789 C46.2310414,72.1472632 54.0818668,78.7902632 58.4685291,78.7902632 L58.4685291,23.8214737" id="Fill-118" fill="#F1D6BB" sketch:type="MSShapeGroup" mask="url(#mask-2)"></path>
                    <path d="M33.0026197,54.8127895 C32.6371785,51.4026842 34.315881,48.3757368 36.7480492,48.0521053 C39.1829547,47.7291579 41.4508797,50.232 41.8163208,53.6421053 C42.1810776,57.0522105 40.5030595,60.0784737 38.0695226,60.4014211 C35.6353014,60.7250526 33.3673765,58.2228947 33.0026197,54.8127895" id="Fill-119" fill="#F1D6BB" sketch:type="MSShapeGroup" mask="url(#mask-2)"></path>
                    <path d="M58.4007788,23.8214737 C66.671793,23.8214737 79.7517115,28.3776316 79.7517115,49.7229474 C79.7517115,62.0483158 74.109273,67.8593158 72.301229,70.0925789 C70.6389508,72.1472632 62.7867568,78.7902632 58.4007788,78.7902632 L58.4007788,23.8214737" id="Fill-120" fill="#EBC7A7" sketch:type="MSShapeGroup" mask="url(#mask-2)"></path>
                    <path d="M83.9337542,54.8127895 C84.2991953,51.4026842 82.6204929,48.3757368 80.1883247,48.0521053 C77.7534191,47.7291579 75.4854942,50.232 75.1207374,53.6421053 C74.7552962,57.0522105 76.4333144,60.0784737 78.8668512,60.4014211 C81.3010724,60.7250526 83.5689974,58.2228947 83.9337542,54.8127895" id="Fill-121" fill="#EBC7A7" sketch:type="MSShapeGroup" mask="url(#mask-2)"></path>
                    <path d="M58.4685291,71.2721579 C61.6931708,71.2721579 64.3060065,69.3543158 64.3060065,66.9876316 L52.6303674,66.9876316 C52.6303674,69.3543158 55.2438875,71.2721579 58.4685291,71.2721579" id="Fill-122" fill="#FFFFFF" sketch:type="MSShapeGroup" mask="url(#mask-2)"></path>
                    <path d="M58.1872626,17.1059474 C57.7910259,17.0553158 57.3769961,17.0204211 56.9328551,17.017 C56.9328551,17.017 42.9619172,18.0624737 39.0748279,36.2535789 C37.2079301,37.6527895 33.786881,43.0956842 38.2967257,49.1591579 C38.9181125,44.0289474 40.7986973,40.3123158 44.0507128,38.8973684 C49.8211242,36.3876842 52.1978603,38.7194737 58.8846119,33.5892632 C62.7901785,30.5917368 64.1937736,24.5672632 63.3301281,21.1995789 C61.7773454,17.017 57.8122406,17.173 58.1872626,17.1059474" id="Fill-123" fill="#472B1B" sketch:type="MSShapeGroup" mask="url(#mask-2)"></path>
                    <path d="M62.4466365,22.1602105 C62.4466365,22.1602105 57.4118978,40.9431579 79.3979043,48.8074737 C84.6653208,31.6139474 75.0413532,20.3983684 62.4466365,22.1602105" id="Fill-124" fill="#472B1B" sketch:type="MSShapeGroup" mask="url(#mask-2)"></path>
                    <path d="M67.5997671,53.0639474 C67.5997671,54.0081579 66.8339832,54.7744737 65.8889004,54.7744737 C64.9438176,54.7744737 64.1780336,54.0081579 64.1780336,53.0639474 C64.1780336,52.1197368 64.9438176,51.3534211 65.8889004,51.3534211 C66.8339832,51.3534211 67.5997671,52.1197368 67.5997671,53.0639474" id="Fill-125" fill="#482B1B" sketch:type="MSShapeGroup" mask="url(#mask-2)"></path>
                    <path d="M52.7576559,53.0639474 C52.7576559,54.0081579 51.9918719,54.7744737 51.0467891,54.7744737 C50.1017063,54.7744737 49.3359224,54.0081579 49.3359224,53.0639474 C49.3359224,52.1197368 50.1017063,51.3534211 51.0467891,51.3534211 C51.9918719,51.3534211 52.7576559,52.1197368 52.7576559,53.0639474" id="Fill-126" fill="#482B1B" sketch:type="MSShapeGroup" mask="url(#mask-2)"></path>
                    <path d="M38.840097,59.8745789 L37.4091281,61.3052632 L35.9774748,59.8745789 L37.4091281,58.4438947 L38.840097,59.8745789" id="Fill-127" fill="#472B1B" sketch:type="MSShapeGroup" mask="url(#mask-2)"></path>
                    <path d="M80.9582147,59.8745789 L79.5272458,61.3052632 L78.0955925,59.8745789 L79.5272458,58.4438947 L80.9582147,59.8745789" id="Fill-128" fill="#472B1B" sketch:type="MSShapeGroup" mask="url(#mask-2)"></path>
                </g>
            </g>
        </g>
    </g>
</svg>