<?xml version="1.0" encoding="UTF-8" standalone="no"?>
<svg width="117px" height="117px" viewBox="0 0 117 117" version="1.1" xmlns="http://www.w3.org/2000/svg" xmlns:xlink="http://www.w3.org/1999/xlink" xmlns:sketch="http://www.bohemiancoding.com/sketch/ns">
    <!-- Generator: Sketch 3.3.2 (12043) - http://www.bohemiancoding.com/sketch -->
    <title>img_selected_avatar_01</title>
    <desc>Created with Sketch.</desc>
    <defs>
        <path id="path-1" d="M116.869308,58.4746842 C116.869308,26.3557895 90.8271785,0.318157895 58.7005226,0.318157895 C26.5759198,0.318157895 0.53310608,26.3557895 0.53310608,58.4746842 C0.53310608,90.5949474 26.5759198,116.632579 58.7005226,116.632579 C90.8271785,116.632579 116.869308,90.5949474 116.869308,58.4746842"></path>
    </defs>
    <g id="Smartphone" stroke="none" stroke-width="1" fill="none" fill-rule="evenodd" sketch:type="MSPage">
        <g id="avatar_selected" sketch:type="MSLayerGroup" transform="translate(0.000000, -1.000000)">
            <g id="img_selected_avatar_01" transform="translate(0.000000, 1.000000)">
                <path d="M116.869992,58.4760526 C116.869992,26.3564737 90.8271785,0.318842105 58.701207,0.318842105 C26.5759198,0.318842105 0.532421734,26.3564737 0.532421734,58.4760526 C0.532421734,90.5956316 26.5759198,116.632579 58.701207,116.632579 C90.8271785,116.632579 116.869992,90.5956316 116.869992,58.4760526" id="Fill-1" fill="#B5332B" sketch:type="MSShapeGroup"></path>
                <path d="M116.869992,58.4760526 C116.869992,26.3564737 90.8271785,0.318842105 58.701207,0.318842105 L58.701207,116.632579 C90.8271785,116.632579 116.869992,90.5956316 116.869992,58.4760526" id="Fill-2" fill="#A22F26" sketch:type="MSShapeGroup"></path>
                <g id="Group-24">
                    <mask id="mask-2" sketch:name="Clip 4" fill="white">
                        <use xlink:href="#path-1"></use>
                    </mask>
                    <g id="Clip-4"></g>
                    <path d="M58.701207,101.380158 L37.8909082,101.380158 C37.8909082,101.380158 28.2861022,92.0967895 33.0888473,78.3325263 C37.8909082,64.5689474 36.1656701,59.1281053 36.4859444,44.4045789 L58.701207,44.4045789 L58.701207,101.380158" id="Fill-3" fill="#472B1B" sketch:type="MSShapeGroup" mask="url(#mask-2)"></path>
                    <path d="M58.1639948,101.380158 L78.9742937,101.380158 C78.9742937,101.380158 88.5790996,92.0967895 83.7770388,78.3325263 C78.9742937,64.5689474 82.6608693,59.1281053 82.3412794,44.4045789 L58.1639948,44.4045789 L58.1639948,101.380158" id="Fill-5" fill="#472B1B" sketch:type="MSShapeGroup" mask="url(#mask-2)"></path>
                    <path d="M67.2192704,92.5456316 L58.5937646,116.735895 L50.1838279,92.5456316 L50.1838279,73.8701053 L67.2192704,73.8701053 L67.2192704,92.5456316" id="Fill-6" fill="#C18148" sketch:type="MSShapeGroup" mask="url(#mask-2)"></path>
                    <path d="M67.2192704,89.3688421 L50.1838279,76.9675263 L50.1838279,73.8701053 L67.2192704,73.8701053 L67.2192704,89.3688421" id="Fill-7" fill="#915324" sketch:type="MSShapeGroup" mask="url(#mask-2)"></path>
                    <path d="M58.5937646,116.735895 L58.5937646,95.5260526 C58.5937646,95.5260526 52.2382367,91.8983684 50.8380634,86.7517368 C50.1646662,84.2783158 50.1838279,82.2934211 50.1838279,82.2934211 C50.1838279,82.2934211 34.2351281,86.9857368 31.1329845,91.832 C28.5523131,99.515 27.8433299,116.735895 27.8433299,116.735895 L58.5937646,116.735895" id="Fill-8" fill="#C18148" sketch:type="MSShapeGroup" mask="url(#mask-2)"></path>
                    <path d="M58.5937646,116.735895 L58.5937646,95.5260526 C58.5937646,95.5260526 64.9479237,91.8983684 66.3501501,86.7517368 C67.0221785,84.2783158 67.0037012,82.2934211 67.0037012,82.2934211 C67.0037012,82.2934211 82.952401,86.9857368 86.0545446,91.832 C88.635216,99.515 89.3441992,116.735895 89.3441992,116.735895 L58.5937646,116.735895" id="Fill-9" fill="#C18148" sketch:type="MSShapeGroup" mask="url(#mask-2)"></path>
                    <path d="M58.5937646,116.735895 L58.5937646,99.6313158 C58.5937646,99.6313158 52.2382367,91.8983684 50.8380634,86.7517368 C50.1646662,84.2783158 50.1838279,82.2934211 50.1838279,82.2934211 C50.1838279,82.2934211 34.2351281,86.9857368 31.1329845,91.832 C28.5523131,99.515 27.8433299,116.735895 27.8433299,116.735895 L58.5937646,116.735895" id="Fill-10" fill="#1BC9B4" sketch:type="MSShapeGroup" mask="url(#mask-2)"></path>
                    <path d="M58.5937646,116.735895 L58.5937646,99.6313158 C58.5937646,99.6313158 64.9479237,91.8983684 66.3501501,86.7517368 C67.0221785,84.2783158 67.2370634,82.3625263 67.2370634,82.3625263 C67.2370634,82.3625263 82.952401,86.9857368 86.0545446,91.832 C88.635216,99.515 89.3441992,116.735895 89.3441992,116.735895 L58.5937646,116.735895" id="Fill-11" fill="#12B2A3" sketch:type="MSShapeGroup" mask="url(#mask-2)"></path>
                    <path d="M84.160273,38.1686842 C84.160273,24.1102105 72.7617943,12.7146842 58.701207,12.7146842 C44.6406197,12.7146842 33.242141,24.1102105 33.242141,38.1686842 C33.242141,52.2257895 44.6406197,63.622 58.701207,63.622 C72.7617943,63.622 84.160273,52.2257895 84.160273,38.1686842" id="Fill-12" fill="#472B1B" sketch:type="MSShapeGroup" mask="url(#mask-2)"></path>
                    <path d="M58.701207,23.6230526 C50.4301928,23.6230526 37.3502743,28.1785263 37.3502743,49.5238421 C37.3502743,61.8492105 42.9927128,67.6602105 44.8000724,69.8941579 C46.4637193,71.9488421 54.315229,78.5918421 58.701207,78.5918421 L58.701207,23.6230526" id="Fill-13" fill="#C18148" sketch:type="MSShapeGroup" mask="url(#mask-2)"></path>
                    <path d="M33.2352975,54.6143684 C32.8705408,51.2035789 34.5485589,48.1766316 36.9814114,47.8536842 C39.4163169,47.5300526 41.6842419,50.0328947 42.0489987,53.4436842 C42.4137555,56.8531053 40.7357374,59.8793684 38.3028849,60.203 C35.8686636,60.5259474 33.6007387,58.0237895 33.2352975,54.6143684" id="Fill-14" fill="#C18148" sketch:type="MSShapeGroup" mask="url(#mask-2)"></path>
                    <path d="M58.634141,23.6230526 C66.9051552,23.6230526 79.9850737,28.1785263 79.9850737,49.5238421 C79.9850737,61.8492105 74.3426352,67.6602105 72.5345912,69.8941579 C70.8716287,71.9488421 63.020119,78.5918421 58.634141,78.5918421 L58.634141,23.6230526" id="Fill-15" fill="#AA6A35" sketch:type="MSShapeGroup" mask="url(#mask-2)"></path>
                    <path d="M84.1671164,54.6143684 C84.5318732,51.2035789 82.8538551,48.1766316 80.4216869,47.8536842 C77.9867814,47.5300526 75.7181721,50.0328947 75.3534153,53.4436842 C74.9886585,56.8531053 76.6666766,59.8793684 79.1002135,60.203 C81.5344347,60.5259474 83.8023596,58.0237895 84.1671164,54.6143684" id="Fill-16" fill="#AA6A35" sketch:type="MSShapeGroup" mask="url(#mask-2)"></path>
                    <path d="M58.701207,71.0730526 C61.9258486,71.0730526 64.5393687,69.1558947 64.5393687,66.7892105 L52.8637296,66.7892105 C52.8637296,69.1558947 55.4765653,71.0730526 58.701207,71.0730526" id="Fill-17" fill="#FFFFFF" sketch:type="MSShapeGroup" mask="url(#mask-2)"></path>
                    <path d="M59.7934243,17.277 C59.3965032,17.2263684 57.6103583,16.822 57.1662173,16.8178947 C57.1662173,16.8178947 43.1952794,17.8633684 39.3075058,36.0551579 C37.4412924,37.4543684 34.0202432,42.8972632 38.530088,48.9600526 C37.6856041,45.3125263 42.083216,35.6576316 42.3412147,35.5591053 C42.6724386,35.4332105 42.9879224,37.414 43.3020375,37.4995263 C46.3857038,38.3390526 52.0603066,38.6558421 58.634141,38.6558421 L59.7934243,17.277" id="Fill-18" fill="#472B1B" sketch:type="MSShapeGroup" mask="url(#mask-2)"></path>
                    <path d="M57.4748577,17.277 C57.8710944,17.2263684 59.6579237,16.822 60.1013803,16.8178947 C60.1013803,16.8178947 74.0723182,17.8633684 77.9600918,36.0551579 C79.8263053,37.4543684 83.2473545,42.8972632 78.738194,48.9600526 C78.1161229,43.8298421 75.1843816,35.6576316 74.9263829,35.5591053 C74.5958435,35.4332105 74.2796753,37.414 73.9655602,37.4995263 C70.8825783,38.3390526 65.2072911,38.6558421 58.634141,38.6558421 L57.4748577,17.277" id="Fill-19" fill="#472B1B" sketch:type="MSShapeGroup" mask="url(#mask-2)"></path>
                    <path d="M67.8331294,52.8648421 C67.8331294,53.8097368 67.0673454,54.5753684 66.1222626,54.5753684 C65.1771798,54.5753684 64.4113959,53.8097368 64.4113959,52.8648421 C64.4113959,51.9206316 65.1771798,51.1543158 66.1222626,51.1543158 C67.0673454,51.1543158 67.8331294,51.9206316 67.8331294,52.8648421" id="Fill-20" fill="#482B1B" sketch:type="MSShapeGroup" mask="url(#mask-2)"></path>
                    <path d="M52.9910181,52.8648421 C52.9910181,53.8097368 52.2245498,54.5753684 51.2801514,54.5753684 C50.3350686,54.5753684 49.5692846,53.8097368 49.5692846,52.8648421 C49.5692846,51.9206316 50.3350686,51.1543158 51.2801514,51.1543158 C52.2245498,51.1543158 52.9910181,51.9206316 52.9910181,52.8648421" id="Fill-21" fill="#482B1B" sketch:type="MSShapeGroup" mask="url(#mask-2)"></path>
                    <path d="M39.0734592,59.6754737 L37.6424903,61.1068421 L36.210837,59.6754737 L37.6424903,58.2447895 L39.0734592,59.6754737" id="Fill-22" fill="#FF8B00" sketch:type="MSShapeGroup" mask="url(#mask-2)"></path>
                    <path d="M81.191577,59.6754737 L79.760608,61.1068421 L78.3289547,59.6754737 L79.760608,58.2447895 L81.191577,59.6754737" id="Fill-23" fill="#FF8B00" sketch:type="MSShapeGroup" mask="url(#mask-2)"></path>
                </g>
            </g>
        </g>
    </g>
</svg>