<?xml version="1.0" encoding="UTF-8" standalone="no"?>
<svg width="118px" height="118px" viewBox="0 0 118 118" version="1.1" xmlns="http://www.w3.org/2000/svg" xmlns:xlink="http://www.w3.org/1999/xlink" xmlns:sketch="http://www.bohemiancoding.com/sketch/ns">
    <!-- Generator: Sketch 3.3.2 (12043) - http://www.bohemiancoding.com/sketch -->
    <title>img_selected_avatar_02</title>
    <desc>Created with Sketch.</desc>
    <defs>
        <path id="path-1" d="M117.859726,59.171715 C117.859726,26.7792462 91.5969004,0.521646744 59.1979847,0.521646744 C26.8011395,0.521646744 0.537623928,26.7792462 0.537623928,59.171715 C0.537623928,91.5628037 26.8011395,117.821783 59.1979847,117.821783 C91.5969004,117.821783 117.859726,91.5628037 117.859726,59.171715"></path>
    </defs>
    <g id="Smartphone" stroke="none" stroke-width="1" fill="none" fill-rule="evenodd" sketch:type="MSPage">
        <g id="avatar_selected" sketch:type="MSLayerGroup" transform="translate(-158.000000, 0.000000)">
            <g id="img_selected_avatar_02" transform="translate(158.000000, 0.000000)">
                <path d="M117.860416,59.3316378 C117.860416,26.9398591 91.5969004,0.681569581 59.1986748,0.681569581 C26.8011395,0.681569581 0.536933782,26.9398591 0.536933782,59.3316378 C0.536933782,91.7234166 26.8011395,117.981016 59.1986748,117.981016 C91.5969004,117.981016 117.860416,91.7234166 117.860416,59.3316378" id="Fill-65" fill="#FF8B00" sketch:type="MSShapeGroup"></path>
                <path d="M117.860416,59.3316378 C117.860416,26.9398591 91.5969004,0.681569581 59.1986748,0.681569581 L59.1986748,117.981016 C91.5969004,117.981016 117.860416,91.7234166 117.860416,59.3316378" id="Fill-66" fill="#E57700" sketch:type="MSShapeGroup"></path>
                <g id="Group-85" transform="translate(0.000000, 0.159233)">
                    <mask id="mask-2" sketch:name="Clip 68" fill="white">
                        <use xlink:href="#path-1"></use>
                    </mask>
                    <g id="Clip-68"></g>
                    <path d="M67.7889252,93.5307092 L59.0903219,117.925285 L50.6091146,93.5307092 L50.6091146,74.6969157 L67.7889252,74.6969157 L67.7889252,93.5307092" id="Fill-67" fill="#C18148" sketch:type="MSShapeGroup" mask="url(#mask-2)"></path>
                    <path d="M67.7889252,90.3269978 L50.6091146,77.8205861 L50.6091146,74.6969157 L67.7889252,74.6969157 L67.7889252,90.3269978" id="Fill-69" fill="#915324" sketch:type="MSShapeGroup" mask="url(#mask-2)"></path>
                    <path d="M59.0903219,117.925285 L59.0903219,94.4656713 C59.0903219,94.4656713 52.6809337,92.8779607 51.2688944,87.6884037 C50.5897905,85.1940214 50.6091146,83.1909255 50.6091146,83.1909255 C50.6091146,83.1909255 34.5252563,87.9236967 31.3968233,92.8110299 C28.7942818,100.55845 28.0799805,117.925285 28.0799805,117.925285 L59.0903219,117.925285" id="Fill-70" fill="#7A2CB7" sketch:type="MSShapeGroup" mask="url(#mask-2)"></path>
                    <path d="M59.0903219,117.925285 L59.0903219,94.4656713 C59.0903219,94.4656713 65.4983298,92.8779607 66.9124395,87.6884037 C67.5908532,85.1940214 67.7889252,83.2564764 67.7889252,83.2564764 C67.7889252,83.2564764 83.6553875,87.9236967 86.7838204,92.8110299 C89.3870521,100.55845 90.1013535,117.925285 90.1013535,117.925285 L59.0903219,117.925285" id="Fill-71" fill="#7027A0" sketch:type="MSShapeGroup" mask="url(#mask-2)"></path>
                    <path d="M48.9534538,83.7098122 C48.9914118,84.5681833 49.1418637,86.4139572 49.7298683,88.5729951 C51.4193463,94.7844554 59.0903219,96.68543 59.0903219,96.68543 C59.0903219,96.68543 66.759227,94.7844554 68.4521558,88.5729951 C69.0387801,86.4146472 69.3238105,84.6095839 69.4376846,83.773293 C68.4169583,83.4413988 67.7889252,83.2564764 67.7889252,83.2564764 C67.7889252,83.2564764 67.5908532,85.1940214 66.9124395,87.6884037 C65.4983298,92.8779607 59.0903219,94.4656713 59.0903219,94.4656713 C59.0903219,94.4656713 52.6809337,92.8779607 51.2688944,87.6884037 C50.5897905,85.1940214 50.6091146,83.1909255 50.6091146,83.1909255 C50.6091146,83.1909255 49.9790111,83.3772279 48.9534538,83.7098122" id="Fill-72" fill="#142833" sketch:type="MSShapeGroup" mask="url(#mask-2)"></path>
                    <path d="M92.104848,39.4395299 C92.104848,21.268835 77.3716059,6.53990455 59.1986748,6.53990455 C41.0257438,6.53990455 26.2931918,21.268835 26.2931918,39.4395299 C26.2931918,57.6088448 41.0257438,72.3377752 59.1986748,72.3377752 C77.3716059,72.3377752 92.104848,57.6088448 92.104848,39.4395299" id="Fill-73" fill="#472B1B" sketch:type="MSShapeGroup" mask="url(#mask-2)"></path>
                    <path d="M59.1986748,24.0240406 C50.8575673,24.0240406 37.666802,28.61743 37.666802,50.1450183 C37.666802,62.574149 41.2866191,69.1237136 43.1092953,71.3772828 C44.787731,73.4486896 54.7755275,79.4579773 59.1986748,79.4579773 L59.1986748,24.0240406" id="Fill-74" fill="#C18148" sketch:type="MSShapeGroup" mask="url(#mask-2)"></path>
                    <path d="M33.5169526,55.2773046 C33.1491047,51.8383002 34.8413433,48.7857007 37.2948132,48.4593265 C39.7503535,48.1336423 42.0374982,50.6576949 42.4053462,54.0966994 C42.7738843,57.5357038 41.0809555,60.5869233 38.6274856,60.9139875 C36.1726354,61.2403617 33.8854907,58.7163091 33.5169526,55.2773046" id="Fill-75" fill="#C18148" sketch:type="MSShapeGroup" mask="url(#mask-2)"></path>
                    <path d="M59.1310405,24.0240406 C67.4721481,24.0240406 80.6629133,28.61743 80.6629133,50.1450183 C80.6629133,62.574149 77.0430963,69.1237136 75.2197299,71.3772828 C73.5433646,73.4486896 63.5541878,79.4579773 59.1310405,79.4579773 L59.1310405,24.0240406" id="Fill-76" fill="#AA6A35" sketch:type="MSShapeGroup" mask="url(#mask-2)"></path>
                    <path d="M84.8803971,55.2773046 C85.248245,51.8383002 83.5560064,48.7857007 81.1032267,48.4593265 C78.6476863,48.1336423 76.3605416,50.6576949 75.9920035,54.0966994 C75.6241556,57.5357038 77.3163942,60.5869233 79.7705542,60.9139875 C82.2254045,61.2403617 84.5125491,58.7163091 84.8803971,55.2773046" id="Fill-77" fill="#AA6A35" sketch:type="MSShapeGroup" mask="url(#mask-2)"></path>
                    <path d="M46.8885362,65.0554211 C44.2211209,64.5731048 39.6854798,62.9419237 38.7365287,59.8368836 L38.7365287,60.6165937 C38.7420499,60.7338952 38.7406696,60.8505067 38.7441203,60.9671182 C38.9566853,61.9510709 38.9145864,62.9205335 39.1651095,63.7664844 C39.4618724,64.7669973 40.0581588,65.6170883 40.3825275,66.4319888 C41.3459717,68.8518501 42.3729093,70.467851 43.1092953,71.3772828 C44.7332095,73.3824487 54.1440437,79.0764023 58.7569812,79.439347 C58.9136444,79.4476271 59.0613357,79.4538372 59.1986748,79.4552172 L59.1986748,64.7104166 C56.2917788,64.7104166 51.417966,65.8744616 46.8885362,65.0554211" id="Fill-78" fill="#472B1B" sketch:type="MSShapeGroup" mask="url(#mask-2)"></path>
                    <path d="M75.2880544,71.3772828 C76.0244404,70.467851 77.0520682,68.8511601 78.0162025,66.4312988 C78.3612756,65.5646476 78.9051108,64.6214054 79.2177471,63.5443015 C79.4503264,62.7418211 79.8540619,61.8192792 79.6615111,60.9326178 L79.6615111,59.8368836 C78.71256,62.9419237 74.1762287,64.5731048 71.5088135,65.0554211 C66.9800738,65.8744616 62.1055708,64.7104166 59.1986748,64.7104166 L59.1986748,79.4579773 C63.6225123,79.4579773 73.610999,73.4493796 75.2880544,71.3772828" id="Fill-79" fill="#472B1B" sketch:type="MSShapeGroup" mask="url(#mask-2)"></path>
                    <path d="M59.1986748,71.8768492 C61.4837491,71.8768492 63.3354115,70.5175317 63.3354115,68.84081 L55.0619382,68.84081 C55.0619382,70.5175317 56.9142908,71.8768492 59.1986748,71.8768492" id="Fill-80" fill="#FFFFFF" sketch:type="MSShapeGroup" mask="url(#mask-2)"></path>
                    <path d="M68.4079864,53.5136418 C68.4079864,54.4658541 67.6357127,55.2386641 66.6826208,55.2386641 C65.7295288,55.2386641 64.9572551,54.4658541 64.9572551,53.5136418 C64.9572551,52.5614295 65.7295288,51.7886195 66.6826208,51.7886195 C67.6357127,51.7886195 68.4079864,52.5614295 68.4079864,53.5136418" id="Fill-81" fill="#482B1B" sketch:type="MSShapeGroup" mask="url(#mask-2)"></path>
                    <path d="M53.4400945,53.5136418 C53.4400945,54.4658541 52.6671307,55.2386641 51.7147289,55.2386641 C50.7616369,55.2386641 49.9893633,54.4658541 49.9893633,53.5136418 C49.9893633,52.5614295 50.7616369,51.7886195 51.7147289,51.7886195 C52.6671307,51.7886195 53.4400945,52.5614295 53.4400945,53.5136418" id="Fill-82" fill="#482B1B" sketch:type="MSShapeGroup" mask="url(#mask-2)"></path>
                    <path d="M81.1970865,47.7748376 C81.1970865,47.7748376 79.2991844,49.8448644 79.1266478,52.4323979 L77.2287456,52.4323979 C77.2287456,52.4323979 78.0638226,41.9442623 74.7952899,39.5444112 C71.5260671,37.1438702 68.6881858,39.5871918 59.1310405,39.5871918 L57.750748,22.1575665 L75.6759165,24.7450999 L82.0597694,42.1685152 L81.1970865,47.7748376" id="Fill-83" fill="#482B1B" sketch:type="MSShapeGroup" mask="url(#mask-2)"></path>
                    <path d="M37.0643043,47.7748376 C37.0643043,47.7748376 38.9622065,49.8448644 39.1347431,52.4323979 L41.0326453,52.4323979 C41.0326453,52.4323979 39.8117765,41.7993604 43.0803092,39.3995094 C46.349532,36.9989683 49.5732051,39.5871918 59.1310405,39.5871918 L59.1310405,22.1575665 L42.5854743,24.7450999 L36.2016215,42.1685152 L37.0643043,47.7748376" id="Fill-84" fill="#482B1B" sketch:type="MSShapeGroup" mask="url(#mask-2)"></path>
                </g>
            </g>
        </g>
    </g>
</svg>