<?xml version="1.0" encoding="UTF-8" standalone="no"?>
<svg width="117px" height="117px" viewBox="0 0 117 117" version="1.1" xmlns="http://www.w3.org/2000/svg" xmlns:xlink="http://www.w3.org/1999/xlink" xmlns:sketch="http://www.bohemiancoding.com/sketch/ns">
    <!-- Generator: Sketch 3.3.2 (12043) - http://www.bohemiancoding.com/sketch -->
    <title>img_selected_avatar_10</title>
    <desc>Created with Sketch.</desc>
    <defs>
        <path id="path-1" d="M116.63663,58.1886842 C116.63663,26.0691053 90.5938163,0.0314736842 58.4671604,0.0314736842 C26.3425576,0.0314736842 0.300428202,26.0691053 0.300428202,58.1886842 C0.300428202,90.3089474 26.3425576,116.345895 58.4671604,116.345895 C90.5938163,116.345895 116.63663,90.3089474 116.63663,58.1886842"></path>
    </defs>
    <g id="Smartphone" stroke="none" stroke-width="1" fill="none" fill-rule="evenodd" sketch:type="MSPage">
        <g id="avatar_selected" sketch:type="MSLayerGroup" transform="translate(-1425.000000, -1.000000)">
            <g id="img_selected_avatar_10" transform="translate(1424.000000, 1.000000)">
                <path d="M117.613344,58.1893684 C117.613344,26.0704737 91.5705304,0.0321578947 59.4452432,0.0321578947 C27.3192717,0.0321578947 1.27577361,26.0704737 1.27577361,58.1893684 C1.27577361,90.3089474 27.3192717,116.345895 59.4452432,116.345895 C91.5705304,116.345895 117.613344,90.3089474 117.613344,58.1893684" id="Fill-204" fill="#7A2CB7" sketch:type="MSShapeGroup"></path>
                <path d="M117.613344,58.1893684 C117.613344,26.0704737 91.5705304,0.0321578947 59.4452432,0.0321578947 L59.4452432,116.345895 C91.5705304,116.345895 117.613344,90.3089474 117.613344,58.1893684" id="Fill-205" fill="#7027A0" sketch:type="MSShapeGroup"></path>
                <g id="Group-229" transform="translate(0.976714, 0.000000)">
                    <mask id="mask-2" sketch:name="Clip 207" fill="white">
                        <use xlink:href="#path-1"></use>
                    </mask>
                    <g id="Clip-207"></g>
                    <path d="M66.9859082,92.2596316 L58.3604023,116.449211 L49.9504657,92.2596316 L49.9504657,73.5841053 L66.9859082,73.5841053 L66.9859082,92.2596316" id="Fill-206" fill="#C18148" sketch:type="MSShapeGroup" mask="url(#mask-2)"></path>
                    <path d="M66.9859082,89.0821579 L49.9504657,76.6808421 L49.9504657,73.5841053 L66.9859082,73.5841053 L66.9859082,89.0821579" id="Fill-208" fill="#915324" sketch:type="MSShapeGroup" mask="url(#mask-2)"></path>
                    <path d="M58.3604023,116.449211 L58.3604023,93.1874211 C58.3604023,93.1874211 52.0048745,91.6116842 50.6047012,86.4650526 C49.931304,83.9916316 49.9504657,82.0074211 49.9504657,82.0074211 C49.9504657,82.0074211 34.0024502,86.6990526 30.8996223,91.546 C28.3189508,99.229 27.610652,116.449211 27.610652,116.449211 L58.3604023,116.449211" id="Fill-209" fill="#C18148" sketch:type="MSShapeGroup" mask="url(#mask-2)"></path>
                    <path d="M58.3604023,116.449211 L58.3604023,93.1874211 C58.3604023,93.1874211 64.9903532,91.6116842 66.3925796,86.4650526 C67.064608,83.9916316 67.0037012,82.0765263 67.0037012,82.0765263 C67.0037012,82.0765263 82.7190388,86.6990526 85.8211824,91.546 C88.4025382,99.229 89.110837,116.449211 89.110837,116.449211 L58.3604023,116.449211" id="Fill-210" fill="#C18148" sketch:type="MSShapeGroup" mask="url(#mask-2)"></path>
                    <path d="M65.6938616,88.1345263 L68.7460479,90.3541053 L71.0283441,83.3970526 C68.6741915,82.5691579 67.0037012,82.0765263 67.0037012,82.0765263 C67.0037012,82.0765263 65.5001915,82.8161579 64.8274787,85.2895789 C64.6625511,85.8957895 65.6938616,88.1345263 65.6938616,88.1345263" id="Fill-211" fill="#915324" sketch:type="MSShapeGroup" mask="url(#mask-2)"></path>
                    <path d="M47.8440466,88.0524211 C47.2589301,85.9012632 47.0597853,84.0278947 46.9920349,82.9571053 C42.2282975,84.5697895 33.1593351,88.0161579 30.8996223,91.546 C28.3189508,99.229 27.610652,116.449211 27.610652,116.449211 L58.3604023,116.449211 L58.3604023,97.1667895 C58.3604023,97.1667895 49.7431087,95.0306842 47.8440466,88.0524211" id="Fill-212" fill="#6C9525" sketch:type="MSShapeGroup" mask="url(#mask-2)"></path>
                    <path d="M85.8211824,91.546 C83.5847374,88.0517368 74.7929353,84.6737895 70.0599935,83.0617895 C70.0066145,84.1106842 69.8286843,85.9279474 69.2510957,88.0524211 C67.3499806,95.0306842 58.3604023,97.1667895 58.3604023,97.1667895 L58.3604023,116.449211 L89.110837,116.449211 C89.110837,116.449211 88.4025382,99.229 85.8211824,91.546" id="Fill-213" fill="#678D23" sketch:type="MSShapeGroup" mask="url(#mask-2)"></path>
                    <path d="M60.5366248,100.542684 C61.9203739,100.999053 70.3084114,96.6816842 72.2416908,92.9595789 C74.3665873,88.8686842 74.1366468,84.5547368 74.1373312,84.5499474 C72.6386119,83.9635789 71.225436,83.4586316 70.0599935,83.0617895 C70.0066145,84.1106842 69.8286843,85.9279474 69.2510957,88.0524211 C67.3499806,95.0306842 58.3604023,97.1667895 58.3604023,97.1667895 C58.3604023,97.1667895 59.5853829,100.229316 60.5366248,100.542684" id="Fill-214" fill="#E2E2E2" sketch:type="MSShapeGroup" mask="url(#mask-2)"></path>
                    <path d="M42.5834735,84.5622632 C42.5779987,84.6963684 42.3877503,88.9316316 44.4791138,92.9595789 C46.4123933,96.6816842 54.8011151,100.999053 56.1848642,100.542684 C57.1354217,100.229316 58.3604023,97.1667895 58.3604023,97.1667895 C58.3604023,97.1667895 49.7431087,95.0306842 47.8440466,88.0524211 C47.2589301,85.9012632 47.0597853,84.0278947 46.9920349,82.9571053 C46.6334373,83.0795789 46.2159858,83.2232632 45.7711604,83.3792632 C44.7980194,83.7220526 43.7146986,84.1195789 42.5834735,84.5622632" id="Fill-215" fill="#E2E2E2" sketch:type="MSShapeGroup" mask="url(#mask-2)"></path>
                    <path d="M65.8957439,13.4577368 C65.8957439,9.01994737 62.2974489,5.42236842 57.8587762,5.42236842 C53.4201035,5.42236842 49.8211242,9.01994737 49.8211242,13.4577368 C49.8211242,17.8962105 53.4201035,21.4931053 57.8587762,21.4931053 C62.2974489,21.4931053 65.8957439,17.8962105 65.8957439,13.4577368" id="Fill-216" fill="#D3D3D3" sketch:type="MSShapeGroup" mask="url(#mask-2)"></path>
                    <path d="M83.9275951,37.882 C83.9275951,23.8242105 72.5284321,12.428 58.4685291,12.428 C44.4079418,12.428 33.0087788,23.8242105 33.0087788,37.882 C33.0087788,51.9397895 44.4079418,63.336 58.4685291,63.336 C72.5284321,63.336 83.9275951,51.9397895 83.9275951,37.882" id="Fill-217" fill="#D3D3D3" sketch:type="MSShapeGroup" mask="url(#mask-2)"></path>
                    <path d="M58.4685291,23.3363684 C50.1975149,23.3363684 37.116912,27.8918421 37.116912,49.2378421 C37.116912,61.5625263 42.7593506,67.3742105 44.5667102,69.6074737 C46.2310414,71.6628421 54.0818668,78.3051579 58.4685291,78.3051579 L58.4685291,23.3363684" id="Fill-218" fill="#C18148" sketch:type="MSShapeGroup" mask="url(#mask-2)"></path>
                    <path d="M33.0026197,54.3276842 C32.6371785,50.9168947 34.315881,47.8906316 36.7480492,47.567 C39.1829547,47.2433684 41.4508797,49.7462105 41.8163208,53.157 C42.1810776,56.5671053 40.5030595,59.5926842 38.0695226,59.9163158 C35.6353014,60.2399474 33.3673765,57.7377895 33.0026197,54.3276842" id="Fill-219" fill="#C18148" sketch:type="MSShapeGroup" mask="url(#mask-2)"></path>
                    <path d="M58.4007788,23.3363684 C66.671793,23.3363684 79.7517115,27.8918421 79.7517115,49.2378421 C79.7517115,61.5625263 74.109273,67.3742105 72.301229,69.6074737 C70.6389508,71.6628421 62.7867568,78.3051579 58.4007788,78.3051579 L58.4007788,23.3363684" id="Fill-220" fill="#AA6A35" sketch:type="MSShapeGroup" mask="url(#mask-2)"></path>
                    <path d="M83.9337542,54.3276842 C84.2991953,50.9168947 82.6204929,47.8906316 80.1883247,47.567 C77.7534191,47.2433684 75.4854942,49.7462105 75.1207374,53.157 C74.7552962,56.5671053 76.4333144,59.5926842 78.8668512,59.9163158 C81.3010724,60.2399474 83.5689974,57.7377895 83.9337542,54.3276842" id="Fill-221" fill="#AA6A35" sketch:type="MSShapeGroup" mask="url(#mask-2)"></path>
                    <path d="M58.4685291,70.7870526 C61.6924864,70.7870526 64.3060065,68.8698947 64.3060065,66.5032105 L52.6303674,66.5032105 C52.6303674,68.8698947 55.2438875,70.7870526 58.4685291,70.7870526" id="Fill-222" fill="#FFFFFF" sketch:type="MSShapeGroup" mask="url(#mask-2)"></path>
                    <path d="M67.5997671,52.5788421 C67.5997671,53.5230526 66.8339832,54.2893684 65.8889004,54.2893684 C64.9438176,54.2893684 64.1780336,53.5230526 64.1780336,52.5788421 C64.1780336,51.6346316 64.9438176,50.8683158 65.8889004,50.8683158 C66.8339832,50.8683158 67.5997671,51.6346316 67.5997671,52.5788421" id="Fill-223" fill="#482B1B" sketch:type="MSShapeGroup" mask="url(#mask-2)"></path>
                    <path d="M52.7576559,52.5788421 C52.7576559,53.5230526 51.9918719,54.2893684 51.0467891,54.2893684 C50.1017063,54.2893684 49.3359224,53.5230526 49.3359224,52.5788421 C49.3359224,51.6346316 50.1017063,50.8683158 51.0467891,50.8683158 C51.9918719,50.8683158 52.7576559,51.6346316 52.7576559,52.5788421" id="Fill-224" fill="#482B1B" sketch:type="MSShapeGroup" mask="url(#mask-2)"></path>
                    <path d="M58.1872626,16.6208421 C57.7910259,16.5702105 57.3769961,16.5353158 56.9328551,16.5312105 C56.9328551,16.5312105 42.9619172,17.5773684 39.0748279,35.7691579 C37.2079301,37.1683684 34.5417154,49.0277895 40.342238,51.6325789 C38.37611,47.3076842 40.7815886,38.0831579 43.7448098,36.1345263 C47.6907529,33.5406842 50.4561979,32.3494737 58.2666468,32.3494737 C63.189837,32.3494737 64.1937736,24.0821579 63.3301281,20.7144737 C61.7773454,16.5312105 57.8115563,16.6878947 58.1872626,16.6208421" id="Fill-225" fill="#D3D3D3" sketch:type="MSShapeGroup" mask="url(#mask-2)"></path>
                    <path d="M59.0337995,16.6208421 C59.4300362,16.5702105 59.844066,16.5353158 60.288207,16.5312105 C60.288207,16.5312105 74.2591449,17.5773684 78.1462342,35.7691579 C80.013132,37.1683684 83.4341811,42.6105789 78.9243364,48.6740526 C78.3029495,43.5431579 76.4394735,38.0831579 73.4762523,36.1345263 C69.5309935,33.5406842 66.0764114,32.3494737 58.2666468,32.3494737 C53.3427723,32.3494737 53.0272885,24.0821579 53.890934,20.7144737 C55.444401,16.5312105 59.4095058,16.6878947 59.0337995,16.6208421" id="Fill-226" fill="#D3D3D3" sketch:type="MSShapeGroup" mask="url(#mask-2)"></path>
                    <path d="M80.6701048,59.3299474 C80.6701048,59.9601053 80.1595821,60.4705263 79.5292988,60.4705263 C78.8990155,60.4705263 78.3884929,59.9601053 78.3884929,59.3299474 C78.3884929,58.6997895 78.8990155,58.1893684 79.5292988,58.1893684 C80.1595821,58.1893684 80.6701048,58.6997895 80.6701048,59.3299474" id="Fill-227" fill="#F9E103" sketch:type="MSShapeGroup" mask="url(#mask-2)"></path>
                    <path d="M38.4342794,59.3299474 C38.4342794,59.9601053 37.9237568,60.4705263 37.2934735,60.4705263 C36.6631902,60.4705263 36.1526675,59.9601053 36.1526675,59.3299474 C36.1526675,58.6997895 36.6631902,58.1893684 37.2934735,58.1893684 C37.9237568,58.1893684 38.4342794,58.6997895 38.4342794,59.3299474" id="Fill-228" fill="#F9E103" sketch:type="MSShapeGroup" mask="url(#mask-2)"></path>
                </g>
            </g>
        </g>
    </g>
</svg>