<?xml version="1.0" encoding="UTF-8" standalone="no"?>
<svg width="213px" height="331px" viewBox="0 0 213 331" version="1.1" xmlns="http://www.w3.org/2000/svg" xmlns:xlink="http://www.w3.org/1999/xlink" xmlns:sketch="http://www.bohemiancoding.com/sketch/ns">
    <!-- Generator: Sketch 3.3.2 (12043) - http://www.bohemiancoding.com/sketch -->
    <title>logo_gds_bgwhite</title>
    <desc>Created with Sketch.</desc>
    <defs></defs>
    <g id="GdS-md" stroke="none" stroke-width="1" fill="none" fill-rule="evenodd" sketch:type="MSPage">
        <g id="17---404" sketch:type="MSArtboardGroup" transform="translate(-122.000000, -143.000000)">
            <g id="logo_gds_bgwhite" sketch:type="MSLayerGroup" transform="translate(122.000000, 143.000000)">
                <g id="Group" sketch:type="MSShapeGroup">
                    <path d="M26.3738906,36.7985225 L22.8125467,42.9749688 C12.6072216,60.677065 7.21341028,80.8525592 7.21341028,101.334345 C7.21341028,158.451254 48.1588915,207.063776 104.567747,216.904824 L106.236785,217.199582 L107.907754,216.904824 C164.315322,207.063776 205.26209,158.451254 205.26209,101.334345 C205.26209,80.8384621 199.870853,60.6591233 189.672605,42.9749688 L186.106114,36.7946778 L179.128196,38.3908525 C173.91776,39.5826971 168.608238,40.1818233 163.345041,40.1818233 C144.308741,40.1818233 126.485293,32.7154936 113.151004,19.1464068 L106.246437,12.1228538 L99.3399388,19.1464068 C86.0011458,32.7154936 68.1686896,40.1818233 49.1298162,40.1818233 C43.8698368,40.1818233 38.5654612,39.5826971 33.3537385,38.3934156 L26.3738906,36.7985225" id="Fill-4" fill="#FFFFFF"></path>
                    <path d="M178.264723,50.4630849 C172.722281,51.731182 166.96944,52.4264247 161.042875,52.4264247 C139.566074,52.4264247 120.165597,43.6272794 106.242576,29.4590665 C92.3189118,43.6189494 72.909427,52.4264247 51.4319821,52.4264247 C45.5118511,52.4264247 39.7564364,51.731182 34.2184984,50.4656481 C25.4891846,65.6123269 20.4840005,83.1516659 20.4840005,101.868112 C20.4840005,152.832925 57.5123252,195.181855 106.236785,203.687524 C154.963175,195.181855 191.9915,152.832925 191.9915,101.868112 C191.9915,83.1516659 186.994681,65.6097638 178.264723,50.4630849" id="Fill-5" fill="#1E88E5"></path>
                    <path d="M178.264723,50.4630849 C172.722281,51.731182 166.96944,52.4264247 161.042875,52.4264247 C139.566074,52.4264247 120.165597,43.6272794 106.242576,29.4590665 C104.246036,31.4935325 102.114377,33.4043285 99.9010033,35.2061925 C108.825274,67.9979385 106.743159,161.58273 105.289024,203.495291 C105.606874,203.557446 105.918291,203.632417 106.236785,203.687524 C154.963175,195.181855 191.9915,152.832925 191.9915,101.868112 C191.9915,83.1516659 186.994681,65.6097638 178.264723,50.4630849" id="Fill-6" fill="#1976D2"></path>
                    <path d="M91.8093212,77.1431031 L120.666823,77.1431031 L120.666823,163.353196 L91.8093212,163.353196 L91.8093212,77.1431031 Z" id="Fill-7" fill="#FFFFFF"></path>
                    <path d="M62.9588972,105.8845 L149.517247,105.8845 L149.517247,134.614362 L62.9588972,134.614362 L62.9588972,105.8845 Z" id="Fill-8" fill="#FFFFFF"></path>
                    <path d="M106.236785,224.31797 L102.714047,223.700902 C43.2424998,213.315194 0.0778541294,162.074206 0.0778541294,101.868112 C0.0778541294,80.2797049 5.76570953,59.0091234 16.5269518,40.3484252 L24.0517786,27.2983676 L38.7835814,30.665649 C42.9645412,31.6204062 47.2227117,32.1029111 51.4319821,32.1029111 C66.686244,32.1029111 80.9747288,26.1148531 91.6651945,15.2440769 L106.246437,0.412660174 L120.825105,15.2479216 C131.509136,26.1148531 145.790543,32.1029111 161.042875,32.1029111 C165.254076,32.1029111 169.511603,31.6204062 173.698997,30.6637267 L188.43273,27.294523 L195.960774,40.3452214 C206.712365,58.9950263 212.39636,80.2662486 212.39636,101.868112 C212.39636,162.074206 169.231714,213.315194 109.761454,223.700902 L106.236785,224.31797 L106.236785,224.31797 Z M29.5955073,39.9383282 L26.1770033,45.8680755 C16.3821817,62.8499387 11.2071341,82.2167727 11.2071341,101.868112 C11.2071341,156.685274 50.5003062,203.325485 104.636593,212.785912 L106.236785,213.062728 L107.838907,212.785912 C161.975194,203.325485 201.268367,156.685274 201.268367,101.868112 C201.268367,82.1981902 196.094606,62.8384047 186.307505,45.8680755 L182.886427,39.9344835 L176.188399,41.465299 C171.189649,42.6110077 166.092455,43.1915513 161.042875,43.1915513 C142.774178,43.1915513 125.667503,36.0186973 112.874332,23.0006785 L106.24515,16.2558633 L99.6172539,23.0006785 C86.8170056,36.0186973 69.7045392,43.1915513 51.4319821,43.1915513 C46.3843321,43.1915513 41.292286,42.6110077 36.2954664,41.4685029 L29.5955073,39.9383282 L29.5955073,39.9383282 Z" id="Fill-9" fill="#1E88E5"></path>
                </g>
                <path d="M88.7031831,287.132905 C82.2972532,287.132905 79.2468104,291.217845 79.2468104,297.802525 C79.2468104,309.813468 93.5228828,310.728007 93.5228828,320.23921 C93.5228828,324.080273 91.9366525,326.336136 88.5201566,326.336136 C85.1036606,326.336136 83.5174304,324.080273 83.5174304,320.23921 L83.5174304,317.556563 L79.0637838,317.556563 L79.0637838,319.995333 C79.0637838,326.458074 82.1142267,330.664953 88.6421743,330.664953 C95.1701219,330.664953 98.2815736,326.458074 98.2815736,319.995333 C98.2815736,307.98439 83.9444923,307.069851 83.9444923,297.497678 C83.9444923,293.717585 85.4087049,291.461722 88.8252008,291.461722 C92.2416968,291.461722 93.7059093,293.717585 93.7059093,297.558648 L93.7059093,298.960941 L98.2205647,298.960941 L98.2205647,297.802525 C98.2205647,291.339784 95.1701219,287.132905 88.7031831,287.132905 L88.7031831,287.132905 Z M118.044183,321.641503 L119.691422,330.238168 L124.450113,330.238168 L116.274926,287.55969 L109.380925,287.55969 L101.205739,330.238168 L105.598376,330.238168 L107.245615,321.641503 L118.044183,321.641503 Z M112.553386,292.924984 L117.373086,317.556563 L107.855704,317.556563 L112.553386,292.924984 Z M139.087978,278.719148 L134.817358,284.998981 L138.111837,284.998981 L143.78566,278.719148 L139.087978,278.719148 Z M147.080139,287.55969 L142.626492,287.55969 L142.626492,320.178241 C142.626492,324.019304 141.101271,326.336136 137.684775,326.336136 C134.20727,326.336136 132.682048,324.019304 132.682048,320.178241 L132.682048,287.55969 L127.984367,287.55969 L127.984367,319.934364 C127.984367,326.397105 130.973801,330.725922 137.501748,330.725922 C144.090705,330.725922 147.080139,326.397105 147.080139,319.934364 L147.080139,287.55969 Z M151.77356,287.55969 L151.77356,330.238168 L161.779013,330.238168 C168.428978,330.238168 171.479421,326.214197 171.479421,319.690487 L171.479421,298.16834 C171.479421,291.583661 168.428978,287.55969 161.779013,287.55969 L151.77356,287.55969 Z M156.532251,325.909351 L156.532251,291.888507 L161.656995,291.888507 C165.1345,291.888507 166.781739,294.022431 166.781739,297.924463 L166.781739,319.873395 C166.781739,323.775427 165.1345,325.909351 161.718004,325.909351 L156.532251,325.909351 Z M180.687498,306.460159 L180.687498,291.888507 L193.499358,291.888507 L193.499358,287.55969 L175.928808,287.55969 L175.928808,330.238168 L193.499358,330.238168 L193.499358,325.909351 L180.687498,325.909351 L180.687498,310.728007 L191.120013,310.728007 L191.120013,306.460159 L180.687498,306.460159 Z M20.6017091,287.55969 L20.6017091,330.238168 L30.6071616,330.238168 C37.2571269,330.238168 40.3075697,326.214197 40.3075697,319.690487 L40.3075697,298.16834 C40.3075697,291.583661 37.2571269,287.55969 30.6071616,287.55969 L20.6017091,287.55969 Z M25.3603999,325.909351 L25.3603999,291.888507 L30.4851438,291.888507 C33.9626486,291.888507 35.6098878,294.022431 35.6098878,297.924463 L35.6098878,319.873395 C35.6098878,323.775427 33.9626486,325.909351 30.5461527,325.909351 L25.3603999,325.909351 Z M60.3131495,321.641503 L61.9603887,330.238168 L66.7190794,330.238168 L58.5438927,287.55969 L51.649892,287.55969 L43.4747052,330.238168 L47.8673429,330.238168 L49.514582,321.641503 L60.3131495,321.641503 Z M54.8223525,292.924984 L59.6420521,317.556563 L50.1246705,317.556563 L54.8223525,292.924984 Z M19.2706216,233.985091 C12.742674,233.985091 9.69223116,238.252939 9.69223116,244.71568 L9.69223116,266.78655 C9.69223116,273.249291 12.742674,277.517139 19.2706216,277.517139 C25.8595781,277.517139 28.9100209,273.249291 28.9100209,266.78655 L28.9100209,254.226884 L20.0027279,254.226884 L20.0027279,258.494731 L24.3953655,258.494731 L24.3953655,267.030427 C24.3953655,270.87149 22.8701441,273.188322 19.3926393,273.188322 C15.9761433,273.188322 14.3899131,270.87149 14.3899131,267.030427 L14.3899131,244.471803 C14.3899131,240.63074 15.9761433,238.313908 19.3926393,238.313908 C22.8701441,238.313908 24.3953655,240.63074 24.3953655,244.471803 L24.3953655,248.373835 L28.9100209,248.373835 L28.9100209,244.71568 C28.9100209,238.252939 25.8595781,233.985091 19.2706216,233.985091 Z M37.9348586,234.411876 L33.2371767,234.411876 L33.2371767,266.78655 C33.2371767,273.249291 36.2266106,277.578108 42.7545582,277.578108 C49.3435147,277.578108 52.3329487,273.249291 52.3329487,266.78655 L52.3329487,234.411876 L47.8793022,234.411876 L47.8793022,267.030427 C47.8793022,270.87149 46.3540808,273.188322 42.9375848,273.188322 C39.46008,273.188322 37.9348586,270.87149 37.9348586,267.030427 L37.9348586,234.411876 Z M72.6444248,268.493689 L74.2916639,277.090354 L79.0503547,277.090354 L70.875168,234.411876 L63.9811672,234.411876 L55.8059805,277.090354 L60.1986181,277.090354 L61.8458572,268.493689 L72.6444248,268.493689 Z M67.1536277,239.77717 L71.9733274,264.408749 L62.4559458,264.408749 L67.1536277,239.77717 Z M82.7674219,234.411876 L82.7674219,277.090354 L87.5261127,277.090354 L87.5261127,258.860547 L90.8815998,258.860547 C94.8471755,258.860547 97.1045032,260.384778 97.1045032,265.201349 L97.1045032,271.907967 C97.1045032,274.773522 97.3485386,275.870969 97.8976183,277.090354 L102.717318,277.090354 C101.924203,275.627092 101.863194,273.858983 101.863194,271.968937 L101.863194,265.323288 C101.863194,260.750594 100.398981,257.580193 96.4944146,256.421777 C100.154946,255.263361 101.802185,252.336837 101.802185,247.642204 L101.802185,244.166957 C101.802185,237.826154 98.9957777,234.411876 92.2848035,234.411876 L82.7674219,234.411876 Z M87.5261127,254.53173 L87.5261127,238.740693 L92.1627858,238.740693 C95.7012995,238.740693 97.1045032,240.752679 97.1045032,244.593742 L97.1045032,248.678682 C97.1045032,253.312345 94.8471755,254.53173 91.0646264,254.53173 L87.5261127,254.53173 Z M106.800438,234.411876 L106.800438,277.090354 L116.805891,277.090354 C123.455856,277.090354 126.506299,273.066383 126.506299,266.542673 L126.506299,245.020526 C126.506299,238.435847 123.455856,234.411876 116.805891,234.411876 L106.800438,234.411876 Z M111.559129,272.761537 L111.559129,238.740693 L116.683873,238.740693 C120.161378,238.740693 121.808617,240.874617 121.808617,244.776649 L121.808617,266.725581 C121.808617,270.627613 120.161378,272.761537 116.744882,272.761537 L111.559129,272.761537 Z M130.955472,234.411876 L130.955472,277.090354 L135.714163,277.090354 L135.714163,234.411876 L130.955472,234.411876 Z M155.232524,226.546842 C154.561427,227.827197 153.82932,228.314951 152.79217,228.37592 C150.961904,228.37592 149.619709,226.546842 147.179355,226.546842 C145.288081,226.607812 143.70185,227.58332 142.6647,230.083059 L145.044045,231.729229 C145.715143,230.387905 146.508258,229.900151 147.606417,229.900151 C149.497692,229.900151 150.839887,231.729229 153.219232,231.66826 C155.110506,231.66826 156.635728,230.631782 157.550861,228.193012 L155.232524,226.546842 Z M149.985763,233.985091 C143.457815,233.985091 140.224346,238.19197 140.224346,244.71568 L140.224346,266.78655 C140.224346,273.249291 143.457815,277.517139 149.985763,277.517139 C156.574719,277.517139 159.808188,273.249291 159.808188,266.78655 L159.808188,244.71568 C159.808188,238.19197 156.574719,233.985091 149.985763,233.985091 L149.985763,233.985091 Z M149.985763,238.313908 C153.463267,238.313908 155.049498,240.63074 155.049498,244.471803 L155.049498,267.030427 C155.049498,270.932459 153.463267,273.188322 149.985763,273.188322 C146.569267,273.188322 144.922027,270.932459 144.922027,267.030427 L144.922027,244.471803 C144.922027,240.63074 146.569267,238.313908 149.985763,238.313908 L149.985763,238.313908 Z M169.077062,253.312345 L169.077062,238.740693 L181.888921,238.740693 L181.888921,234.411876 L164.318371,234.411876 L164.318371,277.090354 L181.888921,277.090354 L181.888921,272.761537 L169.077062,272.761537 L169.077062,257.580193 L179.509576,257.580193 L179.509576,253.312345 L169.077062,253.312345 Z M195.245388,233.985091 C188.839458,233.985091 185.789015,238.070031 185.789015,244.654711 C185.789015,256.665654 200.065087,257.580193 200.065087,267.091396 C200.065087,270.932459 198.478857,273.188322 195.062361,273.188322 C191.645865,273.188322 190.059635,270.932459 190.059635,267.091396 L190.059635,264.408749 L185.605989,264.408749 L185.605989,266.847519 C185.605989,273.31026 188.656431,277.517139 195.184379,277.517139 C201.712327,277.517139 204.823778,273.31026 204.823778,266.847519 C204.823778,254.836576 190.486697,253.922037 190.486697,244.349865 C190.486697,240.569771 191.95091,238.313908 195.367406,238.313908 C198.783902,238.313908 200.248114,240.569771 200.248114,244.410834 L200.248114,245.813127 L204.762769,245.813127 L204.762769,244.654711 C204.762769,238.19197 201.712327,233.985091 195.245388,233.985091 L195.245388,233.985091 Z" id="-Saúde" fill="#1976D2" sketch:type="MSShapeGroup"></path>
            </g>
        </g>
    </g>
</svg>