<?xml version="1.0" encoding="UTF-8" standalone="no"?>
<svg width="197px" height="45px" viewBox="0 0 197 45" version="1.1" xmlns="http://www.w3.org/2000/svg" xmlns:xlink="http://www.w3.org/1999/xlink" xmlns:sketch="http://www.bohemiancoding.com/sketch/ns">
    <!-- Generator: Sketch 3.3.2 (12043) - http://www.bohemiancoding.com/sketch -->
    <title>GdS Logo</title>
    <desc>Created with Sketch.</desc>
    <defs></defs>
    <g id="GdS-md" stroke="none" stroke-width="1" fill="none" fill-rule="evenodd" sketch:type="MSPage">
        <g id="01--home-search" sketch:type="MSArtboardGroup" transform="translate(-15.000000, -10.000000)">
            <g id="Top-bar" sketch:type="MSLayerGroup" transform="translate(-208.000000, 0.000000)">
                <g id="GdS-Logo" transform="translate(223.000000, 10.000000)" sketch:type="MSShapeGroup">
                    <path d="M38.4557586,7.48194828 C37.1367931,7.78422414 35.7625862,7.94994828 34.3512931,7.94994828 C29.231069,7.94994828 24.6070862,5.84410345 21.2873276,2.45312069 C17.9683448,5.84410345 13.3420345,7.94994828 8.22181034,7.94994828 C6.81051724,7.94994828 5.43863793,7.78422414 4.11874138,7.48272414 C2.03663793,11.1056897 0.843982759,15.3055862 0.843982759,19.7833966 C0.843982759,31.9830517 9.66925862,42.1203103 21.2857759,44.1577241 C32.9021379,42.1203103 41.727569,31.9830517 41.727569,19.7833966 C41.727569,15.3063621 40.5364655,11.1049138 38.4557586,7.48194828" id="Fill-1" fill="#FFFFFF"></path>
                    <path d="M35.6603276,10.0581207 C34.5561207,10.3112069 33.4056724,10.449931 32.2241897,10.449931 C27.9375517,10.449931 24.0664655,8.68686207 21.2871724,5.84798276 C18.5083448,8.68686207 14.6352414,10.449931 10.3486034,10.449931 C9.16712069,10.449931 8.01868966,10.3112069 6.9137069,10.0587414 C5.1705,13.0917414 4.17212069,16.6081034 4.17212069,20.3567586 C4.17212069,30.5702069 11.5605,39.0570517 21.2857759,40.7628621 C31.0110517,39.0570517 38.3995862,30.5702069 38.3995862,20.3567586 C38.3995862,16.6087241 37.4022931,13.0911207 35.6603276,10.0581207" id="Fill-2" fill="#1E88E5"></path>
                    <path d="M35.6603276,10.0581207 C34.5561207,10.3112069 33.4056724,10.449931 32.2241897,10.449931 C27.9375517,10.449931 24.0664655,8.68686207 21.2871724,5.84798276 C20.8879138,6.25639655 20.4630517,6.63827586 20.0215862,6.99982759 C21.8018793,13.5715345 21.387569,32.3255172 21.0961552,40.7243793 C21.1608621,40.7371034 21.2223103,40.7515345 21.2857759,40.7628621 C31.0110517,39.0570517 38.3995862,30.5702069 38.3995862,20.3567586 C38.3995862,16.6087241 37.4022931,13.0911207 35.6603276,10.0581207" id="Fill-3" fill="#1976D2"></path>
                    <path d="M18.4065517,15.4033448 L24.1648448,15.4033448 L24.1648448,32.679 L18.4065517,32.679 L18.4065517,15.4033448 Z" id="Fill-4" fill="#FFFFFF"></path>
                    <path d="M12.6476379,21.1628793 L29.9239138,21.1628793 L29.9239138,26.9200862 L12.6476379,26.9200862 L12.6476379,21.1628793 Z" id="Fill-5" fill="#FFFFFF"></path>
                    <path d="M21.2857759,44.8966552 L20.5826897,44.7725172 C8.71448276,42.6910345 0.0994655172,32.4226552 0.0994655172,20.3567586 C0.0994655172,16.032569 1.2347069,11.7688966 3.3822931,8.03048276 L4.88436207,5.41582759 L7.82301724,6.08912069 C8.6597069,6.28091379 9.50803448,6.37789655 10.3486034,6.37789655 C13.392931,6.37789655 16.245,5.1777931 18.3775345,2.9987069 L21.2882586,0.0260689655 L24.1978966,2.9987069 C26.3291897,5.17856897 29.1812586,6.37789655 32.2241897,6.37789655 C33.0661552,6.37789655 33.9165,6.28091379 34.7485345,6.08787931 L37.6898276,5.41318966 L39.1903448,8.02924138 C41.3380862,11.7675 42.4720862,16.0297759 42.4720862,20.3567586 C42.4720862,32.4226552 33.8583103,42.6910345 21.9888621,44.7725172 L21.2857759,44.8966552 L21.2857759,44.8966552 Z M5.99182759,7.94808621 L5.30798276,9.1367069 C3.35451724,12.5407241 2.32044828,16.4197241 2.32044828,20.3567586 C2.32044828,31.3421897 10.1616207,40.6907069 20.9665862,42.5852069 L21.2857759,42.6421552 L21.6062069,42.5852069 C32.4097759,40.6907069 40.2517241,31.3421897 40.2517241,20.3567586 C40.2517241,16.4170862 39.2182759,12.5366897 37.2662069,9.13608621 L36.5822069,7.94668966 L35.2466379,8.25268966 C34.2488793,8.48265517 33.2326552,8.59965517 32.2241897,8.59965517 C28.5771724,8.59965517 25.164,7.16167241 22.6106379,4.55337931 L21.2871724,3.20198276 L19.9647931,4.55275862 C17.4100345,7.16167241 13.9956207,8.59965517 10.3486034,8.59965517 C9.34153448,8.59965517 8.32515517,8.48265517 7.32615517,8.25331034 L5.99182759,7.94808621 L5.99182759,7.94808621 Z" id="Fill-6" fill="#1E88E5"></path>
                    <path d="M58.3592586,18.0732414 L58.3592586,19.4902759 L56.6113966,19.4902759 L56.6113966,17.9785862 C56.6113966,16.4906379 56.0209655,15.5931207 54.6748448,15.5931207 C53.3521552,15.5931207 52.7379828,16.4906379 52.7379828,17.9785862 L52.7379828,26.717431 C52.7379828,28.2053793 53.3521552,29.1028966 54.6748448,29.1028966 C56.0209655,29.1028966 56.6113966,28.2053793 56.6113966,26.717431 L56.6113966,23.4108621 L54.9108621,23.4108621 L54.9108621,21.7576552 L58.3592586,21.7576552 L58.3592586,26.622931 C58.3592586,29.1264828 57.1782414,30.7796897 54.6275172,30.7796897 C52.1003793,30.7796897 50.9193621,29.1264828 50.9193621,26.622931 L50.9193621,18.0732414 C50.9193621,15.5696897 52.1003793,13.9163276 54.6275172,13.9163276 C57.1782414,13.9163276 58.3592586,15.5696897 58.3592586,18.0732414" id="Fill-7" fill="#FFFFFF"></path>
                    <path d="M61.736431,26.717431 C61.736431,28.2053793 62.3268621,29.1028966 63.6731379,29.1028966 C64.9958276,29.1028966 65.5862586,28.2053793 65.5862586,26.717431 L65.5862586,14.0815862 L67.3103793,14.0815862 L67.3103793,26.622931 C67.3103793,29.1264828 66.1531034,30.803431 63.6023793,30.803431 C61.0752414,30.803431 59.9179655,29.1264828 59.9179655,26.622931 L59.9179655,14.0815862 L61.736431,14.0815862 L61.736431,26.717431" id="Fill-8" fill="#FFFFFF"></path>
                    <path d="M70.8765517,27.2842759 L70.2387931,30.614431 L68.5382586,30.614431 L71.7031552,14.0815862 L74.3719655,14.0815862 L77.5370172,30.614431 L75.6946552,30.614431 L75.0568966,27.2842759 L70.8765517,27.2842759 L70.8765517,27.2842759 Z M71.1127241,25.7018276 L74.7971379,25.7018276 L72.9313448,16.1601207 L71.1127241,25.7018276 L71.1127241,25.7018276 Z" id="Fill-9" fill="#FFFFFF"></path>
                    <path d="M82.5436552,14.0815862 C85.1417069,14.0815862 86.2282241,15.4042759 86.2282241,17.8606552 L86.2282241,19.2067759 C86.2282241,21.0253966 85.5904655,22.1590862 84.173431,22.6078448 C85.6849655,23.0566034 86.2518103,24.2847931 86.2518103,26.0560862 L86.2518103,28.6305517 C86.2518103,29.3626552 86.2753966,30.0475862 86.5824828,30.614431 L84.7165345,30.614431 C84.5041034,30.1420862 84.4096034,29.7169138 84.4096034,28.6068103 L84.4096034,26.0087586 C84.4096034,24.1431207 83.5358276,23.5525345 82.0005517,23.5525345 L80.7014483,23.5525345 L80.7014483,30.614431 L78.8592414,30.614431 L78.8592414,14.0815862 L82.5436552,14.0815862 L82.5436552,14.0815862 Z M82.0713103,21.8757414 C83.5358276,21.8757414 84.4096034,21.4033966 84.4096034,19.6083621 L84.4096034,18.0259138 C84.4096034,16.5379655 83.8665,15.7585345 82.4964828,15.7585345 L80.7014483,15.7585345 L80.7014483,21.8757414 L82.0713103,21.8757414 L82.0713103,21.8757414 Z" id="Fill-10" fill="#FFFFFF"></path>
                    <path d="M91.9201034,14.0815862 C94.494569,14.0815862 95.675431,15.6404483 95.675431,18.1913276 L95.675431,26.528431 C95.675431,29.055569 94.494569,30.614431 91.9201034,30.614431 L88.0466897,30.614431 L88.0466897,14.0815862 L91.9201034,14.0815862 L91.9201034,14.0815862 Z M91.8965172,28.9374828 C93.2192069,28.9374828 93.8569655,28.1108793 93.8569655,26.5993448 L93.8569655,18.0968276 C93.8569655,16.5852931 93.2192069,15.7585345 91.872931,15.7585345 L89.8888966,15.7585345 L89.8888966,28.9374828 L91.8965172,28.9374828 L91.8965172,28.9374828 Z" id="Fill-11" fill="#FFFFFF"></path>
                    <path d="M97.2813103,14.0815862 L99.1235172,14.0815862 L99.1235172,30.614431 L97.2813103,30.614431 L97.2813103,14.0815862 Z" id="Fill-12" fill="#FFFFFF"></path>
                    <path d="M108.334241,18.0732414 L108.334241,26.622931 C108.334241,29.1264828 107.082621,30.7796897 104.531741,30.7796897 C102.004603,30.7796897 100.752828,29.1264828 100.752828,26.622931 L100.752828,18.0732414 C100.752828,15.5461034 102.004603,13.9163276 104.531741,13.9163276 C107.082621,13.9163276 108.334241,15.5461034 108.334241,18.0732414 L108.334241,18.0732414 Z M107.460466,11.6726897 C107.106052,12.6173793 106.515776,13.0189655 105.783517,13.0189655 C104.862414,13.0425517 104.342897,12.3340345 103.610638,12.3340345 C103.185621,12.3340345 102.878534,12.5228793 102.618621,13.0425517 L101.697672,12.4046379 C102.099103,11.4363621 102.713276,11.0585172 103.445379,11.034931 C104.390069,11.034931 104.909586,11.7434483 105.618103,11.7434483 C106.01969,11.7197069 106.30319,11.5310172 106.562948,11.034931 L107.460466,11.6726897 L107.460466,11.6726897 Z M102.571448,17.9785862 L102.571448,26.717431 C102.571448,28.2289655 103.209207,29.1028966 104.531741,29.1028966 C105.878017,29.1028966 106.492034,28.2289655 106.492034,26.717431 L106.492034,17.9785862 C106.492034,16.4906379 105.878017,15.5931207 104.531741,15.5931207 C103.209207,15.5931207 102.571448,16.4906379 102.571448,17.9785862 L102.571448,17.9785862 Z" id="Fill-13" fill="#FFFFFF"></path>
                    <path d="M115.844741,21.4033966 L115.844741,23.0566034 L111.805914,23.0566034 L111.805914,28.9374828 L116.765845,28.9374828 L116.765845,30.614431 L109.963707,30.614431 L109.963707,14.0815862 L116.765845,14.0815862 L116.765845,15.7585345 L111.805914,15.7585345 L111.805914,21.4033966 L115.844741,21.4033966" id="Fill-14" fill="#FFFFFF"></path>
                    <path d="M125.504224,18.0495 L125.504224,18.4982586 L123.756362,18.4982586 L123.756362,17.955 C123.756362,16.4670517 123.189672,15.5931207 121.866828,15.5931207 C120.544293,15.5931207 119.977448,16.4670517 119.977448,17.931569 C119.977448,21.6394138 125.52781,21.9936724 125.52781,26.6466724 C125.52781,29.1502241 124.323207,30.7796897 121.796069,30.7796897 C119.268931,30.7796897 118.088069,29.1502241 118.088069,26.6466724 L118.088069,25.7018276 L119.81219,25.7018276 L119.81219,26.7410172 C119.81219,28.2289655 120.426207,29.1028966 121.748897,29.1028966 C123.071431,29.1028966 123.685603,28.2289655 123.685603,26.7410172 C123.685603,23.0566034 118.158983,22.7023448 118.158983,18.0495 C118.158983,15.4987759 119.33969,13.9163276 121.819655,13.9163276 C124.323207,13.9163276 125.504224,15.5461034 125.504224,18.0495" id="Fill-15" fill="#FFFFFF"></path>
                    <path d="M134.195431,14.0815862 C136.74631,14.0815862 137.856259,15.7585345 137.856259,18.1913276 L137.856259,26.5048448 C137.856259,28.9374828 136.74631,30.614431 134.195431,30.614431 L130.55819,30.614431 L130.55819,14.0815862 L134.195431,14.0815862 L134.195431,14.0815862 Z M134.171845,29.6224138 C136.014052,29.6224138 136.769741,28.3706379 136.769741,26.5520172 L136.769741,18.144 C136.769741,16.3253793 135.990466,15.0737586 134.171845,15.0737586 L131.644707,15.0737586 L131.644707,29.6224138 L134.171845,29.6224138 L134.171845,29.6224138 Z" id="Fill-16" fill="#FFFFFF"></path>
                    <path d="M141.092069,26.9536034 L140.265466,30.614431 L139.273448,30.614431 L142.886948,14.0581552 L144.469397,14.0581552 L148.15381,30.614431 L147.067448,30.614431 L146.24069,26.9536034 L141.092069,26.9536034 L141.092069,26.9536034 Z M141.257328,26.0087586 L146.075431,26.0087586 L143.642793,15.3097759 L141.257328,26.0087586 L141.257328,26.0087586 Z" id="Fill-17" fill="#FFFFFF"></path>
                    <path d="M160.387759,18.0495 L160.387759,18.4982586 L158.640052,18.4982586 L158.640052,17.955 C158.640052,16.4670517 158.073207,15.5931207 156.750517,15.5931207 C155.427828,15.5931207 154.861138,16.4670517 154.861138,17.931569 C154.861138,21.6394138 160.4115,21.9936724 160.4115,26.6466724 C160.4115,29.1502241 159.206897,30.7796897 156.679759,30.7796897 C154.152621,30.7796897 152.971603,29.1502241 152.971603,26.6466724 L152.971603,25.7018276 L154.695879,25.7018276 L154.695879,26.7410172 C154.695879,28.2289655 155.309897,29.1028966 156.632431,29.1028966 C157.955121,29.1028966 158.569293,28.2289655 158.569293,26.7410172 C158.569293,23.0566034 153.042362,22.7023448 153.042362,18.0495 C153.042362,15.4987759 154.223379,13.9163276 156.703345,13.9163276 C159.206897,13.9163276 160.387759,15.5461034 160.387759,18.0495" id="Fill-18" fill="#FFFFFF"></path>
                    <path d="M163.764931,27.2842759 L163.127328,30.614431 L161.426793,30.614431 L164.591534,14.0815862 L167.260345,14.0815862 L170.425397,30.614431 L168.58319,30.614431 L167.945276,27.2842759 L163.764931,27.2842759 L163.764931,27.2842759 Z M164.001103,25.7018276 L167.685672,25.7018276 L165.819724,16.1601207 L164.001103,25.7018276 L164.001103,25.7018276 Z" id="Fill-19" fill="#FFFFFF"></path>
                    <path d="M179.069431,26.622931 C179.069431,29.1264828 177.912155,30.803431 175.361276,30.803431 C172.834138,30.803431 171.676862,29.1264828 171.676862,26.622931 L171.676862,14.0815862 L173.495483,14.0815862 L173.495483,26.717431 C173.495483,28.2053793 174.085914,29.1028966 175.432034,29.1028966 C176.754879,29.1028966 177.34531,28.2053793 177.34531,26.717431 L177.34531,14.0815862 L179.069431,14.0815862 L179.069431,26.622931 L179.069431,26.622931 Z M177.793914,10.6570862 L175.597448,13.0897241 L174.322086,13.0897241 L175.975293,10.6570862 L177.793914,10.6570862 L177.793914,10.6570862 Z" id="Fill-20" fill="#FFFFFF"></path>
                    <path d="M184.643069,14.0815862 C187.217534,14.0815862 188.398397,15.6404483 188.398397,18.1913276 L188.398397,26.528431 C188.398397,29.055569 187.217534,30.614431 184.643069,30.614431 L180.769655,30.614431 L180.769655,14.0815862 L184.643069,14.0815862 L184.643069,14.0815862 Z M184.619483,28.9374828 C185.942172,28.9374828 186.579776,28.1108793 186.579776,26.5993448 L186.579776,18.0968276 C186.579776,16.5852931 185.942172,15.7585345 184.595897,15.7585345 L182.611862,15.7585345 L182.611862,28.9374828 L184.619483,28.9374828 L184.619483,28.9374828 Z" id="Fill-21" fill="#FFFFFF"></path>
                    <path d="M195.885155,21.4033966 L195.885155,23.0566034 L191.846483,23.0566034 L191.846483,28.9374828 L196.806414,28.9374828 L196.806414,30.614431 L190.004276,30.614431 L190.004276,14.0815862 L196.806414,14.0815862 L196.806414,15.7585345 L191.846483,15.7585345 L191.846483,21.4033966 L195.885155,21.4033966" id="Fill-22" fill="#FFFFFF"></path>
                </g>
            </g>
        </g>
    </g>
</svg>