<?xml version="1.0" encoding="UTF-8" standalone="no"?>
<svg width="1277px" height="145px" viewBox="0 0 1277 145" version="1.1" xmlns="http://www.w3.org/2000/svg" xmlns:xlink="http://www.w3.org/1999/xlink">
    <!-- Generator: sketchtool 3.7.2 (28276) - http://www.bohemiancoding.com/sketch -->
    <title>E6D308BE-1212-47CF-920D-7B83AC6F7B4C</title>
    <desc>Created with sketchtool.</desc>
    <defs>
        <rect id="path-1" x="0" y="0" width="1277" height="309"></rect>
    </defs>
    <g id="GdS-md" stroke="none" stroke-width="1" fill="none" fill-rule="evenodd">
        <g id="01--game_01" transform="translate(0.000000, -635.000000)">
            <g id="Olympics-colors" transform="translate(0.000000, 626.000000)">
                <mask id="mask-2" fill="white">
                    <use xlink:href="#path-1"></use>
                </mask>
                <g id="Mask"></g>
                <path d="M-52.8966026,49.1382141 C456.819783,203.094754 1168.79358,147.300078 1306.40916,137.59643 C1306.40916,137.59643 1348.24974,287.545974 1306.40918,308.767883 C696.946842,193.725739 -52.8966026,193.725742 -52.8966026,193.725742 L-52.8966026,49.1382141 Z" id="Rectangle-1219-Copy-2" fill="#68BA44" mask="url(#mask-2)"></path>
                <path d="M-52.8966026,110.422642 C638.71569,195.059294 981.700983,141.459895 1306.40916,102.458734 C1360.22654,116.207823 1665.66433,265.05989 1306.40916,230.251366 C947.153996,195.442843 -52.8966026,230.251366 -52.8966026,230.251366 C-52.8966026,230.251366 -52.8966024,110.422645 -52.8966026,110.422642 Z" id="Rectangle-1219-Copy" fill="#FCB315" mask="url(#mask-2)"></path>
                <path d="M-52.8966016,173.085108 C471.210033,197.403484 788.553172,169.811106 1306.40919,0.143304741 C1306.40919,47.4350675 1338.18681,75.0843157 1306.40913,120.242276 C706.702039,240.024887 -28.4462926,234.529231 -52.896602,291.449451 C-52.896602,291.449451 -84.760235,189.561343 -52.8966016,173.085108 Z" id="Rectangle-1219" fill="#F47821" mask="url(#mask-2)"></path>
                <path d="M-52.8966026,192.022633 C602.358097,249.613357 962.968521,138.58666 1306.40913,31.9211022 C1360.22651,45.670191 2046.24577,61.1777541 1306.40912,144.279981 C566.572464,227.382208 207.383987,246.537798 -52.8966025,303.237367 C-69.3264941,264.881598 -52.8966024,192.022636 -52.8966026,192.022633 Z" id="Rectangle-1219-Copy-3" fill="#FCB315" mask="url(#mask-2)"></path>
            </g>
        </g>
    </g>
</svg>