<?xml version="1.0" encoding="UTF-8" standalone="no"?>
<svg width="82px" height="85px" viewBox="0 0 82 85" version="1.1" xmlns="http://www.w3.org/2000/svg" xmlns:xlink="http://www.w3.org/1999/xlink" xmlns:sketch="http://www.bohemiancoding.com/sketch/ns">
    <!-- Generator: Sketch 3.3.2 (12043) - http://www.bohemiancoding.com/sketch -->
    <title>pin_pharmacy</title>
    <desc>Created with Sketch.</desc>
    <defs>
        <filter x="-50%" y="-50%" width="200%" height="200%" filterUnits="objectBoundingBox" id="filter-1">
            <feOffset dx="0" dy="4" in="SourceAlpha" result="shadowOffsetOuter1"></feOffset>
            <feGaussianBlur stdDeviation="3" in="shadowOffsetOuter1" result="shadowBlurOuter1"></feGaussianBlur>
            <feColorMatrix values="0 0 0 0 0   0 0 0 0 0   0 0 0 0 0  0 0 0 0.35 0" in="shadowBlurOuter1" type="matrix" result="shadowMatrixOuter1"></feColorMatrix>
            <feMerge>
                <feMergeNode in="shadowMatrixOuter1"></feMergeNode>
                <feMergeNode in="SourceGraphic"></feMergeNode>
            </feMerge>
        </filter>
    </defs>
    <g id="Smartphone" stroke="none" stroke-width="1" fill="none" fill-rule="evenodd" sketch:type="MSPage">
        <g id="pin_pharmacy" sketch:type="MSLayerGroup" transform="translate(6.000000, 2.000000)">
            <path d="M49.8681518,59.4165015 L64.3958233,59.4165015 C67.1685486,59.4165015 69.3990272,57.1771004 69.3990272,54.4146591 L69.3990272,5.00184247 C69.3990272,2.23866749 67.1590165,0 64.3958233,0 L5.60417674,0 C2.83145139,0 0.600972795,2.23940115 0.600972795,5.00184247 L0.600972795,54.4146591 C0.600972795,57.177834 2.8409835,59.4165015 5.60417674,59.4165015 L21.174243,59.4165015 L35.5211974,73.763456 L49.8681518,59.4165015 Z" id="Rectangle-993-Copy" fill="#186CB7" filter="url(#filter-1)" sketch:type="MSShapeGroup"></path>
            <path d="M33.2434862,1 L65.2860504,1 C66.3920423,1 67.2886259,1.89559326 67.2886259,3.00480986 L67.2886259,56.7496102 C67.2886259,57.8568361 66.3859244,58.7986685 65.2908602,58.8510433 C65.2908602,58.8510433 53.8278275,59.4288071 48.7157762,59.4288071 C46.9506636,59.4288071 43.2954864,63.5515196 41.1892319,65.8891718 C37.6555768,69.8110418 33.7498571,73.763456 33.7498571,73.763456 L33.2434862,1 Z" id="Rectangle-993" opacity="0.2" fill="#000000" sketch:type="MSShapeGroup"></path>
            <g id="logo" transform="translate(20.000000, 16.000000)" fill="#EBEAEA" sketch:type="MSShapeGroup">
                <path d="M29.2447059,2.87058824 L29.0183529,2.64470588 C27.5096471,1.13552941 25.5021176,0.304941176 23.3684706,0.304941176 C21.2334118,0.304941176 19.2268235,1.13552941 17.7171765,2.64564706 L10.8451765,9.51764706 C10.6127059,9.75011765 10.4390588,10.0192941 10.3214118,10.32 C10.5769412,10.2235294 10.8588235,10.1689412 11.1618824,10.1538824 C11.2065882,10.0945882 11.2555294,10.0376471 11.3105882,9.98258824 L18.1825882,3.11058824 C19.5670588,1.72564706 21.4089412,0.962823529 23.368,0.962823529 C25.3270588,0.962823529 27.168,1.72517647 28.5529412,3.10964706 L28.7783529,3.33552941 C31.6371765,6.19529412 31.6371765,10.8475294 28.7783529,13.7063529 L21.9063529,20.5788235 C21.8489412,20.6367059 21.7868235,20.6875294 21.7232941,20.7345882 C21.7058824,21.0395294 21.6456471,21.3209412 21.544,21.5792941 C21.8564706,21.4607059 22.1331765,21.2823529 22.3712941,21.0442353 L29.2447059,14.1722353 C32.3604706,11.0569412 32.3604706,5.98682353 29.2447059,2.87058824" id="Fill-1"></path>
                <path d="M30.0804706,6.28 C30.3167059,8.40941176 29.6207059,10.6235294 27.9882353,12.2569412 C27.9882353,12.2569412 25.7722353,14.4724706 22.8908235,17.3538824 C23.0338824,17.7778824 23.1223529,18.1854118 23.1468235,18.5665882 C23.2367059,18.504 23.9807059,17.7778824 24.0607059,17.6983529 C27.2150588,14.5430588 28.2395294,13.5190588 28.2395294,13.5190588 C30.2,11.5581176 30.8127059,8.76235294 30.0804706,6.28" id="Fill-2"></path>
                <path d="M21.2663529,18.5303529 C20.5237647,16.7374118 18.9134118,14.6545882 16.9585882,12.9576471 C14.9007059,11.1712941 12.848,10.1472941 11.3284706,10.1472941 C11.2715294,10.1472941 11.2174118,10.1515294 11.1618824,10.1543529 C10.8592941,10.1689412 10.5778824,10.224 10.3214118,10.3204706 C10.0094118,10.4385882 9.73270588,10.6164706 9.49411765,10.8555294 L2.62164706,17.7265882 C-0.494117647,20.8428235 -0.494588235,25.9115294 2.62117647,29.0282353 L2.84705882,29.2536471 C4.35623529,30.7623529 6.36329412,31.5938824 8.49788235,31.5938824 C10.6324706,31.5938824 12.6390588,30.7623529 14.1482353,29.2536471 L21.0207059,22.3807059 C21.2527059,22.1487059 21.4263529,21.8795294 21.544,21.5788235 C21.6456471,21.3204706 21.7058824,21.0390588 21.7232941,20.7341176 C21.7581176,20.0936471 21.6070588,19.3529412 21.2663529,18.5303529 L21.2663529,18.5303529 Z M19.648,22.0964706 C16.4927059,25.2512941 13.4945882,28.2494118 13.4945882,28.2494118 C11.5341176,30.2098824 8.73882353,30.8221176 6.256,30.0898824 C8.38494118,30.3261176 10.5995294,29.6305882 12.2329412,27.9971765 C12.2329412,27.9971765 16.3223529,23.9082353 20.1858824,20.0437647 C20.3124706,20.864 20.1656471,21.5797647 19.648,22.0964706 L19.648,22.0964706 Z" id="Fill-3"></path>
            </g>
        </g>
    </g>
</svg>