<?xml version="1.0" standalone="no"?>
<!DOCTYPE svg PUBLIC "-//W3C//DTD SVG 1.1//EN" "http://www.w3.org/Graphics/SVG/1.1/DTD/svg11.dtd" >
<svg xmlns="http://www.w3.org/2000/svg">
<metadata></metadata>
<defs>
<font id="foco_lightitalic" horiz-adv-x="1105" >
<font-face units-per-em="2048" ascent="1638" descent="-410" />
<missing-glyph horiz-adv-x="370" />
<glyph unicode="&#xfb01;" horiz-adv-x="952" d="M-293 -332q0 14 2 22.5t12 18.5l23 29q35 -31 72 -46.5t84 -15.5q51 0 85.5 25t57.5 64.5t37 90t22 103.5l183 1118q14 88 40.5 154.5t73.5 124.5q45 53 120 82.5t161 29.5q66 0 117 -18t86 -43t53 -51.5t18 -44.5q0 -23 -20 -41l-29 -25h-20q-31 59 -85.5 92t-125.5 33 q-53 0 -104.5 -17.5t-82.5 -54.5t-52 -95t-29 -105l-23 -142h530l-127 -768q-4 -16 -5 -32.5t-1 -26.5q0 -41 16.5 -56.5t45.5 -15.5q27 0 51 9l8 -46q-59 -33 -113 -32q-66 0 -97.5 34.5t-31.5 86.5q0 23 3.5 43t7.5 49l108 659h-411l-148 -893q-12 -76 -31.5 -145.5 t-55.5 -123.5t-92 -87t-142 -33q-39 0 -72 7t-57 18q-61 27 -62 65z" />
<glyph unicode="&#xfb02;" horiz-adv-x="952" d="M-293 -332q0 14 2 22.5t12 18.5l23 29q35 -31 72 -46.5t84 -15.5q51 0 85.5 25t57.5 64.5t37 90t22 103.5l183 1118q12 82 38.5 152.5t73.5 124t117 84t172 30.5q61 0 108.5 -12t84 -28.5t61.5 -36t41 -31.5l-195 -1172q-4 -16 -5 -32.5t-1 -26.5q0 -41 16.5 -56.5 t45.5 -15.5q27 0 51 9l8 -46q-59 -33 -113 -32q-66 0 -97.5 34.5t-31.5 86.5q0 23 3.5 43t7.5 49l184 1118q-33 27 -79 39t-97 12q-68 0 -116 -20.5t-79.5 -57.5t-50 -87t-26.5 -107l-23 -142h301l-16 -96h-301l-148 -893q-12 -76 -31.5 -145.5t-55.5 -123.5t-92 -87 t-142 -33q-39 0 -72 7t-57 18q-61 27 -62 65z" />
<glyph unicode="&#xfb03;" horiz-adv-x="1533" d="M-293 -332q0 14 2 22.5t12 18.5l23 29q35 -31 72 -46.5t84 -15.5q51 0 85.5 25t57.5 64.5t37 90t22 103.5l183 1118q14 88 38.5 154.5t71.5 124.5q45 53 106.5 82.5t147.5 29.5q61 0 106.5 -14t75 -35.5t44 -45t14.5 -42.5q0 -23 -21 -41l-28 -24h-21q-31 59 -76 81.5 t-102 22.5q-53 0 -90 -17.5t-68 -54.5t-50 -95t-27 -105l-23 -142h463l20 121q14 88 41 154.5t74 124.5q45 53 120 82.5t161 29.5q66 0 117 -18t85.5 -43t53 -51.5t18.5 -44.5q0 -23 -20 -41l-29 -25h-21q-31 59 -85 92t-126 33q-53 0 -104 -17.5t-82 -54.5t-52.5 -95 t-29.5 -105l-22 -142h530l-127 -768q-4 -16 -5 -32.5t-1 -26.5q0 -41 16.5 -56.5t44.5 -15.5q27 0 52 9l8 -46q-59 -33 -113 -32q-66 0 -97.5 34.5t-31.5 86.5q0 23 3 43t7 49l109 659h-412l-147 -893q-12 -76 -31.5 -145.5t-55.5 -123.5t-92.5 -87t-142.5 -33 q-39 0 -71.5 7t-57.5 18q-61 27 -61 65q0 14 2 22.5t12 18.5l23 29q35 -31 71.5 -46.5t83.5 -15.5q51 0 86 25t57.5 64.5t37 90t22.5 103.5l145 901h-462l-148 -893q-12 -76 -31.5 -145.5t-55.5 -123.5t-92 -87t-142 -33q-39 0 -72 7t-57 18q-61 27 -62 65z" />
<glyph unicode="&#xfb04;" horiz-adv-x="1533" d="M-293 -332q0 14 2 22.5t12 18.5l23 29q35 -31 72 -46.5t84 -15.5q51 0 85.5 25t57.5 64.5t37 90t22 103.5l183 1118q14 88 38.5 154.5t71.5 124.5q45 53 106.5 82.5t147.5 29.5q61 0 106.5 -14t75 -35.5t44 -45t14.5 -42.5q0 -23 -21 -41l-28 -24h-21q-31 59 -76 81.5 t-102 22.5q-53 0 -90 -17.5t-68 -54.5t-50 -95t-27 -105l-23 -142h463l20 121q12 82 39 152.5t74 124t116.5 84t172.5 30.5q61 0 108 -12t84 -28.5t61.5 -36t41.5 -31.5l-195 -1172q-4 -16 -5 -32.5t-1 -26.5q0 -41 16.5 -56.5t44.5 -15.5q27 0 52 9l8 -46q-59 -33 -113 -32 q-66 0 -97.5 34.5t-31.5 86.5q0 23 3 43t7 49l185 1118q-33 27 -79 39t-97 12q-68 0 -115 -20.5t-80 -57.5t-51.5 -87t-26.5 -107l-22 -142h301l-17 -96h-301l-147 -893q-12 -76 -31.5 -145.5t-55.5 -123.5t-92.5 -87t-142.5 -33q-39 0 -71.5 7t-57.5 18q-61 27 -61 65 q0 14 2 22.5t12 18.5l23 29q35 -31 71.5 -46.5t83.5 -15.5q51 0 86 25t57.5 64.5t37 90t22.5 103.5l145 901h-462l-148 -893q-12 -76 -31.5 -145.5t-55.5 -123.5t-92 -87t-142 -33q-39 0 -72 7t-57 18q-61 27 -62 65z" />
<glyph horiz-adv-x="0" />
<glyph unicode="&#xd;" horiz-adv-x="331" />
<glyph unicode=" "  horiz-adv-x="370" />
<glyph unicode="&#x09;" horiz-adv-x="370" />
<glyph unicode="&#xa0;" horiz-adv-x="370" />
<glyph unicode="!" horiz-adv-x="421" d="M76 47q-4 47 23.5 89t82.5 42q35 0 55.5 -23.5t24.5 -56.5q4 -47 -23.5 -88t-80.5 -41q-37 0 -57.5 22.5t-24.5 55.5zM166 406v9t2 13l156 944q10 2 24 2q37 0 58.5 -23.5t21.5 -58.5v-9t-2 -13l-156 -942q-10 -4 -26 -4q-37 0 -57.5 23.5t-20.5 58.5z" />
<glyph unicode="&#x22;" horiz-adv-x="634" d="M207 920l78 473q10 2 28 2q41 0 58.5 -27t17.5 -49q0 -6 -1 -17.5t-5 -31.5l-74 -350h-102zM479 920l78 473q10 2 28 2q41 0 58.5 -27t17.5 -49q0 -6 -1 -17.5t-5 -31.5l-74 -350h-102z" />
<glyph unicode="#" horiz-adv-x="1257" d="M63 391l25 92h268l99 342h-269l27 95h268l90 315h107l-90 -315h282l91 315h106l-90 -315h266l-26 -95h-267l-98 -342h266l-26 -92h-267l-94 -332h-106l96 332h-285l-94 -332h-106l94 332h-267zM463 483h285l96 342h-283z" />
<glyph unicode="$" d="M106 154q0 29 18.5 43t35.5 24q57 -63 120.5 -94t168.5 -37l94 576q-49 27 -99.5 59.5t-90.5 75.5t-64.5 97t-24.5 122q0 80 30 142.5t83 107.5t124.5 69.5t157.5 26.5l31 188h101l-33 -192q82 -10 142.5 -46t84.5 -63q16 -16 20.5 -28.5t4.5 -26.5q0 -37 -45 -63h-19 q-33 47 -82 81.5t-123 45.5l-86 -523q59 -33 111.5 -67.5t90.5 -77.5t59.5 -97.5t21.5 -125.5q0 -86 -29.5 -153.5t-83 -117t-128 -78t-167.5 -32.5l-28 -183h-101l29 181q-33 2 -69.5 8t-73.5 18.5t-71 27.5t-60 36q-29 23 -39.5 38t-10.5 38zM381 1030q0 -45 13.5 -78.5 t37 -62.5t57 -53.5t74.5 -49.5l80 482q-137 -2 -199.5 -71t-62.5 -167zM549 92q70 6 120 30.5t82.5 61.5t48 81t15.5 89q0 102 -43 160.5t-135 106.5z" />
<glyph unicode="%" horiz-adv-x="1495" d="M178 948q0 80 22.5 160t65.5 143.5t106.5 103.5t143.5 40q55 0 96 -21.5t68 -58.5t40 -85t13 -100q0 -80 -22.5 -159.5t-65.5 -143t-105.5 -103.5t-142.5 -40q-57 0 -98 21.5t-67.5 58.5t-40 85t-13.5 99zM258 0l911 1319q29 41 52.5 58.5t58.5 17.5t57 -15l-956 -1380 h-123zM291 924q2 -78 35.5 -112t81.5 -34q43 0 81.5 28t67.5 78t44 118.5t15 152.5q-2 76 -31.5 110.5t-80.5 34.5q-47 0 -87 -27.5t-67.5 -76.5t-43 -118.5t-15.5 -153.5zM858 233q0 80 22.5 160t65.5 143.5t106.5 103.5t143.5 40q55 0 96 -21.5t67.5 -58.5t40 -85 t13.5 -99q0 -80 -22.5 -160t-65.5 -143.5t-105.5 -103.5t-142.5 -40q-57 0 -98 21.5t-67.5 58.5t-40 85t-13.5 99zM971 209q2 -78 35.5 -112t80.5 -34q43 0 82 28t68 78t44 118.5t15 152.5q-2 76 -31.5 111t-80.5 35q-47 0 -87 -28t-68 -77t-43 -118.5t-15 -153.5z" />
<glyph unicode="&#x26;" horiz-adv-x="1216" d="M115 330q0 76 25.5 142.5t69.5 124.5t103.5 107.5t128.5 90.5q-35 74 -56 143.5t-21 130.5q0 76 23.5 136.5t66.5 102.5t101 64.5t128 22.5q45 0 83 -13.5t66.5 -33t47 -40t26.5 -34.5q16 -33 17 -51q0 -29 -47 -60h-21q-29 70 -75 102.5t-105 32.5q-94 0 -144.5 -60 t-50.5 -159q0 -74 33 -162t89 -183t130 -194.5t156 -195.5q29 66 44 135.5t15 128.5q0 84 -9 141.5t-30 120.5h308l-15 -86h-172q8 -33 14.5 -75.5t6.5 -83.5q0 -96 -22.5 -189.5t-67.5 -173.5q117 -133 227 -239q-37 -35 -78 -35q-29 0 -47 6t-41 33q-27 29 -59.5 63.5 t-67.5 75.5q-76 -88 -181.5 -139.5t-221.5 -51.5q-66 0 -132.5 19.5t-121 61.5t-89 109.5t-34.5 164.5zM238 342q0 -66 20.5 -115t56 -82.5t83.5 -51t102 -17.5q100 0 184 44t143 122q-90 104 -181 226t-161 245q-111 -68 -179 -161t-68 -210z" />
<glyph unicode="'" horiz-adv-x="362" d="M207 920l78 473q10 2 28 2q41 0 58.5 -27t17.5 -49q0 -6 -1 -17.5t-5 -31.5l-74 -350h-102z" />
<glyph unicode="(" horiz-adv-x="518" d="M160 309q0 250 43 440.5t101 325.5t116.5 218t91.5 120q49 55 104 55q30 0 48 -18q-104 -115 -175 -252t-115 -286.5t-63.5 -306t-19.5 -308.5q0 -92 9 -178t23.5 -158t32 -126t33.5 -83q-10 -4 -20.5 -7t-24.5 -3q-29 0 -46 12.5t-34 36.5q-8 12 -25.5 54t-35 110 t-30.5 157t-13 197z" />
<glyph unicode=")" horiz-adv-x="518" d="M-59 -240q104 115 174.5 252.5t114.5 287t63.5 306t19.5 307.5q0 92 -9 178.5t-23.5 158t-32 126t-33.5 82.5q10 4 20.5 7t24.5 3q29 0 46.5 -12t33.5 -37q8 -12 25.5 -54t35 -109.5t30.5 -157.5t13 -197q0 -250 -43 -440.5t-101 -325.5t-116.5 -218t-91.5 -120 q-49 -55 -104 -55q-29 0 -47 18z" />
<glyph unicode="*" horiz-adv-x="724" d="M160 965q0 18 8 32.5t25 18.5l131 39q4 2 13 4t13 2q12 0 18.5 -9.5t6.5 -19.5q0 -12 -8 -20l-111 -111q-14 -14 -31 -14q-29 0 -47 26.5t-18 51.5zM162 1241q0 25 18.5 51.5t46.5 26.5q16 0 31 -14l109 -113q8 -9 8 -21q0 -10 -7.5 -19t-17.5 -9q-6 0 -15 2t-13 4 l-127 41q-16 4 -24.5 18.5t-8.5 32.5zM399 801q0 6 7 28l34 140q6 20 27 20q18 0 25 -20l30 -131q4 -10 6 -21.5t2 -17.5q0 -20 -17 -37t-48 -17q-29 0 -47.5 16.5t-18.5 39.5zM401 1401q0 23 15.5 40t50.5 17t50 -16.5t15 -36.5q0 -6 -2 -16.5t-4 -16.5l-32 -137 q-6 -20 -27 -21q-20 0 -27 21l-32 139q-6 18 -7 27zM557 1032q0 10 6 19.5t17 9.5q4 0 12 -2t12 -4l133 -41q35 -12 35 -51q0 -23 -8 -41q-18 -37 -57 -37q-10 0 -21.5 6t-17.5 14l-103 107q-8 8 -8 20zM557 1171q0 12 8 21l111 111q14 14 31 14q29 0 47 -26.5t18 -51.5 q0 -18 -8 -32.5t-25 -18.5l-129 -39q-4 -2 -13 -4t-15 -2q-10 0 -17.5 9t-7.5 19z" />
<glyph unicode="+" d="M221 639l19 104h301l55 328h109l-54 -328h303l-18 -104h-301l-55 -326h-109l53 326h-303z" />
<glyph unicode="," horiz-adv-x="405" d="M25 -176q45 23 88 58.5t53 92.5q-23 8 -39 28t-16 52q0 53 28.5 86t69.5 33t61.5 -25.5t20.5 -66.5t-12.5 -83t-32 -80t-46 -69.5t-57.5 -50.5q-14 -10 -30.5 -16t-32.5 -6q-18 0 -34.5 11t-20.5 36z" />
<glyph unicode="-" horiz-adv-x="827" d="M170 565q0 4 1 13.5t5 23.5h463q45 0 63.5 -17.5t18.5 -52.5q0 -4 -1 -13t-5 -23h-463q-45 0 -63.5 17t-18.5 52z" />
<glyph unicode="." horiz-adv-x="403" d="M84 47q-4 47 23.5 89t82.5 42q35 0 55.5 -23.5t24.5 -56.5q4 -47 -23.5 -88t-80.5 -41q-37 0 -57.5 22.5t-24.5 55.5z" />
<glyph unicode="/" horiz-adv-x="681" d="M-20 0l688 1296q23 41 45 61.5t59 20.5q12 0 24.5 -3t28.5 -13l-723 -1362h-122z" />
<glyph unicode="0" d="M135 455q0 156 36 318.5t107.5 295.5t181 218t255.5 85q100 0 169.5 -42t112.5 -110.5t62.5 -156.5t19.5 -182q0 -160 -36.5 -323t-108.5 -294t-181.5 -213t-252.5 -82q-102 0 -172 42t-113 109.5t-61.5 154.5t-18.5 180zM264 438q0 -76 13.5 -141.5t43 -114.5t75 -77.5 t108.5 -28.5q94 0 176 62.5t142.5 173t94 261t33.5 326.5q0 76 -14 143.5t-44 116.5t-77 78t-110 29q-96 0 -177.5 -64.5t-139.5 -176.5t-91 -263.5t-33 -323.5z" />
<glyph unicode="1" d="M360 1100q0 23 12.5 34t35.5 23l340 191q29 14 53 14q35 0 53 -25l-221 -1337h-121l199 1208l-326 -174q-10 16 -17.5 32.5t-7.5 33.5z" />
<glyph unicode="2" d="M109 0l14 100q74 59 175 143.5t206 186.5q84 82 153.5 158t120.5 149.5t79 145t28 149.5q0 123 -64.5 178.5t-175.5 55.5q-86 0 -170 -45t-141 -125h-17q-20 12 -33.5 26.5t-13.5 34.5q0 37 43 78q25 25 60 49.5t79 44t95 32.5t108 13q178 0 266.5 -88t88.5 -239 q0 -98 -36 -189.5t-96.5 -175.5t-136 -164t-153.5 -153q-90 -86 -171 -153t-134 -110h571q43 0 60.5 -16t17.5 -51v-12.5t-4 -22.5h-819z" />
<glyph unicode="3" d="M80 147q0 23 12 39.5t43 42.5q55 -72 129 -112.5t185 -40.5q51 0 110 15t108.5 51t82 97.5t32.5 153.5q0 70 -23.5 120t-60 83t-83 47t-89.5 14h-59l16 101h54q39 0 94 17.5t107.5 54t89 93t36.5 134.5q0 90 -56 149.5t-187 59.5q-84 0 -159 -38t-138 -116h-17 q-49 27 -49 59q0 25 15.5 43.5t27.5 30.5q18 18 51 40t76 42.5t95.5 33.5t109.5 13q88 0 153.5 -23.5t110.5 -64.5t67.5 -97t22.5 -124q0 -63 -22.5 -118.5t-61.5 -100.5t-91 -80t-110 -55q104 -47 156.5 -126t52.5 -179q0 -90 -29.5 -169t-88 -138.5t-146.5 -94.5t-207 -35 q-66 0 -119 12.5t-94 30t-70.5 39t-47.5 39.5q-29 29 -29 57z" />
<glyph unicode="4" d="M117 373l12 88l737 860q35 41 80 41q16 0 28.5 -4t22.5 -8l-145 -877h61q43 0 60.5 -15.5t17.5 -49.5v-12.5t-4 -22.5h-151l-62 -373h-117l62 373h-602zM266 473h471l115 678z" />
<glyph unicode="5" d="M135 147q0 23 15.5 43.5t39.5 38.5q55 -72 128 -112.5t184 -40.5q61 0 121.5 18.5t106.5 62.5t75 118.5t29 185.5q0 131 -77 209t-212 78q-78 0 -128 -11.5t-106 -27.5l-30 18l122 631h615q0 -47 -19.5 -77t-74.5 -30h-430l-80 -422q27 6 71.5 13.5t106.5 7.5 q84 0 152.5 -31t116.5 -83t75 -121.5t27 -145.5q0 -104 -31 -195.5t-90.5 -159t-147 -106.5t-200.5 -39q-66 0 -119 12.5t-94 30t-70 39t-47 39.5q-29 29 -29 57z" />
<glyph unicode="6" d="M174 424q2 174 51 344t146.5 305t243 218t341.5 83q68 0 68 -49q0 -10 -3 -24.5t-11 -30.5h-64q-86 0 -167 -21.5t-150 -68.5q-98 -66 -176 -171.5t-113 -240.5q27 27 63.5 48.5t78.5 36.5t84 23.5t79 6.5q86 -4 153.5 -36t113.5 -86t70 -127t22 -155q-2 -90 -30 -181 t-85.5 -164t-142 -119t-199.5 -46q-82 0 -150.5 31t-119 89t-78 143.5t-25.5 191.5zM293 428q-2 -96 19.5 -162.5t59.5 -109.5t86 -62.5t97 -19.5q133 0 225 102.5t97 300.5q2 135 -66 218t-184 83q-47 0 -94.5 -13t-88.5 -33.5t-73.5 -48.5t-53.5 -54q-10 -37 -17 -81 t-7 -120z" />
<glyph unicode="7" d="M225 0l695 1249h-693q0 43 19.5 76t72.5 33h701q31 0 45 -10.5t10 -40.5l-4 -27l-711 -1280h-135z" />
<glyph unicode="8" d="M139 322q0 80 25.5 144t70 113.5t101.5 84t119 55.5q-100 57 -139.5 124.5t-39.5 141.5q0 94 35 167t93.5 122t132 74.5t151.5 25.5q80 0 146.5 -23.5t112.5 -65.5t71.5 -99.5t25.5 -124.5q0 -72 -22.5 -128t-60 -98t-86 -72t-99.5 -48q106 -47 164.5 -128t58.5 -179 q0 -109 -37.5 -191t-101 -137t-146.5 -83t-175 -28q-88 0 -162 25.5t-126 72t-82 112t-30 143.5zM264 322q0 -111 73 -181.5t202 -70.5q68 0 129 21.5t106 62.5t71.5 103t26.5 146q0 53 -20.5 100.5t-56 82.5t-84.5 55.5t-109 20.5q-63 0 -123.5 -23t-108.5 -66t-77 -106.5 t-29 -144.5zM393 989q0 -45 18.5 -85t50.5 -70.5t75 -48t92 -17.5q55 0 108.5 18.5t94 54.5t66.5 91t26 129q0 92 -62.5 152.5t-177.5 60.5q-125 0 -208 -70.5t-83 -214.5z" />
<glyph unicode="9" d="M193 868q2 90 30.5 180.5t86 163t142.5 117.5t199 45q82 0 150.5 -30.5t119 -88t78 -141.5t25.5 -190q-4 -174 -49 -345t-138.5 -306.5t-235.5 -219.5t-339 -84q-68 0 -67 49q0 27 14 58h63q223 0 373 136t215 378q-27 -29 -63.5 -52.5t-77.5 -40t-83 -24.5t-79 -6 q-86 2 -154.5 35t-115.5 86t-72 124.5t-22 155.5zM319 870q-2 -135 69 -217t187 -82q47 0 94.5 13.5t87.5 37t72.5 52t53.5 59.5q10 37 16 76t6 111q0 94 -22.5 161.5t-59.5 108.5t-84 60.5t-96 19.5q-133 0 -226 -100.5t-98 -299.5z" />
<glyph unicode=":" horiz-adv-x="403" d="M84 47q-4 47 23.5 89t82.5 42q35 0 55.5 -23.5t24.5 -56.5q4 -47 -23.5 -88t-80.5 -41q-37 0 -57.5 22.5t-24.5 55.5zM207 821q-4 47 23.5 89t82.5 42q35 0 55.5 -23.5t24.5 -56.5q4 -47 -23.5 -88t-80.5 -41q-37 0 -57.5 22.5t-24.5 55.5z" />
<glyph unicode=";" horiz-adv-x="403" d="M-4 -176q45 23 88 58.5t53 92.5q-23 8 -39 28t-16 52q0 53 28.5 86t69.5 33t61.5 -25.5t20.5 -66.5t-12.5 -83t-32 -80t-46 -69.5t-57.5 -50.5q-14 -10 -30.5 -16t-32.5 -6q-18 0 -34.5 11t-20.5 36zM207 821q-4 47 23.5 89t82.5 42q35 0 55.5 -23.5t24.5 -56.5 q4 -47 -23.5 -88t-80.5 -41q-37 0 -57.5 22.5t-24.5 55.5z" />
<glyph unicode="&#x3c;" d="M217 614l14 93l779 360l-23 -129l-635 -283l541 -295l-16 -116z" />
<glyph unicode="=" d="M193 457l18 104h715l-19 -104h-714zM250 813l18 105h715l-18 -105h-715z" />
<glyph unicode="&#x3e;" d="M174 254l23 129l634 283l-540 295l16 116l660 -370l-15 -93z" />
<glyph unicode="?" horiz-adv-x="825" d="M190 1223q-2 14 5.5 29.5t17.5 27.5q14 18 42 37.5t67.5 37t91 29t112.5 11.5q143 0 233.5 -78t90.5 -217q0 -70 -18.5 -126t-53.5 -109.5t-86 -105.5t-117 -114q-35 -31 -66.5 -62.5t-56 -66.5t-39 -75t-14.5 -89q-10 -2 -17 -2h-11q-68 0 -68 72q0 78 55.5 146.5 t126.5 140.5q53 51 97.5 95t77 88t50 93t17.5 111q0 100 -61.5 147t-151.5 47q-164 0 -268 -121h-21q-14 12 -23 24.5t-12 29.5zM215 47q-4 47 24 89t83 42q35 0 55 -23.5t24 -56.5q4 -47 -23.5 -88t-80.5 -41q-37 0 -57.5 22.5t-24.5 55.5z" />
<glyph unicode="@" horiz-adv-x="1419" d="M104 997q0 18 11.5 32.5t27.5 33.5q33 35 87.5 75t127 73.5t159.5 56t185 22.5q154 0 274 -52t202 -142t125 -214t43 -266q0 -180 -43 -337.5t-128 -275.5t-209 -185.5t-286 -67.5q-100 0 -185 24.5t-147.5 73t-97.5 120t-35 167.5q0 98 39 175t103.5 129.5t144.5 79 t164 26.5h31.5t41 -1t42 -3t34.5 -4l4 24q4 23 6 45.5t2 42.5q0 80 -41 128t-145 48q-61 0 -129 -32.5t-121 -98.5h-16l-21 19q-18 18 -18 41t20 43q53 55 133 91t168 36q147 0 215 -76t68 -191q0 -41 -10 -92l-53 -282q-4 -16 -5.5 -33t-1.5 -27q0 -41 16.5 -56t45.5 -15 q27 0 51 8l8 -45q-59 -33 -112 -33q-66 0 -94.5 35t-28.5 86q0 23 2 43t8 49l33 156q-37 6 -73 7t-62 1q-74 0 -134.5 -23.5t-105.5 -65.5t-69.5 -101.5t-24.5 -133.5q0 -76 25.5 -129t72.5 -88t112.5 -51.5t143.5 -16.5q145 0 248.5 67t169 174.5t95.5 245.5t30 284 q0 125 -35 228t-103.5 178t-170 116t-232.5 41q-147 0 -283.5 -65.5t-236.5 -182.5h-16l-21 18q-25 20 -25 43z" />
<glyph unicode="A" horiz-adv-x="1081" d="M-29 0l682 1360q29 14 58 14q25 0 40 -14t19 -35l238 -1325h-121l-66 383h-542l-187 -383h-121zM332 485h471l-125 713z" />
<glyph unicode="B" horiz-adv-x="1067" d="M109 0l227 1366q35 4 66.5 7t65.5 6t72 4t87 1q100 0 173.5 -22.5t121 -61t70 -93t22.5 -115.5q0 -94 -28 -161t-68.5 -113t-87 -71.5t-82.5 -37.5q29 -4 68.5 -23.5t75.5 -54.5t60.5 -85t24.5 -116q0 -115 -36 -195.5t-103.5 -133t-165 -77t-219.5 -24.5h-344zM242 100 h223q190 0 285.5 74t95.5 244q0 63 -24.5 108t-66.5 74t-97.5 42t-114.5 13h-209zM350 756h203q86 0 148.5 24.5t103.5 67.5t61.5 98.5t20.5 116.5q0 117 -62.5 169t-206.5 52q-41 0 -94 -3t-88 -7z" />
<glyph unicode="C" horiz-adv-x="1093" d="M158 528q0 160 43 315.5t127 277.5t209 198t290 76q74 0 128.5 -15.5t93 -36t63.5 -43t37 -36.5q31 -37 31 -66q0 -10 -7.5 -28.5t-48.5 -45.5h-18q-55 100 -131 132t-166 32q-119 0 -216 -61.5t-166 -166t-105.5 -242.5t-36.5 -292q0 -94 21.5 -176t63.5 -143.5 t106.5 -96t150.5 -34.5q106 0 193 41t165 116l25 -26q23 -23 22 -45q0 -29 -16.5 -46.5t-46.5 -39.5q-47 -35 -137.5 -71t-213.5 -36q-127 0 -215 46t-142 124t-78.5 179.5t-24.5 209.5z" />
<glyph unicode="D" horiz-adv-x="1206" d="M109 0l225 1366q92 10 160.5 14t136.5 4q156 0 257 -42t161.5 -111.5t85 -160.5t24.5 -189q0 -195 -46 -357t-140 -278.5t-236.5 -181t-333.5 -64.5h-294zM246 100h166q172 0 290.5 64.5t192.5 173t105.5 250t31.5 293.5q0 86 -20.5 159.5t-66.5 127t-120.5 84 t-185.5 30.5h-48t-56.5 -2t-54 -4t-40.5 -4z" />
<glyph unicode="E" horiz-adv-x="925" d="M109 0l227 1370h690q0 -43 -17.5 -72.5t-70.5 -29.5h-496l-84 -500h433l-17 -102h-432l-94 -564h516q43 0 60.5 -16t17.5 -51v-12.5t-4 -22.5h-729z" />
<glyph unicode="F" horiz-adv-x="878" d="M109 0l227 1370h690q0 -43 -17.5 -72.5t-70.5 -29.5h-496l-86 -506h432l-16 -103h-432l-109 -659h-122z" />
<glyph unicode="G" horiz-adv-x="1232" d="M158 528q0 160 43 315.5t127 277.5t209 198t290 76q74 0 128.5 -15.5t93 -36t63.5 -43t37 -36.5q31 -37 31 -66q0 -10 -7.5 -28.5t-48.5 -45.5h-18q-55 100 -131 132t-166 32q-119 0 -216 -61.5t-166 -166t-105.5 -242.5t-36.5 -292q0 -94 21.5 -176t63.5 -143.5 t106.5 -96t150.5 -34.5q123 0 202.5 41t126.5 86l66 385h-287l19 102h405l-86 -514q-31 -39 -75 -76t-101 -66.5t-127 -47t-152 -17.5q-127 0 -215 46t-142 124t-78.5 179.5t-24.5 209.5z" />
<glyph unicode="H" horiz-adv-x="1224" d="M109 0l225 1372q10 2 24 2q37 0 59.5 -23.5t22.5 -58.5v-9t-2 -13l-84 -510h654l102 612q10 2 25 2q37 0 59.5 -23.5t22.5 -58.5v-9t-3 -13l-210 -1270h-121l108 657h-653l-109 -657h-120z" />
<glyph unicode="I" horiz-adv-x="444" d="M109 0l227 1372q10 2 24 2q37 0 58.5 -23.5t21.5 -58.5v-9t-2 -13l-209 -1270h-120z" />
<glyph unicode="J" horiz-adv-x="446" d="M-186 -285q0 10 4 21.5t8 19.5q16 -4 24.5 -4h14.5q63 0 106 21.5t71 59.5t44 89t27 111l223 1339q10 2 24 2q37 0 58.5 -23.5t21.5 -58.5v-9t-2 -13l-200 -1223q-10 -66 -31 -135.5t-59.5 -126.5t-101 -95t-157.5 -38q-49 0 -62 15.5t-13 47.5z" />
<glyph unicode="K" horiz-adv-x="1001" d="M109 0l227 1372q10 2 24 2q37 0 58.5 -23.5t21.5 -58.5v-9t-2 -13l-209 -1270h-120zM381 711l8 51l567 561q29 29 56.5 40t50.5 11q39 0 70 -24l-623 -615l432 -743q-18 -6 -31.5 -8t-29.5 -2q-41 0 -67 13t-48 54z" />
<glyph unicode="L" horiz-adv-x="872" d="M109 0l225 1372q10 2 26 2q37 0 58.5 -23.5t21.5 -58.5v-9t-2 -13l-192 -1168h489q43 0 60.5 -16t17.5 -51v-12.5t-4 -22.5h-700z" />
<glyph unicode="M" horiz-adv-x="1464" d="M59 0l314 1364q20 10 55 10q33 0 49.5 -14t26.5 -47l235 -867l521 863q27 45 54 55t50 10q16 0 32.5 -2t26.5 -8l-127 -1364h-118l116 1169l-512 -841h-120l-228 821l-258 -1149h-117z" />
<glyph unicode="N" horiz-adv-x="1245" d="M109 0l225 1364q16 6 27.5 8t23.5 2q27 0 45.5 -11t32.5 -42l483 -1139l193 1190q10 2 24 2q37 0 57.5 -23.5t20.5 -58.5v-9t-2 -13l-211 -1270h-117l-499 1163l-189 -1163h-114z" />
<glyph unicode="O" horiz-adv-x="1280" d="M158 494q0 160 40 320.5t120.5 289.5t202.5 210t288 81q117 0 197.5 -45t131 -119t73 -168t22.5 -193q0 -160 -40 -320.5t-121 -289.5t-202.5 -210t-287.5 -81q-117 0 -198 45t-131 119t-72.5 168t-22.5 193zM285 492q0 -80 16 -156t52 -134.5t93.5 -93t139.5 -34.5 q119 0 215 66.5t163.5 178t104.5 256t37 297.5q0 80 -17.5 156t-54.5 134.5t-95 93t-142 34.5q-121 0 -216.5 -67.5t-161 -178t-100 -255t-34.5 -297.5z" />
<glyph unicode="P" horiz-adv-x="997" d="M113 0l227 1366q63 8 130 13t153 5q104 0 183 -27.5t131 -74.5t77.5 -109.5t25.5 -132.5q0 -131 -44 -223t-118.5 -149.5t-175 -84t-213.5 -26.5h-167l-93 -557h-116zM338 659h174q209 0 305 96.5t96 282.5q0 119 -76.5 182.5t-224.5 63.5q-43 0 -89 -3t-83 -7z" />
<glyph unicode="Q" horiz-adv-x="1280" d="M158 494q0 160 40 320.5t120.5 289.5t202.5 210t288 81q117 0 197.5 -45t131 -119t73 -168t22.5 -193q0 -160 -40 -320.5t-121 -289.5t-202.5 -210t-287.5 -81q-117 0 -198 45t-131 119t-72.5 168t-22.5 193zM285 492q0 -80 16 -156t52 -134.5t93.5 -93t139.5 -34.5 q119 0 215 66.5t163.5 178t104.5 256t37 297.5q0 80 -17.5 156t-54.5 134.5t-95 93t-142 34.5q-121 0 -216.5 -67.5t-161 -178t-100 -255t-34.5 -297.5zM571 -96q14 16 39 21q10 2 19 2q14 0 28 -5q27 -10 60 -29.5t73.5 -39t95 -34t124.5 -14.5q-4 -45 -24.5 -81.5 t-63.5 -36.5q-51 0 -100.5 22.5t-94.5 56t-85 70.5t-71 68z" />
<glyph unicode="R" horiz-adv-x="1011" d="M109 0l227 1368q51 6 86 9t65.5 4t60.5 2t73 1h13q86 0 156 -24q74 -26 125.5 -71.5t78 -105t26.5 -124.5q0 -193 -101.5 -300.5t-271.5 -142.5l260 -622q-29 -12 -61 -12q-45 0 -66.5 24.5t-38.5 65.5l-219 528h-198l-99 -600h-116zM340 700h154q86 0 159.5 18.5 t127 58.5t83 104.5t29.5 156.5q0 133 -82 189.5t-215 56.5q-45 0 -82 -2t-78 -6z" />
<glyph unicode="S" horiz-adv-x="935" d="M57 127q0 37 52 74q59 -59 128.5 -92t174.5 -33q84 0 144 22.5t99 60.5t57.5 89t18.5 108q0 70 -22.5 117t-59.5 83t-84 62.5t-96 57.5t-98 63.5t-88 74.5t-62.5 96.5t-23.5 127.5q0 84 34.5 149.5t93 112t134.5 71t157 24.5q57 0 104.5 -11.5t84.5 -27t61.5 -34 t38.5 -30.5q29 -27 29 -57q0 -39 -47 -70h-19q-51 70 -120.5 97.5t-147.5 27.5q-59 0 -110.5 -17.5t-89.5 -48t-59.5 -72.5t-21.5 -93q0 -61 21.5 -105.5t59.5 -78t88.5 -64.5t107.5 -68q49 -31 97 -65.5t86 -77.5t60.5 -98.5t22.5 -128.5q0 -100 -34.5 -176t-96 -126.5 t-146.5 -76t-186 -25.5q-82 0 -155.5 21.5t-130.5 58.5q-55 35 -56 78z" />
<glyph unicode="T" horiz-adv-x="1013" d="M178 1268q0 43 17.5 72.5t70.5 29.5h891q0 -43 -17.5 -72.5t-70.5 -29.5h-350l-209 -1268h-121l209 1268h-420z" />
<glyph unicode="U" horiz-adv-x="1163" d="M156 358q0 41 6 97.5t14 103.5l133 813q10 2 25 2q37 0 59.5 -23.5t22.5 -58.5v-9t-2 -13l-121 -733q-8 -43 -10 -98.5t-2 -92.5q0 -55 15 -105.5t49 -87t87 -59t131 -22.5q162 0 253 106.5t126 323.5l143 870q10 2 25 2q37 0 58.5 -23.5t21.5 -58.5v-9t-2 -13l-125 -756 q-16 -106 -46 -204.5t-85 -174.5t-144.5 -121t-224.5 -45q-211 0 -309 101.5t-98 287.5z" />
<glyph unicode="V" horiz-adv-x="1071" d="M193 1368q27 6 51 6q41 0 60.5 -24.5t27.5 -71.5l176 -1137l541 1155q18 41 44.5 59.5t71.5 18.5q14 0 25.5 -1t21.5 -3l-665 -1370h-123z" />
<glyph unicode="W" horiz-adv-x="1579" d="M193 1368q27 6 51 6q41 0 60.5 -24.5t25.5 -71.5l149 -1128l393 886l-38 332q16 4 25 5t22 1q41 0 56 -24.5t21 -69.5l144 -1133l461 1149q31 78 114 78q14 0 23.5 -1t19.5 -3l-569 -1370h-139l-115 850l-375 -850h-137z" />
<glyph unicode="X" horiz-adv-x="987" d="M-18 0l501 717l-252 643q35 14 54 14q41 0 62.5 -17.5t37.5 -60.5l186 -485l336 473q31 43 60.5 66.5t70.5 23.5q29 0 56 -14l-471 -658l280 -706q-31 -14 -57 -14q-41 0 -61.5 17t-36.5 60l-211 547l-422 -606h-133z" />
<glyph unicode="Y" horiz-adv-x="940" d="M193 1360q35 14 59 14q35 0 56.5 -17.5t35.5 -60.5l188 -585l371 573q35 53 59.5 71.5t67.5 18.5q25 0 51 -14l-503 -766l-99 -594h-121l97 586z" />
<glyph unicode="Z" horiz-adv-x="952" d="M-14 0l12 86q217 303 446.5 593t479.5 589h-725q0 43 17 72.5t71 29.5h737q35 0 49 -10t14 -39q0 -16 -7 -28.5t-13 -20.5q-233 -270 -469 -564t-459 -606h664q43 0 60.5 -16t17.5 -51v-12.5t-4 -22.5h-891z" />
<glyph unicode="[" horiz-adv-x="509" d="M23 -279l290 1747h336l-16 -98h-221l-254 -1550h219l-17 -99h-337z" />
<glyph unicode="\" horiz-adv-x="665" d="M172 1364q18 10 33.5 12t25.5 2q29 0 44.5 -15t25.5 -56l281 -1307h-117z" />
<glyph unicode="]" horiz-adv-x="509" d="M-66 -279l17 99h221l254 1550h-219l16 98h338l-291 -1747h-336z" />
<glyph unicode="^" horiz-adv-x="827" d="M102 635l400 717q10 16 28.5 29.5t44.5 13.5q27 0 39.5 -13.5t16.5 -29.5l172 -717h-115l-139 606l-326 -606h-121z" />
<glyph unicode="_" horiz-adv-x="854" d="M8 -205h711v-90h-711v90z" />
<glyph unicode="`" horiz-adv-x="696" d="M197 1337q12 12 32.5 23.5t42.5 11.5q31 0 48.5 -10t35.5 -41l144 -234q-6 -8 -21.5 -15t-32.5 -7q-39 0 -61 29z" />
<glyph unicode="a" horiz-adv-x="952" d="M113 319q0 111 34.5 227t100 211t161 155.5t216.5 60.5q49 0 94 -10.5t82 -25.5t64.5 -31.5t43.5 -28.5l-114 -689q-4 -16 -5.5 -32.5t-1.5 -26.5q0 -41 16.5 -56.5t45.5 -15.5q27 0 51 9l8 -46q-57 -32 -109 -32h-3q-66 0 -95.5 34.5t-29.5 86.5v14q-47 -61 -116 -105.5 t-148 -44.5q-78 0 -133.5 27t-91.5 73t-53 109.5t-17 136.5zM233 315q0 -111 47.5 -173t153.5 -62q27 0 68 13t82 46t74.5 84t46.5 129l79 486q-29 16 -65.5 27.5t-102.5 11.5q-80 0 -149.5 -46.5t-121.5 -124t-82 -179t-30 -212.5z" />
<glyph unicode="b" horiz-adv-x="983" d="M111 55l229 1399q10 2 25 2q37 0 58 -23.5t21 -58.5v-9t-2 -13l-86 -525q55 63 131 104.5t152 41.5q80 0 136 -30t93 -80t53.5 -118.5t16.5 -148.5q0 -104 -35 -215t-102.5 -202t-170 -150.5t-237.5 -59.5q-86 0 -153.5 24.5t-128.5 61.5zM236 100q39 -23 76.5 -28.5 t86.5 -5.5q94 0 171 46t131.5 120.5t84 172t29.5 199.5q0 129 -47 195.5t-158 66.5q-33 0 -78 -14t-89 -47t-78.5 -86t-47.5 -129z" />
<glyph unicode="c" horiz-adv-x="835" d="M117 350q0 145 44 261t114.5 196t159.5 123t179 43q100 0 161 -34t91 -77q18 -27 19 -49q0 -25 -9.5 -33t-19.5 -18l-25 -21h-16q-25 70 -80 101.5t-133 31.5q-70 0 -135.5 -39.5t-115.5 -108.5t-79.5 -163t-29.5 -203q0 -133 58 -212.5t181 -79.5q70 0 127.5 28.5 t114.5 98.5l29 -27q18 -18 18 -41q0 -27 -17.5 -44t-45.5 -40q-39 -29 -103.5 -51.5t-136.5 -22.5q-61 0 -122.5 17.5t-113 60.5t-83 117t-31.5 186z" />
<glyph unicode="d" horiz-adv-x="978" d="M111 346q0 104 33.5 215t98 202t160 150.5t218.5 59.5q59 0 115.5 -20.5t88.5 -43.5l88 545q10 2 25 2q37 0 58.5 -23.5t21.5 -58.5v-9t-2 -13l-193 -1164q-4 -16 -5 -32.5t-1 -26.5q0 -41 16.5 -56.5t45.5 -15.5q27 0 51 9l8 -46q-57 -32 -110 -32h-3q-66 0 -95.5 34.5 t-29.5 86.5v14q-55 -66 -134 -108t-156 -42q-80 0 -136.5 28t-93.5 77t-53 117.5t-16 150.5zM233 338q0 -129 47.5 -193.5t157.5 -64.5q33 0 78 13t89 46t80 84t48 129l78 465q-35 27 -78 42t-121 15q-82 0 -151.5 -45t-119.5 -120.5t-79 -172t-29 -198.5z" />
<glyph unicode="e" horiz-adv-x="884" d="M117 350q0 145 45 261t116.5 196t162.5 123t182 43q121 0 185 -59.5t64 -165.5q0 -90 -47 -155t-122.5 -108t-170 -63.5t-188.5 -20.5h-55.5t-52.5 2v-43q0 -141 63 -216.5t180 -75.5q78 0 144.5 30.5t124.5 102.5l26 -27q8 -8 14.5 -18.5t6.5 -22.5q0 -29 -17.5 -45 t-46.5 -39q-41 -29 -104.5 -54.5t-161.5 -25.5q-61 0 -122.5 17.5t-112 60.5t-82 117t-31.5 186zM248 487q16 -2 32.5 -2h26.5q100 0 183 18.5t141.5 52.5t90.5 82t32 110q0 53 -29 91t-107 38q-70 0 -131 -31t-109 -83t-82 -123t-48 -153z" />
<glyph unicode="f" horiz-adv-x="622" d="M-293 -332q0 14 2 22.5t12 18.5l23 29q35 -31 72 -46.5t84 -15.5q51 0 85.5 25t57.5 64.5t37 90t22 103.5l183 1118q14 88 38.5 154.5t71.5 124.5q45 53 109.5 82.5t150.5 29.5q61 0 107.5 -14t77 -35.5t46 -45t15.5 -42.5q0 -23 -20 -41l-29 -24h-21q-31 59 -78.5 81.5 t-105.5 22.5q-104 0 -164 -72q-31 -37 -50 -95t-27 -105l-23 -142h322l-17 -96h-321l-148 -893q-12 -76 -31.5 -145.5t-55.5 -123.5t-92 -87t-142 -33q-39 0 -72 7t-57 18q-61 27 -62 65z" />
<glyph unicode="g" horiz-adv-x="962" d="M20 -319q0 12 6.5 22t14.5 18l29 31q57 -70 117.5 -94.5t142.5 -24.5q78 0 137 29t100 79t68 120.5t41 156.5l16 103q-53 -66 -122.5 -109t-155.5 -43q-82 0 -139.5 29t-94.5 79t-53 118.5t-16 150.5q0 104 35.5 215t102 202t162 150.5t214.5 59.5q106 0 183 -33t124 -68 l-144 -864q-39 -233 -154.5 -353t-314.5 -120q-63 0 -125.5 14.5t-109.5 47.5q-29 23 -46.5 40t-17.5 44zM233 338q0 -129 49.5 -195.5t159.5 -66.5q35 0 79 14t85 47t75 85t46 130l80 482q-43 29 -88.5 36t-102.5 7q-80 0 -149.5 -47.5t-121.5 -123t-82 -172t-30 -196.5z " />
<glyph unicode="h" horiz-adv-x="1005" d="M100 0l240 1454q10 2 25 2q37 0 58 -23.5t21 -58.5v-9t-2 -13l-86 -527q55 63 136 105.5t176 42.5q70 0 119 -22.5t79.5 -59.5t45 -86t14.5 -103q0 -35 -4 -72.5t-11 -72.5l-92 -557h-119l93 557q4 29 9 67t5 70q0 84 -41 130t-125 46q-53 0 -106.5 -17t-97.5 -53 t-75.5 -88.5t-44.5 -121.5l-98 -590h-119z" />
<glyph unicode="i" horiz-adv-x="415" d="M123 109q0 23 3 43t7 49l125 755h10q37 0 64.5 -22.5t27.5 -63.5q0 -12 -4 -32q-2 -8 -2 -19l-104 -631q-4 -16 -5 -32.5t-1 -26.5q0 -41 16 -56.5t45 -15.5q27 0 51 9l9 -46q-57 -32 -110 -32h-3q-66 0 -97.5 34.5t-31.5 86.5zM266 1194q0 41 24.5 75t71.5 34 q35 0 53.5 -25t18.5 -57q0 -39 -23.5 -73t-70.5 -34q-37 0 -55.5 22.5t-18.5 57.5z" />
<glyph unicode="j" horiz-adv-x="405" d="M-145 -373h18q49 0 86 16.5t59 45.5q23 29 37.5 73.5t22.5 92.5l180 1101h10q37 0 64.5 -22.5t27.5 -63.5q0 -12 -4 -32q-2 -8 -2 -19l-155 -940q-18 -117 -49 -184.5t-72 -102.5q-41 -37 -88 -47t-74 -10q-43 0 -52 25.5t-9 48.5v18zM266 1194q0 41 24.5 75t71.5 34 q35 0 53.5 -25t18.5 -57q0 -39 -23.5 -73t-70.5 -34q-37 0 -55.5 22.5t-18.5 57.5z" />
<glyph unicode="k" horiz-adv-x="864" d="M100 0l240 1454q10 2 25 2q37 0 58 -23.5t21 -58.5v-9t-2 -13l-223 -1352h-119zM358 506l9 51l348 328q23 23 56.5 47t74.5 24q16 0 25.5 -4t19.5 -10l22 -16l-430 -394l267 -423q16 -25 30.5 -38.5t36.5 -13.5q20 0 45 9l10 -46q-12 -10 -44.5 -21t-61.5 -11 q-47 0 -72.5 13t-54.5 56z" />
<glyph unicode="l" horiz-adv-x="415" d="M123 109q0 23 3 43t7 49l207 1253q10 2 25 2q37 0 58 -23.5t21 -58.5v-9t-2 -13l-192 -1164q-4 -16 -5 -32.5t-1 -26.5q0 -41 16 -56.5t45 -15.5q27 0 51 9l9 -46q-57 -32 -110 -32h-3q-66 0 -97.5 34.5t-31.5 86.5z" />
<glyph unicode="m" horiz-adv-x="1544" d="M100 0l158 956h10q37 0 61.5 -22.5t24.5 -63.5q0 -8 -1 -16t-1 -16q-2 -8 -2 -19q55 66 138 110t176 44q80 0 140 -44t79 -116q55 66 133 113t201 47q68 0 114.5 -22.5t76.5 -59.5t43 -86t13 -103q0 -35 -4 -72.5t-10 -72.5l-92 -557h-119l92 557q4 29 9.5 67t5.5 70 q0 80 -39 128t-117 48q-47 0 -95 -11t-90 -41t-73 -82t-43 -134l-98 -602h-119l92 557q10 59 15 125q1 11 1 22q0 52 -20 93q-16 33 -50 53t-75 20q-51 0 -102.5 -17t-95.5 -53t-75.5 -88.5t-44.5 -121.5l-98 -590h-119z" />
<glyph unicode="n" horiz-adv-x="1005" d="M100 0l158 956h10q37 0 61.5 -22.5t24.5 -63.5q0 -8 -1 -16t-1 -16q-2 -8 -2 -19q55 66 138 110t180 44q70 0 119 -22.5t79.5 -59.5t45 -86t14.5 -103q0 -35 -4 -72.5t-11 -72.5l-92 -557h-119l93 557q4 29 9 67t5 70q0 84 -41 130t-125 46q-53 0 -106.5 -17t-97.5 -53 t-75.5 -88.5t-44.5 -121.5l-98 -590h-119z" />
<glyph unicode="o" horiz-adv-x="987" d="M117 348q0 113 32.5 224.5t95 200.5t154.5 144.5t213 55.5q88 0 149.5 -34t100.5 -87t57.5 -120.5t18.5 -137.5q0 -113 -32 -224.5t-93 -200.5t-153.5 -144.5t-215.5 -55.5q-90 0 -152.5 33t-101 87t-56 122t-17.5 137zM238 352q0 -55 11 -106t36.5 -91t66.5 -63.5 t103 -23.5q82 0 148.5 42t113.5 114.5t72.5 166.5t25.5 199q0 55 -11 106.5t-38 91t-68 63t-102 23.5q-82 0 -148.5 -41.5t-112.5 -114.5t-71.5 -167t-25.5 -199z" />
<glyph unicode="p" horiz-adv-x="985" d="M27 -446l231 1402h10q41 0 62.5 -22.5t21.5 -63.5v-14l-4 -37q55 66 133 110t156 44q80 0 137 -30t93 -81t52.5 -119.5t16.5 -146.5q0 -123 -41 -236.5t-112.5 -199.5t-170 -138.5t-213.5 -52.5q-45 0 -95 11.5t-85 33.5l-76 -460h-116zM233 104q29 -16 69.5 -27 t103.5 -11q82 0 156.5 44t130 117.5t88 171t32.5 205.5q0 123 -44 192.5t-161 69.5q-33 0 -78 -14t-89 -47t-78.5 -86t-47.5 -129z" />
<glyph unicode="q" horiz-adv-x="991" d="M113 307q0 125 36.5 244t106.5 213t170 151.5t229 57.5q98 0 168 -30t119 -66l-219 -1323h-119l92 561q-29 -31 -63.5 -57.5t-71.5 -45t-74.5 -29t-70.5 -10.5q-147 0 -225 87t-78 247zM236 299q0 -117 54 -168t152 -51q33 0 78 15.5t89 48t80 85t48 123.5l80 486 q-37 20 -75 29.5t-97 9.5q-92 0 -167 -48.5t-129 -129.5t-83.5 -185t-29.5 -215z" />
<glyph unicode="r" horiz-adv-x="669" d="M100 0l158 956h10q37 0 61.5 -22.5t24.5 -63.5q0 -8 -1 -16t-1 -16q-2 -8 -2 -19q57 72 125 113t139 41q61 0 105.5 -29t44.5 -70q0 -25 -8 -37t-25 -26l-18 -14h-15q-18 47 -50 59t-64 12q-29 0 -69 -15t-80 -49t-72.5 -87t-45.5 -127l-98 -590h-119z" />
<glyph unicode="s" horiz-adv-x="763" d="M49 94q0 10 5 21.5t14 21.5l24 31q43 -41 104.5 -70.5t143.5 -29.5q66 0 106.5 17t64.5 45t33 58.5t9 59.5q0 35 -16.5 62.5t-42 52t-57 45t-64.5 41.5q-41 27 -79 52t-66.5 57t-45 73t-16.5 96q0 51 20.5 96t60.5 78t97 52.5t129 19.5q88 0 145.5 -29t88.5 -57 q34 -38 34 -63q0 -11 -2 -19t-12 -19l-31 -26h-14q-37 53 -91 85t-126 32q-55 0 -91 -13.5t-57.5 -35t-29.5 -46t-8 -49.5q0 -41 13 -67.5t37.5 -49t61.5 -45t84 -53.5q57 -37 94 -67.5t58.5 -61.5t30 -65.5t8.5 -79.5q0 -59 -24 -109.5t-64.5 -87.5t-99 -57.5t-128.5 -20.5 q-59 0 -116.5 10.5t-110.5 38.5q-31 16 -52.5 34t-21.5 42z" />
<glyph unicode="t" horiz-adv-x="602" d="M127 180q0 27 3 55.5t7 59.5l158 954q10 2 24 2q37 0 56.5 -23.5t19.5 -58.5v-9t-2 -13l-33 -191h289l-16 -96h-285l-92 -567q-4 -25 -7 -47.5t-3 -40.5q0 -78 35.5 -108.5t89.5 -30.5q35 0 74.5 19t68.5 56l21 -18q10 -10 15 -19.5t5 -25.5q0 -23 -16.5 -40.5 t-32.5 -27.5q-29 -18 -64.5 -29.5t-89.5 -11.5q-104 0 -164.5 53.5t-60.5 157.5z" />
<glyph unicode="u" horiz-adv-x="978" d="M131 238q0 61 12 135l95 583h10q37 0 64.5 -22.5t27.5 -63.5q0 -12 -4 -32q-2 -8 -2 -19l-74 -446q-4 -29 -7 -60.5t-3 -62.5q0 -86 40 -132t132 -46q51 0 100 18.5t91 55t72 89t42 119.5l100 602h11q37 0 64.5 -22.5t27.5 -63.5q0 -12 -4 -32q-2 -8 -2 -19l-105 -631 q-4 -16 -5 -32.5t-1 -26.5q0 -41 16.5 -56.5t44.5 -15.5q27 0 52 9l8 -46q-57 -32 -110 -32h-3q-66 0 -95.5 34.5t-29.5 86.5v16q-55 -66 -125.5 -111t-185.5 -45q-119 0 -186.5 70t-67.5 199z" />
<glyph unicode="v" horiz-adv-x="829" d="M131 944q16 6 26.5 9t24.5 3q47 0 62.5 -28.5t23.5 -77.5l115 -725l362 743q25 49 48.5 68.5t60.5 19.5q18 0 30.5 -4t22.5 -10l-487 -950h-121z" />
<glyph unicode="w" horiz-adv-x="1275" d="M129 946q14 4 25.5 7t27.5 3q43 0 58.5 -32.5t21.5 -79.5l100 -729l291 555l-53 276q18 10 47 10q47 0 64.5 -28.5t25.5 -75.5l125 -737l314 741q23 49 48 74.5t66 25.5q16 0 26.5 -4t20.5 -10l-428 -950h-127l-100 540l-285 -540h-123z" />
<glyph unicode="x" horiz-adv-x="751" d="M-6 10l356 488l-207 448q20 10 54 10q43 0 60 -17t34 -52l137 -312l242 334q35 47 78 47q29 0 65 -26l-338 -449l219 -489q-10 -4 -23.5 -6t-25.5 -2q-43 0 -61.5 17t-34.5 52l-152 346l-260 -368q-35 -47 -78 -47q-29 0 -65 26z" />
<glyph unicode="y" horiz-adv-x="837" d="M-88 -381q0 16 10 33l27 35q25 -29 53.5 -41.5t63.5 -12.5q49 0 88 50.5t92 158.5l73 150h-20l-168 952q31 12 55 12q47 0 61.5 -28.5t22.5 -77.5l113 -729l362 747q25 49 48.5 68.5t60.5 19.5q18 0 29.5 -4t21.5 -10l-573 -1151q-29 -57 -56.5 -104t-59.5 -81t-71 -52.5 t-90 -18.5q-16 0 -40.5 4t-47 14.5t-39 27t-16.5 38.5z" />
<glyph unicode="z" horiz-adv-x="763" d="M14 0l13 78q119 166 277.5 361.5t354.5 416.5h-503q0 43 17 71.5t71 28.5h514q29 0 42 -14t13 -35v-14t-4 -23q-184 -207 -348 -400.5t-293 -367.5h450q43 0 60.5 -16t17.5 -51v-12.5t-4 -22.5h-678z" />
<glyph unicode="{" horiz-adv-x="628" d="M168 571l18 109q70 0 111 56.5t57 160.5l47 289q8 47 26.5 97t52.5 92t86 67.5t130 25.5q31 0 55.5 -10t22.5 -45q0 -23 -20 -49q-23 10 -56 10q-29 0 -56.5 -8t-52 -29.5t-44 -56.5t-27.5 -90l-47 -285q-8 -51 -19.5 -95t-31 -81t-50 -63.5t-77.5 -44.5 q59 -16 73.5 -71.5t14.5 -125.5q0 -27 -2 -53.5t-6 -55.5l-51 -319q-2 -14 -3.5 -26.5t-1.5 -22.5q0 -82 36 -108.5t100 -26.5q16 0 28.5 2t20.5 4q10 -25 10 -43q0 -35 -27.5 -48.5t-68.5 -13.5q-111 0 -163 58.5t-52 160.5q0 33 6 68l55 330q6 43 6 82q0 68 -23.5 113.5 t-76.5 45.5z" />
<glyph unicode="|" horiz-adv-x="444" d="M55 -385l322 2011h112l-321 -2011h-113z" />
<glyph unicode="}" horiz-adv-x="628" d="M-63 -229q0 23 20 49q23 -10 55 -10q27 0 55.5 8t53 29.5t44 56.5t28.5 90l47 285q8 51 19 95t30.5 81t50.5 63.5t78 44.5q-59 16 -73.5 71.5t-14.5 125.5q0 27 2 53.5t6 54.5l51 320q2 14 3 26.5t1 22.5q0 82 -35.5 108.5t-99.5 26.5q-16 0 -28.5 -2t-20.5 -4 q-10 25 -10 43q0 35 27.5 48t68.5 13q111 0 163 -58t52 -161q0 -35 -6 -67l-55 -330q-6 -43 -7 -82q0 -68 23.5 -114t77.5 -46l-19 -108q-70 0 -110.5 -56.5t-57.5 -160.5l-47 -289q-8 -47 -26.5 -97.5t-52 -92t-87 -67.5t-129.5 -26q-31 0 -55.5 10.5t-21.5 45.5z" />
<glyph unicode="~" horiz-adv-x="847" d="M145 1096q35 139 104.5 195.5t176.5 56.5q63 0 107.5 -27t78.5 -59q33 -29 65 -52.5t71 -23.5q53 0 94 33.5t63 121.5h96q-35 -139 -104.5 -195t-175.5 -56q-63 0 -108.5 29.5t-80.5 60.5q-33 29 -62.5 50t-68.5 21q-53 0 -95 -33.5t-64 -121.5h-97z" />
<glyph unicode="&#xa1;" horiz-adv-x="421" d="M41 -345q0 5 2 13l156 942q10 4 26 4q37 0 57.5 -23.5t20.5 -58.5v-9t-2 -13l-156 -944q-10 -2 -24 -2q-37 0 -58.5 23.5t-21.5 58.5v9zM207 840q-4 47 23.5 88t80.5 41q37 0 57.5 -22.5t24.5 -55.5q4 -47 -23.5 -89t-82.5 -42q-35 0 -55.5 23.5t-24.5 56.5z" />
<glyph unicode="&#xa2;" d="M252 575q0 131 37 234.5t97 177.5t138 117t160 55l33 197h104l-33 -193q84 -8 136.5 -39.5t81.5 -70.5q18 -27 18 -47q0 -25 -9 -33t-20 -19l-24 -20h-15q-45 119 -184 131l-127 -772q63 4 118.5 32.5t108.5 94.5l29 -27q18 -18 19 -41q0 -27 -17.5 -44t-46.5 -40 q-37 -27 -98.5 -48t-128.5 -25l-35 -213h-105l37 221q-53 10 -102 34.5t-87 68.5t-61.5 109.5t-23.5 159.5zM379 586q0 -109 41 -182.5t123 -100.5l125 754q-59 -16 -111.5 -56t-92.5 -100.5t-62.5 -140.5t-22.5 -174z" />
<glyph unicode="&#xa3;" d="M190 604l17 103h143l47 282q14 86 47 158t86 125q47 47 117 72.5t156 25.5q80 0 136 -20.5t93 -48t53.5 -56t16.5 -47.5q0 -23 -21 -41l-30 -27h-21q-43 78 -97 107t-134 29q-59 0 -100.5 -13.5t-73.5 -40.5q-41 -35 -68 -88t-39 -123l-49 -294h444l-16 -103h-446 l-82 -502h520q43 0 60.5 -16t17.5 -51v-12.5t-4 -22.5h-730l101 604h-144z" />
<glyph unicode="&#xa4;" d="M170 324l100 98q-41 53 -63.5 121.5t-22.5 138.5q0 72 23.5 142.5t64.5 123.5l-102 99l80 79l102 -102q53 39 115.5 60.5t132.5 21.5q141 0 252 -86l106 106l80 -79l-106 -105q39 -53 60.5 -121.5t21.5 -138.5q0 -68 -20.5 -134.5t-59.5 -119.5l104 -104l-80 -78 l-104 102q-53 -41 -117.5 -64.5t-136.5 -23.5q-141 0 -250 84l-100 -98zM301 682q0 -141 76 -232.5t223 -91.5t222 91.5t75 232.5q0 143 -74.5 234.5t-222.5 91.5q-147 0 -223 -91.5t-76 -234.5z" />
<glyph unicode="&#xa5;" d="M182 311l17 95h280l29 184h-281l17 94h237l-221 676q35 14 59 14q35 0 53.5 -17.5t33.5 -60.5l184 -587l364 575q35 53 59.5 71.5t67.5 18.5q25 0 52 -14l-439 -676h232l-17 -94h-284l-29 -184h285l-17 -95h-284l-52 -311h-116l51 311h-281z" />
<glyph unicode="&#xa6;" horiz-adv-x="444" d="M55 -385l131 825h113l-131 -825h-113zM260 858l117 768h112l-120 -768h-109z" />
<glyph unicode="&#xa7;" horiz-adv-x="948" d="M96 -61q0 16 10.5 34.5t36.5 38.5h23q29 -57 81 -92t138 -35q98 0 157.5 58.5t59.5 167.5q0 80 -50 128t-161 101q-51 25 -95 51.5t-78 60t-53.5 76.5t-19.5 99q0 111 57.5 175t143.5 101q-27 35 -40 79t-13 105q0 76 28.5 133.5t76.5 96.5t111.5 58.5t133.5 19.5 q68 0 119 -17.5t85 -42t51 -50t17 -42.5q0 -16 -10 -34.5t-37 -39.5h-22q-29 57 -81 92t-138 35q-100 0 -156.5 -56t-56.5 -167q0 -39 11 -66.5t36.5 -51t64.5 -45t95 -48.5q51 -25 95 -51.5t77.5 -59t53 -75.5t19.5 -98q0 -111 -55 -182.5t-139 -112.5q25 -35 38 -80.5 t13 -104.5q0 -76 -28.5 -134t-78 -97t-114 -59.5t-133.5 -20.5q-68 0 -119 17.5t-85 42t-51.5 50t-17.5 42.5zM270 637q0 -70 50.5 -113t136.5 -84q41 -20 75.5 -39.5t65.5 -42.5q59 31 100 80t41 129q0 70 -49 112t-135 83q-37 16 -70.5 33.5t-62.5 38.5 q-63 -29 -107.5 -72t-44.5 -125z" />
<glyph unicode="&#xa8;" horiz-adv-x="696" d="M90 1174q-4 43 20.5 78.5t75.5 35.5q33 0 50.5 -19.5t21.5 -47.5q4 -41 -20.5 -77t-73.5 -36q-35 0 -52.5 18.5t-21.5 47.5zM436 1174q-4 43 20.5 78.5t75.5 35.5q33 0 50.5 -19.5t21.5 -47.5q4 -41 -20.5 -77t-73.5 -36q-35 0 -52.5 18.5t-21.5 47.5z" />
<glyph unicode="&#xa9;" horiz-adv-x="1556" d="M152 686q0 145 46 274.5t133 225.5t213 152.5t283 56.5q158 0 284 -56.5t213 -152.5t133 -225.5t46 -274.5q0 -147 -46 -277t-133 -227.5t-213 -155t-284 -57.5t-283.5 57.5t-212.5 155t-133 227.5t-46 277zM262 686q0 -121 38 -232.5t110.5 -196.5t178 -136t240.5 -51 t241 51t178.5 136t110.5 196.5t38 232.5t-38 231.5t-110.5 194.5t-178 134t-241.5 50q-135 0 -240.5 -50t-178 -134t-110.5 -194.5t-38 -231.5zM446 696q0 137 45.5 225.5t109 138.5t131 68.5t112.5 18.5q100 0 164.5 -26.5t99.5 -55.5q20 -18 27.5 -31.5t7.5 -27.5 t-10.5 -37t-20.5 -41h-18q-39 53 -95.5 87t-148.5 34q-78 0 -131 -29t-88 -78t-50.5 -112.5t-15.5 -133.5q0 -72 15.5 -135t49.5 -111.5t88 -77t134 -28.5q61 0 106.5 16.5t75.5 38.5q39 25 62 58q12 -10 28.5 -28.5t16.5 -41.5q0 -18 -35 -53q-33 -29 -99.5 -58.5 t-164.5 -29.5q-55 0 -124 18.5t-129.5 67.5t-101.5 137t-41 227z" />
<glyph unicode="&#xaa;" horiz-adv-x="886" d="M186 903q0 88 27 175t79 158t127 115t173 44q39 0 74.5 -8.5t66.5 -19.5t54.5 -24.5t35.5 -21.5l-86 -506q-6 -35 -2 -66.5t43 -31.5q8 0 21.5 1t23.5 5l6 -45q-45 -27 -92 -27q-55 0 -77.5 29t-22.5 72v10q-35 -47 -94.5 -84t-120.5 -37q-121 0 -178.5 73.5t-57.5 188.5 zM297 905q0 -78 38 -125t103 -47q27 0 60.5 12.5t64.5 39t55.5 67.5t34.5 96l54 330q-25 10 -54 18.5t-80 8.5q-57 0 -107 -31t-88 -84t-59.5 -126t-21.5 -159z" />
<glyph unicode="&#xab;" horiz-adv-x="858" d="M178 561q0 39 25.5 64.5t56.5 52.5l277 235q18 -29 18 -57q0 -39 -37 -76l-225 -215l151 -223q12 -16 16.5 -33.5t4.5 -27.5q0 -23 -11.5 -40.5t-27.5 -35.5l-205 266q-16 23 -29.5 43.5t-13.5 46.5zM493 561q0 39 25.5 64.5t56.5 52.5l277 235q18 -29 18 -57 q0 -39 -37 -76l-225 -215l151 -223q12 -16 16.5 -33.5t4.5 -27.5q0 -23 -11.5 -40.5t-27.5 -35.5l-205 266q-16 23 -29.5 43.5t-13.5 46.5z" />
<glyph unicode="&#xac;" d="M209 758l16 104h789l-76 -475h-117l60 371h-672z" />
<glyph unicode="&#xad;" horiz-adv-x="827" d="M170 565q0 4 1 13.5t5 23.5h463q45 0 63.5 -17.5t18.5 -52.5q0 -4 -1 -13t-5 -23h-463q-45 0 -63.5 17t-18.5 52z" />
<glyph unicode="&#xae;" horiz-adv-x="1556" d="M152 686q0 145 46 274.5t133 225.5t213 152.5t283 56.5q158 0 284 -56.5t213 -152.5t133 -225.5t46 -274.5q0 -147 -46 -277t-133 -227.5t-213 -155t-284 -57.5t-283.5 57.5t-212.5 155t-133 227.5t-46 277zM262 686q0 -121 38 -232.5t110.5 -196.5t178 -136t240.5 -51 t241 51t178.5 136t110.5 196.5t38 232.5t-38 231.5t-110.5 194.5t-178 134t-241.5 50q-135 0 -240.5 -50t-178 -134t-110.5 -194.5t-38 -231.5zM588 262v852q59 4 124.5 6t114.5 2q162 0 236 -67.5t74 -173.5q0 -55 -18.5 -99.5t-47.5 -75t-67.5 -50t-77.5 -25.5l219 -369 q-14 -8 -45 -8q-59 0 -92 55l-187 312h-137v-359h-96zM684 707h156q196 0 196 170q0 76 -49 117.5t-160 41.5q-57 0 -143 -6v-323z" />
<glyph unicode="&#xaf;" horiz-adv-x="757" d="M103 1208q0 4 1 13.5t5 21.5h469q43 0 60.5 -15.5t17.5 -49.5q0 -4 -1 -13.5t-6 -21.5h-468q-43 0 -60.5 15.5t-17.5 49.5z" />
<glyph unicode="&#xb0;" horiz-adv-x="696" d="M186 1159q0 53 18.5 100.5t51.5 83t78 56t98 20.5q113 0 179.5 -72.5t66.5 -189.5q0 -53 -18.5 -101t-51.5 -83t-78 -55.5t-98 -20.5q-113 0 -179.5 72.5t-66.5 189.5zM293 1159q0 -74 38 -123t101 -49t101 49t38 121q0 74 -37.5 123t-101.5 49q-63 0 -101 -49t-38 -121z " />
<glyph unicode="&#xb1;" d="M123 -2l18 104h699l-19 -104h-698zM221 639l19 104h301l55 328h109l-54 -328h303l-18 -104h-301l-55 -326h-109l53 326h-303z" />
<glyph unicode="&#xb2;" horiz-adv-x="655" d="M123 643l8 80q137 106 207 176q86 84 140 152.5t54 144.5q0 113 -108 113q-47 0 -85 -22.5t-67 -59.5h-22q-29 25 -29 49q0 20 19 39q35 35 88 58.5t102 23.5q104 0 153.5 -53.5t49.5 -139.5q0 -55 -19.5 -103t-52.5 -93t-75 -87t-83 -81q-35 -33 -66.5 -60.5 t-55.5 -48.5h251q35 0 47.5 -12t12.5 -39v-12.5t-4 -24.5h-465z" />
<glyph unicode="&#xb3;" horiz-adv-x="655" d="M129 739q0 16 11.5 32.5t39.5 35.5q31 -41 70 -64.5t90 -23.5q25 0 52.5 6t50 23.5t38 46t15.5 71.5q0 66 -31 93.5t-76 27.5h-57l10 86h51q20 0 46 7t48.5 22.5t38 42t15.5 65.5q0 41 -26 68t-83 27q-86 0 -153 -82h-23q-18 14 -24.5 25.5t-6.5 25.5q0 18 25 43 q31 31 80 54.5t108 23.5q100 0 151.5 -52.5t51.5 -128.5q0 -66 -40 -110.5t-95 -73.5q47 -23 71.5 -67.5t24.5 -90.5q0 -102 -66.5 -172.5t-199.5 -70.5q-76 0 -120 22.5t-66 44.5q-20 20 -21 43z" />
<glyph unicode="&#xb4;" horiz-adv-x="696" d="M166 1087l184 226q23 29 46.5 44t54.5 15q27 0 47 -11t32 -24l-235 -243q-18 -18 -33.5 -23.5t-38.5 -5.5q-16 0 -33.5 7t-23.5 15z" />
<glyph unicode="&#xb5;" horiz-adv-x="1003" d="M18 -387q31 188 52.5 320.5t38 233.5t30 182t27.5 167t30.5 189.5t41.5 250.5h10q37 0 64.5 -22.5t27.5 -63.5q0 -12 -4 -32q-2 -8 -2 -19l-76 -457q-4 -29 -7 -60.5t-3 -61.5q0 -80 49 -124t141 -44q53 0 102.5 23.5t89.5 64.5t68.5 98t40.5 125l97 573h10 q37 0 64.5 -22.5t27.5 -63.5q0 -12 -4 -32q-2 -8 -2 -19l-105 -631q-4 -16 -5 -32.5t-1 -26.5q0 -41 16.5 -56.5t45.5 -15.5q27 0 51 9l8 -46q-59 -33 -113 -32q-66 0 -95 34.5t-29 86.5v6q-55 -66 -125 -106t-181 -40q-20 0 -44.5 5.5t-50 16.5t-49.5 30.5t-42 50.5 l-76 -459h-119z" />
<glyph unicode="&#xb6;" horiz-adv-x="1040" d="M170 891q0 131 40 222t105.5 149.5t151.5 85t178 26.5h330q41 0 56.5 -20.5t15.5 -42.5q0 -16 -5 -37l-247 -1516h-119l250 1514h-154l-250 -1514h-119l132 785h-23q-156 0 -249 94t-93 254zM295 901q0 -113 57.5 -184.5t179.5 -71.5h19l104 627h-18q-74 0 -136.5 -17.5 t-108.5 -60.5t-71.5 -114.5t-25.5 -178.5z" />
<glyph unicode="&#xb7;" horiz-adv-x="454" d="M186 627q-4 43 21 80.5t76 37.5q33 0 50 -21.5t21 -49.5q4 -41 -20.5 -79t-73.5 -38q-35 0 -52.5 20.5t-21.5 49.5z" />
<glyph unicode="&#xb8;" horiz-adv-x="696" d="M225 -381q0 20 15 49q10 -4 15 -5t21 -1q96 0 97 72q0 18 -9.5 33.5t-21.5 31t-21.5 31.5t-9.5 39q0 47 24.5 79t47.5 50l80 -4q-23 -16 -39 -39t-16 -51q0 -18 10 -34.5t21.5 -35t21.5 -41t10 -53.5q0 -45 -18.5 -77t-48 -51.5t-65.5 -28.5t-69 -9q-27 0 -36 13.5 t-9 31.5z" />
<glyph unicode="&#xb9;" horiz-adv-x="655" d="M219 1204q0 18 11.5 29.5t31.5 21.5l219 127q10 6 23.5 11.5t30.5 5.5q37 0 55 -17l-123 -739h-107l103 623l-223 -123q-10 14 -15.5 31.5t-5.5 29.5z" />
<glyph unicode="&#xba;" horiz-adv-x="843" d="M186 926q0 84 26 168t75 150.5t121.5 108.5t166.5 42q68 0 117 -26t81 -65.5t47.5 -91t15.5 -102.5q0 -84 -25 -168t-74 -150.5t-121.5 -108.5t-166.5 -42q-70 0 -120 24.5t-82 65.5t-46.5 91t-14.5 104zM299 932q0 -37 8 -74t27.5 -64.5t51.5 -45t77 -17.5q57 0 105 31 t82 82t52.5 118.5t18.5 141.5q0 37 -9.5 72.5t-28.5 64.5t-50 46.5t-74 17.5q-59 0 -107.5 -31t-82 -82t-52 -118.5t-18.5 -141.5z" />
<glyph unicode="&#xbb;" horiz-adv-x="858" d="M86 264q0 41 37 78l225 215l-151 221q-12 16 -16.5 33.5t-4.5 28.5q0 23 11.5 40t27.5 35l205 -266q16 -23 29.5 -43t13.5 -47q0 -39 -25.5 -64.5t-56.5 -52.5l-277 -235q-18 29 -18 57zM401 264q0 41 37 78l225 215l-151 221q-12 16 -16.5 33.5t-4.5 28.5q0 23 11.5 40 t27.5 35l205 -266q16 -23 29.5 -43t13.5 -47q0 -39 -25.5 -64.5t-56.5 -52.5l-277 -235q-18 29 -18 57z" />
<glyph unicode="&#xbc;" horiz-adv-x="1658" d="M219 1204q0 18 11.5 29.5t31.5 21.5l219 127q10 6 23.5 11.5t30.5 5.5q37 0 55 -17l-123 -739h-107l103 623l-223 -123q-10 14 -15.5 31.5t-5.5 29.5zM387 0l850 1319q27 41 51 58.5t59 17.5t58 -15l-895 -1380h-123zM1001 158l8 67l408 506q10 14 26.5 20.5t32.5 6.5 q29 0 47 -13l-84 -505h21q31 0 43 -11.5t12 -35.5v-12.5t-4 -22.5h-86l-25 -156h-96l27 156h-330zM1122 240h221l57 344z" />
<glyph unicode="&#xbd;" horiz-adv-x="1658" d="M219 1204q0 18 11.5 29.5t31.5 21.5l219 127q10 6 23.5 11.5t30.5 5.5q37 0 55 -17l-123 -739h-107l103 623l-223 -123q-10 14 -15.5 31.5t-5.5 29.5zM322 0l850 1319q27 41 51 58.5t59 17.5t58 -15l-895 -1380h-123zM997 2l8 80q137 106 207 176q86 84 140 152.5 t54 144.5q0 113 -108 113q-47 0 -85 -22.5t-67 -59.5h-22q-29 25 -29 49q0 20 19 39q35 35 88 58.5t102 23.5q104 0 153.5 -53.5t49.5 -139.5q0 -55 -19.5 -103t-52.5 -93t-75 -87t-83 -81q-35 -33 -66.5 -60.5t-55.5 -48.5h251q35 0 47.5 -12t12.5 -39v-12.5t-4 -24.5h-465 z" />
<glyph unicode="&#xbe;" horiz-adv-x="1658" d="M129 739q0 16 11.5 32.5t39.5 35.5q31 -41 70 -64.5t90 -23.5q25 0 52.5 6t50 23.5t38 46t15.5 71.5q0 66 -31 93.5t-76 27.5h-57l10 86h51q20 0 46 7t48.5 22.5t38 42t15.5 65.5q0 41 -26 68t-83 27q-86 0 -153 -82h-23q-18 14 -24.5 25.5t-6.5 25.5q0 18 25 43 q31 31 80 54.5t108 23.5q100 0 151.5 -52.5t51.5 -128.5q0 -66 -40 -110.5t-95 -73.5q47 -23 71.5 -67.5t24.5 -90.5q0 -102 -66.5 -172.5t-199.5 -70.5q-76 0 -120 22.5t-66 44.5q-20 20 -21 43zM385 0l850 1319q27 41 51 58.5t59 17.5t58 -15l-895 -1380h-123zM1001 158 l8 67l408 506q10 14 26.5 20.5t32.5 6.5q29 0 47 -13l-84 -505h21q31 0 43 -11.5t12 -35.5v-12.5t-4 -22.5h-86l-25 -156h-96l27 156h-330zM1122 240h221l57 344z" />
<glyph unicode="&#xbf;" horiz-adv-x="825" d="M49 -158q0 70 18.5 126.5t53.5 109.5t86 105.5t117 113.5q35 31 66.5 62.5t56 66.5t39 75t14.5 89q10 2 17 2h11q68 0 68 -72q0 -78 -55.5 -146.5t-126.5 -140.5q-53 -53 -97.5 -96t-77 -87t-50 -93t-17.5 -111q0 -100 61.5 -147t151.5 -47q164 0 268 121h21 q14 -12 23.5 -24.5t11.5 -29.5q2 -14 -5.5 -29.5t-17.5 -27.5q-16 -18 -43 -37.5t-66.5 -37t-91 -29t-112.5 -11.5q-143 0 -233.5 78t-90.5 217zM498 844q-4 47 23.5 88t80.5 41q37 0 57.5 -22.5t24.5 -55.5q4 -47 -23.5 -89t-82.5 -42q-35 0 -55.5 23.5t-24.5 56.5z" />
<glyph unicode="&#xc0;" horiz-adv-x="1081" d="M-29 0l682 1360q29 14 58 14q25 0 40 -14t19 -35l238 -1325h-121l-66 383h-542l-187 -383h-121zM332 485h471l-125 713zM487 1667q10 16 33.5 31.5t48.5 15.5q49 0 90 -41l184 -178q-14 -16 -31.5 -24.5t-31.5 -8.5t-29.5 4t-32.5 17z" />
<glyph unicode="&#xc1;" horiz-adv-x="1081" d="M-29 0l682 1360q29 14 58 14q25 0 40 -14t19 -35l238 -1325h-121l-66 383h-542l-187 -383h-121zM332 485h471l-125 713zM563 1495l230 178q25 18 48 29.5t50 11.5q29 0 50.5 -19.5t29.5 -37.5l-279 -174q-33 -20 -67 -21q-43 0 -62 33z" />
<glyph unicode="&#xc2;" horiz-adv-x="1081" d="M-29 0l682 1360q29 14 58 14q25 0 40 -14t19 -35l238 -1325h-121l-66 383h-542l-187 -383h-121zM332 485h471l-125 713zM469 1487l178 186q27 27 45 41.5t49 14.5q35 0 53.5 -17.5t34.5 -46.5l115 -186q-12 -6 -27.5 -11.5t-36.5 -5.5q-20 0 -32.5 9.5t-24.5 27.5 l-92 127l-127 -121q-23 -23 -41.5 -31t-40.5 -8q-14 0 -28.5 5.5t-24.5 15.5z" />
<glyph unicode="&#xc3;" horiz-adv-x="1081" d="M-29 0l682 1360q29 14 58 14q25 0 40 -14t19 -35l238 -1325h-121l-66 383h-542l-187 -383h-121zM332 485h471l-125 713zM420 1540q-6 31 14 59q25 31 66 55.5t115 24.5q35 0 63.5 -12t55 -26.5t51 -26.5t51.5 -12q41 0 72.5 22.5t64.5 83.5q41 -16 46 -47t-13 -59 q-23 -35 -63 -66t-126 -31q-31 0 -57.5 12.5t-53 25.5t-54 25.5t-58.5 12.5q-33 0 -65.5 -13.5t-65.5 -74.5q-37 16 -43 47z" />
<glyph unicode="&#xc4;" horiz-adv-x="1081" d="M-29 0l682 1360q29 14 58 14q25 0 40 -14t19 -35l238 -1325h-121l-66 383h-542l-187 -383h-121zM332 485h471l-125 713zM467 1591q-4 43 20.5 79t75.5 36q33 0 50.5 -19.5t21.5 -48.5q4 -41 -20.5 -76.5t-73.5 -35.5q-35 0 -52.5 18.5t-21.5 46.5zM813 1591 q-4 43 20.5 79t75.5 36q33 0 50.5 -19.5t21.5 -48.5q4 -41 -20.5 -76.5t-73.5 -35.5q-35 0 -52.5 18.5t-21.5 46.5z" />
<glyph unicode="&#xc5;" horiz-adv-x="1081" d="M-29 0l668 1331q-66 23 -101.5 77t-35.5 126q0 92 56 154.5t155 62.5q98 0 153.5 -63.5t55.5 -151.5q0 -74 -40 -132t-112 -77v-2l238 -1325h-121l-66 383h-542l-187 -383h-121zM332 485h471l-125 713zM590 1536q0 -53 32.5 -95t90.5 -42q55 0 88 41t33 96q0 53 -34 94 t-87 41q-55 0 -89 -41t-34 -94z" />
<glyph unicode="&#xc6;" horiz-adv-x="1599" d="M0 0l891 1288q23 33 52.5 57.5t76.5 24.5h668q0 -43 -17.5 -72.5t-71.5 -29.5h-483l-84 -500h420l-16 -102h-420l-94 -564h503q43 0 60.5 -16t17.5 -51v-12.5t-4 -22.5h-717l66 393h-451l-266 -393h-131zM467 496h397l131 780z" />
<glyph unicode="&#xc7;" horiz-adv-x="1093" d="M158 528q0 160 43 315.5t127 277.5t209 198t290 76q74 0 128.5 -15.5t93 -36t63.5 -43t37 -36.5q31 -37 31 -66q0 -10 -7.5 -28.5t-48.5 -45.5h-18q-55 100 -131 132t-166 32q-119 0 -216 -61.5t-166 -166t-105.5 -242.5t-36.5 -292q0 -94 21.5 -176t63.5 -143.5 t106.5 -96t150.5 -34.5q106 0 193 41t165 116l25 -26q23 -23 22 -45q0 -29 -16.5 -46.5t-46.5 -39.5q-45 -33 -127 -68t-195 -39q-12 -14 -20.5 -30.5t-8.5 -34.5t10.5 -34.5t22 -35t21.5 -41t10 -53.5q0 -45 -18.5 -77t-48 -51.5t-65.5 -28.5t-69 -9q-27 0 -36 13.5 t-9 31.5q0 20 15 49q10 -4 15 -5t21 -1q96 0 97 72q0 18 -9.5 33.5t-21.5 31t-21.5 31.5t-9.5 39q0 33 13.5 58.5t29.5 43.5q-113 10 -190.5 59.5t-125.5 125t-69.5 172t-21.5 200.5z" />
<glyph unicode="&#xc8;" horiz-adv-x="925" d="M109 0l227 1370h690q0 -43 -17.5 -72.5t-70.5 -29.5h-496l-84 -500h433l-17 -102h-432l-94 -564h516q43 0 60.5 -16t17.5 -51v-12.5t-4 -22.5h-729zM469 1667q10 16 33.5 31.5t48.5 15.5q49 0 90 -41l184 -178q-14 -16 -31.5 -24.5t-31.5 -8.5t-29.5 4t-32.5 17z" />
<glyph unicode="&#xc9;" horiz-adv-x="925" d="M109 0l227 1370h690q0 -43 -17.5 -72.5t-70.5 -29.5h-496l-84 -500h433l-17 -102h-432l-94 -564h516q43 0 60.5 -16t17.5 -51v-12.5t-4 -22.5h-729zM538 1495l230 178q25 18 48 29.5t50 11.5q29 0 50.5 -19.5t29.5 -37.5l-279 -174q-33 -20 -67 -21q-43 0 -62 33z" />
<glyph unicode="&#xca;" horiz-adv-x="925" d="M109 0l227 1370h690q0 -43 -17.5 -72.5t-70.5 -29.5h-496l-84 -500h433l-17 -102h-432l-94 -564h516q43 0 60.5 -16t17.5 -51v-12.5t-4 -22.5h-729zM459 1487l178 186q27 27 45 41.5t49 14.5q35 0 53.5 -17.5t34.5 -46.5l115 -186q-12 -6 -27.5 -11.5t-36.5 -5.5 q-20 0 -32.5 9.5t-24.5 27.5l-92 127l-127 -121q-23 -23 -41.5 -31t-40.5 -8q-14 0 -28.5 5.5t-24.5 15.5z" />
<glyph unicode="&#xcb;" horiz-adv-x="925" d="M109 0l227 1370h690q0 -43 -17.5 -72.5t-70.5 -29.5h-496l-84 -500h433l-17 -102h-432l-94 -564h516q43 0 60.5 -16t17.5 -51v-12.5t-4 -22.5h-729zM448 1591q-4 43 20.5 79t75.5 36q33 0 50.5 -19.5t21.5 -48.5q4 -41 -20.5 -76.5t-73.5 -35.5q-35 0 -52.5 18.5 t-21.5 46.5zM794 1591q-4 43 20.5 79t75.5 36q33 0 50.5 -19.5t21.5 -48.5q4 -41 -20.5 -76.5t-73.5 -35.5q-35 0 -52.5 18.5t-21.5 46.5z" />
<glyph unicode="&#xcc;" horiz-adv-x="444" d="M109 0l227 1372q10 2 24 2q37 0 58.5 -23.5t21.5 -58.5v-9t-2 -13l-209 -1270h-120zM166 1667q10 16 33.5 31.5t48.5 15.5q49 0 90 -41l184 -178q-14 -16 -31.5 -24.5t-31.5 -8.5t-29.5 4t-32.5 17z" />
<glyph unicode="&#xcd;" horiz-adv-x="444" d="M109 0l227 1372q10 2 24 2q37 0 58.5 -23.5t21.5 -58.5v-9t-2 -13l-209 -1270h-120zM284 1495l230 178q25 18 48 29.5t50 11.5q29 0 50.5 -19.5t29.5 -37.5l-279 -174q-33 -20 -67 -21q-43 0 -62 33z" />
<glyph unicode="&#xce;" horiz-adv-x="444" d="M109 0l227 1372q10 2 24 2q37 0 58.5 -23.5t21.5 -58.5v-9t-2 -13l-209 -1270h-120zM156 1487l178 186q27 27 45 41.5t49 14.5q35 0 53.5 -17.5t34.5 -46.5l115 -186q-12 -6 -27.5 -11.5t-36.5 -5.5q-20 0 -32.5 9.5t-24.5 27.5l-92 127l-127 -121q-23 -23 -41.5 -31 t-40.5 -8q-14 0 -28.5 5.5t-24.5 15.5z" />
<glyph unicode="&#xcf;" horiz-adv-x="444" d="M109 0l227 1372q10 2 24 2q37 0 58.5 -23.5t21.5 -58.5v-9t-2 -13l-209 -1270h-120zM147 1591q-4 43 20.5 79t75.5 36q33 0 50.5 -19.5t21.5 -48.5q4 -41 -20.5 -76.5t-73.5 -35.5q-35 0 -52.5 18.5t-21.5 46.5zM493 1591q-4 43 20.5 79t75.5 36q33 0 50.5 -19.5 t21.5 -48.5q4 -41 -20.5 -76.5t-73.5 -35.5q-35 0 -52.5 18.5t-21.5 46.5z" />
<glyph unicode="&#xd0;" horiz-adv-x="1206" d="M94 662l17 98h122l101 606q92 10 160.5 14t136.5 4q156 0 257 -42t161.5 -111.5t85 -160.5t24.5 -189q0 -195 -46 -357t-140 -278.5t-236.5 -181t-333.5 -64.5h-294l108 662h-123zM246 100h166q172 0 290.5 64.5t192.5 173t105.5 250t31.5 293.5q0 86 -20.5 159.5 t-66.5 127t-120.5 84t-185.5 30.5h-48t-56.5 -2t-54 -4t-40.5 -4l-86 -512h353l-17 -98h-352z" />
<glyph unicode="&#xd1;" horiz-adv-x="1245" d="M109 0l225 1364q16 6 27.5 8t23.5 2q27 0 45.5 -11t32.5 -42l483 -1139l193 1190q10 2 24 2q37 0 57.5 -23.5t20.5 -58.5v-9t-2 -13l-211 -1270h-117l-499 1163l-189 -1163h-114zM500 1540q-6 31 14 59q25 31 66 55.5t115 24.5q35 0 63.5 -12t55 -26.5t51 -26.5t51.5 -12 q41 0 72.5 22.5t64.5 83.5q41 -16 46 -47t-13 -59q-23 -35 -63 -66t-126 -31q-31 0 -57.5 12.5t-53 25.5t-54 25.5t-58.5 12.5q-33 0 -65.5 -13.5t-65.5 -74.5q-37 16 -43 47z" />
<glyph unicode="&#xd2;" horiz-adv-x="1280" d="M158 494q0 160 40 320.5t120.5 289.5t202.5 210t288 81q117 0 197.5 -45t131 -119t73 -168t22.5 -193q0 -160 -40 -320.5t-121 -289.5t-202.5 -210t-287.5 -81q-117 0 -198 45t-131 119t-72.5 168t-22.5 193zM285 492q0 -80 16 -156t52 -134.5t93.5 -93t139.5 -34.5 q119 0 215 66.5t163.5 178t104.5 256t37 297.5q0 80 -17.5 156t-54.5 134.5t-95 93t-142 34.5q-121 0 -216.5 -67.5t-161 -178t-100 -255t-34.5 -297.5zM604 1667q10 16 33.5 31.5t48.5 15.5q49 0 90 -41l184 -178q-14 -16 -31.5 -24.5t-31.5 -8.5t-29.5 4t-32.5 17z" />
<glyph unicode="&#xd3;" horiz-adv-x="1280" d="M158 494q0 160 40 320.5t120.5 289.5t202.5 210t288 81q117 0 197.5 -45t131 -119t73 -168t22.5 -193q0 -160 -40 -320.5t-121 -289.5t-202.5 -210t-287.5 -81q-117 0 -198 45t-131 119t-72.5 168t-22.5 193zM285 492q0 -80 16 -156t52 -134.5t93.5 -93t139.5 -34.5 q119 0 215 66.5t163.5 178t104.5 256t37 297.5q0 80 -17.5 156t-54.5 134.5t-95 93t-142 34.5q-121 0 -216.5 -67.5t-161 -178t-100 -255t-34.5 -297.5zM710 1495l230 178q25 18 48 29.5t50 11.5q29 0 50.5 -19.5t29.5 -37.5l-279 -174q-33 -20 -67 -21q-43 0 -62 33z" />
<glyph unicode="&#xd4;" horiz-adv-x="1280" d="M158 494q0 160 40 320.5t120.5 289.5t202.5 210t288 81q117 0 197.5 -45t131 -119t73 -168t22.5 -193q0 -160 -40 -320.5t-121 -289.5t-202.5 -210t-287.5 -81q-117 0 -198 45t-131 119t-72.5 168t-22.5 193zM285 492q0 -80 16 -156t52 -134.5t93.5 -93t139.5 -34.5 q119 0 215 66.5t163.5 178t104.5 256t37 297.5q0 80 -17.5 156t-54.5 134.5t-95 93t-142 34.5q-121 0 -216.5 -67.5t-161 -178t-100 -255t-34.5 -297.5zM586 1487l178 186q27 27 45 41.5t49 14.5q35 0 53.5 -17.5t34.5 -46.5l115 -186q-12 -6 -27.5 -11.5t-36.5 -5.5 q-20 0 -32.5 9.5t-24.5 27.5l-92 127l-127 -121q-23 -23 -41.5 -31t-40.5 -8q-14 0 -28.5 5.5t-24.5 15.5z" />
<glyph unicode="&#xd5;" horiz-adv-x="1280" d="M158 494q0 160 40 320.5t120.5 289.5t202.5 210t288 81q117 0 197.5 -45t131 -119t73 -168t22.5 -193q0 -160 -40 -320.5t-121 -289.5t-202.5 -210t-287.5 -81q-117 0 -198 45t-131 119t-72.5 168t-22.5 193zM285 492q0 -80 16 -156t52 -134.5t93.5 -93t139.5 -34.5 q119 0 215 66.5t163.5 178t104.5 256t37 297.5q0 80 -17.5 156t-54.5 134.5t-95 93t-142 34.5q-121 0 -216.5 -67.5t-161 -178t-100 -255t-34.5 -297.5zM539 1540q-6 31 14 59q25 31 66 55.5t115 24.5q35 0 63.5 -12t55 -26.5t51 -26.5t51.5 -12q41 0 72.5 22.5t64.5 83.5 q41 -16 46 -47t-13 -59q-23 -35 -63 -66t-126 -31q-31 0 -57.5 12.5t-53 25.5t-54 25.5t-58.5 12.5q-33 0 -65.5 -13.5t-65.5 -74.5q-37 16 -43 47z" />
<glyph unicode="&#xd6;" horiz-adv-x="1280" d="M158 494q0 160 40 320.5t120.5 289.5t202.5 210t288 81q117 0 197.5 -45t131 -119t73 -168t22.5 -193q0 -160 -40 -320.5t-121 -289.5t-202.5 -210t-287.5 -81q-117 0 -198 45t-131 119t-72.5 168t-22.5 193zM285 492q0 -80 16 -156t52 -134.5t93.5 -93t139.5 -34.5 q119 0 215 66.5t163.5 178t104.5 256t37 297.5q0 80 -17.5 156t-54.5 134.5t-95 93t-142 34.5q-121 0 -216.5 -67.5t-161 -178t-100 -255t-34.5 -297.5zM586 1591q-4 43 20.5 79t75.5 36q33 0 50.5 -19.5t21.5 -48.5q4 -41 -20.5 -76.5t-73.5 -35.5q-35 0 -52.5 18.5 t-21.5 46.5zM932 1591q-4 43 20.5 79t75.5 36q33 0 50.5 -19.5t21.5 -48.5q4 -41 -20.5 -76.5t-73.5 -35.5q-35 0 -52.5 18.5t-21.5 46.5z" />
<glyph unicode="&#xd7;" d="M240 408l307 292l-205 277l88 70l203 -273l285 275l67 -72l-293 -283l215 -286l-88 -70l-211 283l-301 -285z" />
<glyph unicode="&#xd8;" horiz-adv-x="1280" d="M125 -102l139 217q-57 76 -81.5 175t-24.5 204q0 160 40 320.5t120.5 289.5t202.5 210t288 81q139 0 235 -68l95 146l86 -46l-109 -167q61 -76 89 -178.5t28 -211.5q0 -160 -40 -320.5t-121 -289.5t-202.5 -210t-287.5 -81q-78 0 -139.5 20.5t-108.5 55.5l-123 -192z M285 492q0 -72 12 -139.5t41 -125.5l641 998q-71 65 -182 65q-121 0 -216.5 -67.5t-161 -178t-100 -255t-34.5 -297.5zM399 143q35 -33 81.5 -51t105.5 -18q119 0 215 66.5t163.5 178t104.5 256t37 297.5q0 76 -14.5 147t-47.5 128z" />
<glyph unicode="&#xd9;" horiz-adv-x="1163" d="M156 358q0 41 6 97.5t14 103.5l133 813q10 2 25 2q37 0 59.5 -23.5t22.5 -58.5v-9t-2 -13l-121 -733q-8 -43 -10 -98.5t-2 -92.5q0 -55 15 -105.5t49 -87t87 -59t131 -22.5q162 0 253 106.5t126 323.5l143 870q10 2 25 2q37 0 58.5 -23.5t21.5 -58.5v-9t-2 -13l-125 -756 q-16 -106 -46 -204.5t-85 -174.5t-144.5 -121t-224.5 -45q-211 0 -309 101.5t-98 287.5zM532 1667q10 16 33.5 31.5t48.5 15.5q49 0 90 -41l184 -178q-14 -16 -31.5 -24.5t-31.5 -8.5t-29.5 4t-32.5 17z" />
<glyph unicode="&#xda;" horiz-adv-x="1163" d="M156 358q0 41 6 97.5t14 103.5l133 813q10 2 25 2q37 0 59.5 -23.5t22.5 -58.5v-9t-2 -13l-121 -733q-8 -43 -10 -98.5t-2 -92.5q0 -55 15 -105.5t49 -87t87 -59t131 -22.5q162 0 253 106.5t126 323.5l143 870q10 2 25 2q37 0 58.5 -23.5t21.5 -58.5v-9t-2 -13l-125 -756 q-16 -106 -46 -204.5t-85 -174.5t-144.5 -121t-224.5 -45q-211 0 -309 101.5t-98 287.5zM608 1495l230 178q25 18 48 29.5t50 11.5q29 0 50.5 -19.5t29.5 -37.5l-279 -174q-33 -20 -67 -21q-43 0 -62 33z" />
<glyph unicode="&#xdb;" horiz-adv-x="1163" d="M156 358q0 41 6 97.5t14 103.5l133 813q10 2 25 2q37 0 59.5 -23.5t22.5 -58.5v-9t-2 -13l-121 -733q-8 -43 -10 -98.5t-2 -92.5q0 -55 15 -105.5t49 -87t87 -59t131 -22.5q162 0 253 106.5t126 323.5l143 870q10 2 25 2q37 0 58.5 -23.5t21.5 -58.5v-9t-2 -13l-125 -756 q-16 -106 -46 -204.5t-85 -174.5t-144.5 -121t-224.5 -45q-211 0 -309 101.5t-98 287.5zM508 1487l178 186q27 27 45 41.5t49 14.5q35 0 53.5 -17.5t34.5 -46.5l115 -186q-12 -6 -27.5 -11.5t-36.5 -5.5q-20 0 -32.5 9.5t-24.5 27.5l-92 127l-127 -121q-23 -23 -41.5 -31 t-40.5 -8q-14 0 -28.5 5.5t-24.5 15.5z" />
<glyph unicode="&#xdc;" horiz-adv-x="1163" d="M156 358q0 41 6 97.5t14 103.5l133 813q10 2 25 2q37 0 59.5 -23.5t22.5 -58.5v-9t-2 -13l-121 -733q-8 -43 -10 -98.5t-2 -92.5q0 -55 15 -105.5t49 -87t87 -59t131 -22.5q162 0 253 106.5t126 323.5l143 870q10 2 25 2q37 0 58.5 -23.5t21.5 -58.5v-9t-2 -13l-125 -756 q-16 -106 -46 -204.5t-85 -174.5t-144.5 -121t-224.5 -45q-211 0 -309 101.5t-98 287.5zM506 1591q-4 43 20.5 79t75.5 36q33 0 50.5 -19.5t21.5 -48.5q4 -41 -20.5 -76.5t-73.5 -35.5q-35 0 -52.5 18.5t-21.5 46.5zM852 1591q-4 43 20.5 79t75.5 36q33 0 50.5 -19.5 t21.5 -48.5q4 -41 -20.5 -76.5t-73.5 -35.5q-35 0 -52.5 18.5t-21.5 46.5z" />
<glyph unicode="&#xdd;" horiz-adv-x="940" d="M193 1360q35 14 59 14q35 0 56.5 -17.5t35.5 -60.5l188 -585l371 573q35 53 59.5 71.5t67.5 18.5q25 0 51 -14l-503 -766l-99 -594h-121l97 586zM514 1495l230 178q25 18 48 29.5t50 11.5q29 0 50.5 -19.5t29.5 -37.5l-279 -174q-33 -20 -67 -21q-43 0 -62 33z" />
<glyph unicode="&#xde;" horiz-adv-x="997" d="M113 0l227 1372q10 2 25 2q37 0 58 -23.5t21 -58.5v-9t-2 -13l-26 -166q74 6 164 6q104 0 183 -28.5t131 -77t77.5 -112t25.5 -132.5q0 -131 -44 -224.5t-118.5 -151.5t-175 -85t-213.5 -27h-167l-46 -272h-120zM295 375h174q209 0 305 98.5t96 284.5q0 119 -76.5 185.5 t-224.5 66.5q-43 0 -89 -3t-83 -8z" />
<glyph unicode="&#xdf;" horiz-adv-x="1036" d="M-293 -332q0 14 2 22.5t12 18.5l23 29q35 -31 72 -46.5t84 -15.5q51 0 85.5 25t57.5 64.5t37 90t22 103.5l183 1118q16 104 55 186.5t104 133.5q49 37 110.5 54t147.5 17q145 0 222 -76.5t77 -195.5q0 -68 -19 -118t-50 -89t-68 -68.5t-71 -58.5q-53 -45 -89 -85t-36 -99 q0 -20 4 -37.5t18.5 -36t40 -39t66.5 -47.5q57 -37 92 -67.5t53.5 -61.5t24.5 -65.5t6 -79.5q0 -59 -23.5 -109.5t-64.5 -87.5t-99.5 -57.5t-128.5 -20.5q-59 0 -116.5 10.5t-110.5 38.5q-31 16 -52.5 34t-21.5 42q0 10 5.5 21.5t13.5 21.5l24 31q43 -41 104.5 -70.5 t143.5 -29.5q66 0 107 17t64.5 45t32.5 58.5t9 59.5q0 70 -47 115t-113 86q-94 59 -120.5 110t-26.5 103q0 47 11 81.5t32.5 64.5t52.5 56.5t68 55.5q33 25 62.5 51t53 58t37 70t13.5 85q0 84 -45 135t-142 51q-57 0 -105 -11t-77 -38q-49 -43 -73.5 -97.5t-34.5 -125.5 l-187 -1131q-12 -76 -31.5 -145.5t-55.5 -123.5t-92 -87t-142 -33q-39 0 -72 7t-57 18q-61 27 -62 65z" />
<glyph unicode="&#xe0;" horiz-adv-x="952" d="M113 319q0 111 34.5 227t100 211t161 155.5t216.5 60.5q49 0 94 -10.5t82 -25.5t64.5 -31.5t43.5 -28.5l-114 -689q-4 -16 -5.5 -32.5t-1.5 -26.5q0 -41 16.5 -56.5t45.5 -15.5q27 0 51 9l8 -46q-59 -33 -112 -32q-66 0 -95.5 34.5t-29.5 86.5v14q-47 -61 -116 -105.5 t-148 -44.5q-78 0 -133.5 27t-91.5 73t-53 109.5t-17 136.5zM233 315q0 -111 47.5 -173t153.5 -62q27 0 68 13t82 46t74.5 84t46.5 129l79 486q-29 16 -65.5 27.5t-102.5 11.5q-80 0 -149.5 -46.5t-121.5 -124t-82 -179t-30 -212.5zM445 1337q12 12 32.5 23.5t42.5 11.5 q31 0 48.5 -10t35.5 -41l144 -234q-6 -8 -21.5 -15t-32.5 -7q-39 0 -61 29z" />
<glyph unicode="&#xe1;" horiz-adv-x="952" d="M113 319q0 111 34.5 227t100 211t161 155.5t216.5 60.5q49 0 94 -10.5t82 -25.5t64.5 -31.5t43.5 -28.5l-114 -689q-4 -16 -5.5 -32.5t-1.5 -26.5q0 -41 16.5 -56.5t45.5 -15.5q27 0 51 9l8 -46q-59 -33 -112 -32q-66 0 -95.5 34.5t-29.5 86.5v14q-47 -61 -116 -105.5 t-148 -44.5q-78 0 -133.5 27t-91.5 73t-53 109.5t-17 136.5zM233 315q0 -111 47.5 -173t153.5 -62q27 0 68 13t82 46t74.5 84t46.5 129l79 486q-29 16 -65.5 27.5t-102.5 11.5q-80 0 -149.5 -46.5t-121.5 -124t-82 -179t-30 -212.5zM537 1087l184 226q23 29 46.5 44t54.5 15 q27 0 47 -11t32 -24l-235 -243q-18 -18 -33.5 -23.5t-38.5 -5.5q-16 0 -33.5 7t-23.5 15z" />
<glyph unicode="&#xe2;" horiz-adv-x="952" d="M113 319q0 111 34.5 227t100 211t161 155.5t216.5 60.5q49 0 94 -10.5t82 -25.5t64.5 -31.5t43.5 -28.5l-114 -689q-4 -16 -5.5 -32.5t-1.5 -26.5q0 -41 16.5 -56.5t45.5 -15.5q27 0 51 9l8 -46q-59 -33 -112 -32q-66 0 -95.5 34.5t-29.5 86.5v14q-47 -61 -116 -105.5 t-148 -44.5q-78 0 -133.5 27t-91.5 73t-53 109.5t-17 136.5zM233 315q0 -111 47.5 -173t153.5 -62q27 0 68 13t82 46t74.5 84t46.5 129l79 486q-29 16 -65.5 27.5t-102.5 11.5q-80 0 -149.5 -46.5t-121.5 -124t-82 -179t-30 -212.5zM403 1098l197 219q25 27 42 41t48 14 q35 0 51.5 -17.5t32.5 -45.5l117 -219q-12 -6 -26.5 -11.5t-30.5 -5.5t-33 9.5t-29 27.5l-92 150l-150 -144q-23 -23 -42 -31t-33 -8q-33 0 -52 21z" />
<glyph unicode="&#xe3;" horiz-adv-x="952" d="M113 319q0 111 34.5 227t100 211t161 155.5t216.5 60.5q49 0 94 -10.5t82 -25.5t64.5 -31.5t43.5 -28.5l-114 -689q-4 -16 -5.5 -32.5t-1.5 -26.5q0 -41 16.5 -56.5t45.5 -15.5q27 0 51 9l8 -46q-59 -33 -112 -32q-66 0 -95.5 34.5t-29.5 86.5v14q-47 -61 -116 -105.5 t-148 -44.5q-78 0 -133.5 27t-91.5 73t-53 109.5t-17 136.5zM233 315q0 -111 47.5 -173t153.5 -62q27 0 68 13t82 46t74.5 84t46.5 129l79 486q-29 16 -65.5 27.5t-102.5 11.5q-80 0 -149.5 -46.5t-121.5 -124t-82 -179t-30 -212.5zM366 1140.5q-6 30.5 14 59.5 q25 31 66 55.5t115 24.5q35 0 63.5 -12.5t55 -26.5t51 -26.5t51.5 -12.5q41 0 72.5 22.5t64.5 84.5q41 -16 46 -47t-13 -60q-23 -35 -63 -65.5t-126 -30.5q-31 0 -57.5 12t-53 25.5t-54 26t-58.5 12.5q-33 0 -65.5 -13.5t-65.5 -74.5q-37 16 -43 46.5z" />
<glyph unicode="&#xe4;" horiz-adv-x="952" d="M113 319q0 111 34.5 227t100 211t161 155.5t216.5 60.5q49 0 94 -10.5t82 -25.5t64.5 -31.5t43.5 -28.5l-114 -689q-4 -16 -5.5 -32.5t-1.5 -26.5q0 -41 16.5 -56.5t45.5 -15.5q27 0 51 9l8 -46q-59 -33 -112 -32q-66 0 -95.5 34.5t-29.5 86.5v14q-47 -61 -116 -105.5 t-148 -44.5q-78 0 -133.5 27t-91.5 73t-53 109.5t-17 136.5zM233 315q0 -111 47.5 -173t153.5 -62q27 0 68 13t82 46t74.5 84t46.5 129l79 486q-29 16 -65.5 27.5t-102.5 11.5q-80 0 -149.5 -46.5t-121.5 -124t-82 -179t-30 -212.5zM397 1174q-4 43 20.5 78.5t75.5 35.5 q33 0 50.5 -19.5t21.5 -47.5q4 -41 -20.5 -77t-73.5 -36q-35 0 -52.5 18.5t-21.5 47.5zM743 1174q-4 43 20.5 78.5t75.5 35.5q33 0 50.5 -19.5t21.5 -47.5q4 -41 -20.5 -77t-73.5 -36q-35 0 -52.5 18.5t-21.5 47.5z" />
<glyph unicode="&#xe5;" horiz-adv-x="952" d="M113 319q0 111 34.5 227t100 211t161 155.5t216.5 60.5q49 0 94 -10.5t82 -25.5t64.5 -31.5t43.5 -28.5l-114 -689q-4 -16 -5.5 -32.5t-1.5 -26.5q0 -41 16.5 -56.5t45.5 -15.5q27 0 51 9l8 -46q-59 -33 -112 -32q-66 0 -95.5 34.5t-29.5 86.5v14q-47 -61 -116 -105.5 t-148 -44.5q-78 0 -133.5 27t-91.5 73t-53 109.5t-17 136.5zM233 315q0 -111 47.5 -173t153.5 -62q27 0 68 13t82 46t74.5 84t46.5 129l79 486q-29 16 -65.5 27.5t-102.5 11.5q-80 0 -149.5 -46.5t-121.5 -124t-82 -179t-30 -212.5zM475 1278q0 92 56.5 154.5t154.5 62.5 t153.5 -63.5t55.5 -151.5t-55.5 -151.5t-153.5 -63.5t-154.5 62.5t-56.5 150.5zM563 1280q0 -53 33 -95t90 -42q55 0 88 41t33 96q0 53 -34 94t-87 41q-55 0 -89 -41t-34 -94z" />
<glyph unicode="&#xe6;" horiz-adv-x="1474" d="M113 319q0 111 34.5 227t100 211t161 155.5t216.5 60.5q49 0 94 -10.5t81 -25.5t62.5 -30.5t42.5 -27.5l-16 -86q25 33 58.5 65.5t75.5 58t90 41t99 15.5q121 0 185.5 -59.5t64.5 -165.5q0 -90 -47 -155t-122.5 -108t-170 -63.5t-188.5 -20.5h-55.5t-53.5 2v-43 q0 -141 63.5 -216.5t180.5 -75.5q78 0 144.5 30.5t123.5 102.5l27 -27q8 -8 14 -18.5t6 -22.5q0 -29 -17 -45t-46 -39q-41 -29 -104.5 -54.5t-161.5 -25.5q-51 0 -99.5 12.5t-89.5 38t-74.5 64.5t-54.5 92q-66 -100 -144.5 -151.5t-184.5 -51.5q-78 0 -133.5 27t-91.5 73 t-53 109.5t-17 136.5zM233 315q0 -111 47.5 -173t153.5 -62q27 0 69 13t82 46t73.5 84t46.5 129l79 486q-29 16 -65.5 27.5t-102.5 11.5q-80 0 -149.5 -46.5t-121.5 -124t-82 -179t-30 -212.5zM838 487q16 -2 32.5 -2h26.5q100 0 183 18.5t141.5 52.5t90 82t31.5 110 q0 53 -28.5 91t-106.5 38q-70 0 -131 -31t-109 -83t-82 -123t-48 -153z" />
<glyph unicode="&#xe7;" horiz-adv-x="835" d="M117 350q0 145 44 261t114.5 196t159.5 123t179 43q100 0 161 -34t91 -77q18 -27 19 -49q0 -25 -9.5 -33t-19.5 -18l-25 -21h-16q-25 70 -80 101.5t-133 31.5q-70 0 -135.5 -39.5t-115.5 -108.5t-79.5 -163t-29.5 -203q0 -133 58 -212.5t181 -79.5q70 0 127.5 28.5 t114.5 98.5l29 -27q18 -18 18 -41q0 -27 -17.5 -44t-45.5 -40q-37 -27 -97.5 -48.5t-128.5 -25.5q-12 -14 -20 -30.5t-8 -34.5t10 -34.5t21.5 -35t21.5 -41t10 -53.5q0 -45 -18.5 -77t-48 -51.5t-65.5 -28.5t-69 -9q-27 0 -36 13.5t-9 31.5q0 20 15 49q10 -4 15 -5t22 -1 q96 0 96 72q0 18 -9.5 33.5t-21.5 31t-21.5 31.5t-9.5 39q0 35 14.5 60.5t30.5 45.5q-53 8 -104 31t-91 67t-64.5 111.5t-24.5 165.5z" />
<glyph unicode="&#xe8;" horiz-adv-x="884" d="M117 350q0 145 45 261t116.5 196t162.5 123t182 43q121 0 185 -59.5t64 -165.5q0 -90 -47 -155t-122.5 -108t-170 -63.5t-188.5 -20.5h-55.5t-52.5 2v-43q0 -141 63 -216.5t180 -75.5q78 0 144.5 30.5t124.5 102.5l26 -27q8 -8 14.5 -18.5t6.5 -22.5q0 -29 -17.5 -45 t-46.5 -39q-41 -29 -104.5 -54.5t-161.5 -25.5q-61 0 -122.5 17.5t-112 60.5t-82 117t-31.5 186zM248 487q16 -2 32.5 -2h26.5q100 0 183 18.5t141.5 52.5t90.5 82t32 110q0 53 -29 91t-107 38q-70 0 -131 -31t-109 -83t-82 -123t-48 -153zM414 1337q12 12 32.5 23.5 t42.5 11.5q31 0 48.5 -10t35.5 -41l144 -234q-6 -8 -21.5 -15t-32.5 -7q-39 0 -61 29z" />
<glyph unicode="&#xe9;" horiz-adv-x="884" d="M117 350q0 145 45 261t116.5 196t162.5 123t182 43q121 0 185 -59.5t64 -165.5q0 -90 -47 -155t-122.5 -108t-170 -63.5t-188.5 -20.5h-55.5t-52.5 2v-43q0 -141 63 -216.5t180 -75.5q78 0 144.5 30.5t124.5 102.5l26 -27q8 -8 14.5 -18.5t6.5 -22.5q0 -29 -17.5 -45 t-46.5 -39q-41 -29 -104.5 -54.5t-161.5 -25.5q-61 0 -122.5 17.5t-112 60.5t-82 117t-31.5 186zM248 487q16 -2 32.5 -2h26.5q100 0 183 18.5t141.5 52.5t90.5 82t32 110q0 53 -29 91t-107 38q-70 0 -131 -31t-109 -83t-82 -123t-48 -153zM524 1087l184 226q23 29 46.5 44 t54.5 15q27 0 47 -11t32 -24l-235 -243q-18 -18 -33.5 -23.5t-38.5 -5.5q-16 0 -33.5 7t-23.5 15z" />
<glyph unicode="&#xea;" horiz-adv-x="884" d="M117 350q0 145 45 261t116.5 196t162.5 123t182 43q121 0 185 -59.5t64 -165.5q0 -90 -47 -155t-122.5 -108t-170 -63.5t-188.5 -20.5h-55.5t-52.5 2v-43q0 -141 63 -216.5t180 -75.5q78 0 144.5 30.5t124.5 102.5l26 -27q8 -8 14.5 -18.5t6.5 -22.5q0 -29 -17.5 -45 t-46.5 -39q-41 -29 -104.5 -54.5t-161.5 -25.5q-61 0 -122.5 17.5t-112 60.5t-82 117t-31.5 186zM248 487q16 -2 32.5 -2h26.5q100 0 183 18.5t141.5 52.5t90.5 82t32 110q0 53 -29 91t-107 38q-70 0 -131 -31t-109 -83t-82 -123t-48 -153zM395 1098l197 219q25 27 42 41 t48 14q35 0 51.5 -17.5t32.5 -45.5l117 -219q-12 -6 -26.5 -11.5t-30.5 -5.5t-33 9.5t-29 27.5l-92 150l-150 -144q-23 -23 -42 -31t-33 -8q-33 0 -52 21z" />
<glyph unicode="&#xeb;" horiz-adv-x="884" d="M117 350q0 145 45 261t116.5 196t162.5 123t182 43q121 0 185 -59.5t64 -165.5q0 -90 -47 -155t-122.5 -108t-170 -63.5t-188.5 -20.5h-55.5t-52.5 2v-43q0 -141 63 -216.5t180 -75.5q78 0 144.5 30.5t124.5 102.5l26 -27q8 -8 14.5 -18.5t6.5 -22.5q0 -29 -17.5 -45 t-46.5 -39q-41 -29 -104.5 -54.5t-161.5 -25.5q-61 0 -122.5 17.5t-112 60.5t-82 117t-31.5 186zM248 487q16 -2 32.5 -2h26.5q100 0 183 18.5t141.5 52.5t90.5 82t32 110q0 53 -29 91t-107 38q-70 0 -131 -31t-109 -83t-82 -123t-48 -153zM391 1174q-4 43 20.5 78.5 t75.5 35.5q33 0 50.5 -19.5t21.5 -47.5q4 -41 -20.5 -77t-73.5 -36q-35 0 -52.5 18.5t-21.5 47.5zM737 1174q-4 43 20.5 78.5t75.5 35.5q33 0 50.5 -19.5t21.5 -47.5q4 -41 -20.5 -77t-73.5 -36q-35 0 -52.5 18.5t-21.5 47.5z" />
<glyph unicode="&#xec;" horiz-adv-x="415" d="M123 109q0 23 3 43t7 49l125 755h10q37 0 64.5 -22.5t27.5 -63.5q0 -12 -4 -32q-2 -8 -2 -19l-104 -631q-4 -16 -5 -32.5t-1 -26.5q0 -41 16 -56.5t45 -15.5q27 0 51 9l9 -46q-59 -33 -113 -32q-66 0 -97.5 34.5t-31.5 86.5zM136 1337q12 12 32.5 23.5t42.5 11.5 q31 0 48.5 -10t35.5 -41l144 -234q-6 -8 -21.5 -15t-32.5 -7q-39 0 -61 29z" />
<glyph unicode="&#xed;" horiz-adv-x="415" d="M123 109q0 23 3 43t7 49l125 755h10q37 0 64.5 -22.5t27.5 -63.5q0 -12 -4 -32q-2 -8 -2 -19l-104 -631q-4 -16 -5 -32.5t-1 -26.5q0 -41 16 -56.5t45 -15.5q27 0 51 9l9 -46q-59 -33 -113 -32q-66 0 -97.5 34.5t-31.5 86.5zM227 1087l184 226q23 29 46.5 44t54.5 15 q27 0 47 -11t32 -24l-235 -243q-18 -18 -33.5 -23.5t-38.5 -5.5q-16 0 -33.5 7t-23.5 15z" />
<glyph unicode="&#xee;" horiz-adv-x="415" d="M77 1098l197 219q25 27 42 41t48 14q35 0 51.5 -17.5t32.5 -45.5l117 -219q-12 -6 -26.5 -11.5t-30.5 -5.5t-33 9.5t-29 27.5l-92 150l-150 -144q-23 -23 -42 -31t-33 -8q-33 0 -52 21zM123 109q0 23 3 43t7 49l125 755h10q37 0 64.5 -22.5t27.5 -63.5q0 -12 -4 -32 q-2 -8 -2 -19l-104 -631q-4 -16 -5 -32.5t-1 -26.5q0 -41 16 -56.5t45 -15.5q27 0 51 9l9 -46q-59 -33 -113 -32q-66 0 -97.5 34.5t-31.5 86.5z" />
<glyph unicode="&#xef;" horiz-adv-x="415" d="M82 1174q-4 43 20.5 78.5t75.5 35.5q33 0 50.5 -19.5t21.5 -47.5q4 -41 -20.5 -77t-73.5 -36q-35 0 -52.5 18.5t-21.5 47.5zM123 109q0 23 3 43t7 49l125 755h10q37 0 64.5 -22.5t27.5 -63.5q0 -12 -4 -32q-2 -8 -2 -19l-104 -631q-4 -16 -5 -32.5t-1 -26.5 q0 -41 16 -56.5t45 -15.5q27 0 51 9l9 -46q-59 -33 -113 -32q-66 0 -97.5 34.5t-31.5 86.5zM428 1174q-4 43 20.5 78.5t75.5 35.5q33 0 50.5 -19.5t21.5 -47.5q4 -41 -20.5 -77t-73.5 -36q-35 0 -52.5 18.5t-21.5 47.5z" />
<glyph unicode="&#xf0;" horiz-adv-x="1013" d="M117 336q0 154 41 265.5t107.5 184t152.5 108.5t176 36q70 0 132 -30t97 -71q-12 111 -36.5 181.5t-75.5 134.5l-252 -109l-33 84l213 92q-111 86 -293 99q0 51 16.5 69.5t59.5 18.5q35 0 79 -9.5t89 -28t87 -44t77 -55.5l227 98l33 -84l-199 -86q66 -90 100.5 -204 t34.5 -241q0 -201 -39 -346t-107.5 -241.5t-161.5 -142.5t-202 -46q-66 0 -124 22.5t-102 68.5t-70.5 115t-26.5 161zM236 350q0 -135 60 -208.5t163 -73.5q72 0 127 29.5t95 77.5t66.5 111.5t43 131t22.5 134.5t6 122q-20 61 -81.5 105t-164.5 44q-66 0 -126 -26.5 t-107 -83t-75.5 -146.5t-28.5 -217z" />
<glyph unicode="&#xf1;" horiz-adv-x="1005" d="M100 0l158 956h10q37 0 61.5 -22.5t24.5 -63.5q0 -8 -1 -16t-1 -16q-2 -8 -2 -19q55 66 138 110t180 44q70 0 119 -22.5t79.5 -59.5t45 -86t14.5 -103q0 -35 -4 -72.5t-11 -72.5l-92 -557h-119l93 557q4 29 9 67t5 70q0 84 -41 130t-125 46q-53 0 -106.5 -17t-97.5 -53 t-75.5 -88.5t-44.5 -121.5l-98 -590h-119zM350 1140.5q-6 30.5 14 59.5q25 31 66 55.5t115 24.5q35 0 63.5 -12.5t55 -26.5t51 -26.5t51.5 -12.5q41 0 72.5 22.5t64.5 84.5q41 -16 46 -47t-13 -60q-23 -35 -63 -65.5t-126 -30.5q-31 0 -57.5 12t-53 25.5t-54 26t-58.5 12.5 q-33 0 -65.5 -13.5t-65.5 -74.5q-37 16 -43 46.5z" />
<glyph unicode="&#xf2;" horiz-adv-x="987" d="M117 348q0 113 32.5 224.5t95 200.5t154.5 144.5t213 55.5q88 0 149.5 -34t100.5 -87t57.5 -120.5t18.5 -137.5q0 -113 -32 -224.5t-93 -200.5t-153.5 -144.5t-215.5 -55.5q-90 0 -152.5 33t-101 87t-56 122t-17.5 137zM238 352q0 -55 11 -106t36.5 -91t66.5 -63.5 t103 -23.5q82 0 148.5 42t113.5 114.5t72.5 166.5t25.5 199q0 55 -11 106.5t-38 91t-68 63t-102 23.5q-82 0 -148.5 -41.5t-112.5 -114.5t-71.5 -167t-25.5 -199zM441 1337q12 12 32.5 23.5t42.5 11.5q31 0 48.5 -10t35.5 -41l144 -234q-6 -8 -21.5 -15t-32.5 -7 q-39 0 -61 29z" />
<glyph unicode="&#xf3;" horiz-adv-x="987" d="M117 348q0 113 32.5 224.5t95 200.5t154.5 144.5t213 55.5q88 0 149.5 -34t100.5 -87t57.5 -120.5t18.5 -137.5q0 -113 -32 -224.5t-93 -200.5t-153.5 -144.5t-215.5 -55.5q-90 0 -152.5 33t-101 87t-56 122t-17.5 137zM238 352q0 -55 11 -106t36.5 -91t66.5 -63.5 t103 -23.5q82 0 148.5 42t113.5 114.5t72.5 166.5t25.5 199q0 55 -11 106.5t-38 91t-68 63t-102 23.5q-82 0 -148.5 -41.5t-112.5 -114.5t-71.5 -167t-25.5 -199zM547 1087l184 226q23 29 46.5 44t54.5 15q27 0 47 -11t32 -24l-235 -243q-18 -18 -33.5 -23.5t-38.5 -5.5 q-16 0 -33.5 7t-23.5 15z" />
<glyph unicode="&#xf4;" horiz-adv-x="987" d="M117 348q0 113 32.5 224.5t95 200.5t154.5 144.5t213 55.5q88 0 149.5 -34t100.5 -87t57.5 -120.5t18.5 -137.5q0 -113 -32 -224.5t-93 -200.5t-153.5 -144.5t-215.5 -55.5q-90 0 -152.5 33t-101 87t-56 122t-17.5 137zM238 352q0 -55 11 -106t36.5 -91t66.5 -63.5 t103 -23.5q82 0 148.5 42t113.5 114.5t72.5 166.5t25.5 199q0 55 -11 106.5t-38 91t-68 63t-102 23.5q-82 0 -148.5 -41.5t-112.5 -114.5t-71.5 -167t-25.5 -199zM387 1098l197 219q25 27 42 41t48 14q35 0 51.5 -17.5t32.5 -45.5l117 -219q-12 -6 -26.5 -11.5t-30.5 -5.5 t-33 9.5t-29 27.5l-92 150l-150 -144q-23 -23 -42 -31t-33 -8q-33 0 -52 21z" />
<glyph unicode="&#xf5;" horiz-adv-x="987" d="M117 348q0 113 32.5 224.5t95 200.5t154.5 144.5t213 55.5q88 0 149.5 -34t100.5 -87t57.5 -120.5t18.5 -137.5q0 -113 -32 -224.5t-93 -200.5t-153.5 -144.5t-215.5 -55.5q-90 0 -152.5 33t-101 87t-56 122t-17.5 137zM238 352q0 -55 11 -106t36.5 -91t66.5 -63.5 t103 -23.5q82 0 148.5 42t113.5 114.5t72.5 166.5t25.5 199q0 55 -11 106.5t-38 91t-68 63t-102 23.5q-82 0 -148.5 -41.5t-112.5 -114.5t-71.5 -167t-25.5 -199zM342 1140.5q-6 30.5 14 59.5q25 31 66 55.5t115 24.5q35 0 63.5 -12.5t55 -26.5t51 -26.5t51.5 -12.5 q41 0 72.5 22.5t64.5 84.5q41 -16 46 -47t-13 -60q-23 -35 -63 -65.5t-126 -30.5q-31 0 -57.5 12t-53 25.5t-54 26t-58.5 12.5q-33 0 -65.5 -13.5t-65.5 -74.5q-37 16 -43 46.5z" />
<glyph unicode="&#xf6;" horiz-adv-x="987" d="M117 348q0 113 32.5 224.5t95 200.5t154.5 144.5t213 55.5q88 0 149.5 -34t100.5 -87t57.5 -120.5t18.5 -137.5q0 -113 -32 -224.5t-93 -200.5t-153.5 -144.5t-215.5 -55.5q-90 0 -152.5 33t-101 87t-56 122t-17.5 137zM238 352q0 -55 11 -106t36.5 -91t66.5 -63.5 t103 -23.5q82 0 148.5 42t113.5 114.5t72.5 166.5t25.5 199q0 55 -11 106.5t-38 91t-68 63t-102 23.5q-82 0 -148.5 -41.5t-112.5 -114.5t-71.5 -167t-25.5 -199zM373 1174q-4 43 20.5 78.5t75.5 35.5q33 0 50.5 -19.5t21.5 -47.5q4 -41 -20.5 -77t-73.5 -36 q-35 0 -52.5 18.5t-21.5 47.5zM719 1174q-4 43 20.5 78.5t75.5 35.5q33 0 50.5 -19.5t21.5 -47.5q4 -41 -20.5 -77t-73.5 -36q-35 0 -52.5 18.5t-21.5 47.5z" />
<glyph unicode="&#xf7;" d="M229 637l19 108h698l-18 -108h-699zM455 393q0 41 24.5 75t71.5 34q35 0 53.5 -24.5t18.5 -57.5q0 -39 -24 -73t-71 -34q-37 0 -55 22.5t-18 57.5zM547 963q0 41 24.5 74.5t71.5 33.5q35 0 53.5 -24.5t18.5 -57.5q0 -39 -23.5 -72.5t-70.5 -33.5q-37 0 -55.5 22.5 t-18.5 57.5z" />
<glyph unicode="&#xf8;" horiz-adv-x="987" d="M84 -55l106 145q-41 53 -57 121t-16 137q0 113 32.5 224.5t95 200.5t155 144.5t212.5 55.5q109 0 187 -55l90 122l65 -47l-98 -133q43 -53 62.5 -123.5t19.5 -142.5q0 -113 -32 -224.5t-93 -200.5t-153.5 -144.5t-215.5 -55.5q-63 0 -112 16.5t-86 45.5l-96 -133z M238 352q0 -43 6 -84t22 -75l465 632q-53 49 -135 49t-148.5 -41.5t-112.5 -114.5t-71.5 -167t-25.5 -199zM313 121q54 -53 142 -53q82 0 148.5 42t113.5 114.5t72.5 166.5t25.5 199q0 45 -8 88t-27 80z" />
<glyph unicode="&#xf9;" horiz-adv-x="978" d="M131 238q0 61 12 135l95 583h10q37 0 64.5 -22.5t27.5 -63.5q0 -12 -4 -32q-2 -8 -2 -19l-74 -446q-4 -29 -7 -60.5t-3 -62.5q0 -86 40 -132t132 -46q51 0 100 18.5t91 55t72 89t42 119.5l100 602h11q37 0 64.5 -22.5t27.5 -63.5q0 -12 -4 -32q-2 -8 -2 -19l-105 -631 q-4 -16 -5 -32.5t-1 -26.5q0 -41 16.5 -56.5t44.5 -15.5q27 0 52 9l8 -46q-59 -33 -113 -32q-66 0 -95.5 34.5t-29.5 86.5v16q-55 -66 -125.5 -111t-185.5 -45q-119 0 -186.5 70t-67.5 199zM379 1337q12 12 32.5 23.5t42.5 11.5q31 0 48.5 -10t35.5 -41l144 -234 q-6 -8 -21.5 -15t-32.5 -7q-39 0 -61 29z" />
<glyph unicode="&#xfa;" horiz-adv-x="978" d="M131 238q0 61 12 135l95 583h10q37 0 64.5 -22.5t27.5 -63.5q0 -12 -4 -32q-2 -8 -2 -19l-74 -446q-4 -29 -7 -60.5t-3 -62.5q0 -86 40 -132t132 -46q51 0 100 18.5t91 55t72 89t42 119.5l100 602h11q37 0 64.5 -22.5t27.5 -63.5q0 -12 -4 -32q-2 -8 -2 -19l-105 -631 q-4 -16 -5 -32.5t-1 -26.5q0 -41 16.5 -56.5t44.5 -15.5q27 0 52 9l8 -46q-59 -33 -113 -32q-66 0 -95.5 34.5t-29.5 86.5v16q-55 -66 -125.5 -111t-185.5 -45q-119 0 -186.5 70t-67.5 199zM498 1087l184 226q23 29 46.5 44t54.5 15q27 0 47 -11t32 -24l-235 -243 q-18 -18 -33.5 -23.5t-38.5 -5.5q-16 0 -33.5 7t-23.5 15z" />
<glyph unicode="&#xfb;" horiz-adv-x="978" d="M131 238q0 61 12 135l95 583h10q37 0 64.5 -22.5t27.5 -63.5q0 -12 -4 -32q-2 -8 -2 -19l-74 -446q-4 -29 -7 -60.5t-3 -62.5q0 -86 40 -132t132 -46q51 0 100 18.5t91 55t72 89t42 119.5l100 602h11q37 0 64.5 -22.5t27.5 -63.5q0 -12 -4 -32q-2 -8 -2 -19l-105 -631 q-4 -16 -5 -32.5t-1 -26.5q0 -41 16.5 -56.5t44.5 -15.5q27 0 52 9l8 -46q-59 -33 -113 -32q-66 0 -95.5 34.5t-29.5 86.5v16q-55 -66 -125.5 -111t-185.5 -45q-119 0 -186.5 70t-67.5 199zM354 1098l197 219q25 27 42 41t48 14q35 0 51.5 -17.5t32.5 -45.5l117 -219 q-12 -6 -26.5 -11.5t-30.5 -5.5t-33 9.5t-29 27.5l-92 150l-150 -144q-23 -23 -42 -31t-33 -8q-33 0 -52 21z" />
<glyph unicode="&#xfc;" horiz-adv-x="978" d="M131 238q0 61 12 135l95 583h10q37 0 64.5 -22.5t27.5 -63.5q0 -12 -4 -32q-2 -8 -2 -19l-74 -446q-4 -29 -7 -60.5t-3 -62.5q0 -86 40 -132t132 -46q51 0 100 18.5t91 55t72 89t42 119.5l100 602h11q37 0 64.5 -22.5t27.5 -63.5q0 -12 -4 -32q-2 -8 -2 -19l-105 -631 q-4 -16 -5 -32.5t-1 -26.5q0 -41 16.5 -56.5t44.5 -15.5q27 0 52 9l8 -46q-59 -33 -113 -32q-66 0 -95.5 34.5t-29.5 86.5v16q-55 -66 -125.5 -111t-185.5 -45q-119 0 -186.5 70t-67.5 199zM356 1174q-4 43 20.5 78.5t75.5 35.5q33 0 50.5 -19.5t21.5 -47.5q4 -41 -20.5 -77 t-73.5 -36q-35 0 -52.5 18.5t-21.5 47.5zM702 1174q-4 43 20.5 78.5t75.5 35.5q33 0 50.5 -19.5t21.5 -47.5q4 -41 -20.5 -77t-73.5 -36q-35 0 -52.5 18.5t-21.5 47.5z" />
<glyph unicode="&#xfd;" horiz-adv-x="837" d="M-88 -381q0 16 10 33l27 35q25 -29 53.5 -41.5t63.5 -12.5q49 0 88 50.5t92 158.5l73 150h-20l-168 952q31 12 55 12q47 0 61.5 -28.5t22.5 -77.5l113 -729l362 747q25 49 48.5 68.5t60.5 19.5q18 0 29.5 -4t21.5 -10l-573 -1151q-29 -57 -56.5 -104t-59.5 -81t-71 -52.5 t-90 -18.5q-16 0 -40.5 4t-47 14.5t-39 27t-16.5 38.5zM442 1087l184 226q23 29 46.5 44t54.5 15q27 0 47 -11t32 -24l-235 -243q-18 -18 -33.5 -23.5t-38.5 -5.5q-16 0 -33.5 7t-23.5 15z" />
<glyph unicode="&#xfe;" horiz-adv-x="985" d="M27 -446l313 1900q10 2 25 2q37 0 58 -23.5t21 -58.5v-9t-2 -13l-90 -527q55 63 132 105.5t153 42.5q80 0 137 -30t93 -81t52.5 -119.5t16.5 -146.5q0 -123 -41 -236.5t-112.5 -199.5t-170 -138.5t-213.5 -52.5q-45 0 -95 11.5t-85 33.5l-76 -460h-116zM233 104 q29 -16 69.5 -27t103.5 -11q82 0 156.5 44t130 117.5t88 171t32.5 205.5q0 123 -44 192.5t-161 69.5q-33 0 -78 -14t-88 -47t-78.5 -86t-48.5 -129z" />
<glyph unicode="&#xff;" horiz-adv-x="837" d="M-88 -381q0 16 10 33l27 35q25 -29 53.5 -41.5t63.5 -12.5q49 0 88 50.5t92 158.5l73 150h-20l-168 952q31 12 55 12q47 0 61.5 -28.5t22.5 -77.5l113 -729l362 747q25 49 48.5 68.5t60.5 19.5q18 0 29.5 -4t21.5 -10l-573 -1151q-29 -57 -56.5 -104t-59.5 -81t-71 -52.5 t-90 -18.5q-16 0 -40.5 4t-47 14.5t-39 27t-16.5 38.5zM285 1174q-4 43 20.5 78.5t75.5 35.5q33 0 50.5 -19.5t21.5 -47.5q4 -41 -20.5 -77t-73.5 -36q-35 0 -52.5 18.5t-21.5 47.5zM631 1174q-4 43 20.5 78.5t75.5 35.5q33 0 50.5 -19.5t21.5 -47.5q4 -41 -20.5 -77 t-73.5 -36q-35 0 -52.5 18.5t-21.5 47.5z" />
<glyph unicode="&#x152;" horiz-adv-x="1632" d="M158 494q0 168 39 325.5t119.5 280.5t205.5 196.5t297 73.5h901q0 -43 -17 -72.5t-71 -29.5h-483l-84 -500h420l-17 -102h-419l-95 -564h504q43 0 60.5 -16t17.5 -51v-12.5t-4 -22.5h-940q-117 0 -200 37t-135 103.5t-75.5 156.5t-23.5 197zM285 492q0 -176 73.5 -283 t237.5 -107h235l193 1166h-217q-129 0 -226.5 -60.5t-163 -166t-99 -246.5t-33.5 -303z" />
<glyph unicode="&#x153;" horiz-adv-x="1564" d="M117 348q0 113 32.5 224.5t95 200.5t155 144.5t212.5 55.5q68 0 117 -18.5t85 -51.5t59.5 -75t37.5 -87q76 109 175.5 170.5t216.5 61.5q121 0 185 -59.5t64 -165.5q0 -90 -47 -155t-122.5 -108t-170 -63.5t-188.5 -20.5h-55.5t-53.5 2v-43q0 -141 63.5 -216.5 t180.5 -75.5q78 0 144.5 30.5t123.5 102.5l27 -27q8 -8 14.5 -18.5t6.5 -22.5q0 -29 -17.5 -45t-46.5 -39q-41 -29 -104.5 -54.5t-161.5 -25.5q-111 0 -196 50.5t-126 173.5q-63 -96 -153 -160t-226 -64q-90 0 -152.5 33t-101 87t-56 122t-17.5 137zM238 352q0 -55 11 -106 t36.5 -91t66.5 -63.5t103 -23.5q68 0 124 28.5t100 78.5t74.5 117.5t47.5 147.5l8 56q6 45 6 94q0 55 -11 106.5t-38 91t-68 63t-102 23.5q-82 0 -148.5 -41.5t-112.5 -114.5t-71.5 -167t-25.5 -199zM928 487q16 -2 32.5 -2h26.5q100 0 183 18.5t141.5 52.5t90.5 82t32 110 q0 53 -29 91t-107 38q-70 0 -131 -31t-109 -83t-82 -123t-48 -153z" />
<glyph unicode="&#x178;" horiz-adv-x="940" d="M193 1360q35 14 59 14q35 0 56.5 -17.5t35.5 -60.5l188 -585l371 573q35 53 59.5 71.5t67.5 18.5q25 0 51 -14l-503 -766l-99 -594h-121l97 586zM422 1591q-4 43 20.5 79t75.5 36q33 0 50.5 -19.5t21.5 -48.5q4 -41 -20.5 -76.5t-73.5 -35.5q-35 0 -52.5 18.5t-21.5 46.5 zM768 1591q-4 43 20.5 79t75.5 36q33 0 50.5 -19.5t21.5 -48.5q4 -41 -20.5 -76.5t-73.5 -35.5q-35 0 -52.5 18.5t-21.5 46.5z" />
<glyph unicode="&#x2c6;" horiz-adv-x="696" d="M104 1098l197 219q25 27 42 41t48 14q35 0 51.5 -17.5t32.5 -45.5l117 -219q-12 -6 -26.5 -11.5t-30.5 -5.5t-33 9.5t-29 27.5l-92 150l-150 -144q-23 -23 -42 -31t-33 -8q-33 0 -52 21z" />
<glyph unicode="&#x2dc;" horiz-adv-x="696" d="M47 1140.5q-6 30.5 14 59.5q25 31 66 55.5t115 24.5q35 0 63.5 -12.5t55 -26.5t51 -26.5t51.5 -12.5q41 0 72.5 22.5t64.5 84.5q41 -16 46 -47t-13 -60q-23 -35 -63 -65.5t-126 -30.5q-31 0 -57.5 12t-53 25.5t-54 26t-58.5 12.5q-33 0 -65.5 -13.5t-65.5 -74.5 q-37 16 -43 46.5z" />
<glyph unicode="&#x2000;" horiz-adv-x="875" />
<glyph unicode="&#x2001;" horiz-adv-x="1751" />
<glyph unicode="&#x2002;" horiz-adv-x="875" />
<glyph unicode="&#x2003;" horiz-adv-x="1751" />
<glyph unicode="&#x2004;" horiz-adv-x="583" />
<glyph unicode="&#x2005;" horiz-adv-x="437" />
<glyph unicode="&#x2006;" horiz-adv-x="291" />
<glyph unicode="&#x2007;" horiz-adv-x="291" />
<glyph unicode="&#x2008;" horiz-adv-x="218" />
<glyph unicode="&#x2009;" horiz-adv-x="350" />
<glyph unicode="&#x200a;" horiz-adv-x="97" />
<glyph unicode="&#x2010;" horiz-adv-x="827" d="M170 565q0 4 1 13.5t5 23.5h463q45 0 63.5 -17.5t18.5 -52.5q0 -4 -1 -13t-5 -23h-463q-45 0 -63.5 17t-18.5 52z" />
<glyph unicode="&#x2011;" horiz-adv-x="827" d="M170 565q0 4 1 13.5t5 23.5h463q45 0 63.5 -17.5t18.5 -52.5q0 -4 -1 -13t-5 -23h-463q-45 0 -63.5 17t-18.5 52z" />
<glyph unicode="&#x2012;" horiz-adv-x="827" d="M170 565q0 4 1 13.5t5 23.5h463q45 0 63.5 -17.5t18.5 -52.5q0 -4 -1 -13t-5 -23h-463q-45 0 -63.5 17t-18.5 52z" />
<glyph unicode="&#x2013;" horiz-adv-x="1024" d="M31 565q0 4 1 13.5t5 23.5h936q45 0 63.5 -17.5t18.5 -52.5q0 -4 -1 -13t-5 -23h-936q-45 0 -63.5 17t-18.5 52z" />
<glyph unicode="&#x2014;" horiz-adv-x="2048" d="M31 565q0 4 1 13.5t5 23.5h1960q45 0 63.5 -17.5t18.5 -52.5q0 -4 -1 -13t-5 -23h-1960q-45 0 -63.5 17t-18.5 52z" />
<glyph unicode="&#x2018;" horiz-adv-x="425" d="M260 1126q0 82 42 158t101 115q14 10 31 16t33 6q18 0 33.5 -10t19.5 -35q-45 -23 -85 -54.5t-50 -88.5q23 -8 40 -27.5t17 -52.5q0 -53 -29.5 -86t-70.5 -33t-61.5 25.5t-20.5 66.5z" />
<glyph unicode="&#x2019;" horiz-adv-x="425" d="M219 1077q45 23 85 54.5t50 89.5q-23 8 -40 27.5t-17 51.5q0 53 29.5 86t70.5 33t61.5 -25.5t20.5 -66.5q0 -82 -42 -157.5t-101 -114.5q-14 -10 -30.5 -16.5t-33.5 -6.5q-18 0 -33.5 10t-19.5 35z" />
<glyph unicode="&#x201a;" horiz-adv-x="425" d="M16 -172q45 23 85 54.5t51 88.5q-23 8 -40.5 27.5t-17.5 52.5q0 53 30 86t71 33t61 -25.5t20 -66.5q0 -82 -41.5 -158t-101.5 -115q-14 -10 -30.5 -16t-32.5 -6q-18 0 -34 10t-20 35z" />
<glyph unicode="&#x201c;" horiz-adv-x="720" d="M260 1126q0 82 42 158t101 115q14 10 31 16t33 6q18 0 33.5 -10t19.5 -35q-45 -23 -85 -54.5t-50 -88.5q23 -8 40 -27.5t17 -52.5q0 -53 -29.5 -86t-70.5 -33t-61.5 25.5t-20.5 66.5zM555 1126q0 82 42 158t101 115q14 10 31 16t33 6q18 0 33.5 -10t19.5 -35 q-45 -23 -85 -54.5t-50 -88.5q23 -8 40 -27.5t17 -52.5q0 -53 -29.5 -86t-70.5 -33t-61.5 25.5t-20.5 66.5z" />
<glyph unicode="&#x201d;" horiz-adv-x="720" d="M219 1077q45 23 85 54.5t50 89.5q-23 8 -40 27.5t-17 51.5q0 53 29.5 86t70.5 33t61.5 -25.5t20.5 -66.5q0 -82 -42 -157.5t-101 -114.5q-14 -10 -30.5 -16.5t-33.5 -6.5q-18 0 -33.5 10t-19.5 35zM514 1077q45 23 85 54.5t50 89.5q-23 8 -40 27.5t-17 51.5q0 53 29.5 86 t70.5 33t61.5 -25.5t20.5 -66.5q0 -82 -42 -157.5t-101 -114.5q-14 -10 -30.5 -16.5t-33.5 -6.5q-18 0 -33.5 10t-19.5 35z" />
<glyph unicode="&#x201e;" horiz-adv-x="698" d="M47 -172q45 23 85 54.5t51 88.5q-23 8 -40.5 27.5t-17.5 52.5q0 53 30 86t71 33t61 -25.5t20 -66.5q0 -82 -41.5 -158t-101.5 -115q-14 -10 -30.5 -16t-32.5 -6q-18 0 -34 10t-20 35zM342 -172q45 23 85 54.5t51 88.5q-23 8 -40.5 27.5t-17.5 52.5q0 53 30 86t71 33 t61 -25.5t20 -66.5q0 -82 -41.5 -158t-101.5 -115q-14 -10 -30.5 -16t-32.5 -6q-18 0 -34 10t-20 35z" />
<glyph unicode="&#x2022;" horiz-adv-x="800" d="M209 717q0 51 18.5 98t51 82t80 55.5t104.5 20.5t104 -20.5t81 -55.5t52.5 -82t18.5 -98q0 -53 -19.5 -99.5t-53.5 -80t-81 -54t-102 -20.5q-57 0 -104.5 20.5t-80 54t-51 80t-18.5 99.5z" />
<glyph unicode="&#x2026;" horiz-adv-x="1144" d="M84 47q-4 47 23.5 89t82.5 42q35 0 55.5 -23.5t24.5 -56.5q4 -47 -23.5 -88t-80.5 -41q-37 0 -57.5 22.5t-24.5 55.5zM459 47q-4 47 23.5 89t82.5 42q35 0 55.5 -23.5t24.5 -56.5q4 -47 -23.5 -88t-80.5 -41q-37 0 -57.5 22.5t-24.5 55.5zM825 47q-4 47 23.5 89t82.5 42 q35 0 55.5 -23.5t24.5 -56.5q4 -47 -23.5 -88t-80.5 -41q-37 0 -57.5 22.5t-24.5 55.5z" />
<glyph unicode="&#x202f;" horiz-adv-x="350" />
<glyph unicode="&#x2039;" horiz-adv-x="542" d="M178 561q0 39 25.5 64.5t56.5 52.5l277 235q18 -29 18 -57q0 -39 -37 -76l-225 -215l151 -223q12 -16 16.5 -33.5t4.5 -27.5q0 -23 -11.5 -40.5t-27.5 -35.5l-205 266q-16 23 -29.5 43.5t-13.5 46.5z" />
<glyph unicode="&#x203a;" horiz-adv-x="542" d="M86 264q0 41 37 78l225 215l-151 221q-12 16 -16.5 33.5t-4.5 28.5q0 23 11.5 40t27.5 35l205 -266q16 -23 29.5 -43t13.5 -47q0 -39 -25.5 -64.5t-56.5 -52.5l-277 -235q-18 29 -18 57z" />
<glyph unicode="&#x205f;" horiz-adv-x="437" />
<glyph unicode="&#x20ac;" d="M100 487l17 97h123q4 92 18 180h-113l17 96h119q27 106 76 200.5t120.5 163t165.5 108.5t215 40q66 0 114 -15.5t81.5 -34.5t54 -39.5l31.5 -31.5q16 -18 22 -35.5t6 -31.5q0 -10 -7 -28.5t-48 -45.5h-14q-43 88 -108.5 122t-149.5 34q-170 -2 -277.5 -114t-154.5 -292 h495l-14 -96h-504q-14 -86 -18 -180h491l-14 -97h-477q4 -86 22.5 -161.5t55 -131t92 -87t133.5 -31.5q98 0 174 40t145 111l21 -26q23 -23 22 -45q0 -29 -15.5 -46.5t-43.5 -39.5q-47 -35 -121 -68t-190 -33q-117 0 -196 42t-128 114t-71.5 166t-26.5 196h-140z" />
<glyph unicode="&#x2122;" horiz-adv-x="1570" d="M158 1333q0 23 13 42.5t60 19.5h506q4 -20 4 -33q0 -23 -14 -41t-59 -18h-170v-662h-103v662h-235q-2 6 -2 30zM823 641l47 743q25 11 48 11q27 0 41 -11.5t22 -27.5l209 -504l209 500q12 29 30.5 36t36.5 7q25 0 50 -11l36 -743h-98l-24 557l-193 -434h-98l-185 412 l-32 -535h-99z" />
<glyph unicode="&#x25fc;" horiz-adv-x="952" d="M0 0v952h952v-952h-952z" />
</font>
</defs>
</svg>
