<?xml version="1.0" standalone="no"?>
<!DOCTYPE svg PUBLIC "-//W3C//DTD SVG 1.1//EN" "http://www.w3.org/Graphics/SVG/1.1/DTD/svg11.dtd" >
<svg xmlns="http://www.w3.org/2000/svg" xmlns:xlink="http://www.w3.org/1999/xlink" version="1.1">
<metadata></metadata>
<defs>
<font id="focoblack" horiz-adv-x="1208" >
<font-face units-per-em="2048" ascent="1638" descent="-410" />
<missing-glyph horiz-adv-x="409" />
<glyph unicode="&#xfb01;" horiz-adv-x="1171" d="M82 0v979q0 41 2 72.5t4 46.5q25 166 149.5 268t368.5 102q41 0 97.5 -5t99.5 -15q74 -18 127 -54t53 -100q0 -37 -21.5 -90t-60.5 -108q-33 18 -99.5 37.5t-142.5 19.5q-82 0 -126 -34t-44 -93v-37h598v-981q-80 -27 -149 -26q-94 0 -146.5 22.5t-78 59t-30.5 85 t-5 101.5v434h-189v-684h-407z" />
<glyph unicode="&#xfb02;" horiz-adv-x="1198" d="M82 0v987q0 33 2 69t4 50q27 166 161 264t363 98q129 0 250 -19t252 -63v-1378q-80 -27 -149 -26q-94 0 -146.5 22.5t-78 59t-30.5 85t-5 101.5v897q-16 4 -44 5t-45 1q-53 0 -90 -27.5t-37 -87.5v-49h144v-305h-144v-684h-407z" />
<glyph unicode="&#xfb03;" horiz-adv-x="1781" d="M82 0v987q0 43 2 74t4 45q27 166 139.5 264t317.5 98q78 0 163 -22.5t158 -75.5q63 43 148.5 70.5t202.5 27.5q41 0 97 -5t99 -15q74 -18 127 -54t53 -100q0 -37 -21.5 -90t-60.5 -108q-33 18 -99 37.5t-142 19.5q-82 0 -126 -34t-44 -93v-37h598v-981q-80 -27 -150 -26 q-94 0 -146 22.5t-78 59t-31 85t-5 101.5v434h-188v-684h-408v684h-203v-684h-407zM489 989h207q0 41 2 73t11 66q-29 14 -56.5 19.5t-50.5 5.5q-113 0 -113 -123v-41z" />
<glyph unicode="&#xfb04;" horiz-adv-x="1820" d="M82 0v969q0 43 2 73.5t4 44.5q23 184 143.5 282.5t307.5 98.5q104 0 183 -27.5t144 -70.5q82 55 167 76.5t202 21.5q186 0 309 -29.5t193 -52.5v-1378q-80 -27 -150 -26q-94 0 -146 22.5t-78 59t-31 85t-5 101.5v897q-16 4 -44 5t-44 1q-53 0 -90 -27.5t-37 -87.5v-49 h143v-305h-143v-684h-407v684h-216v-684h-407zM489 989h216q0 29 1 63.5t9 71.5q-29 14 -57.5 21.5t-55.5 7.5q-51 0 -82 -29.5t-31 -107.5v-27z" />
<glyph unicode="&#xd;" horiz-adv-x="409" />
<glyph horiz-adv-x="0" />
<glyph horiz-adv-x="0" />
<glyph unicode=" "  horiz-adv-x="409" />
<glyph unicode="&#x09;" horiz-adv-x="409" />
<glyph unicode="&#xa0;" horiz-adv-x="409" />
<glyph unicode="!" horiz-adv-x="657" d="M113 713v647q61 10 95 12t60 2q49 0 95.5 -9t81 -32.5t56 -65.5t21.5 -108v-708q0 -2 -31.5 -14.5t-97.5 -12.5q-94 0 -149.5 25.5t-85 66.5t-37.5 92t-8 105zM131 158q0 86 52.5 136t144.5 50q88 0 142 -50t54 -136t-52 -137.5t-144 -51.5t-144.5 51.5t-52.5 137.5z" />
<glyph unicode="&#x22;" horiz-adv-x="821" d="M82 831v555q41 10 66.5 12.5t52.5 2.5q76 0 109.5 -44t33.5 -116l-20 -410h-242zM492 831v555q41 10 66.5 12.5t52.5 2.5q76 0 109.5 -44t33.5 -116l-20 -410h-242z" />
<glyph unicode="#" horiz-adv-x="1339" d="M33 354l28 199h234l29 201h-234l29 200h231l43 291h266l-43 -291h172l43 291h267l-45 -291h256l-29 -200h-252l-31 -201h254l-26 -199h-254l-41 -305h-268l43 305h-170l-43 -305h-269l45 305h-235zM559 553h172l31 201h-172z" />
<glyph unicode="$" d="M100 184q0 49 34 109t75 113q72 -53 153.5 -90t174.5 -37q68 0 100.5 21.5t32.5 74.5q0 33 -15.5 54.5t-42 36.5t-62.5 28.5t-77 27.5q-61 20 -125.5 49t-117 77t-85 121t-32.5 181q0 82 23.5 147.5t64.5 115t98 83t123 52.5v206h125v-194l88 4v190h125v-194 q78 -14 132 -38t83 -42q39 -27 59.5 -55.5t20.5 -69.5t-22.5 -85t-74.5 -116q-35 27 -74.5 46.5t-79.5 34t-78 21.5t-64 7q-135 0 -136 -80q0 -43 40 -68.5t112 -50.5q66 -23 135.5 -49.5t126.5 -71.5t94 -114.5t37 -175.5q0 -190 -85 -301t-226 -154v-191h-125v175l-88 -5 v-170h-125v173q-86 10 -148.5 31.5t-101.5 47.5q-72 47 -72 125z" />
<glyph unicode="%" horiz-adv-x="1681" d="M35 1044q0 86 26.5 154t73.5 114t111.5 69.5t140.5 23.5q162 0 257 -93.5t95 -267.5t-96 -270t-256 -96q-166 0 -259 96t-93 270zM311 0l664 1229q20 39 39.5 70.5t46 55t64.5 36t96 12.5q39 0 73.5 -5t63.5 -20l-742 -1378h-305zM313 1044q0 -76 14.5 -119.5t59.5 -43.5 q47 0 61.5 44t14.5 122q0 72 -14.5 111.5t-61.5 39.5q-45 0 -59.5 -40t-14.5 -114zM926 330q0 86 26.5 153.5t73.5 113.5t111.5 69.5t140.5 23.5q162 0 257 -93t95 -267t-96 -270.5t-256 -96.5q-166 0 -259 96.5t-93 270.5zM1204 330q0 -76 14.5 -120t59.5 -44q47 0 61.5 44 t14.5 122q0 72 -14.5 111.5t-61.5 39.5q-45 0 -59.5 -40t-14.5 -113z" />
<glyph unicode="&#x26;" horiz-adv-x="1654" d="M92 401q0 100 31 176t80 131.5t108.5 92.5t114.5 59q-27 41 -46.5 86t-19.5 117q0 76 34 137.5t93.5 104.5t141.5 66.5t180 23.5q111 0 180.5 -17.5t122.5 -46.5q59 -33 72.5 -67.5t13.5 -65.5q0 -29 -29.5 -87t-66.5 -112q-86 53 -133 69.5t-78 16.5q-43 0 -66.5 -19 t-23.5 -48q0 -25 12 -51.5t31 -51.5l237 -317q27 57 40.5 127t19.5 156h452v-240h-166q-14 -92 -46.5 -169t-80.5 -136l240 -291q-78 -39 -141.5 -55.5t-128.5 -16.5q-92 0 -147.5 35t-90.5 76q-74 -49 -181.5 -85t-244.5 -36t-234.5 35t-159.5 94.5t-91 139t-29 169.5z M479 426q0 -70 43 -116t119 -46q55 0 99 15.5t81 42.5l-227 288q-39 -18 -77 -65t-38 -119z" />
<glyph unicode="'" horiz-adv-x="411" d="M82 831v555q41 10 66.5 12.5t52.5 2.5q76 0 109.5 -44t33.5 -116l-20 -410h-242z" />
<glyph unicode="(" horiz-adv-x="761" d="M82 631q0 104 15.5 206.5t45 195.5t72.5 174t98 141q51 53 117 86.5t145 33.5q41 0 87.5 -10t78.5 -24q-39 -66 -78.5 -140.5t-73.5 -171t-55.5 -218.5t-21.5 -277q0 -186 39 -340t86 -264q27 -66 58.5 -123.5t66.5 -110.5q-53 -27 -95 -35t-100 -8q-86 0 -139 27.5 t-86 60.5q-37 35 -82 102.5t-85 168t-66.5 231.5t-26.5 295z" />
<glyph unicode=")" horiz-adv-x="761" d="M0 -211q68 100 125 234q47 111 86 264t39 340q0 156 -21.5 277.5t-55.5 218t-74 171t-79 140.5q33 14 79 24t87 10q80 0 145.5 -33.5t117.5 -86.5q55 -59 98 -140.5t72.5 -174.5t45 -195.5t15.5 -206.5q0 -164 -26.5 -295t-66.5 -231.5t-85 -168t-82 -102.5 q-33 -33 -86 -60.5t-139 -27.5q-57 0 -99.5 8t-95.5 35z" />
<glyph unicode="*" horiz-adv-x="823" d="M51 879q0 39 29 56t63 28l82 26q18 8 47 8q20 0 39 -20.5t19 -46.5q0 -33 -35 -62l-70 -65q-23 -20 -37 -29.5t-41 -9.5q-18 0 -38.5 12t-38.5 45t-19 58zM51 1153q0 29 21 61q16 29 35.5 41.5t37.5 12.5q20 -1 43 -13q6 -4 19.5 -14t23.5 -20l64 -58q37 -31 37 -61 q0 -8 -10 -33q-18 -33 -58 -33q-18 0 -39 6l-92 29q-12 4 -24.5 9t-16.5 10q-16 10 -28.5 25t-12.5 38zM315 702q0 8 2 25.5t7 30.5l18 84q6 29 20.5 49t47.5 20q35 0 50 -20.5t21 -48.5l23 -94q2 -14 3 -27.5t1 -18.5q0 -31 -19.5 -55t-78.5 -24q-53 0 -74 23t-21 56z M315 1329q0 31 19.5 55.5t79.5 24.5q53 0 73.5 -23.5t20.5 -56.5q0 -8 -2 -25.5t-6 -27.5l-19 -86q-6 -29 -20.5 -49.5t-46.5 -20.5q-35 0 -50.5 21.5t-21.5 50.5l-20 92q-4 14 -5.5 26.5t-1.5 18.5zM492 930q0 8 10 33q18 33 57 32q16 0 39 -6l92 -28q12 -4 24.5 -9.5 t16.5 -9.5q16 -10 28.5 -25.5t12.5 -37.5q0 -29 -20 -62q-16 -29 -36 -41t-38 -12q-23 0 -43 12q-6 4 -19.5 14.5t-23.5 20.5l-64 57q-37 31 -36 62zM494 1102q0 33 34 61l70 66q10 10 21.5 16t15.5 10q18 12 41 13q18 0 38.5 -12.5t39.5 -45.5q18 -35 18 -57q0 -40 -41 -63 q-6 -4 -22.5 -10.5t-28.5 -10.5l-82 -27q-18 -8 -43 -8q-37 0 -51 33q-10 25 -10 35z" />
<glyph unicode="+" horiz-adv-x="1228" d="M109 516v328h331v370h346v-370h334v-328h-334v-364h-346v364h-331z" />
<glyph unicode="," horiz-adv-x="583" d="M61 -199q23 8 47.5 22.5t46 33t35 43t13.5 55.5q0 33 -17.5 55.5t-37 44t-37 50t-17.5 75.5q0 27 10.5 56.5t33 54t57 41t81.5 16.5q51 0 88 -20.5t61 -52t35 -73.5t11 -85q0 -86 -24.5 -164t-81.5 -141q-39 -45 -86.5 -74t-92.5 -29t-77.5 25.5t-47.5 66.5z" />
<glyph unicode="-" horiz-adv-x="903" d="M98 621q0 66 6 131h482q98 0 157.5 -38t59.5 -139q0 -33 -1 -70.5t-3 -70.5h-500q-106 0 -153.5 54.5t-47.5 132.5z" />
<glyph unicode="." horiz-adv-x="614" d="M113 162q0 86 54 137t140 51t140.5 -51t54.5 -137t-51.5 -139.5t-143.5 -53.5t-143 53.5t-51 139.5z" />
<glyph unicode="/" horiz-adv-x="876" d="M0 0l436 1188q14 41 32.5 76.5t48.5 62.5t73 42t108 15q39 0 82 -5t90 -19l-499 -1360h-371z" />
<glyph unicode="0" d="M55 672q0 162 33 292t100.5 221t173 140t250.5 49q143 0 246 -47t168.5 -138t95 -221t29.5 -296q0 -338 -132 -520.5t-413 -182.5q-285 0 -418 175t-133 528zM479 672q0 -215 29 -302t100 -87q33 0 57.5 19.5t40 65.5t22.5 120.5t7 183.5t-7 183.5t-22.5 120.5t-40 65.5 t-57.5 19.5q-37 0 -61.5 -19.5t-39.5 -65.5t-21.5 -121t-6.5 -183z" />
<glyph unicode="1" d="M164 1010q0 53 21.5 80.5t82.5 60.5l305 160q43 23 84 37t97 14q57 0 96 -13.5t61 -27.5v-1321h-403v887l-238 -115q-39 59 -72.5 121.5t-33.5 116.5z" />
<glyph unicode="2" d="M68 1143q0 33 17 57.5t48 46.5q29 20 70 43t95 41.5t121.5 30.5t151.5 12q98 0 186.5 -21.5t155 -70.5t105.5 -128t39 -191q0 -74 -20.5 -142.5t-56.5 -132t-83 -123t-100 -112.5q-37 -37 -74 -73t-76 -69h236q106 0 162.5 -45t56.5 -143q0 -29 -1 -57.5t-3 -65.5h-996 v272q41 31 89.5 73t100.5 89t104.5 99.5t101.5 103.5q70 74 108.5 138.5t38.5 137.5q0 80 -48 111t-103 31q-82 0 -159 -39t-138 -90q-55 63 -92 119.5t-37 97.5z" />
<glyph unicode="3" d="M41 1147q0 39 21.5 65.5t50.5 47.5q59 41 166.5 77.5t263.5 36.5q125 0 216 -26.5t149.5 -73.5t86 -110.5t27.5 -137.5q0 -123 -54.5 -195.5t-129.5 -113.5q92 -37 152.5 -110.5t60.5 -198.5q0 -98 -33 -178t-98.5 -138.5t-166 -90.5t-237.5 -32q-150 0 -236.5 27 t-142.5 57q-43 23 -67.5 58.5t-24.5 70.5q0 41 20.5 92.5t81.5 145.5q59 -53 145.5 -96t190.5 -43q70 0 112 35.5t42 105.5q0 45 -15.5 71.5t-38 41t-50 19.5t-54.5 5h-145v283h143q49 0 89 30.5t40 88.5q0 57 -37 81.5t-96 24.5q-78 0 -149.5 -30.5t-163.5 -96.5 q-55 63 -87 112.5t-32 94.5z" />
<glyph unicode="4" d="M66 293v250l436 659q25 37 50.5 65.5t61 50t81.5 33t112 11.5q59 0 113.5 -15.5t76.5 -33.5v-762h60q66 0 91.5 -20.5t25.5 -73.5q0 -29 -2.5 -64t-12.5 -100h-162v-293h-397v293h-534zM346 563h254v361h-12z" />
<glyph unicode="5" d="M68 180q0 37 26.5 101.5t83.5 150.5q29 -23 68 -48.5t83 -47t93 -34.5t98 -13q70 0 114 40t44 128q0 47 -16.5 76.5t-40 46t-52 21.5t-53.5 5q-66 0 -115 -13t-104 -42l-152 61l80 746h819q4 -41 6.5 -69.5t2.5 -63.5t-10.5 -69t-35 -61.5t-66.5 -45t-105 -17.5h-312 l-20 -155q41 8 80 12t75 4q199 0 316 -104.5t117 -315.5q0 -100 -31 -191.5t-95.5 -161t-166 -110.5t-242.5 -41q-90 0 -158.5 11.5t-119 27t-83 31.5t-51.5 29q-31 18 -54 47.5t-23 64.5z" />
<glyph unicode="6" d="M80 580q0 211 61.5 360.5t159.5 243.5t221 138t246 44q70 0 115 -10t71.5 -30.5t35.5 -51.5t9 -70q0 -31 -5 -72.5t-9 -72.5q-41 8 -67.5 10t-61.5 2q-47 0 -95 -9t-91 -31.5t-80 -60.5t-62 -96q45 29 103.5 40.5t105.5 11.5q98 0 172 -35t123 -95.5t73.5 -138 t24.5 -163.5q0 -133 -38.5 -231.5t-108.5 -164t-163 -97.5t-199 -32q-133 0 -234.5 43t-169 122t-102.5 191.5t-35 254.5zM496 526q0 -43 5 -87t18 -77.5t37 -55t62 -21.5q41 0 69 45t28 143q0 100 -33 145.5t-92 45.5q-14 0 -42 -2.5t-44 -6.5q-4 -31 -6 -62.5t-2 -66.5z " />
<glyph unicode="7" d="M100 1182q0 80 57.5 128t174.5 48h686q88 0 113.5 -27.5t25.5 -99.5v-127l-567 -1104h-432l532 1010h-571q-8 39 -13.5 79.5t-5.5 92.5z" />
<glyph unicode="8" d="M72 371q0 68 18.5 123t49 97t69.5 71.5t80 46.5q-82 41 -128 111.5t-46 174.5q0 92 35.5 163t100 119t155 72.5t198.5 24.5q109 0 199 -23.5t154.5 -69.5t99.5 -117.5t35 -166.5q0 -111 -48.5 -178t-125.5 -106q92 -35 154.5 -117t62.5 -199q0 -115 -38 -195.5 t-107.5 -132t-168 -76t-217.5 -24.5q-262 0 -397 98.5t-135 303.5zM477 406q0 -76 36 -111t91 -35q53 0 88 36t35 110q0 143 -123 143q-59 0 -93 -37t-34 -106zM508 977q0 -72 26.5 -107.5t69.5 -35.5q41 0 68.5 31.5t27.5 103.5q0 86 -29.5 116.5t-66.5 30.5t-66.5 -31.5 t-29.5 -107.5z" />
<glyph unicode="9" d="M84 850q0 133 39 231.5t108.5 164t161.5 97t201 31.5q133 0 234.5 -43t169 -123t101.5 -194.5t34 -257.5q0 -211 -60.5 -360.5t-158 -244t-220.5 -138.5t-248 -44q-72 0 -115.5 10.5t-70.5 31t-36 50t-9 70.5q0 31 5 73t9 72q41 -8 68 -10t61 -2q47 0 95.5 9.5t91.5 32 t80 60t61 95.5q-45 -29 -103.5 -40t-105.5 -11q-98 0 -172 36.5t-123 97t-73.5 140.5t-24.5 166zM500 862q0 -100 32.5 -146t92.5 -46q43 0 84 10q4 31 6 62.5t2 66.5q0 49 -5 94t-19.5 80t-37 55.5t-59.5 20.5q-41 0 -68.5 -49.5t-27.5 -147.5z" />
<glyph unicode=":" horiz-adv-x="614" d="M113 162q0 86 54 137t140 51t140.5 -51t54.5 -137t-51.5 -139.5t-143.5 -53.5t-143 53.5t-51 139.5zM113 793q0 86 54 137t140 51t140.5 -51t54.5 -137t-51.5 -139.5t-143.5 -53.5t-143 53.5t-51 139.5z" />
<glyph unicode=";" horiz-adv-x="604" d="M61 -199q23 8 47.5 22.5t46 33t35 43t13.5 55.5q0 33 -17.5 55.5t-37 44t-37 50t-17.5 75.5q0 27 10.5 56.5t33 54t57 41t81.5 16.5q51 0 88 -20.5t61 -52t35 -73.5t11 -85q0 -86 -24.5 -164t-81.5 -141q-39 -45 -86.5 -74t-92.5 -29t-77.5 25.5t-47.5 66.5zM105 793 q0 86 54 137t140 51t140.5 -51t54.5 -137t-51.5 -139.5t-143.5 -53.5t-143 53.5t-51 139.5z" />
<glyph unicode="&#x3c;" horiz-adv-x="1228" d="M109 496v325l1011 361v-334l-536 -184l536 -197v-348z" />
<glyph unicode="=" horiz-adv-x="1228" d="M109 260v328h1011v-328h-1011zM109 750v327h1011v-327h-1011z" />
<glyph unicode="&#x3e;" horiz-adv-x="1228" d="M109 119v348l536 197l-536 184v334l1011 -361v-325z" />
<glyph unicode="?" horiz-adv-x="997" d="M41 1178q0 33 12.5 60.5t52.5 57.5q41 31 128.5 65t232.5 34q94 0 178 -22.5t146.5 -65.5t98.5 -108.5t36 -151.5q0 -68 -16.5 -119t-44 -91t-62.5 -72t-70 -60q-55 -45 -95 -88.5t-40 -114.5q0 -45 8 -86q-18 -4 -40.5 -6t-45.5 -2q-45 0 -92 9t-85 30.5t-62.5 58.5 t-24.5 90q0 82 43 135t102 107q41 39 72 76.5t31 84.5q0 53 -33 72t-84 19q-47 0 -110.5 -26t-129.5 -73q-55 63 -80.5 109.5t-25.5 77.5zM250 158q0 86 52 136t144 50q88 0 142.5 -50t54.5 -136t-52 -137.5t-145 -51.5q-92 0 -144 51.5t-52 137.5z" />
<glyph unicode="@" horiz-adv-x="1636" d="M41 1047q0 35 15.5 57t35.5 39q14 10 57.5 37.5t118 57.5t182 52.5t250.5 22.5q211 0 367 -59.5t258 -162t153.5 -240.5t51.5 -294q0 -178 -55.5 -327.5t-159 -257t-253 -167t-339.5 -59.5q-154 0 -266.5 34t-187 94t-111.5 144t-37 185q0 88 30.5 153.5t81 110.5 t114 72.5t129 44t127 21.5t108.5 5q0 72 -38 100.5t-98 28.5q-127 0 -272 -82q-74 74 -74 127q0 29 18.5 54.5t61.5 48.5q53 27 133 48t199 21q186 0 290.5 -82.5t104.5 -257.5v-192q0 -68 4.5 -142.5t16.5 -121.5q-27 -6 -65 -9.5t-66 -3.5q-92 0 -150.5 41t-58.5 129v95 q-45 0 -93.5 -8.5t-88 -31t-65.5 -62.5t-26 -103q0 -31 13.5 -69t47.5 -71.5t94 -57t153 -23.5q270 0 391 145t121 424q0 131 -41 230.5t-116 165t-182.5 99t-240.5 33.5q-88 0 -168 -17t-150.5 -44t-129 -60.5t-101.5 -66.5q-43 41 -68.5 79t-25.5 73z" />
<glyph unicode="A" horiz-adv-x="1372" d="M0 0l440 1341q39 16 104.5 29.5t143.5 13.5q33 0 74 -4t80 -22.5t72.5 -55t56.5 -100.5l401 -1202h-409l-113 324h-340l-104 -324h-406zM567 586h224l-68 258q-10 43 -23.5 103.5t-15.5 101.5h-6q-4 -43 -16.5 -104.5t-22.5 -98.5z" />
<glyph unicode="B" horiz-adv-x="1230" d="M113 0v1358q129 14 234.5 20t178.5 6q168 0 283 -26.5t184.5 -73.5t99 -115.5t29.5 -150.5q0 -104 -49 -178t-135 -109q45 -14 89 -38.5t78 -63.5t54.5 -92t20.5 -123q0 -123 -44 -203t-124 -127t-190.5 -65.5t-241.5 -18.5h-467zM524 285h66q80 0 126 36.5t46 114.5 q0 66 -35 104t-127 38h-76v-293zM524 838h54q68 0 97.5 47t29.5 104q0 53 -31 87t-99 34q-12 0 -23 -1t-28 -3v-268z" />
<glyph unicode="C" horiz-adv-x="1220" d="M68 678q0 156 39.5 288t121.5 228t209 151.5t299 55.5q80 0 143.5 -12.5t112.5 -31t84 -39t56 -38.5q23 -20 47 -52t24 -71q0 -41 -38 -95t-97 -112q-72 66 -134.5 98.5t-146.5 32.5t-141 -34.5t-92 -90t-51.5 -125t-16.5 -139.5q0 -78 15.5 -151.5t50.5 -131t93.5 -92 t141.5 -34.5q82 0 141.5 27.5t125.5 86.5q16 -18 36.5 -43.5t39 -53.5t31 -57.5t12.5 -56.5q-1 -61 -58 -112q-12 -12 -39.5 -30.5t-71.5 -37t-109 -31t-151 -12.5q-172 0 -300 52.5t-211.5 147.5t-124.5 226t-41 289z" />
<glyph unicode="D" horiz-adv-x="1343" d="M113 0v1356q160 20 263 24t169 4q215 0 355 -53t223 -144t116 -213t33 -257q0 -145 -38 -275.5t-119 -228.5t-207 -155.5t-302 -57.5h-493zM526 309h49q90 0 145.5 38t85.5 97.5t39 131t9 137.5q0 74 -12.5 139.5t-43 115.5t-85 78.5t-135.5 28.5h-24.5t-27.5 -2v-764z " />
<glyph unicode="E" horiz-adv-x="1132" d="M113 0v1374h934q4 -41 6 -64.5t2 -58.5t-10.5 -68.5t-35 -61t-67.5 -45t-108 -17.5h-308v-207h396v-313h-396v-228h328q70 0 115 -17.5t69.5 -46t33.5 -63t9 -69.5t-1 -57.5t-3 -57.5h-964z" />
<glyph unicode="F" horiz-adv-x="1091" d="M113 0v1374h942q4 -41 6 -65.5t2 -59.5t-10.5 -68.5t-36 -60t-68.5 -44t-108 -17.5h-316v-207h404v-313h-404v-539h-411z" />
<glyph unicode="G" horiz-adv-x="1357" d="M68 678q0 152 43 284t131 229t219 153.5t307 56.5q78 0 143.5 -11.5t117.5 -29t90 -37.5t61 -37q29 -23 48 -51.5t19 -69.5q0 -45 -36.5 -100t-96.5 -113q-70 61 -141.5 95t-169.5 34q-90 0 -150.5 -34.5t-97.5 -90t-52.5 -126t-15.5 -144.5q0 -80 15.5 -154.5t52.5 -132 t97.5 -92.5t150.5 -35q41 0 76 7v462h180q76 0 117 -17t61 -44t24.5 -61.5t4.5 -67.5v-457q-20 -18 -60.5 -40.5t-102 -42t-147.5 -34t-196 -14.5q-176 0 -306 53.5t-216 148.5t-128 226t-42 287z" />
<glyph unicode="H" horiz-adv-x="1382" d="M113 0v1370q53 10 95 12t62 2q41 0 86 -7t82 -28.5t61.5 -62.5t24.5 -106v-326h334v516q53 10 95 12t63 2q39 0 84 -7t83 -28.5t62.5 -62.5t24.5 -106v-1180h-412v535h-334v-535h-411z" />
<glyph unicode="I" horiz-adv-x="636" d="M113 0v1370q53 10 95 12t62 2q41 0 86 -7t82 -28.5t61.5 -62.5t24.5 -106v-1180h-411z" />
<glyph unicode="J" horiz-adv-x="638" d="M-141 -184q123 6 188.5 57t65.5 174v1323q53 10 95 12t62 2q41 0 86 -7t83 -28.5t62.5 -62.5t24.5 -106v-1045q0 -29 -2 -82t-6 -94q-6 -80 -41 -156.5t-94 -136t-142 -95.5t-184 -36q-90 0 -131 36t-57 118q-6 29 -8 60.5t-2 66.5z" />
<glyph unicode="K" horiz-adv-x="1355" d="M113 0v1370q53 10 95 12t62 2q41 0 86 -7t82 -28.5t61.5 -62.5t24.5 -106v-1180h-411zM526 705q0 78 33 149.5t86 149.5l154 223q25 35 49 63.5t54 50t67 32.5t84 11q45 0 91 -16t83 -35q47 -23 84 -49l-377 -567l416 -680q-78 -39 -149 -51.5t-144 -12.5 q-92 0 -149.5 41t-92.5 99l-178 282q-29 45 -49.5 82t-34.5 73t-20.5 72.5t-6.5 82.5z" />
<glyph unicode="L" horiz-adv-x="1087" d="M113 0v1370q53 10 96 12t63 2q41 0 86 -7t82 -28.5t61.5 -62.5t24.5 -106v-852h299q70 0 114 -17.5t67.5 -46t32 -63.5t8.5 -68q0 -29 -2.5 -60.5t-4.5 -72.5h-927z" />
<glyph unicode="M" horiz-adv-x="1671" d="M78 0l98 1360q27 8 87.5 16t123.5 8q98 0 144.5 -30.5t70.5 -96.5l232 -634h8l225 618q31 86 84 114.5t139 28.5q63 0 120.5 -7t86.5 -17l96 -1360h-391l-41 688h-8l-184 -436h-275l-172 422h-8l-43 -674h-393z" />
<glyph unicode="N" horiz-adv-x="1384" d="M113 0v1370q29 4 78 9t102 5q98 0 148.5 -31.5t82.5 -90.5l346 -623v731q47 10 87 12t61 2q41 0 86 -7t82 -28.5t61.5 -61.5t24.5 -105v-1182h-332l-428 680v-680h-399z" />
<glyph unicode="O" horiz-adv-x="1449" d="M68 686q0 145 39.5 275.5t121.5 227.5t207 154.5t297 57.5q168 0 291 -54.5t201 -149.5t115.5 -225t37.5 -284q0 -152 -37.5 -284t-117.5 -230t-206 -154.5t-300 -56.5t-297 56.5t-202 153.5t-114.5 229.5t-35.5 283.5zM489 686q0 -80 13.5 -152.5t41 -128t73 -88 t108.5 -32.5t108.5 32.5t73 88t39.5 128t12 152.5q0 78 -12 149.5t-39.5 126t-70.5 86t-105 31.5q-66 0 -112 -31.5t-74.5 -86t-42 -126t-13.5 -149.5z" />
<glyph unicode="P" horiz-adv-x="1191" d="M113 0v1362q109 10 221 16t190 6q319 0 468 -111.5t149 -328.5q0 -135 -44 -231.5t-121 -158.5t-180.5 -91t-220.5 -29h-49v-434h-413zM524 715h35q86 0 125 57.5t39 155.5q0 176 -152 176h-23t-24 -2v-387z" />
<glyph unicode="Q" horiz-adv-x="1449" d="M68 686q0 145 39.5 275.5t121.5 227.5t207 154.5t297 57.5q168 0 291 -54.5t201 -149.5t115.5 -225t37.5 -284q0 -152 -37.5 -284t-117.5 -230t-206 -154.5t-300 -56.5t-297 56.5t-202 153.5t-114.5 229.5t-35.5 283.5zM489 686q0 -80 13.5 -152.5t41 -128t73 -88 t108.5 -32.5t108.5 32.5t73 88t39.5 128t12 152.5q0 78 -12 149.5t-39.5 126t-70.5 86t-105 31.5q-66 0 -112 -31.5t-74.5 -86t-42 -126t-13.5 -149.5zM686 -195q23 37 67 69t101 32q68 0 112 -30t95 -67.5t121.5 -70.5t191.5 -39q-6 -35 -16 -73t-34 -70.5t-64.5 -53 t-106.5 -20.5q-78 0 -152.5 30.5t-138 79t-110 104.5t-66.5 109z" />
<glyph unicode="R" horiz-adv-x="1257" d="M113 0v1362q109 12 221 17t190 5q319 0 473 -104.5t154 -325.5q0 -82 -19.5 -147.5t-49 -116.5t-67.5 -87t-75 -56l301 -516q-47 -23 -103.5 -40.5t-131.5 -17.5q-102 0 -167 29t-114 109l-172 335h-27v-446h-413zM524 711h51q78 0 110 58t32 144q0 92 -37 141.5 t-105 49.5q-10 0 -24 -1t-27 -3v-389z" />
<glyph unicode="S" horiz-adv-x="1101" d="M31 178q0 49 34.5 108.5t77.5 112.5q78 -53 163 -90t183 -37q139 0 140 113q0 31 -16.5 54.5t-44 42t-65.5 32.5t-81 29q-66 20 -132.5 49t-121.5 77t-90 120.5t-35 181.5q0 111 44 191.5t116.5 134t168 79t197.5 25.5q141 0 240.5 -32t140.5 -58q41 -27 62.5 -55.5 t21.5 -69.5t-23.5 -87t-76.5 -118q-37 27 -80 46.5t-85 33.5t-81 21.5t-67 7.5q-68 0 -105 -23t-37 -63q0 -43 42 -69t116 -50q68 -23 141.5 -51.5t134 -75.5t99.5 -120t39 -185q0 -123 -40 -215.5t-113 -153.5t-172 -91t-218 -30q-147 0 -247.5 27.5t-156.5 62.5 q-37 23 -55 55.5t-18 69.5z" />
<glyph unicode="T" horiz-adv-x="1243" d="M16 1176q0 33 12.5 68.5t40 64t71.5 47t110 18.5h967q4 -41 6 -74.5t2 -68.5t-10.5 -69t-36 -60.5t-68.5 -44t-109 -17.5h-170v-1040h-413v1040h-393q-4 41 -6.5 71t-2.5 65z" />
<glyph unicode="U" horiz-adv-x="1339" d="M102 565v805q53 10 95.5 12t62.5 2q41 0 86 -7t82 -28.5t61.5 -62.5t24.5 -106v-627q0 -92 16 -152q14 -43 47 -75.5t99 -32.5q49 0 85 23.5t52 82.5q6 27 9 67t3 87v817q53 10 95.5 12t62.5 2q39 0 84 -7t83 -28.5t62.5 -62.5t24.5 -106v-615q0 -41 -2 -86t-6 -92 q-8 -86 -44 -161.5t-103.5 -133t-169 -90.5t-240.5 -33q-137 0 -236.5 27t-167 81t-105.5 133t-52 183q-4 39 -6.5 88t-2.5 84z" />
<glyph unicode="V" horiz-adv-x="1343" d="M0 1354q14 6 44 11t64.5 10t68.5 7t59 2q211 0 249 -174l181 -780h14l188 768q20 86 81 136t165 50q53 0 108.5 -8t120.5 -24l-448 -1362h-457z" />
<glyph unicode="W" horiz-adv-x="1898" d="M0 1341q20 8 50 16.5t60.5 14.5t60.5 9t52 3q106 0 161.5 -40.5t78.5 -118.5l199 -672h8l129 399l-107 404q61 12 113.5 20t95.5 8q106 0 158.5 -43t70.5 -122l156 -666h10l148 664q18 82 74.5 124.5t160.5 42.5q74 0 126.5 -11t92.5 -25l-438 -1358h-313l-176 536h-8 l-185 -536h-303z" />
<glyph unicode="X" horiz-adv-x="1280" d="M0 0l385 676l-332 637q31 14 68 27.5t73.5 22.5t71.5 15t62 6q86 0 144 -37.5t91 -125.5l86 -230l96 232q29 72 90.5 116.5t159.5 44.5q59 0 127 -17t131 -52l-354 -631l371 -664q-55 -23 -122 -35t-118 -12q-117 0 -180.5 42t-101.5 112l-115 209l-172 -336h-461z" />
<glyph unicode="Y" horiz-adv-x="1288" d="M0 1317q53 29 126 48t128 19q98 0 150.5 -36.5t80.5 -108.5l160 -383l158 387q27 63 79 102t152 39q53 0 121 -14t133 -37l-440 -860v-473h-414v463z" />
<glyph unicode="Z" horiz-adv-x="1224" d="M51 1184q0 33 10.5 67.5t37 61t70.5 44t110 17.5h712q76 0 104.5 -26.5t28.5 -85.5v-162l-585 -789h405q70 0 115 -17.5t70.5 -45t35 -62t9.5 -67.5q0 -35 -1.5 -59.5t-3.5 -59.5h-1112v270l584 789h-586q-2 35 -3 62.5t-1 62.5z" />
<glyph unicode="[" horiz-adv-x="765" d="M113 -279v1747h581v-286h-223v-1176h223v-285h-581z" />
<glyph unicode="\" horiz-adv-x="876" d="M6 1360q47 14 90 19t82 5q66 0 110 -15t72.5 -42t46 -62.5t33.5 -76.5l437 -1188h-371z" />
<glyph unicode="]" horiz-adv-x="765" d="M72 6h223v1176h-223v286h581v-1747h-581v285z" />
<glyph unicode="^" horiz-adv-x="1183" d="M51 539l379 827h324l379 -827h-330l-211 514l-211 -514h-330z" />
<glyph unicode="_" horiz-adv-x="942" d="M0 -205h942v-225h-942v225z" />
<glyph unicode="`" horiz-adv-x="1024" d="M246 1397q39 35 90 70.5t100 35.5q53 0 86 -28.5t60 -63.5l176 -235q-29 -23 -69 -47.5t-79 -24.5q-35 0 -63.5 10t-57.5 39z" />
<glyph unicode="a" horiz-adv-x="1073" d="M41 287q0 119 62.5 189.5t151.5 107.5t184.5 47t162.5 10v29q0 57 -38 72.5t-91 15.5q-72 0 -141.5 -19.5t-155.5 -60.5q-39 47 -58.5 92t-19.5 68q0 31 20.5 57.5t84.5 58.5q55 29 149 45.5t193 16.5q240 0 343 -94.5t103 -298.5v-400q0 -51 8.5 -111.5t22.5 -105.5 q-29 -8 -51.5 -13t-44 -8t-45 -4t-52.5 -1q-166 0 -192 94q-35 -35 -101.5 -63.5t-170.5 -28.5q-63 0 -122 16t-104 52t-71.5 94.5t-26.5 142.5zM418 319q0 -47 25.5 -72.5t70.5 -25.5q37 0 65.5 16.5t28.5 49.5v172q-39 -4 -73.5 -12.5t-60 -23.5t-41 -40t-15.5 -64z" />
<glyph unicode="b" horiz-adv-x="1159" d="M82 0v1438q49 10 89 12t67 2q49 0 95 -9t81 -33t56.5 -65.5t21.5 -107.5v-268q23 14 76 30.5t128 16.5q74 0 148 -21.5t132 -76t95 -148.5t37 -238q0 -168 -34 -276.5t-89 -170.5t-127 -87t-147 -25q-66 0 -112 14.5t-75.5 33t-44.5 34.5q-14 16 -16 23 q0 -33 -13.5 -55.5t-52.5 -22.5h-315zM492 297q12 -8 31.5 -11t35.5 -3q35 0 58.5 19.5t37 53t19.5 80t6 99.5q0 98 -27.5 154t-101.5 56q-25 0 -39 -3t-20 -5v-440z" />
<glyph unicode="c" horiz-adv-x="952" d="M51 498q0 154 52.5 253t131 158.5t171 83t172.5 23.5q72 0 142.5 -14.5t123.5 -45.5q49 -29 73.5 -60.5t24.5 -76.5q0 -37 -24.5 -88t-59.5 -104q-57 47 -105 70.5t-114 23.5q-82 0 -128 -57.5t-46 -157.5q0 -51 9 -97.5t31.5 -80t58.5 -54t91 -20.5q57 0 105.5 22.5 t91.5 59.5q14 -18 29.5 -41t28 -47.5t20.5 -49t8 -44.5q0 -35 -15.5 -64t-62.5 -57q-45 -29 -116.5 -46.5t-163.5 -17.5q-84 0 -177.5 21.5t-171 80t-129 161t-51.5 266.5z" />
<glyph unicode="d" horiz-adv-x="1148" d="M51 479q0 147 32 249.5t85 166t122.5 92.5t145.5 29q49 0 88 -10.5t66.5 -23.5t45 -26.5t23.5 -19.5v502q49 10 88 12t66 2q49 0 95 -9t81 -33t56.5 -65.5t21.5 -107.5v-1237h-307q-31 0 -55.5 14.5t-24.5 61.5q-29 -37 -91.5 -66.5t-156.5 -29.5q-70 0 -137.5 22.5 t-121.5 78.5t-88 153.5t-34 244.5zM469 485q0 -49 6 -91t21.5 -73.5t40 -50t61.5 -18.5q25 0 39 3t20 5v440q-12 8 -31.5 11.5t-35.5 3.5q-70 0 -95.5 -62t-25.5 -168z" />
<glyph unicode="e" horiz-adv-x="1054" d="M51 518q0 129 44 223.5t115 155.5t162 90t183 29q125 0 213 -37t142.5 -98.5t79 -143.5t24.5 -172v-27.5t-1 -36t-2 -34.5t-3 -25h-547q10 -78 57.5 -132t151.5 -54q82 0 137 24.5t111 65.5q27 -41 53 -94t26 -94q0 -35 -18 -66t-66 -59q-45 -27 -120.5 -45.5 t-192.5 -18.5q-84 0 -180 20.5t-178 80t-136.5 167t-54.5 281.5zM455 612h196q0 86 -23.5 117t-76.5 31q-96 0 -96 -148z" />
<glyph unicode="f" horiz-adv-x="819" d="M82 0v1010q0 20 1 41.5t2 42t3 34.5q27 166 139.5 253t317.5 87q41 0 87 -5t89 -15q74 -18 127 -55t53 -107q0 -31 -24.5 -83t-63.5 -107q-33 18 -84 37.5t-113 19.5q-53 0 -90 -27.5t-37 -87.5v-49h304v-305h-304v-684h-407z" />
<glyph unicode="g" horiz-adv-x="1146" d="M51 485q0 141 32 242.5t86 165t123.5 93.5t145.5 30q53 0 93 -12.5t69 -29t48.5 -36.5t31.5 -35q27 41 80 66.5t145 25.5q29 0 69 -3t91 -13v-885q0 -59 -4 -117.5t-21 -111.5q-43 -145 -171 -237.5t-347 -92.5q-125 0 -205.5 17.5t-130.5 44.5q-53 29 -69.5 63.5 t-16.5 67.5q0 35 28 93t65 111q47 -37 123.5 -72.5t162.5 -35.5q98 0 148.5 46t50.5 167v53q-14 -23 -41 -40t-58.5 -29.5t-67.5 -18.5t-71 -6q-78 0 -148.5 25.5t-123.5 83t-85 150.5t-32 230zM467 494q0 -98 27.5 -160t101.5 -62q20 0 36.5 3.5t22.5 5.5v419 q-12 8 -31.5 11.5t-35.5 3.5q-70 0 -95.5 -57.5t-25.5 -163.5z" />
<glyph unicode="h" horiz-adv-x="1136" d="M82 0v1438q49 10 89 12t67 2q49 0 94 -9t81 -31.5t57.5 -64.5t21.5 -106v-348q25 41 87 82t173 41q119 0 190.5 -61.5t95.5 -161.5q6 -23 9.5 -51.5t4.5 -59.5t2 -59.5t1 -49.5v-565q-59 -26 -146 -26h-6q-94 0 -146 22.5t-78 59t-31 85t-5 101.5v352q0 45 -10 71.5 t-55 26.5t-64.5 -19t-19.5 -42v-639h-412z" />
<glyph unicode="i" horiz-adv-x="573" d="M74 1294q0 88 57 140.5t143 52.5t143.5 -52.5t57.5 -140.5t-57.5 -139t-143.5 -51t-143 51t-57 139zM82 250v731q61 10 95 12t61 2q49 0 95 -9t81 -32.5t56.5 -65.5t21.5 -108v-772q-77 -26 -145 -26h-5q-94 0 -146.5 22.5t-78 59t-30.5 85t-5 101.5z" />
<glyph unicode="j" horiz-adv-x="573" d="M-127 -195q66 6 106.5 24.5t63.5 47.5t31 67t8 83v954q49 10 89 12t67 2q49 0 95 -9t81 -32.5t56.5 -65.5t21.5 -108v-725q0 -45 -4.5 -111.5t-18.5 -119.5q-23 -82 -71 -137.5t-105 -89t-115.5 -48t-103.5 -14.5q-88 0 -129 34t-56 99q-6 27 -9 56.5t-7 80.5zM74 1294 q0 88 57 140.5t143 52.5t143.5 -52.5t57.5 -140.5t-57.5 -139t-143.5 -51t-143 51t-57 139z" />
<glyph unicode="k" horiz-adv-x="1222" d="M82 0v1438q49 10 89 12t67 2q49 0 95 -9t81 -33t56.5 -65.5t21.5 -107.5v-659q23 94 90 176l110 141q39 49 86 85t129 36q47 0 92 -13.5t80 -29.5q20 -10 39 -20.5t35 -20.5l-281 -393l332 -506q-135 -55 -248 -56q-96 0 -151 35t-96 90l-131 183q-35 47 -56 88 q-20 39 -30 88v-461h-410z" />
<glyph unicode="l" horiz-adv-x="573" d="M82 250v1188q49 10 89 12t67 2q49 0 95 -9t81 -33t56.5 -65.5t21.5 -107.5v-1229q-77 -26 -145 -26h-5q-94 0 -146.5 22.5t-78 59t-30.5 85t-5 101.5z" />
<glyph unicode="m" horiz-adv-x="1675" d="M82 0v979q35 8 71.5 12t88.5 4q182 0 229 -102q25 43 86 83t174 40q98 0 165 -39t101 -105q27 53 98.5 98.5t184.5 45.5q129 0 200.5 -61.5t96.5 -161.5q6 -23 9 -51.5t4 -59.5t2 -59.5t1 -49.5v-565q-59 -26 -145 -26h-6q-94 0 -146.5 22.5t-78 59t-30.5 85t-5 101.5 v352q0 45 -10.5 71.5t-55.5 26.5t-58.5 -19t-13.5 -38v-643h-411v602q0 45 -10.5 71.5t-55.5 26.5q-41 0 -57 -19t-16 -42v-639h-412z" />
<glyph unicode="n" horiz-adv-x="1136" d="M82 0v979q35 8 71.5 12t88.5 4q92 0 150.5 -27.5t78.5 -74.5q25 43 91.5 83t178.5 40q129 0 201 -61.5t96 -161.5q6 -23 9.5 -51.5t4.5 -59.5t2 -59.5t1 -49.5v-565q-59 -26 -146 -26h-6q-94 0 -146 22.5t-78 59t-31 85t-5 101.5v352q0 45 -10 71.5t-55 26.5t-64.5 -19 t-19.5 -42v-639h-412z" />
<glyph unicode="o" horiz-adv-x="1146" d="M51 498q0 106 33 201.5t99.5 165t164.5 110.5t232 41q141 0 239.5 -41t159.5 -110.5t89 -163t28 -197.5t-29 -201.5t-91.5 -171.5t-161.5 -118t-243 -44q-141 0 -239.5 43t-160.5 116t-91 168t-29 202zM457 496q0 -45 5 -86t19.5 -73t36 -50.5t55.5 -18.5q35 0 57.5 19.5 t35 51.5t17.5 73t5 86q0 92 -24.5 153.5t-88.5 61.5q-35 0 -57 -18.5t-36.5 -49.5t-19.5 -69.5t-5 -79.5z" />
<glyph unicode="p" horiz-adv-x="1159" d="M82 -446v1425q35 8 71.5 12t88.5 4q186 0 229 -98q35 47 97.5 83t166.5 36q63 0 130 -23.5t121 -80t88 -151.5t34 -237q0 -166 -35 -272.5t-92 -169t-128 -86t-142 -23.5q-53 0 -94.5 11.5t-70 27t-42.5 27.5t-17 18v-503h-405zM492 301q12 -8 31.5 -11t35.5 -3 q70 0 95.5 66.5t25.5 172.5q0 92 -27.5 144.5t-101.5 52.5q-25 0 -39 -3t-20 -5v-414z" />
<glyph unicode="q" horiz-adv-x="1146" d="M51 477q0 154 34 257.5t89 166t126 89t146 26.5q49 0 90.5 -13.5t71 -32t49 -39t27.5 -34.5q27 41 81 69.5t140 28.5q31 0 71 -3t89 -13v-1425h-406v509q-31 -41 -88 -62t-127 -21q-80 0 -151.5 24.5t-124.5 81.5t-85 153.5t-32 237.5zM467 479q0 -98 27.5 -159.5 t101.5 -61.5q25 0 39 3t20 5v428q-12 8 -31.5 11.5t-35.5 3.5q-70 0 -95.5 -62t-25.5 -168z" />
<glyph unicode="r" horiz-adv-x="876" d="M82 0v979q35 8 71.5 12t88.5 4q182 0 229 -102q10 18 30.5 39.5t50.5 40t66.5 31t77.5 12.5q31 0 60.5 -6t54.5 -19.5t40 -36t15 -55.5t-8 -72t-21.5 -79.5t-29.5 -79.5t-33 -70q-43 35 -83 52.5t-87 17.5q-53 0 -81.5 -27t-28.5 -70v-571h-412z" />
<glyph unicode="s" horiz-adv-x="923" d="M31 154q0 53 25.5 104t58.5 100q25 -23 56.5 -42t68 -35.5t75.5 -25.5t76 -9q53 0 75.5 17.5t22.5 43.5q0 31 -33.5 49.5t-82.5 32.5t-108.5 32.5t-109 50.5t-83 84t-33.5 136q0 82 35 143.5t93 101.5t134 59.5t160 19.5q170 0 293 -51q55 -23 91 -54.5t36 -74.5 q0 -37 -23.5 -88.5t-58.5 -98.5q-61 47 -129 77t-138 30q-88 0 -88 -51q0 -33 33 -50.5t82 -30t106.5 -27.5t106.5 -46t82 -84t33 -139q0 -166 -115 -262.5t-338 -96.5q-127 0 -197.5 19.5t-111.5 40.5q-53 27 -73.5 58.5t-20.5 66.5z" />
<glyph unicode="t" horiz-adv-x="811" d="M76 356v936q49 10 89 12.5t66 2.5q49 0 94.5 -9.5t81 -33t57 -65.5t21.5 -105v-105h263v-303h-263v-305q0 -57 25 -79.5t68 -22.5q37 0 75.5 17t65.5 40q33 -59 53.5 -107.5t20.5 -89.5q0 -29 -10.5 -51t-39.5 -43q-45 -33 -121.5 -54.5t-175.5 -21.5q-147 0 -230 56.5 t-116 148.5q-16 47 -20 93t-4 89z" />
<glyph unicode="u" horiz-adv-x="1136" d="M82 424v557q51 10 91 12t67 2q49 0 94 -9t81 -31.5t57.5 -64.5t21.5 -106v-389q0 -45 13 -71.5t58 -26.5t61.5 19.5t16.5 41.5v623q51 10 91 12t67 2q49 0 95 -9t81 -32.5t56.5 -65.5t21.5 -108v-780h-301q-53 0 -70.5 22.5t-17.5 81.5q-25 -43 -91.5 -82.5t-179.5 -39.5 q-129 0 -200.5 61t-96.5 162q-6 23 -9 51.5t-4 59t-2 59t-1 49.5z" />
<glyph unicode="v" horiz-adv-x="1085" d="M10 954q51 16 110.5 28.5t115.5 12.5q59 0 100 -16t66.5 -44t40 -64.5t22.5 -79.5l78 -449h8l84 451q14 86 64.5 144t156.5 58q63 0 122.5 -12t96.5 -29l-332 -966h-397z" />
<glyph unicode="w" horiz-adv-x="1576" d="M10 954q55 18 117.5 29.5t103.5 11.5q104 0 153.5 -38.5t76.5 -118.5l129 -394h8l72 164l-90 355q59 18 102 25t92 7q86 0 126 -43t58 -129l82 -377h9l94 357q27 98 73 145t132 47q59 0 112 -12t107 -31l-340 -964h-297l-113 321h-18l-144 -321h-268z" />
<glyph unicode="x" horiz-adv-x="1095" d="M20 0l322 483l-305 469q25 8 58.5 16.5t69.5 14.5t68.5 9t57.5 3q94 0 143 -43t76 -102l47 -107l45 103q29 66 87.5 107.5t144.5 41.5q55 0 115.5 -10t117.5 -31l-281 -465l289 -460q-66 -27 -123 -38t-121 -11q-88 0 -139 30.5t-82 89.5l-65 125l-123 -225h-402z" />
<glyph unicode="y" horiz-adv-x="1110" d="M10 961q45 16 103.5 25t111.5 9q61 0 104.5 -17t72 -46t44 -67t23.5 -77l90 -450h8l90 453q16 82 71.5 143t164.5 61t207 -39l-260 -983q-6 -20 -14.5 -46.5t-19.5 -54.5t-22.5 -54.5t-23.5 -44.5q-72 -129 -176.5 -183.5t-251.5 -54.5q-104 0 -174 32t-70 122 q0 35 16.5 83t55.5 115q35 -23 73.5 -32t67.5 -9q74 0 115 36t59 134h-162z" />
<glyph unicode="z" horiz-adv-x="1009" d="M47 0v266l397 414h-385q-4 35 -5 60.5t-1 60.5q0 55 21.5 92t56.5 58.5t79 29.5t91 8h490q78 0 119.5 -30.5t41.5 -112.5v-92l-424 -441h189q53 0 99 -7t80 -28.5t52.5 -59.5t18.5 -99q0 -35 -1 -59.5t-5 -59.5h-914z" />
<glyph unicode="{" horiz-adv-x="841" d="M61 475v252q63 0 94 27.5t31 95.5v246q0 66 21.5 132t71 119.5t127 87t190.5 33.5q37 0 71.5 -5t62.5 -19t44.5 -41t16.5 -70q0 -18 -5.5 -60t-15.5 -93q-18 6 -34.5 8t-33.5 2q-53 0 -86.5 -31t-33.5 -86v-217q0 -188 -156 -258q156 -70 156 -252v-237q0 -55 33.5 -86 t86.5 -31q16 0 33 2t35 8q10 -51 15.5 -93t5.5 -61q0 -43 -16.5 -69.5t-44.5 -40.5t-62.5 -19.5t-71.5 -5.5q-113 0 -190.5 34t-127 87t-71 119.5t-21.5 132.5v266q0 68 -30.5 95.5t-94.5 27.5z" />
<glyph unicode="|" horiz-adv-x="526" d="M102 -385v2011h322v-2011h-322z" />
<glyph unicode="}" horiz-adv-x="841" d="M51 -152q0 18 5 60.5t16 93.5q18 -6 34.5 -8t32.5 -2q53 0 87 30.5t34 86.5v237q0 182 156 252q-156 70 -156 258v217q0 55 -33.5 86t-87.5 31q-16 0 -32.5 -2t-34.5 -8q-10 51 -15.5 93t-5.5 60q0 43 16.5 70t44 41t62.5 19t72 5q113 0 190.5 -33.5t126.5 -87t70.5 -120 t21.5 -131.5v-246q0 -68 31 -95.5t94 -27.5v-252q-63 0 -94 -27.5t-31 -95.5v-266q0 -66 -21.5 -132.5t-70.5 -119.5t-127 -87t-190 -34q-37 0 -72 5.5t-62.5 19.5t-44 40.5t-16.5 69.5z" />
<glyph unicode="~" horiz-adv-x="1060" d="M41 909q2 88 21.5 167t57.5 136.5t94 91t130 33.5q68 0 117 -22.5t86 -48t67.5 -48t63.5 -22.5q74 0 86 139h256q-8 -193 -82 -309.5t-209 -116.5q-68 0 -116 22.5t-86 49.5t-71.5 49.5t-74.5 22.5t-59.5 -36t-24.5 -108h-256z" />
<glyph unicode="&#xa1;" horiz-adv-x="647" d="M123 784q0 86 52 137.5t144 51.5t144.5 -51.5t52.5 -137.5t-52 -136t-145 -50q-88 0 -142 50t-54 136zM125 -217v709q0 2 31.5 14t97.5 12q94 0 149.5 -25.5t84 -66.5t38 -93t9.5 -104v-647q-47 -10 -87 -12t-69 -2q-49 0 -95 9t-81 32.5t-56.5 65.5t-21.5 108z" />
<glyph unicode="&#xa2;" d="M176 680q0 109 27.5 189.5t73 139t103.5 96.5t122 60v209h125v-188q23 4 44 4t44 2v182h125v-190q33 -6 64.5 -16.5t64.5 -28.5q49 -29 73.5 -60.5t24.5 -77.5q0 -37 -24.5 -88t-59.5 -104q-57 47 -105.5 70.5t-113.5 23.5q-82 0 -128 -57.5t-46 -157.5q0 -51 9 -97 t31.5 -80t58.5 -54.5t91 -20.5q57 0 105.5 22.5t91.5 59.5q14 -18 29.5 -40.5t28 -47t20.5 -49.5t8 -45q0 -35 -15.5 -63.5t-62.5 -57.5q-61 -37 -145 -53v-199h-125v195l-88 6v-201h-125v217q-66 18 -124.5 55t-103.5 97.5t-71.5 145.5t-26.5 202z" />
<glyph unicode="&#xa3;" d="M96 530v271h127v133q0 121 39 205t106.5 136t155.5 75.5t187 23.5q147 0 235 -30.5t129 -59.5q35 -25 50.5 -50.5t15.5 -62.5q0 -74 -101 -198q-74 47 -132 67.5t-117 20.5q-61 0 -109.5 -33t-48.5 -113v-114h362v-271h-362v-219h311q66 0 110 -15t69.5 -43t36.5 -67 t11 -84q0 -23 -1 -46t-3 -56h-944v530h-127z" />
<glyph unicode="&#xa4;" horiz-adv-x="1077" d="M-45 326l197 184q-63 113 -64 244q0 127 57 233l-178 164l185 166l159 -150q59 35 127 51.5t137 16.5q72 0 140.5 -16.5t130.5 -53.5l178 168l184 -166l-196 -180q29 -53 41 -110.5t12 -116.5q0 -139 -64 -246l199 -186l-176 -170l-195 182q-59 -33 -124.5 -47 t-133.5 -14q-63 0 -125.5 14t-119.5 45l-195 -182zM332 756q0 -53 17.5 -99.5t50 -81t76.5 -54t99 -19.5t100.5 19.5t78 54t50 81t17.5 99.5t-17.5 100t-50 82t-77.5 54.5t-101 19.5q-55 0 -100 -19.5t-76.5 -54.5t-49 -81t-17.5 -101z" />
<glyph unicode="&#xa5;" d="M10 1288q53 29 124 48.5t126 19.5q98 0 155.5 -43t80.5 -115l118 -360l117 360q20 66 78.5 112t159.5 46q53 0 117.5 -14.5t130.5 -36.5l-312 -627h178v-117h-266v-133h266v-117h-266v-311h-414v311h-256v117h256v133h-256v117h156z" />
<glyph unicode="&#xa6;" horiz-adv-x="526" d="M102 -385v825h322v-825h-322zM102 858v768h322v-768h-322z" />
<glyph unicode="&#xa7;" horiz-adv-x="1067" d="M102 506q0 37 11.5 73.5t27.5 67.5l482 -137q158 -45 244.5 -128t86.5 -235q0 -92 -37.5 -159.5t-99 -112.5t-139.5 -66.5t-160 -21.5q-129 0 -210 20.5t-132 53.5q-41 27 -53 49t-12 53q0 18 8 42t20.5 50.5t27.5 52t30 46.5q66 -47 134 -72t128 -25q20 0 42.5 4.5 t42 15.5t32 29.5t12.5 47.5q0 41 -22.5 69.5t-96.5 50.5l-252 76q-63 18 -89 61.5t-26 94.5zM102 1040q0 92 38 160t99.5 113t139.5 66.5t160 21.5q129 0 209.5 -20.5t132.5 -53.5q41 -27 53 -49.5t12 -52.5q0 -18 -8 -42t-20.5 -50.5t-28 -52t-29.5 -46.5 q-66 47 -134.5 71.5t-127.5 24.5q-20 0 -43 -4t-42 -15t-31.5 -29.5t-12.5 -47.5q0 -41 22.5 -69.5t96.5 -51.5l252 -75q63 -18 88.5 -61.5t25.5 -94.5q0 -37 -11 -74t-28 -67l-481 137q-158 45 -245 128t-87 234z" />
<glyph unicode="&#xa8;" horiz-adv-x="1024" d="M100 1288q0 74 50.5 119t121.5 45q72 0 122 -45t50 -119q0 -76 -50 -120t-122 -44t-122 44t-50 120zM580 1288q0 74 50 119t122 45t122 -45t50 -119q0 -76 -50.5 -120t-121.5 -44q-72 0 -122 44t-50 120z" />
<glyph unicode="&#xa9;" horiz-adv-x="1667" d="M102 649q0 154 52.5 292t147.5 242.5t230.5 166t301.5 61.5t301 -61.5t230 -166t147.5 -242.5t52.5 -292t-52.5 -292t-147.5 -242.5t-231.5 -166t-302.5 -61.5q-176 0 -311 59.5t-228 162t-141.5 241.5t-48.5 299zM236 649q0 -123 39.5 -238.5t115.5 -204.5t187.5 -142.5 t257.5 -53.5q137 0 247.5 53.5t188.5 142.5t121 204.5t43 238.5t-43 239t-121 204t-188.5 141t-247.5 53t-248 -53t-190 -141t-120.5 -204t-41.5 -239zM401 655q0 104 30 192.5t89.5 154t147.5 102.5t204 37q111 0 174.5 -29t92.5 -53q16 -14 32.5 -34.5t16.5 -47.5 q0 -29 -25.5 -73t-66.5 -83q-47 43 -90 65.5t-99 22.5q-55 0 -92 -20.5t-60.5 -54t-32.5 -78.5t-9 -92t9 -93.5t31.5 -82t59.5 -57t94 -21.5q55 0 95 18t83 59q12 -12 25.5 -31.5t26 -43t20.5 -46t8 -40.5q0 -39 -37 -76q-8 -8 -26.5 -20.5t-49 -24.5t-73.5 -21.5t-100 -9.5 q-117 0 -206 36t-149.5 99.5t-91.5 151.5t-31 194z" />
<glyph unicode="&#xaa;" horiz-adv-x="933" d="M51 870q0 94 50.5 150.5t122 86.5t150.5 38t136 8v10q0 47 -28.5 61.5t-69.5 14.5q-57 0 -113.5 -15.5t-124.5 -49.5q-31 37 -47 77.5t-16 59.5q0 25 16 46t68 46q45 23 118.5 36t145.5 13q203 0 291 -79t88 -245v-309q0 -41 7 -90t17 -84q-45 -12 -82 -16t-84 -4 q-133 0 -153 73q-29 -29 -83 -51t-136 -22q-53 0 -102.5 13t-87.5 42t-60.5 76t-22.5 114zM375 895q0 -74 69 -74q29 0 50.5 13.5t21.5 37.5v132q-59 -6 -100 -28t-41 -81z" />
<glyph unicode="&#xab;" horiz-adv-x="1226" d="M61 578q0 53 27 99t68 83l305 276q57 -63 79.5 -107t22.5 -91q0 -31 -11 -66t-40 -74l-88 -120l98 -134q25 -35 37 -68.5t12 -72.5q0 -47 -19.5 -92t-66.5 -102l-331 284q-92 80 -93 185zM634 578q0 53 27 99t68 83l305 276q57 -63 79.5 -107t22.5 -91q0 -31 -11 -66 t-40 -74l-88 -120l98 -134q25 -35 37 -68.5t12 -72.5q0 -47 -19.5 -92t-66.5 -102l-331 284q-92 80 -93 185z" />
<glyph unicode="&#xac;" horiz-adv-x="1228" d="M88 516v328h1053v-651h-346v323h-707z" />
<glyph unicode="&#xad;" horiz-adv-x="903" d="M92 621q0 66 6 131h496q98 0 157.5 -38t59.5 -139q0 -33 -1 -65.5t-3 -65.5h-514q-106 0 -153.5 49.5t-47.5 127.5z" />
<glyph unicode="&#xae;" horiz-adv-x="1667" d="M102 649q0 154 52.5 292t147.5 242.5t230.5 166t301.5 61.5t301 -61.5t230 -166t147.5 -242.5t52.5 -292t-52.5 -293t-148.5 -244.5t-232.5 -167t-302.5 -61.5q-178 0 -314 61.5t-227 167t-138.5 245t-47.5 292.5zM233 649q0 -123 39 -238.5t115 -204.5t186.5 -142.5 t255.5 -53.5q137 0 249 53.5t191 142.5t122 204.5t43 238.5t-43 239t-121 204t-188.5 141t-247.5 53t-248 -53t-190 -141t-121 -204t-42 -239zM524 246v866q27 2 62 5t73.5 5t75.5 3t68 1q195 0 287 -79.5t92 -200.5q0 -98 -46 -159.5t-100 -98.5l207 -320q-47 -25 -84 -34 t-67 -9q-45 0 -85 17.5t-69 62.5l-147 234h-31v-293h-236zM760 709h49q63 0 89 34.5t26 85.5q0 59 -33 86t-90 27h-20.5t-20.5 -2v-231z" />
<glyph unicode="&#xaf;" horiz-adv-x="1024" d="M182 1278q0 33 1 55.5t5 55.5h471q92 0 136.5 -30t44.5 -120q0 -25 -1 -46.5t-3 -49.5h-476q-106 0 -142 34.5t-36 100.5z" />
<glyph unicode="&#xb0;" horiz-adv-x="772" d="M80 1130q0 61 22.5 117t62.5 96.5t96 64.5t124 24q70 0 126 -23t96 -62.5t61.5 -95t21.5 -121.5q0 -61 -22.5 -116.5t-62.5 -96t-96 -64.5t-124 -24q-70 0 -126 24t-96 64.5t-61.5 96t-21.5 116.5zM244 1130q0 -61 40 -106t101 -45q66 0 106.5 45t40.5 106 q0 66 -40.5 110t-106.5 44q-61 0 -101 -44t-40 -110z" />
<glyph unicode="&#xb1;" horiz-adv-x="1228" d="M109 0v328h331v329h-331v328h331v383h346v-383h334v-328h-334v-329h334v-328h-1011z" />
<glyph unicode="&#xb2;" horiz-adv-x="798" d="M74 1278q0 39 39 65q37 27 102.5 49.5t169.5 22.5q61 0 117.5 -14.5t98.5 -45t66.5 -79.5t24.5 -119q0 -76 -39 -134t-92 -110q-29 -29 -59.5 -55.5t-59.5 -48.5h138q66 0 102.5 -27.5t36.5 -103.5q0 -18 -1 -33.5t-3 -28.5l-4 -24h-617v199q37 25 94.5 72.5t110.5 97.5 q51 47 85 90t34 84q0 47 -31 60t-65 13q-43 0 -88.5 -20.5t-83.5 -52.5q-35 41 -55.5 78.5t-20.5 64.5z" />
<glyph unicode="&#xb3;" horiz-adv-x="798" d="M80 1284q0 25 14.5 43.5t32.5 28.5q41 25 109.5 42t160.5 17q160 0 230.5 -61.5t70.5 -153.5q0 -78 -37.5 -119t-87.5 -67q59 -23 101.5 -66t42.5 -121q0 -123 -82 -193.5t-256 -70.5q-92 0 -147.5 15.5t-90.5 33.5q-59 31 -59 82q0 27 13.5 60.5t54.5 93.5 q37 -35 88 -60.5t108 -25.5q45 0 72.5 16.5t27.5 57.5q0 27 -10 44t-26.5 26t-36 12.5t-35.5 3.5h-74v163h82q33 0 57.5 17.5t24.5 52.5t-22.5 49.5t-57.5 14.5q-51 0 -95 -16.5t-99 -51.5q-74 80 -74 133z" />
<glyph unicode="&#xb4;" horiz-adv-x="1024" d="M260 1176l176 235q27 35 59.5 63.5t86.5 28.5q49 0 100 -35.5t90 -70.5l-244 -244q-29 -29 -57.5 -39t-62.5 -10q-39 0 -79 24.5t-69 47.5z" />
<glyph unicode="&#xb5;" horiz-adv-x="1228" d="M104 -446v1427q51 10 91.5 12t66.5 2q49 0 94 -9t81 -31.5t57.5 -64.5t21.5 -106v-350q0 -45 5 -72.5t15.5 -43t26 -20.5t33.5 -5q53 0 66.5 26.5t13.5 102.5v559q51 10 91 12t67 2q49 0 94 -9t80.5 -31.5t57 -64.5t21.5 -106v-378q0 -59 5.5 -97.5t21.5 -60t46 -31.5 t79 -12v-185q-45 -20 -114.5 -30t-135.5 -10q-90 0 -135 33.5t-68 80.5q-18 -37 -56 -74.5t-109 -37.5q-41 0 -78 10t-60 37v-475h-379z" />
<glyph unicode="&#xb6;" horiz-adv-x="1230" d="M82 930q0 215 113.5 329.5t310.5 114.5h405q92 0 144.5 -43t52.5 -155v-1418h-242v1418h-147v-1418h-242v723q-92 0 -165.5 37t-124 98.5t-78 142.5t-27.5 171z" />
<glyph unicode="&#xb7;" horiz-adv-x="634" d="M123 680q0 86 54 137t140 51t140.5 -51t54.5 -137t-51.5 -139.5t-143.5 -53.5t-143 53.5t-51 139.5z" />
<glyph unicode="&#xb8;" horiz-adv-x="1024" d="M307 -406q0 18 4 47t17 68q16 -12 41.5 -21.5t52.5 -9.5q53 0 53 39q0 25 -12 39.5t-26.5 29.5t-27 34.5t-12.5 54.5q0 43 24.5 78t45.5 55h188q-27 -25 -40 -43t-13 -41t17.5 -40t39 -37.5t39 -50.5t17.5 -79q0 -45 -21.5 -84t-56.5 -68.5t-81 -46t-95 -16.5 q-72 0 -113 23.5t-41 68.5z" />
<glyph unicode="&#xb9;" horiz-adv-x="798" d="M82 1165q0 37 17.5 58.5t60.5 44.5l213 112q29 16 58.5 25.5t72.5 9.5q51 0 75.5 -14.5t41.5 -32.5v-776h-283v491l-182 -90q-27 41 -50.5 88t-23.5 84z" />
<glyph unicode="&#xba;" horiz-adv-x="978" d="M72 1034q0 86 26.5 162t78.5 133t132 90t185 33q113 0 191.5 -33t127.5 -89t71.5 -132t22.5 -160t-22.5 -162.5t-72.5 -139t-130 -96.5t-195 -36q-113 0 -191.5 35t-128.5 94.5t-72.5 137t-22.5 163.5zM399 1028q0 -70 19.5 -120t70.5 -50q53 0 71 51t18 121t-19.5 119 t-66.5 49q-27 0 -44.5 -15.5t-28.5 -39t-15.5 -54t-4.5 -61.5z" />
<glyph unicode="&#xbb;" horiz-adv-x="1226" d="M82 303q0 39 12 73t37 68l98 134l-88 120q-29 39 -40 74t-11 66q0 47 22.5 91t80.5 107l305 -276q41 -37 67.5 -83t26.5 -99q0 -104 -92 -185l-332 -284q-47 57 -66.5 102t-19.5 92zM655 303q0 39 12 73t37 68l98 134l-88 120q-29 39 -40 74t-11 66q0 47 22.5 91 t80.5 107l305 -276q41 -37 67.5 -83t26.5 -99q0 -104 -92 -185l-332 -284q-47 57 -66.5 102t-19.5 92z" />
<glyph unicode="&#xbc;" horiz-adv-x="1843" d="M51 1165q0 37 17.5 58.5t60.5 44.5l213 112q29 16 58.5 25.5t72.5 9.5q51 0 75.5 -14.5t41.5 -32.5v-776h-283v491l-182 -90q-27 41 -50.5 88t-23.5 84zM403 0l664 1229q20 39 39.5 70.5t46.5 55t64.5 36t95.5 12.5q33 0 65.5 -5t61.5 -20l-742 -1378h-295zM1050 151v166 l283 426q25 37 61.5 59.5t106.5 22.5q49 0 90 -12t59 -25v-460h39q41 0 57.5 -19.5t16.5 -52.5q0 -18 -3 -46t-7 -59h-103v-149h-274v149h-326zM1224 328h152v223h-8z" />
<glyph unicode="&#xbd;" horiz-adv-x="1843" d="M51 1165q0 37 17.5 58.5t60.5 44.5l213 112q29 16 58.5 25.5t72.5 9.5q51 0 75.5 -14.5t41.5 -32.5v-776h-283v491l-182 -90q-27 41 -50.5 88t-23.5 84zM372 0l664 1229q20 39 39.5 70.5t46.5 55t64.5 36t95.5 12.5q33 0 65.5 -5t61.5 -20l-742 -1378h-295zM1135 688 q0 39 39 65q37 27 102.5 49.5t169.5 22.5q61 0 117.5 -14.5t98.5 -45t66.5 -79.5t24.5 -119q0 -76 -39 -134t-92 -110q-29 -29 -59.5 -55.5t-59.5 -48.5h138q66 0 102.5 -27.5t36.5 -103.5q0 -18 -1 -33.5t-3 -28.5l-4 -24h-617v199q37 25 94.5 72.5t110.5 97.5q51 47 85 90 t34 84q0 47 -31 60t-65 13q-43 0 -88.5 -20.5t-83.5 -52.5q-35 41 -55.5 78.5t-20.5 64.5z" />
<glyph unicode="&#xbe;" horiz-adv-x="1843" d="M103 1284q0 25 14.5 43.5t32.5 28.5q41 25 109.5 42t160.5 17q160 0 230.5 -61.5t70.5 -153.5q0 -78 -37.5 -119t-87.5 -67q59 -23 101.5 -66t42.5 -121q0 -123 -82 -193.5t-256 -70.5q-92 0 -147.5 15.5t-90.5 33.5q-59 31 -59 82q0 27 13.5 60.5t54.5 93.5 q37 -35 88 -60.5t108 -25.5q45 0 72.5 16.5t27.5 57.5q0 27 -10 44t-26.5 26t-36 12.5t-35.5 3.5h-74v163h82q33 0 57.5 17.5t24.5 52.5t-22.5 49.5t-57.5 14.5q-51 0 -95 -16.5t-99 -51.5q-74 80 -74 133zM421 0l664 1229q20 39 39.5 70.5t46.5 55t64.5 36t95.5 12.5 q33 0 65.5 -5t61.5 -20l-742 -1378h-295zM1026 151v166l283 426q25 37 61.5 59.5t106.5 22.5q49 0 90 -12t59 -25v-460h39q41 0 57.5 -19.5t16.5 -52.5q0 -18 -3 -46t-7 -59h-103v-149h-274v149h-326zM1200 328h152v223h-8z" />
<glyph unicode="&#xbf;" horiz-adv-x="976" d="M72 -104q0 68 16 119t44 90.5t62.5 71.5t69.5 61q55 45 95 88t40 114q0 45 -8 86q18 4 41 6.5t45 2.5q45 0 92 -9.5t85 -31t62.5 -58.5t24.5 -90q0 -82 -43 -136t-102 -106q-41 -39 -71.5 -76.5t-30.5 -84.5q0 -53 32.5 -71.5t83.5 -18.5q47 0 110.5 25.5t129.5 72.5 q55 -63 80.5 -109.5t25.5 -77.5q0 -33 -12 -60.5t-53 -57.5q-41 -31 -128.5 -65t-232.5 -34q-96 0 -179 22.5t-145.5 65.5t-98 109t-35.5 152zM354 784q0 86 52.5 137.5t144.5 51.5t144.5 -51.5t52.5 -137.5t-52.5 -136t-144.5 -50q-88 0 -142.5 50t-54.5 136z" />
<glyph unicode="&#xc0;" horiz-adv-x="1372" d="M0 0l440 1341q39 16 104.5 29.5t143.5 13.5q33 0 74 -4t80 -22.5t72.5 -55t56.5 -100.5l401 -1202h-409l-113 324h-340l-104 -324h-406zM381 1663q37 47 83 90t107 43q39 0 71 -17.5t60 -39.5l207 -172q-31 -41 -70.5 -72t-93.5 -31q-45 0 -90 29zM567 586h224l-68 258 q-10 43 -23.5 103.5t-15.5 101.5h-6q-4 -43 -16.5 -104.5t-22.5 -98.5z" />
<glyph unicode="&#xc1;" horiz-adv-x="1372" d="M0 0l440 1341q39 16 104.5 29.5t143.5 13.5q33 0 74 -4t80 -22.5t72.5 -55t56.5 -100.5l401 -1202h-409l-113 324h-340l-104 -324h-406zM477 1567l207 172q29 23 60.5 40t70.5 17q61 0 107 -43t83 -90l-274 -170q-45 -29 -90 -29q-53 0 -93 31t-71 72zM567 586h224 l-68 258q-10 43 -23.5 103.5t-15.5 101.5h-6q-4 -43 -16.5 -104.5t-22.5 -98.5z" />
<glyph unicode="&#xc2;" horiz-adv-x="1372" d="M0 0l440 1341q39 16 104.5 29.5t143.5 13.5q33 0 74 -4t80 -22.5t72.5 -55t56.5 -100.5l401 -1202h-409l-113 324h-340l-104 -324h-406zM344 1501l160 219q35 47 81 65.5t101 18.5q53 0 98 -16t78 -61l166 -226q-16 -16 -51 -28.5t-68 -12.5q-29 0 -60.5 8.5t-60.5 32.5 l-106 95l-106 -97q-25 -23 -52.5 -31t-54.5 -8q-37 0 -75 12.5t-50 28.5zM567 586h224l-68 258q-10 43 -23.5 103.5t-15.5 101.5h-6q-4 -43 -16.5 -104.5t-22.5 -98.5z" />
<glyph unicode="&#xc3;" horiz-adv-x="1372" d="M0 0l440 1341q39 16 104.5 29.5t143.5 13.5q33 0 74 -4t80 -22.5t72.5 -55t56.5 -100.5l401 -1202h-409l-113 324h-340l-104 -324h-406zM307 1630q0 45 47 88q82 76 197 76q47 0 83.5 -11t68.5 -25.5t61.5 -26t64.5 -11.5q47 0 72.5 21.5t62.5 69.5l62 -78q35 -47 35 -84 q0 -39 -18.5 -66.5t-46.5 -45t-63.5 -26t-68.5 -8.5q-55 0 -97 11.5t-77 26t-64.5 25.5t-60.5 11q-51 0 -86 -23.5t-70 -64.5l-67 70q-35 35 -35 71zM567 586h224l-68 258q-10 43 -23.5 103.5t-15.5 101.5h-6q-4 -43 -16.5 -104.5t-22.5 -98.5z" />
<glyph unicode="&#xc4;" horiz-adv-x="1372" d="M0 0l440 1341q39 16 104.5 29.5t143.5 13.5q33 0 74 -4t80 -22.5t72.5 -55t56.5 -100.5l401 -1202h-409l-113 324h-340l-104 -324h-406zM279 1649q0 74 50 119t122 45t122 -45t50 -119q0 -76 -50.5 -120t-121.5 -44q-72 0 -122 44t-50 120zM567 586h224l-68 258 q-10 43 -23.5 103.5t-15.5 101.5h-6q-4 -43 -16.5 -104.5t-22.5 -98.5zM737 1649q0 74 50.5 119t121.5 45q72 0 122 -45t50 -119q0 -76 -50 -120t-122 -44t-122 44t-50 120z" />
<glyph unicode="&#xc5;" horiz-adv-x="1372" d="M0 0l440 1341q37 16 95 29q-92 70 -93 201q0 51 16.5 97t48.5 80t77 54.5t102 20.5q55 0 100 -20.5t76 -54.5t48.5 -79t17.5 -96q0 -66 -27 -120t-76 -89q43 -16 82 -53t64 -109l401 -1202h-409l-113 324h-340l-104 -324h-406zM567 586h224l-68 258q-10 43 -23.5 103.5 t-15.5 101.5h-6q-4 -43 -16.5 -104.5t-22.5 -98.5zM586 1573q0 -47 26.5 -82t73.5 -35t72.5 35t25.5 80q0 47 -25.5 82t-72.5 35t-73.5 -34t-26.5 -81z" />
<glyph unicode="&#xc6;" horiz-adv-x="1947" d="M0 0l614 1188q51 100 119 143t185 43h944q4 -41 6 -64.5t2 -58.5t-10.5 -68.5t-35 -61t-67.5 -45t-108 -17.5h-308v-207h396v-313h-396v-228h328q70 0 115 -17.5t69.5 -46t33.5 -63t9 -69.5t-1 -57.5t-3 -57.5h-964v324h-322l-160 -324h-446zM727 586h201v483h-6 q-14 -59 -36 -120.5t-38 -96.5z" />
<glyph unicode="&#xc7;" horiz-adv-x="1220" d="M68 678q0 156 39.5 288t121.5 228t209 151.5t299 55.5q80 0 143.5 -12.5t112.5 -31t84 -39t56 -38.5q23 -20 47 -52t24 -71q0 -41 -38 -95t-97 -112q-72 66 -134.5 98.5t-146.5 32.5t-141 -34.5t-92 -90t-51.5 -125t-16.5 -139.5q0 -78 15.5 -151.5t50.5 -131t93.5 -92 t141.5 -34.5q82 0 141.5 27.5t125.5 86.5q16 -18 36.5 -43.5t39 -53.5t31 -57.5t12.5 -56.5q0 -61 -58 -112q-12 -12 -35.5 -28.5t-62.5 -33t-93.5 -30t-125.5 -17.5q-12 -18 -13 -41q0 -23 17.5 -40t39 -37.5t39 -50.5t17.5 -79q0 -45 -21.5 -84t-56.5 -68.5t-81 -46 t-95 -16.5q-72 0 -112.5 23.5t-40.5 68.5q0 18 4 47t16 68q16 -12 42 -21.5t52 -9.5q53 0 53 39q0 25 -12 39.5t-26.5 29.5t-26.5 34.5t-12 54.5q0 29 10 52.5t26 43.5q-141 18 -244.5 78t-171 152t-101 214t-33.5 263z" />
<glyph unicode="&#xc8;" horiz-adv-x="1132" d="M113 0v1374h934q4 -41 6 -64.5t2 -58.5t-10.5 -68.5t-35 -61t-67.5 -45t-108 -17.5h-308v-207h396v-313h-396v-228h328q70 0 115 -17.5t69.5 -46t33.5 -63t9 -69.5t-1 -57.5t-3 -57.5h-964zM268 1663q37 47 83 90t107 43q39 0 71 -17.5t60 -39.5l207 -172 q-31 -41 -70.5 -72t-93.5 -31q-45 0 -90 29z" />
<glyph unicode="&#xc9;" horiz-adv-x="1132" d="M113 0v1374h934q4 -41 6 -64.5t2 -58.5t-10.5 -68.5t-35 -61t-67.5 -45t-108 -17.5h-308v-207h396v-313h-396v-228h328q70 0 115 -17.5t69.5 -46t33.5 -63t9 -69.5t-1 -57.5t-3 -57.5h-964zM363 1567l207 172q29 23 60.5 40t70.5 17q61 0 107 -43t83 -90l-274 -170 q-45 -29 -90 -29q-53 0 -93 31t-71 72z" />
<glyph unicode="&#xca;" horiz-adv-x="1132" d="M113 0v1374h934q4 -41 6 -64.5t2 -58.5t-10.5 -68.5t-35 -61t-67.5 -45t-108 -17.5h-308v-207h396v-313h-396v-228h328q70 0 115 -17.5t69.5 -46t33.5 -63t9 -69.5t-1 -57.5t-3 -57.5h-964zM231 1501l160 219q35 47 81 65.5t101 18.5q53 0 98 -16t78 -61l166 -226 q-16 -16 -51 -28.5t-68 -12.5q-29 0 -60.5 8.5t-60.5 32.5l-106 95l-106 -97q-25 -23 -52.5 -31t-54.5 -8q-37 0 -75 12.5t-50 28.5z" />
<glyph unicode="&#xcb;" horiz-adv-x="1132" d="M113 0v1374h934q4 -41 6 -64.5t2 -58.5t-10.5 -68.5t-35 -61t-67.5 -45t-108 -17.5h-308v-207h396v-313h-396v-228h328q70 0 115 -17.5t69.5 -46t33.5 -63t9 -69.5t-1 -57.5t-3 -57.5h-964zM181 1649q0 74 50 119t122 45t122 -45t50 -119q0 -76 -50.5 -120t-121.5 -44 q-72 0 -122 44t-50 120zM639 1649q0 74 50.5 119t121.5 45q72 0 122 -45t50 -119q0 -76 -50 -120t-122 -44t-122 44t-50 120z" />
<glyph unicode="&#xcc;" horiz-adv-x="636" d="M17 1663q37 47 83 90t107 43q39 0 71 -17.5t60 -39.5l207 -172q-31 -41 -70.5 -72t-93.5 -31q-45 0 -90 29zM113 0v1370q53 10 95 12t62 2q41 0 86 -7t82 -28.5t61.5 -62.5t24.5 -106v-1180h-411z" />
<glyph unicode="&#xcd;" horiz-adv-x="636" d="M111 1567l207 172q29 23 60.5 40t70.5 17q61 0 107 -43t83 -90l-274 -170q-45 -29 -90 -29q-53 0 -93 31t-71 72zM113 0v1370q53 10 95 12t62 2q41 0 86 -7t82 -28.5t61.5 -62.5t24.5 -106v-1180h-411z" />
<glyph unicode="&#xce;" horiz-adv-x="636" d="M-29 1501l160 219q35 47 81 65.5t101 18.5q53 0 98 -16t78 -61l166 -226q-16 -16 -51 -28.5t-68 -12.5q-29 0 -60.5 8.5t-60.5 32.5l-106 95l-106 -97q-25 -23 -52.5 -31t-54.5 -8q-37 0 -75 12.5t-50 28.5zM113 0v1370q53 10 95 12t62 2q41 0 86 -7t82 -28.5t61.5 -62.5 t24.5 -106v-1180h-411z" />
<glyph unicode="&#xcf;" horiz-adv-x="636" d="M-92 1649q0 74 50 119t122 45t122 -45t50 -119q0 -76 -50.5 -120t-121.5 -44q-72 0 -122 44t-50 120zM113 0v1370q53 10 95 12t62 2q41 0 86 -7t82 -28.5t61.5 -62.5t24.5 -106v-1180h-411zM366 1649q0 74 50.5 119t121.5 45q72 0 122 -45t50 -119q0 -76 -50 -120 t-122 -44t-122 44t-50 120z" />
<glyph unicode="&#xd0;" horiz-adv-x="1400" d="M41 629v164h129v563q160 20 263.5 24t168.5 4q215 0 355.5 -53t223.5 -144t115.5 -213t32.5 -257q0 -145 -38 -275.5t-118.5 -228.5t-206.5 -155.5t-302 -57.5h-494v629h-129zM584 309h49q90 0 145.5 38t85 97.5t38.5 131t9 137.5q0 74 -12 139.5t-43 115.5t-85 78.5 t-136 28.5h-24.5t-26.5 -2v-280h174v-164h-174v-320z" />
<glyph unicode="&#xd1;" horiz-adv-x="1384" d="M113 0v1370q29 4 78 9t102 5q98 0 148.5 -31.5t82.5 -90.5l346 -623v731q47 10 87 12t61 2q41 0 86 -7t82 -28.5t61.5 -61.5t24.5 -105v-1182h-332l-428 680v-680h-399zM299 1630q0 45 47 88q82 76 197 76q47 0 83.5 -11t68.5 -25.5t61.5 -26t64.5 -11.5q47 0 72.5 21.5 t62.5 69.5l62 -78q35 -47 35 -84q0 -39 -18.5 -66.5t-46.5 -45t-63.5 -26t-68.5 -8.5q-55 0 -97 11.5t-77 26t-64.5 25.5t-60.5 11q-51 0 -86 -23.5t-70 -64.5l-67 70q-35 35 -35 71z" />
<glyph unicode="&#xd2;" horiz-adv-x="1449" d="M68 686q0 145 39.5 275.5t121.5 227.5t207 154.5t297 57.5q168 0 291 -54.5t201 -149.5t115.5 -225t37.5 -284q0 -152 -37.5 -284t-117.5 -230t-206 -154.5t-300 -56.5t-297 56.5t-202 153.5t-114.5 229.5t-35.5 283.5zM430 1663q37 47 83 90t107 43q39 0 71 -17.5 t60 -39.5l207 -172q-31 -41 -70.5 -72t-93.5 -31q-45 0 -90 29zM489 686q0 -80 13.5 -152.5t41 -128t73 -88t108.5 -32.5t108.5 32.5t73 88t39.5 128t12 152.5q0 78 -12 149.5t-39.5 126t-70.5 86t-105 31.5q-66 0 -112 -31.5t-74.5 -86t-42 -126t-13.5 -149.5z" />
<glyph unicode="&#xd3;" horiz-adv-x="1449" d="M68 686q0 145 39.5 275.5t121.5 227.5t207 154.5t297 57.5q168 0 291 -54.5t201 -149.5t115.5 -225t37.5 -284q0 -152 -37.5 -284t-117.5 -230t-206 -154.5t-300 -56.5t-297 56.5t-202 153.5t-114.5 229.5t-35.5 283.5zM489 686q0 -80 13.5 -152.5t41 -128t73 -88 t108.5 -32.5t108.5 32.5t73 88t39.5 128t12 152.5q0 78 -12 149.5t-39.5 126t-70.5 86t-105 31.5q-66 0 -112 -31.5t-74.5 -86t-42 -126t-13.5 -149.5zM537 1567l207 172q29 23 60.5 40t70.5 17q61 0 107 -43t83 -90l-274 -170q-45 -29 -90 -29q-53 0 -93 31t-71 72z" />
<glyph unicode="&#xd4;" horiz-adv-x="1449" d="M68 686q0 145 39.5 275.5t121.5 227.5t207 154.5t297 57.5q168 0 291 -54.5t201 -149.5t115.5 -225t37.5 -284q0 -152 -37.5 -284t-117.5 -230t-206 -154.5t-300 -56.5t-297 56.5t-202 153.5t-114.5 229.5t-35.5 283.5zM401 1501l160 219q35 47 81 65.5t101 18.5 q53 0 98 -16t78 -61l166 -226q-16 -16 -51 -28.5t-68 -12.5q-29 0 -60.5 8.5t-60.5 32.5l-106 95l-106 -97q-25 -23 -52.5 -31t-54.5 -8q-37 0 -75 12.5t-50 28.5zM489 686q0 -80 13.5 -152.5t41 -128t73 -88t108.5 -32.5t108.5 32.5t73 88t39.5 128t12 152.5 q0 78 -12 149.5t-39.5 126t-70.5 86t-105 31.5q-66 0 -112 -31.5t-74.5 -86t-42 -126t-13.5 -149.5z" />
<glyph unicode="&#xd5;" horiz-adv-x="1449" d="M68 686q0 145 39.5 275.5t121.5 227.5t207 154.5t297 57.5q168 0 291 -54.5t201 -149.5t115.5 -225t37.5 -284q0 -152 -37.5 -284t-117.5 -230t-206 -154.5t-300 -56.5t-297 56.5t-202 153.5t-114.5 229.5t-35.5 283.5zM354 1630q0 45 47 88q82 76 197 76q47 0 83.5 -11 t68.5 -25.5t61.5 -26t64.5 -11.5q47 0 72.5 21.5t62.5 69.5l62 -78q35 -47 35 -84q0 -39 -18.5 -66.5t-46.5 -45t-63.5 -26t-68.5 -8.5q-55 0 -97 11.5t-77 26t-64.5 25.5t-60.5 11q-51 0 -86 -23.5t-70 -64.5l-67 70q-35 35 -35 71zM489 686q0 -80 13.5 -152.5t41 -128 t73 -88t108.5 -32.5t108.5 32.5t73 88t39.5 128t12 152.5q0 78 -12 149.5t-39.5 126t-70.5 86t-105 31.5q-66 0 -112 -31.5t-74.5 -86t-42 -126t-13.5 -149.5z" />
<glyph unicode="&#xd6;" horiz-adv-x="1449" d="M68 686q0 145 39.5 275.5t121.5 227.5t207 154.5t297 57.5q168 0 291 -54.5t201 -149.5t115.5 -225t37.5 -284q0 -152 -37.5 -284t-117.5 -230t-206 -154.5t-300 -56.5t-297 56.5t-202 153.5t-114.5 229.5t-35.5 283.5zM347 1649q0 74 50 119t122 45t122 -45t50 -119 q0 -76 -50.5 -120t-121.5 -44q-72 0 -122 44t-50 120zM489 686q0 -80 13.5 -152.5t41 -128t73 -88t108.5 -32.5t108.5 32.5t73 88t39.5 128t12 152.5q0 78 -12 149.5t-39.5 126t-70.5 86t-105 31.5q-66 0 -112 -31.5t-74.5 -86t-42 -126t-13.5 -149.5zM805 1649 q0 74 50.5 119t121.5 45q72 0 122 -45t50 -119q0 -76 -50 -120t-122 -44t-122 44t-50 120z" />
<glyph unicode="&#xd7;" horiz-adv-x="1228" d="M115 936l245 246l263 -262l249 249l232 -231l-250 -252l258 -256l-246 -246l-256 258l-250 -249l-231 231l248 250z" />
<glyph unicode="&#xd8;" horiz-adv-x="1449" d="M68 686q0 145 39.5 275.5t121.5 227.5t207 154.5t297 57.5q174 0 297 -58l119 207l115 -61l-121 -213q123 -94 179 -246t56 -342q0 -152 -37.5 -284t-117.5 -230t-206 -154.5t-300 -56.5q-86 0 -159 14.5t-134 38.5l-131 -229l-117 61l133 234q-129 98 -185 255t-56 349z M489 686q0 -63 8.5 -122.5t24.5 -108.5l330 579q-47 45 -121 45q-66 0 -112 -31.5t-74.5 -86t-42 -126t-13.5 -149.5zM600 328q49 -43 125 -43q63 0 108.5 32.5t73 88t39.5 128t12 152.5q0 59 -6 114.5t-22 102.5z" />
<glyph unicode="&#xd9;" horiz-adv-x="1339" d="M102 565v805q53 10 95.5 12t62.5 2q41 0 86 -7t82 -28.5t61.5 -62.5t24.5 -106v-627q0 -92 16 -152q14 -43 47 -75.5t99 -32.5q49 0 85 23.5t52 82.5q6 27 9 67t3 87v817q53 10 95.5 12t62.5 2q39 0 84 -7t83 -28.5t62.5 -62.5t24.5 -106v-615q0 -41 -2 -86t-6 -92 q-8 -86 -44 -161.5t-103.5 -133t-169 -90.5t-240.5 -33q-137 0 -236.5 27t-167 81t-105.5 133t-52 183q-4 39 -6.5 88t-2.5 84zM354 1663q37 47 83 90t107 43q39 0 71 -17.5t60 -39.5l207 -172q-31 -41 -70.5 -72t-93.5 -31q-45 0 -90 29z" />
<glyph unicode="&#xda;" horiz-adv-x="1339" d="M102 565v805q53 10 95.5 12t62.5 2q41 0 86 -7t82 -28.5t61.5 -62.5t24.5 -106v-627q0 -92 16 -152q14 -43 47 -75.5t99 -32.5q49 0 85 23.5t52 82.5q6 27 9 67t3 87v817q53 10 95.5 12t62.5 2q39 0 84 -7t83 -28.5t62.5 -62.5t24.5 -106v-615q0 -41 -2 -86t-6 -92 q-8 -86 -44 -161.5t-103.5 -133t-169 -90.5t-240.5 -33q-137 0 -236.5 27t-167 81t-105.5 133t-52 183q-4 39 -6.5 88t-2.5 84zM484 1567l207 172q29 23 60.5 40t70.5 17q61 0 107 -43t83 -90l-274 -170q-45 -29 -90 -29q-53 0 -93 31t-71 72z" />
<glyph unicode="&#xdb;" horiz-adv-x="1339" d="M102 565v805q53 10 95.5 12t62.5 2q41 0 86 -7t82 -28.5t61.5 -62.5t24.5 -106v-627q0 -92 16 -152q14 -43 47 -75.5t99 -32.5q49 0 85 23.5t52 82.5q6 27 9 67t3 87v817q53 10 95.5 12t62.5 2q39 0 84 -7t83 -28.5t62.5 -62.5t24.5 -106v-615q0 -41 -2 -86t-6 -92 q-8 -86 -44 -161.5t-103.5 -133t-169 -90.5t-240.5 -33q-137 0 -236.5 27t-167 81t-105.5 133t-52 183q-4 39 -6.5 88t-2.5 84zM330 1501l160 219q35 47 81 65.5t101 18.5q53 0 98 -16t78 -61l166 -226q-16 -16 -51 -28.5t-68 -12.5q-29 0 -60.5 8.5t-60.5 32.5l-106 95 l-106 -97q-25 -23 -52.5 -31t-54.5 -8q-37 0 -75 12.5t-50 28.5z" />
<glyph unicode="&#xdc;" horiz-adv-x="1339" d="M102 565v805q53 10 95.5 12t62.5 2q41 0 86 -7t82 -28.5t61.5 -62.5t24.5 -106v-627q0 -92 16 -152q14 -43 47 -75.5t99 -32.5q49 0 85 23.5t52 82.5q6 27 9 67t3 87v817q53 10 95.5 12t62.5 2q39 0 84 -7t83 -28.5t62.5 -62.5t24.5 -106v-615q0 -41 -2 -86t-6 -92 q-8 -86 -44 -161.5t-103.5 -133t-169 -90.5t-240.5 -33q-137 0 -236.5 27t-167 81t-105.5 133t-52 183q-4 39 -6.5 88t-2.5 84zM277 1649q0 74 50 119t122 45t122 -45t50 -119q0 -76 -50.5 -120t-121.5 -44q-72 0 -122 44t-50 120zM735 1649q0 74 50.5 119t121.5 45 q72 0 122 -45t50 -119q0 -76 -50 -120t-122 -44t-122 44t-50 120z" />
<glyph unicode="&#xdd;" horiz-adv-x="1288" d="M0 1317q53 29 126 48t128 19q98 0 150.5 -36.5t80.5 -108.5l160 -383l158 387q27 63 79 102t152 39q53 0 121 -14t133 -37l-440 -860v-473h-414v463zM471 1567l207 172q29 23 60.5 40t70.5 17q61 0 107 -43t83 -90l-274 -170q-45 -29 -90 -29q-53 0 -93 31t-71 72z" />
<glyph unicode="&#xde;" horiz-adv-x="1161" d="M92 0v1370q57 10 97 12t61 2q41 0 86 -7t82 -28.5t61.5 -62.5t24.5 -106v-41q55 6 108 6q127 0 222.5 -31t159 -88t95 -136t31.5 -177q0 -135 -44 -231.5t-120.5 -159t-180 -91t-220.5 -28.5h-49v-203h-414zM504 483h35q86 0 124.5 57.5t38.5 155.5q0 176 -151 176h-23.5 t-23.5 -2v-387z" />
<glyph unicode="&#xdf;" horiz-adv-x="1349" d="M82 0v1010q0 20 1 41.5t2 42t3 34.5q27 166 158 253t377 87q98 0 187 -19t154.5 -58t104.5 -98.5t39 -139.5q0 -61 -21.5 -108.5t-47 -87t-47 -74.5t-21.5 -72q0 -33 25.5 -56.5t64.5 -46t84 -50t84 -68.5t64.5 -100.5t25.5 -145.5q0 -82 -28.5 -150.5t-83 -118.5 t-131.5 -78t-173 -28q-72 0 -140.5 13.5t-109.5 33.5q-53 27 -73.5 58.5t-20.5 66.5q0 53 26.5 105.5t59.5 101.5q47 -43 100.5 -69.5t110.5 -26.5q45 0 63.5 21.5t18.5 48.5q0 31 -23.5 54t-59.5 44.5t-77 43t-76.5 51.5t-59.5 69t-24 96q0 68 22 115t48.5 86t48 75.5 t21.5 83.5q0 53 -35 83t-94 30t-99.5 -29.5t-40.5 -107.5v-1016h-407z" />
<glyph unicode="&#xe0;" horiz-adv-x="1073" d="M41 287q0 119 62.5 189.5t151.5 107.5t184.5 47t162.5 10v29q0 57 -38 72.5t-91 15.5q-72 0 -141.5 -19.5t-155.5 -60.5q-39 47 -58.5 92t-19.5 68q0 31 20.5 57.5t84.5 58.5q55 29 149 45.5t193 16.5q240 0 343 -94.5t103 -298.5v-400q0 -51 8.5 -111.5t22.5 -105.5 q-29 -8 -51.5 -13t-44 -8t-45 -4t-52.5 -1q-166 0 -192 94q-35 -35 -101.5 -63.5t-170.5 -28.5q-63 0 -122 16t-104 52t-71.5 94.5t-26.5 142.5zM246 1397q39 35 90 70.5t100 35.5q53 0 86 -28.5t60 -63.5l176 -235q-29 -23 -69 -47.5t-79 -24.5q-35 0 -63.5 10t-57.5 39z M418 319q0 -47 25.5 -72.5t70.5 -25.5q37 0 65.5 16.5t28.5 49.5v172q-39 -4 -73.5 -12.5t-60 -23.5t-41 -40t-15.5 -64z" />
<glyph unicode="&#xe1;" horiz-adv-x="1073" d="M41 287q0 119 62.5 189.5t151.5 107.5t184.5 47t162.5 10v29q0 57 -38 72.5t-91 15.5q-72 0 -141.5 -19.5t-155.5 -60.5q-39 47 -58.5 92t-19.5 68q0 31 20.5 57.5t84.5 58.5q55 29 149 45.5t193 16.5q240 0 343 -94.5t103 -298.5v-400q0 -51 8.5 -111.5t22.5 -105.5 q-29 -8 -51.5 -13t-44 -8t-45 -4t-52.5 -1q-166 0 -192 94q-35 -35 -101.5 -63.5t-170.5 -28.5q-63 0 -122 16t-104 52t-71.5 94.5t-26.5 142.5zM377 1176l176 235q27 35 59.5 63.5t86.5 28.5q49 0 100 -35.5t90 -70.5l-244 -244q-29 -29 -57.5 -39t-62.5 -10 q-39 0 -79 24.5t-69 47.5zM418 319q0 -47 25.5 -72.5t70.5 -25.5q37 0 65.5 16.5t28.5 49.5v172q-39 -4 -73.5 -12.5t-60 -23.5t-41 -40t-15.5 -64z" />
<glyph unicode="&#xe2;" horiz-adv-x="1073" d="M41 287q0 119 62.5 189.5t151.5 107.5t184.5 47t162.5 10v29q0 57 -38 72.5t-91 15.5q-72 0 -141.5 -19.5t-155.5 -60.5q-39 47 -58.5 92t-19.5 68q0 31 20.5 57.5t84.5 58.5q55 29 149 45.5t193 16.5q240 0 343 -94.5t103 -298.5v-400q0 -51 8.5 -111.5t22.5 -105.5 q-29 -8 -51.5 -13t-44 -8t-45 -4t-52.5 -1q-166 0 -192 94q-35 -35 -101.5 -63.5t-170.5 -28.5q-63 0 -122 16t-104 52t-71.5 94.5t-26.5 142.5zM193 1149l174 258q33 47 81 73.5t111 26.5q119 0 180 -88l181 -270q-57 -39 -119 -39q-43 0 -79 15.5t-71 54.5l-96 110 l-100 -119q-53 -61 -142 -61q-37 0 -68.5 11.5t-51.5 27.5zM418 319q0 -47 25.5 -72.5t70.5 -25.5q37 0 65.5 16.5t28.5 49.5v172q-39 -4 -73.5 -12.5t-60 -23.5t-41 -40t-15.5 -64z" />
<glyph unicode="&#xe3;" horiz-adv-x="1073" d="M41 287q0 119 62.5 189.5t151.5 107.5t184.5 47t162.5 10v29q0 57 -38 72.5t-91 15.5q-72 0 -141.5 -19.5t-155.5 -60.5q-39 47 -58.5 92t-19.5 68q0 31 20.5 57.5t84.5 58.5q55 29 149 45.5t193 16.5q240 0 343 -94.5t103 -298.5v-400q0 -51 8.5 -111.5t22.5 -105.5 q-29 -8 -51.5 -13t-44 -8t-45 -4t-52.5 -1q-166 0 -192 94q-35 -35 -101.5 -63.5t-170.5 -28.5q-63 0 -122 16t-104 52t-71.5 94.5t-26.5 142.5zM154 1270q0 45 47 88q82 76 197 76q47 0 83.5 -11.5t68.5 -26t61.5 -25.5t64.5 -11q47 0 72.5 21.5t62.5 68.5l62 -78 q35 -47 35 -84q0 -39 -18.5 -66.5t-46.5 -45t-63.5 -25.5t-68.5 -8q-55 0 -97 11t-77 25.5t-64.5 26t-60.5 11.5q-51 0 -86 -24t-70 -65l-67 70q-35 35 -35 72zM418 319q0 -47 25.5 -72.5t70.5 -25.5q37 0 65.5 16.5t28.5 49.5v172q-39 -4 -73.5 -12.5t-60 -23.5t-41 -40 t-15.5 -64z" />
<glyph unicode="&#xe4;" horiz-adv-x="1073" d="M41 287q0 119 62.5 189.5t151.5 107.5t184.5 47t162.5 10v29q0 57 -38 72.5t-91 15.5q-72 0 -141.5 -19.5t-155.5 -60.5q-39 47 -58.5 92t-19.5 68q0 31 20.5 57.5t84.5 58.5q55 29 149 45.5t193 16.5q240 0 343 -94.5t103 -298.5v-400q0 -51 8.5 -111.5t22.5 -105.5 q-29 -8 -51.5 -13t-44 -8t-45 -4t-52.5 -1q-166 0 -192 94q-35 -35 -101.5 -63.5t-170.5 -28.5q-63 0 -122 16t-104 52t-71.5 94.5t-26.5 142.5zM129 1288q0 74 50.5 119t121.5 45q72 0 122 -45t50 -119q0 -76 -50 -120t-122 -44t-122 44t-50 120zM418 319q0 -47 25.5 -72.5 t70.5 -25.5q37 0 65.5 16.5t28.5 49.5v172q-39 -4 -73.5 -12.5t-60 -23.5t-41 -40t-15.5 -64zM609 1288q0 74 50 119t122 45t122 -45t50 -119q0 -76 -50.5 -120t-121.5 -44q-72 0 -122 44t-50 120z" />
<glyph unicode="&#xe5;" horiz-adv-x="1073" d="M41 287q0 119 62.5 189.5t151.5 107.5t184.5 47t162.5 10v29q0 57 -38 72.5t-91 15.5q-72 0 -141.5 -19.5t-155.5 -60.5q-39 47 -58.5 92t-19.5 68q0 31 20.5 57.5t84.5 58.5q55 29 149 45.5t193 16.5q240 0 343 -94.5t103 -298.5v-400q0 -51 8.5 -111.5t22.5 -105.5 q-29 -8 -51.5 -13t-44 -8t-45 -4t-52.5 -1q-166 0 -192 94q-35 -35 -101.5 -63.5t-170.5 -28.5q-63 0 -122 16t-104 52t-71.5 94.5t-26.5 142.5zM311 1360q0 51 16.5 97t48 80t76.5 54.5t103 20.5q55 0 100 -20.5t76 -54.5t48 -79t17 -96t-17 -96t-48 -79t-76 -54.5 t-100 -20.5q-57 0 -102.5 19.5t-77 53.5t-48 79t-16.5 96zM418 319q0 -47 25.5 -72.5t70.5 -25.5q37 0 65.5 16.5t28.5 49.5v172q-39 -4 -73.5 -12.5t-60 -23.5t-41 -40t-15.5 -64zM454 1362q0 -47 27 -82t74 -35t72.5 35t25.5 80q0 47 -25.5 82t-72.5 35t-74 -34t-27 -81z " />
<glyph unicode="&#xe6;" horiz-adv-x="1591" d="M41 287q0 119 62.5 187.5t151.5 103t184.5 44t162.5 9.5v39q0 57 -38 72.5t-91 15.5q-72 0 -141.5 -19.5t-155.5 -60.5q-39 47 -58.5 92t-19.5 68q0 31 19.5 59.5t85.5 56.5q57 27 149 44.5t180 17.5q100 0 174 -29t119 -94q49 53 127 88t183 35q111 0 188.5 -37 t128.5 -98.5t74.5 -143.5t23.5 -172v-27.5t-1 -36t-2 -34.5t-3 -25h-547q10 -78 57.5 -132t151.5 -54q82 0 137.5 24.5t110.5 65.5q27 -41 53.5 -94t26.5 -94q0 -35 -18.5 -66t-65.5 -59q-45 -27 -121 -45.5t-192 -18.5q-47 0 -98.5 5.5t-102.5 18.5t-98 37.5t-84 63.5 q-68 -53 -158 -89t-221 -36q-74 0 -134.5 18.5t-105.5 56.5t-69.5 98.5t-24.5 144.5zM418 319q0 -94 92 -94q37 0 76 12.5t61 28.5q-16 39 -27.5 87t-11.5 91q-33 -4 -66.5 -10t-61 -20.5t-45 -37t-17.5 -57.5zM991 612h197q0 86 -22.5 117t-75.5 31q-98 0 -99 -148z" />
<glyph unicode="&#xe7;" horiz-adv-x="952" d="M51 498q0 154 52.5 253t131 158.5t171 83t172.5 23.5q72 0 142.5 -14.5t123.5 -45.5q49 -29 73.5 -60.5t24.5 -76.5q0 -37 -24.5 -88t-59.5 -104q-57 47 -105 70.5t-114 23.5q-82 0 -128 -57.5t-46 -157.5q0 -51 9 -97.5t31.5 -80t58.5 -54t91 -20.5q57 0 105.5 22.5 t91.5 59.5q14 -18 29.5 -41t28 -47.5t20.5 -49t8 -44.5q0 -35 -15.5 -64t-62.5 -57q-37 -25 -93 -40.5t-128 -21.5q-16 -18 -16 -47q0 -23 17 -40t38.5 -37.5t39 -50.5t17.5 -79q0 -45 -21.5 -84t-56 -68.5t-81 -46t-95.5 -16.5q-72 0 -112.5 23.5t-40.5 68.5q0 18 4 47 t16 68q16 -12 42 -21.5t52 -9.5q53 0 54 39q0 25 -12.5 39.5t-27 29.5t-26.5 34.5t-12 54.5q0 31 13 56.5t30 48.5q-76 12 -148.5 43.5t-131 92t-94.5 153.5t-36 229z" />
<glyph unicode="&#xe8;" horiz-adv-x="1054" d="M51 518q0 129 44 223.5t115 155.5t162 90t183 29q125 0 213 -37t142.5 -98.5t79 -143.5t24.5 -172v-27.5t-1 -36t-2 -34.5t-3 -25h-547q10 -78 57.5 -132t151.5 -54q82 0 137 24.5t111 65.5q27 -41 53 -94t26 -94q0 -35 -18 -66t-66 -59q-45 -27 -120.5 -45.5 t-192.5 -18.5q-84 0 -180 20.5t-178 80t-136.5 167t-54.5 281.5zM234 1397q39 35 90 70.5t100 35.5q53 0 86 -28.5t60 -63.5l176 -235q-29 -23 -69 -47.5t-79 -24.5q-35 0 -63.5 10t-57.5 39zM455 612h196q0 86 -23.5 117t-76.5 31q-96 0 -96 -148z" />
<glyph unicode="&#xe9;" horiz-adv-x="1054" d="M51 518q0 129 44 223.5t115 155.5t162 90t183 29q125 0 213 -37t142.5 -98.5t79 -143.5t24.5 -172v-27.5t-1 -36t-2 -34.5t-3 -25h-547q10 -78 57.5 -132t151.5 -54q82 0 137 24.5t111 65.5q27 -41 53 -94t26 -94q0 -35 -18 -66t-66 -59q-45 -27 -120.5 -45.5 t-192.5 -18.5q-84 0 -180 20.5t-178 80t-136.5 167t-54.5 281.5zM397 1176l176 235q27 35 59.5 63.5t86.5 28.5q49 0 100 -35.5t90 -70.5l-244 -244q-29 -29 -57.5 -39t-62.5 -10q-39 0 -79 24.5t-69 47.5zM455 612h196q0 86 -23.5 117t-76.5 31q-96 0 -96 -148z" />
<glyph unicode="&#xea;" horiz-adv-x="1054" d="M51 518q0 129 44 223.5t115 155.5t162 90t183 29q125 0 213 -37t142.5 -98.5t79 -143.5t24.5 -172v-27.5t-1 -36t-2 -34.5t-3 -25h-547q10 -78 57.5 -132t151.5 -54q82 0 137 24.5t111 65.5q27 -41 53 -94t26 -94q0 -35 -18 -66t-66 -59q-45 -27 -120.5 -45.5 t-192.5 -18.5q-84 0 -180 20.5t-178 80t-136.5 167t-54.5 281.5zM191 1149l174 258q33 47 81 73.5t111 26.5q119 0 180 -88l181 -270q-57 -39 -119 -39q-43 0 -79 15.5t-71 54.5l-96 110l-100 -119q-53 -61 -142 -61q-37 0 -68.5 11.5t-51.5 27.5zM455 612h196 q0 86 -23.5 117t-76.5 31q-96 0 -96 -148z" />
<glyph unicode="&#xeb;" horiz-adv-x="1054" d="M51 518q0 129 44 223.5t115 155.5t162 90t183 29q125 0 213 -37t142.5 -98.5t79 -143.5t24.5 -172v-27.5t-1 -36t-2 -34.5t-3 -25h-547q10 -78 57.5 -132t151.5 -54q82 0 137 24.5t111 65.5q27 -41 53 -94t26 -94q0 -35 -18 -66t-66 -59q-45 -27 -120.5 -45.5 t-192.5 -18.5q-84 0 -180 20.5t-178 80t-136.5 167t-54.5 281.5zM145 1288q0 74 50.5 119t121.5 45q72 0 122 -45t50 -119q0 -76 -50 -120t-122 -44t-122 44t-50 120zM455 612h196q0 86 -23.5 117t-76.5 31q-96 0 -96 -148zM625 1288q0 74 50 119t122 45t122 -45t50 -119 q0 -76 -50.5 -120t-121.5 -44q-72 0 -122 44t-50 120z" />
<glyph unicode="&#xec;" horiz-adv-x="573" d="M-16 1397q39 35 90 70.5t100 35.5q53 0 86 -28.5t60 -63.5l176 -235q-29 -23 -69 -47.5t-79 -24.5q-35 0 -63.5 10t-57.5 39zM82 250v731q61 10 95 12t61 2q49 0 95 -9t81 -32.5t56.5 -65.5t21.5 -108v-772q-80 -27 -150 -26q-94 0 -146.5 22.5t-78 59t-30.5 85t-5 101.5 z" />
<glyph unicode="&#xed;" horiz-adv-x="573" d="M82 250v731q61 10 95 12t61 2q49 0 95 -9t81 -32.5t56.5 -65.5t21.5 -108v-772q-80 -27 -150 -26q-94 0 -146.5 22.5t-78 59t-30.5 85t-5 101.5zM88 1176l176 235q27 35 59.5 63.5t86.5 28.5q49 0 100 -35.5t90 -70.5l-244 -244q-29 -29 -57.5 -39t-62.5 -10 q-39 0 -79 24.5t-69 47.5z" />
<glyph unicode="&#xee;" horiz-adv-x="573" d="M-94 1149l174 258q33 47 81 73.5t111 26.5q119 0 180 -88l181 -270q-57 -39 -119 -39q-43 0 -79 15.5t-71 54.5l-96 110l-100 -119q-53 -61 -142 -61q-37 0 -68.5 11.5t-51.5 27.5zM82 250v731q61 10 95 12t61 2q49 0 95 -9t81 -32.5t56.5 -65.5t21.5 -108v-772 q-80 -27 -150 -26q-94 0 -146.5 22.5t-78 59t-30.5 85t-5 101.5z" />
<glyph unicode="&#xef;" horiz-adv-x="573" d="M-133 1288q0 74 50.5 119t121.5 45q72 0 122 -45t50 -119q0 -76 -50 -120t-122 -44t-122 44t-50 120zM82 250v731q61 10 95 12t61 2q49 0 95 -9t81 -32.5t56.5 -65.5t21.5 -108v-772q-80 -27 -150 -26q-94 0 -146.5 22.5t-78 59t-30.5 85t-5 101.5zM347 1288q0 74 50 119 t122 45t122 -45t50 -119q0 -76 -50.5 -120t-121.5 -44q-72 0 -122 44t-50 120z" />
<glyph unicode="&#xf0;" horiz-adv-x="1157" d="M51 446q0 115 35 199t94.5 139.5t136 82t162.5 26.5q72 0 129.5 -16.5t93.5 -36.5l13 18q-25 59 -66 119q-20 29 -43.5 54.5t-52.5 47.5l-135 -127l-94 95l110 102l-28 12q-84 33 -191 37v29q0 41 4 84t18.5 77.5t43 57t77.5 22.5q92 0 179 -26q39 -10 73.5 -26.5 t69.5 -37.5l162 152l94 -94l-143 -136q27 -23 55 -49q66 -66 119 -147q72 -113 105.5 -246t33.5 -268q0 -154 -38 -270.5t-108.5 -195.5t-170 -120t-222.5 -41q-117 0 -212 32t-162.5 93.5t-104.5 151.5t-37 206zM471 444q0 -86 25.5 -133t78.5 -47t88 52.5t35 181.5 q0 49 -5 78.5t-13 56.5q-29 10 -66 10q-31 0 -56.5 -8t-44.5 -29.5t-30.5 -60.5t-11.5 -101z" />
<glyph unicode="&#xf1;" horiz-adv-x="1136" d="M82 0v979q35 8 71.5 12t88.5 4q92 0 150.5 -27.5t78.5 -74.5q25 43 91.5 83t178.5 40q129 0 201 -61.5t96 -161.5q6 -23 9.5 -51.5t4.5 -59.5t2 -59.5t1 -49.5v-565q-61 -27 -152 -26q-94 0 -146 22.5t-78 59t-31 85t-5 101.5v352q0 45 -10 71.5t-55 26.5t-64.5 -19 t-19.5 -42v-639h-412zM176 1270q0 45 47 88q82 76 197 76q47 0 83.5 -11.5t68.5 -26t61.5 -25.5t64.5 -11q47 0 72.5 21.5t62.5 68.5l62 -78q35 -47 35 -84q0 -39 -18.5 -66.5t-46.5 -45t-63.5 -25.5t-68.5 -8q-55 0 -97 11t-77 25.5t-64.5 26t-60.5 11.5q-51 0 -86 -24 t-70 -65l-67 70q-35 35 -35 72z" />
<glyph unicode="&#xf2;" horiz-adv-x="1146" d="M51 498q0 106 33 201.5t99.5 165t164.5 110.5t232 41q141 0 239.5 -41t159.5 -110.5t89 -163t28 -197.5t-29 -201.5t-91.5 -171.5t-161.5 -118t-243 -44q-141 0 -239.5 43t-160.5 116t-91 168t-29 202zM273 1397q39 35 90 70.5t100 35.5q53 0 86 -28.5t60 -63.5l176 -235 q-29 -23 -69 -47.5t-79 -24.5q-35 0 -63.5 10t-57.5 39zM457 496q0 -45 5 -86t19.5 -73t36 -50.5t55.5 -18.5q35 0 57.5 19.5t35 51.5t17.5 73t5 86q0 92 -24.5 153.5t-88.5 61.5q-35 0 -57 -18.5t-36.5 -49.5t-19.5 -69.5t-5 -79.5z" />
<glyph unicode="&#xf3;" horiz-adv-x="1146" d="M51 498q0 106 33 201.5t99.5 165t164.5 110.5t232 41q141 0 239.5 -41t159.5 -110.5t89 -163t28 -197.5t-29 -201.5t-91.5 -171.5t-161.5 -118t-243 -44q-141 0 -239.5 43t-160.5 116t-91 168t-29 202zM436 1176l176 235q27 35 59.5 63.5t86.5 28.5q49 0 100 -35.5 t90 -70.5l-244 -244q-29 -29 -57.5 -39t-62.5 -10q-39 0 -79 24.5t-69 47.5zM457 496q0 -45 5 -86t19.5 -73t36 -50.5t55.5 -18.5q35 0 57.5 19.5t35 51.5t17.5 73t5 86q0 92 -24.5 153.5t-88.5 61.5q-35 0 -57 -18.5t-36.5 -49.5t-19.5 -69.5t-5 -79.5z" />
<glyph unicode="&#xf4;" horiz-adv-x="1146" d="M51 498q0 106 33 201.5t99.5 165t164.5 110.5t232 41q141 0 239.5 -41t159.5 -110.5t89 -163t28 -197.5t-29 -201.5t-91.5 -171.5t-161.5 -118t-243 -44q-141 0 -239.5 43t-160.5 116t-91 168t-29 202zM220 1149l174 258q33 47 81 73.5t111 26.5q119 0 180 -88l181 -270 q-57 -39 -119 -39q-43 0 -79 15.5t-71 54.5l-96 110l-100 -119q-53 -61 -142 -61q-37 0 -68.5 11.5t-51.5 27.5zM457 496q0 -45 5 -86t19.5 -73t36 -50.5t55.5 -18.5q35 0 57.5 19.5t35 51.5t17.5 73t5 86q0 92 -24.5 153.5t-88.5 61.5q-35 0 -57 -18.5t-36.5 -49.5 t-19.5 -69.5t-5 -79.5z" />
<glyph unicode="&#xf5;" horiz-adv-x="1146" d="M51 498q0 106 33 201.5t99.5 165t164.5 110.5t232 41q141 0 239.5 -41t159.5 -110.5t89 -163t28 -197.5t-29 -201.5t-91.5 -171.5t-161.5 -118t-243 -44q-141 0 -239.5 43t-160.5 116t-91 168t-29 202zM207 1270q0 45 47 88q82 76 197 76q47 0 83.5 -11.5t68.5 -26 t61.5 -25.5t64.5 -11q47 0 72.5 21.5t62.5 68.5l62 -78q35 -47 35 -84q0 -39 -18.5 -66.5t-46.5 -45t-63.5 -25.5t-68.5 -8q-55 0 -97 11t-77 25.5t-64.5 26t-60.5 11.5q-51 0 -86 -24t-70 -65l-67 70q-35 35 -35 72zM457 496q0 -45 5 -86t19.5 -73t36 -50.5t55.5 -18.5 q35 0 57.5 19.5t35 51.5t17.5 73t5 86q0 92 -24.5 153.5t-88.5 61.5q-35 0 -57 -18.5t-36.5 -49.5t-19.5 -69.5t-5 -79.5z" />
<glyph unicode="&#xf6;" horiz-adv-x="1146" d="M51 498q0 106 33 201.5t99.5 165t164.5 110.5t232 41q141 0 239.5 -41t159.5 -110.5t89 -163t28 -197.5t-29 -201.5t-91.5 -171.5t-161.5 -118t-243 -44q-141 0 -239.5 43t-160.5 116t-91 168t-29 202zM170 1288q0 74 50.5 119t121.5 45q72 0 122 -45t50 -119 q0 -76 -50 -120t-122 -44t-122 44t-50 120zM457 496q0 -45 5 -86t19.5 -73t36 -50.5t55.5 -18.5q35 0 57.5 19.5t35 51.5t17.5 73t5 86q0 92 -24.5 153.5t-88.5 61.5q-35 0 -57 -18.5t-36.5 -49.5t-19.5 -69.5t-5 -79.5zM650 1288q0 74 50 119t122 45t122 -45t50 -119 q0 -76 -50.5 -120t-121.5 -44q-72 0 -122 44t-50 120z" />
<glyph unicode="&#xf7;" horiz-adv-x="1228" d="M109 516v328h1011v-328h-1011zM428 262q0 76 53.5 127t132.5 51q80 0 133.5 -51t53.5 -127q0 -78 -53.5 -128t-133.5 -50t-133 50t-53 128zM428 1098q0 78 53.5 128t132.5 50q80 0 133.5 -50t53.5 -128q0 -76 -53.5 -127t-133.5 -51t-133 51t-53 127z" />
<glyph unicode="&#xf8;" horiz-adv-x="1146" d="M51 498q0 106 33 201.5t99.5 165t164.5 110.5t232 41q70 0 129 -11.5t108 -29.5l119 182l113 -65l-117 -183q86 -72 125 -177t39 -228q0 -104 -29 -201.5t-91.5 -171.5t-161.5 -118t-243 -44q-66 0 -120 9.5t-101 25.5l-133 -209l-115 66l134 205q-98 74 -141.5 187.5 t-43.5 244.5zM457 456q0 -20 4 -38l174 272q-23 23 -60 23q-35 0 -57 -18.5t-36.5 -49.5t-19.5 -69.5t-5 -79.5v-40zM526 279q27 -10 47 -11q35 0 57.5 19.5t35 51.5t17.5 73t5 86v30z" />
<glyph unicode="&#xf9;" horiz-adv-x="1136" d="M82 424v557q51 10 91 12t67 2q49 0 94 -9t81 -31.5t57.5 -64.5t21.5 -106v-389q0 -45 13 -71.5t58 -26.5t61.5 19.5t16.5 41.5v623q51 10 91 12t67 2q49 0 95 -9t81 -32.5t56.5 -65.5t21.5 -108v-780h-301q-53 0 -70.5 22.5t-17.5 81.5q-25 -43 -91.5 -82.5t-179.5 -39.5 q-129 0 -200.5 61t-96.5 162q-6 23 -9 51.5t-4 59t-2 59t-1 49.5zM269 1397q39 35 90 70.5t100 35.5q53 0 86 -28.5t60 -63.5l176 -235q-29 -23 -69 -47.5t-79 -24.5q-35 0 -63.5 10t-57.5 39z" />
<glyph unicode="&#xfa;" horiz-adv-x="1136" d="M82 424v557q51 10 91 12t67 2q49 0 94 -9t81 -31.5t57.5 -64.5t21.5 -106v-389q0 -45 13 -71.5t58 -26.5t61.5 19.5t16.5 41.5v623q51 10 91 12t67 2q49 0 95 -9t81 -32.5t56.5 -65.5t21.5 -108v-780h-301q-53 0 -70.5 22.5t-17.5 81.5q-25 -43 -91.5 -82.5t-179.5 -39.5 q-129 0 -200.5 61t-96.5 162q-6 23 -9 51.5t-4 59t-2 59t-1 49.5zM405 1176l176 235q27 35 59.5 63.5t86.5 28.5q49 0 100 -35.5t90 -70.5l-244 -244q-29 -29 -57.5 -39t-62.5 -10q-39 0 -79 24.5t-69 47.5z" />
<glyph unicode="&#xfb;" horiz-adv-x="1136" d="M82 424v557q51 10 91 12t67 2q49 0 94 -9t81 -31.5t57.5 -64.5t21.5 -106v-389q0 -45 13 -71.5t58 -26.5t61.5 19.5t16.5 41.5v623q51 10 91 12t67 2q49 0 95 -9t81 -32.5t56.5 -65.5t21.5 -108v-780h-301q-53 0 -70.5 22.5t-17.5 81.5q-25 -43 -91.5 -82.5t-179.5 -39.5 q-129 0 -200.5 61t-96.5 162q-6 23 -9 51.5t-4 59t-2 59t-1 49.5zM216 1149l174 258q33 47 81 73.5t111 26.5q119 0 180 -88l181 -270q-57 -39 -119 -39q-43 0 -79 15.5t-71 54.5l-96 110l-100 -119q-53 -61 -142 -61q-37 0 -68.5 11.5t-51.5 27.5z" />
<glyph unicode="&#xfc;" horiz-adv-x="1136" d="M82 424v557q51 10 91 12t67 2q49 0 94 -9t81 -31.5t57.5 -64.5t21.5 -106v-389q0 -45 13 -71.5t58 -26.5t61.5 19.5t16.5 41.5v623q51 10 91 12t67 2q49 0 95 -9t81 -32.5t56.5 -65.5t21.5 -108v-780h-301q-53 0 -70.5 22.5t-17.5 81.5q-25 -43 -91.5 -82.5t-179.5 -39.5 q-129 0 -200.5 61t-96.5 162q-6 23 -9 51.5t-4 59t-2 59t-1 49.5zM151 1288q0 74 50.5 119t121.5 45q72 0 122 -45t50 -119q0 -76 -50 -120t-122 -44t-122 44t-50 120zM631 1288q0 74 50 119t122 45t122 -45t50 -119q0 -76 -50.5 -120t-121.5 -44q-72 0 -122 44t-50 120z " />
<glyph unicode="&#xfd;" horiz-adv-x="1110" d="M10 961q45 16 103.5 25t111.5 9q61 0 104.5 -17t72 -46t44 -67t23.5 -77l90 -450h8l90 453q16 82 71.5 143t164.5 61t207 -39l-260 -983q-6 -20 -14.5 -46.5t-19.5 -54.5t-22.5 -54.5t-23.5 -44.5q-72 -129 -176.5 -183.5t-251.5 -54.5q-104 0 -174 32t-70 122 q0 35 16.5 83t55.5 115q35 -23 73.5 -32t67.5 -9q74 0 115 36t59 134h-162zM430 1176l176 235q27 35 59.5 63.5t86.5 28.5q49 0 100 -35.5t90 -70.5l-244 -244q-29 -29 -57.5 -39t-62.5 -10q-39 0 -79 24.5t-69 47.5z" />
<glyph unicode="&#xfe;" horiz-adv-x="1159" d="M82 -446v1884q49 10 89 12t67 2q49 0 94 -9t78.5 -33t54 -65.5t20.5 -107.5v-330q31 41 94.5 75t155.5 34q63 0 130 -23.5t121 -80t88 -151.5t34 -237q0 -166 -35 -272.5t-92 -169t-128 -86t-142 -23.5q-53 0 -94.5 11.5t-70 27t-42.5 27.5q-14 8 -17 14v-499h-405z M492 301q12 -8 31.5 -11t35.5 -3q70 0 95.5 66.5t25.5 172.5q0 92 -27.5 144.5t-101.5 52.5q-25 0 -39 -3t-20 -5v-414z" />
<glyph unicode="&#xff;" horiz-adv-x="1110" d="M10 961q45 16 103.5 25t111.5 9q61 0 104.5 -17t72 -46t44 -67t23.5 -77l90 -450h8l90 453q16 82 71.5 143t164.5 61t207 -39l-260 -983q-6 -20 -14.5 -46.5t-19.5 -54.5t-22.5 -54.5t-23.5 -44.5q-72 -129 -176.5 -183.5t-251.5 -54.5q-104 0 -174 32t-70 122 q0 35 16.5 83t55.5 115q35 -23 73.5 -32t67.5 -9q74 0 115 36t59 134h-162zM151 1288q0 74 50.5 119t121.5 45q72 0 122 -45t50 -119q0 -76 -50 -120t-122 -44t-122 44t-50 120zM631 1288q0 74 50 119t122 45t122 -45t50 -119q0 -76 -50.5 -120t-121.5 -44q-72 0 -122 44 t-50 120z" />
<glyph unicode="&#x152;" horiz-adv-x="1900" d="M68 686q0 141 44 266t131 218.5t216 148.5t301 55h1055q4 -41 6 -64.5t2 -58.5t-10.5 -68.5t-35 -61t-67.5 -45t-108 -17.5h-308v-207h396v-313h-396v-228h328q70 0 115 -17.5t69.5 -46t33.5 -63t9 -69.5t-1 -57.5t-3 -57.5h-1100q-174 0 -301 52t-210.5 144.5 t-124.5 218.5t-41 271zM489 686q0 -80 14.5 -153.5t49.5 -129t92 -89t143 -33.5h93v802h-78q-90 0 -150.5 -32.5t-96.5 -88t-51.5 -127t-15.5 -149.5z" />
<glyph unicode="&#x153;" horiz-adv-x="1683" d="M51 498q0 106 33 201.5t96.5 165t157.5 110.5t217 41q119 0 195.5 -37t136.5 -102q61 66 144 102.5t181 36.5q115 0 197 -37t134 -98.5t75.5 -143.5t23.5 -172v-27.5t-1 -36t-2 -34.5t-3 -25h-546q10 -78 57 -132t151 -54q82 0 137.5 24.5t110.5 65.5q27 -41 53.5 -94 t26.5 -94q0 -35 -18.5 -66t-65.5 -59q-45 -27 -116.5 -45.5t-149.5 -18.5q-125 0 -230.5 40t-158.5 108q-47 -59 -131 -103.5t-221 -44.5q-131 0 -222.5 43t-150 116t-85 168t-26.5 202zM467 504q0 -39 4 -79t16.5 -73t33 -53t50.5 -20q33 0 54.5 20t34 53t16.5 73t4 79 t-4 75.5t-16.5 64.5t-33 45.5t-51.5 17.5t-51 -17.5t-33.5 -45.5t-18.5 -64.5t-5 -75.5zM1083 612h197q0 86 -23.5 117t-76.5 31q-96 0 -97 -148z" />
<glyph unicode="&#x178;" horiz-adv-x="1288" d="M0 1317q53 29 126 48t128 19q98 0 150.5 -36.5t80.5 -108.5l160 -383l158 387q27 63 79 102t152 39q53 0 121 -14t133 -37l-440 -860v-473h-414v463zM248 1649q0 74 50 119t122 45t122 -45t50 -119q0 -76 -50.5 -120t-121.5 -44q-72 0 -122 44t-50 120zM706 1649 q0 74 50.5 119t121.5 45q72 0 122 -45t50 -119q0 -76 -50 -120t-122 -44t-122 44t-50 120z" />
<glyph unicode="&#x2c6;" horiz-adv-x="1024" d="M150 1149l174 258q33 47 81 73.5t111 26.5q119 0 180 -88l181 -270q-57 -39 -119 -39q-43 0 -79 15.5t-71 54.5l-96 110l-100 -119q-53 -61 -142 -61q-37 0 -68.5 11.5t-51.5 27.5z" />
<glyph unicode="&#x2dc;" horiz-adv-x="1024" d="M125 1270q0 45 47 88q82 76 197 76q47 0 83.5 -11.5t68.5 -26t61.5 -25.5t64.5 -11q47 0 72.5 21.5t62.5 68.5l62 -78q35 -47 35 -84q0 -39 -18.5 -66.5t-46.5 -45t-63.5 -25.5t-68.5 -8q-55 0 -97 11t-77 25.5t-64.5 26t-60.5 11.5q-51 0 -86 -24t-70 -65l-67 70 q-35 35 -35 72z" />
<glyph unicode="&#x2000;" horiz-adv-x="911" />
<glyph unicode="&#x2001;" horiz-adv-x="1823" />
<glyph unicode="&#x2002;" horiz-adv-x="911" />
<glyph unicode="&#x2003;" horiz-adv-x="1823" />
<glyph unicode="&#x2004;" horiz-adv-x="607" />
<glyph unicode="&#x2005;" horiz-adv-x="455" />
<glyph unicode="&#x2006;" horiz-adv-x="303" />
<glyph unicode="&#x2007;" horiz-adv-x="303" />
<glyph unicode="&#x2008;" horiz-adv-x="227" />
<glyph unicode="&#x2009;" horiz-adv-x="364" />
<glyph unicode="&#x200a;" horiz-adv-x="101" />
<glyph unicode="&#x2010;" horiz-adv-x="903" d="M98 621q0 66 6 131h482q98 0 157.5 -38t59.5 -139q0 -33 -1 -70.5t-3 -70.5h-500q-106 0 -153.5 54.5t-47.5 132.5z" />
<glyph unicode="&#x2011;" horiz-adv-x="903" d="M98 621q0 66 6 131h482q98 0 157.5 -38t59.5 -139q0 -33 -1 -70.5t-3 -70.5h-500q-106 0 -153.5 54.5t-47.5 132.5z" />
<glyph unicode="&#x2012;" horiz-adv-x="903" d="M98 621q0 66 6 131h482q98 0 157.5 -38t59.5 -139q0 -33 -1 -70.5t-3 -70.5h-500q-106 0 -153.5 54.5t-47.5 132.5z" />
<glyph unicode="&#x2013;" horiz-adv-x="1024" d="M20 621q0 66 7 131h761q90 0 153 -39t63 -138q0 -33 -1.5 -65.5t-3.5 -65.5h-782q-98 0 -147.5 49.5t-49.5 127.5z" />
<glyph unicode="&#x2014;" horiz-adv-x="2048" d="M20 621q0 66 7 131h1783q45 0 84 -9.5t69 -30t47.5 -54t17.5 -83.5q0 -68 -7 -131h-1800q-98 0 -149.5 49.5t-51.5 127.5z" />
<glyph unicode="&#x2018;" horiz-adv-x="563" d="M82 1044q0 86 24.5 164t81.5 142q39 45 86.5 73.5t92.5 28.5t77.5 -25.5t47.5 -66.5q-23 -10 -47.5 -23.5t-46 -32t-35 -43t-13.5 -55.5q0 -35 17.5 -56.5t37 -43t37 -50t17.5 -75.5q0 -29 -10.5 -58.5t-33 -54t-57 -40t-82.5 -15.5q-51 0 -87.5 20.5t-60.5 52.5 t-35 73.5t-11 84.5z" />
<glyph unicode="&#x2019;" horiz-adv-x="563" d="M72 905q23 8 47 22.5t45.5 33t35 43t13.5 55.5q0 33 -17.5 55.5t-37 44t-37 50t-17.5 75.5q0 27 10.5 56.5t33 54t57.5 41t82 16.5q51 0 88 -20.5t60.5 -52t34.5 -73.5t11 -85q0 -86 -24.5 -164t-81.5 -142q-39 -45 -86 -73.5t-92 -28.5t-78 25.5t-47 66.5z" />
<glyph unicode="&#x201a;" horiz-adv-x="583" d="M61 -199q23 8 47.5 22.5t46 33t35 43t13.5 55.5q0 33 -17.5 55.5t-37 44t-37 50t-17.5 75.5q0 27 10.5 56.5t33 54t57 41t81.5 16.5q51 0 88 -20.5t61 -52t35 -73.5t11 -85q0 -86 -24.5 -164t-81.5 -141q-39 -45 -86.5 -74t-92.5 -29t-77.5 25.5t-47.5 66.5z" />
<glyph unicode="&#x201c;" horiz-adv-x="1062" d="M82 1044q0 86 24.5 164t81.5 142q39 45 86.5 73.5t92.5 28.5t77.5 -25.5t47.5 -66.5q-23 -10 -47.5 -23.5t-46 -32t-35 -43t-13.5 -55.5q0 -35 17.5 -56.5t37 -43t37 -50t17.5 -75.5q0 -29 -10.5 -58.5t-33 -54t-57 -40t-82.5 -15.5q-51 0 -87.5 20.5t-60.5 52.5 t-35 73.5t-11 84.5zM582 1044q0 86 24.5 164t81.5 142q39 45 86.5 73.5t92.5 28.5t77.5 -25.5t47.5 -66.5q-23 -10 -47.5 -23.5t-46 -32t-35 -43t-13.5 -55.5q0 -35 17.5 -56.5t37 -43t37 -50t17.5 -75.5q0 -29 -10.5 -58.5t-33 -54t-57 -40t-82.5 -15.5q-51 0 -87.5 20.5 t-60.5 52.5t-35 73.5t-11 84.5z" />
<glyph unicode="&#x201d;" horiz-adv-x="1062" d="M72 905q23 8 47 22.5t45.5 33t35 43t13.5 55.5q0 33 -17.5 55.5t-37 44t-37 50t-17.5 75.5q0 27 10.5 56.5t33 54t57.5 41t82 16.5q51 0 88 -20.5t60.5 -52t34.5 -73.5t11 -85q0 -86 -24.5 -164t-81.5 -142q-39 -45 -86 -73.5t-92 -28.5t-78 25.5t-47 66.5zM572 905 q23 8 47 22.5t45.5 33t35 43t13.5 55.5q0 33 -17.5 55.5t-37 44t-37 50t-17.5 75.5q0 27 10.5 56.5t33 54t57.5 41t82 16.5q51 0 88 -20.5t60.5 -52t34.5 -73.5t11 -85q0 -86 -24.5 -164t-81.5 -142q-39 -45 -86 -73.5t-92 -28.5t-78 25.5t-47 66.5z" />
<glyph unicode="&#x201e;" horiz-adv-x="1083" d="M61 -199q23 8 47.5 22.5t46 33t35 43t13.5 55.5q0 33 -17.5 55.5t-37 44t-37 50t-17.5 75.5q0 27 10.5 56.5t33 54t57 41t81.5 16.5q51 0 88 -20.5t61 -52t35 -73.5t11 -85q0 -86 -24.5 -164t-81.5 -141q-39 -45 -86.5 -74t-92.5 -29t-77.5 25.5t-47.5 66.5zM561 -199 q23 8 47.5 22.5t46 33t35 43t13.5 55.5q0 33 -17.5 55.5t-37 44t-37 50t-17.5 75.5q0 27 10.5 56.5t33 54t57 41t81.5 16.5q51 0 88 -20.5t61 -52t35 -73.5t11 -85q0 -86 -24.5 -164t-81.5 -141q-39 -45 -86.5 -74t-92.5 -29t-77.5 25.5t-47.5 66.5z" />
<glyph unicode="&#x2022;" horiz-adv-x="792" d="M102 717q0 61 20.5 114.5t59.5 93.5t93.5 63.5t119.5 23.5q66 0 120 -23.5t93 -63.5t60.5 -93.5t21.5 -114.5q0 -59 -21.5 -112.5t-61.5 -93.5t-94 -63.5t-118 -23.5q-66 0 -120 23.5t-93 63.5t-59.5 93t-20.5 113z" />
<glyph unicode="&#x2026;" horiz-adv-x="1593" d="M74 162q0 86 54 137t140 51t140.5 -51t54.5 -137t-51.5 -139.5t-143.5 -53.5t-143 53.5t-51 139.5zM602 162q0 86 54 137t140 51t140.5 -51t54.5 -137t-51.5 -139.5t-143.5 -53.5t-143 53.5t-51 139.5zM1133 162q0 86 54 137t140 51t140.5 -51t54.5 -137t-51.5 -139.5 t-143.5 -53.5t-143 53.5t-51 139.5z" />
<glyph unicode="&#x202f;" horiz-adv-x="364" />
<glyph unicode="&#x2039;" horiz-adv-x="653" d="M61 578q0 53 27 99t68 83l305 276q57 -63 79.5 -107t22.5 -91q0 -31 -11 -66t-40 -74l-88 -120l98 -134q25 -35 37 -68.5t12 -72.5q0 -47 -19.5 -92t-66.5 -102l-331 284q-92 80 -93 185z" />
<glyph unicode="&#x203a;" horiz-adv-x="653" d="M82 303q0 39 12 73t37 68l98 134l-88 120q-29 39 -40 74t-11 66q0 47 22.5 91t80.5 107l305 -276q41 -37 67.5 -83t26.5 -99q0 -104 -92 -185l-332 -284q-47 57 -66.5 102t-19.5 92z" />
<glyph unicode="&#x205f;" horiz-adv-x="455" />
<glyph unicode="&#x20ac;" d="M92 475v117h111q-2 18 -2 37v94h-109v117h123q20 121 70.5 219t125 168.5t173 108.5t217.5 38q70 0 126 -11t100 -28.5t76 -37t52 -35.5q27 -23 46.5 -53.5t19.5 -69.5q0 -41 -35 -95.5t-88 -111.5q-63 57 -118.5 90t-139.5 33q-104 0 -157.5 -58.5t-74.5 -156.5h342 v-117h-356v-86q0 -23 2 -45h354v-117h-334q23 -92 76 -144t152 -52q76 0 128 25.5t111 82.5q14 -18 33 -44t36 -53.5t28.5 -57t11.5 -56.5q0 -62 -51 -113q-12 -12 -37 -28.5t-66 -32.5t-98 -27.5t-133 -11.5q-133 0 -235.5 37t-175 104.5t-118 161.5t-63.5 209h-123z" />
<glyph unicode="&#x2122;" horiz-adv-x="1683" d="M20 1251q0 20 5.5 41t20.5 37.5t44 25.5t78 9h516q6 -25 8 -50.5t2 -35.5q0 -20 -6 -42t-21.5 -39t-45 -28.5t-74.5 -11.5h-68v-549h-248v549h-200q-6 29 -8.5 56.5t-2.5 37.5zM737 608l51 746q16 8 56 14t71 6q59 0 94 -24.5t50 -65.5l127 -375l125 371q18 53 62 73.5 t83 20.5t75 -6t52 -14l39 -746h-229l-17 359l-96 -265h-201l-92 256l-18 -350h-232z" />
<glyph unicode="&#x25fc;" horiz-adv-x="993" d="M0 0v993h993v-993h-993z" />
</font>
</defs>
</svg>
