<?xml version="1.0" standalone="no"?>
<!DOCTYPE svg PUBLIC "-//W3C//DTD SVG 1.1//EN" "http://www.w3.org/Graphics/SVG/1.1/DTD/svg11.dtd" >
<svg xmlns="http://www.w3.org/2000/svg" xmlns:xlink="http://www.w3.org/1999/xlink" version="1.1">
<metadata></metadata>
<defs>
<<<<<<< HEAD
<font id="focoregular" horiz-adv-x="1124" >
<font-face units-per-em="2048" ascent="1638" descent="-410" />
<missing-glyph horiz-adv-x="409" />
<glyph unicode="&#xfb01;" horiz-adv-x="1089" d="M150 0v1063q0 199 99 302t292 103q76 0 138 -15t106 -37.5t69 -49.5t25 -51q0 -23 -16.5 -51.5t-33.5 -51.5h-30q-33 43 -95.5 75t-154.5 32q-111 0 -168 -51t-57 -174v-131h596v-762q0 -70 15 -97.5t83 -27.5v-74q-20 -6 -52 -10t-61 -4q-59 0 -91 19.5t-47 51 t-18.5 72.5t-3.5 84v598h-421v-813h-174z" />
<glyph unicode="&#xfb02;" horiz-adv-x="1107" d="M150 0v1065q0 35 4 67.5t8 57.5q29 139 135 208.5t258 69.5q66 0 125 -10t108.5 -26.5t87 -35t62.5 -36.5v-1149q0 -37 1 -62.5t10 -42t29.5 -23.5t57.5 -7v-74q-18 -6 -49 -10t-59 -4q-59 0 -92 17.5t-48.5 48t-19.5 72.5t-4 89v1057h2q-37 16 -95.5 30.5t-117.5 14.5 q-111 0 -169 -49t-58 -172v-133h315v-150h-315v-813h-176z" />
<glyph unicode="&#xfb03;" horiz-adv-x="1701" d="M154 0v1069q0 199 92 299t266 100q53 0 98 -12t78 -30.5t51.5 -41t18.5 -43.5q0 -29 -16.5 -56.5t-39.5 -49.5h-24q-35 43 -78 63.5t-88 20.5q-86 0 -135 -50t-49 -173v-133h434v100q0 199 99.5 302t291.5 103q76 0 138.5 -15t106.5 -37.5t68.5 -49.5t24.5 -51 q0 -23 -16.5 -51.5t-32.5 -51.5h-31q-33 43 -95.5 75t-154.5 32q-111 0 -168 -51t-57 -174v-131h596v-762q0 -70 15.5 -97.5t82.5 -27.5v-74q-20 -6 -52 -10t-60 -4q-59 0 -91 19.5t-47.5 51t-18.5 72.5t-3 84v598h-422v-813h-174v813h-434v-813h-174z" />
<glyph unicode="&#xfb04;" horiz-adv-x="1722" d="M154 0v1069q0 199 92 299t266 100q53 0 98 -12t78 -30.5t51.5 -41t18.5 -43.5q0 -29 -16.5 -56.5t-39.5 -49.5h-24q-35 43 -78 63.5t-88 20.5q-86 0 -135 -50t-49 -173v-133h436v102q0 35 4 67.5t8 57.5q29 139 135.5 208.5t257.5 69.5q66 0 125.5 -10t108.5 -26.5 t87 -35t62 -36.5v-1149q0 -37 1 -62.5t10.5 -42t30 -23.5t57.5 -7v-74q-18 -6 -49 -10t-60 -4q-59 0 -92 17.5t-48.5 48t-19.5 72.5t-4 89v1057h2q-37 16 -95 30.5t-118 14.5q-111 0 -169 -49t-58 -172v-133h315v-150h-315v-813h-176v813h-436v-813h-174z" />
<glyph unicode="&#xd;" horiz-adv-x="409" />
<glyph horiz-adv-x="0" />
<glyph horiz-adv-x="0" />
<glyph unicode=" "  horiz-adv-x="409" />
<glyph unicode="&#x09;" horiz-adv-x="409" />
<glyph unicode="&#xa0;" horiz-adv-x="409" />
<glyph unicode="!" horiz-adv-x="460" d="M113 90q0 53 32.5 89t85.5 36q51 0 84 -36t33 -89t-33 -87t-84 -34q-53 0 -85.5 34t-32.5 87zM139 492v882h13q6 0 13 1t13 1q57 0 97 -28.5t40 -106.5v-883q-6 -2 -14 -2h-25q-57 0 -97 29t-40 107z" />
<glyph unicode="&#x22;" horiz-adv-x="671" d="M108 893v502q6 0 16.5 1t14.5 1q47 0 86 -29t39 -100v-8l-14 -367h-142zM413 893v502q6 0 16.5 1t14.5 1q47 0 86 -29t39 -100v-8l-14 -367h-142z" />
<glyph unicode="#" horiz-adv-x="1341" d="M74 358l18 134h289l43 301h-289l19 135h288l45 307h142l-45 -307h288l46 307h141l-45 -307h278l-18 -135h-279l-43 -301h279l-19 -134h-278l-41 -299h-141l41 299h-289l-41 -299h-141l40 299h-288zM522 492h289l43 301h-289z" />
<glyph unicode="$" d="M119 135q0 23 17.5 57.5t39.5 65.5q31 -27 68 -50.5t82 -43.5q39 -16 79.5 -26.5t86.5 -12.5v518q-29 10 -54.5 20.5t-52.5 20.5q-100 41 -167.5 119t-67.5 217t68.5 227t180.5 125q39 14 93 21v161h126v-159q51 -6 101 -19q86 -18 143 -55q31 -20 52.5 -44t21.5 -54 q0 -25 -18.5 -53.5t-47.5 -57.5q-27 23 -73.5 56.5t-124.5 56.5q-12 4 -25.5 6t-28.5 4v-453q59 -20 121 -53q45 -23 84 -54.5t67 -72.5t44 -94t16 -121q0 -154 -69.5 -252t-190.5 -139l-72 -19v-170h-126v162q-96 2 -181 25q-92 25 -145 65q-47 35 -47 76zM328 1034 q0 -51 18.5 -88t52.5 -65q41 -31 90 -52l3 -2v406q-25 -4 -39 -12q-68 -25 -96.5 -75t-28.5 -112zM618 137l17 8q78 31 107.5 88.5t29.5 126.5q0 86 -33.5 140.5t-105.5 89.5l-15 6v-459z" />
<glyph unicode="%" horiz-adv-x="1685" d="M98 1036q0 180 87 270.5t223 90.5q311 0 311 -361q0 -178 -86 -270t-223 -92q-148 0 -230 92q-82 94 -82 270zM252 1036q0 -104 35 -167.5t121 -63.5q90 0 124.5 63.5t34.5 169.5q0 104 -33.5 167t-125.5 63q-86 0 -121 -63.5t-35 -168.5zM289 0l878 1319q18 29 51 54.5 t80 25.5q33 0 53.5 -4t34.5 -11l-921 -1384h-176zM958 332q0 88 24 155.5t64.5 112.5t97 68.5t124.5 23.5q143 0 226 -90t83 -270t-85 -271.5t-222 -91.5q-148 0 -230 92q-82 90 -82 271zM1110 332q0 -104 36 -169t122 -65q90 0 124.5 64.5t34.5 171.5q0 104 -33.5 166.5 t-125.5 62.5q-88 0 -123 -63.5t-35 -167.5z" />
<glyph unicode="&#x26;" horiz-adv-x="1429" d="M106 383q0 92 29 166t76 131t109.5 99t130.5 69h-2q-47 61 -69 115.5t-22 126.5q0 70 29 127t77 97t112.5 61.5t136.5 21.5q86 0 145.5 -19.5t102.5 -48.5q45 -33 45 -74q0 -27 -22.5 -57.5t-39.5 -48.5h-20q-43 41 -90.5 67.5t-114.5 26.5q-74 0 -126 -42t-52 -122 q0 -53 24.5 -100t63.5 -96q78 -98 170 -211t172 -211q29 72 45 150.5t18 166.5v52.5t-2 56.5h330v-133h-180q-4 -117 -33 -228.5t-74 -197.5l262 -322q-23 -10 -49 -17t-51 -7q-80 0 -135 61l-129 147q-86 -94 -188.5 -153.5t-237.5 -59.5q-117 0 -200 34t-137 89.5t-79 129 t-25 153.5zM279 395q0 -113 70.5 -189.5t201.5 -76.5q104 0 177 45t142 137l-168 207l-165 207q-53 -23 -100.5 -53.5t-82.5 -71.5t-55 -92t-20 -113z" />
<glyph unicode="'" horiz-adv-x="366" d="M100 893v502q6 0 16.5 1t14.5 1q47 0 86 -29t39 -100v-8l-14 -367h-142z" />
<glyph unicode="(" horiz-adv-x="579" d="M111 612q0 180 31.5 322.5t74.5 244t89 164t77 87.5q20 16 40.5 26t47.5 10q25 0 41 -3t31 -9q-12 -16 -52 -69.5t-81 -154t-74 -253t-33 -365.5q0 -223 36 -381.5t81 -263.5q27 -59 56.5 -110.5t62.5 -92.5q-17 -10 -29 -12q-20 -4 -37 -4q-25 0 -46 9.5t-44 25.5 q-25 18 -71 73.5t-90 155t-77.5 248t-33.5 352.5z" />
<glyph unicode=")" horiz-adv-x="575" d="M20 1454q27 12 72 12q27 0 47.5 -10t40.5 -26q31 -25 77 -87.5t89 -164t75 -243.5t32 -323q0 -205 -34 -353t-78 -247.5t-90 -155t-71 -73.5q-23 -16 -44 -25.5t-46 -9.5q-17 0 -37 4q-12 2 -28 12q33 41 62.5 92.5t55.5 110.5q45 104 81 263t36 382q0 213 -32.5 365.5 t-73.5 253t-81 154t-53 69.5z" />
<glyph unicode="*" horiz-adv-x="798" d="M76 1225q0 27 14 49q23 41 57 41q18 0 37 -11.5t37 -27.5l86 -80q6 -4 12.5 -14.5t6.5 -20.5q0 -25 -13.5 -33t-29.5 -8q-12 0 -37 6l-105 31q-8 2 -17 6t-20 8q-29 16 -28 54zM78 963q0 37 28 53q12 6 24.5 10t23.5 8l104 33q20 4 27 4q16 0 26.5 -12t10.5 -29 q0 -14 -8.5 -25.5t-18.5 -21.5l-98 -94q-18 -18 -45 -19q-35 0 -62 45q-12 20 -12 48zM317 799q0 14 3.5 31.5t7.5 27.5l24 94q6 23 14.5 37.5t30.5 14.5q33 0 41 -46l25 -106q8 -23 8 -51q0 -27 -18.5 -46.5t-57.5 -19.5q-78 0 -78 64zM328 1401q0 27 18.5 46t56.5 19 q39 0 58.5 -18t19.5 -47q0 -33 -10 -58l-25 -98q-6 -25 -13 -37t-30 -12q-33 0 -43 47l-24 107q-8 18 -8 51zM473 1026q0 16 10.5 28.5t26.5 12.5q6 0 27 -4l104 -33q10 -4 22.5 -8t24.5 -10q29 -16 29 -54q0 -27 -12 -47q-27 -45 -62 -45q-27 0 -45 19l-98 94 q-10 10 -18.5 21.5t-8.5 25.5zM473 1157q0 10 6 20.5t13 14.5l86 80q18 16 36.5 27.5t36.5 11.5q35 0 58 -41q14 -23 14 -49q0 -37 -29 -54q-10 -4 -19 -8t-18 -6l-104 -31q-25 -6 -37 -6q-16 0 -29.5 8.5t-13.5 32.5z" />
<glyph unicode="+" d="M158 608v164h319v328h168v-326h322v-164h-322v-329h-168v327h-319z" />
<glyph unicode="," horiz-adv-x="462" d="M72 -178q18 8 39.5 23.5t40 36t32 43t19.5 46.5q-25 16 -52.5 47t-27.5 78q0 51 28.5 85t81.5 34q59 0 88 -42t29 -101q0 -47 -11 -92.5t-29.5 -84t-44 -68.5t-56.5 -48q-33 -21 -66 -21q-51 0 -71 64z" />
<glyph unicode="-" horiz-adv-x="903" d="M143 580v21t2 22q0 14 2 20h515q18 0 37.5 -2t36 -12.5t27.5 -30.5t11 -57q0 -10 -1 -22.5t-1 -22.5q-2 -8 -2 -23h-522q-43 0 -74 23.5t-31 83.5z" />
<glyph unicode="." horiz-adv-x="460" d="M113 96q0 53 33.5 90t82.5 37q51 0 85 -36.5t34 -90.5q0 -53 -32.5 -90t-86.5 -37q-51 0 -84 37q-33 35 -32 90z" />
<glyph unicode="/" horiz-adv-x="780" d="M25 0l522 1290q12 35 40.5 60.5t76.5 25.5q33 0 53 -4t35 -10l-551 -1362h-176z" />
<glyph unicode="0" d="M78 668q0 162 30.5 292t92 221t153.5 140t215 49q242 0 357.5 -184.5t115.5 -517.5q0 -340 -121.5 -519.5t-357.5 -179.5q-237 0 -362 174q-123 174 -123 525zM266 668q0 -223 46 -347t130 -167q57 -29 123 -29q68 0 121 27.5t92 91t59.5 168t20.5 256.5q0 154 -20.5 257 t-59.5 166.5t-92 91t-121 27.5t-123 -27.5t-94 -91t-60.5 -167t-21.5 -256.5z" />
<glyph unicode="1" d="M213 1100q0 20 12.5 38.5t32.5 28.5l266 148q39 23 69 35t58 12q27 0 49.5 -9.5t32.5 -19.5v-1333h-176v1141l-287 -150q-16 20 -36.5 51t-20.5 58z" />
<glyph unicode="2" d="M119 0v143q39 31 92 76t111.5 100.5t120 119t118.5 130.5q88 104 142.5 199.5t54.5 206.5q0 68 -19.5 111.5t-53.5 71.5t-78 39t-93 11q-53 0 -100 -16t-85 -40t-68 -50.5t-50 -48.5h-31q-61 68 -61 104q0 18 10 34.5t25 29.5q12 12 44.5 36.5t82 50t113 44t138.5 18.5 q82 0 156 -20.5t129 -65.5t88 -118.5t33 -180.5q0 -158 -77 -291t-187 -248q-86 -92 -167 -168.5t-140 -123.5h483q66 0 96.5 -32t30.5 -77q0 -27 -6 -45h-852z" />
<glyph unicode="3" d="M84 143q0 23 21.5 59t50.5 74q18 -20 49 -46.5t74 -49t96 -39t117 -16.5q51 0 101 12.5t91 42t66.5 79.5t25.5 126q0 86 -34.5 135t-82 76t-96.5 34t-76 7h-73v149h73q27 0 71 8.5t85 33t70.5 69.5t29.5 119q0 197 -233 196q-55 0 -103.5 -14t-86 -35.5t-67.5 -46 t-50 -45.5h-27q-31 27 -49 53.5t-18 46.5q0 23 20.5 46.5t46.5 44.5q57 43 149.5 75.5t196.5 32.5t180 -25.5t125.5 -71.5t73 -107.5t23.5 -135.5q0 -72 -21.5 -124t-52.5 -91t-65.5 -62.5t-59.5 -35.5q31 -12 71 -35t75.5 -60.5t60 -95t24.5 -137.5q0 -90 -27.5 -167 t-85 -132t-144.5 -87t-203 -32q-74 0 -135.5 11.5t-108.5 29t-79 34.5t-48 30q-41 31 -41 67z" />
<glyph unicode="4" d="M115 354v138l547 763q35 47 67.5 76t81.5 29q47 0 76 -21v-837h63q53 0 75 -25.5t22 -64.5q0 -10 -1.5 -19.5t-3.5 -19.5q-2 -6 -2 -19h-153v-354h-176v354h-596zM283 504h428v590z" />
<glyph unicode="5" d="M88 139q0 27 19.5 59.5t48.5 71.5q18 -20 50 -45.5t75 -47t98 -37t121 -15.5q51 0 102 16.5t92 51t65.5 90t24.5 133.5q0 98 -30.5 156.5t-78.5 90t-105.5 42t-110.5 10.5q-70 0 -131.5 -12.5t-102.5 -26.5l-57 26l65 652h676q4 -10 5 -20.5t1 -24.5q0 -74 -34.5 -95.5 t-92.5 -21.5h-415l-35 -346q27 6 66.5 13t93.5 7q94 0 178 -22.5t148.5 -74.5t102.5 -136t38 -207q0 -94 -30 -177t-88.5 -144.5t-147.5 -97.5t-205 -36q-80 0 -142.5 11.5t-107.5 27t-74 31.5t-41 27q-16 12 -28.5 29.5t-12.5 41.5z" />
<glyph unicode="6" d="M127 555q0 186 49 328.5t129 242t180.5 157.5t202.5 79q31 6 59.5 8t51.5 2q90 0 90 -86q0 -41 -6 -67q-16 2 -30.5 2h-31.5q-129 0 -218 -49.5t-146.5 -118t-88 -140t-40.5 -114.5l47 37q45 29 110.5 54t149.5 25q98 0 168.5 -37.5t117 -101t69 -146.5t22.5 -173 q0 -117 -33 -208t-91.5 -153.5t-138 -94.5t-171.5 -32q-229 0 -340 151.5t-111 434.5zM303 522q0 -61 10.5 -132t41 -130t85 -99t144.5 -40q113 0 179 87t66 236q0 68 -13 126.5t-42 102.5t-75 68.5t-111 24.5q-51 0 -96.5 -14.5t-81 -34t-62 -41t-39.5 -33.5l-6 -57v-64z " />
<glyph unicode="7" d="M106 1243q0 49 31 80t94 31h693q41 0 60.5 -14.5t19.5 -55.5v-49l-586 -1235h-193l568 1188h-682q-2 6 -2 16q-2 8 -2.5 18.5t-0.5 20.5z" />
<glyph unicode="8" d="M90 367q0 55 19.5 109t51.5 100.5t75 82t92 56.5q-45 20 -81 50t-63 71q-49 82 -49 174q0 88 36 155.5t96.5 112.5t136 68.5t155.5 23.5q84 0 161 -20.5t135 -63.5t93 -108.5t35 -155.5q0 -98 -52 -177t-145 -126q55 -18 99.5 -53t76 -81t49 -100.5t17.5 -109.5 q0 -104 -37 -181t-100.5 -127.5t-148.5 -74t-183 -23.5q-104 0 -190 23.5t-148.5 73t-96.5 124t-34 177.5zM266 371q0 -128 82 -191q84 -66 211 -65q129 0 210 68.5t81 193.5q0 117 -78 188.5t-213 71.5q-68 0 -122 -20.5t-92 -55.5t-58.5 -84t-20.5 -106zM309 1008 q0 -47 19.5 -86t52.5 -70q74 -61 178 -61q51 0 96 17t79 47t53.5 70t19.5 87q0 51 -19.5 92t-53.5 67.5t-79 41t-96 14.5q-104 0 -177 -56.5t-73 -162.5z" />
<glyph unicode="9" d="M113 889q0 117 32.5 207t91 150.5t138.5 92t174 31.5q113 0 196.5 -40t140 -114.5t85 -180t28.5 -236.5q0 -207 -55 -361.5t-146 -259t-209 -157t-243 -52.5q-51 0 -79.5 16.5t-28.5 67.5q0 20 1 38t3 32q10 -2 30 -2h31q129 0 219 48t147.5 116.5t87 142.5t38.5 125 q-18 -16 -44 -35.5t-62 -37t-81 -30t-100 -12.5q-104 0 -179 38t-123 101.5t-70.5 144.5t-22.5 167zM295 903q0 -143 56.5 -231t191.5 -88q51 0 96 15t81 37.5t60.5 49.5t34.5 49q2 10 2 20.5v20.5q2 12 2 24.5v26.5q0 57 -10 125t-41 127.5t-85 99.5t-142 40 q-111 0 -178.5 -84t-67.5 -232z" />
<glyph unicode=":" horiz-adv-x="460" d="M113 96q0 53 33.5 90t82.5 37q51 0 85 -36.5t34 -90.5q0 -53 -32.5 -90t-86.5 -37q-51 0 -84 37q-33 35 -32 90zM113 870q0 53 33.5 90t82.5 37q51 0 85 -36.5t34 -90.5q0 -53 -32.5 -90t-86.5 -37q-51 0 -84 37q-33 35 -32 90z" />
<glyph unicode=";" horiz-adv-x="487" d="M72 -178q18 8 39.5 23.5t40 36t32 43t19.5 46.5q-25 16 -52.5 47t-27.5 78q0 51 28.5 85t81.5 34q59 0 88 -42t29 -101q0 -47 -11 -92.5t-29.5 -84t-44 -68.5t-56.5 -48q-33 -21 -66 -21q-51 0 -71 64zM140 870q0 53 33.5 90t82.5 37q51 0 85 -36.5t34 -90.5 q0 -53 -32.5 -90t-86.5 -37q-51 0 -84 37q-33 35 -32 90z" />
<glyph unicode="&#x3c;" d="M176 612v152l768 352v-178l-534 -250l534 -250v-184z" />
<glyph unicode="=" d="M160 416v164h805v-164h-805zM160 788v166h805v-163z" />
<glyph unicode="&#x3e;" d="M176 254v184l537 252l-537 244v182l768 -352v-152z" />
<glyph unicode="?" horiz-adv-x="899" d="M43 1233q0 31 35 55q14 12 43 30.5t72 36t99 30t128 12.5q82 0 154.5 -21.5t128 -65.5t88 -112t32.5 -160q0 -61 -16 -111t-43 -93t-59.5 -79t-65.5 -67q-72 -61 -125 -121.5t-53 -126.5q0 -16 2 -38.5t6 -43.5q-8 -2 -19.5 -2h-21.5q-55 0 -85 34t-30 93 q0 82 50.5 145.5t115.5 123.5q61 57 111.5 123.5t50.5 156.5q0 57 -19.5 97t-53 66t-76.5 37t-93 11q-55 0 -100 -12t-80 -30.5t-60.5 -39t-39.5 -35.5h-25q-16 23 -33.5 51.5t-17.5 55.5zM279 94q0 53 33.5 90t82.5 37q53 0 87 -37t34 -90t-33.5 -89t-87.5 -36 q-49 0 -84 35q-33 35 -32 90z" />
<glyph unicode="@" horiz-adv-x="1622" d="M86 1065q0 45 88 98q41 23 96.5 46.5t121 43t141 31.5t157.5 12q193 0 339.5 -58t244.5 -159.5t147 -239t49 -294.5q0 -178 -49 -323.5t-143 -248t-232.5 -159t-314.5 -56.5q-143 0 -246.5 31t-170 86t-98.5 131t-32 166q0 127 62.5 203t151.5 115.5t184.5 53t162.5 17.5 h49.5t41.5 -2q-2 45 -13.5 87t-36 73t-67.5 49t-109 18q-78 0 -144.5 -25.5t-109.5 -58.5h-30q-20 27 -29.5 47.5t-9.5 43.5t29.5 46t78.5 42.5t110.5 32t125.5 12.5q172 0 269 -82t97 -264v-291q0 -57 15.5 -82t79.5 -27v-76q-47 -12 -86 -12q-68 0 -117 36t-49 122v192 h-41q-31 0 -77 -3t-96.5 -12t-99.5 -26.5t-89 -47t-64.5 -75t-24.5 -106.5q0 -37 14.5 -84t57.5 -88t122 -69.5t208 -28.5q119 0 223 36.5t180 114.5t120 200t44 292q0 150 -48 262.5t-133 188t-202 113.5t-254 38q-96 0 -180 -19.5t-151.5 -47t-115 -56.5t-71.5 -49h-23 q-23 18 -38 43.5t-15 46.5z" />
<glyph unicode="A" horiz-adv-x="1280" d="M45 0l496 1358q14 6 42.5 12t57.5 6q39 0 70.5 -17.5t50.5 -66.5l473 -1292h-186l-138 369h-553l-133 -369h-180zM403 514h461l-229 653z" />
<glyph unicode="B" horiz-adv-x="1161" d="M160 0v1366q84 8 159.5 13t174.5 5q141 0 238 -22.5t156.5 -65.5t86 -107.5t26.5 -146.5q0 -72 -20 -126t-50 -93t-65 -63.5t-63 -36.5q33 -8 79 -27.5t86 -56.5t68.5 -96.5t28.5 -149.5q0 -115 -39 -190.5t-110.5 -120.5t-174 -63.5t-227.5 -18.5h-354zM338 147h129 q92 0 168 8.5t131 34t86 74.5t31 131q0 72 -29 118t-78 73.5t-111.5 38t-129.5 10.5h-197v-488zM338 780h194q129 0 210 66.5t81 189.5q0 63 -25.5 103.5t-70.5 62t-107.5 29.5t-136.5 8q-49 0 -86 -2t-59 -6v-451z" />
<glyph unicode="C" horiz-adv-x="1220" d="M125 680q0 154 36 286t110.5 227t188 149.5t271.5 54.5q80 0 153.5 -18.5t130 -47t90.5 -63.5t34 -66q0 -27 -17.5 -56.5t-36.5 -51.5h-36q-23 25 -52.5 51t-68.5 46.5t-87 34t-110 13.5q-123 0 -204 -48t-129 -127t-68.5 -178.5t-20.5 -203.5q0 -106 21.5 -206.5 t73 -179.5t135.5 -126t209 -47q68 0 123 19.5t96 46t66.5 51t35.5 36.5q23 -18 48.5 -52t25.5 -58q0 -33 -29 -62q-10 -10 -38.5 -32.5t-76 -45t-115 -40t-155.5 -17.5q-158 0 -272.5 53.5t-188 147.5t-108.5 225t-35 285z" />
<glyph unicode="D" horiz-adv-x="1296" d="M162 0v1364q111 12 192.5 16t153.5 4q197 0 328 -53t209.5 -145t111.5 -215t33 -262q0 -186 -61.5 -340t-192.5 -252q-80 -57 -192.5 -87t-262.5 -30h-319zM340 152h170q137 0 232.5 43t153.5 116.5t84 173t26 213.5q0 115 -22.5 212.5t-80 168t-153 109.5t-238.5 39 q-41 0 -85 -2t-87 -8v-1065z" />
<glyph unicode="E" horiz-adv-x="1042" d="M160 0v1370h790q2 -8 3 -17.5t1 -25.5q0 -47 -26.5 -78.5t-98.5 -31.5h-491v-422h465v-158h-465v-483h520q66 0 96.5 -32t30.5 -79v-17.5t-2 -25.5h-823z" />
<glyph unicode="F" horiz-adv-x="972" d="M160 0v1370h790q2 -10 3 -17t1 -26q0 -47 -26.5 -78.5t-100.5 -31.5h-489v-410h465v-156h-465v-651h-178z" />
<glyph unicode="G" horiz-adv-x="1333" d="M125 690q0 154 37 284t112.5 223t193.5 146.5t277 53.5q74 0 146 -17.5t127 -45t90 -61.5t35 -65q0 -25 -16.5 -55.5t-36.5 -54.5h-35q-18 23 -48 48t-71 45.5t-92 34t-111 13.5q-125 0 -207 -47t-131 -124t-68.5 -175t-19.5 -203q0 -109 21.5 -211t74 -182t137.5 -129 t212 -49q57 0 105 10t85 24.5t60.5 30t35.5 27.5v360h-286v146h456v-580q-14 -18 -52 -46t-98.5 -55.5t-142 -47t-182.5 -19.5q-158 0 -272.5 53.5t-189 149.5t-110.5 228t-36 290z" />
<glyph unicode="H" horiz-adv-x="1331" d="M162 0v1372q12 2 26.5 3t24.5 1q20 0 43 -5t41 -18.5t30.5 -39t12.5 -66.5v-456h651v581q12 2 26.5 3t24.5 1q20 0 43 -5t41.5 -18.5t30.5 -39t12 -66.5v-1247h-178v635h-651v-635h-178z" />
<glyph unicode="I" horiz-adv-x="491" d="M156 0v1372q12 2 26.5 3t24.5 1q20 0 41.5 -4t41 -18.5t32 -39t14.5 -67.5v-1247h-180z" />
<glyph unicode="J" horiz-adv-x="507" d="M-96 -238.5q0 13.5 2 23.5q150 0 208 59.5t58 198.5v1329q12 2 26.5 3t24.5 1q20 0 43 -5t41.5 -18.5t30.5 -39t12 -66.5v-1106q0 -43 -2 -88t-6 -92q-6 -59 -27.5 -117.5t-61.5 -104.5t-99.5 -75t-141.5 -29q-66 0 -87 29t-21 72v25.5z" />
<glyph unicode="K" horiz-adv-x="1150" d="M162 0v1372q10 2 21.5 3t27.5 1q18 0 39.5 -5t42 -18.5t34 -39t13.5 -66.5v-1247h-178zM377 696v66l489 547q33 35 58.5 49t56.5 14t62.5 -13t56.5 -30l-531 -592l570 -729q-25 -10 -56.5 -17t-56.5 -7q-53 0 -87 18t-65 57z" />
<glyph unicode="L" horiz-adv-x="980" d="M160 0v1372q12 2 26.5 3t24.5 1q20 0 42.5 -5t41 -18.5t31 -39t12.5 -66.5v-1091h475q66 0 94.5 -32t28.5 -77v-19.5t-2 -27.5h-774z" />
<glyph unicode="M" horiz-adv-x="1626" d="M127 0l102 1364q14 4 37 8t51 4q43 0 69 -20.5t42 -55.5l381 -827l381 823q23 49 56.5 64.5t66.5 15.5q27 0 51.5 -4t38.5 -8l96 -1364h-168l-74 1077l-364 -766h-174l-346 731l-76 -1042h-170z" />
<glyph unicode="N" horiz-adv-x="1351" d="M162 0v1366q12 4 34.5 7t45.5 3q45 0 70.5 -15t47.5 -52l664 -1037v1100q12 2 25.5 3t23.5 1q18 0 39 -5t38 -18.5t28.5 -39t11.5 -66.5v-1247h-166l-696 1063v-1063h-166z" />
<glyph unicode="O" horiz-adv-x="1431" d="M125 690q0 141 35 269t108.5 225.5t187 155t271.5 57.5q154 0 263.5 -55.5t180 -150.5t103.5 -224.5t33 -274.5q0 -147 -34 -278t-105.5 -229.5t-185.5 -157t-273 -58.5q-160 0 -271.5 60.5t-181.5 160t-100.5 229.5t-30.5 271zM313 690q0 -111 20.5 -212t68 -179 t124 -125t191.5 -47q113 0 190.5 47t124.5 125t67.5 179t20.5 212q0 113 -20.5 212t-66.5 174t-122.5 119t-187.5 44q-117 0 -194.5 -44t-126 -119t-69 -174t-20.5 -212z" />
<glyph unicode="P" horiz-adv-x="1101" d="M160 0v1366q76 8 161 13t162 5q283 0 413 -100t130 -299q0 -133 -44 -221t-120 -141.5t-174 -75t-205 -21.5h-145v-526h-178zM332 1227h4v-551h82q100 0 179 12t133 45t83 91.5t29 150.5q0 76 -27 126t-73 79.5t-109.5 42t-134.5 12.5q-53 0 -92 -2t-74 -6z" />
<glyph unicode="Q" horiz-adv-x="1443" d="M131 690q0 141 35 269t108.5 225.5t187 155t271.5 57.5q154 0 263.5 -55.5t180 -150.5t103.5 -224t33 -275q0 -147 -34 -278t-105.5 -229.5t-185.5 -157t-273 -58.5q-160 0 -270.5 59.5t-180.5 157.5q-70 100 -101.5 231.5t-31.5 272.5zM319 690q0 -84 11.5 -161.5 t37 -145.5t65.5 -122t97 -89q76 -45 193 -45q113 0 190.5 46t124.5 125t67.5 180.5t20.5 211.5q0 111 -20.5 209t-66.5 173t-122.5 118t-187.5 43q-117 0 -194.5 -43t-126 -118t-69 -173t-20.5 -209zM729 -150q8 19 35 39q27 18 49 19q31 0 61.5 -16.5t65.5 -38.5 q45 -29 109.5 -56.5t169.5 -29.5q0 -74 -36 -117t-89 -43q-49 0 -103.5 25.5t-104.5 62.5t-91 79t-66 76z" />
<glyph unicode="R" horiz-adv-x="1138" d="M162 0v1366q74 10 159 14t162 4q281 0 404 -95t123 -296q0 -86 -24.5 -153.5t-65.5 -117.5t-95.5 -82t-115.5 -46l374 -594q-20 -10 -46.5 -14t-49.5 -4q-94 0 -145 79l-320 500h-182v-561h-178zM340 713h145q76 0 137.5 14t106.5 47t69.5 84t24.5 125q0 76 -23.5 125 t-67.5 76.5t-106.5 38t-138.5 10.5q-47 0 -82.5 -2t-64.5 -6v-512z" />
<glyph unicode="S" horiz-adv-x="1015" d="M55 135q0 23 18.5 57.5t43.5 65.5q66 -53 157 -93t195 -40q80 0 133 20.5t85 53t46.5 74.5t14.5 87q0 59 -17.5 101.5t-51.5 73t-85 54t-117 44.5q-76 23 -145.5 50.5t-123.5 71.5t-87 107.5t-33 157.5q0 92 34 162.5t92 118t138 72t174 24.5q76 0 163 -19.5t149 -56.5 q33 -20 55 -44t22 -54q0 -25 -19 -53.5t-48 -57.5q-8 8 -19.5 17.5t-25.5 19.5q-41 33 -113 61.5t-164 28.5q-72 0 -120 -17.5t-77.5 -45t-43 -65.5t-13.5 -77q0 -51 20.5 -88t59.5 -64.5t94.5 -50t126.5 -45.5q70 -23 135.5 -54.5t114.5 -78.5t79 -112.5t30 -153.5 q0 -102 -34 -180t-95.5 -131t-146.5 -80t-187 -27q-113 0 -210 24.5t-153 65.5q-51 33 -51 76z" />
<glyph unicode="T" horiz-adv-x="1105" d="M16 1272q0 39 32 68.5t93 29.5h940q2 -10 3 -25.5t1 -21.5q0 -45 -30.5 -77t-93.5 -32h-324v-1214h-180v1214h-434q-6 27 -7 58z" />
<glyph unicode="U" horiz-adv-x="1304" d="M152 539v833q12 2 26.5 3t24.5 1q20 0 42.5 -5t41 -18.5t31 -39t12.5 -66.5v-727q0 -86 15 -157.5t51 -124t96.5 -81t152.5 -28.5q141 0 218 53.5t100 175.5q12 68 12 162v852q12 2 26.5 3t24.5 1q20 0 43 -5t41 -18.5t30.5 -39t12.5 -66.5v-702q0 -41 -1 -84t-5 -82 q-8 -86 -40 -161t-93.5 -130t-152.5 -87t-220 -32q-221 0 -332.5 98.5t-144.5 272.5q-8 43 -10 94t-2 105z" />
<glyph unicode="V" horiz-adv-x="1193" d="M18 1366q31 10 95 10q102 0 137 -114l344 -1084l362 1084q16 53 51 83.5t91 30.5q23 0 40 -3t38 -7l-492 -1376h-186z" />
<glyph unicode="W" horiz-adv-x="1798" d="M23 1364q14 4 38.5 8t51.5 4q55 0 85.5 -29.5t47.5 -82.5l329 -1063l252 846l-88 319q20 4 41 7t43 3q94 0 129 -114l299 -1053l314 1051q16 55 45.5 85.5t83.5 30.5q37 0 82 -10l-437 -1376h-178l-254 829l-252 -829h-178z" />
<glyph unicode="X" horiz-adv-x="1148" d="M53 0l416 690l-381 662q27 10 55.5 17t51.5 7q86 0 135 -90l250 -452l268 450q35 59 71.5 74.5t69.5 15.5q53 0 92 -22l-399 -660l420 -692q-47 -20 -96 -20q-55 0 -88 24.5t-64 73.5l-285 469l-321 -547h-195z" />
<glyph unicode="Y" horiz-adv-x="1073" d="M6 1356q18 10 47 16t60 6q49 0 77.5 -20.5t51.5 -63.5l297 -563l297 547q23 41 54.5 69.5t82.5 28.5q23 0 45 -4t49 -12l-440 -793v-567h-181v563z" />
<glyph unicode="Z" horiz-adv-x="1067" d="M31 0v131l757 1086h-698q-6 27 -6 57q0 39 30.5 67.5t94.5 28.5h733q35 0 54.5 -15.5t19.5 -54.5v-57l-770 -1089h655q63 0 94 -32t31 -77q0 -27 -6 -45h-989z" />
<glyph unicode="[" horiz-adv-x="550" d="M123 -274v1742h383v-145h-213v-1452h213v-145h-383z" />
<glyph unicode="\" horiz-adv-x="780" d="M25 1362q14 6 34.5 10t53.5 4q47 0 75.5 -25.5t40.5 -60.5l523 -1290h-177z" />
<glyph unicode="]" horiz-adv-x="550" d="M45 -129h213v1452h-213v145h383v-1742h-383v145z" />
<glyph unicode="^" horiz-adv-x="1193" d="M170 612l319 758h189l319 -758h-161l-252 635l-250 -635h-164z" />
<glyph unicode="_" horiz-adv-x="958" d="M78 -186h803v-129h-803v129z" />
<glyph unicode="`" horiz-adv-x="747" d="M162 1382q23 18 55.5 34t61.5 16q39 0 62.5 -20.5t45.5 -51.5l172 -225q-16 -12 -39.5 -22.5t-46.5 -10.5q-31 0 -56.5 15.5t-47.5 41.5z" />
<glyph unicode="a" horiz-adv-x="1032" d="M86 268q0 106 54.5 174t134 107t171 53t166.5 16h43t43 -2v31q0 92 -44 140.5t-169 48.5q-92 0 -155.5 -24t-122.5 -64h-21q-16 27 -27.5 57.5t-11.5 48.5q0 27 33 50.5t85 42t115.5 28.5t125.5 10q104 0 174 -22.5t113 -67.5t60 -112.5t17 -155.5v-404q0 -49 4.5 -76.5 t15.5 -41t30.5 -17.5t50.5 -4v-82q-18 -6 -45 -10t-56 -4q-63 0 -110 25.5t-55 90.5q-51 -51 -123 -86.5t-189 -35.5q-53 0 -107.5 12t-98.5 45t-72.5 88t-28.5 141zM260 279q0 -61 37 -108.5t137 -47.5q53 0 101.5 15.5t85 38t58 49t21.5 50.5v209h-59q-66 0 -133.5 -8 t-122.5 -30.5t-90 -63.5t-35 -104z" />
<glyph unicode="b" horiz-adv-x="1103" d="M152 0v1452q14 2 23 2h13q61 0 99.5 -30.5t38.5 -108.5v-434q41 41 108.5 72.5t171.5 31.5q80 0 150.5 -26.5t125 -85t86 -151.5t31.5 -228q0 -154 -37.5 -255.5t-98 -161t-134.5 -84t-143 -24.5q-59 0 -103.5 12.5t-77 30t-53 37t-30.5 33.5v-82h-170zM326 231 q12 -16 32.5 -35.5t50 -36t67.5 -28.5t81 -12q129 0 192.5 93t63.5 271q0 74 -13.5 139.5t-43 112.5t-79.5 75t-124 28q-100 0 -163.5 -43t-63.5 -103v-461z" />
<glyph unicode="c" horiz-adv-x="948" d="M98 479q0 152 49.5 250t121 154.5t152.5 79t142 22.5q74 0 132.5 -15.5t100.5 -39t64.5 -50t22.5 -51.5t-16.5 -55.5t-32.5 -52.5h-23q-35 41 -90 77t-150 36q-78 0 -133 -27t-91 -75t-52 -112.5t-16 -138.5q0 -76 16 -142.5t52 -115.5t93.5 -77.5t137.5 -28.5 q55 0 99 17.5t75 39.5q41 27 65 57q8 -8 19.5 -21t22.5 -28.5t18.5 -32t7.5 -30.5q0 -29 -43 -66q-39 -35 -112 -59.5t-177 -24.5q-66 0 -144.5 18.5t-147 74t-116 154.5t-47.5 263z" />
<glyph unicode="d" horiz-adv-x="1101" d="M104 467q0 135 34 233.5t90.5 161t131 93t154.5 30.5q92 0 156.5 -30.5t105.5 -69.5v567q14 2 23.5 2h13.5q61 0 99 -30.5t38 -108.5v-1315h-170v82q-16 -16 -40.5 -36.5t-58.5 -37t-77 -28t-94 -11.5q-80 0 -153.5 27t-130 85t-89.5 153.5t-33 232.5zM289 487 q0 -80 12 -147.5t43 -117.5t81 -77.5t124 -27.5q49 0 91 12t72.5 30.5t47 43t16.5 49.5v479h2q-12 12 -31.5 29.5t-49 35t-68.5 29t-88 11.5q-117 0 -184.5 -87t-67.5 -262z" />
<glyph unicode="e" horiz-adv-x="1019" d="M98 489q0 129 38 223.5t99.5 155t140.5 89t163 28.5q104 0 179 -35t122 -93t69.5 -135t22.5 -159q0 -29 -1 -58.5t-5 -55.5h-647q6 -150 78.5 -241t224.5 -91q57 0 102 12t78 29.5t54.5 38t35.5 36.5q23 -29 40 -61.5t17 -50.5q0 -16 -10 -33.5t-35 -36.5 q-47 -35 -120.5 -58.5t-178.5 -23.5q-96 0 -181 28t-148.5 89t-100.5 160.5t-37 242.5zM279 580h479q0 55 -11.5 102t-38 83t-70.5 56.5t-108 20.5q-106 0 -174.5 -70t-76.5 -192z" />
<glyph unicode="f" horiz-adv-x="690" d="M150 0v1069q0 199 92 299t266 100q63 0 116.5 -14t91.5 -34.5t58.5 -44t20.5 -44.5q0 -29 -16.5 -56.5t-35.5 -49.5h-26q-35 43 -85 68.5t-114 25.5q-92 0 -143 -50t-51 -173v-133h344v-150h-344v-813h-174z" />
<glyph unicode="g" horiz-adv-x="1101" d="M104 467q0 135 33 233.5t88.5 161t129 93t155.5 30.5q98 0 162.5 -29.5t107.5 -74.5q10 45 47 66.5t72 21.5h22.5t28.5 -4v-897q0 -125 -21.5 -222.5t-74.5 -165t-143 -103.5t-228 -36q-98 0 -168.5 18.5t-117.5 45.5q-37 23 -52.5 43t-15.5 43q0 27 23.5 59.5t42.5 52.5 q4 -6 26.5 -23.5t60 -38t89 -35.5t112.5 -15q98 0 156.5 27.5t90.5 77.5t41 119t9 153v14q-16 -16 -40.5 -36.5t-58.5 -37t-77 -28t-94 -11.5q-80 0 -153.5 27t-130 85t-89.5 153.5t-33 232.5zM289 487q0 -80 12 -147.5t43 -117.5t81 -77.5t124 -27.5q49 0 91 12t72.5 30.5 t47 43t16.5 49.5v479h2q-12 12 -31.5 29.5t-49 35t-68.5 29t-88 11.5q-117 0 -184.5 -87t-67.5 -262z" />
<glyph unicode="h" horiz-adv-x="1114" d="M152 0v1452q14 2 23 2h13q61 0 98.5 -30.5t37.5 -108.5v-451q53 59 135 90t174 31q143 0 219 -64.5t96 -150.5q10 -41 12.5 -91t2.5 -97v-582h-175v575q0 39 -1 75t-11 67q-14 53 -59 81.5t-133 28.5q-59 0 -106.5 -13t-81.5 -33.5t-52 -47t-18 -53.5v-680h-174z" />
<glyph unicode="i" horiz-adv-x="493" d="M119 1278q0 51 31.5 84t78.5 33t79 -33t32 -84q0 -47 -32 -79t-79 -32t-78.5 32t-31.5 79zM150 199v774q14 2 23 2h13q61 0 99.5 -31t38.5 -108v-652q0 -59 17 -83.5t81 -24.5v-74q-18 -6 -50 -10t-63 -4q-59 0 -91 18.5t-47 49t-18 68.5t-3 75z" />
<glyph unicode="j" horiz-adv-x="479" d="M-43 -324q123 4 165 59.5t42 166.5v1071q14 2 23.5 2h13.5q61 0 99 -31t38 -108v-932q0 -123 -32 -194.5t-76 -109.5t-91 -48.5t-80 -10.5q-35 0 -55 11.5t-30.5 30t-13.5 43t-3 50.5zM137 1278q0 51 32 84t79 33t78.5 -33t31.5 -84q0 -47 -31.5 -79t-78.5 -32t-79 32 t-32 79z" />
<glyph unicode="k" horiz-adv-x="1007" d="M152 0v1452q14 2 23 2h13q61 0 99.5 -30.5t38.5 -108.5v-1315h-174zM373 504v67l352 351q59 53 117 53q35 0 59.5 -12.5t44.5 -30.5l-393 -387l455 -543q-49 -18 -103 -18q-41 0 -81 17t-72 56z" />
<glyph unicode="l" horiz-adv-x="493" d="M150 199v1253q14 2 23 2h13q61 0 99.5 -30.5t38.5 -108.5v-1122q0 -31 2 -52.5t11 -36t28.5 -21.5t56.5 -7v-74q-18 -6 -50 -10t-63 -4q-59 0 -91 18.5t-47 49t-18 68.5t-3 75z" />
<glyph unicode="m" horiz-adv-x="1673" d="M152 0v967q16 2 25 2h13q53 0 87 -25.5t42 -79.5q47 49 124 85t182 36q37 0 75.5 -7t75.5 -22.5t67.5 -40t49.5 -57.5q47 51 128 89t185 38q135 0 208 -61.5t93 -153.5q10 -41 12.5 -91t2.5 -97v-582h-174v575q0 39 -1 75t-12 67q-14 53 -57 81.5t-135 28.5 q-68 0 -126.5 -28.5t-86.5 -63.5q4 -35 6 -72.5t2 -78.5v-584h-174v575q0 43 -4 81t-15 69q-35 102 -184 102q-45 0 -87 -12t-74.5 -32.5t-53 -46t-20.5 -50.5v-686h-174z" />
<glyph unicode="n" horiz-adv-x="1112" d="M152 0v967q14 2 22 2h12q47 0 85 -23.5t46 -81.5q47 47 128 84t192 37q139 0 213 -61.5t96 -153.5q10 -41 12.5 -91t2.5 -97v-582h-175v575q0 39 -1 75t-11 67q-16 53 -60 81.5t-132 28.5q-59 0 -106.5 -12t-80.5 -32.5t-51 -47t-18 -53.5v-682h-174z" />
<glyph unicode="o" horiz-adv-x="1097" d="M98 479q0 102 29 194.5t86 161t142 109.5t200 41q119 0 204 -41t138 -109.5t77.5 -159t24.5 -190.5t-24.5 -193t-78.5 -165t-140 -115t-209 -43q-121 0 -207 41t-139.5 109.5t-78 162t-24.5 197.5zM281 483q0 -63 11 -127.5t42 -118t82 -87t131 -33.5q82 0 135 33.5 t82 86t40 118t11 128.5t-11 126t-40 113t-80 81t-133 31q-78 0 -130 -31t-83 -81t-44 -112.5t-13 -126.5z" />
<glyph unicode="p" horiz-adv-x="1103" d="M152 -442v1409q16 2 25 2h13q49 0 85 -22.5t49 -76.5q39 47 108.5 81t173.5 34q80 0 150.5 -26.5t125 -85t86 -151.5t31.5 -228q0 -154 -37.5 -255.5t-98 -161t-134.5 -84t-143 -24.5q-111 0 -174.5 38t-85.5 69v-518h-174zM326 231q12 -16 32.5 -35.5t50 -36t67.5 -28.5 t81 -12q129 0 192.5 93t63.5 271q0 74 -13.5 139.5t-43 112.5t-79.5 75t-124 28q-98 0 -162.5 -41t-64.5 -99v-467z" />
<glyph unicode="q" horiz-adv-x="1101" d="M104 465q0 150 38 250t98.5 159.5t134.5 85t145 25.5q53 0 97.5 -12t76 -28.5t54 -35t32.5 -30.5q12 49 48 69.5t71 20.5q10 0 22.5 -1t28.5 -3v-1407h-174v520q-35 -35 -98.5 -72t-161.5 -37q-86 0 -160.5 28t-131 87t-88.5 153.5t-32 227.5zM289 479q0 -78 13 -143.5 t44 -114.5t83 -76.5t130 -27.5q47 0 87 13t68.5 32.5t45 42t16.5 41.5v487q-10 12 -29.5 29.5t-47 34t-64.5 28t-80 11.5q-137 0 -201.5 -88.5t-64.5 -268.5z" />
<glyph unicode="r" horiz-adv-x="712" d="M152 0v967q16 2 25 2h11q47 0 85 -23.5t46 -79.5q29 43 86.5 81t133.5 38q23 0 48 -4t47.5 -13.5t37 -25.5t14.5 -43q0 -33 -16.5 -70.5t-32.5 -62.5q-27 25 -57.5 38t-77.5 13q-35 0 -67 -11t-56.5 -30.5t-38.5 -44t-14 -51.5v-680h-174z" />
<glyph unicode="s" horiz-adv-x="858" d="M78 96q0 27 14 55.5t37 65.5q14 -12 40 -29.5t61.5 -35t78.5 -28.5t92 -11q37 0 72 7t62.5 23.5t45 45t17.5 71.5t-18.5 70.5t-49 46t-68.5 30t-77 19.5q-59 12 -113.5 31.5t-96.5 52.5t-67.5 81t-25.5 120q0 68 28.5 120t78 85.5t111.5 51t130 17.5q78 0 142.5 -16.5 t103.5 -38.5q41 -23 55 -42.5t14 -37.5q0 -23 -11 -52.5t-27 -58.5l-29 -2q-35 43 -101.5 75t-142.5 32q-27 0 -58.5 -5t-59 -18.5t-46 -38t-18.5 -61.5q0 -33 15.5 -55.5t43 -39t64.5 -27.5t80 -21q61 -14 118.5 -36t101.5 -55.5t69.5 -85t25.5 -127.5t-30.5 -132t-82 -94 t-120 -57.5t-142.5 -19.5q-72 0 -129 11.5t-96 27.5q-51 20 -71.5 42t-20.5 44z" />
<glyph unicode="t" horiz-adv-x="729" d="M147 299v958q14 2 23.5 2.5t13.5 0.5q61 0 99.5 -31t38.5 -109v-157h305v-148h-305v-528q0 -168 133 -168q33 0 61.5 11t52 26.5t38 30t18.5 20.5q25 -31 42 -59.5t17 -55.5q0 -18 -18.5 -39.5t-51 -40t-81 -31t-105.5 -12.5q-106 0 -169.5 41t-90.5 113q-14 39 -17.5 85 t-3.5 91z" />
<glyph unicode="u" horiz-adv-x="1099" d="M143 358v615q14 2 23.5 2h13.5q61 0 99 -31t38 -108v-478q0 -80 11.5 -127t46.5 -71q31 -23 66.5 -31t82.5 -8q55 0 101.5 15.5t79 38t51 48t18.5 45.5v705q14 2 23.5 2h13.5q61 0 99 -31t38 -108v-836h-174v90q-41 -47 -114.5 -84t-190.5 -37q-119 0 -184.5 37t-97 94.5 t-38 126t-6.5 131.5z" />
<glyph unicode="v" horiz-adv-x="968" d="M31 952q49 16 92 17q61 0 91 -38t52 -110l219 -651l224 643q25 76 54.5 116t92.5 40q25 0 46.5 -5.5t35.5 -13.5l-369 -958h-178z" />
<glyph unicode="w" horiz-adv-x="1421" d="M31 954q23 6 44 10.5t46 4.5q96 0 129 -107l211 -676l196 482l-104 288q39 12 82 13q92 0 127 -99l246 -686l168 650q14 55 42.5 95t88.5 40q39 0 84 -17l-293 -960h-174l-193 497l-211 -497h-155z" />
<glyph unicode="x" horiz-adv-x="894" d="M20 0l326 477l-313 481q18 4 48 10.5t52 6.5q55 0 84 -20.5t53 -59.5l183 -291l184 277q31 47 63.5 70.5t83.5 23.5q31 0 52.5 -5t37.5 -14l-327 -479l325 -475q-16 -8 -44.5 -12t-49.5 -4q-35 0 -72.5 14t-66.5 55l-199 291l-186 -285q-29 -45 -66.5 -60t-85.5 -15 q-18 0 -41.5 3t-40.5 11z" />
<glyph unicode="y" horiz-adv-x="954" d="M23 -367q0 29 15 60t32 53q16 -14 50 -33.5t85 -19.5q72 0 116 53t78 164l29 92h-70l-331 950q45 16 90 17q53 0 86 -33t49 -84l225 -698l225 680q6 23 16.5 46t28 43.5t42 33t59.5 12.5q41 0 76 -19l-373 -1083q-23 -66 -49.5 -125t-65.5 -103.5t-95 -71t-136 -26.5 q-78 0 -130 22.5t-52 69.5z" />
<glyph unicode="z" horiz-adv-x="876" d="M61 0v127l531 690h-522q0 76 31.5 114t103.5 38h520q86 0 86 -72v-49l-541 -696h424q70 0 102.5 -33t32.5 -119h-768z" />
<glyph unicode="{" horiz-adv-x="649" d="M74 530v148q78 0 110.5 57.5t32.5 157.5v231q0 74 18.5 137.5t57.5 109.5t98.5 71.5t143.5 25.5q33 0 55 -15t22 -54q0 -12 -2 -31.5t-8 -44.5q-43 0 -80 -5t-65.5 -22.5t-45 -48t-16.5 -82.5v-305q0 -92 -28.5 -156.5t-102.5 -99.5q78 -33 104.5 -111.5t26.5 -175.5 v-292q0 -51 17.5 -82t46 -48.5t65.5 -22.5t78 -5q6 -27 8 -46.5t2 -33.5q0 -41 -26.5 -53.5t-63.5 -12.5q-88 0 -146.5 28t-94 71t-50 96t-14.5 107v307q0 92 -35 146t-108 54z" />
<glyph unicode="|" horiz-adv-x="530" d="M176 -381v2005h160v-2005h-160z" />
<glyph unicode="}" horiz-adv-x="647" d="M23 -213q0 14 2 33.5t8 46.5q39 0 76.5 5t66.5 22.5t46.5 48t17.5 82.5v292q0 96 26.5 175t104.5 112q-74 35 -102.5 99.5t-28.5 156.5v305q0 51 -16.5 82t-45 48.5t-65.5 22.5t-80 5q-6 25 -8 44t-2 32q0 39 22.5 54t54.5 15q82 0 142.5 -25.5t99.5 -71.5t57.5 -109.5 t18.5 -137.5v-231q0 -100 32.5 -157.5t110.5 -57.5v-148q-74 0 -108.5 -54t-34.5 -146v-307q0 -53 -14.5 -106.5t-50.5 -96.5t-94 -71t-146 -28q-37 0 -63.5 12.5t-26.5 53.5z" />
<glyph unicode="~" horiz-adv-x="946" d="M29 1051q14 141 86.5 218t183.5 77q78 0 132 -31t101 -64l9 -6q27 -20 57.5 -37.5t60.5 -17.5q61 0 90 44t37 114h129q-4 -74 -26.5 -130.5t-56 -94.5t-76.5 -57t-88 -19q-59 0 -105.5 24.5t-87.5 52.5q-4 4 -7 5t-7 6q-4 2 -6 4t-6 4q-35 23 -69 41t-77 18 q-59 0 -98 -37t-49 -114h-127z" />
<glyph unicode="&#xa1;" horiz-adv-x="460" d="M137 852q0 53 33 87t84 34q53 0 86 -34t33 -87t-33 -89t-86 -36q-51 0 -84 36t-33 89zM170 -299v883h12q6 0 13.5 1t13.5 1q57 0 97 -29t40 -106v-883q-6 -2 -14 -2h-25q-57 0 -97 28.5t-40 106.5z" />
<glyph unicode="&#xa2;" d="M166 676q0 135 38 227t95 148.5t126 85t128 39.5v198h127v-196q59 -6 109.5 -22.5t86 -38t55 -46t19.5 -45.5q0 -20 -13 -45t-28 -49l-6 -12h-24q-31 35 -79 64.5t-120 39.5v-709q47 4 83 22.5t64 39.5q16 10 29.5 23.5t28.5 27.5q16 -16 39.5 -48t23.5 -58 q0 -37 -55 -74q-35 -23 -91.5 -46.5t-121.5 -31.5v-207h-127v205q-63 8 -132 33.5t-125 83t-93 151.5t-37 240zM346 678q0 -143 47 -234.5t160 -121.5v696q-111 -27 -159 -116t-48 -224z" />
<glyph unicode="&#xa3;" d="M123 586v145h143v254q0 104 34 178t92.5 120t133 66.5t158.5 20.5q68 0 131.5 -15.5t113.5 -40t80.5 -54t30.5 -60.5q0 -23 -17 -52.5t-44 -55.5h-21q-16 18 -40.5 39.5t-58.5 41t-77 32t-94 12.5q-49 0 -94 -11.5t-79 -39t-53.5 -76t-19.5 -121.5v-238h432v-145h-432 v-432h478q66 0 94 -31t28 -76q0 -10 -1 -18.5t-1 -14.5v-14h-772v586h-145z" />
<glyph unicode="&#xa4;" horiz-adv-x="1128" d="M94 328l115 116q-35 51 -56.5 118t-21.5 132q0 70 21.5 136.5t58.5 119.5h2l-117 111l105 102l110 -110q53 37 119 58.5t131 21.5q66 0 132.5 -24t119.5 -60l117 118l104 -104l-123 -117h2q35 -53 54.5 -118.5t19.5 -131.5t-19.5 -131t-56.5 -116l121 -121l-102 -101 l-117 115q-55 -37 -121.5 -58.5t-132.5 -21.5t-129 20.5t-117 55.5l-116 -111zM279 694q0 -131 73.5 -215t208.5 -84t207 84t72 215q0 135 -72 218t-207 83q-137 0 -209.5 -83t-72.5 -218z" />
<glyph unicode="&#xa5;" d="M72 1356q39 23 104 22q47 0 78 -22.5t49 -61.5l258 -553l260 539q18 41 50 68.5t81 27.5q27 0 48.5 -4t48.5 -12l-344 -670h237v-125h-293v-164h293v-125h-293v-276h-180v276h-285v125h285v164h-285v125h228z" />
<glyph unicode="&#xa6;" horiz-adv-x="530" d="M176 -381v832h160v-832h-160zM176 848v776h160v-776h-160z" />
<glyph unicode="&#xa7;" horiz-adv-x="1021" d="M131 598q0 51 16.5 94t41 76t52 56.5t50.5 37.5q-61 39 -97 94.5t-36 147.5q0 68 29.5 122t79.5 92t117 58.5t142 20.5q57 0 116.5 -12.5t108 -34t79 -51t30.5 -64.5q0 -33 -15.5 -58.5t-33.5 -48.5h-29q-41 47 -104.5 83t-149.5 36q-92 0 -146 -36.5t-54 -106.5 q0 -66 49 -103.5t137 -74.5l160 -70q104 -43 162.5 -106.5t58.5 -176.5q0 -47 -16.5 -89t-40 -76.5t-50 -61.5t-47.5 -43q41 -35 73 -82t32 -121q0 -78 -29 -135t-78 -97t-113.5 -59.5t-136.5 -19.5q-100 0 -175.5 20.5t-123.5 51.5q-49 33 -49 76q0 29 22.5 60.5t41.5 53.5 q123 -113 284 -112q78 0 134.5 38.5t56.5 110.5q0 35 -12.5 59.5t-37 45t-63.5 39t-92 40.5l-137 56q-117 47 -162 114.5t-45 155.5zM291 621q0 -53 30.5 -91t118.5 -75l187 -80q35 29 69.5 76t34.5 106q0 63 -47 104t-111 68l-167 68q-14 -8 -34 -23.5t-38.5 -38 t-30.5 -51.5t-12 -63z" />
<glyph unicode="&#xa8;" horiz-adv-x="784" d="M104 1245q0 47 30 79t75 32t74.5 -32t29.5 -79t-28.5 -77.5t-75.5 -30.5q-49 -1 -76 30q-29 33 -29 78zM471 1245q0 47 29.5 79t74.5 32t75 -32t30 -79t-28.5 -77.5t-76.5 -30.5q-48 -1 -75 30q-29 33 -29 78z" />
<glyph unicode="&#xa9;" horiz-adv-x="1624" d="M131 680q0 147 47 277t135 227.5t214 155t286 57.5t286 -57.5t213 -155t134 -227.5t47 -277t-47 -278.5t-135 -229.5t-214 -155.5t-286 -57.5t-287 57.5t-215 155.5q-86 98 -132 229t-46 279zM260 680q0 -184 80.5 -330.5t234.5 -224.5q104 -49 238 -49q133 0 236.5 50 t174 133t107.5 192.5t37 228.5t-37 227.5t-107.5 191.5t-174 132t-236.5 49t-235.5 -49t-173 -132t-107.5 -191.5t-37 -227.5zM422 690q0 133 42 221t105.5 140.5t137 74t137.5 21.5q70 0 125 -17.5t94 -41t58.5 -49t19.5 -40.5q0 -23 -15.5 -49t-33.5 -51h-17 q-41 53 -93 83t-138 30q-72 0 -122 -27t-81 -72t-45 -102t-14 -121q0 -61 13 -118.5t45 -102.5t82 -72.5t124 -27.5q53 0 97 15t73 36q16 10 31.5 23.5t29.5 27.5q14 -16 37 -42t23 -52q0 -20 -11.5 -33.5t-31.5 -30.5q-29 -23 -96.5 -50t-166.5 -27q-72 0 -144.5 20 t-130.5 72.5t-96 139.5t-38 222z" />
<glyph unicode="&#xaa;" horiz-adv-x="856" d="M94 854q0 82 41 134t102.5 81t131 40t129.5 11h51v19q0 59 -30 95t-116 36q-72 0 -121 -19.5t-92 -48.5h-20q-14 23 -23.5 44.5t-9.5 43.5q0 20 25.5 39t66.5 34t90.5 24.5t98.5 9.5q164 0 225.5 -74t61.5 -211v-319q0 -43 17 -57.5t71 -14.5v-64q-6 -4 -27 -12 q-35 -10 -76 -10q-47 0 -82 20.5t-47 55.5q-35 -33 -94 -57.5t-133 -24.5q-41 0 -83 9t-77 34.5t-57.5 69.5t-22.5 112zM250 858q0 -41 24.5 -75.5t92.5 -34.5q35 0 68.5 9t59 23.5t41 31.5t15.5 34v168h-31q-47 0 -95 -6.5t-87 -23.5t-63.5 -48t-24.5 -78z" />
<glyph unicode="&#xab;" horiz-adv-x="993" d="M113 563q0 35 21.5 67t49.5 58l265 248q18 -20 30.5 -47t12.5 -49q0 -49 -31 -86l-168 -191l162 -190q20 -25 27 -47.5t7 -44.5q0 -23 -10 -49.5t-24 -45.5l-277 252q-29 27 -47 57.5t-18 67.5zM502 563q0 35 21.5 67t49.5 58l265 248q18 -20 30.5 -47t12.5 -49 q0 -49 -31 -86l-168 -191l162 -190q20 -25 27 -47.5t7 -44.5q0 -23 -10 -49.5t-24 -45.5l-277 252q-29 27 -47 57.5t-18 67.5z" />
<glyph unicode="&#xac;" horiz-adv-x="1150" d="M133 700v164h893v-522h-162v358h-731z" />
<glyph unicode="&#xad;" horiz-adv-x="903" d="M143 580v21t2 22q0 14 2 20h515q18 0 37.5 -2t36 -12.5t27.5 -30.5t11 -57q0 -10 -1 -22.5t-1 -22.5q-2 -8 -2 -23h-522q-43 0 -74 23.5t-31 83.5z" />
<glyph unicode="&#xae;" horiz-adv-x="1624" d="M131 680q0 147 47 277t135 227.5t214 155t286 57.5t286 -57.5t213 -155t134 -227.5t47 -277t-47 -278.5t-135 -229.5t-214 -155.5t-286 -57.5t-287 57.5t-215 155.5q-86 98 -132 229t-46 279zM260 680q0 -184 80.5 -330.5t234.5 -224.5q104 -49 238 -49q133 0 236.5 50 t174 133t107.5 192.5t37 228.5t-37 227.5t-107.5 191.5t-174 132t-236.5 49t-235.5 -49t-173 -132t-107.5 -191.5t-37 -227.5zM559 258v858q57 6 124 9t108 3q180 0 258.5 -72.5t78.5 -183.5q0 -53 -16 -97t-43 -75.5t-62.5 -53t-72.5 -30.5h4l211 -350q-18 -10 -37.5 -14 t-36.5 -4q-31 0 -58.5 13t-47.5 48l-174 289h-107v-340h-129zM684 1001h4v-282h129q176 0 176 151q0 68 -46 103t-150 35q-37 0 -63.5 -1t-49.5 -6z" />
<glyph unicode="&#xaf;" horiz-adv-x="753" d="M66 1255q0 29 8 56h506q47 0 76.5 -16.5t29.5 -71.5q0 -16 -1 -28.5t-3 -23.5h-522q-49 0 -71.5 18.5t-22.5 65.5z" />
<glyph unicode="&#xb0;" horiz-adv-x="765" d="M109 1149q0 55 20.5 105.5t56 87t86 58t109.5 21.5q125 0 198.5 -76.5t73.5 -195.5q0 -57 -20.5 -107.5t-56 -87t-86 -58.5t-109.5 -22q-63 0 -113.5 21.5t-87.5 58.5q-72 76 -71 195zM231 1149q0 -66 42 -112t108 -46t111 46t45 112t-45.5 111t-110.5 45 q-66 0 -108 -45.5t-42 -110.5z" />
<glyph unicode="&#xb1;" d="M164 0v164h794v-164h-794zM164 608v164h313v328h168v-326h313v-164h-313v-329h-168v327h-313z" />
<glyph unicode="&#xb2;" horiz-adv-x="679" d="M78 1276q0 16 7 26.5t19 20.5q10 8 31 21.5t49.5 25.5t63.5 20.5t74 8.5q111 0 178 -53.5t67 -171.5q0 -82 -44 -155t-101 -138q-31 -35 -60.5 -66t-60.5 -59h209q16 0 32.5 -2t29 -10.5t20.5 -25t8 -44.5q0 -8 -1 -15.5t-1 -15.5v-16h-500v108q49 41 108.5 100.5 t106.5 114.5q49 57 81 109.5t32 109.5q0 53 -32 80t-89 27q-55 0 -95 -26.5t-63 -53.5h-22q-23 23 -35 41t-12 39z" />
<glyph unicode="&#xb3;" horiz-adv-x="679" d="M76 733q0 25 19.5 51.5t33.5 42.5q29 -33 76 -62.5t106 -29.5q25 0 48.5 5t44 17.5t33 36t12.5 60.5q0 39 -17.5 62.5t-40 34t-47.5 13.5t-37 3h-65v118h67q14 0 35 3.5t40 14.5t32.5 30.5t13.5 52.5q0 92 -113 92q-59 0 -99 -23.5t-66 -50.5h-27q-16 20 -28.5 39 t-12.5 35t15.5 33.5t39.5 34.5q31 23 78 38t113 15q129 0 186 -55.5t57 -143.5q0 -72 -30.5 -112.5t-63.5 -59.5q18 -10 38 -24.5t36 -35t27.5 -50t11.5 -68.5q0 -104 -68.5 -172t-206.5 -68q-59 0 -110 15.5t-80 36.5q-31 23 -41 38t-10 33z" />
<glyph unicode="&#xb4;" horiz-adv-x="747" d="M180 1135l172 225q23 31 46.5 51.5t62.5 20.5q29 0 61.5 -15.5t55.5 -34.5l-207 -223q-23 -27 -48.5 -42t-56.5 -15q-23 0 -46 10t-40 23z" />
<glyph unicode="&#xb5;" horiz-adv-x="1103" d="M152 -446v1419q14 2 23 2h13q61 0 99.5 -31t38.5 -108v-459q0 -123 47 -187.5t174 -64.5q47 0 90 13.5t74.5 34t51 44t19.5 41.5v715q14 2 23.5 2h13.5q61 0 99 -31t38 -108v-588q0 -49 5.5 -82t19.5 -52.5t41 -27.5t70 -8v-66q-27 -10 -56.5 -17t-60.5 -7 q-74 0 -119 33.5t-59 84.5q-41 -51 -105.5 -87.5t-156.5 -36.5q-70 0 -125.5 18t-92.5 63v-509h-165z" />
<glyph unicode="&#xb6;" horiz-adv-x="1173" d="M104 948q0 104 34 183t91.5 132.5t135 80t167.5 26.5h381q16 0 35 -2t34 -13.5t24.5 -33t9.5 -57.5v-1506h-152v1471h-178v-1471h-149v779h-33q-92 0 -167 32.5t-126 89t-79 131t-28 158.5z" />
<glyph unicode="&#xb7;" horiz-adv-x="512" d="M152 735q0 53 33.5 90t82.5 37q51 0 85 -36.5t34 -90.5q0 -53 -32.5 -90t-86.5 -37q-51 0 -84 37q-33 35 -32 90z" />
<glyph unicode="&#xb8;" horiz-adv-x="743" d="M233 -371q0 10 2.5 28.5t8.5 39.5q14 -6 27.5 -8t25.5 -2q74 0 74 51q0 25 -12.5 41t-28.5 33q-16 16 -28.5 33.5t-12.5 45.5q0 39 23.5 75t35.5 52h121q-29 -29 -44 -48t-15 -42q0 -20 10 -34.5t26 -28.5q18 -18 36 -43t18 -70t-17.5 -79.5t-45 -58.5t-62.5 -36t-70 -12 q-72 0 -72 63z" />
<glyph unicode="&#xb9;" horiz-adv-x="679" d="M66 1217q0 31 40 53l181 100q23 12 43 21.5t41 9.5q45 0 71 -21v-753h-143v594l-188 -97q-14 18 -29.5 47t-15.5 46z" />
<glyph unicode="&#xba;" horiz-adv-x="927" d="M113 1012q0 80 21.5 149.5t66.5 121.5t110.5 83t155.5 31q94 0 160.5 -30t108.5 -82t60.5 -120.5t18.5 -146.5t-19.5 -149.5t-61.5 -125t-109.5 -85t-163.5 -31.5q-94 0 -160.5 31.5t-107.5 84.5t-60.5 123t-19.5 146zM272 1016q0 -72 22 -134.5t77 -97.5q35 -20 92 -20 t94 21.5t58.5 57.5t29.5 82t8 93q0 45 -8 90t-29.5 80t-57.5 56.5t-93 21.5q-55 0 -92 -21.5t-59.5 -56.5t-32 -80t-9.5 -92z" />
<glyph unicode="&#xbb;" horiz-adv-x="993" d="M113 840q0 23 12 49t31 47l264 -248q29 -27 50.5 -58.5t21.5 -66.5q0 -37 -18.5 -67.5t-47.5 -57.5l-276 -252q-14 18 -24.5 45t-10.5 50t7 45t28 47l161 190l-168 191q-31 37 -30 86zM502 840q0 23 12 49t31 47l264 -248q29 -27 50.5 -58.5t21.5 -66.5 q0 -37 -18.5 -67.5t-47.5 -57.5l-276 -252q-14 18 -24.5 45t-10.5 50t7 45t28 47l161 190l-168 191q-31 37 -30 86z" />
<glyph unicode="&#xbc;" horiz-adv-x="1658" d="M68 1217q0 31 40 53l181 100q23 12 43 21.5t41 9.5q45 0 71 -21v-753h-143v594l-188 -97q-14 18 -29.5 47t-15.5 46zM344 0l731 1317q20 37 50 58.5t81 21.5q37 0 55 -8l15 -7l-764 -1382h-168zM1010 147v100l305 461q16 25 38.5 46.5t53.5 21.5q16 0 34.5 -5t33.5 -16 v-491h28q68 0 68 -68q0 -4 -1 -11t-3 -17l-4 -21h-88v-145h-140v145h-325zM1137 264h198v303z" />
<glyph unicode="&#xbd;" horiz-adv-x="1658" d="M46 1217q0 31 40 53l181 100q23 12 43 21.5t41 9.5q45 0 71 -21v-753h-143v594l-188 -97q-14 18 -29.5 47t-15.5 46zM289 0l731 1317q20 37 50 58.5t81 21.5q37 0 55 -8l15 -7l-764 -1382h-168zM1026 651q0 16 7 26.5t19 20.5q10 8 31 21.5t49.5 25.5t63.5 20.5t74 8.5 q111 0 178 -53.5t67 -171.5q0 -82 -44 -155t-101 -138q-31 -35 -60.5 -66t-60.5 -59h209q16 0 32.5 -2t29 -10.5t20.5 -25t8 -44.5q0 -8 -1 -15.5t-1 -15.5v-16h-500v108q49 41 108.5 100.5t106.5 114.5q49 57 81 109.5t32 109.5q0 53 -32 80t-89 27q-55 0 -95 -26.5 t-63 -53.5h-22q-23 23 -35 41t-12 39z" />
<glyph unicode="&#xbe;" horiz-adv-x="1658" d="M123 733q0 25 19.5 51.5t33.5 42.5q29 -33 76 -62.5t106 -29.5q25 0 48.5 5t44 17.5t33 36t12.5 60.5q0 39 -17.5 62.5t-40 34t-47.5 13.5t-37 3h-65v118h67q14 0 35 3.5t40 14.5t32.5 30.5t13.5 52.5q0 92 -113 92q-59 0 -99 -23.5t-66 -50.5h-27q-16 20 -28.5 39 t-12.5 35t15.5 33.5t39.5 34.5q31 23 78 38t113 15q129 0 186 -55.5t57 -143.5q0 -72 -30.5 -112.5t-63.5 -59.5q18 -10 38 -24.5t36 -35t27.5 -50t11.5 -68.5q0 -104 -68.5 -172t-206.5 -68q-59 0 -110 15.5t-80 36.5q-31 23 -41 38t-10 33zM416 0l731 1317q20 37 50 58.5 t81 21.5q37 0 55 -8l15 -7l-764 -1382h-168zM1002 147v100l305 461q16 25 38.5 46.5t53.5 21.5q16 0 34.5 -5t33.5 -16v-491h28q68 0 68 -68q0 -4 -1 -11t-3 -17l-4 -21h-88v-145h-140v145h-325zM1129 264h198v303z" />
<glyph unicode="&#xbf;" horiz-adv-x="784" d="M23 -96q0 61 16 111.5t43 93.5t59.5 78.5t65.5 66.5q72 61 125 121.5t53 126.5q0 16 -2 38.5t-6 43.5q8 2 19.5 2h21.5q55 0 84.5 -34t29.5 -93q0 -82 -50 -145.5t-115 -123.5q-61 -57 -111.5 -123.5t-50.5 -156.5q0 -57 19.5 -97t53 -66t76.5 -37t92 -11 q55 0 100.5 12.5t80.5 30.5t60.5 38.5t39.5 35.5h25q16 -23 33.5 -51.5t17.5 -55.5q0 -31 -35 -55q-14 -12 -43 -30.5t-72 -36t-100 -30t-127 -12.5q-82 0 -154.5 21.5t-128 65.5t-88 112t-32.5 160zM330 848q0 53 33.5 89t87.5 36q49 0 82.5 -36t33.5 -89t-33.5 -90 t-82.5 -37q-56 0 -89 37q-33 35 -32 90z" />
<glyph unicode="&#xc0;" horiz-adv-x="1280" d="M45 0l496 1358q14 6 42.5 12t57.5 6q39 0 70.5 -17.5t50.5 -66.5l473 -1292h-186l-138 369h-553l-133 -369h-180zM313 1678q18 31 52 55t69 24q29 0 54.5 -13t58.5 -40l211 -170q-14 -18 -42 -35.5t-57 -17.5q-23 0 -46 10t-52 27zM403 514h461l-229 653z" />
<glyph unicode="&#xc1;" horiz-adv-x="1280" d="M45 0l496 1358q14 6 42.5 12t57.5 6q39 0 70.5 -17.5t50.5 -66.5l473 -1292h-186l-138 369h-553l-133 -369h-180zM403 514h461l-229 653zM516 1534l211 170q33 27 58.5 40t54.5 13q35 0 68.5 -24.5t51.5 -54.5l-247 -160q-29 -16 -52.5 -26.5t-46.5 -10.5 q-25 0 -54.5 17.5t-43.5 35.5z" />
<glyph unicode="&#xc2;" horiz-adv-x="1280" d="M45 0l496 1358q14 6 42.5 12t57.5 6q39 0 70.5 -17.5t50.5 -66.5l473 -1292h-186l-138 369h-553l-133 -369h-180zM360 1510l175 200q49 59 102 60q51 0 98 -56l178 -211q-16 -10 -36.5 -18t-38.5 -8q-25 0 -46.5 11t-48.5 34l-110 96l-109 -98q-18 -18 -38.5 -30.5 t-49.5 -12.5q-18 0 -38.5 9t-37.5 24zM403 514h461l-229 653z" />
<glyph unicode="&#xc3;" horiz-adv-x="1280" d="M45 0l496 1358q14 6 42.5 12t57.5 6q39 0 70.5 -17.5t50.5 -66.5l473 -1292h-186l-138 369h-553l-133 -369h-180zM304 1573q0 20 14 39.5t37 36.5q35 29 75.5 44t79.5 15q37 0 67 -10t56 -23q29 -14 57.5 -24t63.5 -10q41 0 70.5 24.5t58.5 69.5q23 -14 47.5 -38 t24.5 -48q0 -27 -25 -57q-27 -33 -68.5 -56.5t-97.5 -23.5q-41 0 -75.5 11t-67.5 25q-29 12 -56.5 21.5t-58.5 9.5q-41 0 -76.5 -24.5t-68.5 -63.5l-39 37q-18 20 -18 45zM403 514h461l-229 653z" />
<glyph unicode="&#xc4;" horiz-adv-x="1280" d="M45 0l496 1358q14 6 42.5 12t57.5 6q39 0 70.5 -17.5t50.5 -66.5l473 -1292h-186l-138 369h-553l-133 -369h-180zM350 1606q0 47 30 78.5t75 31.5t74.5 -31.5t29.5 -78.5t-28.5 -78t-75.5 -31q-49 0 -76 31q-29 33 -29 78zM403 514h461l-229 653zM717 1606 q0 47 29.5 78.5t74.5 31.5t75 -31.5t30 -78.5t-28.5 -78t-76.5 -31t-75 31q-29 33 -29 78z" />
<glyph unicode="&#xc5;" horiz-adv-x="1280" d="M45 0l485 1331q-29 16 -49 39q-27 31 -42 71t-15 85q0 94 58.5 159.5t158.5 65.5t158.5 -61.5t58.5 -161.5q0 -94 -59 -158q-23 -29 -56 -43q4 -8 9.5 -16t9.5 -19l473 -1292h-186l-138 369h-553l-133 -369h-180zM403 514h461l-229 653zM532 1528q0 -49 28 -86t81 -37 t82 36t29 85q0 47 -23.5 87t-89.5 40q-55 0 -81 -39t-26 -86z" />
<glyph unicode="&#xc6;" horiz-adv-x="1800" d="M35 0l694 1198q41 72 83 122t112 50h784q4 -12 4 -21.5v-21.5q0 -47 -26.5 -78.5t-98.5 -31.5h-491v-422h465v-158h-465v-483h520q68 0 97.5 -32t29.5 -79q0 -8 -1 -15.5t-1 -13.5v-14h-823v365h-480l-205 -365h-198zM514 514h404v700z" />
<glyph unicode="&#xc7;" horiz-adv-x="1220" d="M125 680q0 154 36 286t110.5 227t188 149.5t271.5 54.5q80 0 153.5 -18.5t130 -47t90.5 -63.5t34 -66q0 -27 -17.5 -56.5t-36.5 -51.5h-36q-23 25 -52.5 51t-68.5 46.5t-87 34t-110 13.5q-123 0 -204 -48t-129 -127t-68.5 -178.5t-20.5 -203.5q0 -106 21.5 -206.5 t73 -179.5t135.5 -126t209 -47q68 0 123 19.5t96 46t66.5 51t35.5 36.5q23 -18 48.5 -52t25.5 -58q0 -33 -29 -62q-16 -16 -71.5 -54t-159.5 -62q-59 -16 -131 -19q-14 -16 -15 -41q0 -20 10.5 -34.5t26.5 -28.5q18 -18 35.5 -43t17.5 -70t-17 -79.5t-45 -58.5t-62.5 -36 t-69.5 -12q-72 0 -72 63q0 10 2 28.5t8 39.5q14 -6 27.5 -8t26.5 -2q74 0 73 51q0 25 -12 41t-29 33q-16 16 -28.5 33.5t-12.5 45.5q0 37 23 76l4 6q-102 8 -186 50q-172 80 -252 251.5t-80 405.5z" />
<glyph unicode="&#xc8;" horiz-adv-x="1042" d="M160 0v1370h790q2 -8 3 -17.5t1 -25.5q0 -47 -26.5 -78.5t-98.5 -31.5h-491v-422h465v-158h-465v-483h520q66 0 96.5 -32t30.5 -79v-17.5t-2 -25.5h-823zM227 1678q18 31 52 55t69 24q29 0 54.5 -13t58.5 -40l211 -170q-14 -18 -42 -35.5t-57 -17.5q-23 0 -46 10t-52 27z " />
<glyph unicode="&#xc9;" horiz-adv-x="1042" d="M160 0v1370h790q2 -8 3 -17.5t1 -25.5q0 -47 -26.5 -78.5t-98.5 -31.5h-491v-422h465v-158h-465v-483h520q66 0 96.5 -32t30.5 -79v-17.5t-2 -25.5h-823zM404 1534l211 170q33 27 58.5 40t54.5 13q35 0 68.5 -24.5t51.5 -54.5l-247 -160q-29 -16 -52.5 -26.5t-46.5 -10.5 q-25 0 -54.5 17.5t-43.5 35.5z" />
<glyph unicode="&#xca;" horiz-adv-x="1042" d="M160 0v1370h790q2 -8 3 -17.5t1 -25.5q0 -47 -26.5 -78.5t-98.5 -31.5h-491v-422h465v-158h-465v-483h520q66 0 96.5 -32t30.5 -79v-17.5t-2 -25.5h-823zM282 1510l175 200q49 59 102 60q51 0 98 -56l178 -211q-16 -10 -36.5 -18t-38.5 -8q-25 0 -46.5 11t-48.5 34 l-110 96l-109 -98q-18 -18 -38.5 -30.5t-49.5 -12.5q-18 0 -38.5 9t-37.5 24z" />
<glyph unicode="&#xcb;" horiz-adv-x="1042" d="M160 0v1370h790q2 -8 3 -17.5t1 -25.5q0 -47 -26.5 -78.5t-98.5 -31.5h-491v-422h465v-158h-465v-483h520q66 0 96.5 -32t30.5 -79v-17.5t-2 -25.5h-823zM268 1663q0 47 30 79t75 32t74.5 -32t29.5 -79t-28.5 -77.5t-75.5 -30.5q-49 -1 -76 30q-29 33 -29 78zM635 1663 q0 47 29.5 79t74.5 32t75 -32t30 -79t-28.5 -77.5t-76.5 -30.5q-48 -1 -75 30q-29 33 -29 78z" />
<glyph unicode="&#xcc;" horiz-adv-x="491" d="M-92 1678q18 31 52 55t69 24q29 0 54.5 -13t58.5 -40l211 -170q-14 -18 -42 -35.5t-57 -17.5q-23 0 -46 10t-52 27zM156 0v1372q12 2 26.5 3t24.5 1q20 0 41.5 -4t41 -18.5t32 -39t14.5 -67.5v-1247h-180z" />
<glyph unicode="&#xcd;" horiz-adv-x="491" d="M102 1534l211 170q33 27 58.5 40t54.5 13q35 0 68.5 -24.5t51.5 -54.5l-247 -160q-29 -16 -52.5 -26.5t-46.5 -10.5q-25 0 -54.5 17.5t-43.5 35.5zM156 0v1372q12 2 26.5 3t24.5 1q20 0 41.5 -4t41 -18.5t32 -39t14.5 -67.5v-1247h-180z" />
<glyph unicode="&#xce;" horiz-adv-x="491" d="M-37 1510l175 200q49 59 102 60q51 0 98 -56l178 -211q-16 -10 -36.5 -18t-38.5 -8q-25 0 -46.5 11t-48.5 34l-110 96l-109 -98q-18 -18 -38.5 -30.5t-49.5 -12.5q-18 0 -38.5 9t-37.5 24zM156 0v1372q12 2 26.5 3t24.5 1q20 0 41.5 -4t41 -18.5t32 -39t14.5 -67.5v-1247 h-180z" />
<glyph unicode="&#xcf;" horiz-adv-x="491" d="M-37 1606q0 47 30 78.5t75 31.5t74.5 -31.5t29.5 -78.5t-28.5 -78t-75.5 -31q-49 0 -76 31q-29 33 -29 78zM156 0v1372q12 2 26.5 3t24.5 1q20 0 41.5 -4t41 -18.5t32 -39t14.5 -67.5v-1247h-180zM330 1606q0 47 29.5 78.5t74.5 31.5t75 -31.5t30 -78.5t-28.5 -78 t-76.5 -31t-75 31q-29 33 -29 78z" />
<glyph unicode="&#xd0;" horiz-adv-x="1306" d="M35 647v137h135v580q111 12 193.5 16t154.5 4q197 0 328 -53t210 -145t111.5 -215t32.5 -262q0 -145 -35 -273.5t-109.5 -225.5t-191 -153.5t-278.5 -56.5h-416v647h-135zM350 152h162q29 0 57 2q143 4 231.5 56t135.5 130t63.5 173t16.5 185q0 115 -23.5 212.5t-80 168 t-151.5 109.5t-239 39q-41 0 -86 -2t-86 -8v-433h406v-137h-406v-495z" />
<glyph unicode="&#xd1;" horiz-adv-x="1351" d="M162 0v1366q12 4 34.5 7t45.5 3q45 0 70.5 -15t47.5 -52l664 -1037v1100q12 2 25.5 3t23.5 1q18 0 39 -5t38 -18.5t28.5 -39t11.5 -66.5v-1247h-166l-696 1063v-1063h-166zM359 1573q0 20 14 39.5t37 36.5q35 29 75.5 44t79.5 15q37 0 67 -10t56 -23q29 -14 57.5 -24 t63.5 -10q41 0 70.5 24.5t58.5 69.5q23 -14 47.5 -38t24.5 -48q0 -27 -25 -57q-27 -33 -68.5 -56.5t-97.5 -23.5q-41 0 -75.5 11t-67.5 25q-29 12 -56.5 21.5t-58.5 9.5q-41 0 -76.5 -24.5t-68.5 -63.5l-39 37q-18 20 -18 45z" />
<glyph unicode="&#xd2;" horiz-adv-x="1431" d="M125 690q0 141 35 269t108.5 225.5t187 155t271.5 57.5q154 0 263.5 -55.5t180 -150.5t103.5 -224.5t33 -274.5q0 -147 -34 -278t-105.5 -229.5t-185.5 -157t-273 -58.5q-160 0 -271.5 60.5t-181.5 160t-100.5 229.5t-30.5 271zM313 690q0 -111 20.5 -212t68 -179 t124 -125t191.5 -47q113 0 190.5 47t124.5 125t67.5 179t20.5 212q0 113 -20.5 212t-66.5 174t-122.5 119t-187.5 44q-117 0 -194.5 -44t-126 -119t-69 -174t-20.5 -212zM428 1678q18 31 52 55t69 24q29 0 54.5 -13t58.5 -40l211 -170q-14 -18 -42 -35.5t-57 -17.5 q-23 0 -46 10t-52 27z" />
<glyph unicode="&#xd3;" horiz-adv-x="1431" d="M125 690q0 141 35 269t108.5 225.5t187 155t271.5 57.5q154 0 263.5 -55.5t180 -150.5t103.5 -224.5t33 -274.5q0 -147 -34 -278t-105.5 -229.5t-185.5 -157t-273 -58.5q-160 0 -271.5 60.5t-181.5 160t-100.5 229.5t-30.5 271zM313 690q0 -111 20.5 -212t68 -179 t124 -125t191.5 -47q113 0 190.5 47t124.5 125t67.5 179t20.5 212q0 113 -20.5 212t-66.5 174t-122.5 119t-187.5 44q-117 0 -194.5 -44t-126 -119t-69 -174t-20.5 -212zM619 1534l211 170q33 27 58.5 40t54.5 13q35 0 68.5 -24.5t51.5 -54.5l-247 -160q-29 -16 -52.5 -26.5 t-46.5 -10.5q-25 0 -54.5 17.5t-43.5 35.5z" />
<glyph unicode="&#xd4;" horiz-adv-x="1431" d="M125 690q0 141 35 269t108.5 225.5t187 155t271.5 57.5q154 0 263.5 -55.5t180 -150.5t103.5 -224.5t33 -274.5q0 -147 -34 -278t-105.5 -229.5t-185.5 -157t-273 -58.5q-160 0 -271.5 60.5t-181.5 160t-100.5 229.5t-30.5 271zM313 690q0 -111 20.5 -212t68 -179 t124 -125t191.5 -47q113 0 190.5 47t124.5 125t67.5 179t20.5 212q0 113 -20.5 212t-66.5 174t-122.5 119t-187.5 44q-117 0 -194.5 -44t-126 -119t-69 -174t-20.5 -212zM458 1510l175 200q49 59 102 60q51 0 98 -56l178 -211q-16 -10 -36.5 -18t-38.5 -8q-25 0 -46.5 11 t-48.5 34l-110 96l-109 -98q-18 -18 -38.5 -30.5t-49.5 -12.5q-18 0 -38.5 9t-37.5 24z" />
<glyph unicode="&#xd5;" horiz-adv-x="1431" d="M125 690q0 141 35 269t108.5 225.5t187 155t271.5 57.5q154 0 263.5 -55.5t180 -150.5t103.5 -224.5t33 -274.5q0 -147 -34 -278t-105.5 -229.5t-185.5 -157t-273 -58.5q-160 0 -271.5 60.5t-181.5 160t-100.5 229.5t-30.5 271zM313 690q0 -111 20.5 -212t68 -179 t124 -125t191.5 -47q113 0 190.5 47t124.5 125t67.5 179t20.5 212q0 113 -20.5 212t-66.5 174t-122.5 119t-187.5 44q-117 0 -194.5 -44t-126 -119t-69 -174t-20.5 -212zM416 1573q0 20 14 39.5t37 36.5q35 29 75.5 44t79.5 15q37 0 67 -10t56 -23q29 -14 57.5 -24t63.5 -10 q41 0 70.5 24.5t58.5 69.5q23 -14 47.5 -38t24.5 -48q0 -27 -25 -57q-27 -33 -68.5 -56.5t-97.5 -23.5q-41 0 -75.5 11t-67.5 25q-29 12 -56.5 21.5t-58.5 9.5q-41 0 -76.5 -24.5t-68.5 -63.5l-39 37q-18 20 -18 45z" />
<glyph unicode="&#xd6;" horiz-adv-x="1431" d="M125 690q0 141 35 269t108.5 225.5t187 155t271.5 57.5q154 0 263.5 -55.5t180 -150.5t103.5 -224.5t33 -274.5q0 -147 -34 -278t-105.5 -229.5t-185.5 -157t-273 -58.5q-160 0 -271.5 60.5t-181.5 160t-100.5 229.5t-30.5 271zM313 690q0 -111 20.5 -212t68 -179 t124 -125t191.5 -47q113 0 190.5 47t124.5 125t67.5 179t20.5 212q0 113 -20.5 212t-66.5 174t-122.5 119t-187.5 44q-117 0 -194.5 -44t-126 -119t-69 -174t-20.5 -212zM438 1606q0 47 30 78.5t75 31.5t74.5 -31.5t29.5 -78.5t-28.5 -78t-75.5 -31q-49 0 -76 31 q-29 33 -29 78zM805 1606q0 47 29.5 78.5t74.5 31.5t75 -31.5t30 -78.5t-28.5 -78t-76.5 -31t-75 31q-29 33 -29 78z" />
<glyph unicode="&#xd7;" d="M174 965l119 118l272 -274l269 272l114 -116l-270 -273l272 -268l-116 -119l-271 273l-270 -271l-115 117l271 268z" />
<glyph unicode="&#xd8;" horiz-adv-x="1431" d="M125 690q0 141 35 269t108.5 225.5t187 155t271.5 57.5q80 0 147.5 -16.5t124.5 -45.5l88 156l140 -70l-101 -182q92 -98 136.5 -239.5t44.5 -307.5q0 -147 -34 -278t-105.5 -229.5t-185.5 -157t-273 -58.5q-74 0 -136.5 13.5t-115.5 35.5l-117 -194l-137 67l123 218 q-106 104 -153.5 255.5t-47.5 325.5zM313 690q0 -123 23.5 -229.5t79.5 -186.5l502 912q-84 47 -195 47q-117 0 -194.5 -43t-126 -118t-69 -173t-20.5 -209zM537 166q39 -18 83 -28.5t97 -10.5q113 0 190.5 46t124.5 125t67.5 180.5t20.5 211.5q0 111 -19.5 208t-66.5 171z " />
<glyph unicode="&#xd9;" horiz-adv-x="1304" d="M152 539v833q12 2 26.5 3t24.5 1q20 0 42.5 -5t41 -18.5t31 -39t12.5 -66.5v-727q0 -86 15 -157.5t51 -124t96.5 -81t152.5 -28.5q141 0 218 53.5t100 175.5q12 68 12 162v852q12 2 26.5 3t24.5 1q20 0 43 -5t41 -18.5t30.5 -39t12.5 -66.5v-702q0 -41 -1 -84t-5 -82 q-8 -86 -40 -161t-93.5 -130t-152.5 -87t-220 -32q-221 0 -332.5 98.5t-144.5 272.5q-8 43 -10 94t-2 105zM321 1678q18 31 52 55t69 24q29 0 54.5 -13t58.5 -40l211 -170q-14 -18 -42 -35.5t-57 -17.5q-23 0 -46 10t-52 27z" />
<glyph unicode="&#xda;" horiz-adv-x="1304" d="M152 539v833q12 2 26.5 3t24.5 1q20 0 42.5 -5t41 -18.5t31 -39t12.5 -66.5v-727q0 -86 15 -157.5t51 -124t96.5 -81t152.5 -28.5q141 0 218 53.5t100 175.5q12 68 12 162v852q12 2 26.5 3t24.5 1q20 0 43 -5t41 -18.5t30.5 -39t12.5 -66.5v-702q0 -41 -1 -84t-5 -82 q-8 -86 -40 -161t-93.5 -130t-152.5 -87t-220 -32q-221 0 -332.5 98.5t-144.5 272.5q-8 43 -10 94t-2 105zM522 1534l211 170q33 27 58.5 40t54.5 13q35 0 68.5 -24.5t51.5 -54.5l-247 -160q-29 -16 -52.5 -26.5t-46.5 -10.5q-25 0 -54.5 17.5t-43.5 35.5z" />
<glyph unicode="&#xdb;" horiz-adv-x="1304" d="M152 539v833q12 2 26.5 3t24.5 1q20 0 42.5 -5t41 -18.5t31 -39t12.5 -66.5v-727q0 -86 15 -157.5t51 -124t96.5 -81t152.5 -28.5q141 0 218 53.5t100 175.5q12 68 12 162v852q12 2 26.5 3t24.5 1q20 0 43 -5t41 -18.5t30.5 -39t12.5 -66.5v-702q0 -41 -1 -84t-5 -82 q-8 -86 -40 -161t-93.5 -130t-152.5 -87t-220 -32q-221 0 -332.5 98.5t-144.5 272.5q-8 43 -10 94t-2 105zM385 1510l175 200q49 59 102 60q51 0 98 -56l178 -211q-16 -10 -36.5 -18t-38.5 -8q-25 0 -46.5 11t-48.5 34l-110 96l-109 -98q-18 -18 -38.5 -30.5t-49.5 -12.5 q-18 0 -38.5 9t-37.5 24z" />
<glyph unicode="&#xdc;" horiz-adv-x="1304" d="M152 539v833q12 2 26.5 3t24.5 1q20 0 42.5 -5t41 -18.5t31 -39t12.5 -66.5v-727q0 -86 15 -157.5t51 -124t96.5 -81t152.5 -28.5q141 0 218 53.5t100 175.5q12 68 12 162v852q12 2 26.5 3t24.5 1q20 0 43 -5t41 -18.5t30.5 -39t12.5 -66.5v-702q0 -41 -1 -84t-5 -82 q-8 -86 -40 -161t-93.5 -130t-152.5 -87t-220 -32q-221 0 -332.5 98.5t-144.5 272.5q-8 43 -10 94t-2 105zM368 1606q0 47 30 78.5t75 31.5t74.5 -31.5t29.5 -78.5t-28.5 -78t-75.5 -31q-49 0 -76 31q-29 33 -29 78zM735 1606q0 47 29.5 78.5t74.5 31.5t75 -31.5t30 -78.5 t-28.5 -78t-76.5 -31t-75 31q-29 33 -29 78z" />
<glyph unicode="&#xdd;" horiz-adv-x="1073" d="M6 1356q18 10 47 16t60 6q49 0 77.5 -20.5t51.5 -63.5l297 -563l297 547q23 41 54.5 69.5t82.5 28.5q23 0 45 -4t49 -12l-440 -793v-567h-181v563zM410 1534l211 170q33 27 58.5 40t54.5 13q35 0 68.5 -24.5t51.5 -54.5l-247 -160q-29 -16 -52.5 -26.5t-46.5 -10.5 q-25 0 -54.5 17.5t-43.5 35.5z" />
<glyph unicode="&#xde;" horiz-adv-x="1120" d="M160 0v1372q10 0 16 2q8 0 16.5 1t18.5 1q18 0 39.5 -5t41 -18.5t33 -39t13.5 -66.5v-106q41 4 73.5 5t71.5 1q283 0 413 -100.5t130 -298.5q0 -133 -44 -221.5t-120 -141.5t-174 -75.5t-205 -22.5h-145v-287h-178zM332 987h4v-549h82q100 0 179 12.5t133 44t83 90 t29 150.5q0 76 -27 127t-73 80t-109.5 41t-134.5 12q-53 0 -92 -2t-74 -6z" />
<glyph unicode="&#xdf;" horiz-adv-x="1165" d="M152 0v1057q0 35 3 71.5t7 63.5q14 68 50 120t88 87t117.5 52t139.5 17q84 0 157.5 -20.5t128 -59t85 -96t30.5 -131.5q0 -47 -13 -85t-34.5 -70.5t-47 -61.5t-52.5 -55q-41 -41 -71.5 -79t-30.5 -81q0 -29 9 -51.5t27.5 -41t48 -35.5t70.5 -38q43 -23 83 -47t71 -56 t49 -77t18 -107q0 -131 -87 -218t-263 -87q-80 0 -144.5 16.5t-98.5 32.5q-78 41 -78 84q0 27 17.5 54.5t43.5 62.5q14 -12 38 -30.5t56.5 -35t73.5 -28.5t90 -12q78 0 131.5 31.5t53.5 113.5q0 68 -43.5 102.5t-110.5 65.5q-41 18 -82 41t-75 53.5t-55.5 70.5t-21.5 95 q0 43 12.5 79t32 65.5t44 55t49.5 50.5q43 43 77.5 89t34.5 112q0 86 -56 132t-167 46q-123 0 -177 -61.5t-54 -184.5v-1071h-174z" />
<glyph unicode="&#xe0;" horiz-adv-x="1032" d="M86 268q0 106 54.5 174t134 107t171 53t166.5 16h43t43 -2v31q0 92 -44 140.5t-169 48.5q-92 0 -155.5 -24t-122.5 -64h-21q-16 27 -27.5 57.5t-11.5 48.5q0 27 33 50.5t85 42t115.5 28.5t125.5 10q104 0 174 -22.5t113 -67.5t60 -112.5t17 -155.5v-404q0 -49 4.5 -76.5 t15.5 -41t30.5 -17.5t50.5 -4v-82q-18 -6 -45 -10t-56 -4q-63 0 -110 25.5t-55 90.5q-51 -51 -123 -86.5t-189 -35.5q-53 0 -107.5 12t-98.5 45t-72.5 88t-28.5 141zM213 1382q23 18 55.5 34t61.5 16q39 0 62.5 -20.5t45.5 -51.5l172 -225q-16 -12 -39.5 -22.5t-46.5 -10.5 q-31 0 -56.5 15.5t-47.5 41.5zM260 279q0 -61 37 -108.5t137 -47.5q53 0 101.5 15.5t85 38t58 49t21.5 50.5v209h-59q-66 0 -133.5 -8t-122.5 -30.5t-90 -63.5t-35 -104z" />
<glyph unicode="&#xe1;" horiz-adv-x="1032" d="M86 268q0 106 54.5 174t134 107t171 53t166.5 16h43t43 -2v31q0 92 -44 140.5t-169 48.5q-92 0 -155.5 -24t-122.5 -64h-21q-16 27 -27.5 57.5t-11.5 48.5q0 27 33 50.5t85 42t115.5 28.5t125.5 10q104 0 174 -22.5t113 -67.5t60 -112.5t17 -155.5v-404q0 -49 4.5 -76.5 t15.5 -41t30.5 -17.5t50.5 -4v-82q-18 -6 -45 -10t-56 -4q-63 0 -110 25.5t-55 90.5q-51 -51 -123 -86.5t-189 -35.5q-53 0 -107.5 12t-98.5 45t-72.5 88t-28.5 141zM260 279q0 -61 37 -108.5t137 -47.5q53 0 101.5 15.5t85 38t58 49t21.5 50.5v209h-59q-66 0 -133.5 -8 t-122.5 -30.5t-90 -63.5t-35 -104zM389 1135l172 225q23 31 46.5 51.5t62.5 20.5q29 0 61.5 -15.5t55.5 -34.5l-207 -223q-23 -27 -48.5 -42t-56.5 -15q-23 0 -46 10t-40 23z" />
<glyph unicode="&#xe2;" horiz-adv-x="1032" d="M86 268q0 106 54.5 174t134 107t171 53t166.5 16h43t43 -2v31q0 92 -44 140.5t-169 48.5q-92 0 -155.5 -24t-122.5 -64h-21q-16 27 -27.5 57.5t-11.5 48.5q0 27 33 50.5t85 42t115.5 28.5t125.5 10q104 0 174 -22.5t113 -67.5t60 -112.5t17 -155.5v-404q0 -49 4.5 -76.5 t15.5 -41t30.5 -17.5t50.5 -4v-82q-18 -6 -45 -10t-56 -4q-63 0 -110 25.5t-55 90.5q-51 -51 -123 -86.5t-189 -35.5q-53 0 -107.5 12t-98.5 45t-72.5 88t-28.5 141zM215 1126l181 238q20 27 44.5 42t57.5 15t54.5 -13t43.5 -42l189 -246q-16 -10 -34.5 -17t-41.5 -7 q-49 0 -92 45l-121 131l-121 -135q-35 -41 -86 -41q-18 0 -37.5 7t-36.5 23zM260 279q0 -61 37 -108.5t137 -47.5q53 0 101.5 15.5t85 38t58 49t21.5 50.5v209h-59q-66 0 -133.5 -8t-122.5 -30.5t-90 -63.5t-35 -104z" />
<glyph unicode="&#xe3;" horiz-adv-x="1032" d="M86 268q0 106 54.5 174t134 107t171 53t166.5 16h43t43 -2v31q0 92 -44 140.5t-169 48.5q-92 0 -155.5 -24t-122.5 -64h-21q-16 27 -27.5 57.5t-11.5 48.5q0 27 33 50.5t85 42t115.5 28.5t125.5 10q104 0 174 -22.5t113 -67.5t60 -112.5t17 -155.5v-404q0 -49 4.5 -76.5 t15.5 -41t30.5 -17.5t50.5 -4v-82q-18 -6 -45 -10t-56 -4q-63 0 -110 25.5t-55 90.5q-51 -51 -123 -86.5t-189 -35.5q-53 0 -107.5 12t-98.5 45t-72.5 88t-28.5 141zM181 1194q0 20 14 39.5t37 36.5q35 29 75.5 44t79.5 15q37 0 67 -10t56 -23q29 -14 57.5 -24t63.5 -10 q41 0 70.5 24.5t58.5 69.5q23 -14 47.5 -38t24.5 -48q0 -27 -25 -58q-27 -33 -68.5 -56t-97.5 -23q-41 0 -75.5 11t-67.5 25q-29 12 -56.5 21.5t-58.5 9.5q-41 0 -76.5 -24.5t-68.5 -63.5l-39 37q-18 20 -18 45zM260 279q0 -61 37 -108.5t137 -47.5q53 0 101.5 15.5t85 38 t58 49t21.5 50.5v209h-59q-66 0 -133.5 -8t-122.5 -30.5t-90 -63.5t-35 -104z" />
<glyph unicode="&#xe4;" horiz-adv-x="1032" d="M86 268q0 106 54.5 174t134 107t171 53t166.5 16h43t43 -2v31q0 92 -44 140.5t-169 48.5q-92 0 -155.5 -24t-122.5 -64h-21q-16 27 -27.5 57.5t-11.5 48.5q0 27 33 50.5t85 42t115.5 28.5t125.5 10q104 0 174 -22.5t113 -67.5t60 -112.5t17 -155.5v-404q0 -49 4.5 -76.5 t15.5 -41t30.5 -17.5t50.5 -4v-82q-18 -6 -45 -10t-56 -4q-63 0 -110 25.5t-55 90.5q-51 -51 -123 -86.5t-189 -35.5q-53 0 -107.5 12t-98.5 45t-72.5 88t-28.5 141zM223 1245q0 47 30 79t75 32t74.5 -32t29.5 -79t-28.5 -77.5t-75.5 -30.5q-49 -1 -76 30q-29 33 -29 78z M260 279q0 -61 37 -108.5t137 -47.5q53 0 101.5 15.5t85 38t58 49t21.5 50.5v209h-59q-66 0 -133.5 -8t-122.5 -30.5t-90 -63.5t-35 -104zM590 1245q0 47 29.5 79t74.5 32t75 -32t30 -79t-28.5 -77.5t-76.5 -30.5q-48 -1 -75 30q-29 33 -29 78z" />
<glyph unicode="&#xe5;" horiz-adv-x="1032" d="M86 268q0 106 54.5 174t134 107t171 53t166.5 16h43t43 -2v31q0 92 -44 140.5t-169 48.5q-92 0 -155.5 -24t-122.5 -64h-21q-16 27 -27.5 57.5t-11.5 48.5q0 27 33 50.5t85 42t115.5 28.5t125.5 10q104 0 174 -22.5t113 -67.5t60 -112.5t17 -155.5v-404q0 -49 4.5 -76.5 t15.5 -41t30.5 -17.5t50.5 -4v-82q-18 -6 -45 -10t-56 -4q-63 0 -110 25.5t-55 90.5q-51 -51 -123 -86.5t-189 -35.5q-53 0 -107.5 12t-98.5 45t-72.5 88t-28.5 141zM260 279q0 -61 37 -108.5t137 -47.5q53 0 101.5 15.5t85 38t58 49t21.5 50.5v209h-59q-66 0 -133.5 -8 t-122.5 -30.5t-90 -63.5t-35 -104zM283 1313q0 94 58 159.5t159 65.5q100 0 158.5 -61.5t58.5 -161.5q0 -92 -58.5 -157.5t-158.5 -65.5q-99 -1 -160 65q-27 31 -42 71t-15 85zM391 1315q0 -49 28 -86t81 -37t81.5 36t28.5 85q0 47 -23.5 87t-88.5 40q-55 0 -81 -39t-26 -86 z" />
<glyph unicode="&#xe6;" horiz-adv-x="1611" d="M86 262q0 100 54.5 165t134 100.5t172 49t167.5 13.5h82v45q0 90 -45 144.5t-168 54.5q-98 0 -158.5 -23t-121.5 -63h-21q-16 27 -27.5 57.5t-11.5 48.5q0 27 33 50.5t85 42t116.5 28.5t126.5 10q135 0 208.5 -38t112.5 -116q55 78 134 116t178 38q100 0 173.5 -32.5 t121 -88t70 -129t22.5 -155.5q0 -29 -1 -65t-5 -64h-648q4 -152 76 -244t225 -92q59 0 103.5 12t77 30.5t54 38t36.5 35.5q23 -27 40 -55.5t17 -54.5q0 -16 -15.5 -37t-41.5 -39q-43 -33 -116 -54.5t-171 -21.5q-123 0 -216 44t-153 124q-154 -162 -374 -162 q-59 0 -117.5 13.5t-105 46.5t-75 88t-28.5 139zM258 266q0 -29 8 -54.5t28.5 -46t56.5 -32.5t89 -12q55 0 102.5 14.5t84.5 36t62.5 44t37.5 40.5q-18 47 -24.5 100.5t-8.5 106.5h-41q-70 0 -140.5 -7t-126.5 -28.5t-92 -60.5t-36 -101zM870 582h484q-2 57 -14.5 105 t-40 83t-71.5 54.5t-108 19.5q-106 0 -173.5 -72t-76.5 -190z" />
<glyph unicode="&#xe7;" horiz-adv-x="948" d="M98 479q0 152 49.5 250t121 154.5t152.5 79t142 22.5q74 0 132.5 -15.5t100.5 -39t64.5 -50t22.5 -51.5t-16.5 -55.5t-32.5 -52.5h-23q-35 41 -90 77t-150 36q-78 0 -133 -27t-91 -75t-52 -112.5t-16 -138.5q0 -76 16 -142.5t52 -115.5t93.5 -77.5t137.5 -28.5 q55 0 99 17.5t75 39.5q41 27 65 57q8 -8 19.5 -21t22.5 -28.5t18.5 -32t7.5 -30.5q0 -29 -43 -66t-113 -59q-66 -23 -154 -25q-14 -16 -14 -41q0 -20 10.5 -34.5t26.5 -28.5q18 -18 35.5 -43t17.5 -70t-17.5 -79.5t-45 -58.5t-62 -36t-69.5 -12q-72 0 -72 63q0 10 2 28.5 t8 39.5q14 -6 27.5 -8t26.5 -2q74 0 73 51q0 25 -12 41t-29 33q-16 16 -28.5 33.5t-12.5 45.5q0 37 23 76l6 8l-61 13q-55 12 -110.5 46t-99.5 92t-72 145t-28 208z" />
<glyph unicode="&#xe8;" horiz-adv-x="1019" d="M98 489q0 129 38 223.5t99.5 155t140.5 89t163 28.5q104 0 179 -35t122 -93t69.5 -135t22.5 -159q0 -29 -1 -58.5t-5 -55.5h-647q6 -150 78.5 -241t224.5 -91q57 0 102 12t78 29.5t54.5 38t35.5 36.5q23 -29 40 -61.5t17 -50.5q0 -16 -10 -33.5t-35 -36.5 q-47 -35 -120.5 -58.5t-178.5 -23.5q-96 0 -181 28t-148.5 89t-100.5 160.5t-37 242.5zM262 1382q23 18 55.5 34t61.5 16q39 0 62.5 -20.5t45.5 -51.5l172 -225q-16 -12 -39.5 -22.5t-46.5 -10.5q-31 0 -56.5 15.5t-47.5 41.5zM279 580h479q0 55 -11.5 102t-38 83 t-70.5 56.5t-108 20.5q-106 0 -174.5 -70t-76.5 -192z" />
<glyph unicode="&#xe9;" horiz-adv-x="1019" d="M98 489q0 129 38 223.5t99.5 155t140.5 89t163 28.5q104 0 179 -35t122 -93t69.5 -135t22.5 -159q0 -29 -1 -58.5t-5 -55.5h-647q6 -150 78.5 -241t224.5 -91q57 0 102 12t78 29.5t54.5 38t35.5 36.5q23 -29 40 -61.5t17 -50.5q0 -16 -10 -33.5t-35 -36.5 q-47 -35 -120.5 -58.5t-178.5 -23.5q-96 0 -181 28t-148.5 89t-100.5 160.5t-37 242.5zM279 580h479q0 55 -11.5 102t-38 83t-70.5 56.5t-108 20.5q-106 0 -174.5 -70t-76.5 -192zM389 1135l172 225q23 31 46.5 51.5t62.5 20.5q29 0 61.5 -15.5t55.5 -34.5l-207 -223 q-23 -27 -48.5 -42t-56.5 -15q-23 0 -46 10t-40 23z" />
<glyph unicode="&#xea;" horiz-adv-x="1019" d="M98 489q0 129 38 223.5t99.5 155t140.5 89t163 28.5q104 0 179 -35t122 -93t69.5 -135t22.5 -159q0 -29 -1 -58.5t-5 -55.5h-647q6 -150 78.5 -241t224.5 -91q57 0 102 12t78 29.5t54.5 38t35.5 36.5q23 -29 40 -61.5t17 -50.5q0 -16 -10 -33.5t-35 -36.5 q-47 -35 -120.5 -58.5t-178.5 -23.5q-96 0 -181 28t-148.5 89t-100.5 160.5t-37 242.5zM249 1126l181 238q20 27 44.5 42t57.5 15t54.5 -13t43.5 -42l189 -246q-16 -10 -34.5 -17t-41.5 -7q-49 0 -92 45l-121 131l-121 -135q-35 -41 -86 -41q-18 0 -37.5 7t-36.5 23z M279 580h479q0 55 -11.5 102t-38 83t-70.5 56.5t-108 20.5q-106 0 -174.5 -70t-76.5 -192z" />
<glyph unicode="&#xeb;" horiz-adv-x="1019" d="M98 489q0 129 38 223.5t99.5 155t140.5 89t163 28.5q104 0 179 -35t122 -93t69.5 -135t22.5 -159q0 -29 -1 -58.5t-5 -55.5h-647q6 -150 78.5 -241t224.5 -91q57 0 102 12t78 29.5t54.5 38t35.5 36.5q23 -29 40 -61.5t17 -50.5q0 -16 -10 -33.5t-35 -36.5 q-47 -35 -120.5 -58.5t-178.5 -23.5q-96 0 -181 28t-148.5 89t-100.5 160.5t-37 242.5zM260 1245q0 47 30 79t75 32t74.5 -32t29.5 -79t-28.5 -77.5t-75.5 -30.5q-49 -1 -76 30q-29 33 -29 78zM279 580h479q0 55 -11.5 102t-38 83t-70.5 56.5t-108 20.5q-106 0 -174.5 -70 t-76.5 -192zM627 1245q0 47 29.5 79t74.5 32t75 -32t30 -79t-28.5 -77.5t-76.5 -30.5q-48 -1 -75 30q-29 33 -29 78z" />
<glyph unicode="&#xec;" horiz-adv-x="493" d="M-86 1382q23 18 55.5 34t61.5 16q39 0 62.5 -20.5t45.5 -51.5l172 -225q-16 -12 -39.5 -22.5t-46.5 -10.5q-31 0 -56.5 15.5t-47.5 41.5zM150 199v774h12q4 0 11 1t13 1q57 0 97.5 -30t40.5 -107v-654q0 -59 17 -83.5t81 -24.5v-74q-18 -6 -50 -10t-63 -4q-59 0 -91 18.5 t-47 49t-18 68.5t-3 75z" />
<glyph unicode="&#xed;" horiz-adv-x="493" d="M129 1135l172 225q23 31 46.5 51.5t62.5 20.5q29 0 61.5 -15.5t55.5 -34.5l-207 -223q-23 -27 -48.5 -42t-56.5 -15q-23 0 -46 10t-40 23zM150 199v774h12q4 0 11 1t13 1q57 0 97.5 -30t40.5 -107v-654q0 -59 17 -83.5t81 -24.5v-74q-18 -6 -50 -10t-63 -4 q-59 0 -91 18.5t-47 49t-18 68.5t-3 75z" />
<glyph unicode="&#xee;" horiz-adv-x="493" d="M-50 1126l181 238q20 27 44.5 42t57.5 15t54.5 -13t43.5 -42l189 -246q-16 -10 -34.5 -17t-41.5 -7q-49 0 -92 45l-121 131l-121 -135q-35 -41 -86 -41q-18 0 -37.5 7t-36.5 23zM150 199v774h12q4 0 11 1t13 1q57 0 97.5 -30t40.5 -107v-654q0 -59 17 -83.5t81 -24.5v-74 q-18 -6 -50 -10t-63 -4q-59 0 -91 18.5t-47 49t-18 68.5t-3 75z" />
<glyph unicode="&#xef;" horiz-adv-x="493" d="M-48 1245q0 47 30 79t75 32t74.5 -32t29.5 -79t-28.5 -77.5t-75.5 -30.5q-49 -1 -76 30q-29 33 -29 78zM150 199v774h12q4 0 11 1t13 1q57 0 97.5 -30t40.5 -107v-654q0 -59 17 -83.5t81 -24.5v-74q-18 -6 -50 -10t-63 -4q-59 0 -91 18.5t-47 49t-18 68.5t-3 75z M319 1245q0 47 29.5 79t74.5 32t75 -32t30 -79t-28.5 -77.5t-76.5 -30.5q-48 -1 -75 30q-29 33 -29 78z" />
<glyph unicode="&#xf0;" horiz-adv-x="1128" d="M106 461q0 123 36 213t96.5 147.5t138.5 85t164 27.5t150.5 -25.5t105.5 -60.5q-23 78 -74 150.5t-111 119.5l-182 -100l-78 108l131 72q-63 29 -131.5 44t-130.5 15v48q0 39 17.5 68.5t68.5 29.5q55 0 146.5 -23.5t195.5 -85.5l213 117l80 -108l-176 -99 q123 -106 183.5 -275t60.5 -380q0 -287 -126 -433.5t-335 -146.5q-98 0 -180 32t-140.5 93.5t-90.5 153.5t-32 213zM291 459q0 -172 74.5 -255t193.5 -83q57 0 107.5 23.5t86 72.5t56 127t20.5 186q0 53 -2 89t-12 71q-45 45 -115 70q-68 27 -139 26q-59 0 -108.5 -17 t-85 -56t-56 -101.5t-20.5 -152.5z" />
<glyph unicode="&#xf1;" horiz-adv-x="1112" d="M152 0v967q14 2 22 2h12q47 0 85 -23.5t46 -81.5q47 47 128 84t192 37q139 0 213 -61.5t96 -153.5q10 -41 12.5 -91t2.5 -97v-582h-175v575q0 39 -1 75t-11 67q-16 53 -60 81.5t-132 28.5q-59 0 -106.5 -12t-80.5 -32.5t-51 -47t-18 -53.5v-682h-174zM244 1194 q0 20 14 39.5t37 36.5q35 29 75.5 44t79.5 15q37 0 67 -10t56 -23q29 -14 57.5 -24t63.5 -10q41 0 70.5 24.5t58.5 69.5q23 -14 47.5 -38t24.5 -48q0 -27 -25 -58q-27 -33 -68.5 -56t-97.5 -23q-41 0 -75.5 11t-67.5 25q-29 12 -56.5 21.5t-58.5 9.5q-41 0 -76.5 -24.5 t-68.5 -63.5l-39 37q-18 20 -18 45z" />
<glyph unicode="&#xf2;" horiz-adv-x="1097" d="M98 479q0 102 29 194.5t86 161t142 109.5t200 41q119 0 204 -41t138 -109.5t77.5 -159t24.5 -190.5t-24.5 -193t-78.5 -165t-140 -115t-209 -43q-121 0 -207 41t-139.5 109.5t-78 162t-24.5 197.5zM281 483q0 -63 11 -127.5t42 -118t82 -87t131 -33.5q82 0 135 33.5 t82 86t40 118t11 128.5t-11 126t-40 113t-80 81t-133 31q-78 0 -130 -31t-83 -81t-44 -112.5t-13 -126.5zM285 1382q23 18 55.5 34t61.5 16q39 0 62.5 -20.5t45.5 -51.5l172 -225q-16 -12 -39.5 -22.5t-46.5 -10.5q-31 0 -56.5 15.5t-47.5 41.5z" />
<glyph unicode="&#xf3;" horiz-adv-x="1097" d="M98 479q0 102 29 194.5t86 161t142 109.5t200 41q119 0 204 -41t138 -109.5t77.5 -159t24.5 -190.5t-24.5 -193t-78.5 -165t-140 -115t-209 -43q-121 0 -207 41t-139.5 109.5t-78 162t-24.5 197.5zM281 483q0 -63 11 -127.5t42 -118t82 -87t131 -33.5q82 0 135 33.5 t82 86t40 118t11 128.5t-11 126t-40 113t-80 81t-133 31q-78 0 -130 -31t-83 -81t-44 -112.5t-13 -126.5zM442 1135l172 225q23 31 46.5 51.5t62.5 20.5q29 0 61.5 -15.5t55.5 -34.5l-207 -223q-23 -27 -48.5 -42t-56.5 -15q-23 0 -46 10t-40 23z" />
<glyph unicode="&#xf4;" horiz-adv-x="1097" d="M98 479q0 102 29 194.5t86 161t142 109.5t200 41q119 0 204 -41t138 -109.5t77.5 -159t24.5 -190.5t-24.5 -193t-78.5 -165t-140 -115t-209 -43q-121 0 -207 41t-139.5 109.5t-78 162t-24.5 197.5zM281 483q0 -63 11 -127.5t42 -118t82 -87t131 -33.5q82 0 135 33.5 t82 86t40 118t11 128.5t-11 126t-40 113t-80 81t-133 31q-78 0 -130 -31t-83 -81t-44 -112.5t-13 -126.5zM284 1126l181 238q20 27 44.5 42t57.5 15t54.5 -13t43.5 -42l189 -246q-16 -10 -34.5 -17t-41.5 -7q-49 0 -92 45l-121 131l-121 -135q-35 -41 -86 -41q-18 0 -37.5 7 t-36.5 23z" />
<glyph unicode="&#xf5;" horiz-adv-x="1097" d="M98 479q0 102 29 194.5t86 161t142 109.5t200 41q119 0 204 -41t138 -109.5t77.5 -159t24.5 -190.5t-24.5 -193t-78.5 -165t-140 -115t-209 -43q-121 0 -207 41t-139.5 109.5t-78 162t-24.5 197.5zM232 1194q0 20 14 39.5t37 36.5q35 29 75.5 44t79.5 15q37 0 67 -10 t56 -23q29 -14 57.5 -24t63.5 -10q41 0 70.5 24.5t58.5 69.5q23 -14 47.5 -38t24.5 -48q0 -27 -25 -58q-27 -33 -68.5 -56t-97.5 -23q-41 0 -75.5 11t-67.5 25q-29 12 -56.5 21.5t-58.5 9.5q-41 0 -76.5 -24.5t-68.5 -63.5l-39 37q-18 20 -18 45zM281 483q0 -63 11 -127.5 t42 -118t82 -87t131 -33.5q82 0 135 33.5t82 86t40 118t11 128.5t-11 126t-40 113t-80 81t-133 31q-78 0 -130 -31t-83 -81t-44 -112.5t-13 -126.5z" />
<glyph unicode="&#xf6;" horiz-adv-x="1097" d="M98 479q0 102 29 194.5t86 161t142 109.5t200 41q119 0 204 -41t138 -109.5t77.5 -159t24.5 -190.5t-24.5 -193t-78.5 -165t-140 -115t-209 -43q-121 0 -207 41t-139.5 109.5t-78 162t-24.5 197.5zM276 1245q0 47 30 79t75 32t74.5 -32t29.5 -79t-28.5 -77.5t-75.5 -30.5 q-49 -1 -76 30q-29 33 -29 78zM281 483q0 -63 11 -127.5t42 -118t82 -87t131 -33.5q82 0 135 33.5t82 86t40 118t11 128.5t-11 126t-40 113t-80 81t-133 31q-78 0 -130 -31t-83 -81t-44 -112.5t-13 -126.5zM643 1245q0 47 29.5 79t74.5 32t75 -32t30 -79t-28.5 -77.5 t-76.5 -30.5q-48 -1 -75 30q-29 33 -29 78z" />
<glyph unicode="&#xf7;" horiz-adv-x="1120" d="M156 610v164h798v-164h-798zM444 387q0 47 31 82t78 35t79 -35t32 -82q0 -49 -31 -84t-78 -35q-45 0 -80 35q-31 33 -31 84zM444 993q0 49 31 84t78 35t79 -35t32 -84t-31 -84t-78 -35q-45 0 -80 35q-31 33 -31 84z" />
<glyph unicode="&#xf8;" horiz-adv-x="1097" d="M96 -53l113 164q-59 72 -85 165t-26 203q0 102 29 194.5t86 161t142 109.5t200 41q68 0 124 -14.5t103 -38.5l88 123l121 -72l-100 -139q57 -70 82.5 -162t25.5 -197q0 -100 -24.5 -193t-78.5 -165t-140 -115t-209 -43q-70 0 -126 14.5t-104 36.5l-102 -145zM281 483 q0 -55 8 -111.5t28 -105.5l373 533q-59 35 -139 35q-78 0 -130 -31t-83 -81t-44 -112.5t-13 -126.5zM410 154q55 -37 137 -37t135 33.5t82 86t40 118t11 128.5q0 53 -7 105.5t-26 97.5z" />
<glyph unicode="&#xf9;" horiz-adv-x="1099" d="M143 358v615q14 2 23.5 2h13.5q61 0 99 -31t38 -108v-478q0 -80 11.5 -127t46.5 -71q31 -23 66.5 -31t82.5 -8q55 0 101.5 15.5t79 38t51 48t18.5 45.5v705q14 2 23.5 2h13.5q61 0 99 -31t38 -108v-836h-174v90q-41 -47 -114.5 -84t-190.5 -37q-119 0 -184.5 37t-97 94.5 t-38 126t-6.5 131.5zM264 1382q23 18 55.5 34t61.5 16q39 0 62.5 -20.5t45.5 -51.5l172 -225q-16 -12 -39.5 -22.5t-46.5 -10.5q-31 0 -56.5 15.5t-47.5 41.5z" />
<glyph unicode="&#xfa;" horiz-adv-x="1099" d="M143 358v615q14 2 23.5 2h13.5q61 0 99 -31t38 -108v-478q0 -80 11.5 -127t46.5 -71q31 -23 66.5 -31t82.5 -8q55 0 101.5 15.5t79 38t51 48t18.5 45.5v705q14 2 23.5 2h13.5q61 0 99 -31t38 -108v-836h-174v90q-41 -47 -114.5 -84t-190.5 -37q-119 0 -184.5 37t-97 94.5 t-38 126t-6.5 131.5zM434 1135l172 225q23 31 46.5 51.5t62.5 20.5q29 0 61.5 -15.5t55.5 -34.5l-207 -223q-23 -27 -48.5 -42t-56.5 -15q-23 0 -46 10t-40 23z" />
<glyph unicode="&#xfb;" horiz-adv-x="1099" d="M143 358v615q14 2 23.5 2h13.5q61 0 99 -31t38 -108v-478q0 -80 11.5 -127t46.5 -71q31 -23 66.5 -31t82.5 -8q55 0 101.5 15.5t79 38t51 48t18.5 45.5v705q14 2 23.5 2h13.5q61 0 99 -31t38 -108v-836h-174v90q-41 -47 -114.5 -84t-190.5 -37q-119 0 -184.5 37t-97 94.5 t-38 126t-6.5 131.5zM258 1126l181 238q20 27 44.5 42t57.5 15t54.5 -13t43.5 -42l189 -246q-16 -10 -34.5 -17t-41.5 -7q-49 0 -92 45l-121 131l-121 -135q-35 -41 -86 -41q-18 0 -37.5 7t-36.5 23z" />
<glyph unicode="&#xfc;" horiz-adv-x="1099" d="M143 358v615q14 2 23.5 2h13.5q61 0 99 -31t38 -108v-478q0 -80 11.5 -127t46.5 -71q31 -23 66.5 -31t82.5 -8q55 0 101.5 15.5t79 38t51 48t18.5 45.5v705q14 2 23.5 2h13.5q61 0 99 -31t38 -108v-836h-174v90q-41 -47 -114.5 -84t-190.5 -37q-119 0 -184.5 37t-97 94.5 t-38 126t-6.5 131.5zM254 1245q0 47 30 79t75 32t74.5 -32t29.5 -79t-28.5 -77.5t-75.5 -30.5q-49 -1 -76 30q-29 33 -29 78zM621 1245q0 47 29.5 79t74.5 32t75 -32t30 -79t-28.5 -77.5t-76.5 -30.5q-48 -1 -75 30q-29 33 -29 78z" />
<glyph unicode="&#xfd;" horiz-adv-x="954" d="M23 -367q0 29 15 60t32 53q16 -14 50 -33.5t85 -19.5q72 0 116 53t78 164l29 92h-70l-331 950q45 16 90 17q53 0 86 -33t49 -84l225 -698l225 680q6 23 16.5 46t28 43.5t42 33t59.5 12.5q41 0 76 -19l-373 -1083q-23 -66 -49.5 -125t-65.5 -103.5t-95 -71t-136 -26.5 q-78 0 -130 22.5t-52 69.5zM360 1135l172 225q23 31 46.5 51.5t62.5 20.5q29 0 61.5 -15.5t55.5 -34.5l-207 -223q-23 -27 -48.5 -42t-56.5 -15q-23 0 -46 10t-40 23z" />
<glyph unicode="&#xfe;" horiz-adv-x="1103" d="M152 -442v1894h12q4 0 11 1t13 1q57 0 96.5 -29.5t39.5 -107.5v-447q39 47 108.5 81t173.5 34q80 0 150.5 -26.5t125 -85t86 -151.5t31.5 -228q0 -154 -37.5 -255.5t-98 -161t-134.5 -84t-143 -24.5q-111 0 -174.5 38t-85.5 69v-518h-174zM326 231q12 -16 32.5 -35.5 t50 -36t67.5 -28.5t81 -12q129 0 192.5 93t63.5 271q0 74 -13.5 139.5t-43 112.5t-79.5 75t-124 28q-98 0 -162.5 -41t-64.5 -99v-467z" />
<glyph unicode="&#xff;" horiz-adv-x="954" d="M23 -367q0 29 15 60t32 53q16 -14 50 -33.5t85 -19.5q72 0 116 53t78 164l29 92h-70l-331 950q45 16 90 17q53 0 86 -33t49 -84l225 -698l225 680q6 23 16.5 46t28 43.5t42 33t59.5 12.5q41 0 76 -19l-373 -1083q-23 -66 -49.5 -125t-65.5 -103.5t-95 -71t-136 -26.5 q-78 0 -130 22.5t-52 69.5zM198 1245q0 47 30 79t75 32t74.5 -32t29.5 -79t-28.5 -77.5t-75.5 -30.5q-49 -1 -76 30q-29 33 -29 78zM565 1245q0 47 29.5 79t74.5 32t75 -32t30 -79t-28.5 -77.5t-76.5 -30.5q-48 -1 -75 30q-29 33 -29 78z" />
<glyph unicode="&#x152;" horiz-adv-x="1851" d="M125 698q0 139 40 262t120 214.5t198.5 143.5t276.5 52h999q4 -12 4 -21.5v-21.5q0 -47 -26.5 -78.5t-98.5 -31.5h-491v-422h465v-158h-465v-483h520q68 0 97.5 -32t29.5 -79q0 -8 -1 -15.5t-1 -13.5v-14h-1049q-158 0 -273.5 54.5t-192 149.5t-114.5 222t-38 272z M309 698q0 -111 25.5 -211t80 -175.5t139.5 -121t204 -45.5h211v1080h-203q-121 0 -208 -41t-142.5 -113t-81 -167t-25.5 -206z" />
<glyph unicode="&#x153;" horiz-adv-x="1732" d="M98 477q0 102 29 194.5t85 162t141 110.5t198 41q137 0 224 -61.5t128 -147.5q49 100 142.5 154.5t209.5 54.5q102 0 176 -35t121 -93t70 -135t23 -159q0 -29 -1.5 -58.5t-5.5 -55.5h-647q4 -68 23.5 -128.5t56.5 -105.5t91.5 -71.5t129.5 -26.5q59 0 104.5 12t78 29.5 t55 38t37.5 36.5q23 -29 40 -61.5t17 -54.5q0 -23 -25.5 -48.5t-69.5 -47t-106.5 -37t-136.5 -15.5q-131 0 -231.5 56.5t-151.5 160.5q-23 -43 -55.5 -81.5t-78.5 -68.5t-105.5 -48.5t-133.5 -18.5q-115 0 -196.5 42t-134 112t-77 162t-24.5 192zM281 483q0 -98 28.5 -188 t106.5 -143q51 -33 131 -33q82 0 135 33.5t82 87t40 119t11 128.5t-12 125t-42 111t-81 80t-129 31t-129 -31t-83 -81t-45 -112.5t-13 -126.5zM991 580h484q-2 57 -14.5 105t-40 83t-71.5 54.5t-108 19.5q-104 0 -172 -70t-78 -192z" />
<glyph unicode="&#x178;" horiz-adv-x="1073" d="M6 1356q18 10 47 16t60 6q49 0 77.5 -20.5t51.5 -63.5l297 -563l297 547q23 41 54.5 69.5t82.5 28.5q23 0 45 -4t49 -12l-440 -793v-567h-181v563zM249 1606q0 47 30 78.5t75 31.5t74.5 -31.5t29.5 -78.5t-28.5 -78t-75.5 -31q-49 0 -76 31q-29 33 -29 78zM616 1606 q0 47 29.5 78.5t74.5 31.5t75 -31.5t30 -78.5t-28.5 -78t-76.5 -31t-75 31q-29 33 -29 78z" />
<glyph unicode="&#x2c6;" horiz-adv-x="772" d="M104 1126l181 238q20 27 44.5 42t57.5 15t54.5 -13t43.5 -42l189 -246q-16 -10 -34.5 -17t-41.5 -7q-49 0 -92 45l-121 131l-121 -135q-35 -41 -86 -41q-18 0 -37.5 7t-36.5 23z" />
<glyph unicode="&#x2dc;" horiz-adv-x="784" d="M66 1194q0 20 14 39.5t37 36.5q35 29 75.5 44t79.5 15q37 0 67 -10t56 -23q29 -14 57.5 -24t63.5 -10q41 0 70.5 24.5t58.5 69.5q23 -14 47.5 -38t24.5 -48q0 -27 -25 -58q-27 -33 -68.5 -56t-97.5 -23q-41 0 -75.5 11t-67.5 25q-29 12 -56.5 21.5t-58.5 9.5 q-41 0 -76.5 -24.5t-68.5 -63.5l-39 37q-18 20 -18 45z" />
<glyph unicode="&#x2000;" horiz-adv-x="887" />
<glyph unicode="&#x2001;" horiz-adv-x="1774" />
<glyph unicode="&#x2002;" horiz-adv-x="887" />
<glyph unicode="&#x2003;" horiz-adv-x="1774" />
<glyph unicode="&#x2004;" horiz-adv-x="591" />
<glyph unicode="&#x2005;" horiz-adv-x="443" />
<glyph unicode="&#x2006;" horiz-adv-x="295" />
<glyph unicode="&#x2007;" horiz-adv-x="295" />
<glyph unicode="&#x2008;" horiz-adv-x="221" />
<glyph unicode="&#x2009;" horiz-adv-x="354" />
<glyph unicode="&#x200a;" horiz-adv-x="98" />
<glyph unicode="&#x2010;" horiz-adv-x="903" d="M143 580v21t2 22q0 14 2 20h515q18 0 37.5 -2t36 -12.5t27.5 -30.5t11 -57q0 -10 -1 -22.5t-1 -22.5q-2 -8 -2 -23h-522q-43 0 -74 23.5t-31 83.5z" />
<glyph unicode="&#x2011;" horiz-adv-x="903" d="M143 580v21t2 22q0 14 2 20h515q18 0 37.5 -2t36 -12.5t27.5 -30.5t11 -57q0 -10 -1 -22.5t-1 -22.5q-2 -8 -2 -23h-522q-43 0 -74 23.5t-31 83.5z" />
<glyph unicode="&#x2012;" horiz-adv-x="903" d="M143 580v21t2 22q0 14 2 20h515q18 0 37.5 -2t36 -12.5t27.5 -30.5t11 -57q0 -10 -1 -22.5t-1 -22.5q-2 -8 -2 -23h-522q-43 0 -74 23.5t-31 83.5z" />
<glyph unicode="&#x2013;" horiz-adv-x="1024" d="M2 580v21t2 20q0 10 2 16h903q18 0 38 -1t36 -10.5t27.5 -28.5t11.5 -56q0 -10 -1 -21.5t-1 -19.5q-2 -6 -2 -19h-912q-41 0 -72.5 19.5t-31.5 79.5z" />
<glyph unicode="&#x2014;" horiz-adv-x="2048" d="M8 580q0 23 1 40t3 17h1915q18 0 38 -1t36 -10.5t27.5 -28.5t11.5 -56q0 -23 -1 -36t-3 -24h-1923q-43 0 -74 19.5t-31 79.5z" />
<glyph unicode="&#x2018;" horiz-adv-x="493" d="M113 1116q0 45 11 90t29.5 84t44 69t56.5 48q33 20 65 20q51 0 72 -63q-39 -14 -80 -59q-43 -43 -51 -91q23 -16 51.5 -46.5t28.5 -77.5t-28.5 -82t-82.5 -35q-59 0 -87.5 42t-28.5 101z" />
<glyph unicode="&#x2019;" horiz-adv-x="493" d="M102 1032q18 8 40 23.5t40.5 36t31.5 43t19 47.5q-23 16 -51 48t-28 79t28.5 81.5t81.5 34.5q59 0 88 -42t29 -101q0 -47 -11.5 -92t-29.5 -84t-44 -69.5t-56 -47.5q-16 -8 -33 -13t-33 -5q-51 0 -72 61z" />
<glyph unicode="&#x201a;" horiz-adv-x="462" d="M72 -176q18 8 39.5 23.5t40 36t32 43t19.5 46.5q-25 16 -52.5 47t-27.5 78t28.5 83t81.5 36q59 0 88 -42t29 -101q0 -47 -11 -92t-29.5 -84t-44 -69t-56.5 -48q-33 -21 -66 -21q-51 0 -71 64z" />
<glyph unicode="&#x201c;" horiz-adv-x="849" d="M113 1116q0 45 11 90t29.5 84t44 69t56.5 48q33 20 65 20q51 0 72 -63q-39 -14 -80 -59q-43 -43 -51 -91q23 -16 51.5 -46.5t28.5 -77.5t-28.5 -82t-82.5 -35q-59 0 -87.5 42t-28.5 101zM469 1116q0 45 11 90t29.5 84t44 69t56.5 48q33 20 65 20q51 0 72 -63 q-39 -14 -80 -59q-43 -43 -51 -91q23 -16 51.5 -46.5t28.5 -77.5t-28.5 -82t-82.5 -35q-59 0 -87.5 42t-28.5 101z" />
<glyph unicode="&#x201d;" horiz-adv-x="849" d="M102 1032q18 8 40 23.5t40.5 36t31.5 43t19 47.5q-23 16 -51 48t-28 79t28.5 81.5t81.5 34.5q59 0 88 -42t29 -101q0 -47 -11.5 -92t-29.5 -84t-44 -69.5t-56 -47.5q-16 -8 -33 -13t-33 -5q-51 0 -72 61zM458 1032q18 8 40 23.5t40.5 36t31.5 43t19 47.5q-23 16 -51 48 t-28 79t28.5 81.5t81.5 34.5q59 0 88 -42t29 -101q0 -47 -11.5 -92t-29.5 -84t-44 -69.5t-56 -47.5q-16 -8 -33 -13t-33 -5q-51 0 -72 61z" />
<glyph unicode="&#x201e;" horiz-adv-x="819" d="M72 -176q18 8 39.5 23.5t40 36t32 43t19.5 46.5q-25 16 -52.5 47t-27.5 78t28.5 83t81.5 36q59 0 88 -42t29 -101q0 -47 -11 -92t-29.5 -84t-44 -69t-56.5 -48q-33 -21 -66 -21q-51 0 -71 64zM428 -176q18 8 39.5 23.5t40 36t32 43t19.5 46.5q-25 16 -52.5 47t-27.5 78 t28.5 83t81.5 36q59 0 88 -42t29 -101q0 -47 -11 -92t-29.5 -84t-44 -69t-56.5 -48q-33 -21 -66 -21q-51 0 -71 64z" />
<glyph unicode="&#x2022;" horiz-adv-x="784" d="M129 717q0 55 18.5 104t53.5 85t83 57.5t107 21.5q57 0 106.5 -21.5t84 -57.5t54 -85t19.5 -104t-19.5 -103.5t-55 -84t-83.5 -57t-106 -21.5q-59 0 -107 21t-83 56q-72 76 -72 189z" />
<glyph unicode="&#x2026;" horiz-adv-x="1218" d="M95 96q0 53 33.5 90t82.5 37q51 0 85 -36.5t34 -90.5q0 -53 -32.5 -90t-86.5 -37q-51 0 -84 37q-33 35 -32 90zM496 96q0 53 33.5 90t82.5 37q51 0 85 -36.5t34 -90.5q0 -53 -32.5 -90t-86.5 -37q-51 0 -84 37q-33 35 -32 90zM891 96q0 53 33.5 90t82.5 37q51 0 85 -36.5 t34 -90.5q0 -53 -32.5 -90t-86.5 -37q-51 0 -84 37q-33 35 -32 90z" />
<glyph unicode="&#x202f;" horiz-adv-x="354" />
<glyph unicode="&#x2039;" horiz-adv-x="604" d="M113 563q0 35 21.5 67t49.5 58l265 248q18 -20 30.5 -47t12.5 -49q0 -49 -31 -86l-168 -191l162 -190q20 -25 27 -47.5t7 -44.5q0 -23 -10 -49.5t-24 -45.5l-277 252q-29 27 -47 57.5t-18 67.5z" />
<glyph unicode="&#x203a;" horiz-adv-x="604" d="M113 840q0 23 12 49t31 47l264 -248q29 -27 50.5 -58.5t21.5 -66.5q0 -37 -18.5 -67.5t-47.5 -57.5l-276 -252q-14 18 -24.5 45t-10.5 50t7 45t28 47l161 190l-168 191q-31 37 -30 86z" />
<glyph unicode="&#x205f;" horiz-adv-x="443" />
<glyph unicode="&#x20ac;" d="M57 467v117h144q-2 16 -2 49v86q0 20 2 39h-144v108h156q20 113 65.5 205t114 158.5t158.5 103.5t201 37q76 0 142.5 -17.5t116.5 -44t78.5 -58t28.5 -60.5q0 -20 -19.5 -53t-35.5 -50h-27q-14 16 -36.5 38t-56.5 42.5t-81 33.5t-108 13q-80 0 -141.5 -26.5t-105.5 -72.5 t-71.5 -108.5t-40.5 -134.5h494v-114h-510v-123q0 -33 4 -51h506v-117h-492q14 -74 41 -137.5t70 -110.5t102.5 -73.5t139.5 -26.5q113 6 173 44t111 99q8 -10 21 -26l24 -33q12 -16 20.5 -33.5t8.5 -30.5q0 -37 -61 -86q-47 -35 -128 -58.5t-182 -23.5q-131 0 -224 43 t-154.5 114t-95.5 160t-48 179h-158z" />
<glyph unicode="&#x2122;" horiz-adv-x="1611" d="M35 1294q0 29 14 52.5t68 23.5h528q8 -18 8 -47t-17.5 -53.5t-72.5 -24.5h-153v-635h-138v635h-231q-4 14 -5 28.5t-1 20.5zM729 610l47 746q14 10 32.5 13t35.5 3q27 0 50.5 -14.5t33.5 -40.5l190 -461l191 459q14 33 39.5 45t50.5 12q12 0 30.5 -3t32.5 -13l37 -746 h-129l-22 500l-170 -383h-125l-164 373l-27 -490h-133z" />
<glyph unicode="&#x25fc;" horiz-adv-x="972" d="M0 0v973h973v-973h-973z" />
=======
<font id="focoregular" horiz-adv-x="332" >
<font-face units-per-em="1000" ascent="800" descent="-200" />
<missing-glyph horiz-adv-x="200" />
<glyph unicode="ff" horiz-adv-x="640" d="M74 522q0 97 45.5 146t130.5 49q26 0 48 -6t37.5 -15t24.5 -20t9 -21q0 -14 -8 -27.5t-19 -24.5h-11q-17 21 -38.5 31t-42.5 10q-42 0 -66 -24.5t-24 -84.5v-65h214v52q0 97 45 146t130 49q31 0 57 -7t45 -17t29 -21.5t10 -21.5q0 -14 -8 -27.5t-19 -24.5h-12 q-17 21 -41 33.5t-56 12.5q-45 0 -70 -24.5t-25 -84.5v-65h168v-73h-168v-397h-85v397h-214v-397h-86v522z" />
<glyph unicode="fi" horiz-adv-x="532" d="M73 519q0 97 48.5 147.5t142.5 50.5q37 0 67.5 -7.5t52 -18.5t33.5 -24t12 -25q0 -11 -8 -25t-16 -25h-15q-16 21 -46.5 36.5t-75.5 15.5q-54 0 -82 -25t-28 -85v-64h291v-372q0 -34 7.5 -47.5t40.5 -13.5v-36q-10 -3 -25.5 -5t-29.5 -2q-29 0 -44.5 9.5t-23 25t-9 35.5 t-1.5 41v292h-206v-397h-85v519z" />
<glyph unicode="fl" horiz-adv-x="541" d="M73 520q0 17 2 33t4 28q14 68 66 102t126 34q32 0 61 -5t53 -13t42.5 -17t30.5 -18v-561q0 -18 0.5 -30.5t5 -20.5t14.5 -11.5t28 -3.5v-36q-9 -3 -24 -5t-29 -2q-29 0 -45 8.5t-23.5 23.5t-9.5 35.5t-2 43.5v516h1q-18 8 -46.5 15t-57.5 7q-54 0 -82.5 -24t-28.5 -84 v-65h154v-73h-154v-397h-86v520z" />
<glyph unicode="ffi" horiz-adv-x="831" d="M75 522q0 97 45 146t130 49q26 0 48 -6t38 -15t25 -20t9 -21q0 -14 -8 -27.5t-19 -24.5h-12q-17 21 -38 31t-43 10q-42 0 -66 -24.5t-24 -84.5v-65h212v49q0 97 48.5 147.5t142.5 50.5q37 0 67.5 -7.5t52 -18.5t33.5 -24t12 -25q0 -11 -8 -25t-16 -25h-15 q-16 21 -46.5 36.5t-75.5 15.5q-54 0 -82 -25t-28 -85v-64h291v-372q0 -34 7.5 -47.5t40.5 -13.5v-36q-10 -3 -25.5 -5t-29.5 -2q-29 0 -44.5 9.5t-23 25t-9 35.5t-1.5 41v292h-206v-397h-85v397h-212v-397h-85v522z" />
<glyph unicode="ffl" horiz-adv-x="841" d="M75 522q0 97 45 146t130 49q26 0 48 -6t38 -15t25 -20t9 -21q0 -14 -8 -27.5t-19 -24.5h-12q-17 21 -38 31t-43 10q-42 0 -66 -24.5t-24 -84.5v-65h213v50q0 17 2 33t4 28q14 68 66 102t126 34q32 0 61 -5t53 -13t42.5 -17t30.5 -18v-561q0 -18 0.5 -30.5t5 -20.5 t14.5 -11.5t28 -3.5v-36q-9 -3 -24 -5t-29 -2q-29 0 -45 8.5t-23.5 23.5t-9.5 35.5t-2 43.5v516h1q-18 8 -46.5 15t-57.5 7q-54 0 -82.5 -24t-28.5 -84v-65h154v-73h-154v-397h-86v397h-213v-397h-85v522z" />
<glyph unicode=" "  horiz-adv-x="200" />
<glyph unicode="&#x09;" horiz-adv-x="200" />
<glyph unicode="&#xa0;" horiz-adv-x="200" />
<glyph unicode="!" horiz-adv-x="225" d="M68 671h6q3 0 6.5 0.5t6.5 0.5q28 0 47.5 -14t19.5 -52v-431q-3 -1 -7 -1h-12q-28 0 -47.5 14t-19.5 52v431zM113 -15q-26 0 -42 16.5t-16 42.5t16 43.5t42 17.5q25 0 41 -17.5t16 -43.5t-16 -42.5t-41 -16.5z" />
<glyph unicode="&#x22;" horiz-adv-x="328" d="M202 681q3 0 8 0.5t7 0.5q23 0 42 -14t19 -49v-4l-7 -179h-69v245zM53 681q3 0 8 0.5t7 0.5q23 0 42 -14t19 -49v-4l-7 -179h-69v245z" />
<glyph unicode="#" horiz-adv-x="655" d="M177 175h-141l9 65h141l21 147h-141l9 66h141l22 150h69l-22 -150h141l22 150h69l-22 -150h136l-9 -66h-136l-21 -147h136l-9 -65h-136l-20 -146h-69l20 146h-141l-20 -146h-69zM396 240l21 147h-141l-21 -147h141z" />
<glyph unicode="$" horiz-adv-x="549" d="M240 -15q-47 1 -88 12q-45 12 -71 32q-23 17 -23 37q0 11 8.5 28t19.5 32q15 -13 33 -24.5t40 -21.5q19 -8 39 -13t42 -6v253q-14 5 -26.5 10t-25.5 10q-49 20 -82 58t-33 106t33.5 111t88.5 61q19 7 45 10v79h62v-78q25 -3 49 -9q42 -9 70 -27q15 -10 25.5 -21.5 t10.5 -26.5q0 -12 -9 -26t-23 -28q-13 11 -36 27.5t-61 27.5q-6 2 -12.5 3t-13.5 2v-221q29 -10 59 -26q22 -11 41 -26.5t32.5 -35.5t21.5 -46t8 -59q0 -75 -34 -123t-93 -68l-35 -9v-83h-62v79zM302 67l8 4q38 15 52.5 43t14.5 62q0 42 -16.5 68.5t-51.5 43.5l-7 3v-224z M240 602q-12 -2 -19 -6q-33 -12 -47 -36.5t-14 -54.5q0 -25 9 -43t26 -32q20 -15 44 -25l1 -1v198z" />
<glyph unicode="%" horiz-adv-x="823" d="M88 374q-40 46 -40 132q0 88 42.5 132t108.5 44q152 0 152 -176q0 -87 -42 -132t-109 -45q-72 0 -112 45zM508 30q-40 44 -40 132q0 43 11.5 76t31.5 55t47.5 33.5t60.5 11.5q70 0 110.5 -44t40.5 -132t-41.5 -132.5t-108.5 -44.5q-72 0 -112 45zM619 48q44 0 61 31.5 t17 83.5q0 51 -16.5 81.5t-61.5 30.5q-43 0 -60 -31t-17 -82t17.5 -82.5t59.5 -31.5zM199 393q44 0 61 31t17 83q0 51 -16.5 81.5t-61.5 30.5q-42 0 -59 -31t-17 -82t17 -82t59 -31zM570 644q9 14 25 26.5t39 12.5q16 0 26 -2t17 -5l-450 -676h-86z" />
<glyph unicode="&#x26;" horiz-adv-x="698" d="M475 93q-42 -46 -92 -75t-116 -29q-57 0 -97.5 16.5t-67 43.5t-38.5 63t-12 75q0 45 14 81t37 64t53.5 48.5t63.5 33.5h-1q-23 30 -33.5 56.5t-10.5 61.5q0 34 14 62t37.5 47.5t55 30t66.5 10.5q42 0 71 -9.5t50 -23.5q22 -16 22 -36q0 -13 -11 -28t-19 -24h-10 q-21 20 -44 33t-56 13q-36 0 -61.5 -20.5t-25.5 -59.5q0 -26 12 -49t31 -47q38 -48 83 -103t84 -103q14 35 22 73.5t9 81.5v25.5t-1 27.5h161v-65h-88q-2 -57 -16 -111.5t-36 -96.5l128 -157q-11 -5 -24 -8.5t-25 -3.5q-39 0 -66 30zM262 354q-26 -11 -49 -26t-40 -35 t-27 -45t-10 -55q0 -55 34.5 -92.5t98.5 -37.5q51 0 86.5 22t69.5 67l-82 101z" />
<glyph unicode="'" horiz-adv-x="179" d="M49 681q3 0 8 0.5t7 0.5q23 0 42 -14t19 -49v-4l-7 -179h-69v245z" />
<glyph unicode="(" horiz-adv-x="283" d="M249 -121q-10 -2 -18 -2q-12 0 -22.5 4.5t-21.5 12.5q-12 9 -34.5 36t-44 75.5t-38 121t-16.5 172.5q0 88 15.5 157.5t36.5 119t43.5 80t37.5 42.5q10 8 20 13t23 5q12 0 20 -1.5t15 -4.5l-25.5 -34t-39.5 -75t-36 -123.5t-16 -178.5q0 -109 17.5 -186.5t39.5 -128.5 q13 -29 27.5 -54t30.5 -45q-8 -5 -14 -6z" />
<glyph unicode=")" horiz-adv-x="281" d="M26 -121q-6 1 -14 6q16 20 30.5 45t27.5 54q22 51 39.5 128.5t17.5 186.5q0 104 -16 178.5t-36 123.5t-39.5 75l-25.5 34q13 6 35 6q13 0 23 -5t20 -13q15 -12 37.5 -42.5t43.5 -80t36.5 -119t15.5 -157.5q0 -100 -16.5 -172.5t-38 -121t-44 -75.5t-34.5 -36 q-11 -8 -21.5 -12.5t-22.5 -4.5q-8 0 -18 2z" />
<glyph unicode="*" horiz-adv-x="390" d="M69 565q-4 1 -8.5 3t-9.5 4q-14 8 -14 26q0 13 7 24q11 20 28 20q9 0 18 -5.5t18 -13.5l42 -39q3 -2 6 -7t3 -10q0 -12 -6.5 -16t-14.5 -4q-6 0 -18 3zM96 434q-9 -9 -22 -9q-17 0 -30 22q-6 10 -6 23q0 18 14 26q6 3 12 5t11 4l51 16q10 2 13 2q8 0 13 -6t5 -14 q0 -7 -4 -12.5t-9 -10.5zM282 621q9 8 18 13.5t18 5.5q17 0 28 -20q7 -11 7 -24q0 -18 -14 -26q-5 -2 -9.5 -4t-8.5 -3l-51 -15q-12 -3 -18 -3q-8 0 -14.5 4t-6.5 16q0 5 3 10t6 7zM244 478q-5 5 -9 10.5t-4 12.5q0 8 5 14t13 6q3 0 13 -2l51 -16q5 -2 11 -4t12 -5 q14 -8 14 -26q0 -13 -6 -23q-13 -22 -30 -22q-13 0 -22 9zM164 659q-4 9 -4 25q0 13 9 22.5t28 9.5t28.5 -9t9.5 -23q0 -16 -5 -28l-12 -48q-3 -12 -6.5 -18t-14.5 -6q-16 0 -21 23zM172 465q3 11 7 18t15 7q16 0 20 -22l12 -52q4 -11 4 -25q0 -13 -9 -22.5t-28 -9.5 q-38 0 -38 31q0 7 1.5 15.5t3.5 13.5z" />
<glyph unicode="+" horiz-adv-x="549" d="M233 297h-156v80h156v160h82v-159h157v-80h-157v-161h-82v160z" />
<glyph unicode="," horiz-adv-x="226" d="M70 -118q-25 0 -35 31q9 4 19.5 11.5t19.5 17.5t15.5 21t9.5 23q-12 8 -25.5 23t-13.5 38q0 25 14 41.5t40 16.5q29 0 43 -20.5t14 -49.5q0 -23 -5.5 -45t-14.5 -41t-21.5 -33.5t-27.5 -23.5q-16 -10 -32 -10z" />
<glyph unicode="-" horiz-adv-x="441" d="M323 314q9 0 18.5 -1t17.5 -6t13.5 -15t5.5 -28q0 -5 -0.5 -11t-0.5 -11q-1 -4 -1 -11h-255q-21 0 -36 11.5t-15 40.5v10.5t1 10.5q0 7 1 10h251z" />
<glyph unicode="." horiz-adv-x="225" d="M71 3q-16 17 -16 44q0 26 16.5 44t40.5 18q25 0 41.5 -18t16.5 -44t-16 -44t-42 -18q-25 0 -41 18z" />
<glyph unicode="/" horiz-adv-x="381" d="M267 630q6 17 20 29.5t37 12.5q16 0 26 -2t17 -5l-269 -665h-86z" />
<glyph unicode="0" horiz-adv-x="549" d="M98 70q-60 85 -60 256q0 79 15 142.5t45 108t75 68.5t105 24q118 0 174.5 -90t56.5 -253q0 -166 -59.5 -253.5t-174.5 -87.5q-116 0 -177 85zM216 75q28 -14 60 -14q33 0 59 13.5t45 44.5t29 82t10 125q0 75 -10 125.5t-29 81.5t-45 44.5t-59 13.5t-60 -13.5t-46 -44.5 t-29.5 -81.5t-10.5 -125.5q0 -109 22.5 -169.5t63.5 -81.5z" />
<glyph unicode="1" horiz-adv-x="549" d="M272 557l-140 -73q-8 10 -18 25t-10 28q0 10 6 19t16 14l130 72q19 11 33.5 17t28.5 6q13 0 24 -4.5t16 -9.5v-651h-86v557z" />
<glyph unicode="2" horiz-adv-x="549" d="M58 70q19 15 45 37t54.5 49t58.5 58t58 64q43 51 69.5 97.5t26.5 100.5q0 33 -9.5 54.5t-26 35t-38 19t-45.5 5.5q-26 0 -49 -8t-41.5 -19.5t-33 -24.5t-24.5 -24h-15q-30 33 -30 51q0 9 5 17t12 14q6 6 22 18t40 24.5t55 21.5t68 9q40 0 76 -10t63 -32t43 -58t16 -88 q0 -77 -37.5 -142t-91.5 -121q-42 -45 -81.5 -82.5t-68.5 -60.5h236q32 0 47 -15.5t15 -37.5q0 -13 -3 -22h-416v70z" />
<glyph unicode="3" horiz-adv-x="549" d="M202 384h36q13 0 34.5 4t41.5 16t34.5 34t14.5 58q0 96 -114 96q-27 0 -50.5 -7t-42 -17.5t-33 -22.5t-24.5 -22h-13q-15 13 -24 26t-9 23q0 11 10 22.5t23 21.5q28 21 73 37t96 16t88 -12.5t61 -35t35.5 -52.5t11.5 -66q0 -35 -10.5 -60.5t-25.5 -44.5t-32 -30.5 t-29 -17.5q15 -6 34.5 -17t37 -29.5t29.5 -46.5t12 -67q0 -44 -13.5 -81.5t-41.5 -64.5t-70.5 -42.5t-99.5 -15.5q-36 0 -66 5.5t-53 14t-38.5 17t-23.5 14.5q-20 15 -20 33q0 11 10.5 28.5t24.5 36.5q9 -10 24 -23t36 -24t47 -19t57 -8q25 0 49.5 6t44.5 20.5t32.5 39 t12.5 61.5q0 42 -17 66t-40 37t-47 16.5t-37 3.5h-36v73z" />
<glyph unicode="4" horiz-adv-x="549" d="M56 240l267 373q17 23 33 37t40 14q23 0 37 -10v-409h31q26 0 36.5 -12.5t10.5 -31.5q0 -5 -0.5 -9.5t-1.5 -9.5q-1 -3 -1 -9h-75v-173h-86v173h-291v67zM347 246v288l-209 -288h209z" />
<glyph unicode="5" horiz-adv-x="549" d="M114 661h330q2 -5 2.5 -10t0.5 -12q0 -36 -17 -46.5t-45 -10.5h-203l-17 -169q13 3 32.5 6.5t45.5 3.5q46 0 87 -11t72.5 -36.5t50 -66.5t18.5 -101q0 -46 -14.5 -86.5t-43 -70.5t-72 -47.5t-100.5 -17.5q-39 0 -69.5 5.5t-52.5 13t-36 15.5t-20 13q-8 6 -14 14.5 t-6 20.5q0 13 9.5 29t23.5 35q9 -10 24.5 -22.5t36.5 -23t48 -18t59 -7.5q25 0 50 8t45 25t32 44t12 65q0 48 -15 76.5t-38.5 44t-51.5 20.5t-54 5q-34 0 -64 -6t-50 -13l-28 13z" />
<glyph unicode="6" horiz-adv-x="549" d="M183 408q22 14 54 26.5t73 12.5q48 0 82.5 -18.5t57 -49.5t33.5 -71.5t11 -84.5q0 -57 -16 -101.5t-44.5 -75t-67.5 -46t-84 -15.5q-112 0 -166 74t-54 212q0 91 24 160.5t63 118t88 77t99 38.5q15 3 29 4t25 1q44 0 44 -42q0 -20 -3 -33q-8 1 -15 1h-15 q-63 0 -106.5 -24t-71.5 -57.5t-43 -68.5t-20 -56zM148 255q0 -30 5 -64.5t20 -63.5t41.5 -48.5t70.5 -19.5q55 0 87.5 42.5t32.5 115.5q0 33 -6.5 61.5t-20.5 50t-36.5 33.5t-54.5 12q-25 0 -47 -7t-39.5 -16.5t-30.5 -20t-19 -16.5l-3 -28v-31z" />
<glyph unicode="7" horiz-adv-x="549" d="M387 580h-333q-1 3 -1 8q-1 4 -1 9v10q0 24 15 39t46 15h338q20 0 29.5 -7t9.5 -27v-24l-286 -603h-94z" />
<glyph unicode="8" horiz-adv-x="549" d="M90 408q-24 40 -24 85q0 43 17.5 76t47 55t66.5 33.5t76 11.5q41 0 78.5 -10t66 -31t45.5 -53t17 -76q0 -48 -25.5 -86.5t-70.5 -61.5q27 -9 48.5 -26t37 -39.5t24 -49t8.5 -53.5q0 -51 -18 -88.5t-49 -62t-72.5 -36t-89.5 -11.5q-51 0 -93 11.5t-72.5 35.5t-47 60.5 t-16.5 86.5q0 27 9.5 53.5t25 49t36.5 40t45 27.5q-22 10 -39.5 24.5t-30.5 34.5zM170 88q41 -32 103 -32q63 0 102.5 33.5t39.5 94.5q0 57 -38 92t-104 35q-33 0 -59.5 -10t-45 -27t-28.5 -41t-10 -52q0 -62 40 -93zM186 416q36 -30 87 -30q25 0 47 8.5t38.5 23t26 34 t9.5 42.5q0 25 -9.5 45t-26 33t-38.5 20t-47 7q-51 0 -86.5 -27.5t-35.5 -79.5q0 -23 9.5 -42t25.5 -34z" />
<glyph unicode="9" horiz-adv-x="549" d="M148 59q63 0 107 23.5t72 57t42.5 69.5t18.5 61q-9 -8 -21.5 -17.5t-30 -18t-39.5 -14.5t-49 -6q-51 0 -87.5 18.5t-60 49.5t-34.5 70.5t-11 81.5q0 57 16 101t44.5 73.5t67.5 45t85 15.5q55 0 96 -19.5t68.5 -56t41.5 -88t14 -115.5q0 -101 -27 -176.5t-71.5 -126.5 t-102 -76.5t-118.5 -25.5q-25 0 -39 8t-14 33q0 10 0.5 18.5t1.5 15.5q5 -1 15 -1h15zM399 379q1 6 1 12v13q0 28 -5 61t-20 62t-41.5 48.5t-69.5 19.5q-54 0 -87 -41t-33 -113q0 -70 27.5 -113t93.5 -43q25 0 47 7.5t39.5 18.5t29.5 24t17 24q1 5 1 10v10z" />
<glyph unicode=":" horiz-adv-x="225" d="M71 3q-16 17 -16 44q0 26 16.5 44t40.5 18q25 0 41.5 -18t16.5 -44t-16 -44t-42 -18q-25 0 -41 18zM71 381q-16 17 -16 44q0 26 16.5 44t40.5 18q25 0 41.5 -18t16.5 -44t-16 -44t-42 -18q-25 0 -41 18z" />
<glyph unicode=";" horiz-adv-x="238" d="M70 -118q-25 0 -35 31q9 4 19.5 11.5t19.5 17.5t15.5 21t9.5 23q-12 8 -25.5 23t-13.5 38q0 25 14 41.5t40 16.5q29 0 43 -20.5t14 -49.5q0 -23 -5.5 -45t-14.5 -41t-21.5 -33.5t-27.5 -23.5q-16 -10 -32 -10zM84 381q-16 17 -16 44q0 26 16.5 44t40.5 18q25 0 41.5 -18 t16.5 -44t-16 -44t-42 -18q-25 0 -41 18z" />
<glyph unicode="&#x3c;" horiz-adv-x="549" d="M86 373l375 172v-87l-261 -122l261 -122v-90l-375 175v74z" />
<glyph unicode="=" horiz-adv-x="549" d="M78 466h393v-80l-393 -1v81zM78 283h393v-80h-393v80z" />
<glyph unicode="&#x3e;" horiz-adv-x="549" d="M86 214l262 123l-262 119v89l375 -172v-74l-375 -175v90z" />
<glyph unicode="?" horiz-adv-x="439" d="M46 550q-8 11 -16.5 25t-8.5 27q0 15 17 27q7 6 21 15t35 17.5t48.5 14.5t62.5 6q40 0 75.5 -10.5t62.5 -32t43 -54.5t16 -78q0 -30 -8 -54.5t-21 -45.5t-29 -38.5t-32 -32.5q-35 -30 -61 -59.5t-26 -61.5q0 -8 1 -19t3 -21q-4 -1 -9.5 -1h-10.5q-27 0 -41.5 16.5 t-14.5 45.5q0 40 24.5 71t56.5 60q30 28 54.5 60.5t24.5 76.5q0 28 -9.5 47.5t-26 32t-37.5 18t-45 5.5q-27 0 -49 -6t-39 -15t-29.5 -19t-19.5 -17h-12zM152 2q-16 17 -16 44q0 26 16.5 44t40.5 18q26 0 42.5 -18t16.5 -44t-16.5 -43.5t-42.5 -17.5q-24 0 -41 17z" />
<glyph unicode="@" horiz-adv-x="792" d="M159 343q-10 13 -14.5 23t-4.5 21t14.5 22.5t38.5 21t54 15.5t61 6q84 0 131.5 -40t47.5 -129v-142q0 -28 7.5 -40t38.5 -13v-37q-23 -6 -42 -6q-33 0 -57 17.5t-24 59.5v94h-20q-15 0 -37.5 -1.5t-47 -6t-48.5 -13t-43.5 -23t-31.5 -36.5t-12 -52q0 -18 7 -41t28 -43 t59.5 -34t101.5 -14q58 0 109 18t88 56t58.5 97.5t21.5 142.5q0 73 -23.5 128t-65 92t-98.5 55.5t-124 18.5q-47 0 -88 -9.5t-74 -23t-56 -27.5t-35 -24h-11q-11 9 -18.5 21.5t-7.5 22.5q0 22 43 48q20 11 47 22.5t59 21t69 15.5t77 6q94 0 165.5 -28.5t119.5 -78t72 -116.5 t24 -144q0 -87 -24 -158t-70 -121t-113.5 -77.5t-153.5 -27.5q-70 0 -120.5 15t-83 42t-48 64t-15.5 81q0 62 30.5 99t74 56.5t90 26t79.5 8.5h24t20 -1q-1 22 -6.5 42.5t-17.5 35.5t-33 24t-53 9q-38 0 -70.5 -12.5t-53.5 -28.5h-15z" />
<glyph unicode="A" horiz-adv-x="625" d="M264 663q7 3 21 6t28 3q19 0 34.5 -8.5t24.5 -32.5l231 -631h-91l-67 180h-270l-65 -180h-88zM422 251l-112 319l-113 -319h225z" />
<glyph unicode="B" horiz-adv-x="567" d="M78 667q41 4 78 6.5t85 2.5q69 0 116.5 -11t76.5 -32t42 -52.5t13 -71.5q0 -35 -10 -61.5t-24.5 -45.5t-31.5 -31t-31 -18q16 -4 38.5 -13.5t42 -27.5t33.5 -47t14 -73q0 -56 -19 -93t-54 -59t-85 -31t-111 -9h-173v667zM228 72q45 0 82 4t64 16.5t42 36.5t15 64 q0 35 -14 57.5t-38 36t-54.5 18.5t-63.5 5h-96v-238h63zM260 381q63 0 102.5 32.5t39.5 92.5q0 31 -12.5 50.5t-34.5 30t-52.5 14.5t-66.5 4q-24 0 -42 -1t-29 -3v-220h95z" />
<glyph unicode="C" horiz-adv-x="596" d="M512 534q-11 12 -25.5 25t-33.5 23t-42.5 16.5t-53.5 6.5q-60 0 -99.5 -23.5t-63 -62t-33.5 -87t-10 -99.5q0 -52 10.5 -101t35.5 -87.5t66 -61.5t102 -23q33 0 60 9.5t47 22.5t32.5 25t17.5 18q11 -9 23.5 -25.5t12.5 -28.5q0 -16 -14 -30q-5 -5 -19 -16t-37 -22 t-56 -19.5t-76 -8.5q-77 0 -133 26t-92 72t-53 110t-17 139t17.5 139.5t54 111t92 73t132.5 26.5q39 0 75 -9t63.5 -23t44 -31t16.5 -32q0 -13 -8.5 -27.5t-17.5 -25.5h-18z" />
<glyph unicode="D" horiz-adv-x="633" d="M79 666q54 6 94 8t75 2q96 0 160 -26t102.5 -71t54.5 -105t16 -128q0 -91 -30 -166t-94 -123q-39 -28 -94 -42.5t-128 -14.5h-156v666zM249 74q67 0 113.5 21t75 57t41 84.5t12.5 104.5t-11 103.5t-39 82t-74.5 53.5t-116.5 19q-20 0 -41.5 -1t-42.5 -4v-520h83z" />
<glyph unicode="E" horiz-adv-x="509" d="M78 669h386q1 -4 1.5 -8.5t0.5 -12.5q0 -23 -13 -38.5t-48 -15.5h-240v-206h227v-77h-227v-236h254q32 0 47 -15.5t15 -38.5v-8.5t-1 -12.5h-402v669z" />
<glyph unicode="F" horiz-adv-x="475" d="M78 669h386q1 -5 1.5 -8.5t0.5 -12.5q0 -23 -13 -38.5t-49 -15.5h-239v-200h227v-76h-227v-318h-87v669z" />
<glyph unicode="G" horiz-adv-x="651" d="M507 279h-140v71h223v-283q-7 -9 -25.5 -22.5t-48 -27t-69.5 -23t-89 -9.5q-77 0 -133 26t-92.5 73t-54 111.5t-17.5 141.5q0 75 18 138.5t55 109t94.5 71.5t135.5 26q36 0 71 -8.5t62 -22t44 -30t17 -31.5q0 -12 -8 -27t-18 -27h-17q-9 11 -23.5 23.5t-34.5 22.5 t-45 16.5t-54 6.5q-61 0 -101 -23t-64 -60.5t-33.5 -85.5t-9.5 -99q0 -53 10.5 -103t36 -89t67 -63t103.5 -24q28 0 51.5 5t41.5 12t29.5 14.5t17.5 13.5v176z" />
<glyph unicode="H" horiz-adv-x="650" d="M79 670q6 1 13 1.5t12 0.5q10 0 21 -2.5t20 -9t15 -19t6 -32.5v-223h318v284q6 1 13 1.5t12 0.5q10 0 21 -2.5t20 -9t15 -19t6 -32.5v-609h-87v310h-318v-310h-87v670z" />
<glyph unicode="I" horiz-adv-x="240" d="M76 670q6 1 13 1.5t12 0.5q10 0 20.5 -2t20 -9t15.5 -19t7 -33v-609h-88v670z" />
<glyph unicode="J" horiz-adv-x="248" d="M84 670q6 1 13 1.5t12 0.5q10 0 21 -2.5t20 -9t15 -19t6 -32.5v-540q0 -21 -1 -43t-3 -45q-3 -29 -13.5 -57.5t-30 -51t-48.5 -36.5t-69 -14q-32 0 -42.5 14t-10.5 35v12.5t1 11.5q73 0 101.5 29t28.5 97v649z" />
<glyph unicode="K" horiz-adv-x="562" d="M184 340v32l239 267q16 17 28.5 24t27.5 7t30.5 -6.5t27.5 -14.5l-259 -289l278 -356q-12 -5 -27.5 -8.5t-27.5 -3.5q-26 0 -42.5 9t-31.5 28zM79 670q5 1 10.5 1.5t13.5 0.5q9 0 19.5 -2.5t20.5 -9t16.5 -19t6.5 -32.5v-609h-87v670z" />
<glyph unicode="L" horiz-adv-x="479" d="M78 670q6 1 13 1.5t12 0.5q10 0 21 -2.5t20 -9t15 -19t6 -32.5v-533h232q32 0 46 -15.5t14 -37.5v-9.5t-1 -13.5h-378v670z" />
<glyph unicode="M" horiz-adv-x="794" d="M112 666q7 2 18 4t25 2q21 0 33.5 -10t20.5 -27l186 -404l186 402q11 24 27.5 31.5t32.5 7.5q13 0 25 -2t19 -4l47 -666h-82l-36 526l-178 -374h-85l-169 357l-37 -509h-83z" />
<glyph unicode="N" horiz-adv-x="660" d="M79 667q6 2 17 3.5t22 1.5q22 0 34.5 -7.5t23.5 -25.5l324 -506v537q6 1 12.5 1.5t11.5 0.5q9 0 19 -2.5t18.5 -9t14 -19t5.5 -32.5v-609h-81l-340 519v-519h-81v667z" />
<glyph unicode="O" horiz-adv-x="699" d="M638 338q0 -72 -16.5 -136t-51.5 -112t-90.5 -76.5t-133.5 -28.5t-132.5 29.5t-88.5 78t-49 112t-15 132.5t17 131.5t53 110t91.5 75.5t132.5 28q75 0 128.5 -27t88 -73.5t50.5 -109.5t16 -134zM547 337q0 55 -10 103.5t-32.5 85t-60 58t-91.5 21.5q-57 0 -95 -21.5 t-61.5 -58t-33.5 -85t-10 -103.5q0 -54 10 -103.5t33 -87.5t60.5 -61t93.5 -23q55 0 93 23t61 61t33 87.5t10 103.5z" />
<glyph unicode="P" horiz-adv-x="538" d="M78 667q37 4 78.5 6.5t79.5 2.5q138 0 201.5 -49t63.5 -146q0 -65 -21.5 -108t-58.5 -69t-85 -36.5t-100 -10.5h-71v-257h-87v667zM204 330q49 0 87.5 6t65 22t40.5 44.5t14 73.5q0 37 -13 61.5t-35.5 39t-53.5 20.5t-66 6q-26 0 -45 -1t-36 -3h2v-269h40z" />
<glyph unicode="Q" horiz-adv-x="705" d="M129 91q-34 49 -49.5 113t-15.5 133t17 131.5t53 110t91.5 75.5t132.5 28q75 0 128.5 -27t88 -73.5t50.5 -109.5t16 -134q0 -72 -16.5 -136t-51.5 -112t-90.5 -76.5t-133.5 -28.5t-132 29t-88 77zM259 84q37 -22 94 -22q55 0 93 22.5t61 61t33 88t10 103.5t-10 102 t-32.5 84.5t-60 57.5t-91.5 21q-57 0 -95 -21t-61.5 -57.5t-33.5 -84.5t-10 -102q0 -41 5.5 -79t18 -71t32 -59.5t47.5 -43.5zM373 -54q13 9 24 9q15 0 30 -8t32 -19q22 -14 53.5 -27.5t82.5 -14.5q0 -36 -17.5 -57t-43.5 -21q-24 0 -50.5 12.5t-51 30.5t-44.5 38.5 t-32 37.5q4 9 17 19z" />
<glyph unicode="R" horiz-adv-x="556" d="M79 667q36 5 77.5 7t79.5 2q137 0 197 -46.5t60 -144.5q0 -42 -12 -75t-32 -57.5t-46.5 -40t-56.5 -22.5l183 -290q-10 -5 -23 -7t-24 -2q-46 0 -71 39l-156 244h-89v-274h-87v667zM237 348q37 0 67 7t52 23t34 41t12 61q0 37 -11.5 61t-33 37.5t-52 18.5t-67.5 5 q-23 0 -40.5 -1t-31.5 -3v-250h71z" />
<glyph unicode="S" horiz-adv-x="496" d="M392 561q-20 16 -55 30t-80 14q-35 0 -58.5 -8.5t-38 -22t-21 -32t-6.5 -37.5q0 -25 10 -43t29 -31.5t46 -24.5t62 -22q34 -11 66 -26.5t56 -38.5t38.5 -55t14.5 -75q0 -50 -16.5 -88t-46.5 -64t-71.5 -39t-91.5 -13q-55 0 -102.5 12t-74.5 32q-25 16 -25 37q0 11 9 28 t21 32q32 -26 76.5 -45.5t95.5 -19.5q39 0 65 10t41.5 26t22.5 36.5t7 42.5q0 29 -8.5 49.5t-25 35.5t-41.5 26.5t-57 21.5q-37 11 -71 24.5t-60.5 35t-42.5 52.5t-16 77q0 45 16.5 79.5t45 57.5t67.5 35t85 12q37 0 79.5 -9.5t72.5 -27.5q16 -10 27 -21.5t11 -26.5 q0 -12 -9.5 -26t-23.5 -28q-4 4 -9.5 8.5t-12.5 9.5z" />
<glyph unicode="T" horiz-adv-x="540" d="M223 593h-212q-3 13 -3 28q0 19 15.5 33.5t45.5 14.5h459q1 -5 1.5 -12.5t0.5 -10.5q0 -22 -15 -37.5t-46 -15.5h-158v-593h-88v593z" />
<glyph unicode="U" horiz-adv-x="637" d="M74 670q6 1 13 1.5t12 0.5q10 0 21 -2.5t20 -9t15 -19t6 -32.5v-355q0 -42 7.5 -77t25 -60.5t47 -39.5t74.5 -14q69 0 106.5 26t48.5 86q6 33 6 79v416q6 1 13 1.5t12 0.5q10 0 21 -2.5t20 -9t15 -19t6 -32.5v-343q0 -20 -0.5 -41t-2.5 -40q-4 -42 -19.5 -78.5 t-45.5 -63.5t-74.5 -42.5t-107.5 -15.5q-108 0 -162.5 48t-70.5 133q-4 21 -5 46t-1 51v407z" />
<glyph unicode="V" horiz-adv-x="583" d="M9 667q15 5 46 5q50 0 67 -56l168 -529l177 529q8 26 25 41t44 15q11 0 19.5 -1.5t18.5 -3.5l-240 -672h-91z" />
<glyph unicode="W" horiz-adv-x="878" d="M11 666q7 2 19 4t25 2q27 0 42 -14.5t23 -40.5l161 -519l123 413l-43 156q10 2 20 3.5t21 1.5q46 0 63 -56l146 -514l153 513q8 27 22.5 42t40.5 15q18 0 40 -5l-213 -672h-87l-124 405l-123 -405h-87z" />
<glyph unicode="X" horiz-adv-x="561" d="M229 337l-186 323q13 5 27 8.5t25 3.5q42 0 66 -44l122 -221l131 220q17 29 35 36.5t34 7.5q26 0 45 -11l-195 -322l205 -338q-23 -10 -47 -10q-27 0 -43 12t-31 36l-139 229l-157 -267h-95z" />
<glyph unicode="Y" horiz-adv-x="524" d="M218 275l-215 387q9 5 23 8t29 3q24 0 38 -10t25 -31l145 -275l145 267q11 20 26.5 34t40.5 14q11 0 22 -2t24 -6l-215 -387v-277h-88v275z" />
<glyph unicode="Z" horiz-adv-x="521" d="M15 64l370 530h-341q-3 13 -3 28q0 19 15 33t46 14h358q17 0 26.5 -7.5t9.5 -26.5v-28l-376 -532h320q31 0 46 -15.5t15 -37.5q0 -13 -3 -22h-483v64z" />
<glyph unicode="[" horiz-adv-x="269" d="M60 717h187v-71h-104v-709h104v-71h-187v851z" />
<glyph unicode="\" horiz-adv-x="381" d="M281 0l-269 665q7 3 17 5t26 2q23 0 37 -12.5t20 -29.5l255 -630h-86z" />
<glyph unicode="]" horiz-adv-x="269" d="M22 -134v71h104v709h-104v71h187v-851h-187z" />
<glyph unicode="^" horiz-adv-x="583" d="M239 669h92l156 -370h-79l-123 310l-122 -310h-80z" />
<glyph unicode="_" horiz-adv-x="468" d="M38 -91h392v-63h-392v63z" />
<glyph unicode="`" horiz-adv-x="365" d="M79 675q11 9 27 16.5t30 7.5q19 0 30.5 -10t22.5 -25l84 -110q-8 -6 -19.5 -11t-22.5 -5q-15 0 -27.5 7.5t-23.5 20.5z" />
<glyph unicode="a" horiz-adv-x="504" d="M91 365q-8 13 -13.5 28t-5.5 24q0 13 16 24.5t41.5 20.5t56.5 14t61 5q51 0 85 -11t55 -33t29.5 -55t8.5 -76v-197q0 -24 2 -37.5t7.5 -20t15 -8.5t24.5 -2v-40q-9 -3 -22 -5t-27 -2q-31 0 -54 12.5t-27 44.5q-25 -25 -60 -42.5t-92 -17.5q-26 0 -52.5 6t-48 22t-35.5 43 t-14 69q0 52 26.5 85t65.5 52t83.5 26t81.5 8h21t21 -1v15q0 45 -21.5 68.5t-82.5 23.5q-45 0 -76 -11.5t-60 -31.5h-10zM342 237h-29q-32 0 -65 -4t-60 -15t-44 -31t-17 -51q0 -30 18 -53t67 -23q26 0 49.5 7.5t41.5 18.5t28.5 24t10.5 25v102z" />
<glyph unicode="b" horiz-adv-x="539" d="M74 709q7 1 11.5 1h6.5q30 0 48.5 -15t18.5 -53v-212q20 20 53 35.5t84 15.5q39 0 73.5 -13t61 -41.5t42 -74t15.5 -111.5q0 -75 -18.5 -124.5t-48 -78.5t-65.5 -41t-70 -12q-29 0 -50.5 6t-37.5 14.5t-26 18t-15 16.5v-40h-83v709zM159 113q6 -8 16 -17.5t24.5 -17.5 t33 -14t39.5 -6q63 0 94 45.5t31 132.5q0 36 -6.5 68t-21 55t-39 36.5t-60.5 13.5q-49 0 -80 -21t-31 -50v-225z" />
<glyph unicode="c" horiz-adv-x="463" d="M396 352q-17 20 -44 37.5t-73 17.5q-38 0 -65 -13t-44.5 -36.5t-25.5 -55t-8 -67.5q0 -37 8 -69.5t25.5 -56.5t45.5 -38t67 -14q27 0 48.5 8.5t36.5 19.5q20 13 32 28q4 -4 9.5 -10.5t11 -14t9 -15.5t3.5 -15q0 -14 -21 -32q-19 -17 -54.5 -29t-86.5 -12q-32 0 -70.5 9 t-72 36t-56.5 75.5t-23 128.5q0 74 24 122t59 75.5t74.5 38.5t69.5 11q36 0 64.5 -7.5t49 -19t31.5 -24.5t11 -25t-8 -27t-16 -26h-11z" />
<glyph unicode="d" horiz-adv-x="538" d="M381 40q-8 -8 -20 -18t-28.5 -18t-37.5 -13.5t-46 -5.5q-39 0 -75 13t-63.5 41.5t-43.5 75t-16 113.5q0 66 16.5 114t44 78.5t64 45.5t75.5 15q45 0 76.5 -15t51.5 -34v277q7 1 11.5 1h6.5q30 0 48.5 -15t18.5 -53v-642h-83v40zM379 357h1q-6 6 -15.5 14.5t-24 17 t-33.5 14t-43 5.5q-57 0 -90 -42.5t-33 -127.5q0 -39 6 -72t21 -57.5t39.5 -38t60.5 -13.5q24 0 44.5 6t35.5 15t23 21t8 24v234z" />
<glyph unicode="e" horiz-adv-x="498" d="M136 219q3 -73 38.5 -117.5t109.5 -44.5q28 0 50 6t38 14.5t26.5 18.5t17.5 18q11 -14 19.5 -30t8.5 -25q0 -8 -5 -16.5t-17 -17.5q-23 -17 -59 -28.5t-87 -11.5q-47 0 -88.5 13.5t-72.5 43.5t-49 78.5t-18 118.5q0 63 18.5 109t48.5 75.5t68.5 43.5t79.5 14 q51 0 87.5 -17t59.5 -45.5t34 -66t11 -77.5q0 -14 -0.5 -28.5t-2.5 -27.5h-316zM370 283q0 27 -5.5 50t-18.5 40.5t-34.5 27.5t-52.5 10q-52 0 -85.5 -34t-37.5 -94h234z" />
<glyph unicode="f" horiz-adv-x="337" d="M73 522q0 97 45 146t130 49q31 0 57 -7t44.5 -17t28.5 -21.5t10 -21.5q0 -14 -8 -27.5t-17 -24.5h-13q-17 21 -41.5 33.5t-55.5 12.5q-45 0 -70 -24.5t-25 -84.5v-65h168v-73h-168v-397h-85v522z" />
<glyph unicode="g" horiz-adv-x="538" d="M381 40q-8 -8 -20 -18t-28.5 -18t-37.5 -13.5t-46 -5.5q-39 0 -75 13t-63.5 41.5t-43.5 75t-16 113.5q0 66 16 114t43 78.5t63 45.5t76 15q48 0 79.5 -14.5t52.5 -36.5q5 22 23 32.5t35 10.5h11t14 -2v-438q0 -61 -10.5 -108.5t-36.5 -80.5t-70 -50.5t-111 -17.5 q-48 0 -82.5 9t-57.5 22q-18 11 -25.5 21t-7.5 21q0 13 11.5 29t20.5 26q2 -3 13 -11.5t29.5 -18.5t43.5 -17.5t55 -7.5q48 0 76.5 13.5t44 38t20 58t4.5 74.5v7zM379 357h1q-6 6 -15.5 14.5t-24 17t-33.5 14t-43 5.5q-57 0 -90 -42.5t-33 -127.5q0 -39 6 -72t21 -57.5 t39.5 -38t60.5 -13.5q24 0 44.5 6t35.5 15t23 21t8 24v234z" />
<glyph unicode="h" horiz-adv-x="544" d="M74 709q7 1 11.5 1h6.5q30 0 48 -15t18 -53v-220q26 29 66 44t85 15q70 0 107 -31.5t47 -73.5q5 -20 6 -44.5t1 -47.5v-284h-85v281q0 19 -0.5 36.5t-5.5 32.5q-7 26 -29 40t-65 14q-29 0 -52 -6.5t-39.5 -16.5t-25.5 -23t-9 -26v-332h-85v709z" />
<glyph unicode="i" horiz-adv-x="241" d="M58 624q0 25 15.5 41t38.5 16t38.5 -16t15.5 -41q0 -23 -15.5 -38.5t-38.5 -15.5t-38.5 15.5t-15.5 38.5zM73 475q7 1 11.5 1h6.5q30 0 48.5 -15t18.5 -53v-318q0 -29 8.5 -41t39.5 -12v-36q-9 -3 -24.5 -5t-30.5 -2q-29 0 -44.5 9t-23 24t-9 33.5t-1.5 36.5v378z" />
<glyph unicode="j" horiz-adv-x="234" d="M67 624q0 25 15.5 41t38.5 16t38.5 -16t15.5 -41q0 -23 -15.5 -38.5t-38.5 -15.5t-38.5 15.5t-15.5 38.5zM80 475q7 1 11.5 1h6.5q30 0 48.5 -15t18.5 -53v-455q0 -60 -15.5 -95t-37 -53.5t-44.5 -23.5t-39 -5q-17 0 -27 5.5t-15 14.5t-6.5 21t-1.5 25q60 2 80.5 29 t20.5 81v523z" />
<glyph unicode="k" horiz-adv-x="492" d="M182 246v33l172 171q29 26 57 26q17 0 29 -6t22 -15l-192 -189l222 -265q-24 -9 -50 -9q-20 0 -39.5 8.5t-35.5 27.5zM74 709q7 1 11.5 1h6.5q30 0 48.5 -15t18.5 -53v-642h-85v709z" />
<glyph unicode="l" horiz-adv-x="241" d="M73 709q7 1 11.5 1h6.5q30 0 48.5 -15t18.5 -53v-548q0 -15 1 -25.5t5.5 -17.5t14 -10.5t27.5 -3.5v-36q-9 -3 -24.5 -5t-30.5 -2q-29 0 -44.5 9t-23 24t-9 33.5t-1.5 36.5v612z" />
<glyph unicode="m" horiz-adv-x="817" d="M74 472q8 1 12.5 1h6.5q26 0 42.5 -12.5t20.5 -38.5q23 24 60.5 41.5t88.5 17.5q18 0 37 -3.5t37 -11t33 -19.5t24 -28q23 25 62.5 43.5t90.5 18.5q66 0 101.5 -30t45.5 -75q5 -20 6 -44.5t1 -47.5v-284h-85v281q0 19 -0.5 36.5t-5.5 32.5q-7 26 -28 40t-66 14 q-33 0 -61.5 -14t-42.5 -31q2 -17 3 -35.5t1 -38.5v-285h-85v281q0 21 -2 39.5t-7 33.5q-17 50 -90 50q-22 0 -42.5 -6t-36.5 -16t-26 -22.5t-10 -24.5v-335h-85v472z" />
<glyph unicode="n" horiz-adv-x="543" d="M74 472q7 1 11 1h6q23 0 41.5 -11.5t22.5 -39.5q23 23 62.5 41t93.5 18q68 0 104 -30t47 -75q5 -20 6 -44.5t1 -47.5v-284h-85v281q0 19 -0.5 36.5t-5.5 32.5q-8 26 -29.5 40t-64.5 14q-29 0 -52 -6t-39 -16t-25 -23t-9 -26v-333h-85v472z" />
<glyph unicode="o" horiz-adv-x="536" d="M488 237q0 -49 -12 -94.5t-38.5 -80.5t-68.5 -56t-102 -21q-59 0 -101 20t-68 53.5t-38 79t-12 96.5q0 50 14 95t42 78.5t69.5 53.5t97.5 20q58 0 99.5 -20t67.5 -53.5t38 -77.5t12 -93zM398 236q0 31 -5.5 61.5t-19.5 55t-39 39.5t-65 15q-38 0 -63.5 -15t-40.5 -39.5 t-21.5 -55t-6.5 -61.5t5.5 -62.5t20.5 -57.5t40 -42.5t64 -16.5q40 0 66 16.5t40 42t19.5 57.5t5.5 63z" />
<glyph unicode="p" horiz-adv-x="539" d="M74 472q8 1 12.5 1h6.5q24 0 41.5 -11t23.5 -37q19 23 53 39.5t85 16.5q39 0 73.5 -13t61 -41.5t42 -74t15.5 -111.5q0 -75 -18.5 -124.5t-48 -78.5t-65.5 -41t-70 -12q-54 0 -85 18.5t-42 33.5v-253h-85v688zM159 113q6 -8 16 -17.5t24.5 -17.5t33 -14t39.5 -6 q63 0 94 45.5t31 132.5q0 36 -6.5 68t-21 55t-39 36.5t-60.5 13.5q-48 0 -79.5 -20t-31.5 -48v-228z" />
<glyph unicode="q" horiz-adv-x="538" d="M379 38q-17 -17 -48 -35t-79 -18q-42 0 -78.5 13.5t-64 42.5t-43 75t-15.5 111q0 73 18.5 122t48 78t65.5 41.5t71 12.5q26 0 47.5 -6t37 -14t26.5 -17t16 -15q6 24 23.5 34t34.5 10q5 0 11 -0.5t14 -1.5v-687h-85v254zM379 358q-5 6 -14.5 14.5t-23 16.5t-31.5 13.5 t-39 5.5q-67 0 -98.5 -43t-31.5 -131q0 -38 6.5 -70t21.5 -56t40.5 -37.5t63.5 -13.5q23 0 42.5 6.5t33.5 16t22 20.5t8 20v238z" />
<glyph unicode="r" horiz-adv-x="348" d="M74 472q8 1 12.5 1h5.5q23 0 41.5 -11.5t22.5 -38.5q14 21 42 39.5t65 18.5q11 0 23.5 -2t23.5 -6.5t18 -12.5t7 -21q0 -16 -8 -34.5t-16 -30.5q-13 12 -28 18.5t-38 6.5q-17 0 -32.5 -5.5t-27.5 -15t-19 -21.5t-7 -25v-332h-85v472z" />
<glyph unicode="s" horiz-adv-x="419" d="M331 360q-17 21 -49.5 36.5t-69.5 15.5q-13 0 -28.5 -2.5t-29 -9t-22.5 -18.5t-9 -30q0 -16 7.5 -27t21 -19t31.5 -13.5t39 -10.5q30 -7 58 -17.5t49.5 -27t34 -41.5t12.5 -62t-15 -64.5t-40 -46t-58.5 -28t-69.5 -9.5q-35 0 -63 5.5t-47 13.5q-25 10 -35 20.5t-10 21.5 q0 13 7 27t18 32q7 -6 19.5 -14.5t30 -17t38.5 -14t45 -5.5q18 0 35 3.5t30.5 11.5t22 22t8.5 35t-9 34.5t-24 22.5t-33.5 14.5t-37.5 9.5q-29 6 -55.5 15.5t-47 25.5t-33 39.5t-12.5 58.5q0 33 14 58.5t38 42t54.5 25t63.5 8.5q38 0 69.5 -8t50.5 -19q20 -11 27 -20.5 t7 -18.5q0 -11 -5.5 -25.5t-13.5 -28.5z" />
<glyph unicode="t" horiz-adv-x="356" d="M72 614q7 1 11.5 1h6.5q30 0 48.5 -15t18.5 -53v-77h149v-72h-149v-258q0 -82 65 -82q16 0 30 5.5t25.5 13t18.5 14.5t9 10q12 -15 20.5 -29t8.5 -27q0 -9 -9 -19.5t-25 -19.5t-39.5 -15t-51.5 -6q-52 0 -83 20t-44 55q-7 19 -8.5 41.5t-1.5 44.5v468z" />
<glyph unicode="u" horiz-adv-x="537" d="M70 475q7 1 11.5 1h6.5q30 0 48.5 -15t18.5 -53v-233q0 -39 5.5 -62t22.5 -35q15 -11 32.5 -15t40.5 -4q27 0 49.5 7.5t38.5 18.5t25 23.5t9 22.5v344q7 1 11.5 1h6.5q30 0 48.5 -15t18.5 -53v-408h-85v44q-20 -23 -56 -41t-93 -18q-58 0 -90 18t-47.5 46t-18.5 61.5 t-3 64.5v300z" />
<glyph unicode="v" horiz-adv-x="473" d="M15 465q24 8 45 8q30 0 44.5 -18.5t25.5 -53.5l107 -318l109 314q12 37 26.5 56.5t45.5 19.5q12 0 22.5 -2.5t17.5 -6.5l-180 -468h-87z" />
<glyph unicode="w" horiz-adv-x="694" d="M15 466q11 3 21.5 5t22.5 2q47 0 63 -52l103 -330l96 235l-51 141q19 6 40 6q45 0 62 -48l120 -335l82 317q7 27 21 46.5t43 19.5q19 0 41 -8l-143 -469h-85l-94 243l-103 -243h-76z" />
<glyph unicode="x" horiz-adv-x="437" d="M169 233l-153 235q9 2 23.5 5t25.5 3q27 0 41 -10t26 -29l89 -142l90 135q15 23 31 34.5t41 11.5q15 0 25.5 -2.5t18.5 -6.5l-160 -234l159 -232q-8 -4 -22 -6t-24 -2q-17 0 -35.5 7t-32.5 27l-97 142l-91 -139q-14 -22 -32.5 -29.5t-41.5 -7.5q-9 0 -20.5 1.5t-19.5 5.5 z" />
<glyph unicode="y" horiz-adv-x="466" d="M209 1h-34l-162 464q22 8 44 8q26 0 42 -16t24 -41l110 -341l110 332q3 11 8 22.5t13.5 21.5t20.5 16t29 6q20 0 37 -9l-182 -529q-11 -32 -24 -61t-32 -50.5t-46.5 -34.5t-66.5 -13q-38 0 -63.5 11t-25.5 34q0 14 7.5 29t15.5 26q8 -7 24.5 -16.5t41.5 -9.5 q35 0 56.5 26t38.5 80z" />
<glyph unicode="z" horiz-adv-x="428" d="M30 62l259 337h-255q0 37 15.5 55.5t50.5 18.5h254q42 0 42 -35v-24l-264 -340h207q34 0 50 -16t16 -58h-375v62z" />
<glyph unicode="{" horiz-adv-x="317" d="M106 161q0 45 -17 71.5t-53 26.5v72q38 0 54 28t16 77v113q0 36 9 67t28 53.5t48 35t70 12.5q16 0 27 -7.5t11 -26.5q0 -6 -1 -15.5t-4 -21.5q-21 0 -39 -2.5t-32 -11t-22 -23.5t-8 -40v-149q0 -45 -14 -76.5t-50 -48.5q38 -16 51 -54.5t13 -85.5v-143q0 -25 8.5 -40 t22.5 -23.5t32 -11t38 -2.5q3 -13 4 -22.5t1 -16.5q0 -20 -13 -26t-31 -6q-43 0 -71.5 13.5t-46 34.5t-24.5 47t-7 52v150z" />
<glyph unicode="|" horiz-adv-x="259" d="M86 793h78v-979h-78v979z" />
<glyph unicode="}" horiz-adv-x="316" d="M204 11q0 -26 -7 -52t-24.5 -47t-46 -34.5t-71.5 -13.5q-18 0 -31 6t-13 26q0 7 1 16.5t4 22.5q19 0 37.5 2.5t32.5 11t22.5 23.5t8.5 40v143q0 47 13 85.5t51 54.5q-36 17 -50 48.5t-14 76.5v149q0 25 -8 40t-22 23.5t-32 11t-39 2.5q-3 12 -4 21.5t-1 15.5 q0 19 11 26.5t27 7.5q40 0 69.5 -12.5t48.5 -35t28 -53.5t9 -67v-113q0 -49 16 -77t54 -28v-72q-36 0 -53 -26.5t-17 -71.5v-150z" />
<glyph unicode="~" horiz-adv-x="462" d="M14 513q7 69 42.5 106.5t89.5 37.5q38 0 64.5 -15t49.5 -31l4 -3q13 -10 28 -18.5t30 -8.5q30 0 44 21.5t18 55.5h63q-2 -36 -13 -63.5t-27.5 -46t-37.5 -28t-43 -9.5q-29 0 -51.5 12t-42.5 26q-2 2 -3.5 2.5t-3.5 2.5q-2 1 -3 2t-3 2q-17 11 -33.5 20t-37.5 9 q-29 0 -48 -18t-24 -56h-62z" />
<glyph unicode="&#x20ac;" horiz-adv-x="549" d="M28 285h70q-1 8 -1 24v42q0 10 1 19h-70v53h76q10 55 32 100t55.5 77.5t77.5 50.5t98 18q37 0 69.5 -8.5t57 -21.5t38.5 -28.5t14 -29.5q0 -10 -9.5 -26t-17.5 -24h-13q-7 8 -18 18.5t-27.5 20.5t-39.5 16.5t-53 6.5q-39 0 -69 -13t-51.5 -35.5t-35 -53t-19.5 -65.5h241 v-56h-249v-60q0 -16 2 -25h247v-57h-240q7 -36 20 -67t34 -54t50 -36t68 -13q55 3 84.5 21.5t54.5 48.5q4 -5 10 -13l12 -16q6 -8 10 -16.5t4 -14.5q0 -18 -30 -42q-23 -17 -62.5 -28.5t-88.5 -11.5q-64 0 -109.5 21t-75.5 55.5t-46.5 78t-23.5 87.5h-77v57z" />
<glyph unicode="&#x201a;" horiz-adv-x="226" d="M70 -117q-25 0 -35 31q9 4 19.5 11.5t19.5 17.5t15.5 21t9.5 23q-12 8 -25.5 23t-13.5 38t14 40.5t40 17.5q29 0 43 -20.5t14 -49.5q0 -23 -5.5 -45t-14.5 -41t-21.5 -33.5t-27.5 -23.5q-16 -10 -32 -10z" />
<glyph unicode="&#x192;" horiz-adv-x="549" d="M214 368h-100v71h117l19 77q12 46 33 78t48 51.5t57 28t60 8.5q18 0 31 -5t13 -25q0 -8 -1.5 -20t-6.5 -23q-37 -1 -63 -7t-44.5 -20t-30.5 -37.5t-20 -59.5l-10 -46h158v-71l-174 3l-67 -308q-19 -85 -69.5 -130.5t-129.5 -45.5q-18 0 -30.5 6.5t-12.5 26.5q0 8 1.5 18 t6.5 22q63 0 102 27t53 95z" />
<glyph unicode="&#x201e;" horiz-adv-x="400" d="M244 -117q-25 0 -35 31q9 4 19.5 11.5t19.5 17.5t15.5 21t9.5 23q-12 8 -25.5 23t-13.5 38t14 40.5t40 17.5q29 0 43 -20.5t14 -49.5q0 -23 -5.5 -45t-14.5 -41t-21.5 -33.5t-27.5 -23.5q-16 -10 -32 -10zM70 -117q-25 0 -35 31q9 4 19.5 11.5t19.5 17.5t15.5 21t9.5 23 q-12 8 -25.5 23t-13.5 38t14 40.5t40 17.5q29 0 43 -20.5t14 -49.5q0 -23 -5.5 -45t-14.5 -41t-21.5 -33.5t-27.5 -23.5q-16 -10 -32 -10z" />
<glyph unicode="&#x2026;" horiz-adv-x="595" d="M258 3q-16 17 -16 44q0 26 16.5 44t40.5 18q25 0 41.5 -18t16.5 -44t-16 -44t-42 -18q-25 0 -41 18zM451 3q-16 17 -16 44q0 26 16.5 44t40.5 18q25 0 41.5 -18t16.5 -44t-16 -44t-42 -18q-25 0 -41 18zM62 3q-16 17 -16 44q0 26 16.5 44t40.5 18q25 0 41.5 -18t16.5 -44 t-16 -44t-42 -18q-25 0 -41 18z" />
<glyph unicode="&#x2020;" horiz-adv-x="449" d="M179 400h-90q-19 0 -30 5t-17 12.5t-8 16t-2 14.5v7t1 10l2 13h144v192q4 0 7 1q3 0 6.5 0.5t7.5 0.5q8 0 18.5 -2t19.5 -8.5t15 -18.5t6 -31v-134h98q35 0 47.5 -15t12.5 -35q0 -2 -0.5 -6.5t-1.5 -9.5q-1 -3 -1 -12h-155v-518h-80v518z" />
<glyph unicode="&#x2021;" horiz-adv-x="449" d="M179 87h-90q-19 0 -30 6t-17 14.5t-8 17.5t-2 16q0 5 0.5 11.5t1.5 12.5h145v237h-90q-19 0 -30 6t-17 14.5t-8 18t-2 16.5q0 6 0.5 12t1.5 12h145v189q4 0 7 1q3 0 6.5 0.5t7.5 0.5q8 0 18 -2t18.5 -8.5t14.5 -18.5t6 -31v-131h99q36 0 48.5 -14.5t12.5 -32.5 q0 -11 -1 -19t-2 -13h-157v-237h99q21 0 33.5 -6t18.5 -14t7.5 -17t1.5 -16q0 -6 -1 -13.5t-2 -11.5h-157v-204h-78v204z" />
<glyph unicode="&#x2c6;" horiz-adv-x="377" d="M139 666q10 13 22 20.5t28 7.5t26.5 -6.5t21.5 -20.5l92 -120q-8 -5 -17 -8.5t-20 -3.5q-24 0 -45 22l-59 64l-59 -66q-17 -20 -42 -20q-9 0 -18.5 3.5t-17.5 11.5z" />
<glyph unicode="&#x2030;" horiz-adv-x="1182" d="M863 30q-40 44 -40 132q0 43 11.5 76t31.5 55t47.5 33.5t60.5 11.5q70 0 110.5 -44t40.5 -132t-41.5 -132.5t-108.5 -44.5q-72 0 -112 45zM974 48q44 0 61 31.5t17 83.5q0 51 -16.5 81.5t-61.5 30.5q-43 0 -60 -31t-17 -82t17.5 -82.5t59.5 -31.5zM88 374q-40 46 -40 132 q0 88 42.5 132t108.5 44q152 0 152 -176q0 -87 -42 -132t-109 -45q-72 0 -112 45zM508 30q-40 44 -40 132q0 43 11.5 76t31.5 55t47.5 33.5t60.5 11.5q70 0 110.5 -44t40.5 -132t-41.5 -132.5t-108.5 -44.5q-72 0 -112 45zM619 48q44 0 61 31.5t17 83.5q0 51 -16.5 81.5 t-61.5 30.5q-43 0 -60 -31t-17 -82t17.5 -82.5t59.5 -31.5zM199 393q44 0 61 31t17 83q0 51 -16.5 81.5t-61.5 30.5q-42 0 -59 -31t-17 -82t17 -82t59 -31zM570 644q9 14 24 26.5t40 12.5q10 0 18.5 -1t13.5 -3l11 -3l-451 -676h-86z" />
<glyph unicode="&#x160;" horiz-adv-x="496" d="M392 561q-20 16 -55 30t-80 14q-35 0 -58.5 -8.5t-38 -22t-21 -32t-6.5 -37.5q0 -25 10 -43t29 -31.5t46 -24.5t62 -22q34 -11 66 -26.5t56 -38.5t38.5 -55t14.5 -75q0 -50 -16.5 -88t-46.5 -64t-71.5 -39t-91.5 -13q-55 0 -102.5 12t-74.5 32q-25 16 -25 37q0 11 9 28 t21 32q32 -26 76.5 -45.5t95.5 -19.5q39 0 65 10t41.5 26t22.5 36.5t7 42.5q0 29 -8.5 49.5t-25 35.5t-41.5 26.5t-57 21.5q-37 11 -71 24.5t-60.5 35t-42.5 52.5t-16 77q0 45 16.5 79.5t45 57.5t67.5 35t85 12q37 0 79.5 -9.5t72.5 -27.5q16 -10 27 -21.5t11 -26.5 q0 -12 -9.5 -26t-23.5 -28q-4 4 -9.5 8.5t-12.5 9.5zM113 848q8 7 18 11.5t19 4.5q14 0 24 -6t19 -15l53 -48l54 47q13 11 23.5 16.5t22.5 5.5q9 0 19 -4t18 -9l-87 -103q-23 -27 -48 -27q-26 0 -50 29z" />
<glyph unicode="&#x2039;" horiz-adv-x="295" d="M87 214q-14 13 -23 28t-9 33q0 17 10.5 32.5t24.5 28.5l129 121q9 -10 15 -23t6 -24q0 -24 -15 -42l-82 -93l79 -93q10 -12 13.5 -23t3.5 -22t-5 -24t-12 -22z" />
<glyph unicode="&#x152;" horiz-adv-x="904" d="M814 75q33 0 47.5 -15.5t14.5 -38.5q0 -4 -0.5 -7.5t-0.5 -6.5v-7h-512q-77 0 -133.5 26.5t-94 73t-56 108.5t-18.5 133q0 68 19.5 128t58.5 104.5t97 70t135 25.5h488q2 -6 2 -10.5v-10.5q0 -23 -13 -38.5t-48 -15.5h-240v-206h227v-77h-227v-236h254zM473 71v527h-99 q-59 0 -101.5 -20t-69.5 -55t-39.5 -81.5t-12.5 -100.5t12.5 -103t39 -86t68 -59t99.5 -22h103z" />
<glyph unicode="&#x2018;" horiz-adv-x="241" d="M152 637q-21 -21 -25 -44q11 -8 25 -23t14 -38t-14 -40t-40 -17q-29 0 -43 20.5t-14 49.5q0 22 5.5 44t14.5 41t21.5 33.5t27.5 23.5q16 10 32 10q25 0 35 -31q-19 -7 -39 -29z" />
<glyph unicode="&#x2019;" horiz-adv-x="241" d="M85 474q-25 0 -35 30q9 4 19.5 11.5t19.5 17.5t15.5 21t9.5 23q-11 8 -25 23.5t-14 38.5t14 40t40 17q29 0 43 -20.5t14 -49.5q0 -23 -5.5 -45t-14.5 -41t-21.5 -34t-27.5 -23q-8 -4 -16 -6.5t-16 -2.5z" />
<glyph unicode="&#x201c;" horiz-adv-x="415" d="M326 637q-21 -21 -25 -44q11 -8 25 -23t14 -38t-14 -40t-40 -17q-29 0 -43 20.5t-14 49.5q0 22 5.5 44t14.5 41t21.5 33.5t27.5 23.5q16 10 32 10q25 0 35 -31q-19 -7 -39 -29zM152 637q-21 -21 -25 -44q11 -8 25 -23t14 -38t-14 -40t-40 -17q-29 0 -43 20.5t-14 49.5 q0 22 5.5 44t14.5 41t21.5 33.5t27.5 23.5q16 10 32 10q25 0 35 -31q-19 -7 -39 -29z" />
<glyph unicode="&#x201d;" horiz-adv-x="415" d="M259 474q-25 0 -35 30q9 4 19.5 11.5t19.5 17.5t15.5 21t9.5 23q-11 8 -25 23.5t-14 38.5t14 40t40 17q29 0 43 -20.5t14 -49.5q0 -23 -5.5 -45t-14.5 -41t-21.5 -34t-27.5 -23q-8 -4 -16 -6.5t-16 -2.5zM85 474q-25 0 -35 30q9 4 19.5 11.5t19.5 17.5t15.5 21t9.5 23 q-11 8 -25 23.5t-14 38.5t14 40t40 17q29 0 43 -20.5t14 -49.5q0 -23 -5.5 -45t-14.5 -41t-21.5 -34t-27.5 -23q-8 -4 -16 -6.5t-16 -2.5z" />
<glyph unicode="&#x2022;" horiz-adv-x="383" d="M98 258q-35 37 -35 92q0 27 9 51t26 41.5t40.5 28t52.5 10.5q28 0 52 -10.5t41 -28t26.5 -41.5t9.5 -51t-9.5 -50.5t-27 -41t-41 -28t-51.5 -10.5q-29 0 -52.5 10.5t-40.5 27.5z" />
<glyph unicode="&#x2013;" horiz-adv-x="500" d="M444 311q9 0 18.5 -0.5t17.5 -5t13.5 -14t5.5 -27.5q0 -5 -0.5 -10.5t-0.5 -9.5q-1 -3 -1 -9h-445q-20 0 -35.5 9.5t-15.5 38.5v10.5t1 9.5q0 5 1 8h441z" />
<glyph unicode="&#x2014;" horiz-adv-x="1000" d="M941 311q9 0 18.5 -0.5t17.5 -5t13.5 -14t5.5 -27.5q0 -11 -0.5 -17.5t-1.5 -11.5h-939q-21 0 -36 9.5t-15 38.5q0 11 0.5 19.5t1.5 8.5h935z" />
<glyph unicode="&#x2dc;" horiz-adv-x="383" d="M41 561q-9 10 -9 22q0 10 7 19.5t18 17.5q17 14 37 21.5t39 7.5q18 0 32.5 -5t27.5 -11q14 -7 28 -12t31 -5q20 0 34.5 12t28.5 34q11 -7 23 -18.5t12 -23.5q0 -13 -12 -28q-13 -16 -33.5 -27.5t-47.5 -11.5q-20 0 -37 5.5t-33 12.5q-14 6 -27.5 10.5t-28.5 4.5 q-20 0 -37.5 -12t-33.5 -31z" />
<glyph unicode="&#x2122;" horiz-adv-x="787" d="M379 662q7 5 16 6.5t17 1.5q13 0 24.5 -7t16.5 -20l93 -225l93 224q7 16 19.5 22t24.5 6q6 0 15 -1.5t16 -6.5l18 -364h-63l-11 244l-83 -187h-61l-80 182l-13 -239h-65zM133 608h-113q-2 7 -2.5 14t-0.5 10q0 14 7 25.5t33 11.5h258q4 -9 4 -23t-8.5 -26t-35.5 -12h-75 v-310h-67v310z" />
<glyph unicode="&#x161;" horiz-adv-x="419" d="M331 360q-17 21 -49.5 36.5t-69.5 15.5q-13 0 -28.5 -2.5t-29 -9t-22.5 -18.5t-9 -30q0 -16 7.5 -27t21 -19t31.5 -13.5t39 -10.5q30 -7 58 -17.5t49.5 -27t34 -41.5t12.5 -62t-15 -64.5t-40 -46t-58.5 -28t-69.5 -9.5q-35 0 -63 5.5t-47 13.5q-25 10 -35 20.5t-10 21.5 q0 13 7 27t18 32q7 -6 19.5 -14.5t30 -17t38.5 -14t45 -5.5q18 0 35 3.5t30.5 11.5t22 22t8.5 35t-9 34.5t-24 22.5t-33.5 14.5t-37.5 9.5q-29 6 -55.5 15.5t-47 25.5t-33 39.5t-12.5 58.5q0 33 14 58.5t38 42t54.5 25t63.5 8.5q38 0 69.5 -8t50.5 -19q20 -11 27 -20.5 t7 -18.5q0 -11 -5.5 -25.5t-13.5 -28.5zM71 672q8 8 17.5 11.5t18.5 3.5q25 0 42 -20l59 -66l59 64q21 22 45 22q11 0 20 -3.5t17 -8.5l-92 -120q-11 -14 -21.5 -20.5t-26.5 -6.5t-28 7.5t-22 20.5z" />
<glyph unicode="&#x203a;" horiz-adv-x="295" d="M73 91q-7 9 -12 22t-5 24t3.5 22t13.5 23l79 93l-82 93q-15 18 -15 42q0 11 6 24t15 23l129 -121q14 -13 24.5 -28.5t10.5 -32.5q0 -18 -9 -33t-23 -28z" />
<glyph unicode="&#x153;" horiz-adv-x="846" d="M484 219q2 -33 11.5 -62.5t27.5 -51.5t44.5 -35t63.5 -13q29 0 51 6t38 14.5t27 18.5t18 18q11 -14 19.5 -30t8.5 -27t-12.5 -23.5t-34 -23t-52 -18t-66.5 -7.5q-64 0 -113 27.5t-74 78.5q-11 -21 -27 -40t-38.5 -33.5t-51.5 -23.5t-65 -9q-56 0 -96 20.5t-65.5 54.5 t-37.5 79t-12 94q0 50 14 95t41.5 79t69 54t96.5 20q67 0 109.5 -30t62.5 -72q24 49 69.5 75.5t102.5 26.5q50 0 86 -17t59 -45.5t34 -66t11 -77.5q0 -14 -0.5 -28.5t-2.5 -27.5h-316zM203 74q25 -16 64 -16q40 0 66 16.5t40 42.5t19.5 58t5.5 63t-6 61t-20.5 54t-39.5 39 t-63 15t-63 -15t-40.5 -39.5t-22 -55t-6.5 -61.5q0 -48 14 -92t52 -70zM720 283q-1 28 -7 51.5t-19.5 40.5t-35 26.5t-52.5 9.5q-51 0 -84 -34t-38 -94h236z" />
<glyph unicode="&#x178;" horiz-adv-x="524" d="M218 275l-215 387q9 5 23 8t29 3q24 0 38 -10t25 -31l145 -275l145 267q11 20 26.5 34t40.5 14q11 0 22 -2t24 -6l-215 -387v-277h-88v275zM136 746q-14 16 -14 38q0 23 14.5 38.5t36.5 15.5t36.5 -15.5t14.5 -38.5t-14 -38t-37 -15q-24 0 -37 15zM315 746q-14 16 -14 38 q0 23 14.5 38.5t36.5 15.5t36.5 -15.5t14.5 -38.5t-14 -38t-37 -15q-24 0 -37 15z" />
<glyph unicode="&#xa1;" horiz-adv-x="225" d="M83 285h6q3 0 6.5 0.5t6.5 0.5q28 0 47.5 -14t19.5 -52v-431q-3 -1 -7 -1h-12q-28 0 -47.5 14t-19.5 52v431zM124 355q-25 0 -41 17.5t-16 43.5t16 42.5t41 16.5q26 0 42 -16.5t16 -42.5t-16 -43.5t-42 -17.5z" />
<glyph unicode="&#xa2;" horiz-adv-x="549" d="M270 82q-31 4 -64.5 16.5t-61 40.5t-45.5 74t-18 117q0 66 18.5 111t46.5 72.5t61.5 41.5t62.5 19v97h62v-96q29 -3 53.5 -11t42 -18.5t27 -22.5t9.5 -22t-6.5 -22t-13.5 -24l-3 -6h-12q-15 17 -38.5 31.5t-58.5 19.5v-346q23 2 40.5 11t31.5 19q8 5 14.5 11.5l13.5 13.5 q8 -8 19.5 -23.5t11.5 -28.5q0 -18 -27 -36q-17 -11 -44.5 -22.5t-59.5 -15.5v-101h-62v100zM270 497q-54 -13 -77.5 -56.5t-23.5 -109.5q0 -70 23 -114.5t78 -59.5v340z" />
<glyph unicode="&#xa3;" horiz-adv-x="549" d="M131 286h-71v71h70v124q0 51 16.5 87t45 58.5t65 32.5t77.5 10q33 0 64 -7.5t55.5 -19.5t39.5 -26.5t15 -29.5q0 -11 -8.5 -25.5t-21.5 -27.5h-10q-8 9 -20 19.5t-28.5 20t-37.5 15.5t-46 6q-24 0 -46 -5.5t-38.5 -19t-26 -37t-9.5 -59.5v-116h211v-71h-211v-211h233 q32 0 46 -15t14 -37q0 -5 -0.5 -9t-0.5 -7v-7h-377v286z" />
<glyph unicode="&#xa4;" horiz-adv-x="551" d="M102 217q-17 25 -27.5 57.5t-10.5 64.5q0 34 10.5 66.5t28.5 58.5h1l-57 54l51 50l54 -54q26 18 58 28.5t64 10.5t64.5 -11.5t58.5 -29.5l57 58l51 -51l-60 -57h1q17 -26 26.5 -58t9.5 -64t-9.5 -64t-27.5 -57l59 -59l-50 -49l-57 56q-27 -18 -59.5 -28.5t-64.5 -10.5 t-63 10t-57 27l-57 -54l-50 49zM274 193q66 0 101 41t35 105q0 66 -35 106.5t-101 40.5q-67 0 -102.5 -40.5t-35.5 -106.5q0 -64 36 -105t102 -41z" />
<glyph unicode="&#xa5;" horiz-adv-x="549" d="M90 196h139v80h-139v61h111l-166 325q19 11 51 11q23 0 38 -11t24 -30l126 -270l127 263q9 20 24.5 33.5t39.5 13.5q13 0 23.5 -2t23.5 -6l-168 -327h116v-61h-143v-80h143v-61h-143v-135h-88v135h-139v61z" />
<glyph unicode="&#xa6;" horiz-adv-x="259" d="M86 220h78v-406h-78v406zM86 793h78v-379h-78v379z" />
<glyph unicode="&#xa7;" horiz-adv-x="499" d="M165 160q-57 23 -79 56t-22 76q0 25 8 46t20 37t25.5 27.5t24.5 18.5q-30 19 -47.5 46t-17.5 72q0 33 14.5 59.5t39 45t57 28.5t69.5 10q28 0 57 -6t52.5 -16.5t38.5 -25t15 -31.5q0 -16 -7.5 -28.5t-16.5 -23.5h-14q-20 23 -51 40.5t-73 17.5q-45 0 -71.5 -18t-26.5 -52 q0 -32 24 -50.5t67 -36.5l78 -34q51 -21 79.5 -52t28.5 -86q0 -23 -8 -43.5t-19.5 -37.5t-24.5 -30t-23 -21q20 -17 35.5 -40t15.5 -59q0 -38 -14 -66t-38 -47.5t-55.5 -29t-66.5 -9.5q-49 0 -86 10t-60 25q-24 16 -24 37q0 14 11 29.5t20 26.5q60 -55 139 -55q38 0 65.5 19 t27.5 54q0 17 -6 29t-18 22t-31 19t-45 20zM306 183q17 14 34 37t17 52q0 31 -23 51t-54 33l-82 33q-7 -4 -16.5 -11.5t-18.5 -18.5t-15 -25t-6 -31q0 -26 15 -44.5t58 -36.5z" />
<glyph unicode="&#xa8;" horiz-adv-x="383" d="M65 570q-14 16 -14 38q0 23 14.5 38.5t36.5 15.5t36.5 -15.5t14.5 -38.5t-14 -38t-37 -15q-24 0 -37 15zM244 570q-14 16 -14 38q0 23 14.5 38.5t36.5 15.5t36.5 -15.5t14.5 -38.5t-14 -38t-37 -15q-24 0 -37 15z" />
<glyph unicode="&#xa9;" horiz-adv-x="793" d="M525 439q-20 26 -45.5 40.5t-67.5 14.5q-35 0 -59.5 -13t-39.5 -35t-22 -50t-7 -59q0 -30 6.5 -58t22 -50t40 -35.5t60.5 -13.5q26 0 47.5 7.5t35.5 17.5q8 5 15.5 11.5t14.5 13.5q7 -8 18 -20.5t11 -25.5q0 -10 -5.5 -16.5t-15.5 -14.5q-14 -11 -47 -24.5t-81 -13.5 q-35 0 -70.5 10t-64 35.5t-47 68t-18.5 108.5q0 65 20.5 108t51.5 68.5t67 36t67 10.5q34 0 61 -8.5t46 -20t28.5 -24t9.5 -19.5q0 -11 -7.5 -24t-16.5 -25h-8zM151 84q-42 48 -64.5 112t-22.5 136t23 135.5t66 111t104.5 75.5t139.5 28t139.5 -28t104 -75.5t65.5 -111 t23 -135.5t-23 -136t-66 -112t-104.5 -76t-139.5 -28t-140 28t-105 76zM281 61q51 -24 116 -24t115.5 24.5t85 65t52.5 94t18 111.5t-18 111t-52.5 93.5t-85 64.5t-115.5 24t-115 -24t-84.5 -64.5t-52.5 -93.5t-18 -111q0 -90 39.5 -161.5t114.5 -109.5z" />
<glyph unicode="&#xaa;" horiz-adv-x="418" d="M83 587q-7 11 -11.5 21.5t-4.5 21.5q0 10 12.5 19t32.5 16.5t44 12t48 4.5q80 0 110 -36t30 -103v-156q0 -21 8.5 -28t34.5 -7v-31q-3 -2 -13 -6q-17 -5 -37 -5q-23 0 -40 10t-23 27q-17 -16 -46 -28t-65 -12q-20 0 -40.5 4.5t-37.5 17t-28 34t-11 54.5q0 40 20 65.5 t50 39.5t64 19.5t63 5.5h25v9q0 29 -14.5 46.5t-56.5 17.5q-35 0 -59 -9.5t-45 -23.5h-10zM269 495h-15q-23 0 -46.5 -3t-42.5 -11.5t-31 -23.5t-12 -38q0 -20 12 -37t45 -17q17 0 33.5 4.5t29 11.5t20 15.5t7.5 16.5v82z" />
<glyph unicode="&#xab;" horiz-adv-x="485" d="M277 214q-14 13 -23 28t-9 33q0 17 10.5 32.5t24.5 28.5l129 121q9 -10 15 -23t6 -24q0 -24 -15 -42l-82 -93l79 -93q10 -12 13.5 -23t3.5 -22t-5 -24t-12 -22zM87 214q-14 13 -23 28t-9 33q0 17 10.5 32.5t24.5 28.5l129 121q9 -10 15 -23t6 -24q0 -24 -15 -42l-82 -93 l79 -93q10 -12 13.5 -23t3.5 -22t-5 -24t-12 -22z" />
<glyph unicode="&#xac;" horiz-adv-x="562" d="M65 422h436v-255h-79v175h-357v80z" />
<glyph unicode="&#xad;" horiz-adv-x="441" d="M323 314q9 0 18.5 -1t17.5 -6t13.5 -15t5.5 -28q0 -5 -0.5 -11t-0.5 -11q-1 -4 -1 -11h-255q-21 0 -36 11.5t-15 40.5v10.5t1 10.5q0 7 1 10h251z" />
<glyph unicode="&#xae;" horiz-adv-x="793" d="M151 84q-42 48 -64.5 112t-22.5 136t23 135.5t66 111t104.5 75.5t139.5 28t139.5 -28t104 -75.5t65.5 -111t23 -135.5t-23 -136t-66 -112t-104.5 -76t-139.5 -28t-140 28t-105 76zM281 61q51 -24 116 -24t115.5 24.5t85 65t52.5 94t18 111.5t-18 111t-52.5 93.5t-85 64.5 t-115.5 24t-115 -24t-84.5 -64.5t-52.5 -93.5t-18 -111q0 -90 39.5 -161.5t114.5 -109.5zM273 545q28 3 60.5 4.5t52.5 1.5q88 0 126.5 -35.5t38.5 -89.5q0 -26 -8 -47.5t-21 -37t-30.5 -26t-35.5 -14.5h2l103 -171q-9 -5 -18.5 -7t-17.5 -2q-15 0 -28.5 6.5t-23.5 23.5 l-85 141h-52v-166h-63v419zM399 351q86 0 86 74q0 33 -22.5 50t-73.5 17q-18 0 -31 -0.5t-24 -2.5h2v-138h63z" />
<glyph unicode="&#xaf;" horiz-adv-x="368" d="M283 640q23 0 37.5 -8t14.5 -35q0 -8 -0.5 -14t-1.5 -11h-255q-24 0 -35 9t-11 32q0 14 4 27h247z" />
<glyph unicode="&#xb0;" horiz-adv-x="374" d="M88 466q-35 37 -35 95q0 27 10 51.5t27.5 42.5t42 28.5t53.5 10.5q61 0 97 -37.5t36 -95.5q0 -28 -10 -52.5t-27.5 -42.5t-42 -28.5t-53.5 -10.5q-31 0 -55.5 10.5t-42.5 28.5zM186 484q32 0 54 22.5t22 54.5t-22 54t-54 22t-52.5 -22t-20.5 -54t20.5 -54.5t52.5 -22.5z " />
<glyph unicode="&#xb1;" horiz-adv-x="549" d="M80 80h388v-80h-388v80zM233 297h-153v80h153v160h82v-159h153v-80h-153v-161h-82v160z" />
<glyph unicode="&#xb2;" d="M48 359q24 20 53 49t52 56q24 28 39.5 53.5t15.5 53.5q0 26 -15.5 39t-43.5 13q-27 0 -46.5 -13t-30.5 -26h-11q-11 11 -17 20t-6 19q0 8 3.5 13t9.5 10q5 4 15 10.5t24 12.5t31 10t36 4q54 0 87 -26t33 -84q0 -40 -21.5 -75.5t-49.5 -67.5q-15 -17 -29.5 -32t-29.5 -29 h102q8 0 16 -1t14 -5t10 -12t4 -22q0 -4 -0.5 -7.5t-0.5 -7.5v-8h-244v53z" />
<glyph unicode="&#xb3;" d="M118 530h33q7 0 17 1.5t19.5 7t16 15t6.5 25.5q0 45 -55 45q-29 0 -48.5 -11.5t-32.5 -24.5h-13q-8 10 -14 19t-6 17t7.5 16.5t19.5 16.5q15 11 38 18.5t55 7.5q63 0 91 -27t28 -70q0 -35 -15 -55t-31 -29q9 -5 18.5 -12t17.5 -17t13.5 -24.5t5.5 -33.5q0 -51 -33.5 -84 t-100.5 -33q-29 0 -54 7.5t-39 17.5q-15 11 -20 18.5t-5 16.5q0 12 9.5 25t16.5 21q14 -16 37 -30.5t52 -14.5q12 0 23.5 2.5t21.5 8.5t16 17.5t6 29.5q0 19 -8.5 30.5t-19.5 16.5t-23 6.5t-18 1.5h-32v58z" />
<glyph unicode="&#xb4;" horiz-adv-x="365" d="M172 664q11 15 22.5 25t30.5 10q14 0 30 -7.5t27 -16.5l-101 -109q-11 -13 -23.5 -20.5t-27.5 -7.5q-11 0 -22.5 5t-19.5 11z" />
<glyph unicode="&#xb5;" horiz-adv-x="539" d="M74 475q7 1 11.5 1h6.5q30 0 48.5 -15t18.5 -53v-224q0 -60 23 -91.5t85 -31.5q23 0 44 6.5t36.5 16.5t25 21.5t9.5 20.5v349q7 1 11.5 1h6.5q30 0 48.5 -15t18.5 -53v-287q0 -24 2.5 -40t9.5 -25.5t20 -13.5t34 -4v-32q-13 -5 -27.5 -8.5t-29.5 -3.5q-36 0 -58 16.5 t-29 41.5q-20 -25 -51.5 -43t-76.5 -18q-34 0 -61 9t-45 31v-249h-81v693z" />
<glyph unicode="&#xb6;" horiz-adv-x="573" d="M262 262h-16q-45 0 -81.5 16t-61.5 43.5t-38.5 64t-13.5 77.5q0 51 16.5 89.5t44.5 64.5t66 39t82 13h186q8 0 17 -1t16.5 -6.5t12 -16t4.5 -28.5v-735h-74v718h-87v-718h-73v380z" />
<glyph unicode="&#xb7;" horiz-adv-x="250" d="M90 315q-16 17 -16 44q0 26 16.5 44t40.5 18q25 0 41.5 -18t16.5 -44t-16 -44t-42 -18q-25 0 -41 18z" />
<glyph unicode="&#xb8;" horiz-adv-x="363" d="M229 9q-14 -14 -21.5 -23.5t-7.5 -20.5q0 -10 5 -17t13 -14q9 -9 17.5 -21t8.5 -34t-8.5 -39t-22 -28.5t-30.5 -17.5t-34 -6q-35 0 -35 31q0 5 1 14t4 19q7 -3 13.5 -4t12.5 -1q36 0 36 25q0 12 -6 20t-14 16t-14 16.5t-6 22.5q0 19 11.5 36.5t17.5 25.5h59z" />
<glyph unicode="&#xb9;" d="M146 596l-92 -47q-7 9 -14.5 23t-7.5 22q0 15 20 26l88 49q11 6 21 10.5t20 4.5q22 0 35 -10v-368h-70v290z" />
<glyph unicode="&#xba;" horiz-adv-x="453" d="M94 363q-20 26 -29.5 60t-9.5 71q0 39 10.5 73t32.5 59.5t54 40.5t76 15q46 0 78.5 -14.5t53 -40t29.5 -59t9 -71.5t-9.5 -73t-30 -61t-53.5 -41.5t-80 -15.5q-46 0 -78.5 15.5t-52.5 41.5zM181 383q17 -10 45 -10t46 10.5t28.5 28t14.5 40t4 45.5q0 22 -4 44t-14.5 39 t-28 27.5t-45.5 10.5q-27 0 -45 -10.5t-29 -27.5t-15.5 -39t-4.5 -45q0 -35 10.5 -65.5t37.5 -47.5z" />
<glyph unicode="&#xbb;" horiz-adv-x="485" d="M263 91q-7 9 -12 22t-5 24t3.5 22t13.5 23l79 93l-82 93q-15 18 -15 42q0 11 6 24t15 23l129 -121q14 -13 24.5 -28.5t10.5 -32.5q0 -18 -9 -33t-23 -28zM73 91q-7 9 -12 22t-5 24t3.5 22t13.5 23l79 93l-82 93q-15 18 -15 42q0 11 6 24t15 23l129 -121 q14 -13 24.5 -28.5t10.5 -32.5q0 -18 -9 -33t-23 -28z" />
<glyph unicode="&#xbc;" horiz-adv-x="810" d="M525 643q10 18 24.5 28.5t39.5 10.5q18 0 27 -4l7 -3l-373 -675h-82zM147 596l-92 -47q-7 9 -14.5 23t-7.5 22q0 15 20 26l88 49q11 6 21 10.5t20 4.5q22 0 35 -10v-368h-70v290zM493 121l149 225q8 12 19 22.5t26 10.5q8 0 17 -2.5t16 -7.5v-240h14q33 0 33 -33 q0 -2 -0.5 -5.5t-1.5 -8.5l-2 -10h-43v-71h-68v71h-159v49zM652 129v148l-97 -148h97z" />
<glyph unicode="&#xbd;" horiz-adv-x="810" d="M498 643q10 18 24.5 28.5t39.5 10.5q18 0 27 -4l7 -3l-373 -675h-82zM136 596l-92 -47q-7 9 -14.5 23t-7.5 22q0 15 20 26l88 49q11 6 21 10.5t20 4.5q22 0 35 -10v-368h-70v290zM511 54q24 20 53 49t52 56q24 28 39.5 53.5t15.5 53.5q0 26 -15.5 39t-43.5 13 q-27 0 -46.5 -13t-30.5 -26h-11q-11 11 -17 20t-6 19q0 8 3.5 13t9.5 10q5 4 15 10.5t24 12.5t31 10t36 4q54 0 87 -26t33 -84q0 -40 -21.5 -75.5t-49.5 -67.5q-15 -17 -29.5 -32t-29.5 -29h102q8 0 16 -1t14 -5t10 -12t4 -22q0 -4 -0.5 -7.5t-0.5 -7.5v-8h-244v53z" />
<glyph unicode="&#xbe;" horiz-adv-x="810" d="M560 643q10 18 24.5 28.5t39.5 10.5q18 0 27 -4l7 -3l-373 -675h-82zM141 530h33q7 0 17 1.5t19.5 7t16 15t6.5 25.5q0 45 -55 45q-29 0 -48.5 -11.5t-32.5 -24.5h-13q-8 10 -14 19t-6 17t7.5 16.5t19.5 16.5q15 11 38 18.5t55 7.5q63 0 91 -27t28 -70q0 -35 -15 -55 t-31 -29q9 -5 18.5 -12t17.5 -17t13.5 -24.5t5.5 -33.5q0 -51 -33.5 -84t-100.5 -33q-29 0 -54 7.5t-39 17.5q-15 11 -20 18.5t-5 16.5q0 12 9.5 25t16.5 21q14 -16 37 -30.5t52 -14.5q12 0 23.5 2.5t21.5 8.5t16 17.5t6 29.5q0 19 -8.5 30.5t-19.5 16.5t-23 6.5t-18 1.5 h-32v58zM489 121l149 225q8 12 19 22.5t26 10.5q8 0 17 -2.5t16 -7.5v-240h14q33 0 33 -33q0 -2 -0.5 -5.5t-1.5 -8.5l-2 -10h-43v-71h-68v71h-159v49zM648 129v148l-97 -148h97z" />
<glyph unicode="&#xbf;" horiz-adv-x="383" d="M367 -90q8 -11 16.5 -25t8.5 -27q0 -15 -17 -27q-7 -6 -21 -15t-35 -17.5t-49 -14.5t-62 -6q-40 0 -75.5 10.5t-62.5 32t-43 54.5t-16 78q0 30 8 54.5t21 45.5t29 38.5t32 32.5q35 30 61 59.5t26 61.5q0 8 -1 19t-3 21q4 1 9.5 1h10.5q27 0 41.5 -16.5t14.5 -45.5 q0 -40 -24.5 -71t-56.5 -60q-30 -28 -54.5 -60.5t-24.5 -76.5q0 -28 9.5 -47.5t26 -32t37.5 -18t45 -5.5q27 0 49 6t39 15t29.5 19t19.5 17h12zM177 370q-16 17 -16 44q0 26 16.5 43.5t42.5 17.5q24 0 40.5 -17.5t16.5 -43.5t-16.5 -44t-40.5 -18q-27 0 -43 18z" />
<glyph unicode="&#xc0;" horiz-adv-x="625" d="M264 663q7 3 21 6t28 3q19 0 34.5 -8.5t24.5 -32.5l231 -631h-91l-67 180h-270l-65 -180h-88zM422 251l-112 319l-113 -319h225zM153 819q9 15 25.5 27t33.5 12q14 0 26.5 -6.5t28.5 -19.5l103 -83q-7 -9 -20.5 -17.5t-27.5 -8.5q-11 0 -22.5 5t-25.5 13z" />
<glyph unicode="&#xc1;" horiz-adv-x="625" d="M264 663q7 3 21 6t28 3q19 0 34.5 -8.5t24.5 -32.5l231 -631h-91l-67 180h-270l-65 -180h-88zM422 251l-112 319l-113 -319h225zM355 832q16 13 28.5 19.5t26.5 6.5q17 0 33.5 -12t25.5 -27l-121 -78q-14 -8 -25.5 -13t-22.5 -5q-12 0 -26.5 8.5t-21.5 17.5z" />
<glyph unicode="&#xc2;" horiz-adv-x="625" d="M264 663q7 3 21 6t28 3q19 0 34.5 -8.5t24.5 -32.5l231 -631h-91l-67 180h-270l-65 -180h-88zM422 251l-112 319l-113 -319h225zM261 835q24 29 50 29q25 0 48 -27l87 -103q-8 -5 -18 -9t-19 -4q-12 0 -22.5 5.5t-23.5 16.5l-54 47l-53 -48q-9 -9 -19 -15t-24 -6 q-9 0 -19 4.5t-18 11.5z" />
<glyph unicode="&#xc3;" horiz-adv-x="625" d="M264 663q7 3 21 6t28 3q19 0 34.5 -8.5t24.5 -32.5l231 -631h-91l-67 180h-270l-65 -180h-88zM422 251l-112 319l-113 -319h225zM176 728l-19 18q-9 10 -9 22q0 10 7 19.5t18 17.5q17 14 37 21.5t39 7.5q18 0 32.5 -5t27.5 -11q14 -7 28 -12t31 -5q20 0 34.5 12t28.5 34 q11 -7 23 -18.5t12 -23.5q0 -13 -12 -28q-13 -16 -33.5 -27.5t-47.5 -11.5q-20 0 -37 5.5t-33 12.5q-14 6 -27.5 10.5t-28.5 4.5q-20 0 -37.5 -12t-33.5 -31z" />
<glyph unicode="&#xc4;" horiz-adv-x="625" d="M264 663q7 3 21 6t28 3q19 0 34.5 -8.5t24.5 -32.5l231 -631h-91l-67 180h-270l-65 -180h-88zM422 251l-112 319l-113 -319h225zM185 746q-14 16 -14 38q0 23 14.5 38.5t36.5 15.5t36.5 -15.5t14.5 -38.5t-14 -38t-37 -15q-24 0 -37 15zM364 746q-14 16 -14 38 q0 23 14.5 38.5t36.5 15.5t36.5 -15.5t14.5 -38.5t-14 -38t-37 -15q-24 0 -37 15z" />
<glyph unicode="&#xc5;" horiz-adv-x="625" d="M259 650q-14 8 -24 19q-13 15 -20.5 34.5t-7.5 41.5q0 46 28.5 78t77.5 32t77.5 -30t28.5 -79q0 -46 -29 -77q-11 -14 -27 -21q2 -4 4.5 -8t4.5 -9l231 -631h-91l-67 180h-270l-65 -180h-88zM422 251l-112 319l-113 -319h225zM313 686q26 0 40 17.5t14 41.5 q0 23 -11.5 42.5t-43.5 19.5q-27 0 -39.5 -19t-12.5 -42q0 -24 13.5 -42t39.5 -18z" />
<glyph unicode="&#xc6;" horiz-adv-x="879" d="M356 585q20 35 40.5 59.5t54.5 24.5h383q2 -6 2 -10.5v-10.5q0 -23 -13 -38.5t-48 -15.5h-240v-206h227v-77h-227v-236h254q33 0 47.5 -15.5t14.5 -38.5q0 -4 -0.5 -7.5t-0.5 -6.5v-7h-402v178h-234l-100 -178h-97zM448 251v342l-197 -342h197z" />
<glyph unicode="&#xc7;" horiz-adv-x="596" d="M512 534q-11 12 -25.5 25t-33.5 23t-42.5 16.5t-53.5 6.5q-60 0 -99.5 -23.5t-63 -62t-33.5 -87t-10 -99.5q0 -52 10.5 -101t35.5 -87.5t66 -61.5t102 -23q33 0 60 9.5t47 22.5t32.5 25t17.5 18q11 -9 23.5 -25.5t12.5 -28.5q0 -16 -14 -30q-8 -8 -35 -26.5t-78 -30.5 q-29 -8 -64 -9q-7 -8 -7 -20q0 -10 5 -17t13 -14q9 -9 17.5 -21t8.5 -34t-8.5 -39t-22 -28.5t-30.5 -17.5t-34 -6q-35 0 -35 31q0 5 1 14t4 19q7 -3 13.5 -4t12.5 -1q36 0 36 25q0 12 -6 20t-14 16t-14 16.5t-6 22.5q0 18 11 37l2 3q-50 4 -91 24q-84 39 -123 123t-39 198 q0 75 17.5 139.5t54 111t92 73t132.5 26.5q39 0 75 -9t63.5 -23t44 -31t16.5 -32q0 -13 -8.5 -27.5t-17.5 -25.5h-18z" />
<glyph unicode="&#xc8;" horiz-adv-x="509" d="M78 669h386q1 -4 1.5 -8.5t0.5 -12.5q0 -23 -13 -38.5t-48 -15.5h-240v-206h227v-77h-227v-236h254q32 0 47 -15.5t15 -38.5v-8.5t-1 -12.5h-402v669zM111 819q9 15 25.5 27t33.5 12q14 0 26.5 -6.5t28.5 -19.5l103 -83q-7 -9 -20.5 -17.5t-27.5 -8.5q-11 0 -22.5 5 t-25.5 13z" />
<glyph unicode="&#xc9;" horiz-adv-x="509" d="M78 669h386q1 -4 1.5 -8.5t0.5 -12.5q0 -23 -13 -38.5t-48 -15.5h-240v-206h227v-77h-227v-236h254q32 0 47 -15.5t15 -38.5v-8.5t-1 -12.5h-402v669zM300 832q16 13 28.5 19.5t26.5 6.5q17 0 33.5 -12t25.5 -27l-121 -78q-14 -8 -25.5 -13t-22.5 -5q-12 0 -26.5 8.5 t-21.5 17.5z" />
<glyph unicode="&#xca;" horiz-adv-x="509" d="M78 669h386q1 -4 1.5 -8.5t0.5 -12.5q0 -23 -13 -38.5t-48 -15.5h-240v-206h227v-77h-227v-236h254q32 0 47 -15.5t15 -38.5v-8.5t-1 -12.5h-402v669zM223 835q24 29 50 29q25 0 48 -27l87 -103q-8 -5 -18 -9t-19 -4q-12 0 -22.5 5.5t-23.5 16.5l-54 47l-53 -48 q-9 -9 -19 -15t-24 -6q-9 0 -19 4.5t-18 11.5z" />
<glyph unicode="&#xcb;" horiz-adv-x="509" d="M78 669h386q1 -4 1.5 -8.5t0.5 -12.5q0 -23 -13 -38.5t-48 -15.5h-240v-206h227v-77h-227v-236h254q32 0 47 -15.5t15 -38.5v-8.5t-1 -12.5h-402v669zM145 774q-14 16 -14 38q0 23 14.5 38.5t36.5 15.5t36.5 -15.5t14.5 -38.5t-14 -38t-37 -15q-24 0 -37 15zM324 774 q-14 16 -14 38q0 23 14.5 38.5t36.5 15.5t36.5 -15.5t14.5 -38.5t-14 -38t-37 -15q-24 0 -37 15z" />
<glyph unicode="&#xcc;" horiz-adv-x="240" d="M76 670q6 1 13 1.5t12 0.5q10 0 20.5 -2t20 -9t15.5 -19t7 -33v-609h-88v670zM-45 819q9 15 25.5 27t33.5 12q14 0 26.5 -6.5t28.5 -19.5l103 -83q-7 -9 -20.5 -17.5t-27.5 -8.5q-11 0 -22.5 5t-25.5 13z" />
<glyph unicode="&#xcd;" horiz-adv-x="240" d="M76 670q6 1 13 1.5t12 0.5q10 0 20.5 -2t20 -9t15.5 -19t7 -33v-609h-88v670zM153 832q16 13 28.5 19.5t26.5 6.5q17 0 33.5 -12t25.5 -27l-121 -78q-14 -8 -25.5 -13t-22.5 -5q-12 0 -26.5 8.5t-21.5 17.5z" />
<glyph unicode="&#xce;" horiz-adv-x="240" d="M76 670q6 1 13 1.5t12 0.5q10 0 20.5 -2t20 -9t15.5 -19t7 -33v-609h-88v670zM67 835q24 29 50 29q25 0 48 -27l87 -103q-8 -5 -18 -9t-19 -4q-12 0 -22.5 5.5t-23.5 16.5l-54 47l-53 -48q-9 -9 -19 -15t-24 -6q-9 0 -19 4.5t-18 11.5z" />
<glyph unicode="&#xcf;" horiz-adv-x="240" d="M76 670q6 1 13 1.5t12 0.5q10 0 20.5 -2t20 -9t15.5 -19t7 -33v-609h-88v670zM-4 746q-14 16 -14 38q0 23 14.5 38.5t36.5 15.5t36.5 -15.5t14.5 -38.5t-14 -38t-37 -15q-24 0 -37 15zM175 746q-14 16 -14 38q0 23 14.5 38.5t36.5 15.5t36.5 -15.5t14.5 -38.5t-14 -38 t-37 -15q-24 0 -37 15z" />
<glyph unicode="&#xd0;" horiz-adv-x="638" d="M83 316h-66v67h66v283q54 6 94.5 8t75.5 2q96 0 160 -26t102.5 -71t54.5 -105t16 -128q0 -71 -17 -133.5t-53.5 -110t-93.5 -75t-136 -27.5h-203v316zM171 74h79q14 0 28 1q70 2 113 27.5t66 63.5t31 84.5t8 90.5q0 56 -11.5 103.5t-39 82t-74 53.5t-116.5 19 q-20 0 -42 -1t-42 -4v-211h198v-67h-198v-242z" />
<glyph unicode="&#xd1;" horiz-adv-x="660" d="M79 667q6 2 17 3.5t22 1.5q22 0 34.5 -7.5t23.5 -25.5l324 -506v537q6 1 12.5 1.5t11.5 0.5q9 0 19 -2.5t18.5 -9t14 -19t5.5 -32.5v-609h-81l-340 519v-519h-81v667zM203 728l-19 18q-9 10 -9 22q0 10 7 19.5t18 17.5q17 14 37 21.5t39 7.5q18 0 32.5 -5t27.5 -11 q14 -7 28 -12t31 -5q20 0 34.5 12t28.5 34q11 -7 23 -18.5t12 -23.5q0 -13 -12 -28q-13 -16 -33.5 -27.5t-47.5 -11.5q-20 0 -37 5.5t-33 12.5q-14 6 -27.5 10.5t-28.5 4.5q-20 0 -37.5 -12t-33.5 -31z" />
<glyph unicode="&#xd2;" horiz-adv-x="699" d="M638 338q0 -72 -16.5 -136t-51.5 -112t-90.5 -76.5t-133.5 -28.5t-132.5 29.5t-88.5 78t-49 112t-15 132.5t17 131.5t53 110t91.5 75.5t132.5 28q75 0 128.5 -27t88 -73.5t50.5 -109.5t16 -134zM547 337q0 55 -10 103.5t-32.5 85t-60 58t-91.5 21.5q-57 0 -95 -21.5 t-61.5 -58t-33.5 -85t-10 -103.5q0 -54 10 -103.5t33 -87.5t60.5 -61t93.5 -23q55 0 93 23t61 61t33 87.5t10 103.5zM209 819q9 15 25.5 27t33.5 12q14 0 26.5 -6.5t28.5 -19.5l103 -83q-7 -9 -20.5 -17.5t-27.5 -8.5q-11 0 -22.5 5t-25.5 13z" />
<glyph unicode="&#xd3;" horiz-adv-x="699" d="M638 338q0 -72 -16.5 -136t-51.5 -112t-90.5 -76.5t-133.5 -28.5t-132.5 29.5t-88.5 78t-49 112t-15 132.5t17 131.5t53 110t91.5 75.5t132.5 28q75 0 128.5 -27t88 -73.5t50.5 -109.5t16 -134zM547 337q0 55 -10 103.5t-32.5 85t-60 58t-91.5 21.5q-57 0 -95 -21.5 t-61.5 -58t-33.5 -85t-10 -103.5q0 -54 10 -103.5t33 -87.5t60.5 -61t93.5 -23q55 0 93 23t61 61t33 87.5t10 103.5zM405 832q16 13 28.5 19.5t26.5 6.5q17 0 33.5 -12t25.5 -27l-121 -78q-14 -8 -25.5 -13t-22.5 -5q-12 0 -26.5 8.5t-21.5 17.5z" />
<glyph unicode="&#xd4;" horiz-adv-x="699" d="M638 338q0 -72 -16.5 -136t-51.5 -112t-90.5 -76.5t-133.5 -28.5t-132.5 29.5t-88.5 78t-49 112t-15 132.5t17 131.5t53 110t91.5 75.5t132.5 28q75 0 128.5 -27t88 -73.5t50.5 -109.5t16 -134zM547 337q0 55 -10 103.5t-32.5 85t-60 58t-91.5 21.5q-57 0 -95 -21.5 t-61.5 -58t-33.5 -85t-10 -103.5q0 -54 10 -103.5t33 -87.5t60.5 -61t93.5 -23q55 0 93 23t61 61t33 87.5t10 103.5zM309 835q24 29 50 29q25 0 48 -27l87 -103q-8 -5 -18 -9t-19 -4q-12 0 -22.5 5.5t-23.5 16.5l-54 47l-53 -48q-9 -9 -19 -15t-24 -6q-9 0 -19 4.5t-18 11.5 z" />
<glyph unicode="&#xd5;" horiz-adv-x="699" d="M638 338q0 -72 -16.5 -136t-51.5 -112t-90.5 -76.5t-133.5 -28.5t-132.5 29.5t-88.5 78t-49 112t-15 132.5t17 131.5t53 110t91.5 75.5t132.5 28q75 0 128.5 -27t88 -73.5t50.5 -109.5t16 -134zM547 337q0 55 -10 103.5t-32.5 85t-60 58t-91.5 21.5q-57 0 -95 -21.5 t-61.5 -58t-33.5 -85t-10 -103.5q0 -54 10 -103.5t33 -87.5t60.5 -61t93.5 -23q55 0 93 23t61 61t33 87.5t10 103.5zM231 728l-19 18q-9 10 -9 22q0 10 7 19.5t18 17.5q17 14 37 21.5t39 7.5q18 0 32.5 -5t27.5 -11q14 -7 28 -12t31 -5q20 0 34.5 12t28.5 34q11 -7 23 -18.5 t12 -23.5q0 -13 -12 -28q-13 -16 -33.5 -27.5t-47.5 -11.5q-20 0 -37 5.5t-33 12.5q-14 6 -27.5 10.5t-28.5 4.5q-20 0 -37.5 -12t-33.5 -31z" />
<glyph unicode="&#xd6;" horiz-adv-x="699" d="M638 338q0 -72 -16.5 -136t-51.5 -112t-90.5 -76.5t-133.5 -28.5t-132.5 29.5t-88.5 78t-49 112t-15 132.5t17 131.5t53 110t91.5 75.5t132.5 28q75 0 128.5 -27t88 -73.5t50.5 -109.5t16 -134zM547 337q0 55 -10 103.5t-32.5 85t-60 58t-91.5 21.5q-57 0 -95 -21.5 t-61.5 -58t-33.5 -85t-10 -103.5q0 -54 10 -103.5t33 -87.5t60.5 -61t93.5 -23q55 0 93 23t61 61t33 87.5t10 103.5zM228 746q-14 16 -14 38q0 23 14.5 38.5t36.5 15.5t36.5 -15.5t14.5 -38.5t-14 -38t-37 -15q-24 0 -37 15zM407 746q-14 16 -14 38q0 23 14.5 38.5 t36.5 15.5t36.5 -15.5t14.5 -38.5t-14 -38t-37 -15q-24 0 -37 15z" />
<glyph unicode="&#xd7;" horiz-adv-x="549" d="M87 207l132 131l-134 133l58 58l133 -134l131 133l56 -57l-132 -133l133 -131l-57 -58l-132 133l-132 -132z" />
<glyph unicode="&#xd8;" horiz-adv-x="699" d="M159 53q-52 51 -75 125t-23 159q0 69 17 131.5t53 110t91.5 75.5t132.5 28q39 0 72 -8t61 -22l43 76l68 -34l-49 -89q45 -48 66.5 -117t21.5 -150q0 -72 -16.5 -136t-51.5 -112t-90.5 -76.5t-133.5 -28.5q-36 0 -66.5 6.5t-56.5 17.5l-57 -95l-67 33zM448 579 q-41 23 -95 23q-57 0 -95 -21t-61.5 -57.5t-33.5 -84.5t-10 -102q0 -60 11.5 -112t38.5 -91zM262 81q19 -9 40.5 -14t47.5 -5q55 0 93 22.5t61 61t33 88t10 103.5t-9.5 101.5t-32.5 83.5z" />
<glyph unicode="&#xd9;" horiz-adv-x="637" d="M74 670q6 1 13 1.5t12 0.5q10 0 21 -2.5t20 -9t15 -19t6 -32.5v-355q0 -42 7.5 -77t25 -60.5t47 -39.5t74.5 -14q69 0 106.5 26t48.5 86q6 33 6 79v416q6 1 13 1.5t12 0.5q10 0 21 -2.5t20 -9t15 -19t6 -32.5v-343q0 -20 -0.5 -41t-2.5 -40q-4 -42 -19.5 -78.5 t-45.5 -63.5t-74.5 -42.5t-107.5 -15.5q-108 0 -162.5 48t-70.5 133q-4 21 -5 46t-1 51v407zM157 819q9 15 25.5 27t33.5 12q14 0 26.5 -6.5t28.5 -19.5l103 -83q-7 -9 -20.5 -17.5t-27.5 -8.5q-11 0 -22.5 5t-25.5 13z" />
<glyph unicode="&#xda;" horiz-adv-x="637" d="M74 670q6 1 13 1.5t12 0.5q10 0 21 -2.5t20 -9t15 -19t6 -32.5v-355q0 -42 7.5 -77t25 -60.5t47 -39.5t74.5 -14q69 0 106.5 26t48.5 86q6 33 6 79v416q6 1 13 1.5t12 0.5q10 0 21 -2.5t20 -9t15 -19t6 -32.5v-343q0 -20 -0.5 -41t-2.5 -40q-4 -42 -19.5 -78.5 t-45.5 -63.5t-74.5 -42.5t-107.5 -15.5q-108 0 -162.5 48t-70.5 133q-4 21 -5 46t-1 51v407zM358 832q16 13 28.5 19.5t26.5 6.5q17 0 33.5 -12t25.5 -27l-121 -78q-14 -8 -25.5 -13t-22.5 -5q-12 0 -26.5 8.5t-21.5 17.5z" />
<glyph unicode="&#xdb;" horiz-adv-x="637" d="M74 670q6 1 13 1.5t12 0.5q10 0 21 -2.5t20 -9t15 -19t6 -32.5v-355q0 -42 7.5 -77t25 -60.5t47 -39.5t74.5 -14q69 0 106.5 26t48.5 86q6 33 6 79v416q6 1 13 1.5t12 0.5q10 0 21 -2.5t20 -9t15 -19t6 -32.5v-343q0 -20 -0.5 -41t-2.5 -40q-4 -42 -19.5 -78.5 t-45.5 -63.5t-74.5 -42.5t-107.5 -15.5q-108 0 -162.5 48t-70.5 133q-4 21 -5 46t-1 51v407zM273 835q24 29 50 29q25 0 48 -27l87 -103q-8 -5 -18 -9t-19 -4q-12 0 -22.5 5.5t-23.5 16.5l-54 47l-53 -48q-9 -9 -19 -15t-24 -6q-9 0 -19 4.5t-18 11.5z" />
<glyph unicode="&#xdc;" horiz-adv-x="637" d="M74 670q6 1 13 1.5t12 0.5q10 0 21 -2.5t20 -9t15 -19t6 -32.5v-355q0 -42 7.5 -77t25 -60.5t47 -39.5t74.5 -14q69 0 106.5 26t48.5 86q6 33 6 79v416q6 1 13 1.5t12 0.5q10 0 21 -2.5t20 -9t15 -19t6 -32.5v-343q0 -20 -0.5 -41t-2.5 -40q-4 -42 -19.5 -78.5 t-45.5 -63.5t-74.5 -42.5t-107.5 -15.5q-108 0 -162.5 48t-70.5 133q-4 21 -5 46t-1 51v407zM194 746q-14 16 -14 38q0 23 14.5 38.5t36.5 15.5t36.5 -15.5t14.5 -38.5t-14 -38t-37 -15q-24 0 -37 15zM373 746q-14 16 -14 38q0 23 14.5 38.5t36.5 15.5t36.5 -15.5 t14.5 -38.5t-14 -38t-37 -15q-24 0 -37 15z" />
<glyph unicode="&#xdd;" horiz-adv-x="524" d="M218 275l-215 387q9 5 23 8t29 3q24 0 38 -10t25 -31l145 -275l145 267q11 20 26.5 34t40.5 14q11 0 22 -2t24 -6l-215 -387v-277h-88v275zM303 832q16 13 28.5 19.5t26.5 6.5q17 0 33.5 -12t25.5 -27l-121 -78q-14 -8 -25.5 -13t-22.5 -5q-12 0 -26.5 8.5t-21.5 17.5z " />
<glyph unicode="&#xde;" horiz-adv-x="547" d="M78 670q5 0 8 1q4 0 8 0.5t9 0.5q9 0 19.5 -2.5t20 -9t16 -19t6.5 -32.5v-52q20 2 36 2.5t35 0.5q138 0 201.5 -49t63.5 -146q0 -65 -21.5 -108t-58.5 -69t-85 -37t-100 -11h-71v-140h-87v670zM204 214q49 0 87.5 6t65 21.5t40.5 44t14 73.5q0 37 -13 62t-35.5 39 t-53.5 20t-66 6q-26 0 -45 -1t-36 -3h2v-268h40z" />
<glyph unicode="&#xdf;" horiz-adv-x="569" d="M74 516q0 17 1.5 35t3.5 31q7 33 24.5 58.5t43 42.5t57.5 25.5t68 8.5q41 0 77 -10t62.5 -29t41.5 -47t15 -64q0 -23 -6.5 -41.5t-17 -34.5t-23 -30t-25.5 -27q-20 -20 -35 -38.5t-15 -39.5q0 -14 4.5 -25t13.5 -20t23.5 -17.5t34.5 -18.5q21 -11 40.5 -23t34.5 -27.5 t24 -37.5t9 -52q0 -64 -42.5 -106.5t-128.5 -42.5q-39 0 -70.5 8t-48.5 16q-38 20 -38 41q0 13 8.5 26.5t21.5 30.5q7 -6 18.5 -15t27.5 -17t36 -14t44 -6q38 0 64 15.5t26 55.5q0 33 -21 50t-54 32q-20 9 -40 20t-36.5 26t-27 34.5t-10.5 46.5q0 21 6 38.5t15.5 32t21.5 27 t24 24.5q21 21 38 43.5t17 54.5q0 42 -27.5 64.5t-81.5 22.5q-60 0 -86.5 -30t-26.5 -90v-523h-85v516z" />
<glyph unicode="&#xe0;" horiz-adv-x="504" d="M91 365q-8 13 -13.5 28t-5.5 24q0 13 16 24.5t41.5 20.5t56.5 14t61 5q51 0 85 -11t55 -33t29.5 -55t8.5 -76v-197q0 -24 2 -37.5t7.5 -20t15 -8.5t24.5 -2v-40q-9 -3 -22 -5t-27 -2q-31 0 -54 12.5t-27 44.5q-25 -25 -60 -42.5t-92 -17.5q-26 0 -52.5 6t-48 22t-35.5 43 t-14 69q0 52 26.5 85t65.5 52t83.5 26t81.5 8h21t21 -1v15q0 45 -21.5 68.5t-82.5 23.5q-45 0 -76 -11.5t-60 -31.5h-10zM342 237h-29q-32 0 -65 -4t-60 -15t-44 -31t-17 -51q0 -30 18 -53t67 -23q26 0 49.5 7.5t41.5 18.5t28.5 24t10.5 25v102zM104 675q11 9 27 16.5 t30 7.5q19 0 30.5 -10t22.5 -25l84 -110q-8 -6 -19.5 -11t-22.5 -5q-15 0 -27.5 7.5t-23.5 20.5z" />
<glyph unicode="&#xe1;" horiz-adv-x="504" d="M91 365q-8 13 -13.5 28t-5.5 24q0 13 16 24.5t41.5 20.5t56.5 14t61 5q51 0 85 -11t55 -33t29.5 -55t8.5 -76v-197q0 -24 2 -37.5t7.5 -20t15 -8.5t24.5 -2v-40q-9 -3 -22 -5t-27 -2q-31 0 -54 12.5t-27 44.5q-25 -25 -60 -42.5t-92 -17.5q-26 0 -52.5 6t-48 22t-35.5 43 t-14 69q0 52 26.5 85t65.5 52t83.5 26t81.5 8h21t21 -1v15q0 45 -21.5 68.5t-82.5 23.5q-45 0 -76 -11.5t-60 -31.5h-10zM342 237h-29q-32 0 -65 -4t-60 -15t-44 -31t-17 -51q0 -30 18 -53t67 -23q26 0 49.5 7.5t41.5 18.5t28.5 24t10.5 25v102zM274 664q11 15 22.5 25 t30.5 10q14 0 30 -7.5t27 -16.5l-101 -109q-11 -13 -23.5 -20.5t-27.5 -7.5q-11 0 -22.5 5t-19.5 11z" />
<glyph unicode="&#xe2;" horiz-adv-x="504" d="M91 365q-8 13 -13.5 28t-5.5 24q0 13 16 24.5t41.5 20.5t56.5 14t61 5q51 0 85 -11t55 -33t29.5 -55t8.5 -76v-197q0 -24 2 -37.5t7.5 -20t15 -8.5t24.5 -2v-40q-9 -3 -22 -5t-27 -2q-31 0 -54 12.5t-27 44.5q-25 -25 -60 -42.5t-92 -17.5q-26 0 -52.5 6t-48 22t-35.5 43 t-14 69q0 52 26.5 85t65.5 52t83.5 26t81.5 8h21t21 -1v15q0 45 -21.5 68.5t-82.5 23.5q-45 0 -76 -11.5t-60 -31.5h-10zM342 237h-29q-32 0 -65 -4t-60 -15t-44 -31t-17 -51q0 -30 18 -53t67 -23q26 0 49.5 7.5t41.5 18.5t28.5 24t10.5 25v102zM193 666q10 13 22 20.5 t28 7.5t26.5 -6.5t21.5 -20.5l92 -120q-8 -5 -17 -8.5t-20 -3.5q-24 0 -45 22l-59 64l-59 -66q-17 -20 -42 -20q-9 0 -18.5 3.5t-17.5 11.5z" />
<glyph unicode="&#xe3;" horiz-adv-x="504" d="M91 365q-8 13 -13.5 28t-5.5 24q0 13 16 24.5t41.5 20.5t56.5 14t61 5q51 0 85 -11t55 -33t29.5 -55t8.5 -76v-197q0 -24 2 -37.5t7.5 -20t15 -8.5t24.5 -2v-40q-9 -3 -22 -5t-27 -2q-31 0 -54 12.5t-27 44.5q-25 -25 -60 -42.5t-92 -17.5q-26 0 -52.5 6t-48 22t-35.5 43 t-14 69q0 52 26.5 85t65.5 52t83.5 26t81.5 8h21t21 -1v15q0 45 -21.5 68.5t-82.5 23.5q-45 0 -76 -11.5t-60 -31.5h-10zM342 237h-29q-32 0 -65 -4t-60 -15t-44 -31t-17 -51q0 -30 18 -53t67 -23q26 0 49.5 7.5t41.5 18.5t28.5 24t10.5 25v102zM97 561q-9 10 -9 22 q0 10 7 19.5t18 17.5q17 14 37 21.5t39 7.5q18 0 32.5 -5t27.5 -11q14 -7 28 -12t31 -5q20 0 34.5 12t28.5 34q11 -7 23 -18.5t12 -23.5q0 -13 -12 -28q-13 -16 -33.5 -27.5t-47.5 -11.5q-20 0 -37 5.5t-33 12.5q-14 6 -27.5 10.5t-28.5 4.5q-20 0 -37.5 -12t-33.5 -31z" />
<glyph unicode="&#xe4;" horiz-adv-x="504" d="M91 365q-8 13 -13.5 28t-5.5 24q0 13 16 24.5t41.5 20.5t56.5 14t61 5q51 0 85 -11t55 -33t29.5 -55t8.5 -76v-197q0 -24 2 -37.5t7.5 -20t15 -8.5t24.5 -2v-40q-9 -3 -22 -5t-27 -2q-31 0 -54 12.5t-27 44.5q-25 -25 -60 -42.5t-92 -17.5q-26 0 -52.5 6t-48 22t-35.5 43 t-14 69q0 52 26.5 85t65.5 52t83.5 26t81.5 8h21t21 -1v15q0 45 -21.5 68.5t-82.5 23.5q-45 0 -76 -11.5t-60 -31.5h-10zM342 237h-29q-32 0 -65 -4t-60 -15t-44 -31t-17 -51q0 -30 18 -53t67 -23q26 0 49.5 7.5t41.5 18.5t28.5 24t10.5 25v102zM123 570q-14 16 -14 38 q0 23 14.5 38.5t36.5 15.5t36.5 -15.5t14.5 -38.5t-14 -38t-37 -15q-24 0 -37 15zM302 570q-14 16 -14 38q0 23 14.5 38.5t36.5 15.5t36.5 -15.5t14.5 -38.5t-14 -38t-37 -15q-24 0 -37 15z" />
<glyph unicode="&#xe5;" horiz-adv-x="504" d="M91 365q-8 13 -13.5 28t-5.5 24q0 13 16 24.5t41.5 20.5t56.5 14t61 5q51 0 85 -11t55 -33t29.5 -55t8.5 -76v-197q0 -24 2 -37.5t7.5 -20t15 -8.5t24.5 -2v-40q-9 -3 -22 -5t-27 -2q-31 0 -54 12.5t-27 44.5q-25 -25 -60 -42.5t-92 -17.5q-26 0 -52.5 6t-48 22t-35.5 43 t-14 69q0 52 26.5 85t65.5 52t83.5 26t81.5 8h21t21 -1v15q0 45 -21.5 68.5t-82.5 23.5q-45 0 -76 -11.5t-60 -31.5h-10zM342 237h-29q-32 0 -65 -4t-60 -15t-44 -31t-17 -51q0 -30 18 -53t67 -23q26 0 49.5 7.5t41.5 18.5t28.5 24t10.5 25v102zM166 565q-13 15 -20.5 34.5 t-7.5 41.5q0 46 28.5 78t77.5 32t77.5 -30t28.5 -79q0 -45 -28.5 -77t-77.5 -32q-48 0 -78 32zM244 582q26 0 40 17.5t14 41.5q0 23 -11.5 42.5t-43.5 19.5q-27 0 -39.5 -19t-12.5 -42q0 -24 13.5 -42t39.5 -18z" />
<glyph unicode="&#xe6;" horiz-adv-x="787" d="M89 365q-8 13 -13.5 28t-5.5 24q0 13 16 24.5t41.5 20.5t57 14t61.5 5q66 0 102 -18.5t55 -56.5q27 38 65.5 56.5t86.5 18.5q49 0 85 -16t59 -43t34 -63t11 -76q0 -14 -0.5 -31.5t-2.5 -31.5h-316q2 -74 37 -119t110 -45q29 0 50.5 6t37.5 15t26.5 18.5t17.5 17.5 q11 -13 19.5 -27t8.5 -27q0 -8 -7.5 -18t-20.5 -19q-21 -16 -56.5 -26.5t-83.5 -10.5q-60 0 -105.5 21.5t-74.5 60.5q-75 -79 -183 -79q-29 0 -57.5 6.5t-51 22.5t-36.5 43t-14 68q0 49 26.5 80.5t65.5 49t84 24t82 6.5h40v22q0 44 -22 70.5t-82 26.5q-48 0 -77.5 -11 t-59.5 -31h-10zM319 226q-34 0 -68.5 -3.5t-62 -14t-45 -29.5t-17.5 -49q0 -14 4 -26.5t14 -22.5t27.5 -16t43.5 -6q27 0 50 7t41 17.5t30.5 21.5t18.5 20q-9 23 -12 49t-4 52h-20zM661 284q-1 28 -7 51.5t-19.5 40.5t-35 26.5t-52.5 9.5q-52 0 -85 -35t-37 -93h236z" />
<glyph unicode="&#xe7;" horiz-adv-x="463" d="M396 352q-17 20 -44 37.5t-73 17.5q-38 0 -65 -13t-44.5 -36.5t-25.5 -55t-8 -67.5q0 -37 8 -69.5t25.5 -56.5t45.5 -38t67 -14q27 0 48.5 8.5t36.5 19.5q20 13 32 28q4 -4 9.5 -10.5t11 -14t9 -15.5t3.5 -15q0 -14 -21 -32t-55 -29q-32 -11 -75 -12q-7 -8 -7 -20 q0 -10 5 -17t13 -14q9 -9 17.5 -21t8.5 -34t-8.5 -39t-22 -28.5t-30.5 -17.5t-34 -6q-35 0 -35 31q0 5 1 14t4 19q7 -3 13.5 -4t12.5 -1q36 0 36 25q0 12 -6 20t-14 16t-14 16.5t-6 22.5q0 18 11 37l3 4l-30 6q-27 6 -54 22.5t-48.5 45t-35 71t-13.5 101.5q0 74 24 122 t59 75.5t74.5 38.5t69.5 11q36 0 64.5 -7.5t49 -19t31.5 -24.5t11 -25t-8 -27t-16 -26h-11z" />
<glyph unicode="&#xe8;" horiz-adv-x="498" d="M136 219q3 -73 38.5 -117.5t109.5 -44.5q28 0 50 6t38 14.5t26.5 18.5t17.5 18q11 -14 19.5 -30t8.5 -25q0 -8 -5 -16.5t-17 -17.5q-23 -17 -59 -28.5t-87 -11.5q-47 0 -88.5 13.5t-72.5 43.5t-49 78.5t-18 118.5q0 63 18.5 109t48.5 75.5t68.5 43.5t79.5 14 q51 0 87.5 -17t59.5 -45.5t34 -66t11 -77.5q0 -14 -0.5 -28.5t-2.5 -27.5h-316zM370 283q0 27 -5.5 50t-18.5 40.5t-34.5 27.5t-52.5 10q-52 0 -85.5 -34t-37.5 -94h234zM128 675q11 9 27 16.5t30 7.5q19 0 30.5 -10t22.5 -25l84 -110q-8 -6 -19.5 -11t-22.5 -5 q-15 0 -27.5 7.5t-23.5 20.5z" />
<glyph unicode="&#xe9;" horiz-adv-x="498" d="M136 219q3 -73 38.5 -117.5t109.5 -44.5q28 0 50 6t38 14.5t26.5 18.5t17.5 18q11 -14 19.5 -30t8.5 -25q0 -8 -5 -16.5t-17 -17.5q-23 -17 -59 -28.5t-87 -11.5q-47 0 -88.5 13.5t-72.5 43.5t-49 78.5t-18 118.5q0 63 18.5 109t48.5 75.5t68.5 43.5t79.5 14 q51 0 87.5 -17t59.5 -45.5t34 -66t11 -77.5q0 -14 -0.5 -28.5t-2.5 -27.5h-316zM370 283q0 27 -5.5 50t-18.5 40.5t-34.5 27.5t-52.5 10q-52 0 -85.5 -34t-37.5 -94h234zM274 664q11 15 22.5 25t30.5 10q14 0 30 -7.5t27 -16.5l-101 -109q-11 -13 -23.5 -20.5t-27.5 -7.5 q-11 0 -22.5 5t-19.5 11z" />
<glyph unicode="&#xea;" horiz-adv-x="498" d="M136 219q3 -73 38.5 -117.5t109.5 -44.5q28 0 50 6t38 14.5t26.5 18.5t17.5 18q11 -14 19.5 -30t8.5 -25q0 -8 -5 -16.5t-17 -17.5q-23 -17 -59 -28.5t-87 -11.5q-47 0 -88.5 13.5t-72.5 43.5t-49 78.5t-18 118.5q0 63 18.5 109t48.5 75.5t68.5 43.5t79.5 14 q51 0 87.5 -17t59.5 -45.5t34 -66t11 -77.5q0 -14 -0.5 -28.5t-2.5 -27.5h-316zM370 283q0 27 -5.5 50t-18.5 40.5t-34.5 27.5t-52.5 10q-52 0 -85.5 -34t-37.5 -94h234zM210 666q10 13 22 20.5t28 7.5t26.5 -6.5t21.5 -20.5l92 -120q-8 -5 -17 -8.5t-20 -3.5q-24 0 -45 22 l-59 64l-59 -66q-17 -20 -42 -20q-9 0 -18.5 3.5t-17.5 11.5z" />
<glyph unicode="&#xeb;" horiz-adv-x="498" d="M136 219q3 -73 38.5 -117.5t109.5 -44.5q28 0 50 6t38 14.5t26.5 18.5t17.5 18q11 -14 19.5 -30t8.5 -25q0 -8 -5 -16.5t-17 -17.5q-23 -17 -59 -28.5t-87 -11.5q-47 0 -88.5 13.5t-72.5 43.5t-49 78.5t-18 118.5q0 63 18.5 109t48.5 75.5t68.5 43.5t79.5 14 q51 0 87.5 -17t59.5 -45.5t34 -66t11 -77.5q0 -14 -0.5 -28.5t-2.5 -27.5h-316zM370 283q0 27 -5.5 50t-18.5 40.5t-34.5 27.5t-52.5 10q-52 0 -85.5 -34t-37.5 -94h234zM141 570q-14 16 -14 38q0 23 14.5 38.5t36.5 15.5t36.5 -15.5t14.5 -38.5t-14 -38t-37 -15 q-24 0 -37 15zM320 570q-14 16 -14 38q0 23 14.5 38.5t36.5 15.5t36.5 -15.5t14.5 -38.5t-14 -38t-37 -15q-24 0 -37 15z" />
<glyph unicode="&#xec;" horiz-adv-x="241" d="M73 475h6q2 0 5.5 0.5t6.5 0.5q28 0 47.5 -14.5t19.5 -52.5v-319q0 -29 8.5 -41t39.5 -12v-36q-9 -3 -24.5 -5t-30.5 -2q-29 0 -44.5 9t-23 24t-9 33.5t-1.5 36.5v378zM-42 675q11 9 27 16.5t30 7.5q19 0 30.5 -10t22.5 -25l84 -110q-8 -6 -19.5 -11t-22.5 -5 q-15 0 -27.5 7.5t-23.5 20.5z" />
<glyph unicode="&#xed;" horiz-adv-x="241" d="M73 475h6q2 0 5.5 0.5t6.5 0.5q28 0 47.5 -14.5t19.5 -52.5v-319q0 -29 8.5 -41t39.5 -12v-36q-9 -3 -24.5 -5t-30.5 -2q-29 0 -44.5 9t-23 24t-9 33.5t-1.5 36.5v378zM147 664q11 15 22.5 25t30.5 10q14 0 30 -7.5t27 -16.5l-101 -109q-11 -13 -23.5 -20.5t-27.5 -7.5 q-11 0 -22.5 5t-19.5 11z" />
<glyph unicode="&#xee;" horiz-adv-x="241" d="M73 475h6q2 0 5.5 0.5t6.5 0.5q28 0 47.5 -14.5t19.5 -52.5v-319q0 -29 8.5 -41t39.5 -12v-36q-9 -3 -24.5 -5t-30.5 -2q-29 0 -44.5 9t-23 24t-9 33.5t-1.5 36.5v378zM64 666q10 13 22 20.5t28 7.5t26.5 -6.5t21.5 -20.5l92 -120q-8 -5 -17 -8.5t-20 -3.5q-24 0 -45 22 l-59 64l-59 -66q-17 -20 -42 -20q-9 0 -18.5 3.5t-17.5 11.5z" />
<glyph unicode="&#xef;" horiz-adv-x="241" d="M73 475h6q2 0 5.5 0.5t6.5 0.5q28 0 47.5 -14.5t19.5 -52.5v-319q0 -29 8.5 -41t39.5 -12v-36q-9 -3 -24.5 -5t-30.5 -2q-29 0 -44.5 9t-23 24t-9 33.5t-1.5 36.5v378zM-9 570q-14 16 -14 38q0 23 14.5 38.5t36.5 15.5t36.5 -15.5t14.5 -38.5t-14 -38t-37 -15 q-24 0 -37 15zM170 570q-14 16 -14 38q0 23 14.5 38.5t36.5 15.5t36.5 -15.5t14.5 -38.5t-14 -38t-37 -15q-24 0 -37 15z" />
<glyph unicode="&#xf0;" horiz-adv-x="551" d="M172 550l64 35q-31 14 -64.5 21.5t-63.5 7.5v23q0 19 8.5 33.5t33.5 14.5q27 0 71.5 -11.5t95.5 -41.5l104 57l39 -53l-86 -48q60 -52 89.5 -134.5t29.5 -185.5q0 -140 -61.5 -211.5t-163.5 -71.5q-48 0 -88 15.5t-68.5 45.5t-44 75t-15.5 104q0 60 17.5 104t47 72 t67.5 41.5t80 13.5t73.5 -12.5t51.5 -29.5q-11 38 -36 73.5t-54 58.5l-89 -49zM342 371q-33 13 -68 13q-29 0 -53 -8.5t-41.5 -27.5t-27.5 -49.5t-10 -74.5q0 -84 36.5 -124.5t94.5 -40.5q28 0 52.5 11.5t42 35.5t27.5 62t10 91q0 26 -1 43.5t-6 34.5q-22 22 -56 34z" />
<glyph unicode="&#xf1;" horiz-adv-x="543" d="M74 472q7 1 11 1h6q23 0 41.5 -11.5t22.5 -39.5q23 23 62.5 41t93.5 18q68 0 104 -30t47 -75q5 -20 6 -44.5t1 -47.5v-284h-85v281q0 19 -0.5 36.5t-5.5 32.5q-8 26 -29.5 40t-64.5 14q-29 0 -52 -6t-39 -16t-25 -23t-9 -26v-333h-85v472zM128 561q-9 10 -9 22 q0 10 7 19.5t18 17.5q17 14 37 21.5t39 7.5q18 0 32.5 -5t27.5 -11q14 -7 28 -12t31 -5q20 0 34.5 12t28.5 34q11 -7 23 -18.5t12 -23.5q0 -13 -12 -28q-13 -16 -33.5 -27.5t-47.5 -11.5q-20 0 -37 5.5t-33 12.5q-14 6 -27.5 10.5t-28.5 4.5q-20 0 -37.5 -12t-33.5 -31z" />
<glyph unicode="&#xf2;" horiz-adv-x="536" d="M488 237q0 -49 -12 -94.5t-38.5 -80.5t-68.5 -56t-102 -21q-59 0 -101 20t-68 53.5t-38 79t-12 96.5q0 50 14 95t42 78.5t69.5 53.5t97.5 20q58 0 99.5 -20t67.5 -53.5t38 -77.5t12 -93zM398 236q0 31 -5.5 61.5t-19.5 55t-39 39.5t-65 15q-38 0 -63.5 -15t-40.5 -39.5 t-21.5 -55t-6.5 -61.5t5.5 -62.5t20.5 -57.5t40 -42.5t64 -16.5q40 0 66 16.5t40 42t19.5 57.5t5.5 63zM139 675q11 9 27 16.5t30 7.5q19 0 30.5 -10t22.5 -25l84 -110q-8 -6 -19.5 -11t-22.5 -5q-15 0 -27.5 7.5t-23.5 20.5z" />
<glyph unicode="&#xf3;" horiz-adv-x="536" d="M488 237q0 -49 -12 -94.5t-38.5 -80.5t-68.5 -56t-102 -21q-59 0 -101 20t-68 53.5t-38 79t-12 96.5q0 50 14 95t42 78.5t69.5 53.5t97.5 20q58 0 99.5 -20t67.5 -53.5t38 -77.5t12 -93zM398 236q0 31 -5.5 61.5t-19.5 55t-39 39.5t-65 15q-38 0 -63.5 -15t-40.5 -39.5 t-21.5 -55t-6.5 -61.5t5.5 -62.5t20.5 -57.5t40 -42.5t64 -16.5q40 0 66 16.5t40 42t19.5 57.5t5.5 63zM300 664q11 15 22.5 25t30.5 10q14 0 30 -7.5t27 -16.5l-101 -109q-11 -13 -23.5 -20.5t-27.5 -7.5q-11 0 -22.5 5t-19.5 11z" />
<glyph unicode="&#xf4;" horiz-adv-x="536" d="M488 237q0 -49 -12 -94.5t-38.5 -80.5t-68.5 -56t-102 -21q-59 0 -101 20t-68 53.5t-38 79t-12 96.5q0 50 14 95t42 78.5t69.5 53.5t97.5 20q58 0 99.5 -20t67.5 -53.5t38 -77.5t12 -93zM398 236q0 31 -5.5 61.5t-19.5 55t-39 39.5t-65 15q-38 0 -63.5 -15t-40.5 -39.5 t-21.5 -55t-6.5 -61.5t5.5 -62.5t20.5 -57.5t40 -42.5t64 -16.5q40 0 66 16.5t40 42t19.5 57.5t5.5 63zM227 666q10 13 22 20.5t28 7.5t26.5 -6.5t21.5 -20.5l92 -120q-8 -5 -17 -8.5t-20 -3.5q-24 0 -45 22l-59 64l-59 -66q-17 -20 -42 -20q-9 0 -18.5 3.5t-17.5 11.5z" />
<glyph unicode="&#xf5;" horiz-adv-x="536" d="M488 237q0 -49 -12 -94.5t-38.5 -80.5t-68.5 -56t-102 -21q-59 0 -101 20t-68 53.5t-38 79t-12 96.5q0 50 14 95t42 78.5t69.5 53.5t97.5 20q58 0 99.5 -20t67.5 -53.5t38 -77.5t12 -93zM398 236q0 31 -5.5 61.5t-19.5 55t-39 39.5t-65 15q-38 0 -63.5 -15t-40.5 -39.5 t-21.5 -55t-6.5 -61.5t5.5 -62.5t20.5 -57.5t40 -42.5t64 -16.5q40 0 66 16.5t40 42t19.5 57.5t5.5 63zM122 561q-9 10 -9 22q0 10 7 19.5t18 17.5q17 14 37 21.5t39 7.5q18 0 32.5 -5t27.5 -11q14 -7 28 -12t31 -5q20 0 34.5 12t28.5 34q11 -7 23 -18.5t12 -23.5 q0 -13 -12 -28q-13 -16 -33.5 -27.5t-47.5 -11.5q-20 0 -37 5.5t-33 12.5q-14 6 -27.5 10.5t-28.5 4.5q-20 0 -37.5 -12t-33.5 -31z" />
<glyph unicode="&#xf6;" horiz-adv-x="536" d="M488 237q0 -49 -12 -94.5t-38.5 -80.5t-68.5 -56t-102 -21q-59 0 -101 20t-68 53.5t-38 79t-12 96.5q0 50 14 95t42 78.5t69.5 53.5t97.5 20q58 0 99.5 -20t67.5 -53.5t38 -77.5t12 -93zM398 236q0 31 -5.5 61.5t-19.5 55t-39 39.5t-65 15q-38 0 -63.5 -15t-40.5 -39.5 t-21.5 -55t-6.5 -61.5t5.5 -62.5t20.5 -57.5t40 -42.5t64 -16.5q40 0 66 16.5t40 42t19.5 57.5t5.5 63zM149 570q-14 16 -14 38q0 23 14.5 38.5t36.5 15.5t36.5 -15.5t14.5 -38.5t-14 -38t-37 -15q-24 0 -37 15zM328 570q-14 16 -14 38q0 23 14.5 38.5t36.5 15.5t36.5 -15.5 t14.5 -38.5t-14 -38t-37 -15q-24 0 -37 15z" />
<glyph unicode="&#xf7;" horiz-adv-x="547" d="M76 378h390v-80h-390v80zM232 444q-15 16 -15 41q0 24 15 41t38 17t38.5 -17t15.5 -41t-15 -41t-38 -17q-22 0 -39 17zM232 148q-15 16 -15 41q0 23 15 40t38 17t38.5 -17t15.5 -40q0 -24 -15 -41t-38 -17q-22 0 -39 17z" />
<glyph unicode="&#xf8;" horiz-adv-x="536" d="M102 54q-29 35 -41.5 80.5t-12.5 99.5q0 50 14 95t42 78.5t69.5 53.5t97.5 20q33 0 60.5 -7t50.5 -19l43 60l59 -35l-49 -68q28 -34 40.5 -79t12.5 -96q0 -49 -12 -94.5t-38.5 -80.5t-68.5 -56t-102 -21q-34 0 -61.5 7t-50.5 18l-50 -71l-58 35zM337 390q-29 17 -68 17 q-38 0 -63.5 -15t-40.5 -39.5t-21.5 -55t-6.5 -61.5q0 -27 4 -54.5t14 -51.5zM200 75q27 -18 67 -18t66 16.5t40 42t19.5 57.5t5.5 63q0 26 -3.5 51.5t-12.5 47.5z" />
<glyph unicode="&#xf9;" horiz-adv-x="537" d="M70 475q7 1 11.5 1h6.5q30 0 48.5 -15t18.5 -53v-233q0 -39 5.5 -62t22.5 -35q15 -11 32.5 -15t40.5 -4q27 0 49.5 7.5t38.5 18.5t25 23.5t9 22.5v344q7 1 11.5 1h6.5q30 0 48.5 -15t18.5 -53v-408h-85v44q-20 -23 -56 -41t-93 -18q-58 0 -90 18t-47.5 46t-18.5 61.5 t-3 64.5v300zM129 675q11 9 27 16.5t30 7.5q19 0 30.5 -10t22.5 -25l84 -110q-8 -6 -19.5 -11t-22.5 -5q-15 0 -27.5 7.5t-23.5 20.5z" />
<glyph unicode="&#xfa;" horiz-adv-x="537" d="M70 475q7 1 11.5 1h6.5q30 0 48.5 -15t18.5 -53v-233q0 -39 5.5 -62t22.5 -35q15 -11 32.5 -15t40.5 -4q27 0 49.5 7.5t38.5 18.5t25 23.5t9 22.5v344q7 1 11.5 1h6.5q30 0 48.5 -15t18.5 -53v-408h-85v44q-20 -23 -56 -41t-93 -18q-58 0 -90 18t-47.5 46t-18.5 61.5 t-3 64.5v300zM296 664q11 15 22.5 25t30.5 10q14 0 30 -7.5t27 -16.5l-101 -109q-11 -13 -23.5 -20.5t-27.5 -7.5q-11 0 -22.5 5t-19.5 11z" />
<glyph unicode="&#xfb;" horiz-adv-x="537" d="M70 475q7 1 11.5 1h6.5q30 0 48.5 -15t18.5 -53v-233q0 -39 5.5 -62t22.5 -35q15 -11 32.5 -15t40.5 -4q27 0 49.5 7.5t38.5 18.5t25 23.5t9 22.5v344q7 1 11.5 1h6.5q30 0 48.5 -15t18.5 -53v-408h-85v44q-20 -23 -56 -41t-93 -18q-58 0 -90 18t-47.5 46t-18.5 61.5 t-3 64.5v300zM214 666q10 13 22 20.5t28 7.5t26.5 -6.5t21.5 -20.5l92 -120q-8 -5 -17 -8.5t-20 -3.5q-24 0 -45 22l-59 64l-59 -66q-17 -20 -42 -20q-9 0 -18.5 3.5t-17.5 11.5z" />
<glyph unicode="&#xfc;" horiz-adv-x="537" d="M70 475q7 1 11.5 1h6.5q30 0 48.5 -15t18.5 -53v-233q0 -39 5.5 -62t22.5 -35q15 -11 32.5 -15t40.5 -4q27 0 49.5 7.5t38.5 18.5t25 23.5t9 22.5v344q7 1 11.5 1h6.5q30 0 48.5 -15t18.5 -53v-408h-85v44q-20 -23 -56 -41t-93 -18q-58 0 -90 18t-47.5 46t-18.5 61.5 t-3 64.5v300zM138 570q-14 16 -14 38q0 23 14.5 38.5t36.5 15.5t36.5 -15.5t14.5 -38.5t-14 -38t-37 -15q-24 0 -37 15zM317 570q-14 16 -14 38q0 23 14.5 38.5t36.5 15.5t36.5 -15.5t14.5 -38.5t-14 -38t-37 -15q-24 0 -37 15z" />
<glyph unicode="&#xfd;" horiz-adv-x="466" d="M209 1h-34l-162 464q22 8 44 8q26 0 42 -16t24 -41l110 -341l110 332q3 11 8 22.5t13.5 21.5t20.5 16t29 6q20 0 37 -9l-182 -529q-11 -32 -24 -61t-32 -50.5t-46.5 -34.5t-66.5 -13q-38 0 -63.5 11t-25.5 34q0 14 7.5 29t15.5 26q8 -7 24.5 -16.5t41.5 -9.5 q35 0 56.5 26t38.5 80zM260 664q11 15 22.5 25t30.5 10q14 0 30 -7.5t27 -16.5l-101 -109q-11 -13 -23.5 -20.5t-27.5 -7.5q-11 0 -22.5 5t-19.5 11z" />
<glyph unicode="&#xfe;" horiz-adv-x="539" d="M74 709h6q2 0 5.5 0.5t6.5 0.5q28 0 47 -14.5t19 -52.5v-218q19 23 53 39.5t85 16.5q39 0 73.5 -13t61 -41.5t42 -74t15.5 -111.5q0 -75 -18.5 -124.5t-48 -78.5t-65.5 -41t-70 -12q-54 0 -85 18.5t-42 33.5v-253h-85v925zM159 113q6 -8 16 -17.5t24.5 -17.5t33 -14 t39.5 -6q63 0 94 45.5t31 132.5q0 36 -6.5 68t-21 55t-39 36.5t-60.5 13.5q-48 0 -79.5 -20t-31.5 -48v-228z" />
<glyph unicode="&#xff;" horiz-adv-x="466" d="M209 1h-34l-162 464q22 8 44 8q26 0 42 -16t24 -41l110 -341l110 332q3 11 8 22.5t13.5 21.5t20.5 16t29 6q20 0 37 -9l-182 -529q-11 -32 -24 -61t-32 -50.5t-46.5 -34.5t-66.5 -13q-38 0 -63.5 11t-25.5 34q0 14 7.5 29t15.5 26q8 -7 24.5 -16.5t41.5 -9.5 q35 0 56.5 26t38.5 80zM111 570q-14 16 -14 38q0 23 14.5 38.5t36.5 15.5t36.5 -15.5t14.5 -38.5t-14 -38t-37 -15q-24 0 -37 15zM290 570q-14 16 -14 38q0 23 14.5 38.5t36.5 15.5t36.5 -15.5t14.5 -38.5t-14 -38t-37 -15q-24 0 -37 15z" />
<glyph unicode="&#x100;" horiz-adv-x="625" d="M264 663q7 3 21 6t28 3q19 0 34.5 -8.5t24.5 -32.5l231 -631h-91l-67 180h-270l-65 -180h-88zM422 251l-112 319l-113 -319h225zM409 814q23 0 38 -8t15 -34q0 -9 -0.5 -15t-1.5 -11h-253q-26 0 -37 9t-11 32q0 14 4 27h246z" />
<glyph unicode="&#x101;" horiz-adv-x="504" d="M91 365q-8 13 -13.5 28t-5.5 24q0 13 16 24.5t41.5 20.5t56.5 14t61 5q51 0 85 -11t55 -33t29.5 -55t8.5 -76v-197q0 -24 2 -37.5t7.5 -20t15 -8.5t24.5 -2v-40q-9 -3 -22 -5t-27 -2q-31 0 -54 12.5t-27 44.5q-25 -25 -60 -42.5t-92 -17.5q-26 0 -52.5 6t-48 22t-35.5 43 t-14 69q0 52 26.5 85t65.5 52t83.5 26t81.5 8h21t21 -1v15q0 45 -21.5 68.5t-82.5 23.5q-45 0 -76 -11.5t-60 -31.5h-10zM342 237h-29q-32 0 -65 -4t-60 -15t-44 -31t-17 -51q0 -30 18 -53t67 -23q26 0 49.5 7.5t41.5 18.5t28.5 24t10.5 25v102zM348 640q23 0 37.5 -8 t14.5 -35q0 -8 -0.5 -14t-1.5 -11h-255q-24 0 -35 9t-11 32q0 14 4 27h247z" />
<glyph unicode="&#x102;" horiz-adv-x="625" d="M264 663q7 3 21 6t28 3q19 0 34.5 -8.5t24.5 -32.5l231 -631h-91l-67 180h-270l-65 -180h-88zM422 251l-112 319l-113 -319h225zM168 880q12 3 20 3q12 0 20.5 -6.5t14.5 -23.5q13 -35 32 -48.5t51 -13.5q33 0 50.5 13t31.5 48q13 31 37 31q8 0 18 -3t17 -8 q-14 -63 -51 -101.5t-103 -38.5q-67 0 -104 36t-52 105q5 4 18 7z" />
<glyph unicode="&#x103;" horiz-adv-x="504" d="M91 365q-8 13 -13.5 28t-5.5 24q0 13 16 24.5t41.5 20.5t56.5 14t61 5q51 0 85 -11t55 -33t29.5 -55t8.5 -76v-197q0 -24 2 -37.5t7.5 -20t15 -8.5t24.5 -2v-40q-9 -3 -22 -5t-27 -2q-31 0 -54 12.5t-27 44.5q-25 -25 -60 -42.5t-92 -17.5q-26 0 -52.5 6t-48 22t-35.5 43 t-14 69q0 52 26.5 85t65.5 52t83.5 26t81.5 8h21t21 -1v15q0 45 -21.5 68.5t-82.5 23.5q-45 0 -76 -11.5t-60 -31.5h-10zM342 237h-29q-32 0 -65 -4t-60 -15t-44 -31t-17 -51q0 -30 18 -53t67 -23q26 0 49.5 7.5t41.5 18.5t28.5 24t10.5 25v102zM109 681q12 3 20 3 q12 0 20.5 -6.5t14.5 -23.5q13 -35 32 -48.5t51 -13.5q33 0 50.5 13t31.5 48q13 31 37 31q8 0 18 -3t17 -8q-14 -63 -51 -101.5t-103 -38.5q-67 0 -104 36t-52 105q5 4 18 7z" />
<glyph unicode="&#x104;" horiz-adv-x="625" d="M264 663q7 3 21 6t28 3q19 0 34.5 -8.5t24.5 -32.5l231 -631h-4q-14 -11 -27.5 -25.5t-24.5 -30t-18 -31.5t-7 -31q0 -35 31 -35q17 0 28.5 7.5t19.5 15.5q8 -8 14 -18.5t6 -21.5t-7 -18.5t-17.5 -13t-24 -8t-26.5 -2.5q-39 0 -64 20.5t-25 65.5q0 36 19 69t41 53l5 4 h-10l-67 180h-270l-65 -180h-88zM422 251l-112 319l-113 -319h225z" />
<glyph unicode="&#x105;" horiz-adv-x="504" d="M91 365q-8 13 -13.5 28t-5.5 24q0 13 16 24.5t41.5 20.5t56.5 14t61 5q51 0 85 -11t55 -33t29.5 -55t8.5 -76v-197q0 -24 2 -37.5t7.5 -20t15 -8.5t24.5 -2v-41q-14 -11 -27.5 -25.5t-24.5 -30t-18 -31.5t-7 -31q0 -35 31 -35q17 0 28.5 7.5t19.5 15.5q8 -8 14 -18.5 t6 -21.5t-7 -18.5t-17.5 -13t-24 -8t-26.5 -2.5q-39 0 -64 20.5t-25 65.5q0 37 19 69t43 55q-11 1 -23 8q-23 13 -27 45q-25 -25 -60 -42.5t-92 -17.5q-26 0 -52.5 6t-48 22t-35.5 43t-14 69q0 52 26.5 85t65.5 52t83.5 26t81.5 8h32q5 0 10 -1v15q0 45 -21.5 68.5 t-82.5 23.5q-45 0 -76 -11.5t-60 -31.5h-10zM342 237h-29q-32 0 -65 -4t-60 -15t-44 -31t-17 -51q0 -30 18 -53t67 -23q26 0 49.5 7.5t41.5 18.5t28.5 24t10.5 25v102z" />
<glyph unicode="&#x106;" horiz-adv-x="596" d="M512 534q-11 12 -25.5 25t-33.5 23t-42.5 16.5t-53.5 6.5q-60 0 -99.5 -23.5t-63 -62t-33.5 -87t-10 -99.5q0 -52 10.5 -101t35.5 -87.5t66 -61.5t102 -23q33 0 60 9.5t47 22.5t32.5 25t17.5 18q11 -9 23.5 -25.5t12.5 -28.5q0 -16 -14 -30q-5 -5 -19 -16t-37 -22 t-56 -19.5t-76 -8.5q-77 0 -133 26t-92 72t-53 110t-17 139t17.5 139.5t54 111t92 73t132.5 26.5q39 0 75 -9t63.5 -23t44 -31t16.5 -32q0 -13 -8.5 -27.5t-17.5 -25.5h-18zM380 832q16 13 28.5 19.5t26.5 6.5q17 0 33.5 -12t25.5 -27l-121 -78q-14 -8 -25.5 -13t-22.5 -5 q-12 0 -26.5 8.5t-21.5 17.5z" />
<glyph unicode="&#x107;" horiz-adv-x="463" d="M396 352q-17 20 -44 37.5t-73 17.5q-38 0 -65 -13t-44.5 -36.5t-25.5 -55t-8 -67.5q0 -37 8 -69.5t25.5 -56.5t45.5 -38t67 -14q27 0 48.5 8.5t36.5 19.5q20 13 32 28q4 -4 9.5 -10.5t11 -14t9 -15.5t3.5 -15q0 -14 -21 -32q-19 -17 -54.5 -29t-86.5 -12q-32 0 -70.5 9 t-72 36t-56.5 75.5t-23 128.5q0 74 24 122t59 75.5t74.5 38.5t69.5 11q36 0 64.5 -7.5t49 -19t31.5 -24.5t11 -25t-8 -27t-16 -26h-11zM289 664q11 15 22.5 25t30.5 10q14 0 30 -7.5t27 -16.5l-101 -109q-11 -13 -23.5 -20.5t-27.5 -7.5q-11 0 -22.5 5t-19.5 11z" />
<glyph unicode="&#x108;" horiz-adv-x="596" d="M512 534q-11 12 -25.5 25t-33.5 23t-42.5 16.5t-53.5 6.5q-60 0 -99.5 -23.5t-63 -62t-33.5 -87t-10 -99.5q0 -52 10.5 -101t35.5 -87.5t66 -61.5t102 -23q33 0 60 9.5t47 22.5t32.5 25t17.5 18q11 -9 23.5 -25.5t12.5 -28.5q0 -16 -14 -30q-5 -5 -19 -16t-37 -22 t-56 -19.5t-76 -8.5q-77 0 -133 26t-92 72t-53 110t-17 139t17.5 139.5t54 111t92 73t132.5 26.5q39 0 75 -9t63.5 -23t44 -31t16.5 -32q0 -13 -8.5 -27.5t-17.5 -25.5h-18zM302 835q24 29 50 29q25 0 48 -27l87 -103q-8 -5 -18 -9t-19 -4q-12 0 -22.5 5.5t-23.5 16.5 l-54 47l-53 -48q-9 -9 -19 -15t-24 -6q-9 0 -19 4.5t-18 11.5z" />
<glyph unicode="&#x109;" horiz-adv-x="463" d="M396 352q-17 20 -44 37.5t-73 17.5q-38 0 -65 -13t-44.5 -36.5t-25.5 -55t-8 -67.5q0 -37 8 -69.5t25.5 -56.5t45.5 -38t67 -14q27 0 48.5 8.5t36.5 19.5q20 13 32 28q4 -4 9.5 -10.5t11 -14t9 -15.5t3.5 -15q0 -14 -21 -32q-19 -17 -54.5 -29t-86.5 -12q-32 0 -70.5 9 t-72 36t-56.5 75.5t-23 128.5q0 74 24 122t59 75.5t74.5 38.5t69.5 11q36 0 64.5 -7.5t49 -19t31.5 -24.5t11 -25t-8 -27t-16 -26h-11zM223 666q10 13 22 20.5t28 7.5t26.5 -6.5t21.5 -20.5l92 -120q-8 -5 -17 -8.5t-20 -3.5q-24 0 -45 22l-59 64l-59 -66q-17 -20 -42 -20 q-9 0 -18.5 3.5t-17.5 11.5z" />
<glyph unicode="&#x10a;" horiz-adv-x="596" d="M512 534q-11 12 -25.5 25t-33.5 23t-42.5 16.5t-53.5 6.5q-60 0 -99.5 -23.5t-63 -62t-33.5 -87t-10 -99.5q0 -52 10.5 -101t35.5 -87.5t66 -61.5t102 -23q33 0 60 9.5t47 22.5t32.5 25t17.5 18q11 -9 23.5 -25.5t12.5 -28.5q0 -16 -14 -30q-5 -5 -19 -16t-37 -22 t-56 -19.5t-76 -8.5q-77 0 -133 26t-92 72t-53 110t-17 139t17.5 139.5t54 111t92 73t132.5 26.5q39 0 75 -9t63.5 -23t44 -31t16.5 -32q0 -13 -8.5 -27.5t-17.5 -25.5h-18zM312 746q-15 18 -15 42q0 26 15.5 43.5t38.5 17.5t39 -17.5t16 -43.5q0 -24 -16 -41.5t-39 -17.5 q-22 0 -39 17z" />
<glyph unicode="&#x10b;" horiz-adv-x="463" d="M396 352q-17 20 -44 37.5t-73 17.5q-38 0 -65 -13t-44.5 -36.5t-25.5 -55t-8 -67.5q0 -37 8 -69.5t25.5 -56.5t45.5 -38t67 -14q27 0 48.5 8.5t36.5 19.5q20 13 32 28q4 -4 9.5 -10.5t11 -14t9 -15.5t3.5 -15q0 -14 -21 -32q-19 -17 -54.5 -29t-86.5 -12q-32 0 -70.5 9 t-72 36t-56.5 75.5t-23 128.5q0 74 24 122t59 75.5t74.5 38.5t69.5 11q36 0 64.5 -7.5t49 -19t31.5 -24.5t11 -25t-8 -27t-16 -26h-11zM233 560q-15 16 -15 42t15.5 43.5t38.5 17.5t39 -17.5t16 -43.5q0 -25 -16 -42t-39 -17q-22 0 -39 17z" />
<glyph unicode="&#x10c;" horiz-adv-x="596" d="M512 534q-11 12 -25.5 25t-33.5 23t-42.5 16.5t-53.5 6.5q-60 0 -99.5 -23.5t-63 -62t-33.5 -87t-10 -99.5q0 -52 10.5 -101t35.5 -87.5t66 -61.5t102 -23q33 0 60 9.5t47 22.5t32.5 25t17.5 18q11 -9 23.5 -25.5t12.5 -28.5q0 -16 -14 -30q-5 -5 -19 -16t-37 -22 t-56 -19.5t-76 -8.5q-77 0 -133 26t-92 72t-53 110t-17 139t17.5 139.5t54 111t92 73t132.5 26.5q39 0 75 -9t63.5 -23t44 -31t16.5 -32q0 -13 -8.5 -27.5t-17.5 -25.5h-18zM221 848q8 7 18 11.5t19 4.5q14 0 24 -6t19 -15l53 -48l54 47q13 11 23.5 16.5t22.5 5.5q9 0 19 -4 t18 -9l-87 -103q-23 -27 -48 -27q-26 0 -50 29z" />
<glyph unicode="&#x10d;" horiz-adv-x="463" d="M396 352q-17 20 -44 37.5t-73 17.5q-38 0 -65 -13t-44.5 -36.5t-25.5 -55t-8 -67.5q0 -37 8 -69.5t25.5 -56.5t45.5 -38t67 -14q27 0 48.5 8.5t36.5 19.5q20 13 32 28q4 -4 9.5 -10.5t11 -14t9 -15.5t3.5 -15q0 -14 -21 -32q-19 -17 -54.5 -29t-86.5 -12q-32 0 -70.5 9 t-72 36t-56.5 75.5t-23 128.5q0 74 24 122t59 75.5t74.5 38.5t69.5 11q36 0 64.5 -7.5t49 -19t31.5 -24.5t11 -25t-8 -27t-16 -26h-11zM136 672q8 8 17.5 11.5t18.5 3.5q25 0 42 -20l59 -66l59 64q21 22 45 22q11 0 20 -3.5t17 -8.5l-92 -120q-11 -14 -21.5 -20.5 t-26.5 -6.5t-28 7.5t-22 20.5z" />
<glyph unicode="&#x10e;" horiz-adv-x="633" d="M79 666q54 6 94 8t75 2q96 0 160 -26t102.5 -71t54.5 -105t16 -128q0 -91 -30 -166t-94 -123q-39 -28 -94 -42.5t-128 -14.5h-156v666zM249 74q67 0 113.5 21t75 57t41 84.5t12.5 104.5t-11 103.5t-39 82t-74.5 53.5t-116.5 19q-20 0 -41.5 -1t-42.5 -4v-520h83zM134 848 q8 7 18 11.5t19 4.5q14 0 24 -6t19 -15l53 -48l54 47q13 11 23.5 16.5t22.5 5.5q9 0 19 -4t18 -9l-87 -103q-23 -27 -48 -27q-26 0 -50 29z" />
<glyph unicode="&#x10f;" horiz-adv-x="564" d="M381 40q-8 -8 -20 -18t-28.5 -18t-37.5 -13.5t-46 -5.5q-39 0 -75 13t-63.5 41.5t-43.5 75t-16 113.5q0 66 16.5 114t44 78.5t64 45.5t75.5 15q45 0 76.5 -15t51.5 -34v277q7 1 11.5 1h6.5q30 0 48.5 -15t18.5 -53v-642h-83v40zM379 357h1q-6 6 -15.5 14.5t-24 17 t-33.5 14t-43 5.5q-57 0 -90 -42.5t-33 -127.5q0 -39 6 -72t21 -57.5t39.5 -38t60.5 -13.5q24 0 44.5 6t35.5 15t23 21t8 24v234zM536 636q0 15 2 28.5t8 23.5t17.5 16t29.5 6q5 0 10 -0.5t10 -1.5l-11 -152q-2 -29 -13.5 -45.5t-41.5 -16.5h-11v142z" />
<glyph unicode="&#x110;" horiz-adv-x="638" d="M83 316h-66v67h66v283q54 6 94.5 8t75.5 2q96 0 160 -26t102.5 -71t54.5 -105t16 -128q0 -71 -17 -133.5t-53.5 -110t-93.5 -75t-136 -27.5h-203v316zM171 74h79q14 0 28 1q70 2 113 27.5t66 63.5t31 84.5t8 90.5q0 56 -11.5 103.5t-39 82t-74 53.5t-116.5 19 q-20 0 -42 -1t-42 -4v-211h198v-67h-198v-242z" />
<glyph unicode="&#x111;" horiz-adv-x="538" d="M381 40q-8 -8 -20 -18t-28.5 -18t-37.5 -13.5t-46 -5.5q-39 0 -75 13t-63.5 41.5t-43.5 73.5t-16 110q0 66 16.5 113t44 77t64 44t75.5 14q45 0 76.5 -15t51.5 -34v126h-173v66h173v95h6q2 0 5.5 0.5t6.5 0.5q28 0 47.5 -14t19.5 -52v-30h93v-66h-93v-548h-83v40z M379 347q-6 6 -16 15t-23.5 17t-32.5 13.5t-43 5.5q-57 0 -90 -40t-33 -125q0 -38 6 -70t21 -55.5t39.5 -37t60.5 -13.5q24 0 44.5 6t35.5 15t23 21t8 24v224z" />
<glyph unicode="&#x112;" horiz-adv-x="509" d="M78 669h386q1 -4 1.5 -8.5t0.5 -12.5q0 -23 -13 -38.5t-48 -15.5h-240v-206h227v-77h-227v-236h254q32 0 47 -15.5t15 -38.5v-8.5t-1 -12.5h-402v669zM360 814q23 0 38 -8t15 -34q0 -9 -0.5 -15t-1.5 -11h-253q-26 0 -37 9t-11 32q0 14 4 27h246z" />
<glyph unicode="&#x113;" horiz-adv-x="498" d="M136 219q3 -73 38.5 -117.5t109.5 -44.5q28 0 50 6t38 14.5t26.5 18.5t17.5 18q11 -14 19.5 -30t8.5 -25q0 -8 -5 -16.5t-17 -17.5q-23 -17 -59 -28.5t-87 -11.5q-47 0 -88.5 13.5t-72.5 43.5t-49 78.5t-18 118.5q0 63 18.5 109t48.5 75.5t68.5 43.5t79.5 14 q51 0 87.5 -17t59.5 -45.5t34 -66t11 -77.5q0 -14 -0.5 -28.5t-2.5 -27.5h-316zM370 283q0 27 -5.5 50t-18.5 40.5t-34.5 27.5t-52.5 10q-52 0 -85.5 -34t-37.5 -94h234zM363 640q23 0 37.5 -8t14.5 -35q0 -8 -0.5 -14t-1.5 -11h-255q-24 0 -35 9t-11 32q0 14 4 27h247z" />
<glyph unicode="&#x114;" horiz-adv-x="509" d="M78 669h386q1 -4 1.5 -8.5t0.5 -12.5q0 -23 -13 -38.5t-48 -15.5h-240v-206h227v-77h-227v-236h254q32 0 47 -15.5t15 -38.5v-8.5t-1 -12.5h-402v669zM126 880q12 3 20 3q12 0 20.5 -6.5t14.5 -23.5q13 -35 32 -48.5t51 -13.5q33 0 50.5 13t31.5 48q13 31 37 31 q8 0 18 -3t17 -8q-14 -63 -51 -101.5t-103 -38.5q-67 0 -104 36t-52 105q5 4 18 7z" />
<glyph unicode="&#x115;" horiz-adv-x="498" d="M136 219q3 -73 38.5 -117.5t109.5 -44.5q28 0 50 6t38 14.5t26.5 18.5t17.5 18q11 -14 19.5 -30t8.5 -25q0 -8 -5 -16.5t-17 -17.5q-23 -17 -59 -28.5t-87 -11.5q-47 0 -88.5 13.5t-72.5 43.5t-49 78.5t-18 118.5q0 63 18.5 109t48.5 75.5t68.5 43.5t79.5 14 q51 0 87.5 -17t59.5 -45.5t34 -66t11 -77.5q0 -14 -0.5 -28.5t-2.5 -27.5h-316zM370 283q0 27 -5.5 50t-18.5 40.5t-34.5 27.5t-52.5 10q-52 0 -85.5 -34t-37.5 -94h234zM128 681q12 3 20 3q12 0 20.5 -6.5t14.5 -23.5q13 -35 32 -48.5t51 -13.5q33 0 50.5 13t31.5 48 q13 31 37 31q8 0 18 -3t17 -8q-14 -63 -51 -101.5t-103 -38.5q-67 0 -104 36t-52 105q5 4 18 7z" />
<glyph unicode="&#x116;" horiz-adv-x="509" d="M78 669h386q1 -4 1.5 -8.5t0.5 -12.5q0 -23 -13 -38.5t-48 -15.5h-240v-206h227v-77h-227v-236h254q32 0 47 -15.5t15 -38.5v-8.5t-1 -12.5h-402v669zM223 746q-15 18 -15 42q0 26 15.5 43.5t38.5 17.5t39 -17.5t16 -43.5q0 -24 -16 -41.5t-39 -17.5q-22 0 -39 17z" />
<glyph unicode="&#x117;" horiz-adv-x="498" d="M136 219q3 -73 38.5 -117.5t109.5 -44.5q28 0 50 6t38 14.5t26.5 18.5t17.5 18q11 -14 19.5 -30t8.5 -25q0 -8 -5 -16.5t-17 -17.5q-23 -17 -59 -28.5t-87 -11.5q-47 0 -88.5 13.5t-72.5 43.5t-49 78.5t-18 118.5q0 63 18.5 109t48.5 75.5t68.5 43.5t79.5 14 q51 0 87.5 -17t59.5 -45.5t34 -66t11 -77.5q0 -14 -0.5 -28.5t-2.5 -27.5h-316zM370 283q0 27 -5.5 50t-18.5 40.5t-34.5 27.5t-52.5 10q-52 0 -85.5 -34t-37.5 -94h234zM227 560q-15 16 -15 42t15.5 43.5t38.5 17.5t39 -17.5t16 -43.5q0 -25 -16 -42t-39 -17q-22 0 -39 17z " />
<glyph unicode="&#x118;" horiz-adv-x="509" d="M78 669h386q1 -4 1.5 -8.5t0.5 -12.5q0 -23 -13 -38.5t-48 -15.5h-240v-206h227v-77h-227v-236h254q32 0 47 -15.5t15 -38.5q0 -16 -1 -21q-14 -11 -27.5 -25.5t-24.5 -30t-18 -31.5t-7 -31q0 -35 31 -35q17 0 28.5 7.5t19.5 15.5q8 -8 14 -18.5t6 -21.5t-7 -18.5 t-17.5 -13t-24 -8t-26.5 -2.5q-39 0 -64 20.5t-25 65.5q0 36 19 69t41 53l5 4h-325v669z" />
<glyph unicode="&#x119;" horiz-adv-x="498" d="M276 -15q-47 0 -88.5 13.5t-72.5 43.5t-49 78.5t-18 118.5q0 63 18.5 109t48.5 75.5t68.5 43.5t79.5 14q51 0 87.5 -17t59.5 -45.5t34 -66t11 -77.5q0 -14 -0.5 -28.5t-2.5 -27.5h-316q3 -73 38.5 -117.5t109.5 -44.5q28 0 50 6t38 14.5t26.5 18.5t17.5 18 q11 -14 19.5 -30t8.5 -25q0 -8 -5 -16.5t-17 -17.5q-10 -7 -21 -13.5t-25 -11.5q-14 -11 -27.5 -25.5t-24.5 -30t-18 -31.5t-7 -31q0 -35 31 -35q17 0 28.5 7.5t19.5 15.5q8 -8 14 -18.5t6 -21.5t-7 -18.5t-17.5 -13t-24 -8t-26.5 -2.5q-39 0 -64 20.5t-25 65.5q0 24 9 47 t22 42l18 22h-7zM370 283q0 27 -5.5 50t-18.5 40.5t-34.5 27.5t-52.5 10q-52 0 -85.5 -34t-37.5 -94h234z" />
<glyph unicode="&#x11a;" horiz-adv-x="509" d="M78 669h386q1 -4 1.5 -8.5t0.5 -12.5q0 -23 -13 -38.5t-48 -15.5h-240v-206h227v-77h-227v-236h254q32 0 47 -15.5t15 -38.5v-8.5t-1 -12.5h-402v669zM130 848q8 7 18 11.5t19 4.5q14 0 24 -6t19 -15l53 -48l54 47q13 11 23.5 16.5t22.5 5.5q9 0 19 -4t18 -9l-87 -103 q-23 -27 -48 -27q-26 0 -50 29z" />
<glyph unicode="&#x11b;" horiz-adv-x="498" d="M136 219q3 -73 38.5 -117.5t109.5 -44.5q28 0 50 6t38 14.5t26.5 18.5t17.5 18q11 -14 19.5 -30t8.5 -25q0 -8 -5 -16.5t-17 -17.5q-23 -17 -59 -28.5t-87 -11.5q-47 0 -88.5 13.5t-72.5 43.5t-49 78.5t-18 118.5q0 63 18.5 109t48.5 75.5t68.5 43.5t79.5 14 q51 0 87.5 -17t59.5 -45.5t34 -66t11 -77.5q0 -14 -0.5 -28.5t-2.5 -27.5h-316zM370 283q0 27 -5.5 50t-18.5 40.5t-34.5 27.5t-52.5 10q-52 0 -85.5 -34t-37.5 -94h234zM123 672q8 8 17.5 11.5t18.5 3.5q25 0 42 -20l59 -66l59 64q21 22 45 22q11 0 20 -3.5t17 -8.5 l-92 -120q-11 -14 -21.5 -20.5t-26.5 -6.5t-28 7.5t-22 20.5z" />
<glyph unicode="&#x11c;" horiz-adv-x="651" d="M507 279h-140v71h223v-283q-7 -9 -25.5 -22.5t-48 -27t-69.5 -23t-89 -9.5q-77 0 -133 26t-92.5 73t-54 111.5t-17.5 141.5q0 75 18 138.5t55 109t94.5 71.5t135.5 26q36 0 71 -8.5t62 -22t44 -30t17 -31.5q0 -12 -8 -27t-18 -27h-17q-9 11 -23.5 23.5t-34.5 22.5 t-45 16.5t-54 6.5q-61 0 -101 -23t-64 -60.5t-33.5 -85.5t-9.5 -99q0 -53 10.5 -103t36 -89t67 -63t103.5 -24q28 0 51.5 5t41.5 12t29.5 14.5t17.5 13.5v176zM304 835q24 29 50 29q25 0 48 -27l87 -103q-8 -5 -18 -9t-19 -4q-12 0 -22.5 5.5t-23.5 16.5l-54 47l-53 -48 q-9 -9 -19 -15t-24 -6q-9 0 -19 4.5t-18 11.5z" />
<glyph unicode="&#x11d;" horiz-adv-x="538" d="M381 40q-8 -8 -20 -18t-28.5 -18t-37.5 -13.5t-46 -5.5q-39 0 -75 13t-63.5 41.5t-43.5 75t-16 113.5q0 66 16 114t43 78.5t63 45.5t76 15q48 0 79.5 -14.5t52.5 -36.5q5 22 23 32.5t35 10.5h11t14 -2v-438q0 -61 -10.5 -108.5t-36.5 -80.5t-70 -50.5t-111 -17.5 q-48 0 -82.5 9t-57.5 22q-18 11 -25.5 21t-7.5 21q0 13 11.5 29t20.5 26q2 -3 13 -11.5t29.5 -18.5t43.5 -17.5t55 -7.5q48 0 76.5 13.5t44 38t20 58t4.5 74.5v7zM379 357h1q-6 6 -15.5 14.5t-24 17t-33.5 14t-43 5.5q-57 0 -90 -42.5t-33 -127.5q0 -39 6 -72t21 -57.5 t39.5 -38t60.5 -13.5q24 0 44.5 6t35.5 15t23 21t8 24v234zM211 666q10 13 22 20.5t28 7.5t26.5 -6.5t21.5 -20.5l92 -120q-8 -5 -17 -8.5t-20 -3.5q-24 0 -45 22l-59 64l-59 -66q-17 -20 -42 -20q-9 0 -18.5 3.5t-17.5 11.5z" />
<glyph unicode="&#x11e;" horiz-adv-x="651" d="M507 279h-140v71h223v-283q-7 -9 -25.5 -22.5t-48 -27t-69.5 -23t-89 -9.5q-77 0 -133 26t-92.5 73t-54 111.5t-17.5 141.5q0 75 18 138.5t55 109t94.5 71.5t135.5 26q36 0 71 -8.5t62 -22t44 -30t17 -31.5q0 -12 -8 -27t-18 -27h-17q-9 11 -23.5 23.5t-34.5 22.5 t-45 16.5t-54 6.5q-61 0 -101 -23t-64 -60.5t-33.5 -85.5t-9.5 -99q0 -53 10.5 -103t36 -89t67 -63t103.5 -24q28 0 51.5 5t41.5 12t29.5 14.5t17.5 13.5v176zM215 880q12 3 20 3q12 0 20.5 -6.5t14.5 -23.5q13 -35 32 -48.5t51 -13.5q33 0 50.5 13t31.5 48q13 31 37 31 q8 0 18 -3t17 -8q-14 -63 -51 -101.5t-103 -38.5q-67 0 -104 36t-52 105q5 4 18 7z" />
<glyph unicode="&#x11f;" horiz-adv-x="538" d="M381 40q-8 -8 -20 -18t-28.5 -18t-37.5 -13.5t-46 -5.5q-39 0 -75 13t-63.5 41.5t-43.5 75t-16 113.5q0 66 16 114t43 78.5t63 45.5t76 15q48 0 79.5 -14.5t52.5 -36.5q5 22 23 32.5t35 10.5h11t14 -2v-438q0 -61 -10.5 -108.5t-36.5 -80.5t-70 -50.5t-111 -17.5 q-48 0 -82.5 9t-57.5 22q-18 11 -25.5 21t-7.5 21q0 13 11.5 29t20.5 26q2 -3 13 -11.5t29.5 -18.5t43.5 -17.5t55 -7.5q48 0 76.5 13.5t44 38t20 58t4.5 74.5v7zM379 357h1q-6 6 -15.5 14.5t-24 17t-33.5 14t-43 5.5q-57 0 -90 -42.5t-33 -127.5q0 -39 6 -72t21 -57.5 t39.5 -38t60.5 -13.5q24 0 44.5 6t35.5 15t23 21t8 24v234zM127 681q12 3 20 3q12 0 20.5 -6.5t14.5 -23.5q13 -35 32 -48.5t51 -13.5q33 0 50.5 13t31.5 48q13 31 37 31q8 0 18 -3t17 -8q-14 -63 -51 -101.5t-103 -38.5q-67 0 -104 36t-52 105q5 4 18 7z" />
<glyph unicode="&#x120;" horiz-adv-x="651" d="M507 279h-140v71h223v-283q-7 -9 -25.5 -22.5t-48 -27t-69.5 -23t-89 -9.5q-77 0 -133 26t-92.5 73t-54 111.5t-17.5 141.5q0 75 18 138.5t55 109t94.5 71.5t135.5 26q36 0 71 -8.5t62 -22t44 -30t17 -31.5q0 -12 -8 -27t-18 -27h-17q-9 11 -23.5 23.5t-34.5 22.5 t-45 16.5t-54 6.5q-61 0 -101 -23t-64 -60.5t-33.5 -85.5t-9.5 -99q0 -53 10.5 -103t36 -89t67 -63t103.5 -24q28 0 51.5 5t41.5 12t29.5 14.5t17.5 13.5v176zM308 746q-15 18 -15 42q0 26 15.5 43.5t38.5 17.5t39 -17.5t16 -43.5q0 -24 -16 -41.5t-39 -17.5q-22 0 -39 17z " />
<glyph unicode="&#x121;" horiz-adv-x="538" d="M381 40q-8 -8 -20 -18t-28.5 -18t-37.5 -13.5t-46 -5.5q-39 0 -75 13t-63.5 41.5t-43.5 75t-16 113.5q0 66 16 114t43 78.5t63 45.5t76 15q48 0 79.5 -14.5t52.5 -36.5q5 22 23 32.5t35 10.5h11t14 -2v-438q0 -61 -10.5 -108.5t-36.5 -80.5t-70 -50.5t-111 -17.5 q-48 0 -82.5 9t-57.5 22q-18 11 -25.5 21t-7.5 21q0 13 11.5 29t20.5 26q2 -3 13 -11.5t29.5 -18.5t43.5 -17.5t55 -7.5q48 0 76.5 13.5t44 38t20 58t4.5 74.5v7zM379 357h1q-6 6 -15.5 14.5t-24 17t-33.5 14t-43 5.5q-57 0 -90 -42.5t-33 -127.5q0 -39 6 -72t21 -57.5 t39.5 -38t60.5 -13.5q24 0 44.5 6t35.5 15t23 21t8 24v234zM223 560q-15 16 -15 42t15.5 43.5t38.5 17.5t39 -17.5t16 -43.5q0 -25 -16 -42t-39 -17q-22 0 -39 17z" />
<glyph unicode="&#x122;" horiz-adv-x="651" d="M507 279h-140v71h223v-283q-7 -9 -25.5 -22.5t-48 -27t-69.5 -23t-89 -9.5q-77 0 -133 26t-92.5 73t-54 111.5t-17.5 141.5q0 75 18 138.5t55 109t94.5 71.5t135.5 26q36 0 71 -8.5t62 -22t44 -30t17 -31.5q0 -12 -8 -27t-18 -27h-17q-9 11 -23.5 23.5t-34.5 22.5 t-45 16.5t-54 6.5q-61 0 -101 -23t-64 -60.5t-33.5 -85.5t-9.5 -99q0 -53 10.5 -103t36 -89t67 -63t103.5 -24q28 0 51.5 5t41.5 12t29.5 14.5t17.5 13.5v176zM296 -104q8 20 20 33t36 13q11 0 23 -3t20 -7l-68 -126q-7 -12 -18.5 -20t-28.5 -8q-6 0 -15.5 2t-14.5 5z" />
<glyph unicode="&#x123;" horiz-adv-x="538" d="M383 40q-8 -8 -20 -18t-28.5 -18t-37.5 -13.5t-46 -5.5q-39 0 -75 13t-63.5 41.5t-43.5 75t-16 113.5q0 66 16 114t43 78.5t63 45.5t76 15q48 0 79.5 -14.5t52.5 -36.5q5 22 23 32.5t35 10.5q5 0 9 -0.5t8 -0.5q3 -1 8 -1v-438q0 -61 -10.5 -108.5t-36.5 -80.5t-70 -50.5 t-111 -17.5q-48 0 -82.5 9t-57.5 22q-18 11 -25.5 21t-7.5 21q0 13 11.5 29t20.5 26q2 -3 13 -11.5t29.5 -18.5t43.5 -17.5t55 -7.5q48 0 76.5 13.5t44 38t20 58t4.5 74.5v7zM383 357q-7 6 -17 14.5t-24 17t-32.5 14t-43.5 5.5q-57 0 -90 -42.5t-33 -127.5q0 -39 6 -72 t21 -57.5t39.5 -38t60.5 -13.5q51 0 80 21t33 45v234zM299 675q16 28 45 28q7 0 17.5 -2.5t15.5 -5.5l-47 -111q-8 -18 -20.5 -32t-35.5 -14q-10 0 -22.5 3t-20.5 8z" />
<glyph unicode="&#x124;" horiz-adv-x="650" d="M79 670q6 1 13 1.5t12 0.5q10 0 21 -2.5t20 -9t15 -19t6 -32.5v-223h318v284q6 1 13 1.5t12 0.5q10 0 21 -2.5t20 -9t15 -19t6 -32.5v-609h-87v310h-318v-310h-87v670zM276 835q24 29 50 29q25 0 48 -27l87 -103q-8 -5 -18 -9t-19 -4q-12 0 -22.5 5.5t-23.5 16.5l-54 47 l-53 -48q-9 -9 -19 -15t-24 -6q-9 0 -19 4.5t-18 11.5z" />
<glyph unicode="&#x125;" horiz-adv-x="544" d="M74 709q7 1 11.5 1h6.5q30 0 48 -15t18 -53v-220q26 29 66 44t85 15q70 0 107 -31.5t47 -73.5q5 -20 6 -44.5t1 -47.5v-284h-85v281q0 19 -0.5 36.5t-5.5 32.5q-7 26 -29 40t-65 14q-29 0 -52 -6.5t-39.5 -16.5t-25.5 -23t-9 -26v-332h-85v709zM155 870q24 29 50 29 q25 0 48 -27l87 -103q-8 -5 -18 -9t-19 -4q-12 0 -22.5 5.5t-23.5 16.5l-54 47l-53 -48q-9 -9 -19 -15t-24 -6q-9 0 -19 4.5t-18 11.5z" />
<glyph unicode="&#x126;" horiz-adv-x="650" d="M79 499h-73v66h73v105q5 0 8 1q4 0 8 0.5t9 0.5q10 0 21 -2.5t20 -9t15 -19t6 -32.5v-44h318v105q5 0 8 1q4 0 8 0.5t9 0.5q9 0 19.5 -2.5t20 -9t16 -19t6.5 -32.5v-44h74v-66h-74v-499h-87v310h-318v-310h-87v499zM484 386v113h-318v-113h318z" />
<glyph unicode="&#x127;" horiz-adv-x="544" d="M74 548h-74v66h74v95h5q2 0 5.5 0.5t6.5 0.5q28 0 47.5 -14t19.5 -52v-30h204v-66h-204v-146q26 29 66 44t85 15q70 0 107 -31.5t47 -73.5q5 -20 6 -44.5t1 -47.5v-264h-85v261q0 19 -0.5 36.5t-5.5 32.5q-7 26 -29 40t-65 14q-29 0 -52 -6.5t-39.5 -16.5t-25.5 -23 t-9 -26v-312h-85v548z" />
<glyph unicode="&#x128;" horiz-adv-x="240" d="M76 670q6 1 13 1.5t12 0.5q10 0 20.5 -2t20 -9t15.5 -19t7 -33v-609h-88v670zM-7 728l-19 18q-9 10 -9 22q0 10 7 19.5t18 17.5q17 14 37 21.5t39 7.5q18 0 32.5 -5t27.5 -11q14 -7 28 -12t31 -5q20 0 34.5 12t28.5 34q11 -7 23 -18.5t12 -23.5q0 -13 -12 -28 q-13 -16 -33.5 -27.5t-47.5 -11.5q-20 0 -37 5.5t-33 12.5q-14 6 -27.5 10.5t-28.5 4.5q-20 0 -37.5 -12t-33.5 -31z" />
<glyph unicode="&#x129;" horiz-adv-x="241" d="M73 475h6q2 0 5.5 0.5t6.5 0.5q28 0 47.5 -14.5t19.5 -52.5v-319q0 -29 8.5 -41t39.5 -12v-36q-9 -3 -24.5 -5t-30.5 -2q-29 0 -44.5 9t-23 24t-9 33.5t-1.5 36.5v378zM-29 561q-9 10 -9 22q0 10 7 19.5t18 17.5q17 14 37 21.5t39 7.5q18 0 32.5 -5t27.5 -11 q14 -7 28 -12t31 -5q20 0 34.5 12t28.5 34q11 -7 23 -18.5t12 -23.5q0 -13 -12 -28q-13 -16 -33.5 -27.5t-47.5 -11.5q-20 0 -37 5.5t-33 12.5q-14 6 -27.5 10.5t-28.5 4.5q-20 0 -37.5 -12t-33.5 -31z" />
<glyph unicode="&#x12a;" horiz-adv-x="240" d="M76 670q6 1 13 1.5t12 0.5q10 0 20.5 -2t20 -9t15.5 -19t7 -33v-609h-88v670zM212 814q23 0 38 -8t15 -34q0 -9 -0.5 -15t-1.5 -11h-253q-26 0 -37 9t-11 32q0 14 4 27h246z" />
<glyph unicode="&#x12b;" horiz-adv-x="241" d="M73 475h6q2 0 5.5 0.5t6.5 0.5q28 0 47.5 -14.5t19.5 -52.5v-319q0 -29 8.5 -41t39.5 -12v-36q-9 -3 -24.5 -5t-30.5 -2q-29 0 -44.5 9t-23 24t-9 33.5t-1.5 36.5v378zM205 640q23 0 37.5 -8t14.5 -35q0 -8 -0.5 -14t-1.5 -11h-255q-24 0 -35 9t-11 32q0 14 4 27h247z " />
<glyph unicode="&#x12c;" horiz-adv-x="240" d="M76 670q6 1 13 1.5t12 0.5q10 0 20.5 -2t20 -9t15.5 -19t7 -33v-609h-88v670zM-25 880q12 3 20 3q12 0 20.5 -6.5t14.5 -23.5q13 -35 32 -48.5t51 -13.5q33 0 50.5 13t31.5 48q13 31 37 31q8 0 18 -3t17 -8q-14 -63 -51 -101.5t-103 -38.5q-67 0 -104 36t-52 105 q5 4 18 7z" />
<glyph unicode="&#x12d;" horiz-adv-x="241" d="M73 475h6q2 0 5.5 0.5t6.5 0.5q28 0 47.5 -14.5t19.5 -52.5v-319q0 -29 8.5 -41t39.5 -12v-36q-9 -3 -24.5 -5t-30.5 -2q-29 0 -44.5 9t-23 24t-9 33.5t-1.5 36.5v378zM-24 681q12 3 20 3q12 0 20.5 -6.5t14.5 -23.5q13 -35 32 -48.5t51 -13.5q33 0 50.5 13t31.5 48 q13 31 37 31q8 0 18 -3t17 -8q-14 -63 -51 -101.5t-103 -38.5q-67 0 -104 36t-52 105q5 4 18 7z" />
<glyph unicode="&#x12e;" horiz-adv-x="240" d="M76 670q6 1 13 1.5t12 0.5q10 0 20.5 -2t20 -9t15.5 -19t7 -33v-609q-14 -11 -27.5 -25.5t-24.5 -30t-18 -31.5t-7 -31q0 -35 31 -35q17 0 28.5 7.5t19.5 15.5q8 -8 14 -18.5t6 -21.5t-7 -18.5t-17.5 -13t-24 -8t-26.5 -2.5q-39 0 -64 20.5t-25 65.5q0 36 19 69t41 53 l5 4h-11v670z" />
<glyph unicode="&#x12f;" horiz-adv-x="241" d="M73 475q7 1 11.5 1h6.5q30 0 48.5 -15t18.5 -53v-318q0 -29 8.5 -41t39.5 -12v-37q-14 -11 -27.5 -25.5t-24.5 -30t-18 -31.5t-7 -31q0 -35 31 -35q17 0 28.5 7.5t19.5 15.5q8 -8 14 -18.5t6 -21.5t-7 -18.5t-17.5 -13t-24 -8t-26.5 -2.5q-39 0 -64 20.5t-25 65.5 q0 36 19 69t41 53q-12 3 -18 7q-23 14 -28 40t-5 54v378zM58 624q0 25 15.5 41t38.5 16t38.5 -16t15.5 -41q0 -23 -15.5 -38.5t-38.5 -15.5t-38.5 15.5t-15.5 38.5z" />
<glyph unicode="&#x130;" horiz-adv-x="240" d="M76 670q6 1 13 1.5t12 0.5q10 0 20.5 -2t20 -9t15.5 -19t7 -33v-609h-88v670zM78 746q-15 18 -15 42q0 26 15.5 43.5t38.5 17.5t39 -17.5t16 -43.5q0 -24 -16 -41.5t-39 -17.5q-22 0 -39 17z" />
<glyph unicode="&#x131;" horiz-adv-x="241" d="M73 475h6q2 0 5.5 0.5t6.5 0.5q28 0 47.5 -14.5t19.5 -52.5v-319q0 -29 8.5 -41t39.5 -12v-36q-9 -3 -24.5 -5t-30.5 -2q-29 0 -44.5 9t-23 24t-9 33.5t-1.5 36.5v378z" />
<glyph horiz-adv-x="241" d="M58 624q0 25 15.5 41t38.5 16t38.5 -16t15.5 -41q0 -23 -15.5 -38.5t-38.5 -15.5t-38.5 15.5t-15.5 38.5zM73 475q7 1 11.5 1h6.5q30 0 48.5 -15t18.5 -53v-318q0 -29 8.5 -41t39.5 -12v-36q-9 -3 -24.5 -5t-30.5 -2q-29 0 -44.5 9t-23 24t-9 33.5t-1.5 36.5v378z" />
<glyph unicode="&#x132;" horiz-adv-x="495" d="M76 670q6 1 13 1.5t12 0.5q10 0 20.5 -2t20 -9t15.5 -19t7 -33v-609h-88v670zM331 670q6 1 13 1.5t12 0.5q10 0 21 -2.5t20 -9t15 -19t6 -32.5v-540q0 -21 -1 -43t-3 -45q-3 -29 -13.5 -57.5t-30 -51t-48.5 -36.5t-69 -14q-32 0 -42.5 14t-10.5 35v12.5t1 11.5 q73 0 101.5 29t28.5 97v649z" />
<glyph unicode="&#x133;" horiz-adv-x="460" d="M58 624q0 25 15.5 41t38.5 16t38.5 -16t15.5 -41q0 -23 -15.5 -38.5t-38.5 -15.5t-38.5 15.5t-15.5 38.5zM73 475q7 1 11.5 1h6.5q30 0 48.5 -15t18.5 -53v-318q0 -29 8.5 -41t39.5 -12v-36q-9 -3 -24.5 -5t-30.5 -2q-29 0 -44.5 9t-23 24t-9 33.5t-1.5 36.5v378z M293 624q0 25 15.5 41t38.5 16t38.5 -16t15.5 -41q0 -23 -15.5 -38.5t-38.5 -15.5t-38.5 15.5t-15.5 38.5zM306 475q7 1 11.5 1h6.5q30 0 48.5 -15t18.5 -53v-455q0 -60 -15.5 -95t-37 -53.5t-44.5 -23.5t-39 -5q-17 0 -27 5.5t-15 14.5t-6.5 21t-1.5 25q60 2 80.5 29 t20.5 81v523z" />
<glyph unicode="&#x134;" horiz-adv-x="248" d="M84 670q6 1 13 1.5t12 0.5q10 0 21 -2.5t20 -9t15 -19t6 -32.5v-540q0 -21 -1 -43t-3 -45q-3 -29 -13.5 -57.5t-30 -51t-48.5 -36.5t-69 -14q-32 0 -42.5 14t-10.5 35v12.5t1 11.5q73 0 101.5 29t28.5 97v649zM65 835q24 29 50 29q25 0 48 -27l87 -103q-8 -5 -18 -9 t-19 -4q-12 0 -22.5 5.5t-23.5 16.5l-54 47l-53 -48q-9 -9 -19 -15t-24 -6q-9 0 -19 4.5t-18 11.5z" />
<glyph unicode="&#x135;" horiz-adv-x="234" d="M82 475h7q2 0 4.5 0.5t4.5 0.5q29 0 48 -14.5t19 -53.5v-455q0 -60 -15.5 -95t-37 -53.5t-45 -23.5t-39.5 -5q-17 0 -27 6t-15 15.5t-6 22t-1 25.5q60 2 80.5 27.5t20.5 79.5zM68 666q10 13 22 20.5t28 7.5t26.5 -6.5t21.5 -20.5l92 -120q-8 -5 -17 -8.5t-20 -3.5 q-24 0 -45 22l-59 64l-59 -66q-17 -20 -42 -20q-9 0 -18.5 3.5t-17.5 11.5z" />
<glyph unicode="&#x136;" horiz-adv-x="562" d="M184 340v32l239 267q16 17 28.5 24t27.5 7t30.5 -6.5t27.5 -14.5l-259 -289l278 -356q-12 -5 -27.5 -8.5t-27.5 -3.5q-26 0 -42.5 9t-31.5 28zM79 670q5 1 10.5 1.5t13.5 0.5q9 0 19.5 -2.5t20.5 -9t16.5 -19t6.5 -32.5v-609h-87v670zM249 -104q8 20 20 33t36 13 q11 0 23 -3t20 -7l-68 -126q-7 -12 -18.5 -20t-28.5 -8q-6 0 -15.5 2t-14.5 5z" />
<glyph unicode="&#x137;" horiz-adv-x="492" d="M182 246v33l172 171q29 26 57 26q17 0 29 -6t22 -15l-192 -189l222 -265q-24 -9 -50 -9q-20 0 -39.5 8.5t-35.5 27.5zM74 709q7 1 11.5 1h6.5q30 0 48.5 -15t18.5 -53v-642h-85v709zM202 -104q8 20 20 33t36 13q11 0 23 -3t20 -7l-68 -126q-7 -12 -18.5 -20t-28.5 -8 q-6 0 -15.5 2t-14.5 5z" />
<glyph horiz-adv-x="768" d="M184 340v32l239 267q16 17 28.5 24t27.5 7t30.5 -6.5t27.5 -14.5l-259 -289l278 -356q-12 -5 -27.5 -8.5t-27.5 -3.5q-26 0 -42.5 9t-31.5 28zM79 670q5 1 10.5 1.5t13.5 0.5q9 0 19.5 -2.5t20.5 -9t16.5 -19t6.5 -32.5v-609h-87v670zM682 637q-21 -21 -25 -44 q11 -8 25 -23t14 -38t-14 -40t-40 -17q-29 0 -43 20.5t-14 49.5q0 22 5.5 44t14.5 41t21.5 33.5t27.5 23.5q16 10 32 10q25 0 35 -31q-19 -7 -39 -29z" />
<glyph unicode="&#x138;" horiz-adv-x="483" d="M74 472h6q2 0 5.5 0.5t6.5 0.5q28 0 47.5 -14.5t19.5 -52.5v-406h-85v472zM182 236v33l150 166q13 14 26.5 22.5t34.5 8.5q11 0 20.5 -3.5t16.5 -7.5q4 -2 7.5 -4.5t7.5 -5.5l-174 -191l204 -253q-24 -9 -50 -9q-47 0 -77 37z" />
<glyph unicode="&#x139;" horiz-adv-x="479" d="M78 670q6 1 13 1.5t12 0.5q10 0 21 -2.5t20 -9t15 -19t6 -32.5v-533h232q32 0 46 -15.5t14 -37.5v-9.5t-1 -13.5h-378v670zM173 832q16 13 28.5 19.5t26.5 6.5q17 0 33.5 -12t25.5 -27l-121 -78q-14 -8 -25.5 -13t-22.5 -5q-12 0 -26.5 8.5t-21.5 17.5z" />
<glyph unicode="&#x13a;" horiz-adv-x="241" d="M73 709q7 1 11.5 1h6.5q30 0 48.5 -15t18.5 -53v-548q0 -15 1 -25.5t5.5 -17.5t14 -10.5t27.5 -3.5v-36q-9 -3 -24.5 -5t-30.5 -2q-29 0 -44.5 9t-23 24t-9 33.5t-1.5 36.5v612zM170 872q16 13 28.5 19.5t26.5 6.5q17 0 33.5 -12t25.5 -27l-121 -78q-14 -8 -25.5 -13 t-22.5 -5q-12 0 -26.5 8.5t-21.5 17.5z" />
<glyph unicode="&#x13b;" horiz-adv-x="479" d="M78 670q6 1 13 1.5t12 0.5q10 0 21 -2.5t20 -9t15 -19t6 -32.5v-533h232q32 0 46 -15.5t14 -37.5v-9.5t-1 -13.5h-378v670zM217 -104q8 20 20 33t36 13q11 0 23 -3t20 -7l-68 -126q-7 -12 -18.5 -20t-28.5 -8q-6 0 -15.5 2t-14.5 5z" />
<glyph unicode="&#x13c;" horiz-adv-x="241" d="M73 709q7 1 11.5 1h6.5q30 0 48.5 -15t18.5 -53v-548q0 -15 1 -25.5t5.5 -17.5t14 -10.5t27.5 -3.5v-36q-9 -3 -24.5 -5t-30.5 -2q-29 0 -44.5 9t-23 24t-9 33.5t-1.5 36.5v612zM84 -104q8 20 20 33t36 13q11 0 23 -3t20 -7l-68 -126q-7 -12 -18.5 -20t-28.5 -8 q-6 0 -15.5 2t-14.5 5z" />
<glyph unicode="&#x13d;" horiz-adv-x="479" d="M78 670q6 1 13 1.5t12 0.5q10 0 21 -2.5t20 -9t15 -19t6 -32.5v-533h232q32 0 46 -15.5t14 -37.5v-9.5t-1 -13.5h-378v670zM244 598q0 15 2 28.5t8 23.5t17.5 16t29.5 6q5 0 10 -0.5t10 -1.5l-11 -152q-2 -29 -13.5 -45.5t-41.5 -16.5h-11v142z" />
<glyph unicode="&#x13e;" horiz-adv-x="257" d="M73 709q7 1 11.5 1h6.5q30 0 48.5 -15t18.5 -53v-548q0 -15 1 -25.5t5.5 -17.5t14 -10.5t27.5 -3.5v-36q-9 -3 -24.5 -5t-30.5 -2q-29 0 -44.5 9t-23 24t-9 33.5t-1.5 36.5v612zM229 636q0 15 2 28.5t8 23.5t17.5 16t29.5 6q5 0 10 -0.5t10 -1.5l-11 -152 q-2 -29 -13.5 -45.5t-41.5 -16.5h-11v142z" />
<glyph unicode="&#x13f;" horiz-adv-x="479" d="M78 670q6 1 13 1.5t12 0.5q10 0 21 -2.5t20 -9t15 -19t6 -32.5v-533h232q32 0 46 -15.5t14 -37.5v-9.5t-1 -13.5h-378v670zM329 314q-15 18 -15 42q0 26 15.5 43.5t38.5 17.5t39 -17.5t16 -43.5q0 -24 -16 -41.5t-39 -17.5q-22 0 -39 17z" />
<glyph unicode="&#x140;" horiz-adv-x="290" d="M73 709q7 1 11.5 1h6.5q30 0 48.5 -15t18.5 -53v-548q0 -15 1 -25.5t5.5 -17.5t14 -10.5t27.5 -3.5v-36q-9 -3 -24.5 -5t-30.5 -2q-29 0 -44.5 9t-23 24t-9 33.5t-1.5 36.5v612zM226 340q-15 16 -15 42t15.5 43.5t38.5 17.5t39 -17.5t16 -43.5q0 -25 -16 -42t-39 -17 q-22 0 -39 17z" />
<glyph unicode="&#x141;" horiz-adv-x="493" d="M91 281l-80 -32l-24 62l104 43v316q5 0 8 1q4 0 8 0.5t9 0.5q9 0 19.5 -2.5t20 -9t16 -19t6.5 -32.5v-222l185 75l27 -63l-212 -88v-235h232q32 0 46 -15.5t14 -37.5q0 -5 -0.5 -9t-0.5 -7v-7h-378v281z" />
<glyph unicode="&#x142;" horiz-adv-x="303" d="M105 325l-56 -32l-31 61l87 49v310h6q2 0 5.5 0.5t6.5 0.5q28 0 47.5 -14.5t19.5 -52.5v-204l71 40l34 -60l-105 -59v-266q0 -15 1 -25.5t5.5 -17.5t14 -10.5t27.5 -3.5v-36q-9 -3 -24.5 -5t-30.5 -2q-29 0 -44.5 9t-23 24t-9 33.5t-1.5 36.5v224z" />
<glyph unicode="&#x143;" horiz-adv-x="660" d="M79 667q6 2 17 3.5t22 1.5q22 0 34.5 -7.5t23.5 -25.5l324 -506v537q6 1 12.5 1.5t11.5 0.5q9 0 19 -2.5t18.5 -9t14 -19t5.5 -32.5v-609h-81l-340 519v-519h-81v667zM368 832q16 13 28.5 19.5t26.5 6.5q17 0 33.5 -12t25.5 -27l-121 -78q-14 -8 -25.5 -13t-22.5 -5 q-12 0 -26.5 8.5t-21.5 17.5z" />
<glyph unicode="&#x144;" horiz-adv-x="543" d="M74 472q7 1 11 1h6q23 0 41.5 -11.5t22.5 -39.5q23 23 62.5 41t93.5 18q68 0 104 -30t47 -75q5 -20 6 -44.5t1 -47.5v-284h-85v281q0 19 -0.5 36.5t-5.5 32.5q-8 26 -29.5 40t-64.5 14q-29 0 -52 -6t-39 -16t-25 -23t-9 -26v-333h-85v472zM312 664q11 15 22.5 25t30.5 10 q14 0 30 -7.5t27 -16.5l-101 -109q-11 -13 -23.5 -20.5t-27.5 -7.5q-11 0 -22.5 5t-19.5 11z" />
<glyph unicode="&#x145;" horiz-adv-x="660" d="M79 667q6 2 17 3.5t22 1.5q22 0 34.5 -7.5t23.5 -25.5l324 -506v537q6 1 12.5 1.5t11.5 0.5q9 0 19 -2.5t18.5 -9t14 -19t5.5 -32.5v-609h-81l-340 519v-519h-81v667zM291 -104q8 20 20 33t36 13q11 0 23 -3t20 -7l-68 -126q-7 -12 -18.5 -20t-28.5 -8q-6 0 -15.5 2 t-14.5 5z" />
<glyph unicode="&#x146;" horiz-adv-x="543" d="M74 472q7 1 11 1h6q23 0 41.5 -11.5t22.5 -39.5q23 23 62.5 41t93.5 18q68 0 104 -30t47 -75q5 -20 6 -44.5t1 -47.5v-284h-85v281q0 19 -0.5 36.5t-5.5 32.5q-8 26 -29.5 40t-64.5 14q-29 0 -52 -6t-39 -16t-25 -23t-9 -26v-333h-85v472zM220 -104q8 20 20 33t36 13 q11 0 23 -3t20 -7l-68 -126q-7 -12 -18.5 -20t-28.5 -8q-6 0 -15.5 2t-14.5 5z" />
<glyph unicode="&#x147;" horiz-adv-x="660" d="M79 667q6 2 17 3.5t22 1.5q22 0 34.5 -7.5t23.5 -25.5l324 -506v537q6 1 12.5 1.5t11.5 0.5q9 0 19 -2.5t18.5 -9t14 -19t5.5 -32.5v-609h-81l-340 519v-519h-81v667zM197 848q8 7 18 11.5t19 4.5q14 0 24 -6t19 -15l53 -48l54 47q13 11 23.5 16.5t22.5 5.5q9 0 19 -4 t18 -9l-87 -103q-23 -27 -48 -27q-26 0 -50 29z" />
<glyph unicode="&#x148;" horiz-adv-x="543" d="M74 472q7 1 11 1h6q23 0 41.5 -11.5t22.5 -39.5q23 23 62.5 41t93.5 18q68 0 104 -30t47 -75q5 -20 6 -44.5t1 -47.5v-284h-85v281q0 19 -0.5 36.5t-5.5 32.5q-8 26 -29.5 40t-64.5 14q-29 0 -52 -6t-39 -16t-25 -23t-9 -26v-333h-85v472zM144 672q8 8 17.5 11.5 t18.5 3.5q25 0 42 -20l59 -66l59 64q21 22 45 22q11 0 20 -3.5t17 -8.5l-92 -120q-11 -14 -21.5 -20.5t-26.5 -6.5t-28 7.5t-22 20.5z" />
<glyph horiz-adv-x="860" d="M85 474q-25 0 -35 30q9 4 19.5 11.5t19.5 17.5t15.5 21t9.5 23q-11 8 -25 23.5t-14 38.5t14 40t40 17q29 0 43 -20.5t14 -49.5q0 -23 -5.5 -45t-14.5 -41t-21.5 -34t-27.5 -23q-8 -4 -16 -6.5t-16 -2.5zM279 667q6 2 17 3.5t22 1.5q22 0 34.5 -7.5t23.5 -25.5l324 -506 v537q6 1 12.5 1.5t11.5 0.5q9 0 19 -2.5t18.5 -9t14 -19t5.5 -32.5v-609h-81l-340 519v-519h-81v667z" />
<glyph unicode="&#x149;" horiz-adv-x="543" d="M74 472q7 1 11 1h6q23 0 41.5 -11.5t22.5 -39.5q23 23 62.5 41t93.5 18q68 0 104 -30t47 -75q5 -20 6 -44.5t1 -47.5v-284h-85v281q0 19 -0.5 36.5t-5.5 32.5q-8 26 -29.5 40t-64.5 14q-29 0 -52 -6t-39 -16t-25 -23t-9 -26v-333h-85v472zM81 511q-26 0 -36 27 q18 8 37 26t24 39q-10 7 -23.5 20.5t-13.5 33.5t13.5 35.5t37.5 15.5q27 0 40.5 -18t13.5 -44q0 -20 -5 -39t-14 -35.5t-21 -30t-25 -22.5q-14 -8 -28 -8z" />
<glyph unicode="&#x14a;" horiz-adv-x="660" d="M79 667q6 2 17 3.5t22 1.5q22 0 34.5 -7.5t23.5 -25.5l324 -507v538q4 0 7 1q3 0 7.5 0.5t9.5 0.5q9 0 19 -2.5t18.5 -9t14 -19t5.5 -32.5v-540q0 -21 -1 -43t-3 -45q-3 -29 -13.5 -57.5t-30 -51t-48.5 -36.5t-69 -14q-32 0 -42 14t-10 35v12.5t1 11.5q69 0 98 28.5 t31 85.5l-334 512v-521h-81v667z" />
<glyph unicode="&#x14b;" horiz-adv-x="543" d="M74 472q5 1 9.5 1h7.5q23 0 41.5 -11.5t22.5 -39.5q23 23 62.5 41t93.5 18q68 0 104 -30t47 -75q5 -20 6 -44.5t1 -47.5v-331q0 -60 -15 -95t-36.5 -53.5t-45 -23.5t-39.5 -5q-17 0 -27 6t-15 15.5t-6 22t-1 25.5q60 2 80 27.5t20 79.5v329q0 19 -0.5 36.5t-5.5 32.5 q-8 26 -29.5 40t-64.5 14q-29 0 -52 -6t-39 -16t-25 -23t-9 -26v-333h-85v472z" />
</font>
</defs>
</svg>
