<?xml version="1.0" encoding="UTF-8" standalone="no"?>
<svg width="347px" height="80px" viewBox="0 0 347 80" version="1.1" xmlns="http://www.w3.org/2000/svg" xmlns:xlink="http://www.w3.org/1999/xlink">
    <!-- Generator: sketchtool 3.7.2 (28276) - http://www.bohemiancoding.com/sketch -->
    <title>FF7F64D6-A232-48CA-8E56-0059229451EE</title>
    <desc>Created with sketchtool.</desc>
    <defs>
        <polygon id="path-1" points="0 0.0245244681 0 62.1100411 329.486617 62.1100411 329.486617 0.0245244681 0 0.0245244681"></polygon>
    </defs>
    <g id="GdS-md" stroke="none" stroke-width="1" fill="none" fill-rule="evenodd">
        <g id="17---game_5pontos" transform="translate(-468.000000, -450.000000)">
            <g id="Page-1" transform="translate(468.000000, 450.000000)">
                <g id="Group-3" transform="translate(6.000000, 8.346428)">
                    <mask id="mask-2" fill="white">
                        <use xlink:href="#path-1"></use>
                    </mask>
                    <g id="Clip-2"></g>
                    <path d="M314.885963,0.0689111996 C322.953424,-0.55019141 329.479643,5.37864268 329.486617,13.3775582 L329.486617,48.7570074 C329.481038,56.7559229 322.954819,62.684757 314.885963,62.0656544 C214.920018,55.0125519 114.566321,55.0125519 14.6003756,62.0656544 C6.53151942,62.684757 0.00111583146,56.7559229 -0.000278957859,48.7570074 L-0.000278957859,13.3775582 C0.00251062078,5.37864268 6.53570379,-0.55019141 14.6003756,0.0689111996 C114.566321,7.12201366 214.920018,7.12201366 314.885963,0.0689111996 Z" id="Fill-1" fill="#FFC903" mask="url(#mask-2)"></path>
                </g>
                <path d="M329.712329,10.6792509 C331.578557,12.9277876 334.563406,16.3472657 334.566196,19.621234 C333.945515,31.2180829 333.323439,42.7641407 332.701363,54.2580346 C332.698573,62.2047863 326.170959,68.140484 318.099313,67.5804089 C218.343981,61.841012 118.210661,62.1347769 18.4678822,69.6463722 C15.1468889,69.8852277 11.4395389,67.2935077 8.98889403,65.6132824 C11.6557312,68.8803871 15.8582314,70.7500496 20.6005151,70.4109845 C120.56646,63.357882 220.918762,63.357882 320.886102,70.4109845 C328.953564,71.0314598 335.479783,65.1039985 335.486757,57.1037102 L335.486757,21.7228883 C335.486757,17.0418686 333.214645,13.0279971 329.712329,10.6792509" id="Fill-4" fill="#1E120F" opacity="0.3"></path>
                <path d="M7.37707549,59.1326097 C8.31018955,48.0066082 9.24469839,36.9547344 10.1778124,25.9769881 C10.1792072,18.0576911 16.7179796,12.1165024 24.7798618,12.6477501 C124.380372,17.656853 224.350502,17.1956147 323.93288,9.32299059 C326.895413,9.10609877 330.781296,12.6106863 333.081303,13.969692 C330.474442,10.2386035 325.990194,8.04772158 320.885265,8.41561404 C220.91932,15.4687165 120.567018,15.4687165 20.5996782,8.41561404 C12.5322168,7.7951387 6.00041844,13.7239728 6.00041844,21.7228883 L6.00041844,57.1037102 C5.99762886,62.1388951 8.62541193,66.4094676 12.5824292,68.6593771 C11.0648985,66.5385045 7.20970078,63.764211 7.37707549,59.1326097" id="Fill-6" fill="#FFFFFF" opacity="0.404477612"></path>
                <text id="Participe-agora!" font-family="Roboto-Regular, Roboto" font-size="19.1000918" font-weight="normal" letter-spacing="-0.00831114687" fill="#FFFFFF">
                    <tspan x="102.503278" y="46.6212955">Participe agora!</tspan>
                </text>
            </g>
        </g>
    </g>
</svg>