<svg width="24" height="20" viewBox="0 0 24 20" xmlns="http://www.w3.org/2000/svg"><title>Imported Layers</title><path d="M10.665 4.758h1.818V0h-1.818v4.758zm8.165 7.285l4.664-.942-.36-1.78-4.664.943.36 1.78zm1.757-7.933l-1.285-1.284-3.365 3.364 1.285 1.285 3.365-3.365zM5.023 10.263L.36 9.32 0 11.1l4.663.943.36-1.78zm12.81 6.472L16.22 7.97c-.172-.948-1.204-1.662-2.316-1.662h-3.74c-1.11 0-2.14.714-2.314 1.663l-1.613 8.765c-.01.063-.01.12-.017.907H4.03v2.048h16.01v-2.048h-2.19c-.008-.786-.006-.844-.018-.907zm-6.02-.08V7.6h1.67c.863 0 1.663.55 1.798 1.287l1.25 6.798c.01.05.008.1.014.97h-4.73zM7.558 6.19L4.192 2.826 2.907 4.11 6.27 7.475 7.558 6.19z" fill="#FFF" fill-rule="evenodd"/></svg>