<svg width="20" height="21" viewBox="0 0 20 21" xmlns="http://www.w3.org/2000/svg"><title>farmacia</title><path d="M13.665 13.805c.02-.092.033-.188.04-.287.04-.03.08-.063.116-.1l4.393-4.393c1.828-1.827 1.828-4.8 0-6.63l-.144-.143C17.183 1.367 16.006.88 14.754.88c-1.252 0-2.43.487-3.315 1.372L7.048 6.645c-.035.035-.067.07-.095.11-.194.01-.374.044-.537.105.075-.192.186-.364.334-.512l4.393-4.393C12.108.99 13.39.46 14.755.46c1.364 0 2.647.53 3.612 1.494l.144.145c1.993 1.99 1.993 5.232 0 7.223l-4.392 4.392c-.152.153-.33.267-.53.342.033-.08.058-.164.077-.252-.02.088-.044.172-.076.252-.076.192-.187.364-.335.513l-4.393 4.393c-.965.964-2.248 1.496-3.612 1.496-1.364 0-2.647-.533-3.612-1.497l-.144-.144c-1.992-1.993-1.992-5.233 0-7.225l4.393-4.392c.152-.153.33-.267.53-.342.163-.06.342-.096.536-.105.035-.002.07-.005.106-.005.97 0 2.283.655 3.598 1.796 1.25 1.085 2.28 2.417 2.754 3.563.217.524.314.998.292 1.407-.006.1-.02.196-.04.288zm5.38-9.527c.152 1.36-.293 2.777-1.337 3.82l-3.258 3.26c.09.27.148.53.164.774.057-.04.533-.504.584-.555l2.67-2.672c1.254-1.253 1.646-3.04 1.178-4.627zm-6.668 10.11L8.444 18.32c-1.253 1.254-3.04 1.646-4.627 1.177 1.36.15 2.776-.293 3.82-1.337l5.084-5.084c.082.524-.012.982-.343 1.312z" fill="#FFF" fill-rule="evenodd"/></svg>