<svg width="21" height="21" viewBox="0 0 21 21" xmlns="http://www.w3.org/2000/svg"><title>Imported Layers</title><path d="M15.607.94c-.32-.03-.628-.044-.913-.044-2.278 0-3.372.992-4.626 2.497C8.815 1.888 7.728.896 5.438.896c-.283 0-.585.015-.91.045C2.558 1.138.276 2.96 0 6.45v1.162c.253 3.344 2.76 7.468 10.068 12.642 7.31-5.174 9.813-9.297 10.075-12.64V6.45c-.28-3.49-2.56-5.313-4.536-5.51zm-1.93 10.533h-2.613v2.743h-1.93v-2.743H6.468v-1.92h2.666v-2.62h1.93v2.62h2.612v1.92z" fill="#FFF" fill-rule="evenodd"/></svg>