<svg width="20" height="20" viewBox="0 0 20 20" xmlns="http://www.w3.org/2000/svg"><title>Imported Layers</title><path d="M18.745 3.627L15.98.86C15.424.307 14.686 0 13.9 0c-.787 0-1.527.306-2.08.86L.86 11.818C.306 12.372 0 13.11 0 13.897c0 .787.306 1.526.862 2.082l2.765 2.764c.557.557 1.296.863 2.082.863.785 0 1.524-.306 2.08-.862L18.746 7.79c.556-.556.862-1.295.862-2.08 0-.787-.307-1.527-.863-2.083zm-9.143 2.96c-.236-.236-.236-.62 0-.855.236-.236.62-.236.854 0 .237.236.237.62 0 .854-.235.237-.618.237-.854 0zm-1.08 1.08c.237.237.236.618 0 .854-.236.237-.618.237-.854 0-.236-.235-.236-.616 0-.852s.618-.237.854 0zM6.588 9.603c.236.236.236.62 0 .854-.237.237-.62.237-.855 0s-.235-.618 0-.854c.236-.236.618-.237.855 0zm3.868-2.14c.238.235.237.617 0 .853-.235.236-.618.236-.854 0s-.236-.618 0-.854c.236-.235.62-.235.854 0zM8.522 9.395c.236.235.236.618 0 .854s-.618.236-.854 0c-.236-.237-.236-.62 0-.855.236-.236.618-.236.854 0zm3.643-1.954c.236.236.236.618 0 .854s-.618.236-.854 0c-.235-.236-.235-.617 0-.855.237-.234.62-.235.855.002zM10.23 9.376c.237.235.237.618 0 .854-.235.236-.617.236-.853 0s-.236-.618 0-.854c.236-.237.618-.236.854 0zM8.298 11.31c.235.236.235.62 0 .854-.236.237-.62.237-.855 0-.236-.236-.236-.618 0-.854s.62-.236.855 0zm3.87-2.14c.234.236.234.62-.002.854-.236.237-.618.236-.854 0-.235-.236-.235-.618 0-.855.237-.236.62-.236.856 0zm-1.937 1.933c.237.237.237.62 0 .855-.235.236-.617.236-.853 0-.237-.236-.237-.618 0-.855.236-.236.618-.236.853 0zm3.645-1.953c.236.236.234.62 0 .854-.237.236-.62.236-.856 0-.237-.237-.236-.618 0-.854.235-.236.618-.237.855 0zm-1.935 1.935c.236.236.235.618 0 .854-.236.235-.62.235-.855 0-.235-.237-.236-.62 0-.855.236-.236.62-.236.855 0zm-1.934 1.934c.236.235.235.617 0 .854-.236.235-.62.235-.855 0-.236-.237-.235-.62 0-.855.236-.237.62-.237.856 0z" fill="#1E88E5" fill-rule="evenodd"/></svg>