<svg width="15" height="15" viewBox="0 0 15 15" xmlns="http://www.w3.org/2000/svg"><title>Ajuda - icone</title><path d="M3.737 1.005C4.89.335 6.143 0 7.5 0c1.357 0 2.61.335 3.763 1.005 1.15.67 2.062 1.58 2.73 2.732C14.666 4.89 15 6.143 15 7.5c0 1.357-.335 2.61-1.006 3.762-.67 1.152-1.58 2.063-2.73 2.733C10.11 14.665 8.856 15 7.5 15c-1.357 0-2.61-.335-3.763-1.005-1.15-.67-2.062-1.58-2.73-2.733C.334 10.112 0 8.857 0 7.5c0-1.357.335-2.61 1.006-3.763.67-1.15 1.58-2.062 2.73-2.732zm2.507 7.75h2.512l.176-.1c.075-.04.208-.148.396-.32.188-.17.354-.36.496-.572.142-.208.272-.497.39-.866.117-.37.175-.762.175-1.18 0-.428-.074-.8-.22-1.12-.147-.317-.323-.56-.528-.728-.205-.17-.45-.303-.735-.403-.285-.1-.53-.163-.735-.188-.206-.027-.42-.04-.647-.04-.88 0-1.6.236-2.16.705-.562.47-.842 1.235-.842 2.298h1.81c.032 0 .08.005.143.013.063.01.11.013.138.013.03 0 .056-.014.082-.04.025-.024.038-.062.038-.112s.004-.096.012-.138c.01-.042.023-.078.044-.107.02-.03.036-.054.044-.075.008-.022.032-.038.07-.05.037-.013.064-.024.08-.032.017-.008.055-.015.114-.02l.113-.005h.303c.16 0 .284.043.376.127.09.083.138.192.138.326 0 .185-.017.302-.05.352-.034.05-.147.142-.34.276-.042.01-.094.022-.157.04-.062.016-.175.072-.338.168-.164.097-.306.21-.427.34-.122.13-.233.322-.333.578-.1.255-.147.542-.138.86zm0 2.514h2.512V10.01H6.244v1.257z" fill="#FFF" fill-rule="evenodd"/></svg>