<svg width="15" height="10" viewBox="0 0 15 10" xmlns="http://www.w3.org/2000/svg"><title>painel-icone</title><path d="M5.594 3.992l.017.03c-.114-.1-.283-.125-.423-.048s-.202.23-.17.373L5 4.317C5.522 8.043 6.16 9.1 6.173 9.12c.512.84 1.645 1.13 2.53.643.886-.486 1.19-1.562.68-2.404-.013-.02-.657-1.075-3.79-3.368zm9.37 4.212c.022-.232.036-.467.036-.704C15 3.357 11.642 0 7.5 0 3.358 0 0 3.357 0 7.5c0 .237.014.472.036.704l-.002.01v.011c0 .197.16.357.357.357h5.095c-.25-.718-.603-2.016-.91-4.204l.012-.005c-.042-.314.11-.62.394-.774.117-.065.25-.1.383-.1.17 0 .336.055.474.155l.01-.01C8.977 5.938 9.68 7.023 9.75 7.14c.267.438.365.944.28 1.443h4.58c.197 0 .356-.16.356-.357V8.22v-.006l-.002-.01zM3.716 3.464c-.202.202-.528.202-.73 0-.2-.2-.2-.527 0-.73.202-.2.528-.2.73 0 .2.203.2.53 0 .73zM7.5 1.898c-.285 0-.516-.23-.516-.516 0-.283.23-.514.516-.514.285 0 .516.23.516.515 0 .286-.23.517-.516.517zm4.514 1.568c-.202.2-.528.2-.73 0-.2-.202-.2-.528 0-.73.202-.2.528-.2.73 0 .2.202.2.528 0 .73z" fill="#FFF" fill-rule="evenodd"/></svg>