<svg width="17" height="17" viewBox="0 0 17 17" xmlns="http://www.w3.org/2000/svg"><title>Fill 2</title><path d="M15.623 0H4.246C3.674 0 3.21.464 3.21 1.035V7.23H1.14C.57 7.23.11 7.705.11 8.276v5.702c0 1.143.925 2.574 2.07 2.574h12.41c1.142 0 2.07-1.43 2.07-2.574V1.035c0-.57-.463-1.035-1.035-1.035zM3.21 13.978c0 .572-.462 1.034-1.033 1.034-.572 0-1.036-.462-1.036-1.034V8.265h2.07v5.713zm10.345-.934c0 .226-.186.412-.413.412H6.726c-.226 0-.412-.186-.412-.412v-.21c0-.226.186-.412.412-.412h6.416c.227 0 .413.186.413.412v.21zm0-1.814c0 .226-.186.412-.413.412H6.726c-.226 0-.412-.186-.412-.412v-.21c0-.227.186-.413.412-.413h6.416c.227 0 .413.186.413.413v.21zm0-1.815c0 .227-.186.413-.413.413H6.726c-.226 0-.412-.186-.412-.413v-.21c0-.226.186-.41.412-.41h6.416c.227 0 .413.184.413.41v.21zm0-2.586c0 .226-.186.41-.413.41H6.726c-.226 0-.412-.184-.412-.41V4.55c0-.226.186-.412.412-.412h6.416c.227 0 .413.186.413.413v2.28z" fill="#FFF" fill-rule="evenodd"/></svg>