<svg width="23" height="28" viewBox="0 0 23 28" xmlns="http://www.w3.org/2000/svg"><title>icon_zika</title><path d="M11.53 5.53c.662 0 1.2.526 1.2 1.175 0 .65-.538 1.177-1.2 1.177-.663 0-1.2-.527-1.2-1.177s.537-1.176 1.2-1.176zm0-.38c.105 0 .21-.105.21-.21v-.034L11.636.478c0-.07-.035-.104-.106-.104-.07 0-.107.035-.107.104l-.106 4.463v.036c0 .103.106.173.212.173zm0 8.163c-.424 0-.565.312-.777.76 0 0-.423 1.108-.423 2.63 0 1.073.106 2.318.53 2.94.105.174.28.313.457.382h.387c.212-.035.353-.173.494-.38.423-.624.53-1.87.53-2.976 0-1.523-.425-2.63-.425-2.63-.21-.485-.353-.727-.776-.727zm10.476-.588s-.105-.104-1.34-.588L12.2 8.435c-.177-.138-.424-.207-.67-.207-.248 0-.495.07-.67.207L2.39 12.137c-1.2.484-1.34.588-1.34.588-.53.277-.917.865-.917 1.488 0 .934.74 1.59 1.763 1.73 0 0 1.06.07 1.34.07.67 0 1.27-.036 1.27-.036.636-.104 1.165-.554 1.165-.554l4.62-3.84v.173c0 .658.53 1.177 1.2 1.177.67 0 1.2-.52 1.2-1.177v-.173l4.622 3.84s.6.416 1.164.485c0 0 .634.138 1.27.138.28 0 1.34-.07 1.34-.07 1.022-.137 1.763-.76 1.763-1.73.035-.656-.317-1.21-.847-1.52zM4.72 1.965L6.73 4.56l-.916 2.076c0 .035-.035.07-.035.104 0 .104.07.208.175.277l2.787 1.59s.036 0 .036.036c.035.034.105.034.14.034.177 0 .318-.138.318-.31 0-.14-.07-.243-.176-.278L6.38 6.635l.81-2.006v-.07c0-.07-.035-.138-.07-.172L4.86 1.828c-.036-.035-.07-.07-.106-.07-.07 0-.14.07-.14.14.07.033.07.068.105.068zm9.42 6.712c.035 0 .105 0 .14-.034 0 0 .036 0 .036-.035l2.787-1.59c.106-.036.176-.14.176-.278 0-.035 0-.07-.036-.104l-.917-2.076 2.01-2.594c.036-.035.036-.07.036-.104 0-.07-.07-.138-.14-.138-.036 0-.107.034-.107.07l-2.258 2.56c-.035.034-.07.103-.07.172v.07l.81 2.006-2.645 1.453c-.106.07-.176.173-.176.276 0 .21.14.347.353.347zm-4.128 3.84c-.07 0-.14.035-.176.035-.035.035-.07.035-.07.07l-2.4 2.04c-.07.035-.14.14-.14.243 0 .07 0 .103.035.138l1.694 4.74-1.27 7.957c0 .07.07.138.14.138.072 0 .142-.07.142-.138l1.482-7.888V19.748c0-.035 0-.035-.036-.07l-1.587-4.67 2.364-1.868c.104-.07.14-.173.14-.277 0-.173-.14-.346-.318-.346zM7.084 17.88l-.81-2.007c-.036-.104-.142-.173-.248-.173-.177 0-.282.14-.282.277 0 .035 0 .07.035.104l.846 1.87-2.01 2.87c-.036.035-.036.07-.036.104 0 .07.07.14.14.14.036 0 .07-.036.106-.036l2.258-2.87c.035-.036.07-.105.07-.174-.035-.035-.035-.07-.07-.104zm8.643-3.183l-2.4-2.04c-.07-.07-.14-.105-.246-.105-.175 0-.316.138-.316.31 0 .105.07.21.14.278l2.364 1.868-1.587 4.67c0 .035-.034.035-.034.07V19.853l1.48 7.887c0 .07.072.138.142.138.07 0 .142-.07.142-.138l-1.27-7.957 1.693-4.74c.035-.035.035-.104.035-.138-.035-.07-.07-.173-.14-.208zm2.752 6.123l-2.012-2.87.847-1.87c0-.034.035-.068.035-.103 0-.173-.14-.277-.282-.277-.106 0-.212.07-.247.173l-.81 2.007c0 .034-.036.07-.036.104 0 .07.035.138.07.173l2.258 2.87c.036.036.07.036.106.036.07 0 .14-.07.14-.14-.034-.033-.034-.068-.07-.103z" fill="#1E88E5" fill-rule="evenodd"/></svg>