<svg width="11" height="15" viewBox="0 0 11 15" xmlns="http://www.w3.org/2000/svg"><title>dicas-icone</title><path d="M6.4 12.724c-.092-.066-.368.433-1.268.474-.107-.003-.215-.005-.318-.005-.802-.07-1.092-.534-1.18-.47-.194.135-.307.3-.307.48 0 .034.006.07.014.103l.094.67c.032.183.19.35.433.475.17.32.62.55 1.15.55.527 0 .976-.23 1.147-.55.256-.133.418-.31.436-.506h.003l.087-.64c.008-.033.014-.067.014-.102 0-.177-.113-.343-.304-.478zM5.016 0C2.246 0 0 2.122 0 5.21c0 2.326 1.35 3.21 2.867 6.123.437.84 1.15 1.384 2.15 1.384.998 0 1.725-.537 2.147-1.384 1.37-2.746 2.867-3.725 2.867-6.123C10.03 2.122 7.787 0 5.017 0zm2.438 6.138c0 .21-.172.382-.382.382h-.86c-.21 0-.383.172-.383.382v.86c0 .21-.173.383-.383.383h-.86c-.21 0-.383-.172-.383-.382v-.86c0-.21-.172-.383-.382-.383h-.86c-.21 0-.383-.172-.383-.382v-.86c0-.21.17-.383.38-.383h.862c.21 0 .382-.172.382-.382v-.86c0-.21.172-.383.382-.383h.86c.21 0 .383.172.383.382v.86c0 .21.17.383.38.383h.862c.21 0 .382.172.382.382v.86z" fill="#FFF" fill-rule="evenodd"/></svg>