<?xml version="1.0" encoding="UTF-8" standalone="no"?>
<svg width="340px" height="69px" viewBox="0 0 340 69" version="1.1" xmlns="http://www.w3.org/2000/svg" xmlns:xlink="http://www.w3.org/1999/xlink">
    <!-- Generator: sketchtool 3.7.2 (28276) - http://www.bohemiancoding.com/sketch -->
    <title>399A6D51-1884-48F4-9456-B0DB5435AFB3</title>
    <desc>Created with sketchtool.</desc>
    <defs>
        <polygon id="path-1" points="0 0.02488501 0 63.0231404 329.361812 63.0231404 329.361812 0.02488501 0 0.02488501"></polygon>
    </defs>
    <g id="GdS-md" stroke="none" stroke-width="1" fill="none" fill-rule="evenodd">
        <g id="11---game_perguntas_interna" transform="translate(-667.000000, -277.000000)">
            <g id="Group-8" transform="translate(270.000000, 239.000000)">
                <g id="Group-2" transform="translate(397.000000, 38.000000)">
                    <g id="certa" transform="translate(0.631666, 0.296064)">
                        <g id="Group-3" transform="translate(5.000000, 4.351521)">
                            <mask id="mask-2" fill="white">
                                <use xlink:href="#path-1"></use>
                            </mask>
                            <g id="Clip-2"></g>
                            <path d="M14.5948452,0.0699242848 C114.522925,7.22671663 214.838608,7.22671663 314.766688,0.0699242848 C322.831093,-0.558279948 329.354841,5.45771579 329.361812,13.5742259 L329.361812,49.4737995 C329.356235,57.5903096 322.832488,63.6063053 314.766688,62.9781011 C214.838608,55.8213088 114.522925,55.8213088 14.5948452,62.9781011 C6.52904536,63.6063053 0.0011154088,57.5903096 -0.000278852194,49.4737995 L-0.000278852194,13.5742259 C0.00250966978,5.45771579 6.53322814,-0.558279948 14.5948452,0.0699242848" id="Fill-1" fill="#00BC35" mask="url(#mask-2)"></path>
                        </g>
                        <path d="M328.589711,6.71863937 C330.455232,9.00023256 333.438951,12.4699814 333.441739,15.7920814 C332.821293,27.5594192 332.199452,39.2752192 331.577612,50.9380885 C331.574824,59.0016679 325.049682,65.0246282 316.981094,64.4563193 C217.263548,58.6325457 117.168157,58.9306293 17.4631596,66.5526549 C14.1434241,66.7950219 10.4374784,64.1652002 7.98776187,62.4602735 C10.6535889,65.7754089 14.8544972,67.6725578 19.5949846,67.328508 C119.523064,60.1717157 219.837354,60.1717157 319.766827,67.328508 C327.831233,67.9581052 334.35498,61.9435023 334.361951,53.8255993 L334.361951,17.9246328 C334.361951,13.1747959 332.0907,9.10191529 328.589711,6.71863937" id="Fill-4" fill="#1E120F" opacity="0.3"></path>
                        <path d="M6.37655387,55.8843263 C7.30931448,44.594758 8.24346934,33.380407 9.17622994,22.2412734 C9.1776242,14.2055523 15.7139197,8.17702037 23.7727482,8.7160781 C123.335531,13.7988214 223.267793,13.3308023 322.812451,5.34244029 C325.773861,5.12235987 329.658272,8.67846942 331.957409,10.0574543 C329.351535,6.27151396 324.868986,4.04842315 319.765991,4.42172411 C219.837911,11.5785165 119.523622,11.5785165 19.5941481,4.42172411 C11.5297425,3.79212697 5.00041828,9.80812271 5.00041828,17.9246328 L5.00041828,53.8255993 C4.99762976,58.934808 7.62441746,63.2681636 11.5799359,65.5511497 C10.0629799,63.3990975 6.20924256,60.5840182 6.37655387,55.8843263" id="Fill-6" fill="#FFFFFF" opacity="0.3"></path>
                        <path d="M320.52182,35.8752554 C320.52182,46.2427146 312.108849,54.6475579 301.731364,54.6475579 C291.35388,54.6475579 282.942303,46.2427146 282.942303,35.8752554 C282.942303,25.5077962 291.35388,17.1029528 301.731364,17.1029528 C312.108849,17.1029528 320.52182,25.5077962 320.52182,35.8752554" id="Fill-8" fill="#1E120F" opacity="0.3"></path>
                        <path d="M315.681921,23.331368 C318.680977,26.6576467 320.521401,31.0467188 320.521401,35.8745589 C320.521401,46.2420181 312.10843,54.6468614 301.73234,54.6468614 C296.898437,54.6468614 292.505121,52.8082149 289.175626,49.8120568 C292.615268,53.6272484 297.583019,56.0397755 303.126601,56.0397755 C313.504086,56.0397755 321.915662,47.6349321 321.915662,37.2674729 C321.915662,31.7292467 319.500802,26.7676869 315.681921,23.331368" id="Fill-10" fill="#FFFFFF" opacity="0.3"></path>
                        <path d="M284.336285,37.2681694 C284.336285,26.9007102 292.749256,18.4958669 303.126741,18.4958669 C307.959249,18.4958669 312.352566,20.3359063 315.682061,23.3320644 C312.242419,19.5168729 307.276061,17.1029528 301.73248,17.1029528 C291.354995,17.1029528 282.942024,25.5077962 282.942024,35.8752554 C282.942024,41.4134816 285.356884,46.3764343 289.175765,49.8127533 C286.17671,46.4864745 284.336285,42.0974024 284.336285,37.2681694" id="Fill-12" fill="#1E120F" opacity="0.3"></path>
                        <path d="M307.398896,34.795747 L313.780428,28.1125454 C314.152696,27.7183507 314.135965,27.1124331 313.770668,26.709881 L313.730235,26.6708794 C313.631242,26.5845187 313.58802,26.5496959 313.51273,26.5051226 C313.159982,26.3017572 312.727761,26.3101146 312.388956,26.5218376 L299.687238,35.4169866 C299.351221,35.6523891 299.197853,36.0605129 299.285691,36.4574934 C299.366558,36.7625416 299.542235,37.0090874 299.797385,37.1567363 C299.88104,37.2054883 299.938205,37.2249891 300.05114,37.258419 L304.107046,38.4270739 L297.725513,45.1102754 C297.353245,45.5044701 297.369976,46.1103877 297.735273,46.511547 L297.775706,46.5519415 L297.795226,46.5672635 C297.874699,46.6383022 297.917921,46.673125 297.993211,46.7176983 C298.345959,46.9196708 298.77818,46.9113133 299.116985,46.7009833 L299.140688,46.6856612 L311.818703,37.8044413 C311.822886,37.8016555 311.827069,37.7988696 311.829857,37.7974767 L311.863319,37.7919051 L311.953946,37.6916153 C312.008323,37.6372916 312.055727,37.5773963 312.096161,37.5133223 C312.25929,37.2556332 312.301117,36.9380488 312.190971,36.6385723 C312.136595,36.4783871 312.030631,36.3251666 311.896782,36.2039831 C311.839617,36.1510523 311.776875,36.1050862 311.708556,36.0646917 C311.686248,36.0521554 311.666729,36.042405 311.647209,36.0326546 C311.581679,35.9964389 311.531485,35.9755452 311.457589,35.9546515 L307.398896,34.795747 Z" id="Fill-14" fill="#1E120F" opacity="0.3"></path>
                        <path d="M306.98494,34.3821908 L313.366472,27.6989892 C313.73874,27.3047946 313.722009,26.6988769 313.356712,26.2963248 L313.316279,26.2573232 C313.217286,26.1709625 313.174064,26.1361397 313.098774,26.0915664 C312.746026,25.888201 312.313805,25.8965585 311.975,26.1082814 L299.273282,35.0034305 C298.937265,35.2388329 298.783896,35.6469567 298.871735,36.0439372 C298.952602,36.3489854 299.128279,36.5955312 299.383429,36.7431801 C299.467084,36.7919321 299.524249,36.8114329 299.637184,36.8448628 L303.693089,38.0135177 L297.311557,44.6967193 C296.939289,45.0909139 296.95602,45.6968316 297.321317,46.0979908 L297.36175,46.1383853 L297.38127,46.1537074 C297.460743,46.224746 297.503965,46.2595688 297.579255,46.3041421 C297.932003,46.5061146 298.364224,46.4977571 298.703029,46.2874271 L298.726732,46.2721051 L311.404747,37.3908851 C311.40893,37.3880993 311.413113,37.3853135 311.415901,37.3839206 L311.449363,37.3783489 L311.53999,37.2780591 C311.594366,37.2237354 311.641771,37.1638401 311.682205,37.0997661 C311.845333,36.842077 311.887161,36.5244926 311.777015,36.2250161 C311.722638,36.064831 311.616675,35.9116104 311.482826,35.7904269 C311.425661,35.7374962 311.362919,35.69153 311.2946,35.6511355 C311.272292,35.6385993 311.252773,35.6288489 311.233253,35.6190985 C311.167723,35.5828827 311.117529,35.561989 311.043633,35.5410953 L306.98494,34.3821908 Z" id="Fill-16" fill="#00BC35"></path>
                        <g id="Group-22" transform="translate(296.400547, 25.920149)" fill="#FFFFFF" opacity="0.3">
                            <path d="M1.33514432,20.4537781 C0.969847944,20.0526189 0.953116812,19.4467012 1.3253845,19.0525066 L7.70552278,12.369305 L7.17430935,12.2160845 L0.911288983,18.7767096 C0.539021298,19.1709043 0.55575243,19.7768219 0.921048809,20.1779811 L0.961482378,20.2183756 L0.979607771,20.2336977 C1.06047491,20.3047363 1.103697,20.3395591 1.17898709,20.3827395 C1.23057475,20.4133836 1.28495093,20.4370631 1.33932711,20.4579568 L1.33514432,20.4537781 Z" id="Fill-18"></path>
                            <path d="M2.98274253,10.8230311 C3.0413015,10.8564611 3.08731211,10.8773548 3.14726533,10.8968556 C3.02457036,10.76035 2.93673192,10.5918074 2.88514427,10.3995853 C2.79730582,10.0026048 2.95067453,9.59448094 3.28669143,9.35907847 L15.988409,0.463929407 C16.2770211,0.282850582 16.6353461,0.252206473 16.9518434,0.371997081 L16.9155926,0.337174229 C16.8166001,0.250813559 16.773378,0.215990708 16.6980879,0.171417459 C16.3467341,-0.0319479913 15.9131189,-0.0235905071 15.5743135,0.188132427 L2.87259592,9.08328149 C2.53657902,9.31868396 2.38321031,9.72680778 2.47104875,10.1237883 C2.55191589,10.4288365 2.72759277,10.6753822 2.98274253,10.8230311" id="Fill-20"></path>
                        </g>
                        <path d="M294.898649,37.9594726 L289.525167,37.9594726 C288.78342,37.9594726 288.175522,37.3521621 288.175522,36.6111318 L288.175522,36.6111318 C288.175522,35.8701016 288.78342,35.2627911 289.525167,35.2627911 L294.898649,35.2627911 C295.640396,35.2627911 296.248293,35.8701016 296.248293,36.6111318 L296.248293,36.6111318 C296.248293,37.3521621 295.640396,37.9594726 294.898649,37.9594726" id="Fill-23" fill="#00BC35"></path>
                        <path d="M295.903911,35.7166024 C296.140935,35.9603624 296.290121,36.290483 296.290121,36.6540336 C296.290121,37.3964568 295.683618,38.0023744 294.941871,38.0023744 L289.568389,38.0023744 C289.272806,38.0023744 289.013473,37.8881554 288.790391,37.7251845 C289.035781,37.9773019 289.375981,38.1360941 289.753826,38.1360941 L295.127308,38.1360941 C295.869054,38.1360941 296.476952,37.5301765 296.476952,36.7877533 C296.476952,36.3406279 296.241322,35.9631482 295.903911,35.7166024" id="Fill-25" fill="#1E120F" opacity="0.3"></path>
                        <path d="M288.391772,36.7767493 C288.391772,36.0357191 288.99967,35.4284085 289.741417,35.4284085 L295.114899,35.4284085 C295.403511,35.4284085 295.655872,35.5398417 295.876165,35.6944551 C295.629381,35.4325873 295.284999,35.2626518 294.898788,35.2626518 L289.525306,35.2626518 C288.78356,35.2626518 288.175662,35.8699623 288.175662,36.6109926 C288.175662,37.0650825 288.418263,37.4481339 288.76404,37.6918939 C288.536775,37.4509197 288.391772,37.1319424 288.391772,36.7767493" id="Fill-27" fill="#FFFFFF" opacity="0.3"></path>
                    </g>
                </g>
            </g>
        </g>
    </g>
</svg>