<?xml version="1.0" encoding="UTF-8" standalone="no"?>
<svg width="342px" height="76px" viewBox="0 0 342 76" version="1.1" xmlns="http://www.w3.org/2000/svg" xmlns:xlink="http://www.w3.org/1999/xlink">
    <!-- Generator: sketchtool 3.7.2 (28276) - http://www.bohemiancoding.com/sketch -->
    <title>D81269B3-24AF-43A1-8D76-ACFAFC031892</title>
    <desc>Created with sketchtool.</desc>
    <defs>
        <polygon id="path-1" points="0 0.02488501 0 63.0231404 329.361812 63.0231404 329.361812 0.02488501 0 0.02488501"></polygon>
    </defs>
    <g id="GdS-md" stroke="none" stroke-width="1" fill="none" fill-rule="evenodd">
        <g id="11---game_perguntas_interna" transform="translate(-667.000000, -424.000000)">
            <g id="Group-8" transform="translate(270.000000, 239.000000)">
                <g id="Group-2" transform="translate(397.000000, 38.000000)">
                    <g id="question" transform="translate(0.631666, 147.882874)">
                        <g id="Group-3" transform="translate(5.000000, 5.351521)">
                            <mask id="mask-2" fill="white">
                                <use xlink:href="#path-1"></use>
                            </mask>
                            <g id="Clip-2"></g>
                            <path d="M14.5948452,0.0699242848 C114.522925,7.22671663 214.838608,7.22671663 314.766688,0.0699242848 C322.831093,-0.558279948 329.354841,5.45771579 329.361812,13.5742259 L329.361812,49.4737995 C329.356235,57.5903096 322.832488,63.6063053 314.766688,62.9781011 C214.838608,55.8213088 114.522925,55.8213088 14.5948452,62.9781011 C6.52904536,63.6063053 0.0011154088,57.5903096 -0.000278852194,49.4737995 L-0.000278852194,13.5742259 C0.00250966978,5.45771579 6.53322814,-0.558279948 14.5948452,0.0699242848" id="Fill-1" fill="#9B9B9B" mask="url(#mask-2)"></path>
                        </g>
                        <path d="M328.589711,7.71863937 C330.455232,10.0002326 333.438951,13.4699814 333.441739,16.7920814 C332.821293,28.5594192 332.199452,40.2752192 331.577612,51.9380885 C331.574824,60.0016679 325.049682,66.0246282 316.981094,65.4563193 C217.263548,59.6325457 117.168157,59.9306293 17.4631596,67.5526549 C14.1434241,67.7950219 10.4374784,65.1652002 7.98776187,63.4602735 C10.6535889,66.7754089 14.8544972,68.6725578 19.5949846,68.328508 C119.523064,61.1717157 219.837354,61.1717157 319.766827,68.328508 C327.831233,68.9581052 334.35498,62.9435023 334.361951,54.8255993 L334.361951,18.9246328 C334.361951,14.1747959 332.0907,10.1019153 328.589711,7.71863937" id="Fill-4" fill="#1E120F" opacity="0.3"></path>
                        <path d="M6.37655387,56.8843263 C7.30931448,45.594758 8.24346934,34.380407 9.17622994,23.2412734 C9.1776242,15.2055523 15.7139197,9.17702037 23.7727482,9.7160781 C123.335531,14.7988214 223.267793,14.3308023 322.812451,6.34244029 C325.773861,6.12235987 329.658272,9.67846942 331.957409,11.0574543 C329.351535,7.27151396 324.868986,5.04842315 319.765991,5.42172411 C219.837911,12.5785165 119.523622,12.5785165 19.5941481,5.42172411 C11.5297425,4.79212697 5.00041828,10.8081227 5.00041828,18.9246328 L5.00041828,54.8255993 C4.99762976,59.934808 7.62441746,64.2681636 11.5799359,66.5511497 C10.0629799,64.3990975 6.20924256,61.5840182 6.37655387,56.8843263" id="Fill-6" fill="#FFFFFF" opacity="0.3"></path>
                    </g>
                </g>
            </g>
        </g>
    </g>
</svg>